<svg xmlns="http://www.w3.org/2000/svg" viewBox="0 -0.5 300 375" shape-rendering="crispEdges">
<metadata>Made with Pixels to Svg https://codepen.io/shshaw/pen/XbxvNj</metadata>
<path stroke="#ffffff" d="M0 0h1M2 0h1M4 0h1M6 0h1M8 0h1M10 0h1M12 0h1M14 0h1M16 0h1M18 0h1M20 0h1M22 0h1M24 0h1M26 0h1M28 0h1M30 0h1M32 0h1M34 0h1M36 0h1M38 0h1M40 0h1M42 0h1M44 0h1M46 0h1M48 0h1M50 0h1M52 0h1M54 0h1M56 0h1M58 0h1M60 0h1M62 0h1M64 0h1M66 0h1M68 0h1M70 0h1M72 0h1M74 0h1M76 0h1M78 0h1M80 0h1M82 0h1M84 0h1M86 0h1M88 0h1M90 0h1M92 0h1M94 0h1M96 0h1M98 0h1M100 0h1M102 0h1M104 0h1M106 0h1M108 0h1M110 0h1M112 0h1M114 0h1M116 0h1M118 0h1M120 0h1M122 0h1M124 0h1M126 0h1M128 0h1M130 0h1M132 0h1M134 0h1M136 0h1M138 0h1M140 0h1M142 0h1M144 0h1M146 0h1M148 0h1M150 0h1M152 0h1M154 0h1M156 0h1M158 0h1M160 0h1M162 0h1M164 0h1M166 0h1M168 0h1M170 0h1M172 0h1M174 0h1M176 0h1M178 0h1M180 0h1M182 0h1M184 0h1M186 0h1M188 0h1M190 0h1M192 0h1M194 0h1M196 0h1M198 0h1M200 0h1M202 0h1M204 0h1M206 0h1M208 0h1M210 0h1M212 0h1M214 0h1M216 0h1M218 0h1M220 0h1M222 0h1M224 0h1M226 0h1M228 0h1M230 0h1M232 0h1M234 0h1M236 0h1M238 0h1M240 0h1M242 0h1M244 0h1M246 0h1M248 0h1M250 0h1M252 0h1M254 0h1M256 0h1M258 0h1M260 0h1M262 0h1M264 0h1M266 0h1M268 0h1M270 0h1M272 0h1M274 0h1M276 0h1M278 0h1M280 0h1M282 0h1M284 0h1M286 0h1M288 0h1M290 0h1M292 0h1M294 0h1M296 0h1M298 0h1M0 2h1M2 2h1M4 2h1M6 2h1M8 2h1M10 2h1M12 2h1M14 2h1M16 2h1M18 2h1M20 2h1M22 2h1M24 2h1M26 2h1M28 2h1M30 2h1M32 2h1M34 2h1M36 2h1M38 2h1M40 2h1M42 2h1M44 2h1M46 2h1M48 2h1M50 2h1M52 2h1M54 2h1M56 2h1M58 2h1M60 2h1M62 2h1M64 2h1M66 2h1M68 2h1M70 2h1M72 2h1M74 2h1M76 2h1M78 2h1M80 2h1M82 2h1M84 2h1M86 2h1M88 2h1M90 2h1M92 2h1M94 2h1M96 2h1M98 2h1M100 2h1M102 2h1M104 2h1M106 2h1M108 2h1M110 2h1M112 2h1M114 2h1M116 2h1M118 2h1M120 2h1M122 2h1M124 2h1M126 2h1M128 2h1M130 2h1M132 2h1M134 2h1M136 2h1M138 2h1M140 2h1M142 2h1M144 2h1M146 2h1M148 2h1M150 2h1M152 2h1M154 2h1M156 2h1M158 2h1M160 2h1M162 2h1M164 2h1M166 2h1M168 2h1M170 2h1M172 2h1M174 2h1M176 2h1M178 2h1M180 2h1M182 2h1M184 2h1M186 2h1M188 2h1M190 2h1M192 2h1M194 2h1M196 2h1M198 2h1M200 2h1M202 2h1M204 2h1M206 2h1M208 2h1M210 2h1M212 2h1M214 2h1M216 2h1M218 2h1M220 2h1M222 2h1M224 2h1M226 2h1M228 2h1M230 2h1M232 2h1M234 2h1M236 2h1M238 2h1M240 2h1M242 2h1M244 2h1M246 2h1M248 2h1M250 2h1M252 2h1M254 2h1M256 2h1M258 2h1M260 2h1M262 2h1M264 2h1M266 2h1M268 2h1M270 2h1M272 2h1M274 2h1M276 2h1M278 2h1M280 2h1M282 2h1M284 2h1M286 2h1M288 2h1M290 2h1M292 2h1M294 2h1M296 2h1M298 2h1M0 4h1M2 4h1M4 4h1M6 4h1M8 4h1M10 4h1M12 4h1M14 4h1M16 4h1M18 4h1M20 4h1M22 4h1M24 4h1M26 4h1M28 4h1M30 4h1M32 4h1M34 4h1M36 4h1M38 4h1M40 4h1M42 4h1M44 4h1M46 4h1M48 4h1M50 4h1M52 4h1M54 4h1M56 4h1M58 4h1M60 4h1M62 4h1M64 4h1M66 4h1M68 4h1M70 4h1M72 4h1M74 4h1M76 4h1M78 4h1M80 4h1M82 4h1M84 4h1M86 4h1M88 4h1M90 4h1M92 4h1M94 4h1M96 4h1M98 4h1M100 4h1M102 4h1M104 4h1M106 4h1M108 4h1M110 4h1M112 4h1M114 4h1M116 4h1M118 4h1M120 4h1M122 4h1M124 4h1M126 4h1M128 4h1M130 4h1M132 4h1M134 4h1M136 4h1M138 4h1M140 4h1M142 4h1M144 4h1M146 4h1M148 4h1M150 4h1M152 4h1M154 4h1M156 4h1M158 4h1M160 4h1M162 4h1M164 4h1M166 4h1M168 4h1M170 4h1M172 4h1M174 4h1M176 4h1M178 4h1M180 4h1M182 4h1M184 4h1M186 4h1M188 4h1M190 4h1M192 4h1M194 4h1M196 4h1M198 4h1M200 4h1M202 4h1M204 4h1M206 4h1M208 4h1M210 4h1M212 4h1M214 4h1M216 4h1M218 4h1M220 4h1M222 4h1M224 4h1M226 4h1M228 4h1M230 4h1M232 4h1M234 4h1M236 4h1M238 4h1M240 4h1M242 4h1M244 4h1M246 4h1M248 4h1M250 4h1M252 4h1M254 4h1M256 4h1M258 4h1M260 4h1M262 4h1M264 4h1M266 4h1M268 4h1M270 4h1M272 4h1M274 4h1M276 4h1M278 4h1M280 4h1M282 4h1M284 4h1M286 4h1M288 4h1M290 4h1M292 4h1M294 4h1M296 4h1M298 4h1M0 6h1M2 6h1M4 6h1M6 6h1M8 6h1M10 6h1M12 6h1M14 6h1M16 6h1M18 6h1M20 6h1M22 6h1M24 6h1M26 6h1M28 6h1M30 6h1M32 6h1M34 6h1M36 6h1M38 6h1M40 6h1M42 6h1M44 6h1M46 6h1M48 6h1M50 6h1M52 6h1M54 6h1M56 6h1M58 6h1M60 6h1M62 6h1M64 6h1M66 6h1M68 6h1M70 6h1M72 6h1M74 6h1M76 6h1M78 6h1M80 6h1M82 6h1M84 6h1M86 6h1M88 6h1M90 6h1M92 6h1M94 6h1M96 6h1M98 6h1M100 6h1M102 6h1M104 6h1M106 6h1M108 6h1M110 6h1M112 6h1M114 6h1M116 6h1M118 6h1M120 6h1M122 6h1M124 6h1M126 6h1M128 6h1M130 6h1M132 6h1M134 6h1M136 6h1M138 6h1M140 6h1M142 6h1M144 6h1M146 6h1M148 6h1M150 6h1M152 6h1M154 6h1M156 6h1M158 6h1M160 6h1M162 6h1M164 6h1M166 6h1M168 6h1M170 6h1M172 6h1M174 6h1M176 6h1M178 6h1M180 6h1M182 6h1M184 6h1M186 6h1M188 6h1M190 6h1M192 6h1M194 6h1M196 6h1M198 6h1M200 6h1M202 6h1M204 6h1M206 6h1M208 6h1M210 6h1M212 6h1M214 6h1M216 6h1M218 6h1M220 6h1M222 6h1M224 6h1M226 6h1M228 6h1M230 6h1M232 6h1M234 6h1M236 6h1M238 6h1M240 6h1M242 6h1M244 6h1M246 6h1M248 6h1M250 6h1M252 6h1M254 6h1M256 6h1M258 6h1M260 6h1M262 6h1M264 6h1M266 6h1M268 6h1M270 6h1M272 6h1M274 6h1M276 6h1M278 6h1M280 6h1M282 6h1M284 6h1M286 6h1M288 6h1M290 6h1M292 6h1M294 6h1M296 6h1M298 6h1M0 8h1M2 8h1M4 8h1M6 8h1M8 8h1M10 8h1M12 8h1M14 8h1M16 8h1M18 8h1M20 8h1M22 8h1M24 8h1M26 8h1M28 8h1M30 8h1M32 8h1M34 8h1M36 8h1M38 8h1M40 8h1M42 8h1M44 8h1M46 8h1M48 8h1M50 8h1M52 8h1M54 8h1M56 8h1M58 8h1M60 8h1M62 8h1M64 8h1M66 8h1M68 8h1M70 8h1M72 8h1M74 8h1M76 8h1M78 8h1M80 8h1M82 8h1M84 8h1M86 8h1M88 8h1M90 8h1M92 8h1M94 8h1M96 8h1M98 8h1M100 8h1M102 8h1M104 8h1M106 8h1M108 8h1M110 8h1M112 8h1M114 8h1M116 8h1M118 8h1M120 8h1M122 8h1M124 8h1M126 8h1M128 8h1M130 8h1M132 8h1M134 8h1M136 8h1M138 8h1M140 8h1M142 8h1M144 8h1M146 8h1M148 8h1M150 8h1M152 8h1M154 8h1M156 8h1M158 8h1M160 8h1M162 8h1M164 8h1M166 8h1M168 8h1M170 8h1M172 8h1M174 8h1M176 8h1M178 8h1M180 8h1M182 8h1M184 8h1M186 8h1M188 8h1M190 8h1M192 8h1M194 8h1M196 8h1M198 8h1M200 8h1M202 8h1M204 8h1M206 8h1M208 8h1M210 8h1M212 8h1M214 8h1M216 8h1M218 8h1M220 8h1M222 8h1M224 8h1M226 8h1M228 8h1M230 8h1M232 8h1M234 8h1M236 8h1M238 8h1M240 8h1M242 8h1M244 8h1M246 8h1M248 8h1M250 8h1M252 8h1M254 8h1M256 8h1M258 8h1M260 8h1M262 8h1M264 8h1M266 8h1M268 8h1M270 8h1M272 8h1M274 8h1M276 8h1M278 8h1M280 8h1M282 8h1M284 8h1M286 8h1M288 8h1M290 8h1M292 8h1M294 8h1M296 8h1M298 8h1M0 10h1M2 10h1M4 10h1M6 10h1M8 10h1M10 10h1M12 10h1M14 10h1M16 10h1M18 10h1M20 10h1M22 10h1M24 10h1M26 10h1M28 10h1M30 10h1M32 10h1M34 10h1M36 10h1M38 10h1M40 10h1M42 10h1M44 10h1M46 10h1M48 10h1M50 10h1M52 10h1M54 10h1M56 10h1M58 10h1M60 10h1M62 10h1M64 10h1M66 10h1M68 10h1M70 10h1M72 10h1M74 10h1M76 10h1M78 10h1M80 10h1M82 10h1M84 10h1M86 10h1M88 10h1M90 10h1M92 10h1M94 10h1M96 10h1M98 10h1M100 10h1M102 10h1M104 10h1M106 10h1M108 10h1M110 10h1M112 10h1M114 10h1M116 10h1M118 10h1M120 10h1M122 10h1M124 10h1M126 10h1M128 10h1M130 10h1M132 10h1M134 10h1M136 10h1M138 10h1M140 10h1M142 10h1M144 10h1M146 10h1M148 10h1M150 10h1M152 10h1M154 10h1M156 10h1M158 10h1M160 10h1M162 10h1M164 10h1M166 10h1M168 10h1M170 10h1M172 10h1M174 10h1M176 10h1M178 10h1M180 10h1M182 10h1M184 10h1M186 10h1M188 10h1M190 10h1M192 10h1M194 10h1M196 10h1M198 10h1M200 10h1M202 10h1M204 10h1M206 10h1M208 10h1M210 10h1M212 10h1M214 10h1M216 10h1M218 10h1M220 10h1M222 10h1M224 10h1M226 10h1M228 10h1M230 10h1M232 10h1M234 10h1M236 10h1M238 10h1M240 10h1M242 10h1M244 10h1M246 10h1M248 10h1M250 10h1M252 10h1M254 10h1M256 10h1M258 10h1M260 10h1M262 10h1M264 10h1M266 10h1M268 10h1M270 10h1M272 10h1M274 10h1M276 10h1M278 10h1M280 10h1M282 10h1M284 10h1M286 10h1M288 10h1M290 10h1M292 10h1M294 10h1M296 10h1M298 10h1M0 12h1M2 12h1M4 12h1M6 12h1M8 12h1M10 12h1M12 12h1M14 12h1M16 12h1M18 12h1M20 12h1M22 12h1M24 12h1M26 12h1M28 12h1M30 12h1M32 12h1M34 12h1M36 12h1M38 12h1M40 12h1M42 12h1M44 12h1M46 12h1M48 12h1M50 12h1M52 12h1M54 12h1M56 12h1M58 12h1M60 12h1M62 12h1M64 12h1M66 12h1M68 12h1M70 12h1M72 12h1M74 12h1M76 12h1M78 12h1M80 12h1M82 12h1M84 12h1M86 12h1M88 12h1M90 12h1M92 12h1M94 12h1M96 12h1M98 12h1M100 12h1M102 12h1M104 12h1M106 12h1M108 12h1M110 12h1M112 12h1M114 12h1M116 12h1M118 12h1M120 12h1M122 12h1M124 12h1M126 12h1M128 12h1M130 12h1M132 12h1M134 12h1M136 12h1M138 12h1M140 12h1M142 12h1M144 12h1M146 12h1M148 12h1M150 12h1M152 12h1M154 12h1M156 12h1M158 12h1M160 12h1M162 12h1M164 12h1M166 12h1M168 12h1M170 12h1M172 12h1M174 12h1M176 12h1M178 12h1M180 12h1M182 12h1M184 12h1M186 12h1M188 12h1M190 12h1M192 12h1M194 12h1M196 12h1M198 12h1M200 12h1M202 12h1M204 12h1M206 12h1M208 12h1M210 12h1M212 12h1M214 12h1M216 12h1M218 12h1M220 12h1M222 12h1M224 12h1M226 12h1M228 12h1M230 12h1M232 12h1M234 12h1M236 12h1M238 12h1M240 12h1M242 12h1M244 12h1M246 12h1M248 12h1M250 12h1M252 12h1M254 12h1M256 12h1M258 12h1M260 12h1M262 12h1M264 12h1M266 12h1M268 12h1M270 12h1M272 12h1M274 12h1M276 12h1M278 12h1M280 12h1M282 12h1M284 12h1M286 12h1M288 12h1M290 12h1M292 12h1M294 12h1M296 12h1M298 12h1M0 14h1M2 14h1M4 14h1M6 14h1M8 14h1M10 14h1M12 14h1M14 14h1M16 14h1M18 14h1M20 14h1M22 14h1M24 14h1M26 14h1M28 14h1M30 14h1M32 14h1M34 14h1M36 14h1M38 14h1M40 14h1M42 14h1M44 14h1M46 14h1M48 14h1M50 14h1M52 14h1M54 14h1M56 14h1M58 14h1M60 14h1M62 14h1M64 14h1M66 14h1M68 14h1M70 14h1M72 14h1M74 14h1M76 14h1M78 14h1M80 14h1M82 14h1M84 14h1M86 14h1M88 14h1M90 14h1M92 14h1M94 14h1M96 14h1M98 14h1M100 14h1M102 14h1M104 14h1M106 14h1M108 14h1M110 14h1M112 14h1M114 14h1M116 14h1M118 14h1M120 14h1M122 14h1M124 14h1M126 14h1M128 14h1M130 14h1M132 14h1M134 14h1M136 14h1M138 14h1M140 14h1M142 14h1M144 14h1M146 14h1M148 14h1M150 14h1M152 14h1M154 14h1M156 14h1M158 14h1M160 14h1M162 14h1M164 14h1M166 14h1M168 14h1M170 14h1M172 14h1M174 14h1M176 14h1M178 14h1M180 14h1M182 14h1M184 14h1M186 14h1M188 14h1M190 14h1M192 14h1M194 14h1M196 14h1M198 14h1M200 14h1M202 14h1M204 14h1M206 14h1M208 14h1M210 14h1M212 14h1M214 14h1M216 14h1M218 14h1M220 14h1M222 14h1M224 14h1M226 14h1M228 14h1M230 14h1M232 14h1M234 14h1M236 14h1M238 14h1M240 14h1M242 14h1M244 14h1M246 14h1M248 14h1M250 14h1M252 14h1M254 14h1M256 14h1M258 14h1M260 14h1M262 14h1M264 14h1M266 14h1M268 14h1M270 14h1M272 14h1M274 14h1M276 14h1M278 14h1M280 14h1M282 14h1M284 14h1M286 14h1M288 14h1M290 14h1M292 14h1M294 14h1M296 14h1M298 14h1M0 16h1M2 16h1M4 16h1M6 16h1M8 16h1M10 16h1M12 16h1M14 16h1M16 16h1M18 16h1M20 16h1M22 16h1M24 16h1M26 16h1M28 16h1M30 16h1M32 16h1M34 16h1M36 16h1M38 16h1M40 16h1M42 16h1M44 16h1M46 16h1M48 16h1M50 16h1M52 16h1M54 16h1M56 16h1M58 16h1M60 16h1M62 16h1M64 16h1M66 16h1M68 16h1M70 16h1M72 16h1M74 16h1M76 16h1M78 16h1M80 16h1M82 16h1M84 16h1M86 16h1M88 16h1M90 16h1M92 16h1M94 16h1M96 16h1M98 16h1M100 16h1M102 16h1M104 16h1M106 16h1M108 16h1M110 16h1M112 16h1M114 16h1M116 16h1M118 16h1M120 16h1M122 16h1M124 16h1M126 16h1M128 16h1M130 16h1M132 16h1M134 16h1M136 16h1M138 16h1M140 16h1M142 16h1M144 16h1M146 16h1M148 16h1M150 16h1M152 16h1M154 16h1M156 16h1M158 16h1M160 16h1M162 16h1M164 16h1M166 16h1M168 16h1M170 16h1M172 16h1M174 16h1M176 16h1M178 16h1M180 16h1M182 16h1M184 16h1M186 16h1M188 16h1M190 16h1M192 16h1M194 16h1M196 16h1M198 16h1M200 16h1M202 16h1M204 16h1M206 16h1M208 16h1M210 16h1M212 16h1M214 16h1M216 16h1M218 16h1M220 16h1M222 16h1M224 16h1M226 16h1M228 16h1M230 16h1M232 16h1M234 16h1M236 16h1M238 16h1M240 16h1M242 16h1M244 16h1M246 16h1M248 16h1M250 16h1M252 16h1M254 16h1M256 16h1M258 16h1M260 16h1M262 16h1M264 16h1M266 16h1M268 16h1M270 16h1M272 16h1M274 16h1M276 16h1M278 16h1M280 16h1M282 16h1M284 16h1M286 16h1M288 16h1M290 16h1M292 16h1M294 16h1M296 16h1M298 16h1M0 18h1M2 18h1M4 18h1M6 18h1M8 18h1M10 18h1M12 18h1M14 18h1M16 18h1M18 18h1M20 18h1M22 18h1M24 18h1M26 18h1M28 18h1M30 18h1M32 18h1M34 18h1M36 18h1M38 18h1M40 18h1M42 18h1M44 18h1M46 18h1M48 18h1M50 18h1M52 18h1M54 18h1M56 18h1M58 18h1M60 18h1M62 18h1M64 18h1M66 18h1M68 18h1M70 18h1M72 18h1M74 18h1M76 18h1M78 18h1M80 18h1M82 18h1M84 18h1M86 18h1M88 18h1M90 18h1M92 18h1M94 18h1M96 18h1M98 18h1M100 18h1M102 18h1M104 18h1M106 18h1M108 18h1M110 18h1M112 18h1M114 18h1M116 18h1M118 18h1M120 18h1M122 18h1M124 18h1M126 18h1M128 18h1M130 18h1M132 18h1M134 18h1M136 18h1M138 18h1M140 18h1M142 18h1M144 18h1M146 18h1M148 18h1M150 18h1M152 18h1M154 18h1M156 18h1M158 18h1M160 18h1M162 18h1M164 18h1M166 18h1M168 18h1M170 18h1M172 18h1M174 18h1M176 18h1M178 18h1M180 18h1M182 18h1M184 18h1M186 18h1M188 18h1M190 18h1M192 18h1M194 18h1M196 18h1M198 18h1M200 18h1M202 18h1M204 18h1M206 18h1M208 18h1M210 18h1M212 18h1M214 18h1M216 18h1M218 18h1M220 18h1M222 18h1M224 18h1M226 18h1M228 18h1M230 18h1M232 18h1M234 18h1M236 18h1M238 18h1M240 18h1M242 18h1M244 18h1M246 18h1M248 18h1M250 18h1M252 18h1M254 18h1M256 18h1M258 18h1M260 18h1M262 18h1M264 18h1M266 18h1M268 18h1M270 18h1M272 18h1M274 18h1M276 18h1M278 18h1M280 18h1M282 18h1M284 18h1M286 18h1M288 18h1M290 18h1M292 18h1M294 18h1M296 18h1M298 18h1M0 20h1M2 20h1M4 20h1M6 20h1M8 20h1M10 20h1M12 20h1M14 20h1M16 20h1M18 20h1M20 20h1M22 20h1M24 20h1M26 20h1M28 20h1M30 20h1M32 20h1M34 20h1M36 20h1M38 20h1M40 20h1M42 20h1M44 20h1M46 20h1M48 20h1M50 20h1M52 20h1M54 20h1M56 20h1M58 20h1M60 20h1M62 20h1M64 20h1M66 20h1M68 20h1M70 20h1M72 20h1M74 20h1M76 20h1M78 20h1M80 20h1M82 20h1M84 20h1M86 20h1M88 20h1M90 20h1M92 20h1M94 20h1M96 20h1M98 20h1M100 20h1M102 20h1M104 20h1M106 20h1M108 20h1M110 20h1M112 20h1M114 20h1M116 20h1M118 20h1M120 20h1M122 20h1M124 20h1M126 20h1M128 20h1M130 20h1M132 20h1M134 20h1M136 20h1M138 20h1M140 20h1M142 20h1M144 20h1M146 20h1M148 20h1M150 20h1M152 20h1M154 20h1M156 20h1M158 20h1M160 20h1M162 20h1M164 20h1M166 20h1M168 20h1M170 20h1M172 20h1M174 20h1M176 20h1M178 20h1M180 20h1M182 20h1M184 20h1M186 20h1M188 20h1M190 20h1M192 20h1M194 20h1M196 20h1M198 20h1M200 20h1M202 20h1M204 20h1M206 20h1M208 20h1M210 20h1M212 20h1M214 20h1M216 20h1M218 20h1M220 20h1M222 20h1M224 20h1M226 20h1M228 20h1M230 20h1M232 20h1M234 20h1M236 20h1M238 20h1M240 20h1M242 20h1M244 20h1M246 20h1M248 20h1M250 20h1M252 20h1M254 20h1M256 20h1M258 20h1M260 20h1M262 20h1M264 20h1M266 20h1M268 20h1M270 20h1M272 20h1M274 20h1M276 20h1M278 20h1M280 20h1M282 20h1M284 20h1M286 20h1M288 20h1M290 20h1M292 20h1M294 20h1M296 20h1M298 20h1M2 38h1M6 38h1M10 38h1M14 38h1M18 38h1M22 38h1M26 38h1M30 38h1M34 38h1M38 38h1M42 38h1M46 38h1M50 38h1M54 38h1M58 38h1M62 38h1M66 38h1M70 38h1M74 38h1M150 38h1M154 38h1M158 38h1M162 38h1M166 38h1M170 38h1M174 38h1M178 38h1M182 38h1M186 38h1M190 38h1M194 38h1M198 38h1M202 38h1M206 38h1M210 38h1M214 38h1M226 38h1M230 38h1M4 40h1M8 40h1M12 40h1M16 40h1M20 40h1M24 40h1M28 40h1M32 40h1M36 40h1M40 40h1M44 40h1M48 40h1M52 40h1M56 40h1M60 40h1M64 40h1M68 40h1M72 40h1M152 40h1M156 40h1M160 40h1M164 40h1M168 40h1M172 40h1M176 40h1M180 40h1M184 40h1M188 40h1M192 40h1M196 40h1M200 40h1M204 40h1M228 40h1M232 40h1M236 40h1M240 40h1M6 42h1M10 42h1M14 42h1M18 42h1M22 42h1M26 42h1M30 42h1M34 42h1M38 42h1M42 42h1M46 42h1M50 42h1M54 42h1M58 42h1M62 42h1M66 42h1M70 42h1M74 42h1M150 42h1M154 42h1M158 42h1M162 42h1M166 42h1M170 42h1M174 42h1M178 42h1M182 42h1M186 42h1M190 42h1M194 42h1M198 42h1M226 42h1M230 42h1M234 42h1M238 42h1M242 42h1M246 42h1M8 44h1M12 44h1M16 44h1M20 44h1M24 44h1M28 44h1M32 44h1M36 44h1M40 44h1M44 44h1M48 44h1M52 44h1M56 44h1M60 44h1M64 44h1M68 44h1M72 44h1M148 44h1M152 44h1M156 44h1M160 44h1M164 44h1M168 44h1M172 44h1M176 44h1M180 44h1M184 44h1M188 44h1M192 44h1M228 44h1M232 44h1M236 44h1M240 44h1M244 44h1M248 44h1M252 44h1M6 46h1M10 46h1M14 46h1M18 46h1M22 46h1M26 46h1M30 46h1M34 46h1M38 46h1M42 46h1M46 46h1M50 46h1M54 46h1M58 46h1M62 46h1M66 46h1M70 46h1M74 46h1M146 46h1M150 46h1M154 46h1M158 46h1M162 46h1M166 46h1M170 46h1M174 46h1M178 46h1M182 46h1M186 46h1M190 46h1M226 46h1M230 46h1M234 46h1M238 46h1M242 46h1M246 46h1M250 46h1M254 46h1M258 46h1M8 48h1M12 48h1M16 48h1M20 48h1M24 48h1M28 48h1M32 48h1M36 48h1M40 48h1M44 48h1M48 48h1M52 48h1M56 48h1M60 48h1M64 48h1M68 48h1M72 48h1M148 48h1M152 48h1M156 48h1M160 48h1M164 48h1M168 48h1M172 48h1M176 48h1M180 48h1M184 48h1M228 48h1M232 48h1M236 48h1M240 48h1M244 48h1M248 48h1M252 48h1M256 48h1M260 48h1M10 50h1M14 50h1M18 50h1M22 50h1M26 50h1M30 50h1M34 50h1M38 50h1M42 50h1M46 50h1M50 50h1M54 50h1M58 50h1M62 50h1M66 50h1M70 50h1M74 50h1M146 50h1M150 50h1M154 50h1M158 50h1M162 50h1M166 50h1M170 50h1M174 50h1M178 50h1M182 50h1M226 50h1M230 50h1M234 50h1M238 50h1M242 50h1M246 50h1M250 50h1M254 50h1M258 50h1M262 50h1M12 52h1M16 52h1M20 52h1M24 52h1M28 52h1M32 52h1M36 52h1M40 52h1M44 52h1M48 52h1M52 52h1M56 52h1M60 52h1M64 52h1M68 52h1M72 52h1M144 52h1M148 52h1M152 52h1M156 52h1M160 52h1M164 52h1M168 52h1M172 52h1M176 52h1M180 52h1M228 52h1M232 52h1M236 52h1M240 52h1M244 52h1M248 52h1M252 52h1M256 52h1M260 52h1M264 52h1M268 52h1M10 54h1M14 54h1M18 54h1M22 54h1M26 54h1M30 54h1M34 54h1M38 54h1M42 54h1M46 54h1M50 54h1M54 54h1M58 54h1M62 54h1M66 54h1M70 54h1M74 54h1M142 54h1M146 54h1M150 54h1M154 54h1M158 54h1M162 54h1M166 54h1M170 54h1M174 54h1M226 54h1M230 54h1M234 54h1M238 54h1M242 54h1M246 54h1M250 54h1M254 54h1M258 54h1M262 54h1M266 54h1M270 54h1M12 56h1M16 56h1M20 56h1M24 56h1M28 56h1M32 56h1M36 56h1M40 56h1M44 56h1M48 56h1M52 56h1M56 56h1M60 56h1M64 56h1M68 56h1M72 56h1M144 56h1M148 56h1M152 56h1M156 56h1M160 56h1M164 56h1M168 56h1M172 56h1M228 56h1M232 56h1M236 56h1M240 56h1M244 56h1M248 56h1M252 56h1M256 56h1M260 56h1M264 56h1M268 56h1M272 56h1M14 58h1M18 58h1M22 58h1M26 58h1M30 58h1M34 58h1M38 58h1M42 58h1M46 58h1M50 58h1M54 58h1M58 58h1M62 58h1M66 58h1M70 58h1M74 58h1M142 58h1M146 58h1M150 58h1M154 58h1M158 58h1M162 58h1M166 58h1M170 58h1M226 58h1M230 58h1M234 58h1M238 58h1M242 58h1M246 58h1M250 58h1M254 58h1M258 58h1M262 58h1M266 58h1M270 58h1M274 58h1M16 60h1M20 60h1M24 60h1M28 60h1M32 60h1M36 60h1M40 60h1M44 60h1M48 60h1M52 60h1M56 60h1M60 60h1M64 60h1M68 60h1M72 60h1M140 60h1M144 60h1M148 60h1M152 60h1M156 60h1M160 60h1M164 60h1M168 60h1M228 60h1M232 60h1M236 60h1M240 60h1M244 60h1M248 60h1M252 60h1M256 60h1M260 60h1M264 60h1M268 60h1M272 60h1M276 60h1M14 62h1M18 62h1M22 62h1M26 62h1M30 62h1M34 62h1M38 62h1M42 62h1M46 62h1M50 62h1M54 62h1M58 62h1M62 62h1M66 62h1M70 62h1M74 62h1M138 62h1M142 62h1M146 62h1M150 62h1M154 62h1M158 62h1M162 62h1M166 62h1M226 62h1M230 62h1M234 62h1M238 62h1M242 62h1M246 62h1M250 62h1M254 62h1M258 62h1M262 62h1M266 62h1M270 62h1M274 62h1M278 62h1M16 64h1M20 64h1M24 64h1M28 64h1M32 64h1M36 64h1M40 64h1M44 64h1M48 64h1M52 64h1M56 64h1M60 64h1M64 64h1M68 64h1M72 64h1M140 64h1M144 64h1M148 64h1M152 64h1M156 64h1M160 64h1M164 64h1M228 64h1M232 64h1M236 64h1M240 64h1M244 64h1M248 64h1M252 64h1M256 64h1M260 64h1M264 64h1M268 64h1M272 64h1M276 64h1M280 64h1M18 66h1M22 66h1M26 66h1M30 66h1M34 66h1M38 66h1M42 66h1M46 66h1M50 66h1M54 66h1M58 66h1M62 66h1M66 66h1M70 66h1M74 66h1M138 66h1M142 66h1M146 66h1M150 66h1M154 66h1M158 66h1M162 66h1M166 66h1M226 66h1M230 66h1M234 66h1M238 66h1M242 66h1M246 66h1M250 66h1M254 66h1M258 66h1M262 66h1M266 66h1M270 66h1M274 66h1M278 66h1M282 66h1M20 68h1M24 68h1M28 68h1M32 68h1M36 68h1M40 68h1M44 68h1M48 68h1M52 68h1M56 68h1M60 68h1M64 68h1M68 68h1M72 68h1M136 68h1M140 68h1M144 68h1M148 68h1M152 68h1M156 68h1M160 68h1M164 68h1M228 68h1M232 68h1M236 68h1M240 68h1M244 68h1M248 68h1M252 68h1M256 68h1M260 68h1M264 68h1M268 68h1M272 68h1M276 68h1M280 68h1M284 68h1M18 70h1M22 70h1M26 70h1M30 70h1M34 70h1M38 70h1M42 70h1M46 70h1M50 70h1M54 70h1M58 70h1M62 70h1M66 70h1M70 70h1M74 70h1M134 70h1M138 70h1M142 70h1M146 70h1M150 70h1M154 70h1M158 70h1M162 70h1M226 70h1M230 70h1M234 70h1M238 70h1M242 70h1M246 70h1M250 70h1M254 70h1M258 70h1M262 70h1M266 70h1M270 70h1M274 70h1M278 70h1M282 70h1M20 72h1M24 72h1M28 72h1M32 72h1M36 72h1M40 72h1M44 72h1M48 72h1M52 72h1M56 72h1M60 72h1M64 72h1M68 72h1M72 72h1M136 72h1M140 72h1M144 72h1M148 72h1M152 72h1M156 72h1M160 72h1M228 72h1M232 72h1M236 72h1M240 72h1M244 72h1M248 72h1M252 72h1M256 72h1M260 72h1M264 72h1M268 72h1M272 72h1M276 72h1M280 72h1M284 72h1M22 74h1M26 74h1M30 74h1M34 74h1M38 74h1M42 74h1M46 74h1M50 74h1M54 74h1M58 74h1M62 74h1M66 74h1M70 74h1M74 74h1M134 74h1M138 74h1M142 74h1M146 74h1M150 74h1M154 74h1M158 74h1M226 74h1M230 74h1M234 74h1M238 74h1M242 74h1M246 74h1M250 74h1M254 74h1M258 74h1M262 74h1M266 74h1M270 74h1M274 74h1M278 74h1M282 74h1M286 74h1M24 76h1M28 76h1M32 76h1M36 76h1M40 76h1M44 76h1M48 76h1M52 76h1M56 76h1M60 76h1M64 76h1M68 76h1M72 76h1M132 76h1M136 76h1M140 76h1M144 76h1M148 76h1M152 76h1M156 76h1M228 76h1M232 76h1M236 76h1M240 76h1M244 76h1M248 76h1M252 76h1M256 76h1M260 76h1M264 76h1M268 76h1M272 76h1M276 76h1M280 76h1M284 76h1M288 76h1M22 78h1M26 78h1M30 78h1M34 78h1M38 78h1M42 78h1M46 78h1M50 78h1M54 78h1M58 78h1M62 78h1M66 78h1M70 78h1M74 78h1M130 78h1M134 78h1M138 78h1M142 78h1M146 78h1M150 78h1M154 78h1M158 78h1M226 78h1M230 78h1M234 78h1M238 78h1M242 78h1M246 78h1M250 78h1M254 78h1M258 78h1M262 78h1M266 78h1M270 78h1M274 78h1M278 78h1M282 78h1M286 78h1M290 78h1M24 80h1M28 80h1M32 80h1M36 80h1M40 80h1M44 80h1M48 80h1M52 80h1M56 80h1M60 80h1M64 80h1M68 80h1M72 80h1M132 80h1M136 80h1M140 80h1M144 80h1M148 80h1M152 80h1M156 80h1M228 80h1M232 80h1M236 80h1M240 80h1M244 80h1M248 80h1M252 80h1M256 80h1M260 80h1M264 80h1M268 80h1M272 80h1M276 80h1M280 80h1M284 80h1M288 80h1M26 82h1M30 82h1M34 82h1M38 82h1M42 82h1M46 82h1M50 82h1M54 82h1M58 82h1M62 82h1M66 82h1M70 82h1M74 82h1M130 82h1M134 82h1M138 82h1M142 82h1M146 82h1M150 82h1M154 82h1M226 82h1M230 82h1M234 82h1M238 82h1M242 82h1M246 82h1M250 82h1M254 82h1M258 82h1M262 82h1M266 82h1M270 82h1M274 82h1M278 82h1M282 82h1M286 82h1M290 82h1M28 84h1M32 84h1M36 84h1M40 84h1M44 84h1M48 84h1M52 84h1M56 84h1M60 84h1M64 84h1M68 84h1M72 84h1M128 84h1M132 84h1M136 84h1M140 84h1M144 84h1M148 84h1M152 84h1M228 84h1M232 84h1M236 84h1M240 84h1M244 84h1M248 84h1M252 84h1M256 84h1M260 84h1M264 84h1M268 84h1M272 84h1M276 84h1M280 84h1M284 84h1M288 84h1M292 84h1M26 86h1M30 86h1M34 86h1M38 86h1M42 86h1M46 86h1M50 86h1M54 86h1M58 86h1M62 86h1M66 86h1M70 86h1M74 86h1M126 86h1M130 86h1M134 86h1M138 86h1M142 86h1M146 86h1M150 86h1M154 86h1M226 86h1M230 86h1M234 86h1M238 86h1M242 86h1M246 86h1M250 86h1M254 86h1M258 86h1M262 86h1M266 86h1M270 86h1M274 86h1M278 86h1M282 86h1M286 86h1M290 86h1M28 88h1M32 88h1M36 88h1M40 88h1M44 88h1M48 88h1M52 88h1M56 88h1M60 88h1M64 88h1M68 88h1M72 88h1M128 88h1M132 88h1M136 88h1M140 88h1M144 88h1M148 88h1M152 88h1M228 88h1M232 88h1M236 88h1M240 88h1M244 88h1M248 88h1M252 88h1M256 88h1M260 88h1M264 88h1M268 88h1M272 88h1M276 88h1M280 88h1M284 88h1M288 88h1M292 88h1M30 90h1M34 90h1M38 90h1M42 90h1M46 90h1M50 90h1M54 90h1M58 90h1M62 90h1M66 90h1M70 90h1M74 90h1M126 90h1M130 90h1M134 90h1M138 90h1M142 90h1M146 90h1M150 90h1M226 90h1M230 90h1M234 90h1M238 90h1M242 90h1M246 90h1M250 90h1M254 90h1M258 90h1M262 90h1M266 90h1M270 90h1M274 90h1M278 90h1M282 90h1M286 90h1M290 90h1M294 90h1M32 92h1M36 92h1M40 92h1M44 92h1M48 92h1M52 92h1M56 92h1M60 92h1M64 92h1M68 92h1M72 92h1M124 92h1M128 92h1M132 92h1M136 92h1M140 92h1M144 92h1M148 92h1M152 92h1M228 92h1M232 92h1M236 92h1M240 92h1M244 92h1M248 92h1M252 92h1M256 92h1M260 92h1M264 92h1M268 92h1M272 92h1M276 92h1M280 92h1M284 92h1M288 92h1M292 92h1M30 94h1M34 94h1M38 94h1M42 94h1M46 94h1M50 94h1M54 94h1M58 94h1M62 94h1M66 94h1M70 94h1M74 94h1M122 94h1M126 94h1M130 94h1M134 94h1M138 94h1M142 94h1M146 94h1M150 94h1M226 94h1M230 94h1M234 94h1M238 94h1M242 94h1M246 94h1M250 94h1M254 94h1M258 94h1M262 94h1M266 94h1M270 94h1M274 94h1M278 94h1M282 94h1M286 94h1M290 94h1M294 94h1M32 96h1M36 96h1M40 96h1M44 96h1M48 96h1M52 96h1M56 96h1M60 96h1M64 96h1M68 96h1M72 96h1M124 96h1M128 96h1M132 96h1M136 96h1M140 96h1M144 96h1M148 96h1M152 96h1M228 96h1M232 96h1M236 96h1M240 96h1M244 96h1M248 96h1M252 96h1M256 96h1M260 96h1M264 96h1M268 96h1M272 96h1M276 96h1M280 96h1M284 96h1M288 96h1M292 96h1M296 96h1M34 98h1M38 98h1M42 98h1M46 98h1M50 98h1M54 98h1M58 98h1M62 98h1M66 98h1M70 98h1M74 98h1M122 98h1M126 98h1M130 98h1M134 98h1M138 98h1M142 98h1M146 98h1M150 98h1M226 98h1M230 98h1M234 98h1M238 98h1M242 98h1M246 98h1M250 98h1M254 98h1M258 98h1M262 98h1M266 98h1M270 98h1M274 98h1M278 98h1M282 98h1M286 98h1M290 98h1M294 98h1M36 100h1M40 100h1M44 100h1M48 100h1M52 100h1M56 100h1M60 100h1M64 100h1M68 100h1M72 100h1M120 100h1M124 100h1M128 100h1M132 100h1M136 100h1M140 100h1M144 100h1M148 100h1M228 100h1M232 100h1M236 100h1M240 100h1M244 100h1M248 100h1M252 100h1M256 100h1M260 100h1M264 100h1M268 100h1M272 100h1M276 100h1M280 100h1M284 100h1M288 100h1M292 100h1M296 100h1M34 102h1M38 102h1M42 102h1M46 102h1M50 102h1M54 102h1M58 102h1M62 102h1M66 102h1M70 102h1M74 102h1M118 102h1M122 102h1M126 102h1M130 102h1M134 102h1M138 102h1M142 102h1M146 102h1M150 102h1M226 102h1M230 102h1M234 102h1M238 102h1M242 102h1M246 102h1M250 102h1M254 102h1M258 102h1M262 102h1M266 102h1M270 102h1M274 102h1M278 102h1M282 102h1M286 102h1M290 102h1M294 102h1M36 104h1M40 104h1M44 104h1M48 104h1M52 104h1M56 104h1M60 104h1M64 104h1M68 104h1M72 104h1M120 104h1M124 104h1M128 104h1M132 104h1M136 104h1M140 104h1M144 104h1M148 104h1M228 104h1M232 104h1M236 104h1M240 104h1M244 104h1M248 104h1M252 104h1M256 104h1M260 104h1M264 104h1M268 104h1M272 104h1M276 104h1M280 104h1M284 104h1M288 104h1M292 104h1M296 104h1M38 106h1M42 106h1M46 106h1M50 106h1M54 106h1M58 106h1M62 106h1M66 106h1M70 106h1M74 106h1M118 106h1M122 106h1M126 106h1M130 106h1M134 106h1M138 106h1M142 106h1M146 106h1M150 106h1M226 106h1M230 106h1M234 106h1M238 106h1M242 106h1M246 106h1M250 106h1M254 106h1M258 106h1M262 106h1M266 106h1M270 106h1M274 106h1M278 106h1M282 106h1M286 106h1M290 106h1M294 106h1M298 106h1M40 108h1M44 108h1M48 108h1M52 108h1M56 108h1M60 108h1M64 108h1M68 108h1M72 108h1M116 108h1M120 108h1M124 108h1M128 108h1M132 108h1M136 108h1M140 108h1M144 108h1M148 108h1M228 108h1M232 108h1M236 108h1M240 108h1M244 108h1M248 108h1M252 108h1M256 108h1M260 108h1M264 108h1M268 108h1M272 108h1M276 108h1M280 108h1M284 108h1M288 108h1M292 108h1M296 108h1M38 110h1M42 110h1M46 110h1M50 110h1M54 110h1M58 110h1M62 110h1M66 110h1M70 110h1M74 110h1M114 110h1M118 110h1M122 110h1M126 110h1M130 110h1M134 110h1M138 110h1M142 110h1M146 110h1M150 110h1M226 110h1M230 110h1M234 110h1M238 110h1M242 110h1M246 110h1M250 110h1M254 110h1M258 110h1M262 110h1M266 110h1M270 110h1M274 110h1M278 110h1M282 110h1M286 110h1M290 110h1M294 110h1M298 110h1M40 112h1M44 112h1M48 112h1M52 112h1M56 112h1M60 112h1M64 112h1M68 112h1M72 112h1M116 112h1M120 112h1M124 112h1M128 112h1M132 112h1M136 112h1M140 112h1M144 112h1M148 112h1M228 112h1M232 112h1M236 112h1M240 112h1M244 112h1M248 112h1M252 112h1M256 112h1M260 112h1M264 112h1M268 112h1M272 112h1M276 112h1M280 112h1M284 112h1M288 112h1M292 112h1M296 112h1M42 114h1M46 114h1M50 114h1M54 114h1M58 114h1M62 114h1M66 114h1M70 114h1M74 114h1M114 114h1M118 114h1M122 114h1M126 114h1M130 114h1M134 114h1M138 114h1M142 114h1M146 114h1M150 114h1M226 114h1M230 114h1M234 114h1M238 114h1M242 114h1M246 114h1M250 114h1M254 114h1M258 114h1M262 114h1M266 114h1M270 114h1M274 114h1M278 114h1M282 114h1M286 114h1M290 114h1M294 114h1M298 114h1M44 116h1M48 116h1M52 116h1M56 116h1M60 116h1M64 116h1M68 116h1M72 116h1M112 116h1M116 116h1M120 116h1M124 116h1M128 116h1M132 116h1M136 116h1M140 116h1M144 116h1M148 116h1M228 116h1M232 116h1M236 116h1M240 116h1M244 116h1M248 116h1M252 116h1M256 116h1M260 116h1M264 116h1M268 116h1M272 116h1M276 116h1M280 116h1M284 116h1M288 116h1M292 116h1M296 116h1M42 118h1M46 118h1M50 118h1M54 118h1M58 118h1M62 118h1M66 118h1M70 118h1M74 118h1M110 118h1M114 118h1M118 118h1M122 118h1M126 118h1M130 118h1M134 118h1M138 118h1M142 118h1M146 118h1M150 118h1M226 118h1M230 118h1M234 118h1M238 118h1M242 118h1M246 118h1M250 118h1M254 118h1M258 118h1M262 118h1M266 118h1M270 118h1M274 118h1M278 118h1M282 118h1M286 118h1M290 118h1M294 118h1M298 118h1M44 120h1M48 120h1M52 120h1M56 120h1M60 120h1M64 120h1M68 120h1M72 120h1M112 120h1M116 120h1M120 120h1M124 120h1M128 120h1M132 120h1M136 120h1M140 120h1M144 120h1M148 120h1M228 120h1M232 120h1M236 120h1M240 120h1M244 120h1M248 120h1M252 120h1M256 120h1M260 120h1M264 120h1M268 120h1M272 120h1M276 120h1M280 120h1M284 120h1M288 120h1M292 120h1M296 120h1M46 122h1M50 122h1M54 122h1M58 122h1M62 122h1M66 122h1M70 122h1M74 122h1M110 122h1M114 122h1M118 122h1M122 122h1M126 122h1M130 122h1M134 122h1M138 122h1M142 122h1M146 122h1M150 122h1M226 122h1M230 122h1M234 122h1M238 122h1M242 122h1M246 122h1M250 122h1M254 122h1M258 122h1M262 122h1M266 122h1M270 122h1M274 122h1M278 122h1M282 122h1M286 122h1M290 122h1M294 122h1M48 124h1M52 124h1M56 124h1M60 124h1M64 124h1M68 124h1M72 124h1M108 124h1M112 124h1M116 124h1M120 124h1M124 124h1M128 124h1M132 124h1M136 124h1M140 124h1M144 124h1M148 124h1M228 124h1M232 124h1M236 124h1M240 124h1M244 124h1M248 124h1M252 124h1M256 124h1M260 124h1M264 124h1M268 124h1M272 124h1M276 124h1M280 124h1M284 124h1M288 124h1M292 124h1M296 124h1M46 126h1M50 126h1M54 126h1M58 126h1M62 126h1M66 126h1M70 126h1M74 126h1M106 126h1M110 126h1M114 126h1M118 126h1M122 126h1M126 126h1M130 126h1M134 126h1M138 126h1M142 126h1M146 126h1M150 126h1M226 126h1M230 126h1M234 126h1M238 126h1M242 126h1M246 126h1M250 126h1M254 126h1M258 126h1M262 126h1M266 126h1M270 126h1M274 126h1M278 126h1M282 126h1M286 126h1M290 126h1M294 126h1M48 128h1M52 128h1M56 128h1M60 128h1M64 128h1M68 128h1M72 128h1M108 128h1M112 128h1M116 128h1M120 128h1M124 128h1M128 128h1M132 128h1M136 128h1M140 128h1M144 128h1M148 128h1M152 128h1M228 128h1M232 128h1M236 128h1M240 128h1M244 128h1M248 128h1M252 128h1M256 128h1M260 128h1M264 128h1M268 128h1M272 128h1M276 128h1M280 128h1M284 128h1M288 128h1M292 128h1M296 128h1M50 130h1M54 130h1M58 130h1M62 130h1M66 130h1M70 130h1M74 130h1M106 130h1M110 130h1M114 130h1M118 130h1M122 130h1M126 130h1M130 130h1M134 130h1M138 130h1M142 130h1M146 130h1M150 130h1M226 130h1M230 130h1M234 130h1M238 130h1M242 130h1M246 130h1M250 130h1M254 130h1M258 130h1M262 130h1M266 130h1M270 130h1M274 130h1M278 130h1M282 130h1M286 130h1M290 130h1M294 130h1M52 132h1M56 132h1M60 132h1M64 132h1M68 132h1M72 132h1M104 132h1M108 132h1M112 132h1M116 132h1M120 132h1M124 132h1M128 132h1M132 132h1M136 132h1M140 132h1M144 132h1M148 132h1M152 132h1M228 132h1M232 132h1M236 132h1M240 132h1M244 132h1M248 132h1M252 132h1M256 132h1M260 132h1M264 132h1M268 132h1M272 132h1M276 132h1M280 132h1M284 132h1M288 132h1M292 132h1M50 134h1M54 134h1M58 134h1M62 134h1M66 134h1M70 134h1M74 134h1M102 134h1M106 134h1M110 134h1M114 134h1M118 134h1M122 134h1M126 134h1M130 134h1M134 134h1M138 134h1M142 134h1M146 134h1M150 134h1M154 134h1M226 134h1M230 134h1M234 134h1M238 134h1M242 134h1M246 134h1M250 134h1M254 134h1M258 134h1M262 134h1M266 134h1M270 134h1M274 134h1M278 134h1M282 134h1M286 134h1M290 134h1M294 134h1M52 136h1M56 136h1M60 136h1M64 136h1M68 136h1M72 136h1M104 136h1M108 136h1M112 136h1M116 136h1M120 136h1M124 136h1M128 136h1M132 136h1M136 136h1M140 136h1M144 136h1M148 136h1M152 136h1M228 136h1M232 136h1M236 136h1M240 136h1M244 136h1M248 136h1M252 136h1M256 136h1M260 136h1M264 136h1M268 136h1M272 136h1M276 136h1M280 136h1M284 136h1M288 136h1M292 136h1M54 138h1M58 138h1M62 138h1M66 138h1M70 138h1M74 138h1M102 138h1M106 138h1M110 138h1M114 138h1M118 138h1M122 138h1M126 138h1M130 138h1M134 138h1M138 138h1M142 138h1M146 138h1M150 138h1M154 138h1M226 138h1M230 138h1M234 138h1M238 138h1M242 138h1M246 138h1M250 138h1M254 138h1M258 138h1M262 138h1M266 138h1M270 138h1M274 138h1M278 138h1M282 138h1M286 138h1M290 138h1M56 140h1M60 140h1M64 140h1M68 140h1M72 140h1M100 140h1M104 140h1M108 140h1M112 140h1M116 140h1M120 140h1M124 140h1M128 140h1M132 140h1M136 140h1M140 140h1M144 140h1M148 140h1M152 140h1M156 140h1M228 140h1M232 140h1M236 140h1M240 140h1M244 140h1M248 140h1M252 140h1M256 140h1M260 140h1M264 140h1M268 140h1M272 140h1M276 140h1M280 140h1M284 140h1M288 140h1M292 140h1M54 142h1M58 142h1M62 142h1M66 142h1M70 142h1M74 142h1M98 142h1M102 142h1M106 142h1M110 142h1M114 142h1M118 142h1M122 142h1M126 142h1M130 142h1M134 142h1M138 142h1M142 142h1M146 142h1M150 142h1M154 142h1M226 142h1M230 142h1M234 142h1M238 142h1M242 142h1M246 142h1M250 142h1M254 142h1M258 142h1M262 142h1M266 142h1M270 142h1M274 142h1M278 142h1M282 142h1M286 142h1M290 142h1M56 144h1M60 144h1M64 144h1M68 144h1M72 144h1M100 144h1M104 144h1M108 144h1M112 144h1M116 144h1M120 144h1M124 144h1M128 144h1M132 144h1M136 144h1M140 144h1M144 144h1M148 144h1M152 144h1M156 144h1M228 144h1M232 144h1M236 144h1M240 144h1M244 144h1M248 144h1M252 144h1M256 144h1M260 144h1M264 144h1M268 144h1M272 144h1M276 144h1M280 144h1M284 144h1M288 144h1M58 146h1M62 146h1M66 146h1M70 146h1M74 146h1M98 146h1M102 146h1M106 146h1M110 146h1M114 146h1M118 146h1M122 146h1M126 146h1M130 146h1M134 146h1M138 146h1M142 146h1M146 146h1M150 146h1M154 146h1M158 146h1M226 146h1M230 146h1M234 146h1M238 146h1M242 146h1M246 146h1M250 146h1M254 146h1M258 146h1M262 146h1M266 146h1M270 146h1M274 146h1M278 146h1M282 146h1M286 146h1M60 148h1M64 148h1M68 148h1M72 148h1M96 148h1M100 148h1M104 148h1M108 148h1M112 148h1M116 148h1M120 148h1M124 148h1M128 148h1M132 148h1M136 148h1M140 148h1M144 148h1M148 148h1M152 148h1M156 148h1M160 148h1M228 148h1M232 148h1M236 148h1M240 148h1M244 148h1M248 148h1M252 148h1M256 148h1M260 148h1M264 148h1M268 148h1M272 148h1M276 148h1M280 148h1M284 148h1M288 148h1M58 150h1M62 150h1M66 150h1M70 150h1M74 150h1M94 150h1M98 150h1M102 150h1M106 150h1M110 150h1M114 150h1M118 150h1M122 150h1M126 150h1M130 150h1M134 150h1M138 150h1M142 150h1M146 150h1M150 150h1M154 150h1M158 150h1M226 150h1M230 150h1M234 150h1M238 150h1M242 150h1M246 150h1M250 150h1M254 150h1M258 150h1M262 150h1M266 150h1M270 150h1M274 150h1M278 150h1M282 150h1M286 150h1M60 152h1M64 152h1M68 152h1M72 152h1M96 152h1M100 152h1M104 152h1M108 152h1M112 152h1M116 152h1M120 152h1M124 152h1M128 152h1M132 152h1M136 152h1M140 152h1M144 152h1M148 152h1M152 152h1M156 152h1M160 152h1M228 152h1M232 152h1M236 152h1M240 152h1M244 152h1M248 152h1M252 152h1M256 152h1M260 152h1M264 152h1M268 152h1M272 152h1M276 152h1M280 152h1M284 152h1M62 154h1M66 154h1M70 154h1M74 154h1M94 154h1M98 154h1M102 154h1M106 154h1M110 154h1M114 154h1M118 154h1M122 154h1M126 154h1M130 154h1M134 154h1M138 154h1M142 154h1M146 154h1M150 154h1M154 154h1M158 154h1M162 154h1M226 154h1M230 154h1M234 154h1M238 154h1M242 154h1M246 154h1M250 154h1M254 154h1M258 154h1M262 154h1M266 154h1M270 154h1M274 154h1M278 154h1M282 154h1M64 156h1M68 156h1M72 156h1M92 156h1M96 156h1M100 156h1M104 156h1M108 156h1M112 156h1M116 156h1M120 156h1M124 156h1M128 156h1M132 156h1M136 156h1M140 156h1M144 156h1M148 156h1M152 156h1M156 156h1M160 156h1M164 156h1M228 156h1M232 156h1M236 156h1M240 156h1M244 156h1M248 156h1M252 156h1M256 156h1M260 156h1M264 156h1M268 156h1M272 156h1M276 156h1M280 156h1M62 158h1M66 158h1M70 158h1M74 158h1M90 158h1M94 158h1M98 158h1M102 158h1M106 158h1M110 158h1M114 158h1M118 158h1M122 158h1M126 158h1M130 158h1M134 158h1M138 158h1M142 158h1M146 158h1M150 158h1M154 158h1M158 158h1M162 158h1M166 158h1M226 158h1M230 158h1M234 158h1M238 158h1M242 158h1M246 158h1M250 158h1M254 158h1M258 158h1M262 158h1M266 158h1M270 158h1M274 158h1M278 158h1M282 158h1M64 160h1M68 160h1M72 160h1M92 160h1M96 160h1M100 160h1M104 160h1M108 160h1M112 160h1M116 160h1M120 160h1M124 160h1M128 160h1M132 160h1M136 160h1M140 160h1M144 160h1M148 160h1M152 160h1M156 160h1M160 160h1M164 160h1M168 160h1M228 160h1M232 160h1M236 160h1M240 160h1M244 160h1M248 160h1M252 160h1M256 160h1M260 160h1M264 160h1M268 160h1M272 160h1M276 160h1M280 160h1M66 162h1M70 162h1M74 162h1M90 162h1M94 162h1M98 162h1M102 162h1M106 162h1M110 162h1M114 162h1M118 162h1M122 162h1M126 162h1M130 162h1M134 162h1M138 162h1M142 162h1M146 162h1M150 162h1M154 162h1M158 162h1M162 162h1M166 162h1M170 162h1M226 162h1M230 162h1M234 162h1M238 162h1M242 162h1M246 162h1M250 162h1M254 162h1M258 162h1M262 162h1M266 162h1M270 162h1M274 162h1M278 162h1M68 164h1M72 164h1M88 164h1M92 164h1M96 164h1M100 164h1M104 164h1M108 164h1M112 164h1M116 164h1M120 164h1M124 164h1M128 164h1M132 164h1M136 164h1M140 164h1M144 164h1M148 164h1M152 164h1M156 164h1M160 164h1M164 164h1M168 164h1M172 164h1M228 164h1M232 164h1M236 164h1M240 164h1M244 164h1M248 164h1M252 164h1M256 164h1M260 164h1M264 164h1M268 164h1M272 164h1M276 164h1M66 166h1M70 166h1M74 166h1M86 166h1M90 166h1M94 166h1M98 166h1M102 166h1M106 166h1M110 166h1M114 166h1M118 166h1M122 166h1M126 166h1M130 166h1M134 166h1M138 166h1M142 166h1M146 166h1M150 166h1M154 166h1M158 166h1M162 166h1M166 166h1M170 166h1M174 166h1M226 166h1M230 166h1M234 166h1M238 166h1M242 166h1M246 166h1M250 166h1M254 166h1M258 166h1M262 166h1M266 166h1M270 166h1M274 166h1M68 168h1M72 168h1M88 168h1M92 168h1M96 168h1M100 168h1M104 168h1M108 168h1M112 168h1M116 168h1M120 168h1M124 168h1M128 168h1M132 168h1M136 168h1M140 168h1M144 168h1M148 168h1M152 168h1M156 168h1M160 168h1M164 168h1M168 168h1M172 168h1M176 168h1M228 168h1M232 168h1M236 168h1M240 168h1M244 168h1M248 168h1M252 168h1M256 168h1M260 168h1M264 168h1M268 168h1M272 168h1M70 170h1M74 170h1M86 170h1M90 170h1M94 170h1M98 170h1M102 170h1M106 170h1M110 170h1M114 170h1M118 170h1M122 170h1M126 170h1M130 170h1M134 170h1M138 170h1M142 170h1M146 170h1M150 170h1M154 170h1M158 170h1M162 170h1M166 170h1M170 170h1M174 170h1M178 170h1M226 170h1M230 170h1M234 170h1M238 170h1M242 170h1M246 170h1M250 170h1M254 170h1M258 170h1M262 170h1M266 170h1M72 172h1M84 172h1M88 172h1M92 172h1M96 172h1M100 172h1M104 172h1M108 172h1M112 172h1M116 172h1M120 172h1M124 172h1M128 172h1M132 172h1M136 172h1M140 172h1M144 172h1M148 172h1M152 172h1M156 172h1M160 172h1M164 172h1M168 172h1M172 172h1M176 172h1M180 172h1M228 172h1M232 172h1M236 172h1M240 172h1M244 172h1M248 172h1M252 172h1M256 172h1M260 172h1M264 172h1M70 174h1M74 174h1M82 174h1M86 174h1M90 174h1M94 174h1M98 174h1M102 174h1M106 174h1M110 174h1M114 174h1M118 174h1M122 174h1M126 174h1M130 174h1M134 174h1M138 174h1M142 174h1M146 174h1M150 174h1M154 174h1M158 174h1M162 174h1M166 174h1M170 174h1M174 174h1M178 174h1M182 174h1M226 174h1M230 174h1M234 174h1M238 174h1M242 174h1M246 174h1M250 174h1M254 174h1M258 174h1M262 174h1M72 176h1M84 176h1M88 176h1M92 176h1M96 176h1M100 176h1M104 176h1M108 176h1M112 176h1M116 176h1M120 176h1M124 176h1M128 176h1M132 176h1M136 176h1M140 176h1M144 176h1M148 176h1M152 176h1M156 176h1M160 176h1M164 176h1M168 176h1M172 176h1M176 176h1M180 176h1M184 176h1M188 176h1M228 176h1M232 176h1M236 176h1M240 176h1M244 176h1M248 176h1M252 176h1M256 176h1M260 176h1M74 178h1M82 178h1M86 178h1M90 178h1M94 178h1M98 178h1M102 178h1M106 178h1M110 178h1M114 178h1M118 178h1M122 178h1M126 178h1M130 178h1M134 178h1M138 178h1M142 178h1M146 178h1M150 178h1M154 178h1M158 178h1M162 178h1M166 178h1M170 178h1M174 178h1M178 178h1M182 178h1M186 178h1M190 178h1M226 178h1M230 178h1M234 178h1M238 178h1M242 178h1M246 178h1M250 178h1M254 178h1M80 180h1M84 180h1M88 180h1M92 180h1M96 180h1M100 180h1M104 180h1M108 180h1M112 180h1M116 180h1M120 180h1M124 180h1M128 180h1M132 180h1M136 180h1M140 180h1M144 180h1M148 180h1M152 180h1M156 180h1M160 180h1M164 180h1M168 180h1M172 180h1M176 180h1M180 180h1M184 180h1M188 180h1M192 180h1M196 180h1M228 180h1M232 180h1M236 180h1M240 180h1M244 180h1M248 180h1M252 180h1M74 182h1M78 182h1M82 182h1M86 182h1M90 182h1M94 182h1M98 182h1M102 182h1M106 182h1M110 182h1M114 182h1M118 182h1M122 182h1M126 182h1M130 182h1M134 182h1M138 182h1M142 182h1M146 182h1M150 182h1M154 182h1M158 182h1M162 182h1M166 182h1M170 182h1M174 182h1M178 182h1M182 182h1M186 182h1M190 182h1M194 182h1M198 182h1M202 182h1M226 182h1M230 182h1M234 182h1M238 182h1M242 182h1M246 182h1M80 184h1M84 184h1M88 184h1M92 184h1M96 184h1M100 184h1M104 184h1M108 184h1M112 184h1M116 184h1M120 184h1M124 184h1M128 184h1M132 184h1M136 184h1M140 184h1M144 184h1M148 184h1M152 184h1M156 184h1M160 184h1M164 184h1M168 184h1M172 184h1M176 184h1M180 184h1M184 184h1M188 184h1M192 184h1M196 184h1M200 184h1M204 184h1M208 184h1M228 184h1M232 184h1M236 184h1M0 202h1M2 202h1M4 202h1M6 202h1M8 202h1M10 202h1M12 202h1M14 202h1M16 202h1M18 202h1M20 202h1M22 202h1M24 202h1M26 202h1M28 202h1M30 202h1M32 202h1M34 202h1M36 202h1M38 202h1M40 202h1M42 202h1M44 202h1M46 202h1M48 202h1M50 202h1M52 202h1M54 202h1M56 202h1M58 202h1M60 202h1M62 202h1M64 202h1M66 202h1M68 202h1M70 202h1M72 202h1M74 202h1M76 202h1M78 202h1M80 202h1M82 202h1M84 202h1M86 202h1M88 202h1M90 202h1M92 202h1M94 202h1M96 202h1M98 202h1M100 202h1M102 202h1M104 202h1M106 202h1M108 202h1M110 202h1M112 202h1M114 202h1M116 202h1M118 202h1M120 202h1M122 202h1M124 202h1M126 202h1M128 202h1M130 202h1M132 202h1M134 202h1M136 202h1M138 202h1M140 202h1M142 202h1M144 202h1M146 202h1M148 202h1M150 202h1M152 202h1M154 202h1M156 202h1M158 202h1M160 202h1M162 202h1M164 202h1M166 202h1M168 202h1M170 202h1M172 202h1M174 202h1M176 202h1M178 202h1M180 202h1M182 202h1M184 202h1M186 202h1M188 202h1M190 202h1M192 202h1M194 202h1M196 202h1M198 202h1M200 202h1M202 202h1M204 202h1M206 202h1M208 202h1M210 202h1M212 202h1M214 202h1M216 202h1M218 202h1M220 202h1M222 202h1M224 202h1M226 202h1M228 202h1M230 202h1M232 202h1M234 202h1M236 202h1M238 202h1M240 202h1M242 202h1M244 202h1M246 202h1M248 202h1M250 202h1M252 202h1M254 202h1M256 202h1M258 202h1M260 202h1M262 202h1M264 202h1M266 202h1M268 202h1M270 202h1M272 202h1M274 202h1M276 202h1M278 202h1M280 202h1M282 202h1M284 202h1M286 202h1M288 202h1M290 202h1M292 202h1M294 202h1M296 202h1M298 202h1M0 204h1M2 204h1M4 204h1M6 204h1M8 204h1M10 204h1M12 204h1M14 204h1M16 204h1M18 204h1M20 204h1M22 204h1M24 204h1M26 204h1M28 204h1M30 204h1M32 204h1M34 204h1M36 204h1M38 204h1M40 204h1M42 204h1M44 204h1M46 204h1M48 204h1M50 204h1M52 204h1M54 204h1M56 204h1M58 204h1M60 204h1M62 204h1M64 204h1M66 204h1M68 204h1M70 204h1M72 204h1M74 204h1M76 204h1M78 204h1M80 204h1M82 204h1M84 204h1M86 204h1M88 204h1M90 204h1M92 204h1M94 204h1M96 204h1M98 204h1M100 204h1M102 204h1M104 204h1M106 204h1M108 204h1M110 204h1M112 204h1M114 204h1M116 204h1M118 204h1M120 204h1M122 204h1M124 204h1M126 204h1M128 204h1M130 204h1M132 204h1M134 204h1M136 204h1M138 204h1M140 204h1M142 204h1M144 204h1M146 204h1M148 204h1M150 204h1M152 204h1M154 204h1M156 204h1M158 204h1M160 204h1M162 204h1M164 204h1M166 204h1M168 204h1M170 204h1M172 204h1M174 204h1M176 204h1M178 204h1M180 204h1M182 204h1M184 204h1M186 204h1M188 204h1M190 204h1M192 204h1M194 204h1M196 204h1M198 204h1M200 204h1M202 204h1M204 204h1M206 204h1M208 204h1M210 204h1M212 204h1M214 204h1M216 204h1M218 204h1M220 204h1M222 204h1M224 204h1M226 204h1M228 204h1M230 204h1M232 204h1M234 204h1M236 204h1M238 204h1M240 204h1M242 204h1M244 204h1M246 204h1M248 204h1M250 204h1M252 204h1M254 204h1M256 204h1M258 204h1M260 204h1M262 204h1M264 204h1M266 204h1M268 204h1M270 204h1M272 204h1M274 204h1M276 204h1M278 204h1M280 204h1M282 204h1M284 204h1M286 204h1M288 204h1M290 204h1M292 204h1M294 204h1M296 204h1M298 204h1M0 206h1M2 206h1M4 206h1M6 206h1M8 206h1M10 206h1M12 206h1M14 206h1M16 206h1M18 206h1M20 206h1M22 206h1M24 206h1M26 206h1M28 206h1M30 206h1M32 206h1M34 206h1M36 206h1M38 206h1M40 206h1M42 206h1M44 206h1M46 206h1M48 206h1M50 206h1M52 206h1M54 206h1M56 206h1M58 206h1M60 206h1M62 206h1M64 206h1M66 206h1M68 206h1M70 206h1M72 206h1M74 206h1M76 206h1M78 206h1M80 206h1M82 206h1M84 206h1M86 206h1M88 206h1M90 206h1M92 206h1M94 206h1M96 206h1M98 206h1M100 206h1M102 206h1M104 206h1M106 206h1M108 206h1M110 206h1M112 206h1M114 206h1M116 206h1M118 206h1M120 206h1M122 206h1M124 206h1M126 206h1M128 206h1M130 206h1M132 206h1M134 206h1M136 206h1M138 206h1M140 206h1M142 206h1M144 206h1M146 206h1M148 206h1M150 206h1M152 206h1M154 206h1M156 206h1M158 206h1M160 206h1M162 206h1M164 206h1M166 206h1M168 206h1M170 206h1M172 206h1M174 206h1M176 206h1M178 206h1M180 206h1M182 206h1M184 206h1M186 206h1M188 206h1M190 206h1M192 206h1M194 206h1M196 206h1M198 206h1M200 206h1M202 206h1M204 206h1M206 206h1M208 206h1M210 206h1M212 206h1M214 206h1M216 206h1M218 206h1M220 206h1M222 206h1M224 206h1M226 206h1M228 206h1M230 206h1M232 206h1M234 206h1M236 206h1M238 206h1M240 206h1M242 206h1M244 206h1M246 206h1M248 206h1M250 206h1M252 206h1M254 206h1M256 206h1M258 206h1M260 206h1M262 206h1M264 206h1M266 206h1M268 206h1M270 206h1M272 206h1M274 206h1M276 206h1M278 206h1M280 206h1M282 206h1M284 206h1M286 206h1M288 206h1M290 206h1M292 206h1M294 206h1M296 206h1M298 206h1M0 208h1M2 208h1M4 208h1M6 208h1M8 208h1M10 208h1M12 208h1M14 208h1M16 208h1M18 208h1M20 208h1M22 208h1M24 208h1M26 208h1M28 208h1M30 208h1M32 208h1M34 208h1M36 208h1M38 208h1M40 208h1M42 208h1M44 208h1M46 208h1M48 208h1M50 208h1M52 208h1M54 208h1M56 208h1M58 208h1M60 208h1M62 208h1M64 208h1M66 208h1M68 208h1M70 208h1M72 208h1M74 208h1M76 208h1M78 208h1M80 208h1M82 208h1M84 208h1M86 208h1M88 208h1M90 208h1M92 208h1M94 208h1M96 208h1M98 208h1M100 208h1M102 208h1M104 208h1M106 208h1M108 208h1M110 208h1M112 208h1M114 208h1M116 208h1M118 208h1M120 208h1M122 208h1M124 208h1M126 208h1M128 208h1M130 208h1M132 208h1M134 208h1M136 208h1M138 208h1M140 208h1M142 208h1M144 208h1M146 208h1M148 208h1M150 208h1M152 208h1M154 208h1M156 208h1M158 208h1M160 208h1M162 208h1M164 208h1M166 208h1M168 208h1M170 208h1M172 208h1M174 208h1M176 208h1M178 208h1M180 208h1M182 208h1M184 208h1M186 208h1M188 208h1M190 208h1M192 208h1M194 208h1M196 208h1M198 208h1M200 208h1M202 208h1M204 208h1M206 208h1M208 208h1M210 208h1M212 208h1M214 208h1M216 208h1M218 208h1M220 208h1M222 208h1M224 208h1M226 208h1M228 208h1M230 208h1M232 208h1M234 208h1M236 208h1M238 208h1M240 208h1M242 208h1M244 208h1M246 208h1M248 208h1M250 208h1M252 208h1M254 208h1M256 208h1M258 208h1M260 208h1M262 208h1M264 208h1M266 208h1M268 208h1M270 208h1M272 208h1M274 208h1M276 208h1M278 208h1M280 208h1M282 208h1M284 208h1M286 208h1M288 208h1M290 208h1M292 208h1M294 208h1M296 208h1M298 208h1M0 210h1M2 210h1M4 210h1M6 210h1M8 210h1M10 210h1M12 210h1M14 210h1M16 210h1M18 210h1M20 210h1M22 210h1M24 210h1M26 210h1M28 210h1M30 210h1M32 210h1M34 210h1M36 210h1M38 210h1M40 210h1M42 210h1M44 210h1M46 210h1M48 210h1M50 210h1M52 210h1M54 210h1M56 210h1M58 210h1M60 210h1M62 210h1M64 210h1M66 210h1M68 210h1M70 210h1M72 210h1M74 210h1M76 210h1M78 210h1M80 210h1M82 210h1M84 210h1M86 210h1M88 210h1M90 210h1M92 210h1M94 210h1M96 210h1M98 210h1M100 210h1M102 210h1M104 210h1M106 210h1M108 210h1M110 210h1M112 210h1M114 210h1M116 210h1M118 210h1M120 210h1M122 210h1M124 210h1M126 210h1M128 210h1M130 210h1M132 210h1M134 210h1M136 210h1M138 210h1M140 210h1M142 210h1M144 210h1M146 210h1M148 210h1M150 210h1M152 210h1M154 210h1M156 210h1M158 210h1M160 210h1M162 210h1M164 210h1M166 210h1M168 210h1M170 210h1M172 210h1M174 210h1M176 210h1M178 210h1M180 210h1M182 210h1M184 210h1M186 210h1M188 210h1M190 210h1M192 210h1M194 210h1M196 210h1M198 210h1M200 210h1M202 210h1M204 210h1M206 210h1M208 210h1M210 210h1M212 210h1M214 210h1M216 210h1M218 210h1M220 210h1M222 210h1M224 210h1M226 210h1M228 210h1M230 210h1M232 210h1M234 210h1M236 210h1M238 210h1M240 210h1M242 210h1M244 210h1M246 210h1M248 210h1M250 210h1M252 210h1M254 210h1M256 210h1M258 210h1M260 210h1M262 210h1M264 210h1M266 210h1M268 210h1M270 210h1M272 210h1M274 210h1M276 210h1M278 210h1M280 210h1M282 210h1M284 210h1M286 210h1M288 210h1M290 210h1M292 210h1M294 210h1M296 210h1M298 210h1M0 212h1M2 212h1M4 212h1M6 212h1M8 212h1M10 212h1M12 212h1M14 212h1M16 212h1M18 212h1M20 212h1M22 212h1M24 212h1M26 212h1M28 212h1M30 212h1M32 212h1M34 212h1M36 212h1M38 212h1M40 212h1M42 212h1M44 212h1M46 212h1M48 212h1M50 212h1M52 212h1M54 212h1M56 212h1M58 212h1M60 212h1M62 212h1M64 212h1M66 212h1M68 212h1M70 212h1M72 212h1M74 212h1M76 212h1M78 212h1M80 212h1M82 212h1M84 212h1M86 212h1M88 212h1M90 212h1M92 212h1M94 212h1M96 212h1M98 212h1M100 212h1M102 212h1M104 212h1M106 212h1M108 212h1M110 212h1M112 212h1M114 212h1M116 212h1M118 212h1M120 212h1M122 212h1M124 212h1M126 212h1M128 212h1M130 212h1M132 212h1M134 212h1M136 212h1M138 212h1M140 212h1M142 212h1M144 212h1M146 212h1M148 212h1M150 212h1M152 212h1M154 212h1M156 212h1M158 212h1M160 212h1M162 212h1M164 212h1M166 212h1M168 212h1M170 212h1M172 212h1M174 212h1M176 212h1M178 212h1M180 212h1M182 212h1M184 212h1M186 212h1M188 212h1M190 212h1M192 212h1M194 212h1M196 212h1M198 212h1M200 212h1M202 212h1M204 212h1M206 212h1M208 212h1M210 212h1M212 212h1M214 212h1M216 212h1M218 212h1M220 212h1M222 212h1M224 212h1M226 212h1M228 212h1M230 212h1M232 212h1M234 212h1M236 212h1M238 212h1M240 212h1M242 212h1M244 212h1M246 212h1M248 212h1M250 212h1M252 212h1M254 212h1M256 212h1M258 212h1M260 212h1M262 212h1M264 212h1M266 212h1M268 212h1M270 212h1M272 212h1M274 212h1M276 212h1M278 212h1M280 212h1M282 212h1M284 212h1M286 212h1M288 212h1M290 212h1M292 212h1M294 212h1M296 212h1M298 212h1M0 214h1M2 214h1M4 214h1M6 214h1M8 214h1M10 214h1M12 214h1M14 214h1M16 214h1M18 214h1M20 214h1M22 214h1M24 214h1M26 214h1M28 214h1M30 214h1M32 214h1M34 214h1M36 214h1M38 214h1M40 214h1M42 214h1M44 214h1M46 214h1M48 214h1M50 214h1M52 214h1M54 214h1M56 214h1M58 214h1M60 214h1M62 214h1M64 214h1M66 214h1M68 214h1M70 214h1M72 214h1M74 214h1M76 214h1M78 214h1M80 214h1M82 214h1M84 214h1M86 214h1M88 214h1M90 214h1M92 214h1M94 214h1M96 214h1M98 214h1M100 214h1M102 214h1M104 214h1M106 214h1M108 214h1M110 214h1M112 214h1M114 214h1M116 214h1M118 214h1M120 214h1M122 214h1M124 214h1M126 214h1M128 214h1M130 214h1M132 214h1M134 214h1M136 214h1M138 214h1M140 214h1M142 214h1M144 214h1M146 214h1M148 214h1M150 214h1M152 214h1M154 214h1M156 214h1M158 214h1M160 214h1M162 214h1M164 214h1M166 214h1M168 214h1M170 214h1M172 214h1M174 214h1M176 214h1M178 214h1M180 214h1M182 214h1M184 214h1M186 214h1M188 214h1M190 214h1M192 214h1M194 214h1M196 214h1M198 214h1M200 214h1M202 214h1M204 214h1M206 214h1M208 214h1M210 214h1M212 214h1M214 214h1M216 214h1M218 214h1M220 214h1M222 214h1M224 214h1M226 214h1M228 214h1M230 214h1M232 214h1M234 214h1M236 214h1M238 214h1M240 214h1M242 214h1M244 214h1M246 214h1M248 214h1M250 214h1M252 214h1M254 214h1M256 214h1M258 214h1M260 214h1M262 214h1M264 214h1M266 214h1M268 214h1M270 214h1M272 214h1M274 214h1M276 214h1M278 214h1M280 214h1M282 214h1M284 214h1M286 214h1M288 214h1M290 214h1M292 214h1M294 214h1M296 214h1M298 214h1M0 216h1M2 216h1M4 216h1M6 216h1M8 216h1M10 216h1M12 216h1M14 216h1M16 216h1M18 216h1M20 216h1M22 216h1M24 216h1M26 216h1M28 216h1M30 216h1M32 216h1M34 216h1M36 216h1M38 216h1M40 216h1M42 216h1M44 216h1M46 216h1M48 216h1M50 216h1M52 216h1M54 216h1M56 216h1M58 216h1M60 216h1M62 216h1M64 216h1M66 216h1M68 216h1M70 216h1M72 216h1M74 216h1M76 216h1M78 216h1M80 216h1M82 216h1M84 216h1M86 216h1M88 216h1M90 216h1M92 216h1M94 216h1M96 216h1M98 216h1M100 216h1M102 216h1M104 216h1M106 216h1M108 216h1M110 216h1M112 216h1M114 216h1M116 216h1M118 216h1M120 216h1M122 216h1M124 216h1M126 216h1M128 216h1M130 216h1M132 216h1M134 216h1M136 216h1M138 216h1M140 216h1M142 216h1M144 216h1M146 216h1M148 216h1M150 216h1M152 216h1M154 216h1M156 216h1M158 216h1M160 216h1M162 216h1M164 216h1M166 216h1M168 216h1M170 216h1M172 216h1M174 216h1M176 216h1M178 216h1M180 216h1M182 216h1M184 216h1M186 216h1M188 216h1M190 216h1M192 216h1M194 216h1M196 216h1M198 216h1M200 216h1M202 216h1M204 216h1M206 216h1M208 216h1M210 216h1M212 216h1M214 216h1M216 216h1M218 216h1M220 216h1M222 216h1M224 216h1M226 216h1M228 216h1M230 216h1M232 216h1M234 216h1M236 216h1M238 216h1M240 216h1M242 216h1M244 216h1M246 216h1M248 216h1M250 216h1M252 216h1M254 216h1M256 216h1M258 216h1M260 216h1M262 216h1M264 216h1M266 216h1M268 216h1M270 216h1M272 216h1M274 216h1M276 216h1M278 216h1M280 216h1M282 216h1M284 216h1M286 216h1M288 216h1M290 216h1M292 216h1M294 216h1M296 216h1M298 216h1M0 218h1M2 218h1M4 218h1M6 218h1M8 218h1M10 218h1M12 218h1M14 218h1M16 218h1M18 218h1M20 218h1M22 218h1M24 218h1M26 218h1M28 218h1M30 218h1M32 218h1M34 218h1M36 218h1M38 218h1M40 218h1M42 218h1M44 218h1M46 218h1M48 218h1M50 218h1M52 218h1M54 218h1M56 218h1M58 218h1M60 218h1M62 218h1M64 218h1M66 218h1M68 218h1M70 218h1M72 218h1M74 218h1M76 218h1M78 218h1M80 218h1M82 218h1M84 218h1M86 218h1M88 218h1M90 218h1M92 218h1M94 218h1M96 218h1M98 218h1M100 218h1M102 218h1M104 218h1M106 218h1M108 218h1M110 218h1M112 218h1M114 218h1M116 218h1M118 218h1M120 218h1M122 218h1M124 218h1M126 218h1M128 218h1M130 218h1M132 218h1M134 218h1M136 218h1M138 218h1M140 218h1M142 218h1M144 218h1M146 218h1M148 218h1M150 218h1M152 218h1M154 218h1M156 218h1M158 218h1M160 218h1M162 218h1M164 218h1M166 218h1M168 218h1M170 218h1M172 218h1M174 218h1M176 218h1M178 218h1M180 218h1M182 218h1M184 218h1M186 218h1M188 218h1M190 218h1M192 218h1M194 218h1M196 218h1M198 218h1M200 218h1M202 218h1M204 218h1M206 218h1M208 218h1M210 218h1M212 218h1M214 218h1M216 218h1M218 218h1M220 218h1M222 218h1M224 218h1M226 218h1M228 218h1M230 218h1M232 218h1M234 218h1M236 218h1M238 218h1M240 218h1M242 218h1M244 218h1M246 218h1M248 218h1M250 218h1M252 218h1M254 218h1M256 218h1M258 218h1M260 218h1M262 218h1M264 218h1M266 218h1M268 218h1M270 218h1M272 218h1M274 218h1M276 218h1M278 218h1M280 218h1M282 218h1M284 218h1M286 218h1M288 218h1M290 218h1M292 218h1M294 218h1M296 218h1M298 218h1M0 220h1M2 220h1M4 220h1M6 220h1M8 220h1M10 220h1M12 220h1M14 220h1M16 220h1M18 220h1M20 220h1M22 220h1M24 220h1M26 220h1M28 220h1M30 220h1M32 220h1M34 220h1M36 220h1M38 220h1M40 220h1M42 220h1M44 220h1M46 220h1M48 220h1M50 220h1M52 220h1M54 220h1M56 220h1M58 220h1M60 220h1M62 220h1M64 220h1M66 220h1M68 220h1M70 220h1M72 220h1M74 220h1M76 220h1M78 220h1M80 220h1M82 220h1M84 220h1M86 220h1M88 220h1M90 220h1M92 220h1M94 220h1M96 220h1M98 220h1M100 220h1M102 220h1M104 220h1M106 220h1M108 220h1M110 220h1M112 220h1M114 220h1M116 220h1M118 220h1M120 220h1M122 220h1M124 220h1M126 220h1M128 220h1M130 220h1M132 220h1M134 220h1M136 220h1M138 220h1M140 220h1M142 220h1M144 220h1M146 220h1M148 220h1M150 220h1M152 220h1M154 220h1M156 220h1M158 220h1M160 220h1M162 220h1M164 220h1M166 220h1M168 220h1M170 220h1M172 220h1M174 220h1M176 220h1M178 220h1M180 220h1M182 220h1M184 220h1M186 220h1M188 220h1M190 220h1M192 220h1M194 220h1M196 220h1M198 220h1M200 220h1M202 220h1M204 220h1M206 220h1M208 220h1M210 220h1M212 220h1M214 220h1M216 220h1M218 220h1M220 220h1M222 220h1M224 220h1M226 220h1M228 220h1M230 220h1M232 220h1M234 220h1M236 220h1M238 220h1M240 220h1M242 220h1M244 220h1M246 220h1M248 220h1M250 220h1M252 220h1M254 220h1M256 220h1M258 220h1M260 220h1M262 220h1M264 220h1M266 220h1M268 220h1M270 220h1M272 220h1M274 220h1M276 220h1M278 220h1M280 220h1M282 220h1M284 220h1M286 220h1M288 220h1M290 220h1M292 220h1M294 220h1M296 220h1M298 220h1M0 222h1M2 222h1M4 222h1M6 222h1M8 222h1M10 222h1M12 222h1M14 222h1M16 222h1M18 222h1M20 222h1M22 222h1M24 222h1M26 222h1M28 222h1M30 222h1M32 222h1M34 222h1M36 222h1M38 222h1M40 222h1M42 222h1M44 222h1M46 222h1M48 222h1M50 222h1M52 222h1M54 222h1M56 222h1M58 222h1M60 222h1M62 222h1M64 222h1M66 222h1M68 222h1M70 222h1M72 222h1M74 222h1M76 222h1M78 222h1M80 222h1M82 222h1M84 222h1M86 222h1M88 222h1M90 222h1M92 222h1M94 222h1M96 222h1M98 222h1M100 222h1M102 222h1M104 222h1M106 222h1M108 222h1M110 222h1M112 222h1M114 222h1M116 222h1M118 222h1M120 222h1M122 222h1M124 222h1M126 222h1M128 222h1M130 222h1M132 222h1M134 222h1M136 222h1M138 222h1M140 222h1M142 222h1M144 222h1M146 222h1M148 222h1M150 222h1M152 222h1M154 222h1M156 222h1M158 222h1M160 222h1M162 222h1M164 222h1M166 222h1M168 222h1M170 222h1M172 222h1M174 222h1M176 222h1M178 222h1M180 222h1M182 222h1M184 222h1M186 222h1M188 222h1M190 222h1M192 222h1M194 222h1M196 222h1M198 222h1M200 222h1M202 222h1M204 222h1M206 222h1M208 222h1M210 222h1M212 222h1M214 222h1M216 222h1M218 222h1M220 222h1M222 222h1M224 222h1M226 222h1M228 222h1M230 222h1M232 222h1M234 222h1M236 222h1M238 222h1M240 222h1M242 222h1M244 222h1M246 222h1M248 222h1M250 222h1M252 222h1M254 222h1M256 222h1M258 222h1M260 222h1M262 222h1M264 222h1M266 222h1M268 222h1M270 222h1M272 222h1M274 222h1M276 222h1M278 222h1M280 222h1M282 222h1M284 222h1M286 222h1M288 222h1M290 222h1M292 222h1M294 222h1M296 222h1M298 222h1M7 236h4M37 236h3M47 236h3M71 236h4M84 236h4M109 236h11M144 236h3M180 236h11M219 236h4M250 236h11M285 236h4M297 236h3M6 238h6M37 238h3M47 238h3M72 238h4M83 238h4M109 238h11M144 238h3M180 238h11M218 238h6M250 238h13M286 238h4M296 238h3M6 240h6M37 240h3M47 240h3M74 240h3M82 240h4M113 240h3M144 240h3M184 240h3M218 240h6M250 240h3M260 240h4M287 240h4M295 240h3M5 242h3M10 242h3M37 242h3M47 242h3M75 242h4M81 242h3M113 242h3M144 242h3M184 242h3M217 242h3M222 242h3M250 242h3M261 242h3M288 242h4M294 242h3M4 244h4M10 244h4M37 244h3M47 244h3M76 244h7M113 244h3M144 244h3M184 244h3M216 244h4M222 244h4M250 244h3M259 244h4M289 244h7M4 246h3M11 246h3M37 246h3M47 246h3M78 246h4M113 246h3M144 246h3M184 246h3M216 246h3M223 246h3M250 246h11M290 246h5M3 248h12M37 248h3M47 248h3M76 248h7M113 248h3M144 248h3M184 248h3M215 248h12M250 248h10M291 248h3M2 250h14M37 250h3M47 250h3M75 250h3M81 250h4M113 250h3M144 250h3M184 250h3M214 250h14M250 250h3M258 250h3M291 250h3M1 252h4M13 252h3M37 252h4M46 252h4M73 252h4M82 252h4M113 252h3M144 252h3M184 252h3M213 252h4M225 252h3M250 252h3M259 252h4M291 252h3M1 254h3M13 254h4M38 254h11M72 254h4M83 254h4M109 254h11M144 254h13M180 254h11M213 254h3M225 254h4M250 254h3M260 254h4M291 254h3M0 256h3M14 256h3M42 256h3M71 256h4M84 256h4M109 256h11M144 256h13M180 256h11M212 256h3M226 256h3M250 256h3M262 256h3M291 256h3M0 270h11M19 270h13M42 270h7M57 270h13M81 270h4M94 270h11M117 270h7M132 270h3M142 270h3M178 270h7M192 270h15M217 270h4M230 270h15M251 270h11M272 270h7M287 270h3M297 270h3M0 272h13M19 272h13M39 272h11M57 272h13M80 272h6M94 272h13M114 272h12M132 272h3M142 272h3M175 272h11M192 272h15M216 272h6M230 272h15M251 272h11M270 272h11M287 272h4M297 272h3M0 274h3M10 274h4M19 274h3M38 274h4M48 274h3M57 274h3M80 274h6M94 274h3M104 274h4M113 274h4M124 274h3M132 274h3M142 274h3M174 274h4M184 274h3M198 274h3M216 274h6M236 274h3M255 274h3M269 274h4M279 274h3M287 274h5M297 274h3M0 276h3M11 276h3M19 276h3M38 276h4M57 276h3M79 276h3M84 276h3M94 276h3M105 276h3M112 276h4M132 276h3M142 276h3M174 276h4M198 276h3M215 276h3M220 276h3M236 276h3M255 276h3M268 276h4M279 276h4M287 276h6M297 276h3M0 278h3M9 278h4M19 278h13M39 278h7M57 278h13M78 278h4M84 278h4M94 278h3M103 278h4M112 278h3M132 278h13M175 278h7M198 278h3M214 278h4M220 278h4M236 278h3M255 278h3M268 278h3M280 278h3M287 278h3M291 278h3M297 278h3M0 280h11M19 280h13M41 280h8M57 280h13M78 280h3M85 280h3M94 280h11M112 280h3M132 280h13M177 280h8M198 280h3M214 280h3M221 280h3M236 280h3M255 280h3M268 280h3M280 280h3M287 280h3M292 280h3M297 280h3M0 282h10M19 282h3M46 282h5M57 282h3M77 282h12M94 282h10M112 282h3M132 282h3M142 282h3M182 282h5M198 282h3M213 282h12M236 282h3M255 282h3M268 282h3M280 282h3M287 282h3M293 282h7M0 284h3M8 284h3M19 284h3M48 284h3M57 284h3M76 284h14M94 284h3M102 284h3M112 284h4M132 284h3M142 284h3M184 284h3M198 284h3M212 284h14M236 284h3M255 284h3M268 284h4M279 284h4M287 284h3M294 284h6M0 286h3M9 286h4M19 286h3M38 286h3M47 286h4M57 286h3M75 286h4M87 286h3M94 286h3M103 286h4M113 286h4M124 286h3M132 286h3M142 286h3M174 286h3M183 286h4M198 286h3M211 286h4M223 286h3M236 286h3M255 286h3M269 286h4M278 286h4M287 286h3M295 286h5M0 288h3M10 288h4M19 288h13M38 288h12M57 288h13M75 288h3M87 288h4M94 288h3M104 288h4M114 288h12M132 288h3M142 288h3M174 288h12M198 288h3M211 288h3M223 288h4M236 288h3M251 288h11M270 288h11M287 288h3M296 288h4M0 290h3M12 290h3M19 290h13M40 290h7M57 290h13M74 290h3M88 290h3M94 290h3M106 290h3M117 290h7M132 290h3M142 290h3M176 290h7M198 290h3M210 290h3M224 290h3M236 290h3M251 290h11M273 290h5M287 290h3M297 290h3M0 304h300M0 305h1M299 305h1M0 306h1M299 306h1M0 307h1M299 307h1M0 308h1M299 308h1M0 309h1M299 309h1M0 310h1M299 310h1M0 311h1M299 311h1M0 312h1M299 312h1M0 313h1M299 313h1M0 314h1M299 314h1M0 315h1M299 315h1M0 316h1M299 316h1M0 317h1M299 317h1M0 318h1M299 318h1M0 319h1M299 319h1M0 320h1M299 320h1M0 321h1M299 321h1M0 322h1M299 322h1M0 323h1M299 323h1M0 324h1M299 324h1M0 325h1M299 325h1M0 326h1M299 326h1M0 327h1M299 327h1M0 328h1M299 328h1M0 329h1M299 329h1M0 330h1M299 330h1M0 331h1M299 331h1M0 332h1M299 332h1M0 333h1M299 333h1M0 334h1M299 334h1M0 335h1M299 335h1M0 336h1M299 336h1M0 337h1M299 337h1M0 338h1M299 338h1M0 339h1M299 339h1M0 340h1M299 340h1M0 341h1M299 341h1M0 342h1M299 342h1M0 343h1M299 343h1M0 344h1M299 344h1M0 345h1M299 345h1M0 346h1M299 346h1M0 347h1M299 347h1M0 348h1M299 348h1M0 349h1M299 349h1M0 350h1M299 350h1M0 351h1M299 351h1M0 352h1M299 352h1M0 353h1M299 353h1M0 354h1M299 354h1M0 355h1M299 355h1M0 356h1M299 356h1M0 357h1M299 357h1M0 358h1M299 358h1M0 359h1M299 359h1M0 360h1M299 360h1M0 361h1M299 361h1M0 362h1M299 362h1M0 363h1M299 363h1M0 364h1M299 364h1M0 365h1M299 365h1M0 366h1M299 366h1M0 367h1M299 367h1M0 368h1M299 368h1M0 369h1M299 369h1M0 370h1M299 370h1M0 371h1M299 371h1M0 372h1M299 372h1M0 373h1M299 373h1M0 374h300" />
</svg>