<svg xmlns="http://www.w3.org/2000/svg" viewBox="0 -0.5 300 200" shape-rendering="crispEdges">
<metadata>Made with Pixels to Svg https://codepen.io/shshaw/pen/XbxvNj</metadata>
<path stroke="#ffffff" d="M0 0h1M2 0h1M4 0h1M6 0h1M8 0h1M10 0h1M12 0h1M14 0h1M16 0h1M18 0h1M20 0h1M22 0h1M24 0h1M26 0h1M28 0h1M30 0h1M32 0h1M34 0h1M36 0h1M38 0h1M40 0h1M42 0h1M44 0h1M46 0h1M48 0h1M50 0h1M52 0h1M54 0h1M56 0h1M58 0h1M60 0h1M62 0h1M64 0h1M66 0h1M68 0h1M70 0h1M76 0h1M78 0h1M80 0h1M82 0h1M84 0h1M86 0h1M88 0h1M90 0h1M92 0h1M94 0h1M96 0h1M98 0h1M100 0h1M102 0h1M104 0h1M106 0h1M108 0h1M110 0h1M112 0h1M114 0h1M116 0h1M118 0h1M120 0h1M122 0h1M124 0h1M126 0h1M128 0h1M130 0h1M132 0h1M134 0h1M136 0h1M138 0h1M140 0h1M142 0h1M144 0h1M146 0h1M153 0h1M155 0h1M157 0h1M159 0h1M161 0h1M163 0h1M165 0h1M167 0h1M169 0h1M171 0h1M173 0h1M175 0h1M177 0h1M179 0h1M181 0h1M183 0h1M185 0h1M187 0h1M189 0h1M191 0h1M193 0h1M195 0h1M197 0h1M199 0h1M201 0h1M203 0h1M205 0h1M207 0h1M209 0h1M211 0h1M213 0h1M215 0h1M217 0h1M219 0h1M221 0h1M223 0h1M229 0h1M231 0h1M233 0h1M235 0h1M237 0h1M239 0h1M241 0h1M243 0h1M245 0h1M247 0h1M249 0h1M251 0h1M253 0h1M255 0h1M257 0h1M259 0h1M261 0h1M263 0h1M265 0h1M267 0h1M269 0h1M271 0h1M273 0h1M275 0h1M277 0h1M279 0h1M281 0h1M283 0h1M285 0h1M287 0h1M289 0h1M291 0h1M293 0h1M295 0h1M297 0h1M299 0h1M0 2h1M2 2h1M4 2h1M6 2h1M8 2h1M10 2h1M12 2h1M14 2h1M16 2h1M18 2h1M20 2h1M22 2h1M24 2h1M26 2h1M28 2h1M30 2h1M32 2h1M34 2h1M36 2h1M38 2h1M40 2h1M42 2h1M44 2h1M46 2h1M48 2h1M50 2h1M52 2h1M54 2h1M56 2h1M58 2h1M60 2h1M62 2h1M64 2h1M66 2h1M68 2h1M70 2h1M76 2h1M78 2h1M80 2h1M82 2h1M84 2h1M86 2h1M88 2h1M90 2h1M92 2h1M94 2h1M96 2h1M98 2h1M100 2h1M102 2h1M104 2h1M106 2h1M108 2h1M110 2h1M112 2h1M114 2h1M116 2h1M118 2h1M120 2h1M122 2h1M124 2h1M126 2h1M128 2h1M130 2h1M132 2h1M134 2h1M136 2h1M138 2h1M140 2h1M142 2h1M144 2h1M146 2h1M153 2h1M155 2h1M157 2h1M159 2h1M161 2h1M163 2h1M165 2h1M167 2h1M169 2h1M171 2h1M173 2h1M175 2h1M177 2h1M179 2h1M181 2h1M183 2h1M185 2h1M187 2h1M189 2h1M191 2h1M193 2h1M195 2h1M197 2h1M199 2h1M201 2h1M203 2h1M205 2h1M207 2h1M209 2h1M211 2h1M213 2h1M215 2h1M217 2h1M219 2h1M221 2h1M223 2h1M229 2h1M231 2h1M233 2h1M235 2h1M237 2h1M239 2h1M241 2h1M243 2h1M245 2h1M247 2h1M249 2h1M251 2h1M253 2h1M255 2h1M257 2h1M259 2h1M261 2h1M263 2h1M265 2h1M267 2h1M269 2h1M271 2h1M273 2h1M275 2h1M277 2h1M279 2h1M281 2h1M283 2h1M285 2h1M287 2h1M289 2h1M291 2h1M293 2h1M295 2h1M297 2h1M299 2h1M0 4h1M2 4h1M4 4h1M6 4h1M20 4h1M22 4h1M24 4h1M26 4h1M28 4h1M30 4h1M32 4h1M34 4h1M36 4h1M38 4h1M40 4h1M42 4h1M44 4h1M46 4h1M48 4h1M50 4h1M64 4h1M66 4h1M68 4h1M70 4h1M76 4h1M78 4h1M80 4h1M82 4h1M84 4h1M86 4h1M88 4h1M90 4h1M92 4h1M94 4h1M128 4h1M130 4h1M132 4h1M134 4h1M136 4h1M138 4h1M140 4h1M142 4h1M144 4h1M146 4h1M153 4h1M155 4h1M157 4h1M159 4h1M161 4h1M163 4h1M165 4h1M179 4h1M181 4h1M183 4h1M185 4h1M187 4h1M189 4h1M191 4h1M193 4h1M195 4h1M197 4h1M211 4h1M213 4h1M215 4h1M217 4h1M219 4h1M221 4h1M223 4h1M229 4h1M231 4h1M233 4h1M235 4h1M237 4h1M239 4h1M241 4h1M243 4h1M245 4h1M247 4h1M249 4h1M251 4h1M253 4h1M255 4h1M269 4h1M271 4h1M273 4h1M275 4h1M277 4h1M279 4h1M281 4h1M283 4h1M285 4h1M287 4h1M289 4h1M291 4h1M293 4h1M295 4h1M297 4h1M299 4h1M0 6h1M2 6h1M4 6h1M6 6h1M8 6h1M22 6h1M24 6h1M26 6h1M28 6h1M30 6h1M32 6h1M34 6h1M36 6h1M38 6h1M40 6h1M42 6h1M44 6h1M46 6h1M48 6h1M50 6h1M62 6h1M64 6h1M66 6h1M68 6h1M70 6h1M76 6h1M78 6h1M80 6h1M82 6h1M84 6h1M86 6h1M88 6h1M90 6h1M92 6h1M94 6h1M128 6h1M130 6h1M132 6h1M134 6h1M136 6h1M138 6h1M140 6h1M142 6h1M144 6h1M146 6h1M153 6h1M155 6h1M157 6h1M159 6h1M161 6h1M163 6h1M165 6h1M179 6h1M181 6h1M183 6h1M185 6h1M187 6h1M189 6h1M191 6h1M193 6h1M195 6h1M197 6h1M211 6h1M213 6h1M215 6h1M217 6h1M219 6h1M221 6h1M223 6h1M229 6h1M231 6h1M233 6h1M235 6h1M237 6h1M239 6h1M241 6h1M243 6h1M245 6h1M247 6h1M249 6h1M251 6h1M253 6h1M255 6h1M271 6h1M273 6h1M275 6h1M277 6h1M279 6h1M281 6h1M283 6h1M285 6h1M287 6h1M289 6h1M291 6h1M293 6h1M295 6h1M297 6h1M299 6h1M0 8h1M2 8h1M4 8h1M6 8h1M8 8h1M22 8h1M24 8h1M26 8h1M28 8h1M30 8h1M32 8h1M34 8h1M36 8h1M38 8h1M40 8h1M42 8h1M44 8h1M46 8h1M48 8h1M62 8h1M64 8h1M66 8h1M68 8h1M70 8h1M76 8h1M78 8h1M80 8h1M82 8h1M84 8h1M86 8h1M88 8h1M90 8h1M92 8h1M94 8h1M128 8h1M130 8h1M132 8h1M134 8h1M136 8h1M138 8h1M140 8h1M142 8h1M144 8h1M146 8h1M153 8h1M155 8h1M157 8h1M159 8h1M161 8h1M163 8h1M165 8h1M181 8h1M183 8h1M185 8h1M187 8h1M189 8h1M191 8h1M193 8h1M195 8h1M197 8h1M211 8h1M213 8h1M215 8h1M217 8h1M219 8h1M221 8h1M223 8h1M229 8h1M231 8h1M233 8h1M235 8h1M237 8h1M239 8h1M241 8h1M243 8h1M245 8h1M247 8h1M249 8h1M251 8h1M253 8h1M255 8h1M271 8h1M273 8h1M275 8h1M277 8h1M279 8h1M281 8h1M283 8h1M285 8h1M287 8h1M289 8h1M291 8h1M293 8h1M295 8h1M297 8h1M299 8h1M0 10h1M2 10h1M4 10h1M6 10h1M8 10h1M10 10h1M22 10h1M24 10h1M26 10h1M28 10h1M30 10h1M32 10h1M34 10h1M36 10h1M38 10h1M40 10h1M42 10h1M44 10h1M46 10h1M48 10h1M62 10h1M64 10h1M66 10h1M68 10h1M70 10h1M76 10h1M78 10h1M80 10h1M82 10h1M84 10h1M86 10h1M88 10h1M90 10h1M92 10h1M94 10h1M128 10h1M130 10h1M132 10h1M134 10h1M136 10h1M138 10h1M140 10h1M142 10h1M144 10h1M146 10h1M153 10h1M155 10h1M157 10h1M159 10h1M161 10h1M163 10h1M165 10h1M181 10h1M183 10h1M185 10h1M187 10h1M189 10h1M191 10h1M193 10h1M195 10h1M197 10h1M211 10h1M213 10h1M215 10h1M217 10h1M219 10h1M221 10h1M223 10h1M229 10h1M231 10h1M233 10h1M235 10h1M237 10h1M239 10h1M241 10h1M243 10h1M245 10h1M247 10h1M249 10h1M251 10h1M253 10h1M271 10h1M273 10h1M275 10h1M277 10h1M279 10h1M281 10h1M283 10h1M285 10h1M287 10h1M289 10h1M291 10h1M293 10h1M295 10h1M297 10h1M299 10h1M0 12h1M2 12h1M4 12h1M6 12h1M8 12h1M10 12h1M24 12h1M26 12h1M28 12h1M30 12h1M32 12h1M34 12h1M36 12h1M38 12h1M40 12h1M42 12h1M44 12h1M46 12h1M48 12h1M60 12h1M62 12h1M64 12h1M66 12h1M68 12h1M70 12h1M76 12h1M78 12h1M80 12h1M82 12h1M84 12h1M86 12h1M88 12h1M90 12h1M92 12h1M94 12h1M128 12h1M130 12h1M132 12h1M134 12h1M136 12h1M138 12h1M140 12h1M142 12h1M144 12h1M146 12h1M153 12h1M155 12h1M157 12h1M159 12h1M161 12h1M163 12h1M165 12h1M183 12h1M185 12h1M187 12h1M189 12h1M191 12h1M193 12h1M195 12h1M197 12h1M211 12h1M213 12h1M215 12h1M217 12h1M219 12h1M221 12h1M223 12h1M229 12h1M231 12h1M233 12h1M235 12h1M237 12h1M239 12h1M241 12h1M243 12h1M245 12h1M247 12h1M249 12h1M251 12h1M253 12h1M273 12h1M275 12h1M277 12h1M279 12h1M281 12h1M283 12h1M285 12h1M287 12h1M289 12h1M291 12h1M293 12h1M295 12h1M297 12h1M299 12h1M0 14h1M2 14h1M4 14h1M6 14h1M8 14h1M10 14h1M24 14h1M26 14h1M28 14h1M30 14h1M32 14h1M34 14h1M36 14h1M38 14h1M40 14h1M42 14h1M44 14h1M46 14h1M60 14h1M62 14h1M64 14h1M66 14h1M68 14h1M70 14h1M76 14h1M78 14h1M80 14h1M82 14h1M84 14h1M86 14h1M88 14h1M90 14h1M92 14h1M94 14h1M96 14h1M98 14h1M100 14h1M102 14h1M104 14h1M118 14h1M120 14h1M122 14h1M124 14h1M126 14h1M128 14h1M130 14h1M132 14h1M134 14h1M136 14h1M138 14h1M140 14h1M142 14h1M144 14h1M146 14h1M153 14h1M155 14h1M157 14h1M159 14h1M161 14h1M163 14h1M165 14h1M183 14h1M185 14h1M187 14h1M189 14h1M191 14h1M193 14h1M195 14h1M197 14h1M211 14h1M213 14h1M215 14h1M217 14h1M219 14h1M221 14h1M223 14h1M229 14h1M231 14h1M233 14h1M235 14h1M237 14h1M239 14h1M241 14h1M243 14h1M245 14h1M247 14h1M249 14h1M251 14h1M253 14h1M273 14h1M275 14h1M277 14h1M279 14h1M281 14h1M283 14h1M285 14h1M287 14h1M289 14h1M291 14h1M293 14h1M295 14h1M297 14h1M299 14h1M0 16h1M2 16h1M4 16h1M6 16h1M8 16h1M10 16h1M12 16h1M24 16h1M26 16h1M28 16h1M30 16h1M32 16h1M34 16h1M36 16h1M38 16h1M40 16h1M42 16h1M44 16h1M46 16h1M60 16h1M62 16h1M64 16h1M66 16h1M68 16h1M70 16h1M76 16h1M78 16h1M80 16h1M82 16h1M84 16h1M86 16h1M88 16h1M90 16h1M92 16h1M94 16h1M96 16h1M98 16h1M100 16h1M102 16h1M104 16h1M118 16h1M120 16h1M122 16h1M124 16h1M126 16h1M128 16h1M130 16h1M132 16h1M134 16h1M136 16h1M138 16h1M140 16h1M142 16h1M144 16h1M146 16h1M153 16h1M155 16h1M157 16h1M159 16h1M161 16h1M163 16h1M165 16h1M185 16h1M187 16h1M189 16h1M191 16h1M193 16h1M195 16h1M197 16h1M211 16h1M213 16h1M215 16h1M217 16h1M219 16h1M221 16h1M223 16h1M229 16h1M231 16h1M233 16h1M235 16h1M237 16h1M239 16h1M241 16h1M243 16h1M245 16h1M247 16h1M249 16h1M251 16h1M275 16h1M277 16h1M279 16h1M281 16h1M283 16h1M285 16h1M287 16h1M289 16h1M291 16h1M293 16h1M295 16h1M297 16h1M299 16h1M0 18h1M2 18h1M4 18h1M6 18h1M8 18h1M10 18h1M12 18h1M26 18h1M28 18h1M30 18h1M32 18h1M34 18h1M36 18h1M38 18h1M40 18h1M42 18h1M44 18h1M46 18h1M60 18h1M62 18h1M64 18h1M66 18h1M68 18h1M70 18h1M76 18h1M78 18h1M80 18h1M82 18h1M84 18h1M86 18h1M88 18h1M90 18h1M92 18h1M94 18h1M96 18h1M98 18h1M100 18h1M102 18h1M104 18h1M118 18h1M120 18h1M122 18h1M124 18h1M126 18h1M128 18h1M130 18h1M132 18h1M134 18h1M136 18h1M138 18h1M140 18h1M142 18h1M144 18h1M146 18h1M153 18h1M155 18h1M157 18h1M159 18h1M161 18h1M163 18h1M165 18h1M185 18h1M187 18h1M189 18h1M191 18h1M193 18h1M195 18h1M197 18h1M211 18h1M213 18h1M215 18h1M217 18h1M219 18h1M221 18h1M223 18h1M229 18h1M231 18h1M233 18h1M235 18h1M237 18h1M239 18h1M241 18h1M243 18h1M245 18h1M247 18h1M249 18h1M251 18h1M275 18h1M277 18h1M279 18h1M281 18h1M283 18h1M285 18h1M287 18h1M289 18h1M291 18h1M293 18h1M295 18h1M297 18h1M299 18h1M0 20h1M2 20h1M4 20h1M6 20h1M8 20h1M10 20h1M12 20h1M26 20h1M28 20h1M30 20h1M32 20h1M34 20h1M36 20h1M38 20h1M40 20h1M42 20h1M44 20h1M58 20h1M60 20h1M62 20h1M64 20h1M66 20h1M68 20h1M70 20h1M76 20h1M78 20h1M80 20h1M82 20h1M84 20h1M86 20h1M88 20h1M90 20h1M92 20h1M94 20h1M96 20h1M98 20h1M100 20h1M102 20h1M104 20h1M118 20h1M120 20h1M122 20h1M124 20h1M126 20h1M128 20h1M130 20h1M132 20h1M134 20h1M136 20h1M138 20h1M140 20h1M142 20h1M144 20h1M146 20h1M153 20h1M155 20h1M157 20h1M159 20h1M161 20h1M163 20h1M165 20h1M187 20h1M189 20h1M191 20h1M193 20h1M195 20h1M197 20h1M211 20h1M213 20h1M215 20h1M217 20h1M219 20h1M221 20h1M223 20h1M229 20h1M231 20h1M233 20h1M235 20h1M237 20h1M239 20h1M241 20h1M243 20h1M245 20h1M247 20h1M249 20h1M251 20h1M275 20h1M277 20h1M279 20h1M281 20h1M283 20h1M285 20h1M287 20h1M289 20h1M291 20h1M293 20h1M295 20h1M297 20h1M299 20h1M18 22h1M22 22h1M46 22h1M50 22h1M54 22h1M106 22h1M110 22h1M114 22h1M153 22h1M155 22h1M157 22h1M159 22h1M161 22h1M163 22h1M165 22h1M175 22h1M179 22h1M183 22h1M199 22h1M211 22h1M213 22h1M215 22h1M217 22h1M219 22h1M221 22h1M223 22h1M253 22h1M257 22h1M261 22h1M265 22h1M269 22h1M273 22h1M16 24h1M20 24h1M24 24h1M48 24h1M52 24h1M108 24h1M112 24h1M116 24h1M153 24h1M155 24h1M157 24h1M159 24h1M161 24h1M163 24h1M165 24h1M177 24h1M181 24h1M185 24h1M201 24h1M211 24h1M213 24h1M215 24h1M217 24h1M219 24h1M221 24h1M223 24h1M255 24h1M259 24h1M267 24h1M271 24h1M275 24h1M0 26h1M2 26h1M4 26h1M6 26h1M8 26h1M10 26h1M12 26h1M14 26h1M22 26h1M26 26h1M46 26h1M56 26h1M58 26h1M60 26h1M62 26h1M64 26h1M66 26h1M68 26h1M70 26h1M106 26h1M110 26h1M114 26h1M153 26h1M155 26h1M157 26h1M159 26h1M161 26h1M163 26h1M165 26h1M175 26h1M179 26h1M183 26h1M187 26h1M199 26h1M211 26h1M213 26h1M215 26h1M217 26h1M219 26h1M221 26h1M223 26h1M229 26h1M231 26h1M233 26h1M235 26h1M237 26h1M239 26h1M241 26h1M243 26h1M245 26h1M247 26h1M249 26h1M263 26h1M277 26h1M279 26h1M281 26h1M283 26h1M285 26h1M287 26h1M289 26h1M291 26h1M293 26h1M295 26h1M297 26h1M299 26h1M0 28h1M2 28h1M4 28h1M6 28h1M8 28h1M10 28h1M12 28h1M14 28h1M16 28h1M24 28h1M44 28h1M48 28h1M56 28h1M58 28h1M60 28h1M62 28h1M64 28h1M66 28h1M68 28h1M70 28h1M108 28h1M112 28h1M116 28h1M153 28h1M155 28h1M157 28h1M159 28h1M161 28h1M163 28h1M165 28h1M177 28h1M181 28h1M185 28h1M189 28h1M201 28h1M211 28h1M213 28h1M215 28h1M217 28h1M219 28h1M221 28h1M223 28h1M229 28h1M231 28h1M233 28h1M235 28h1M237 28h1M239 28h1M241 28h1M243 28h1M245 28h1M247 28h1M261 28h1M263 28h1M265 28h1M279 28h1M281 28h1M283 28h1M285 28h1M287 28h1M289 28h1M291 28h1M293 28h1M295 28h1M297 28h1M299 28h1M0 30h1M2 30h1M4 30h1M6 30h1M8 30h1M10 30h1M12 30h1M14 30h1M16 30h1M22 30h1M26 30h1M46 30h1M56 30h1M58 30h1M60 30h1M62 30h1M64 30h1M66 30h1M68 30h1M70 30h1M106 30h1M110 30h1M114 30h1M153 30h1M155 30h1M157 30h1M159 30h1M161 30h1M163 30h1M165 30h1M175 30h1M183 30h1M187 30h1M191 30h1M199 30h1M211 30h1M213 30h1M215 30h1M217 30h1M219 30h1M221 30h1M223 30h1M229 30h1M231 30h1M233 30h1M235 30h1M237 30h1M239 30h1M241 30h1M243 30h1M245 30h1M247 30h1M261 30h1M263 30h1M265 30h1M279 30h1M281 30h1M283 30h1M285 30h1M287 30h1M289 30h1M291 30h1M293 30h1M295 30h1M297 30h1M299 30h1M0 32h1M2 32h1M4 32h1M6 32h1M8 32h1M10 32h1M12 32h1M14 32h1M16 32h1M24 32h1M28 32h1M44 32h1M48 32h1M54 32h1M56 32h1M58 32h1M60 32h1M62 32h1M64 32h1M66 32h1M68 32h1M70 32h1M108 32h1M112 32h1M116 32h1M153 32h1M155 32h1M157 32h1M159 32h1M161 32h1M163 32h1M165 32h1M177 32h1M185 32h1M189 32h1M201 32h1M211 32h1M213 32h1M215 32h1M217 32h1M219 32h1M221 32h1M223 32h1M229 32h1M231 32h1M233 32h1M235 32h1M237 32h1M239 32h1M241 32h1M243 32h1M245 32h1M247 32h1M261 32h1M263 32h1M265 32h1M279 32h1M281 32h1M283 32h1M285 32h1M287 32h1M289 32h1M291 32h1M293 32h1M295 32h1M297 32h1M299 32h1M0 34h1M2 34h1M4 34h1M6 34h1M8 34h1M10 34h1M12 34h1M14 34h1M16 34h1M18 34h1M22 34h1M26 34h1M42 34h1M46 34h1M54 34h1M56 34h1M58 34h1M60 34h1M62 34h1M64 34h1M66 34h1M68 34h1M70 34h1M106 34h1M110 34h1M114 34h1M153 34h1M155 34h1M157 34h1M159 34h1M161 34h1M163 34h1M165 34h1M175 34h1M183 34h1M187 34h1M191 34h1M199 34h1M211 34h1M213 34h1M215 34h1M217 34h1M219 34h1M221 34h1M223 34h1M229 34h1M231 34h1M233 34h1M235 34h1M237 34h1M239 34h1M241 34h1M243 34h1M245 34h1M259 34h1M261 34h1M263 34h1M265 34h1M267 34h1M281 34h1M283 34h1M285 34h1M287 34h1M289 34h1M291 34h1M293 34h1M295 34h1M297 34h1M299 34h1M0 36h1M2 36h1M4 36h1M6 36h1M8 36h1M10 36h1M12 36h1M14 36h1M16 36h1M18 36h1M24 36h1M28 36h1M44 36h1M48 36h1M54 36h1M56 36h1M58 36h1M60 36h1M62 36h1M64 36h1M66 36h1M68 36h1M70 36h1M108 36h1M112 36h1M116 36h1M153 36h1M155 36h1M157 36h1M159 36h1M161 36h1M163 36h1M165 36h1M177 36h1M185 36h1M189 36h1M193 36h1M201 36h1M211 36h1M213 36h1M215 36h1M217 36h1M219 36h1M221 36h1M223 36h1M229 36h1M231 36h1M233 36h1M235 36h1M237 36h1M239 36h1M241 36h1M243 36h1M245 36h1M259 36h1M261 36h1M263 36h1M265 36h1M267 36h1M281 36h1M283 36h1M285 36h1M287 36h1M289 36h1M291 36h1M293 36h1M295 36h1M297 36h1M299 36h1M0 38h1M2 38h1M4 38h1M6 38h1M8 38h1M10 38h1M12 38h1M14 38h1M16 38h1M18 38h1M22 38h1M26 38h1M30 38h1M42 38h1M46 38h1M52 38h1M54 38h1M56 38h1M58 38h1M60 38h1M62 38h1M64 38h1M66 38h1M68 38h1M70 38h1M106 38h1M110 38h1M114 38h1M153 38h1M155 38h1M157 38h1M159 38h1M161 38h1M163 38h1M165 38h1M175 38h1M187 38h1M191 38h1M195 38h1M199 38h1M211 38h1M213 38h1M215 38h1M217 38h1M219 38h1M221 38h1M223 38h1M229 38h1M231 38h1M233 38h1M235 38h1M237 38h1M239 38h1M241 38h1M243 38h1M245 38h1M281 38h1M283 38h1M285 38h1M287 38h1M289 38h1M291 38h1M293 38h1M295 38h1M297 38h1M299 38h1M0 40h1M2 40h1M4 40h1M6 40h1M8 40h1M10 40h1M12 40h1M14 40h1M16 40h1M18 40h1M20 40h1M24 40h1M28 40h1M40 40h1M44 40h1M48 40h1M52 40h1M54 40h1M56 40h1M58 40h1M60 40h1M62 40h1M64 40h1M66 40h1M68 40h1M70 40h1M108 40h1M112 40h1M116 40h1M153 40h1M155 40h1M157 40h1M159 40h1M161 40h1M163 40h1M165 40h1M177 40h1M185 40h1M189 40h1M193 40h1M201 40h1M211 40h1M213 40h1M215 40h1M217 40h1M219 40h1M221 40h1M223 40h1M229 40h1M231 40h1M233 40h1M235 40h1M237 40h1M239 40h1M241 40h1M243 40h1M245 40h1M283 40h1M285 40h1M287 40h1M289 40h1M291 40h1M293 40h1M295 40h1M297 40h1M299 40h1M0 42h1M2 42h1M4 42h1M6 42h1M8 42h1M10 42h1M12 42h1M14 42h1M16 42h1M18 42h1M20 42h1M22 42h1M26 42h1M30 42h1M42 42h1M46 42h1M52 42h1M54 42h1M56 42h1M58 42h1M60 42h1M62 42h1M64 42h1M66 42h1M68 42h1M70 42h1M106 42h1M110 42h1M114 42h1M153 42h1M155 42h1M157 42h1M159 42h1M161 42h1M163 42h1M165 42h1M175 42h1M187 42h1M191 42h1M195 42h1M199 42h1M211 42h1M213 42h1M215 42h1M217 42h1M219 42h1M221 42h1M223 42h1M229 42h1M231 42h1M233 42h1M235 42h1M237 42h1M239 42h1M241 42h1M243 42h1M283 42h1M285 42h1M287 42h1M289 42h1M291 42h1M293 42h1M295 42h1M297 42h1M299 42h1M0 44h1M2 44h1M4 44h1M6 44h1M8 44h1M10 44h1M12 44h1M14 44h1M16 44h1M18 44h1M20 44h1M24 44h1M28 44h1M32 44h1M40 44h1M44 44h1M48 44h1M50 44h1M52 44h1M54 44h1M56 44h1M58 44h1M60 44h1M62 44h1M64 44h1M66 44h1M68 44h1M70 44h1M108 44h1M112 44h1M116 44h1M153 44h1M155 44h1M157 44h1M159 44h1M161 44h1M163 44h1M165 44h1M177 44h1M189 44h1M193 44h1M197 44h1M201 44h1M211 44h1M213 44h1M215 44h1M217 44h1M219 44h1M221 44h1M223 44h1M229 44h1M231 44h1M233 44h1M235 44h1M237 44h1M239 44h1M241 44h1M243 44h1M283 44h1M285 44h1M287 44h1M289 44h1M291 44h1M293 44h1M295 44h1M297 44h1M299 44h1M0 46h1M2 46h1M4 46h1M6 46h1M8 46h1M10 46h1M12 46h1M14 46h1M16 46h1M18 46h1M20 46h1M26 46h1M30 46h1M34 46h1M38 46h1M42 46h1M46 46h1M50 46h1M52 46h1M54 46h1M56 46h1M58 46h1M60 46h1M62 46h1M64 46h1M66 46h1M68 46h1M70 46h1M106 46h1M110 46h1M114 46h1M153 46h1M155 46h1M157 46h1M159 46h1M161 46h1M163 46h1M165 46h1M175 46h1M191 46h1M195 46h1M199 46h1M211 46h1M213 46h1M215 46h1M217 46h1M219 46h1M221 46h1M223 46h1M229 46h1M231 46h1M233 46h1M235 46h1M237 46h1M239 46h1M241 46h1M243 46h1M251 46h1M255 46h1M259 46h1M263 46h1M267 46h1M271 46h1M275 46h1M280 46h1M0 48h1M2 48h1M4 48h1M6 48h1M8 48h1M10 48h1M12 48h1M14 48h1M16 48h1M18 48h1M20 48h1M24 48h1M28 48h1M32 48h1M40 48h1M44 48h1M48 48h1M50 48h1M52 48h1M54 48h1M56 48h1M58 48h1M60 48h1M62 48h1M64 48h1M66 48h1M68 48h1M70 48h1M108 48h1M112 48h1M116 48h1M153 48h1M155 48h1M157 48h1M159 48h1M161 48h1M163 48h1M165 48h1M177 48h1M189 48h1M193 48h1M197 48h1M201 48h1M211 48h1M213 48h1M215 48h1M217 48h1M219 48h1M221 48h1M223 48h1M229 48h1M231 48h1M233 48h1M235 48h1M237 48h1M239 48h1M241 48h1M249 48h1M253 48h1M273 48h1M277 48h1M282 48h1M0 50h1M2 50h1M4 50h1M6 50h1M8 50h1M10 50h1M12 50h1M14 50h1M16 50h1M18 50h1M20 50h1M22 50h1M48 50h1M50 50h1M52 50h1M54 50h1M56 50h1M58 50h1M60 50h1M62 50h1M64 50h1M66 50h1M68 50h1M70 50h1M76 50h1M78 50h1M80 50h1M82 50h1M84 50h1M86 50h1M88 50h1M90 50h1M92 50h1M94 50h1M96 50h1M98 50h1M100 50h1M102 50h1M104 50h1M118 50h1M120 50h1M122 50h1M124 50h1M126 50h1M128 50h1M130 50h1M132 50h1M134 50h1M136 50h1M138 50h1M140 50h1M142 50h1M144 50h1M146 50h1M153 50h1M155 50h1M157 50h1M159 50h1M161 50h1M163 50h1M165 50h1M175 50h1M191 50h1M195 50h1M199 50h1M211 50h1M213 50h1M215 50h1M217 50h1M219 50h1M221 50h1M223 50h1M229 50h1M231 50h1M233 50h1M235 50h1M237 50h1M239 50h1M241 50h1M255 50h1M257 50h1M259 50h1M261 50h1M263 50h1M265 50h1M267 50h1M269 50h1M271 50h1M273 50h1M285 50h1M287 50h1M289 50h1M291 50h1M293 50h1M295 50h1M297 50h1M299 50h1M0 52h1M2 52h1M4 52h1M6 52h1M8 52h1M10 52h1M12 52h1M14 52h1M16 52h1M18 52h1M20 52h1M22 52h1M24 52h1M48 52h1M50 52h1M52 52h1M54 52h1M56 52h1M58 52h1M60 52h1M62 52h1M64 52h1M66 52h1M68 52h1M70 52h1M76 52h1M78 52h1M80 52h1M82 52h1M84 52h1M86 52h1M88 52h1M90 52h1M92 52h1M94 52h1M96 52h1M98 52h1M100 52h1M102 52h1M104 52h1M118 52h1M120 52h1M122 52h1M124 52h1M126 52h1M128 52h1M130 52h1M132 52h1M134 52h1M136 52h1M138 52h1M140 52h1M142 52h1M144 52h1M146 52h1M153 52h1M155 52h1M157 52h1M159 52h1M161 52h1M163 52h1M165 52h1M177 52h1M191 52h1M193 52h1M197 52h1M201 52h1M211 52h1M213 52h1M215 52h1M217 52h1M219 52h1M221 52h1M223 52h1M229 52h1M231 52h1M233 52h1M235 52h1M237 52h1M239 52h1M241 52h1M253 52h1M255 52h1M257 52h1M259 52h1M261 52h1M263 52h1M265 52h1M267 52h1M269 52h1M271 52h1M273 52h1M287 52h1M289 52h1M291 52h1M293 52h1M295 52h1M297 52h1M299 52h1M0 54h1M2 54h1M4 54h1M6 54h1M8 54h1M10 54h1M12 54h1M14 54h1M16 54h1M18 54h1M20 54h1M22 54h1M24 54h1M48 54h1M50 54h1M52 54h1M54 54h1M56 54h1M58 54h1M60 54h1M62 54h1M64 54h1M66 54h1M68 54h1M70 54h1M76 54h1M78 54h1M80 54h1M82 54h1M84 54h1M86 54h1M88 54h1M90 54h1M92 54h1M94 54h1M96 54h1M98 54h1M100 54h1M102 54h1M104 54h1M118 54h1M120 54h1M122 54h1M124 54h1M126 54h1M128 54h1M130 54h1M132 54h1M134 54h1M136 54h1M138 54h1M140 54h1M142 54h1M144 54h1M146 54h1M153 54h1M155 54h1M157 54h1M159 54h1M161 54h1M163 54h1M165 54h1M175 54h1M195 54h1M199 54h1M211 54h1M213 54h1M215 54h1M217 54h1M219 54h1M221 54h1M223 54h1M229 54h1M231 54h1M233 54h1M235 54h1M237 54h1M239 54h1M253 54h1M255 54h1M257 54h1M259 54h1M261 54h1M263 54h1M265 54h1M267 54h1M269 54h1M271 54h1M273 54h1M287 54h1M289 54h1M291 54h1M293 54h1M295 54h1M297 54h1M299 54h1M0 56h1M2 56h1M4 56h1M6 56h1M8 56h1M10 56h1M12 56h1M14 56h1M16 56h1M18 56h1M20 56h1M22 56h1M24 56h1M46 56h1M48 56h1M50 56h1M52 56h1M54 56h1M56 56h1M58 56h1M60 56h1M62 56h1M64 56h1M66 56h1M68 56h1M70 56h1M76 56h1M78 56h1M80 56h1M82 56h1M84 56h1M86 56h1M88 56h1M90 56h1M92 56h1M94 56h1M96 56h1M98 56h1M100 56h1M102 56h1M104 56h1M118 56h1M120 56h1M122 56h1M124 56h1M126 56h1M128 56h1M130 56h1M132 56h1M134 56h1M136 56h1M138 56h1M140 56h1M142 56h1M144 56h1M146 56h1M153 56h1M155 56h1M157 56h1M159 56h1M161 56h1M163 56h1M165 56h1M177 56h1M193 56h1M197 56h1M201 56h1M211 56h1M213 56h1M215 56h1M217 56h1M219 56h1M221 56h1M223 56h1M229 56h1M231 56h1M233 56h1M235 56h1M237 56h1M239 56h1M253 56h1M255 56h1M257 56h1M259 56h1M261 56h1M263 56h1M265 56h1M267 56h1M269 56h1M271 56h1M273 56h1M275 56h1M287 56h1M289 56h1M291 56h1M293 56h1M295 56h1M297 56h1M299 56h1M0 58h1M2 58h1M4 58h1M6 58h1M8 58h1M10 58h1M12 58h1M14 58h1M16 58h1M18 58h1M20 58h1M22 58h1M24 58h1M26 58h1M46 58h1M48 58h1M50 58h1M52 58h1M54 58h1M56 58h1M58 58h1M60 58h1M62 58h1M64 58h1M66 58h1M68 58h1M70 58h1M76 58h1M78 58h1M80 58h1M82 58h1M84 58h1M86 58h1M88 58h1M90 58h1M92 58h1M94 58h1M128 58h1M130 58h1M132 58h1M134 58h1M136 58h1M138 58h1M140 58h1M142 58h1M144 58h1M146 58h1M153 58h1M155 58h1M157 58h1M159 58h1M161 58h1M163 58h1M165 58h1M175 58h1M195 58h1M199 58h1M211 58h1M213 58h1M215 58h1M217 58h1M219 58h1M221 58h1M223 58h1M229 58h1M231 58h1M233 58h1M235 58h1M237 58h1M239 58h1M251 58h1M253 58h1M255 58h1M257 58h1M259 58h1M261 58h1M263 58h1M265 58h1M267 58h1M269 58h1M271 58h1M273 58h1M275 58h1M289 58h1M291 58h1M293 58h1M295 58h1M297 58h1M299 58h1M0 60h1M2 60h1M4 60h1M6 60h1M8 60h1M10 60h1M12 60h1M14 60h1M16 60h1M18 60h1M20 60h1M22 60h1M24 60h1M26 60h1M46 60h1M48 60h1M50 60h1M52 60h1M54 60h1M56 60h1M58 60h1M60 60h1M62 60h1M64 60h1M66 60h1M68 60h1M70 60h1M76 60h1M78 60h1M80 60h1M82 60h1M84 60h1M86 60h1M88 60h1M90 60h1M92 60h1M94 60h1M128 60h1M130 60h1M132 60h1M134 60h1M136 60h1M138 60h1M140 60h1M142 60h1M144 60h1M146 60h1M153 60h1M155 60h1M157 60h1M159 60h1M161 60h1M163 60h1M165 60h1M177 60h1M197 60h1M201 60h1M211 60h1M213 60h1M215 60h1M217 60h1M219 60h1M221 60h1M223 60h1M229 60h1M231 60h1M233 60h1M235 60h1M237 60h1M251 60h1M253 60h1M255 60h1M257 60h1M259 60h1M261 60h1M263 60h1M265 60h1M267 60h1M269 60h1M271 60h1M273 60h1M275 60h1M289 60h1M291 60h1M293 60h1M295 60h1M297 60h1M299 60h1M0 62h1M2 62h1M4 62h1M6 62h1M8 62h1M10 62h1M12 62h1M14 62h1M16 62h1M18 62h1M20 62h1M22 62h1M24 62h1M26 62h1M28 62h1M44 62h1M46 62h1M48 62h1M50 62h1M52 62h1M54 62h1M56 62h1M58 62h1M60 62h1M62 62h1M64 62h1M66 62h1M68 62h1M70 62h1M76 62h1M78 62h1M80 62h1M82 62h1M84 62h1M86 62h1M88 62h1M90 62h1M92 62h1M94 62h1M128 62h1M130 62h1M132 62h1M134 62h1M136 62h1M138 62h1M140 62h1M142 62h1M144 62h1M146 62h1M153 62h1M155 62h1M157 62h1M159 62h1M161 62h1M163 62h1M165 62h1M175 62h1M199 62h1M211 62h1M213 62h1M215 62h1M217 62h1M219 62h1M221 62h1M223 62h1M229 62h1M231 62h1M233 62h1M235 62h1M237 62h1M251 62h1M253 62h1M255 62h1M257 62h1M259 62h1M261 62h1M263 62h1M265 62h1M267 62h1M269 62h1M271 62h1M273 62h1M275 62h1M277 62h1M289 62h1M291 62h1M293 62h1M295 62h1M297 62h1M299 62h1M0 64h1M2 64h1M4 64h1M6 64h1M8 64h1M10 64h1M12 64h1M14 64h1M16 64h1M18 64h1M20 64h1M22 64h1M24 64h1M26 64h1M28 64h1M44 64h1M46 64h1M48 64h1M50 64h1M52 64h1M54 64h1M56 64h1M58 64h1M60 64h1M62 64h1M64 64h1M66 64h1M68 64h1M70 64h1M76 64h1M78 64h1M80 64h1M82 64h1M84 64h1M86 64h1M88 64h1M90 64h1M92 64h1M94 64h1M128 64h1M130 64h1M132 64h1M134 64h1M136 64h1M138 64h1M140 64h1M142 64h1M144 64h1M146 64h1M153 64h1M155 64h1M157 64h1M159 64h1M161 64h1M163 64h1M165 64h1M177 64h1M197 64h1M201 64h1M211 64h1M213 64h1M215 64h1M217 64h1M219 64h1M221 64h1M223 64h1M229 64h1M231 64h1M233 64h1M235 64h1M237 64h1M249 64h1M251 64h1M253 64h1M255 64h1M257 64h1M259 64h1M261 64h1M263 64h1M265 64h1M267 64h1M269 64h1M271 64h1M273 64h1M275 64h1M277 64h1M291 64h1M293 64h1M295 64h1M297 64h1M299 64h1M0 66h1M2 66h1M4 66h1M6 66h1M8 66h1M10 66h1M12 66h1M14 66h1M16 66h1M18 66h1M20 66h1M22 66h1M24 66h1M26 66h1M28 66h1M44 66h1M46 66h1M48 66h1M50 66h1M52 66h1M54 66h1M56 66h1M58 66h1M60 66h1M62 66h1M64 66h1M66 66h1M68 66h1M70 66h1M76 66h1M78 66h1M80 66h1M82 66h1M84 66h1M86 66h1M88 66h1M90 66h1M92 66h1M94 66h1M128 66h1M130 66h1M132 66h1M134 66h1M136 66h1M138 66h1M140 66h1M142 66h1M144 66h1M146 66h1M153 66h1M155 66h1M157 66h1M159 66h1M161 66h1M163 66h1M165 66h1M175 66h1M199 66h1M211 66h1M213 66h1M215 66h1M217 66h1M219 66h1M221 66h1M223 66h1M229 66h1M231 66h1M233 66h1M235 66h1M249 66h1M251 66h1M253 66h1M255 66h1M257 66h1M259 66h1M261 66h1M263 66h1M265 66h1M267 66h1M269 66h1M271 66h1M273 66h1M275 66h1M277 66h1M291 66h1M293 66h1M295 66h1M297 66h1M299 66h1M0 68h1M2 68h1M4 68h1M6 68h1M8 68h1M10 68h1M12 68h1M14 68h1M16 68h1M18 68h1M20 68h1M22 68h1M24 68h1M26 68h1M28 68h1M30 68h1M32 68h1M34 68h1M36 68h1M38 68h1M40 68h1M42 68h1M44 68h1M46 68h1M48 68h1M50 68h1M52 68h1M54 68h1M56 68h1M58 68h1M60 68h1M62 68h1M64 68h1M66 68h1M68 68h1M70 68h1M76 68h1M78 68h1M80 68h1M82 68h1M84 68h1M86 68h1M88 68h1M90 68h1M92 68h1M94 68h1M96 68h1M98 68h1M100 68h1M102 68h1M104 68h1M106 68h1M108 68h1M110 68h1M112 68h1M114 68h1M116 68h1M118 68h1M120 68h1M122 68h1M124 68h1M126 68h1M128 68h1M130 68h1M132 68h1M134 68h1M136 68h1M138 68h1M140 68h1M142 68h1M144 68h1M146 68h1M153 68h1M155 68h1M157 68h1M159 68h1M161 68h1M163 68h1M165 68h1M167 68h1M169 68h1M171 68h1M173 68h1M203 68h1M205 68h1M207 68h1M209 68h1M211 68h1M213 68h1M215 68h1M217 68h1M219 68h1M221 68h1M223 68h1M229 68h1M231 68h1M233 68h1M235 68h1M237 68h1M239 68h1M241 68h1M243 68h1M245 68h1M247 68h1M249 68h1M251 68h1M253 68h1M255 68h1M257 68h1M259 68h1M261 68h1M263 68h1M265 68h1M267 68h1M269 68h1M271 68h1M273 68h1M275 68h1M277 68h1M279 68h1M281 68h1M283 68h1M285 68h1M287 68h1M289 68h1M291 68h1M293 68h1M295 68h1M297 68h1M299 68h1M0 70h1M2 70h1M4 70h1M6 70h1M8 70h1M10 70h1M12 70h1M14 70h1M16 70h1M18 70h1M20 70h1M22 70h1M24 70h1M26 70h1M28 70h1M30 70h1M32 70h1M34 70h1M36 70h1M38 70h1M40 70h1M42 70h1M44 70h1M46 70h1M48 70h1M50 70h1M52 70h1M54 70h1M56 70h1M58 70h1M60 70h1M62 70h1M64 70h1M66 70h1M68 70h1M70 70h1M76 70h1M78 70h1M80 70h1M82 70h1M84 70h1M86 70h1M88 70h1M90 70h1M92 70h1M94 70h1M96 70h1M98 70h1M100 70h1M102 70h1M104 70h1M106 70h1M108 70h1M110 70h1M112 70h1M114 70h1M116 70h1M118 70h1M120 70h1M122 70h1M124 70h1M126 70h1M128 70h1M130 70h1M132 70h1M134 70h1M136 70h1M138 70h1M140 70h1M142 70h1M144 70h1M146 70h1M153 70h1M155 70h1M157 70h1M159 70h1M161 70h1M163 70h1M165 70h1M167 70h1M169 70h1M171 70h1M173 70h1M203 70h1M205 70h1M207 70h1M209 70h1M211 70h1M213 70h1M215 70h1M217 70h1M219 70h1M221 70h1M223 70h1M229 70h1M231 70h1M233 70h1M235 70h1M237 70h1M239 70h1M241 70h1M243 70h1M245 70h1M247 70h1M249 70h1M251 70h1M253 70h1M255 70h1M257 70h1M259 70h1M261 70h1M263 70h1M265 70h1M267 70h1M269 70h1M271 70h1M273 70h1M275 70h1M277 70h1M279 70h1M281 70h1M283 70h1M285 70h1M287 70h1M289 70h1M291 70h1M293 70h1M295 70h1M297 70h1M299 70h1M0 83h3M13 83h3M61 83h9M120 83h6M173 83h3M182 83h3M234 83h4M288 83h3M1 85h3M12 85h3M61 85h9M118 85h9M173 85h3M182 85h3M233 85h6M288 85h3M1 87h4M12 87h3M64 87h3M117 87h3M125 87h3M173 87h3M182 87h3M233 87h6M288 87h3M2 89h3M11 89h3M64 89h3M117 89h4M173 89h3M182 89h3M232 89h3M237 89h3M288 89h3M3 91h3M10 91h3M64 91h3M119 91h6M173 91h3M182 91h3M231 91h4M237 91h4M288 91h3M3 93h4M9 93h4M64 93h3M122 93h5M173 93h3M182 93h3M231 93h10M288 93h3M4 95h3M9 95h3M64 95h3M125 95h3M173 95h3M182 95h3M230 95h12M288 95h3M5 97h6M64 97h3M117 97h3M125 97h3M173 97h3M182 97h3M229 97h3M240 97h3M288 97h3M6 99h5M61 99h9M117 99h10M174 99h10M229 99h3M240 99h3M288 99h12M6 101h4M61 101h9M119 101h5M176 101h6M228 101h3M241 101h3M288 101h12M0 111h3M9 111h3M40 111h4M70 111h3M83 111h3M110 111h9M148 111h6M184 111h4M215 111h15M255 111h6M286 111h10M0 113h4M9 113h3M39 113h6M71 113h3M82 113h3M110 113h9M145 113h11M183 113h6M215 113h15M253 113h10M286 113h12M0 115h5M9 115h3M39 115h6M71 115h4M82 115h3M113 115h3M144 115h3M183 115h6M221 115h3M252 115h3M261 115h3M286 115h3M296 115h3M0 117h6M9 117h3M38 117h3M43 117h3M72 117h3M81 117h3M113 117h3M143 117h3M182 117h3M187 117h3M221 117h3M251 117h3M262 117h3M286 117h3M296 117h3M0 119h3M4 119h3M9 119h3M37 119h4M43 119h4M73 119h3M80 119h3M113 119h3M143 119h3M181 119h4M187 119h4M221 119h3M251 119h3M262 119h3M286 119h12M0 121h3M5 121h3M9 121h3M37 121h10M73 121h4M79 121h4M113 121h3M143 121h3M150 121h6M181 121h10M221 121h3M251 121h3M262 121h3M286 121h8M0 123h3M6 123h6M36 123h12M74 123h3M79 123h3M113 123h3M143 123h3M153 123h3M180 123h12M221 123h3M251 123h3M262 123h3M286 123h3M292 123h4M0 125h3M7 125h5M35 125h3M46 125h3M75 125h6M113 125h3M144 125h3M153 125h3M179 125h3M190 125h3M221 125h3M252 125h3M261 125h3M286 125h3M294 125h3M0 127h3M8 127h4M35 127h3M46 127h3M76 127h5M110 127h9M145 127h11M179 127h3M190 127h3M221 127h3M253 127h10M286 127h3M295 127h4M0 129h3M9 129h3M34 129h3M47 129h3M76 129h4M110 129h9M148 129h6M178 129h3M191 129h3M221 129h3M255 129h6M286 129h3M297 129h3M0 141h300M0 142h1M299 142h1M0 143h1M299 143h1M0 144h1M299 144h1M0 145h1M299 145h1M0 146h1M299 146h1M0 147h1M299 147h1M0 148h1M299 148h1M0 149h1M299 149h1M0 150h1M299 150h1M0 151h1M299 151h1M0 152h1M11 152h3M24 152h3M39 152h4M70 152h1M75 152h1M96 152h1M131 152h2M137 152h3M158 152h2M165 152h2M187 152h2M193 152h4M214 152h2M220 152h4M228 152h2M299 152h1M0 153h1M12 153h1M24 153h1M27 153h1M38 153h1M70 153h1M96 153h1M124 153h1M131 153h1M136 153h1M140 153h1M157 153h1M159 153h1M166 153h1M187 153h1M193 153h1M213 153h1M215 153h1M224 153h1M229 153h1M299 153h1M0 154h1M12 154h1M24 154h1M28 154h1M38 154h1M46 154h3M53 154h3M60 154h1M62 154h2M67 154h4M73 154h3M80 154h1M82 154h2M87 154h4M95 154h4M102 154h3M110 154h1M124 154h1M131 154h1M136 154h1M140 154h1M159 154h1M166 154h1M187 154h1M193 154h1M215 154h1M224 154h1M229 154h1M299 154h1M0 155h1M12 155h1M24 155h1M28 155h1M38 155h1M45 155h1M49 155h1M52 155h1M56 155h1M60 155h2M66 155h1M70 155h1M75 155h1M80 155h2M84 155h1M91 155h1M96 155h1M101 155h1M105 155h1M110 155h1M122 155h5M131 155h1M136 155h1M140 155h1M159 155h1M166 155h1M187 155h1M193 155h3M215 155h1M221 155h3M229 155h1M299 155h1M0 156h1M12 156h1M24 156h1M28 156h1M38 156h1M45 156h1M49 156h1M52 156h1M56 156h1M60 156h1M66 156h1M70 156h1M75 156h1M80 156h1M84 156h1M88 156h4M96 156h1M101 156h5M124 156h1M131 156h1M137 156h4M159 156h1M166 156h1M179 156h3M187 156h1M196 156h1M215 156h1M224 156h1M229 156h1M299 156h1M0 157h1M12 157h1M24 157h1M28 157h1M38 157h1M45 157h1M49 157h1M52 157h1M56 157h1M60 157h1M66 157h1M70 157h1M75 157h1M80 157h1M84 157h1M87 157h1M91 157h1M96 157h1M101 157h1M124 157h1M131 157h1M140 157h1M159 157h1M166 157h1M187 157h1M196 157h1M215 157h1M224 157h1M229 157h1M299 157h1M0 158h1M12 158h1M24 158h1M27 158h1M38 158h1M45 158h1M49 158h1M52 158h1M56 158h1M60 158h1M66 158h1M70 158h1M75 158h1M80 158h1M84 158h1M87 158h1M90 158h2M96 158h1M101 158h1M110 158h1M131 158h1M139 158h1M145 158h1M159 158h1M166 158h1M187 158h1M196 158h1M201 158h1M215 158h1M224 158h1M229 158h1M299 158h1M0 159h1M11 159h3M24 159h3M39 159h4M46 159h3M53 159h3M60 159h1M67 159h4M75 159h1M80 159h1M84 159h1M88 159h2M91 159h1M97 159h2M102 159h4M110 159h1M131 159h1M136 159h3M145 159h1M157 159h5M166 159h1M187 159h1M193 159h3M201 159h1M213 159h5M220 159h4M229 159h1M299 159h1M0 160h1M131 160h1M144 160h1M166 160h1M187 160h1M200 160h1M229 160h1M299 160h1M0 161h1M131 161h2M165 161h2M187 161h2M228 161h2M299 161h1M0 162h1M299 162h1M0 163h1M299 163h1M0 164h1M299 164h1M0 165h1M299 165h1M0 166h1M299 166h1M0 167h1M299 167h1M0 168h1M299 168h1M0 169h1M299 169h1M0 170h1M11 170h4M45 170h3M61 170h1M77 170h1M87 170h1M91 170h1M122 170h4M129 170h1M145 170h1M171 170h4M194 170h1M201 170h1M208 170h1M299 170h1M0 171h1M10 171h1M47 171h1M61 171h1M77 171h1M87 171h1M91 171h1M122 171h1M126 171h1M129 171h1M145 171h1M171 171h1M175 171h1M201 171h1M299 171h1M0 172h1M10 172h1M17 172h4M25 172h3M32 172h4M38 172h1M42 172h1M47 172h1M52 172h4M60 172h4M67 172h3M74 172h4M87 172h1M91 172h1M95 172h4M102 172h3M110 172h1M122 172h1M126 172h1M129 172h1M131 172h2M137 172h3M144 172h4M151 172h3M157 172h1M159 172h2M171 172h1M175 172h1M179 172h3M186 172h4M192 172h3M200 172h4M206 172h3M214 172h3M220 172h1M222 172h2M228 172h3M235 172h1M237 172h2M299 172h1M0 173h1M11 173h2M17 173h1M21 173h1M24 173h1M28 173h1M31 173h1M38 173h1M42 173h1M47 173h1M56 173h1M61 173h1M66 173h1M70 173h1M73 173h1M77 173h1M87 173h1M91 173h1M94 173h1M101 173h1M105 173h1M110 173h1M122 173h4M129 173h2M133 173h1M136 173h1M140 173h1M145 173h1M150 173h1M154 173h1M157 173h2M161 173h1M171 173h4M178 173h1M182 173h1M185 173h1M194 173h1M201 173h1M208 173h1M213 173h1M217 173h1M220 173h2M224 173h1M227 173h1M231 173h1M235 173h2M299 173h1M0 174h1M13 174h1M17 174h1M21 174h1M24 174h5M31 174h1M38 174h1M42 174h1M47 174h1M53 174h4M61 174h1M66 174h5M73 174h1M77 174h1M87 174h1M91 174h1M95 174h2M101 174h5M122 174h1M129 174h1M133 174h1M136 174h1M140 174h1M145 174h1M150 174h1M154 174h1M157 174h1M161 174h1M171 174h1M178 174h1M182 174h1M186 174h2M194 174h1M201 174h1M208 174h1M213 174h1M217 174h1M220 174h1M224 174h1M227 174h5M235 174h1M299 174h1M0 175h1M14 175h1M17 175h1M21 175h1M24 175h1M31 175h1M38 175h1M42 175h1M47 175h1M52 175h1M56 175h1M61 175h1M66 175h1M73 175h1M77 175h1M87 175h1M91 175h1M97 175h1M101 175h1M122 175h1M129 175h1M133 175h1M136 175h1M140 175h1M145 175h1M150 175h1M154 175h1M157 175h1M161 175h1M171 175h1M178 175h1M182 175h1M188 175h1M194 175h1M201 175h1M208 175h1M213 175h1M217 175h1M220 175h1M224 175h1M227 175h1M235 175h1M299 175h1M0 176h1M14 176h1M17 176h1M21 176h1M24 176h1M31 176h1M38 176h1M41 176h2M47 176h1M52 176h1M55 176h2M61 176h1M66 176h1M73 176h1M77 176h1M87 176h1M91 176h1M98 176h1M101 176h1M110 176h1M122 176h1M129 176h1M133 176h1M136 176h1M140 176h1M145 176h1M150 176h1M154 176h1M157 176h1M161 176h1M171 176h1M178 176h1M182 176h1M189 176h1M194 176h1M201 176h1M208 176h1M213 176h1M217 176h1M220 176h1M224 176h1M227 176h1M235 176h1M299 176h1M0 177h1M10 177h4M17 177h4M25 177h4M32 177h4M39 177h2M42 177h1M47 177h3M53 177h2M56 177h1M62 177h2M67 177h4M74 177h4M88 177h3M94 177h4M102 177h4M110 177h1M122 177h1M129 177h1M133 177h1M137 177h3M146 177h2M151 177h3M157 177h1M161 177h1M171 177h1M179 177h3M185 177h4M194 177h1M202 177h2M208 177h1M214 177h3M220 177h1M224 177h1M228 177h4M235 177h1M299 177h1M0 178h1M17 178h1M299 178h1M0 179h1M17 179h1M299 179h1M0 180h1M299 180h1M0 181h1M299 181h1M0 182h1M299 182h1M0 183h1M299 183h1M0 184h1M299 184h1M0 185h1M299 185h1M0 186h1M299 186h1M0 187h1M299 187h1M0 188h1M299 188h1M0 189h1M299 189h1M0 190h1M299 190h1M0 191h1M299 191h1M0 192h1M299 192h1M0 193h1M299 193h1M0 194h1M299 194h1M0 195h1M299 195h1M0 196h1M299 196h1M0 197h1M299 197h1M0 198h1M299 198h1M0 199h300" />
</svg>