<svg xmlns="http://www.w3.org/2000/svg" viewBox="0 -0.5 50 50" shape-rendering="crispEdges">
<metadata>Made with Pixels to Svg https://codepen.io/shshaw/pen/XbxvNj</metadata>
<path stroke="#0b0c0e" d="M1 0h4M6 0h4M11 0h4M16 0h4M21 0h4M26 0h4M31 0h4M36 0h4M41 0h4M46 0h4M0 1h3M4 1h4M9 1h4M14 1h4M19 1h4M24 1h4M29 1h4M34 1h4M39 1h4M44 1h4M49 1h1M0 2h1M2 2h4M7 2h4M12 2h4M17 2h4M22 2h4M27 2h4M32 2h4M37 2h4M42 2h4M47 2h3M0 3h4M5 3h4M10 3h4M15 3h4M20 3h4M25 3h4M30 3h4M35 3h4M40 3h4M45 3h4M0 4h2M3 4h4M8 4h4M13 4h4M18 4h4M23 4h4M28 4h4M33 4h4M38 4h4M43 4h4M48 4h2M1 5h4M6 5h4M11 5h4M16 5h4M21 5h4M26 5h4M31 5h4M36 5h4M41 5h4M46 5h4M0 6h3M4 6h4M9 6h4M14 6h4M19 6h4M24 6h4M29 6h4M34 6h4M39 6h4M44 6h4M49 6h1M0 7h1M2 7h4M7 7h4M12 7h4M17 7h4M22 7h4M27 7h4M32 7h4M37 7h4M42 7h4M47 7h3M0 8h4M5 8h4M10 8h4M15 8h4M20 8h4M25 8h4M30 8h4M35 8h4M40 8h4M45 8h4M0 9h2M3 9h4M8 9h4M13 9h4M18 9h4M23 9h4M28 9h4M33 9h4M38 9h4M43 9h4M48 9h2M1 10h4M6 10h4M11 10h4M16 10h4M21 10h4M26 10h4M31 10h4M36 10h4M41 10h4M46 10h4M0 11h3M4 11h4M9 11h4M14 11h4M19 11h4M24 11h4M29 11h4M34 11h4M39 11h4M44 11h4M49 11h1M0 12h1M2 12h4M7 12h4M12 12h4M17 12h4M22 12h4M27 12h4M32 12h4M37 12h4M42 12h4M47 12h3M0 13h4M5 13h4M10 13h4M15 13h4M20 13h4M25 13h4M30 13h4M35 13h4M40 13h4M45 13h4M0 14h2M3 14h4M8 14h4M13 14h4M18 14h4M23 14h4M28 14h4M33 14h4M38 14h4M43 14h4M48 14h2M1 15h4M6 15h4M11 15h4M16 15h4M21 15h4M26 15h4M31 15h4M36 15h4M41 15h4M46 15h4M0 16h3M4 16h4M9 16h4M14 16h4M19 16h4M24 16h4M29 16h4M34 16h4M39 16h4M44 16h4M49 16h1M0 17h1M2 17h4M7 17h4M12 17h4M17 17h4M22 17h4M27 17h4M32 17h4M37 17h4M42 17h4M47 17h3M0 18h4M5 18h4M10 18h4M15 18h4M20 18h4M25 18h4M30 18h4M35 18h4M40 18h4M45 18h4M0 19h2M3 19h4M8 19h4M13 19h4M18 19h4M23 19h4M28 19h4M33 19h4M38 19h4M43 19h4M48 19h2M1 20h4M6 20h4M11 20h4M16 20h4M21 20h4M26 20h4M31 20h4M36 20h4M41 20h4M46 20h4M0 21h3M4 21h4M9 21h4M14 21h4M19 21h4M24 21h4M29 21h4M34 21h4M39 21h4M44 21h4M49 21h1M0 22h1M2 22h4M7 22h4M12 22h4M17 22h4M22 22h4M27 22h4M32 22h4M37 22h4M42 22h4M47 22h3M0 23h4M5 23h4M10 23h4M15 23h4M20 23h4M25 23h4M30 23h4M35 23h4M40 23h4M45 23h4M0 24h2M3 24h4M8 24h4M13 24h4M18 24h4M23 24h4M28 24h4M33 24h4M38 24h4M43 24h4M48 24h2M1 25h4M6 25h4M11 25h4M16 25h4M21 25h4M26 25h4M31 25h4M36 25h4M41 25h4M46 25h4M0 26h3M4 26h4M9 26h4M14 26h4M19 26h4M24 26h4M29 26h4M34 26h4M39 26h4M44 26h4M49 26h1M0 27h1M2 27h4M7 27h4M12 27h4M17 27h4M22 27h4M27 27h4M32 27h4M37 27h4M42 27h4M47 27h3M0 28h4M5 28h4M10 28h4M15 28h4M20 28h4M25 28h4M30 28h4M35 28h4M40 28h4M45 28h4M0 29h2M3 29h4M8 29h4M13 29h4M18 29h4M23 29h4M28 29h4M33 29h4M38 29h4M43 29h4M48 29h2M1 30h4M6 30h4M11 30h4M16 30h4M21 30h4M26 30h4M31 30h4M36 30h4M41 30h4M46 30h4M0 31h3M4 31h4M9 31h4M14 31h4M19 31h4M24 31h4M29 31h4M34 31h4M39 31h4M44 31h4M49 31h1M0 32h1M2 32h4M7 32h4M12 32h4M17 32h4M22 32h4M27 32h4M32 32h4M37 32h4M42 32h4M47 32h3M0 33h4M5 33h4M10 33h4M15 33h4M20 33h4M25 33h4M30 33h4M35 33h4M40 33h4M45 33h4M0 34h2M3 34h4M8 34h4M13 34h4M18 34h4M23 34h4M28 34h4M33 34h4M38 34h4M43 34h4M48 34h2M1 35h4M6 35h4M11 35h4M16 35h4M21 35h4M26 35h4M31 35h4M36 35h4M41 35h4M46 35h4M0 36h3M4 36h4M9 36h4M14 36h4M19 36h4M24 36h4M29 36h4M34 36h4M39 36h4M44 36h4M49 36h1M0 37h1M2 37h4M7 37h4M12 37h4M17 37h4M22 37h4M27 37h4M32 37h4M37 37h4M42 37h4M47 37h3M0 38h4M5 38h4M10 38h4M15 38h4M20 38h4M25 38h4M30 38h4M35 38h4M40 38h4M45 38h4M0 39h2M3 39h4M8 39h4M13 39h4M18 39h4M23 39h4M28 39h4M33 39h4M38 39h4M43 39h4M48 39h2M1 40h4M6 40h4M11 40h4M16 40h4M21 40h4M26 40h4M31 40h4M36 40h4M41 40h4M46 40h4M0 41h3M4 41h4M9 41h4M14 41h4M19 41h4M24 41h4M29 41h4M34 41h4M39 41h4M44 41h4M49 41h1M0 42h1M2 42h4M7 42h4M12 42h4M17 42h4M22 42h4M27 42h4M32 42h4M37 42h4M42 42h4M47 42h3M0 43h4M5 43h4M10 43h4M15 43h4M20 43h4M25 43h4M30 43h4M35 43h4M40 43h4M45 43h4M0 44h2M3 44h4M8 44h4M13 44h4M18 44h4M23 44h4M28 44h4M33 44h4M38 44h4M43 44h4M48 44h2M1 45h4M6 45h4M11 45h4M16 45h4M21 45h4M26 45h4M31 45h4M36 45h4M41 45h4M46 45h4M0 46h3M4 46h4M9 46h4M14 46h4M19 46h4M24 46h4M29 46h4M34 46h4M39 46h4M44 46h4M49 46h1M0 47h1M2 47h4M7 47h4M12 47h4M17 47h4M22 47h4M27 47h4M32 47h4M37 47h4M42 47h4M47 47h3M0 48h4M5 48h4M10 48h4M15 48h4M20 48h4M25 48h4M30 48h4M35 48h4M40 48h4M45 48h4M0 49h2M3 49h4M8 49h4M13 49h4M18 49h4M23 49h4M28 49h4M33 49h4M38 49h4M43 49h4M48 49h2" />
</svg>