<svg xmlns="http://www.w3.org/2000/svg" viewBox="0 -0.5 64 32" shape-rendering="crispEdges">
<metadata>Made with Pixels to Svg https://codepen.io/shshaw/pen/XbxvNj</metadata>
<path stroke="#ffffff" d="M0 0h1M2 0h1M4 0h1M6 0h1M8 0h1M10 0h1M12 0h1M14 0h1M32 0h1M34 0h1M36 0h1M38 0h1M40 0h1M42 0h1M48 0h1M50 0h1M2 2h1M4 2h1M6 2h1M8 2h1M10 2h1M12 2h1M14 2h1M32 2h1M34 2h1M36 2h1M38 2h1M48 2h1M50 2h1M52 2h1M54 2h1M56 2h1M2 4h1M4 4h1M6 4h1M8 4h1M10 4h1M12 4h1M14 4h1M30 4h1M32 4h1M34 4h1M36 4h1M48 4h1M50 4h1M52 4h1M54 4h1M56 4h1M58 4h1M4 6h1M6 6h1M8 6h1M10 6h1M12 6h1M14 6h1M30 6h1M32 6h1M34 6h1M48 6h1M50 6h1M52 6h1M54 6h1M56 6h1M58 6h1M60 6h1M4 8h1M6 8h1M8 8h1M10 8h1M12 8h1M14 8h1M28 8h1M30 8h1M32 8h1M48 8h1M50 8h1M52 8h1M54 8h1M56 8h1M58 8h1M60 8h1M6 10h1M8 10h1M10 10h1M12 10h1M14 10h1M28 10h1M30 10h1M32 10h1M48 10h1M50 10h1M52 10h1M54 10h1M56 10h1M58 10h1M60 10h1M62 10h1M6 12h1M8 12h1M10 12h1M12 12h1M14 12h1M26 12h1M28 12h1M30 12h1M48 12h1M50 12h1M52 12h1M54 12h1M56 12h1M58 12h1M60 12h1M62 12h1M8 14h1M10 14h1M12 14h1M14 14h1M26 14h1M28 14h1M30 14h1M48 14h1M50 14h1M52 14h1M54 14h1M56 14h1M58 14h1M60 14h1M62 14h1M8 16h1M10 16h1M12 16h1M14 16h1M24 16h1M26 16h1M28 16h1M30 16h1M48 16h1M50 16h1M52 16h1M54 16h1M56 16h1M58 16h1M60 16h1M62 16h1M10 18h1M12 18h1M14 18h1M24 18h1M26 18h1M28 18h1M30 18h1M48 18h1M50 18h1M52 18h1M54 18h1M56 18h1M58 18h1M60 18h1M62 18h1M10 20h1M12 20h1M14 20h1M22 20h1M24 20h1M26 20h1M28 20h1M30 20h1M32 20h1M48 20h1M50 20h1M52 20h1M54 20h1M56 20h1M58 20h1M60 20h1M62 20h1M12 22h1M14 22h1M22 22h1M24 22h1M26 22h1M28 22h1M30 22h1M32 22h1M48 22h1M50 22h1M52 22h1M54 22h1M56 22h1M58 22h1M60 22h1M62 22h1M12 24h1M14 24h1M20 24h1M22 24h1M24 24h1M26 24h1M28 24h1M30 24h1M32 24h1M48 24h1M50 24h1M52 24h1M54 24h1M56 24h1M58 24h1M60 24h1M14 26h1M20 26h1M22 26h1M24 26h1M26 26h1M28 26h1M30 26h1M32 26h1M34 26h1M48 26h1M50 26h1M52 26h1M54 26h1M56 26h1M58 26h1M14 28h1M18 28h1M20 28h1M22 28h1M24 28h1M26 28h1M28 28h1M30 28h1M32 28h1M34 28h1M36 28h1M48 28h1M50 28h1M52 28h1M54 28h1M56 28h1M18 30h1M20 30h1M22 30h1M24 30h1M26 30h1M28 30h1M30 30h1M32 30h1M34 30h1M36 30h1M38 30h1M40 30h1M48 30h1M50 30h1M52 30h1M54 30h1" />
</svg>