<svg xmlns="http://www.w3.org/2000/svg" viewBox="0 -0.5 353 608" shape-rendering="crispEdges">
<metadata>Made with Pixels to Svg https://codepen.io/shshaw/pen/XbxvNj</metadata>
<path stroke="#ffffff" d="M188 38h1M192 38h1M196 38h1M284 38h1M288 38h1M292 38h1M182 40h1M186 40h1M190 40h1M194 40h1M198 40h1M202 40h1M278 40h1M282 40h1M286 40h1M290 40h1M294 40h1M298 40h1M180 42h1M184 42h1M188 42h1M192 42h1M196 42h1M200 42h1M204 42h1M276 42h1M280 42h1M284 42h1M288 42h1M292 42h1M296 42h1M300 42h1M174 44h1M178 44h1M182 44h1M186 44h1M190 44h1M194 44h1M198 44h1M202 44h1M206 44h1M210 44h1M270 44h1M274 44h1M278 44h1M282 44h1M286 44h1M290 44h1M294 44h1M298 44h1M302 44h1M306 44h1M172 46h1M176 46h1M180 46h1M184 46h1M188 46h1M192 46h1M196 46h1M200 46h1M204 46h1M208 46h1M212 46h1M268 46h1M272 46h1M276 46h1M280 46h1M284 46h1M288 46h1M292 46h1M296 46h1M300 46h1M304 46h1M308 46h1M174 48h1M178 48h1M182 48h1M186 48h1M190 48h1M194 48h1M198 48h1M202 48h1M206 48h1M210 48h1M270 48h1M274 48h1M278 48h1M282 48h1M286 48h1M290 48h1M294 48h1M298 48h1M302 48h1M306 48h1M123 50h1M125 50h1M127 50h1M129 50h1M131 50h1M133 50h1M135 50h1M140 50h1M142 50h1M144 50h1M146 50h1M148 50h1M150 50h1M152 50h1M172 50h1M176 50h1M180 50h1M184 50h1M188 50h1M192 50h1M196 50h1M200 50h1M204 50h1M208 50h1M212 50h1M268 50h1M272 50h1M276 50h1M280 50h1M284 50h1M288 50h1M292 50h1M296 50h1M300 50h1M304 50h1M308 50h1M77 52h1M79 52h1M81 52h1M140 52h1M152 52h1M170 52h1M174 52h1M178 52h1M182 52h1M186 52h1M190 52h1M194 52h1M198 52h1M202 52h1M206 52h1M210 52h1M214 52h1M266 52h1M270 52h1M274 52h1M278 52h1M282 52h1M286 52h1M290 52h1M294 52h1M298 52h1M302 52h1M306 52h1M310 52h1M74 53h1M76 53h1M78 53h1M80 53h1M82 53h1M84 53h1M73 54h1M75 54h1M77 54h1M79 54h1M81 54h1M83 54h1M85 54h1M140 54h1M152 54h1M168 54h1M172 54h1M176 54h1M180 54h1M184 54h1M188 54h1M192 54h1M196 54h1M200 54h1M204 54h1M208 54h1M212 54h1M216 54h1M264 54h1M268 54h1M272 54h1M276 54h1M280 54h1M284 54h1M288 54h1M292 54h1M296 54h1M300 54h1M304 54h1M308 54h1M312 54h1M70 55h1M72 55h1M74 55h1M76 55h1M78 55h1M80 55h1M82 55h1M84 55h1M86 55h1M88 55h1M69 56h1M71 56h1M73 56h1M75 56h1M77 56h1M81 56h1M83 56h1M85 56h1M87 56h1M89 56h1M140 56h1M152 56h1M170 56h1M174 56h1M178 56h1M182 56h1M186 56h1M190 56h1M194 56h1M198 56h1M202 56h1M206 56h1M210 56h1M214 56h1M266 56h1M270 56h1M274 56h1M278 56h1M282 56h1M286 56h1M290 56h1M294 56h1M298 56h1M302 56h1M306 56h1M310 56h1M70 57h1M72 57h1M74 57h1M76 57h1M82 57h1M84 57h1M86 57h1M88 57h1M69 58h1M71 58h1M73 58h1M85 58h1M87 58h1M89 58h1M129 58h1M131 58h1M140 58h1M145 58h1M147 58h1M152 58h1M168 58h1M172 58h1M176 58h1M180 58h1M184 58h1M188 58h1M192 58h1M196 58h1M200 58h1M204 58h1M208 58h1M212 58h1M216 58h1M226 58h1M228 58h1M230 58h1M232 58h1M234 58h1M236 58h1M238 58h1M264 58h1M268 58h1M272 58h1M276 58h1M280 58h1M284 58h1M288 58h1M292 58h1M296 58h1M300 58h1M304 58h1M308 58h1M312 58h1M323 58h1M325 58h1M334 58h1M68 59h1M70 59h1M88 59h1M90 59h1M106 59h1M108 59h1M110 59h1M128 59h1M132 59h1M144 59h1M148 59h1M322 59h1M326 59h1M67 60h1M69 60h1M89 60h1M91 60h1M104 60h1M112 60h1M140 60h1M152 60h1M166 60h1M170 60h1M174 60h1M178 60h1M182 60h1M186 60h1M190 60h1M194 60h1M198 60h1M202 60h1M206 60h1M210 60h1M214 60h1M218 60h1M238 60h1M262 60h1M266 60h1M270 60h1M274 60h1M278 60h1M282 60h1M286 60h1M290 60h1M294 60h1M298 60h1M302 60h1M306 60h1M310 60h1M314 60h1M334 60h1M68 61h1M70 61h1M103 61h1M113 61h1M128 61h1M132 61h1M144 61h1M148 61h1M322 61h1M326 61h1M67 62h1M69 62h1M129 62h1M131 62h1M140 62h1M145 62h1M147 62h1M152 62h1M180 62h1M184 62h1M188 62h1M192 62h1M196 62h1M200 62h1M204 62h1M208 62h1M212 62h1M216 62h1M227 62h1M229 62h1M238 62h1M276 62h1M280 62h1M284 62h1M288 62h1M292 62h1M296 62h1M300 62h1M304 62h1M308 62h1M312 62h1M323 62h1M325 62h1M334 62h1M66 63h1M68 63h1M70 63h1M80 63h1M82 63h1M84 63h1M86 63h1M88 63h1M90 63h1M92 63h1M102 63h1M114 63h1M226 63h1M230 63h1M67 64h1M69 64h1M79 64h1M81 64h1M83 64h1M85 64h1M87 64h1M89 64h1M91 64h1M93 64h1M182 64h1M186 64h1M190 64h1M194 64h1M198 64h1M202 64h1M206 64h1M210 64h1M214 64h1M218 64h1M238 64h1M278 64h1M282 64h1M286 64h1M290 64h1M294 64h1M298 64h1M302 64h1M306 64h1M310 64h1M314 64h1M334 64h1M66 65h1M68 65h1M70 65h1M78 65h1M80 65h1M82 65h1M84 65h1M86 65h1M88 65h1M90 65h1M92 65h1M94 65h1M102 65h1M114 65h1M226 65h1M230 65h1M67 66h1M69 66h1M79 66h1M81 66h1M83 66h1M85 66h1M87 66h1M89 66h1M91 66h1M93 66h1M124 66h1M126 66h1M135 66h1M140 66h1M142 66h1M144 66h1M146 66h1M148 66h1M150 66h1M152 66h1M180 66h1M184 66h1M188 66h1M192 66h1M196 66h1M200 66h1M204 66h1M208 66h1M212 66h1M216 66h1M227 66h1M229 66h1M238 66h1M276 66h1M280 66h1M284 66h1M288 66h1M292 66h1M296 66h1M300 66h1M304 66h1M308 66h1M312 66h1M334 66h1M66 67h1M68 67h1M70 67h1M80 67h1M82 67h1M84 67h1M86 67h1M88 67h1M90 67h1M92 67h1M102 67h1M114 67h1M123 67h1M127 67h1M67 68h1M69 68h1M135 68h1M152 68h1M166 68h1M170 68h1M174 68h1M178 68h1M182 68h1M186 68h1M190 68h1M194 68h1M198 68h1M202 68h1M206 68h1M210 68h1M214 68h1M218 68h1M238 68h1M262 68h1M266 68h1M270 68h1M274 68h1M278 68h1M282 68h1M286 68h1M290 68h1M294 68h1M298 68h1M302 68h1M306 68h1M310 68h1M314 68h1M334 68h1M68 69h1M70 69h1M103 69h1M113 69h1M123 69h1M127 69h1M67 70h1M69 70h1M89 70h1M91 70h1M104 70h1M112 70h1M124 70h1M126 70h1M135 70h1M152 70h1M168 70h1M172 70h1M176 70h1M180 70h1M184 70h1M188 70h1M192 70h1M196 70h1M200 70h1M204 70h1M208 70h1M212 70h1M216 70h1M226 70h1M228 70h1M230 70h1M232 70h1M234 70h1M236 70h1M238 70h1M264 70h1M268 70h1M272 70h1M276 70h1M280 70h1M284 70h1M288 70h1M292 70h1M296 70h1M300 70h1M304 70h1M308 70h1M312 70h1M322 70h1M324 70h1M326 70h1M328 70h1M330 70h1M332 70h1M334 70h1M68 71h1M70 71h1M72 71h1M86 71h1M88 71h1M90 71h1M106 71h1M108 71h1M110 71h1M69 72h1M71 72h1M73 72h1M85 72h1M87 72h1M89 72h1M135 72h1M140 72h1M142 72h1M144 72h1M146 72h1M148 72h1M150 72h1M152 72h1M170 72h1M174 72h1M178 72h1M182 72h1M186 72h1M190 72h1M194 72h1M198 72h1M202 72h1M206 72h1M210 72h1M214 72h1M266 72h1M270 72h1M274 72h1M278 72h1M282 72h1M286 72h1M290 72h1M294 72h1M298 72h1M302 72h1M306 72h1M310 72h1M70 73h1M72 73h1M74 73h1M76 73h1M82 73h1M84 73h1M86 73h1M88 73h1M69 74h1M71 74h1M73 74h1M75 74h1M77 74h1M81 74h1M83 74h1M85 74h1M87 74h1M89 74h1M135 74h1M140 74h1M168 74h1M172 74h1M176 74h1M180 74h1M184 74h1M188 74h1M192 74h1M196 74h1M200 74h1M204 74h1M208 74h1M212 74h1M216 74h1M264 74h1M268 74h1M272 74h1M276 74h1M280 74h1M284 74h1M288 74h1M292 74h1M296 74h1M300 74h1M304 74h1M308 74h1M312 74h1M70 75h1M72 75h1M74 75h1M76 75h1M78 75h1M80 75h1M82 75h1M84 75h1M86 75h1M88 75h1M73 76h1M75 76h1M77 76h1M79 76h1M81 76h1M83 76h1M85 76h1M135 76h1M140 76h1M170 76h1M174 76h1M178 76h1M182 76h1M186 76h1M190 76h1M194 76h1M198 76h1M202 76h1M206 76h1M210 76h1M214 76h1M266 76h1M270 76h1M274 76h1M278 76h1M282 76h1M286 76h1M290 76h1M294 76h1M298 76h1M302 76h1M306 76h1M310 76h1M74 77h1M76 77h1M78 77h1M80 77h1M82 77h1M84 77h1M77 78h1M79 78h1M81 78h1M123 78h1M125 78h1M127 78h1M129 78h1M131 78h1M133 78h1M135 78h1M140 78h1M172 78h1M176 78h1M180 78h1M184 78h1M188 78h1M192 78h1M196 78h1M200 78h1M204 78h1M208 78h1M212 78h1M268 78h1M272 78h1M276 78h1M280 78h1M284 78h1M288 78h1M292 78h1M296 78h1M300 78h1M304 78h1M308 78h1M174 80h1M178 80h1M182 80h1M186 80h1M190 80h1M194 80h1M198 80h1M202 80h1M206 80h1M210 80h1M270 80h1M274 80h1M278 80h1M282 80h1M286 80h1M290 80h1M294 80h1M298 80h1M302 80h1M306 80h1M172 82h1M176 82h1M180 82h1M184 82h1M188 82h1M192 82h1M196 82h1M200 82h1M204 82h1M208 82h1M212 82h1M268 82h1M272 82h1M276 82h1M280 82h1M284 82h1M288 82h1M292 82h1M296 82h1M300 82h1M304 82h1M308 82h1M172 84h1M174 84h1M178 84h1M182 84h1M186 84h1M190 84h1M194 84h1M198 84h1M202 84h1M206 84h1M210 84h1M268 84h1M270 84h1M274 84h1M278 84h1M282 84h1M286 84h1M290 84h1M294 84h1M298 84h1M302 84h1M306 84h1M180 86h1M184 86h1M188 86h1M192 86h1M196 86h1M200 86h1M204 86h1M276 86h1M280 86h1M284 86h1M288 86h1M292 86h1M296 86h1M300 86h1M169 87h1M265 87h1M182 88h1M186 88h1M190 88h1M194 88h1M198 88h1M202 88h1M278 88h1M282 88h1M286 88h1M290 88h1M294 88h1M298 88h1M166 90h1M188 90h1M192 90h1M196 90h1M262 90h1M284 90h1M288 90h1M292 90h1M163 93h1M259 93h1M4 96h1M7 96h1M10 96h1M13 96h1M16 96h1M19 96h1M22 96h1M25 96h1M28 96h1M31 96h1M34 96h1M37 96h1M40 96h1M43 96h1M46 96h1M49 96h1M52 96h1M55 96h1M58 96h1M61 96h1M64 96h1M67 96h1M70 96h1M73 96h1M76 96h1M79 96h1M82 96h1M85 96h1M88 96h1M91 96h1M94 96h1M97 96h1M100 96h1M103 96h1M106 96h1M109 96h1M112 96h1M115 96h1M118 96h1M121 96h1M124 96h1M127 96h1M130 96h1M133 96h1M136 96h1M139 96h1M142 96h1M145 96h1M148 96h1M151 96h1M154 96h1M157 96h1M160 96h1M163 96h1M166 96h1M169 96h1M172 96h1M175 96h1M178 96h1M181 96h1M184 96h1M187 96h1M190 96h1M193 96h1M196 96h1M199 96h1M202 96h1M205 96h1M208 96h1M211 96h1M214 96h1M217 96h1M220 96h1M223 96h1M226 96h1M229 96h1M232 96h1M235 96h1M238 96h1M241 96h1M244 96h1M247 96h1M250 96h1M253 96h1M256 96h1M130 98h1M226 98h1M133 101h1M229 101h1M136 104h1M232 104h1M139 107h1M235 107h1M142 110h1M238 110h1M145 113h1M241 113h1M148 116h1M244 116h1M151 119h1M247 119h1M154 122h1M250 122h1M157 125h1M253 125h1M160 128h1M256 128h1M163 131h1M259 131h1M166 134h1M188 134h1M192 134h1M196 134h1M262 134h1M284 134h1M288 134h1M292 134h1M182 136h1M186 136h1M190 136h1M194 136h1M198 136h1M202 136h1M278 136h1M282 136h1M286 136h1M290 136h1M294 136h1M298 136h1M169 137h1M265 137h1M180 138h1M184 138h1M188 138h1M192 138h1M196 138h1M200 138h1M204 138h1M276 138h1M280 138h1M284 138h1M288 138h1M292 138h1M296 138h1M300 138h1M172 140h1M174 140h1M178 140h1M182 140h1M186 140h1M190 140h1M194 140h1M198 140h1M202 140h1M206 140h1M210 140h1M268 140h1M270 140h1M274 140h1M278 140h1M282 140h1M286 140h1M290 140h1M294 140h1M298 140h1M302 140h1M306 140h1M172 142h1M176 142h1M180 142h1M184 142h1M188 142h1M192 142h1M196 142h1M200 142h1M204 142h1M208 142h1M212 142h1M268 142h1M272 142h1M276 142h1M280 142h1M284 142h1M288 142h1M292 142h1M296 142h1M300 142h1M304 142h1M308 142h1M174 144h1M178 144h1M182 144h1M186 144h1M190 144h1M194 144h1M198 144h1M202 144h1M206 144h1M210 144h1M270 144h1M274 144h1M278 144h1M282 144h1M286 144h1M290 144h1M294 144h1M298 144h1M302 144h1M306 144h1M172 146h1M176 146h1M180 146h1M184 146h1M188 146h1M192 146h1M196 146h1M200 146h1M204 146h1M208 146h1M212 146h1M268 146h1M272 146h1M276 146h1M280 146h1M284 146h1M288 146h1M292 146h1M296 146h1M300 146h1M304 146h1M308 146h1M77 147h1M79 147h1M81 147h1M74 148h1M76 148h1M78 148h1M80 148h1M82 148h1M84 148h1M170 148h1M174 148h1M178 148h1M182 148h1M186 148h1M190 148h1M194 148h1M198 148h1M202 148h1M206 148h1M210 148h1M214 148h1M266 148h1M270 148h1M274 148h1M278 148h1M282 148h1M286 148h1M290 148h1M294 148h1M298 148h1M302 148h1M306 148h1M310 148h1M73 149h1M75 149h1M77 149h1M79 149h1M81 149h1M83 149h1M85 149h1M70 150h1M72 150h1M74 150h1M76 150h1M78 150h1M80 150h1M82 150h1M84 150h1M86 150h1M88 150h1M168 150h1M172 150h1M176 150h1M180 150h1M184 150h1M188 150h1M192 150h1M196 150h1M200 150h1M204 150h1M208 150h1M212 150h1M216 150h1M264 150h1M268 150h1M272 150h1M276 150h1M280 150h1M284 150h1M288 150h1M292 150h1M296 150h1M300 150h1M304 150h1M308 150h1M312 150h1M69 151h1M71 151h1M73 151h1M75 151h1M77 151h1M81 151h1M83 151h1M85 151h1M87 151h1M89 151h1M70 152h1M72 152h1M74 152h1M76 152h1M82 152h1M84 152h1M86 152h1M88 152h1M170 152h1M174 152h1M178 152h1M182 152h1M186 152h1M190 152h1M194 152h1M198 152h1M202 152h1M206 152h1M210 152h1M214 152h1M266 152h1M270 152h1M274 152h1M278 152h1M282 152h1M286 152h1M290 152h1M294 152h1M298 152h1M302 152h1M306 152h1M310 152h1M69 153h1M71 153h1M73 153h1M85 153h1M87 153h1M89 153h1M68 154h1M70 154h1M88 154h1M90 154h1M168 154h1M172 154h1M176 154h1M180 154h1M184 154h1M188 154h1M192 154h1M196 154h1M200 154h1M204 154h1M208 154h1M212 154h1M216 154h1M264 154h1M268 154h1M272 154h1M276 154h1M280 154h1M284 154h1M288 154h1M292 154h1M296 154h1M300 154h1M304 154h1M308 154h1M312 154h1M67 155h1M69 155h1M89 155h1M91 155h1M68 156h1M70 156h1M166 156h1M170 156h1M174 156h1M178 156h1M182 156h1M186 156h1M190 156h1M194 156h1M198 156h1M202 156h1M206 156h1M210 156h1M214 156h1M218 156h1M262 156h1M266 156h1M270 156h1M274 156h1M278 156h1M282 156h1M286 156h1M290 156h1M294 156h1M298 156h1M302 156h1M306 156h1M310 156h1M314 156h1M67 157h1M69 157h1M66 158h1M68 158h1M70 158h1M80 158h1M82 158h1M84 158h1M86 158h1M88 158h1M90 158h1M92 158h1M180 158h1M184 158h1M188 158h1M192 158h1M196 158h1M200 158h1M204 158h1M208 158h1M212 158h1M216 158h1M276 158h1M280 158h1M284 158h1M288 158h1M292 158h1M296 158h1M300 158h1M304 158h1M308 158h1M312 158h1M67 159h1M69 159h1M79 159h1M81 159h1M83 159h1M85 159h1M87 159h1M89 159h1M91 159h1M93 159h1M4 160h1M7 160h1M10 160h1M13 160h1M16 160h1M19 160h1M22 160h1M25 160h1M28 160h1M31 160h1M34 160h1M37 160h1M40 160h1M43 160h1M46 160h1M49 160h1M52 160h1M55 160h1M58 160h1M61 160h1M64 160h1M66 160h1M68 160h1M70 160h1M78 160h1M80 160h1M82 160h1M84 160h1M86 160h1M88 160h1M90 160h1M92 160h1M94 160h1M182 160h1M186 160h1M190 160h1M194 160h1M198 160h1M202 160h1M206 160h1M210 160h1M214 160h1M218 160h1M278 160h1M282 160h1M286 160h1M290 160h1M294 160h1M298 160h1M302 160h1M306 160h1M310 160h1M314 160h1M67 161h1M69 161h1M79 161h1M81 161h1M83 161h1M85 161h1M87 161h1M89 161h1M91 161h1M93 161h1M66 162h1M68 162h1M70 162h1M80 162h1M82 162h1M84 162h1M86 162h1M88 162h1M90 162h1M92 162h1M180 162h1M184 162h1M188 162h1M192 162h1M196 162h1M200 162h1M204 162h1M208 162h1M212 162h1M216 162h1M276 162h1M280 162h1M284 162h1M288 162h1M292 162h1M296 162h1M300 162h1M304 162h1M308 162h1M312 162h1M67 163h1M69 163h1M68 164h1M70 164h1M166 164h1M170 164h1M174 164h1M178 164h1M182 164h1M186 164h1M190 164h1M194 164h1M198 164h1M202 164h1M206 164h1M210 164h1M214 164h1M218 164h1M262 164h1M266 164h1M270 164h1M274 164h1M278 164h1M282 164h1M286 164h1M290 164h1M294 164h1M298 164h1M302 164h1M306 164h1M310 164h1M314 164h1M67 165h1M69 165h1M89 165h1M91 165h1M68 166h1M70 166h1M72 166h1M86 166h1M88 166h1M90 166h1M168 166h1M172 166h1M176 166h1M180 166h1M184 166h1M188 166h1M192 166h1M196 166h1M200 166h1M204 166h1M208 166h1M212 166h1M216 166h1M264 166h1M268 166h1M272 166h1M276 166h1M280 166h1M284 166h1M288 166h1M292 166h1M296 166h1M300 166h1M304 166h1M308 166h1M312 166h1M69 167h1M71 167h1M73 167h1M85 167h1M87 167h1M89 167h1M70 168h1M72 168h1M74 168h1M76 168h1M82 168h1M84 168h1M86 168h1M88 168h1M170 168h1M174 168h1M178 168h1M182 168h1M186 168h1M190 168h1M194 168h1M198 168h1M202 168h1M206 168h1M210 168h1M214 168h1M266 168h1M270 168h1M274 168h1M278 168h1M282 168h1M286 168h1M290 168h1M294 168h1M298 168h1M302 168h1M306 168h1M310 168h1M69 169h1M71 169h1M73 169h1M75 169h1M77 169h1M81 169h1M83 169h1M85 169h1M87 169h1M89 169h1M70 170h1M72 170h1M74 170h1M76 170h1M78 170h1M80 170h1M82 170h1M84 170h1M86 170h1M88 170h1M133 170h1M135 170h1M137 170h1M139 170h1M168 170h1M172 170h1M176 170h1M180 170h1M184 170h1M188 170h1M192 170h1M196 170h1M200 170h1M204 170h1M208 170h1M212 170h1M216 170h1M264 170h1M268 170h1M272 170h1M276 170h1M280 170h1M284 170h1M288 170h1M292 170h1M296 170h1M300 170h1M304 170h1M308 170h1M312 170h1M73 171h1M75 171h1M77 171h1M79 171h1M81 171h1M83 171h1M85 171h1M130 171h1M132 171h1M134 171h1M136 171h1M138 171h1M140 171h1M74 172h1M76 172h1M78 172h1M80 172h1M82 172h1M84 172h1M127 172h1M129 172h1M131 172h1M133 172h1M135 172h1M137 172h1M139 172h1M141 172h1M170 172h1M174 172h1M178 172h1M182 172h1M186 172h1M190 172h1M194 172h1M198 172h1M202 172h1M206 172h1M210 172h1M214 172h1M266 172h1M270 172h1M274 172h1M278 172h1M282 172h1M286 172h1M290 172h1M294 172h1M298 172h1M302 172h1M306 172h1M310 172h1M77 173h1M79 173h1M81 173h1M126 173h1M128 173h1M130 173h1M132 173h1M134 173h1M136 173h1M138 173h1M140 173h1M142 173h1M127 174h1M129 174h1M131 174h1M133 174h1M135 174h1M137 174h1M139 174h1M141 174h1M143 174h1M172 174h1M176 174h1M180 174h1M184 174h1M188 174h1M192 174h1M196 174h1M200 174h1M204 174h1M208 174h1M212 174h1M268 174h1M272 174h1M276 174h1M280 174h1M284 174h1M288 174h1M292 174h1M296 174h1M300 174h1M304 174h1M308 174h1M79 175h1M124 175h1M128 175h1M130 175h1M132 175h1M134 175h1M136 175h1M138 175h1M140 175h1M142 175h1M144 175h1M123 176h1M129 176h1M131 176h1M133 176h1M135 176h1M137 176h1M139 176h1M141 176h1M143 176h1M145 176h1M174 176h1M178 176h1M182 176h1M186 176h1M190 176h1M194 176h1M198 176h1M202 176h1M206 176h1M210 176h1M270 176h1M274 176h1M278 176h1M282 176h1M286 176h1M290 176h1M294 176h1M298 176h1M302 176h1M306 176h1M122 177h1M130 177h1M132 177h1M134 177h1M136 177h1M138 177h1M140 177h1M142 177h1M144 177h1M146 177h1M79 178h1M121 178h1M131 178h1M133 178h1M135 178h1M137 178h1M139 178h1M141 178h1M143 178h1M145 178h1M172 178h1M176 178h1M180 178h1M184 178h1M188 178h1M192 178h1M196 178h1M200 178h1M204 178h1M208 178h1M212 178h1M268 178h1M272 178h1M276 178h1M280 178h1M284 178h1M288 178h1M292 178h1M296 178h1M300 178h1M304 178h1M308 178h1M120 179h1M132 179h1M134 179h1M136 179h1M138 179h1M140 179h1M142 179h1M144 179h1M146 179h1M119 180h1M121 180h1M133 180h1M135 180h1M137 180h1M139 180h1M141 180h1M143 180h1M145 180h1M147 180h1M174 180h1M178 180h1M182 180h1M186 180h1M190 180h1M194 180h1M198 180h1M202 180h1M206 180h1M210 180h1M268 180h1M270 180h1M274 180h1M278 180h1M282 180h1M286 180h1M290 180h1M294 180h1M298 180h1M302 180h1M306 180h1M79 181h1M118 181h1M120 181h1M134 181h1M136 181h1M138 181h1M140 181h1M142 181h1M144 181h1M146 181h1M117 182h1M119 182h1M121 182h1M135 182h1M137 182h1M139 182h1M141 182h1M143 182h1M145 182h1M147 182h1M180 182h1M184 182h1M188 182h1M192 182h1M196 182h1M200 182h1M204 182h1M276 182h1M280 182h1M284 182h1M288 182h1M292 182h1M296 182h1M300 182h1M118 183h1M120 183h1M136 183h1M138 183h1M140 183h1M142 183h1M144 183h1M146 183h1M265 183h1M79 184h1M119 184h1M121 184h1M137 184h1M139 184h1M141 184h1M143 184h1M145 184h1M147 184h1M182 184h1M186 184h1M190 184h1M194 184h1M198 184h1M202 184h1M278 184h1M282 184h1M286 184h1M290 184h1M294 184h1M298 184h1M118 185h1M120 185h1M138 185h1M140 185h1M142 185h1M144 185h1M146 185h1M119 186h1M121 186h1M139 186h1M141 186h1M143 186h1M145 186h1M147 186h1M188 186h1M192 186h1M196 186h1M262 186h1M284 186h1M288 186h1M292 186h1M79 187h1M120 187h1M122 187h1M140 187h1M142 187h1M144 187h1M146 187h1M119 188h1M121 188h1M141 188h1M143 188h1M145 188h1M192 188h1M120 189h1M122 189h1M142 189h1M144 189h1M146 189h1M259 189h1M79 190h1M121 190h1M123 190h1M143 190h1M145 190h1M120 191h1M122 191h1M124 191h1M144 191h1M192 191h1M107 192h1M121 192h1M123 192h1M125 192h1M256 192h1M79 193h1M106 193h1M108 193h1M122 193h1M124 193h1M126 193h1M142 193h1M105 194h1M107 194h1M109 194h1M121 194h1M123 194h1M125 194h1M127 194h1M129 194h1M141 194h1M192 194h1M104 195h1M106 195h1M108 195h1M110 195h1M122 195h1M124 195h1M126 195h1M128 195h1M130 195h1M132 195h1M138 195h1M140 195h1M253 195h1M79 196h1M103 196h1M105 196h1M107 196h1M109 196h1M111 196h1M123 196h1M125 196h1M127 196h1M129 196h1M131 196h1M133 196h1M135 196h1M137 196h1M139 196h1M102 197h1M104 197h1M106 197h1M108 197h1M110 197h1M112 197h1M122 197h1M124 197h1M126 197h1M128 197h1M130 197h1M132 197h1M134 197h1M136 197h1M138 197h1M192 197h1M101 198h1M103 198h1M105 198h1M107 198h1M109 198h1M111 198h1M113 198h1M123 198h1M125 198h1M127 198h1M129 198h1M131 198h1M133 198h1M135 198h1M137 198h1M250 198h1M79 199h1M100 199h1M102 199h1M104 199h1M106 199h1M108 199h1M110 199h1M112 199h1M114 199h1M124 199h1M126 199h1M128 199h1M130 199h1M132 199h1M134 199h1M136 199h1M99 200h1M101 200h1M103 200h1M105 200h1M107 200h1M109 200h1M111 200h1M113 200h1M115 200h1M123 200h1M125 200h1M127 200h1M129 200h1M131 200h1M133 200h1M135 200h1M192 200h1M102 201h1M104 201h1M106 201h1M108 201h1M110 201h1M112 201h1M114 201h1M116 201h1M124 201h1M126 201h1M128 201h1M130 201h1M132 201h1M134 201h1M247 201h1M79 202h1M105 202h1M107 202h1M109 202h1M111 202h1M113 202h1M115 202h1M117 202h1M125 202h1M127 202h1M129 202h1M131 202h1M133 202h1M108 203h1M110 203h1M112 203h1M114 203h1M116 203h1M118 203h1M124 203h1M126 203h1M128 203h1M130 203h1M132 203h1M192 203h1M111 204h1M113 204h1M115 204h1M117 204h1M119 204h1M125 204h1M127 204h1M129 204h1M131 204h1M244 204h1M79 205h1M114 205h1M116 205h1M118 205h1M120 205h1M126 205h1M128 205h1M130 205h1M115 206h1M117 206h1M119 206h1M121 206h1M125 206h1M127 206h1M129 206h1M192 206h1M118 207h1M120 207h1M122 207h1M126 207h1M128 207h1M241 207h1M79 208h1M121 208h1M123 208h1M127 208h1M124 209h1M192 209h1M238 210h1M79 211h1M192 212h1M235 213h1M79 214h1M192 215h1M232 216h1M79 217h1M192 218h1M229 219h1M79 220h1M192 221h1M226 222h1M79 223h1M4 224h1M7 224h1M10 224h1M13 224h1M16 224h1M19 224h1M22 224h1M25 224h1M28 224h1M31 224h1M34 224h1M37 224h1M40 224h1M43 224h1M46 224h1M143 224h1M146 224h1M149 224h1M152 224h1M155 224h1M158 224h1M161 224h1M164 224h1M167 224h1M170 224h1M173 224h1M176 224h1M179 224h1M182 224h1M185 224h1M188 224h1M192 224h1M196 224h1M199 224h1M202 224h1M205 224h1M208 224h1M211 224h1M214 224h1M217 224h1M220 224h1M223 224h1M49 225h1M77 226h1M140 227h1M192 227h1M52 228h1M74 229h1M137 230h1M192 230h1M284 230h1M288 230h1M292 230h1M55 231h1M71 232h1M278 232h1M282 232h1M286 232h1M290 232h1M294 232h1M298 232h1M134 233h1M192 233h1M58 234h1M276 234h1M280 234h1M284 234h1M288 234h1M292 234h1M296 234h1M300 234h1M68 235h1M131 236h1M192 236h1M270 236h1M274 236h1M278 236h1M282 236h1M286 236h1M290 236h1M294 236h1M298 236h1M302 236h1M306 236h1M61 237h1M65 238h1M268 238h1M272 238h1M276 238h1M280 238h1M284 238h1M288 238h1M292 238h1M296 238h1M300 238h1M304 238h1M308 238h1M128 239h1M192 239h1M270 240h1M274 240h1M278 240h1M282 240h1M286 240h1M290 240h1M294 240h1M298 240h1M302 240h1M306 240h1M62 241h1M125 242h1M192 242h1M268 242h1M272 242h1M276 242h1M280 242h1M284 242h1M288 242h1M292 242h1M296 242h1M300 242h1M304 242h1M308 242h1M67 243h1M190 243h1M192 243h1M194 243h1M59 244h1M187 244h1M189 244h1M191 244h1M193 244h1M195 244h1M197 244h1M266 244h1M270 244h1M274 244h1M278 244h1M282 244h1M286 244h1M290 244h1M294 244h1M298 244h1M302 244h1M306 244h1M310 244h1M122 245h1M186 245h1M188 245h1M190 245h1M192 245h1M194 245h1M196 245h1M198 245h1M70 246h1M183 246h1M185 246h1M187 246h1M189 246h1M191 246h1M193 246h1M195 246h1M197 246h1M199 246h1M201 246h1M264 246h1M268 246h1M272 246h1M276 246h1M280 246h1M284 246h1M288 246h1M292 246h1M296 246h1M300 246h1M304 246h1M308 246h1M312 246h1M56 247h1M80 247h1M182 247h1M184 247h1M186 247h1M188 247h1M190 247h1M194 247h1M196 247h1M198 247h1M200 247h1M202 247h1M46 248h1M48 248h1M50 248h1M80 248h1M119 248h1M183 248h1M185 248h1M187 248h1M189 248h1M195 248h1M197 248h1M199 248h1M201 248h1M266 248h1M270 248h1M274 248h1M278 248h1M282 248h1M286 248h1M290 248h1M294 248h1M298 248h1M302 248h1M306 248h1M310 248h1M44 249h1M52 249h1M73 249h1M87 249h1M182 249h1M184 249h1M186 249h1M198 249h1M200 249h1M202 249h1M42 250h1M54 250h1M86 250h1M181 250h1M183 250h1M201 250h1M203 250h1M264 250h1M268 250h1M272 250h1M276 250h1M280 250h1M284 250h1M288 250h1M292 250h1M296 250h1M300 250h1M304 250h1M308 250h1M312 250h1M322 250h1M325 250h1M327 250h1M329 250h1M331 250h1M334 250h1M116 251h1M180 251h1M182 251h1M202 251h1M204 251h1M41 252h1M46 252h1M50 252h1M55 252h1M78 252h1M82 252h1M110 252h1M114 252h1M181 252h1M183 252h1M262 252h1M266 252h1M270 252h1M274 252h1M278 252h1M282 252h1M286 252h1M290 252h1M294 252h1M298 252h1M302 252h1M306 252h1M310 252h1M314 252h1M322 252h1M325 252h1M331 252h1M334 252h1M180 253h1M182 253h1M40 254h1M44 254h1M48 254h1M52 254h1M56 254h1M76 254h1M80 254h1M84 254h1M108 254h1M112 254h1M116 254h1M179 254h1M181 254h1M183 254h1M193 254h1M195 254h1M197 254h1M199 254h1M201 254h1M203 254h1M205 254h1M276 254h1M280 254h1M284 254h1M288 254h1M292 254h1M296 254h1M300 254h1M304 254h1M308 254h1M312 254h1M322 254h1M325 254h1M331 254h1M334 254h1M180 255h1M182 255h1M192 255h1M194 255h1M196 255h1M198 255h1M200 255h1M202 255h1M204 255h1M206 255h1M40 256h1M46 256h1M50 256h1M56 256h1M71 256h2M78 256h1M82 256h1M88 256h2M110 256h1M114 256h1M179 256h1M181 256h1M183 256h1M191 256h1M193 256h1M195 256h1M197 256h1M199 256h1M201 256h1M203 256h1M205 256h1M207 256h1M278 256h1M282 256h1M286 256h1M290 256h1M294 256h1M298 256h1M302 256h1M306 256h1M310 256h1M314 256h1M322 256h1M325 256h1M331 256h1M334 256h1M180 257h1M182 257h1M192 257h1M194 257h1M196 257h1M198 257h1M200 257h1M202 257h1M204 257h1M206 257h1M40 258h1M44 258h1M48 258h1M52 258h1M56 258h1M76 258h1M80 258h1M84 258h1M108 258h1M112 258h1M116 258h1M179 258h1M181 258h1M183 258h1M193 258h1M195 258h1M197 258h1M199 258h1M201 258h1M203 258h1M205 258h1M276 258h1M280 258h1M284 258h1M288 258h1M292 258h1M296 258h1M300 258h1M304 258h1M308 258h1M312 258h1M322 258h1M325 258h1M331 258h1M334 258h1M180 259h1M182 259h1M41 260h1M46 260h1M50 260h1M55 260h1M78 260h1M82 260h1M110 260h1M114 260h1M181 260h1M183 260h1M262 260h1M266 260h1M270 260h1M274 260h1M278 260h1M282 260h1M286 260h1M290 260h1M294 260h1M298 260h1M302 260h1M306 260h1M310 260h1M314 260h1M322 260h1M325 260h1M331 260h1M334 260h1M180 261h1M182 261h1M202 261h1M204 261h1M42 262h1M54 262h1M74 262h1M86 262h1M181 262h1M183 262h1M185 262h1M199 262h1M201 262h1M203 262h1M264 262h1M268 262h1M272 262h1M276 262h1M280 262h1M284 262h1M288 262h1M292 262h1M296 262h1M300 262h1M304 262h1M308 262h1M312 262h1M322 262h1M325 262h1M331 262h1M334 262h1M44 263h1M52 263h1M73 263h1M87 263h1M182 263h1M184 263h1M186 263h1M198 263h1M200 263h1M202 263h1M46 264h1M48 264h1M50 264h1M80 264h1M183 264h1M185 264h1M187 264h1M189 264h1M195 264h1M197 264h1M199 264h1M201 264h1M266 264h1M270 264h1M274 264h1M278 264h1M282 264h1M286 264h1M290 264h1M294 264h1M298 264h1M302 264h1M306 264h1M310 264h1M80 265h1M182 265h1M184 265h1M186 265h1M188 265h1M190 265h1M194 265h1M196 265h1M198 265h1M200 265h1M202 265h1M48 266h1M183 266h1M185 266h1M187 266h1M189 266h1M191 266h1M193 266h1M195 266h1M197 266h1M199 266h1M201 266h1M264 266h1M268 266h1M272 266h1M276 266h1M280 266h1M284 266h1M288 266h1M292 266h1M296 266h1M300 266h1M304 266h1M308 266h1M312 266h1M186 267h1M188 267h1M190 267h1M192 267h1M194 267h1M196 267h1M198 267h1M187 268h1M189 268h1M191 268h1M193 268h1M195 268h1M197 268h1M266 268h1M270 268h1M274 268h1M278 268h1M282 268h1M286 268h1M290 268h1M294 268h1M298 268h1M302 268h1M306 268h1M310 268h1M48 269h1M190 269h1M192 269h1M194 269h1M268 270h1M272 270h1M276 270h1M280 270h1M284 270h1M288 270h1M292 270h1M296 270h1M300 270h1M304 270h1M308 270h1M48 272h1M270 272h1M274 272h1M278 272h1M282 272h1M286 272h1M290 272h1M294 272h1M298 272h1M302 272h1M306 272h1M268 274h1M272 274h1M276 274h1M280 274h1M284 274h1M288 274h1M292 274h1M296 274h1M300 274h1M304 274h1M308 274h1M48 275h1M268 276h1M270 276h1M274 276h1M278 276h1M282 276h1M286 276h1M290 276h1M294 276h1M298 276h1M302 276h1M306 276h1M48 278h1M276 278h1M280 278h1M284 278h1M288 278h1M292 278h1M296 278h1M300 278h1M265 279h1M46 280h1M48 280h1M50 280h1M78 280h1M80 280h1M82 280h1M278 280h1M282 280h1M286 280h1M290 280h1M294 280h1M298 280h1M44 281h1M52 281h1M76 281h1M84 281h1M42 282h1M54 282h1M74 282h1M86 282h1M262 282h1M284 282h1M288 282h1M292 282h1M41 284h1M46 284h1M50 284h1M55 284h1M73 284h1M78 284h1M82 284h1M87 284h1M110 284h1M114 284h1M259 285h1M40 286h1M44 286h1M48 286h1M52 286h1M56 286h1M72 286h1M76 286h1M80 286h1M84 286h1M88 286h1M108 286h1M112 286h1M116 286h1M40 288h1M46 288h1M50 288h1M56 288h1M72 288h1M78 288h1M82 288h1M88 288h1M91 288h1M94 288h1M97 288h1M100 288h1M103 288h1M106 288h1M110 288h1M114 288h1M118 288h1M121 288h1M124 288h1M127 288h1M130 288h1M133 288h1M136 288h1M139 288h1M142 288h1M145 288h1M148 288h1M151 288h1M154 288h1M157 288h1M160 288h1M163 288h1M166 288h1M169 288h1M172 288h1M175 288h1M178 288h1M181 288h1M184 288h1M187 288h1M190 288h1M193 288h1M196 288h1M199 288h1M202 288h1M205 288h1M208 288h1M211 288h1M214 288h1M217 288h1M220 288h1M223 288h1M226 288h1M229 288h1M232 288h1M235 288h1M238 288h1M241 288h1M244 288h1M247 288h1M250 288h1M253 288h1M256 288h1M40 290h1M44 290h1M48 290h1M52 290h1M56 290h1M72 290h1M76 290h1M80 290h1M84 290h1M88 290h1M108 290h1M112 290h1M116 290h1M41 292h1M46 292h1M50 292h1M55 292h1M73 292h1M78 292h1M82 292h1M87 292h1M110 292h1M114 292h1M42 294h1M54 294h1M74 294h1M86 294h1M44 295h1M52 295h1M76 295h1M84 295h1M46 296h1M48 296h1M50 296h1M78 296h1M80 296h1M82 296h1M48 298h1M48 301h1M48 304h1M48 307h1M48 310h1M46 312h1M48 312h1M50 312h1M78 312h1M80 312h1M82 312h1M44 313h1M52 313h1M76 313h1M84 313h1M42 314h1M54 314h1M74 314h1M86 314h1M41 316h1M46 316h1M50 316h1M55 316h1M73 316h1M78 316h1M82 316h1M87 316h1M110 316h1M114 316h1M40 318h1M44 318h1M48 318h1M52 318h1M56 318h1M72 318h1M76 318h1M80 318h1M84 318h1M88 318h1M108 318h1M112 318h1M116 318h1M40 320h1M46 320h1M50 320h1M56 320h1M72 320h1M78 320h1M82 320h1M88 320h1M91 320h1M94 320h1M97 320h1M100 320h1M103 320h1M106 320h1M110 320h1M114 320h1M118 320h1M121 320h1M124 320h1M127 320h1M130 320h1M133 320h1M136 320h1M139 320h1M142 320h1M145 320h1M148 320h1M151 320h1M154 320h1M157 320h1M160 320h1M40 322h1M44 322h1M48 322h1M52 322h1M56 322h1M72 322h1M76 322h1M80 322h1M84 322h1M88 322h1M108 322h1M112 322h1M116 322h1M163 323h1M41 324h1M46 324h1M50 324h1M55 324h1M73 324h1M78 324h1M82 324h1M87 324h1M110 324h1M114 324h1M42 326h1M54 326h1M74 326h1M86 326h1M166 326h1M188 326h1M192 326h1M196 326h1M284 326h1M288 326h1M292 326h1M44 327h1M52 327h1M76 327h1M84 327h1M46 328h1M48 328h1M50 328h1M78 328h1M80 328h1M82 328h1M182 328h1M186 328h1M190 328h1M194 328h1M198 328h1M202 328h1M278 328h1M282 328h1M286 328h1M290 328h1M294 328h1M298 328h1M169 329h1M48 330h1M180 330h1M184 330h1M188 330h1M192 330h1M196 330h1M200 330h1M204 330h1M276 330h1M280 330h1M284 330h1M288 330h1M292 330h1M296 330h1M300 330h1M172 332h1M174 332h1M178 332h1M182 332h1M186 332h1M190 332h1M194 332h1M198 332h1M202 332h1M206 332h1M210 332h1M270 332h1M274 332h1M278 332h1M282 332h1M286 332h1M290 332h1M294 332h1M298 332h1M302 332h1M306 332h1M48 333h1M172 334h1M176 334h1M180 334h1M184 334h1M188 334h1M192 334h1M196 334h1M200 334h1M204 334h1M208 334h1M212 334h1M268 334h1M272 334h1M276 334h1M280 334h1M284 334h1M288 334h1M292 334h1M296 334h1M300 334h1M304 334h1M308 334h1M48 336h1M174 336h1M178 336h1M182 336h1M186 336h1M190 336h1M194 336h1M198 336h1M202 336h1M206 336h1M210 336h1M270 336h1M274 336h1M278 336h1M282 336h1M286 336h1M290 336h1M294 336h1M298 336h1M302 336h1M306 336h1M172 338h1M176 338h1M180 338h1M184 338h1M188 338h1M192 338h1M196 338h1M200 338h1M204 338h1M208 338h1M212 338h1M268 338h1M272 338h1M276 338h1M280 338h1M284 338h1M288 338h1M292 338h1M296 338h1M300 338h1M304 338h1M308 338h1M48 339h1M170 340h1M174 340h1M178 340h1M182 340h1M186 340h1M190 340h1M194 340h1M198 340h1M202 340h1M206 340h1M210 340h1M214 340h1M266 340h1M270 340h1M274 340h1M278 340h1M282 340h1M286 340h1M290 340h1M294 340h1M298 340h1M302 340h1M306 340h1M310 340h1M48 342h1M168 342h1M172 342h1M176 342h1M180 342h1M184 342h1M188 342h1M192 342h1M196 342h1M200 342h1M204 342h1M208 342h1M212 342h1M216 342h1M264 342h1M268 342h1M272 342h1M276 342h1M280 342h1M284 342h1M288 342h1M292 342h1M296 342h1M300 342h1M304 342h1M308 342h1M312 342h1M46 344h1M48 344h1M50 344h1M110 344h1M112 344h1M114 344h1M170 344h1M174 344h1M178 344h1M182 344h1M186 344h1M190 344h1M194 344h1M198 344h1M202 344h1M206 344h1M210 344h1M214 344h1M266 344h1M270 344h1M274 344h1M278 344h1M282 344h1M286 344h1M290 344h1M294 344h1M298 344h1M302 344h1M306 344h1M310 344h1M44 345h1M52 345h1M108 345h1M116 345h1M42 346h1M54 346h1M93 346h1M98 346h1M106 346h1M118 346h1M168 346h1M172 346h1M176 346h1M180 346h1M184 346h1M188 346h1M192 346h1M196 346h1M200 346h1M204 346h1M208 346h1M212 346h1M216 346h1M264 346h1M268 346h1M272 346h1M276 346h1M280 346h1M284 346h1M288 346h1M292 346h1M296 346h1M300 346h1M304 346h1M308 346h1M312 346h1M41 348h1M46 348h1M50 348h1M55 348h1M78 348h1M82 348h1M105 348h1M110 348h1M114 348h1M119 348h1M166 348h1M170 348h1M174 348h1M178 348h1M182 348h1M186 348h1M190 348h1M194 348h1M198 348h1M202 348h1M206 348h1M210 348h1M214 348h1M218 348h1M262 348h1M266 348h1M270 348h1M274 348h1M278 348h1M282 348h1M286 348h1M290 348h1M294 348h1M298 348h1M302 348h1M306 348h1M310 348h1M314 348h1M93 349h1M98 349h1M40 350h1M44 350h1M48 350h1M52 350h1M56 350h1M76 350h1M80 350h1M84 350h1M104 350h1M108 350h1M112 350h1M116 350h1M120 350h1M180 350h1M184 350h1M188 350h1M192 350h1M196 350h1M200 350h1M204 350h1M208 350h1M212 350h1M216 350h1M276 350h1M280 350h1M284 350h1M288 350h1M292 350h1M296 350h1M300 350h1M304 350h1M308 350h1M312 350h1M40 352h1M46 352h1M50 352h1M56 352h1M78 352h1M82 352h1M86 352h1M89 352h1M92 352h1M98 352h1M101 352h1M104 352h1M110 352h1M114 352h1M120 352h1M182 352h1M186 352h1M190 352h1M194 352h1M198 352h1M202 352h1M206 352h1M210 352h1M214 352h1M218 352h1M278 352h1M282 352h1M286 352h1M290 352h1M294 352h1M298 352h1M302 352h1M306 352h1M310 352h1M314 352h1M40 354h1M44 354h1M48 354h1M52 354h1M56 354h1M76 354h1M80 354h1M84 354h1M104 354h1M108 354h1M112 354h1M116 354h1M120 354h1M180 354h1M184 354h1M188 354h1M192 354h1M196 354h1M200 354h1M204 354h1M208 354h1M212 354h1M216 354h1M276 354h1M280 354h1M284 354h1M288 354h1M292 354h1M296 354h1M300 354h1M304 354h1M308 354h1M312 354h1M93 355h1M98 355h1M41 356h1M46 356h1M50 356h1M55 356h1M78 356h1M82 356h1M105 356h1M110 356h1M114 356h1M119 356h1M166 356h1M170 356h1M174 356h1M178 356h1M182 356h1M186 356h1M190 356h1M194 356h1M198 356h1M202 356h1M206 356h1M210 356h1M214 356h1M218 356h1M262 356h1M266 356h1M270 356h1M274 356h1M278 356h1M282 356h1M286 356h1M290 356h1M294 356h1M298 356h1M302 356h1M306 356h1M310 356h1M314 356h1M42 358h1M54 358h1M93 358h1M98 358h1M106 358h1M118 358h1M168 358h1M172 358h1M176 358h1M180 358h1M184 358h1M188 358h1M192 358h1M196 358h1M200 358h1M204 358h1M208 358h1M212 358h1M216 358h1M264 358h1M268 358h1M272 358h1M276 358h1M280 358h1M284 358h1M288 358h1M292 358h1M296 358h1M300 358h1M304 358h1M308 358h1M312 358h1M44 359h1M52 359h1M108 359h1M116 359h1M46 360h1M48 360h1M50 360h1M110 360h1M112 360h1M114 360h1M170 360h1M174 360h1M178 360h1M182 360h1M186 360h1M190 360h1M194 360h1M198 360h1M202 360h1M206 360h1M210 360h1M214 360h1M266 360h1M270 360h1M274 360h1M278 360h1M282 360h1M286 360h1M290 360h1M294 360h1M298 360h1M302 360h1M306 360h1M310 360h1M48 362h1M168 362h1M172 362h1M176 362h1M180 362h1M184 362h1M188 362h1M192 362h1M196 362h1M200 362h1M204 362h1M208 362h1M212 362h1M216 362h1M264 362h1M268 362h1M272 362h1M276 362h1M280 362h1M284 362h1M288 362h1M292 362h1M296 362h1M300 362h1M304 362h1M308 362h1M312 362h1M170 364h1M174 364h1M178 364h1M182 364h1M186 364h1M190 364h1M194 364h1M198 364h1M202 364h1M206 364h1M210 364h1M214 364h1M266 364h1M270 364h1M274 364h1M278 364h1M282 364h1M286 364h1M290 364h1M294 364h1M298 364h1M302 364h1M306 364h1M310 364h1M48 365h1M172 366h1M176 366h1M180 366h1M184 366h1M188 366h1M192 366h1M196 366h1M200 366h1M204 366h1M208 366h1M212 366h1M268 366h1M272 366h1M276 366h1M280 366h1M284 366h1M288 366h1M292 366h1M296 366h1M300 366h1M304 366h1M308 366h1M48 368h1M174 368h1M178 368h1M182 368h1M186 368h1M190 368h1M194 368h1M198 368h1M202 368h1M206 368h1M210 368h1M270 368h1M274 368h1M278 368h1M282 368h1M286 368h1M290 368h1M294 368h1M298 368h1M302 368h1M306 368h1M172 370h1M176 370h1M180 370h1M184 370h1M188 370h1M192 370h1M196 370h1M200 370h1M204 370h1M208 370h1M212 370h1M268 370h1M272 370h1M276 370h1M280 370h1M284 370h1M288 370h1M292 370h1M296 370h1M300 370h1M304 370h1M308 370h1M48 371h1M174 372h1M178 372h1M182 372h1M186 372h1M190 372h1M194 372h1M198 372h1M202 372h1M206 372h1M210 372h1M268 372h1M270 372h1M274 372h1M278 372h1M282 372h1M286 372h1M290 372h1M294 372h1M298 372h1M302 372h1M306 372h1M48 374h1M180 374h1M184 374h1M188 374h1M192 374h1M196 374h1M200 374h1M204 374h1M276 374h1M280 374h1M284 374h1M288 374h1M292 374h1M296 374h1M300 374h1M265 375h1M46 376h1M48 376h1M50 376h1M78 376h1M80 376h1M82 376h1M182 376h1M186 376h1M190 376h1M194 376h1M198 376h1M202 376h1M278 376h1M282 376h1M286 376h1M290 376h1M294 376h1M298 376h1M44 377h1M52 377h1M76 377h1M84 377h1M42 378h1M54 378h1M74 378h1M86 378h1M188 378h1M192 378h1M196 378h1M262 378h1M284 378h1M288 378h1M292 378h1M41 380h1M46 380h1M50 380h1M55 380h1M73 380h1M78 380h1M82 380h1M87 380h1M110 380h1M114 380h1M259 381h1M40 382h1M44 382h1M48 382h1M52 382h1M56 382h1M72 382h1M76 382h1M80 382h1M84 382h1M88 382h1M108 382h1M112 382h1M116 382h1M40 384h1M46 384h1M50 384h1M56 384h1M72 384h1M78 384h1M82 384h1M88 384h1M91 384h1M94 384h1M97 384h1M100 384h1M103 384h1M106 384h1M110 384h1M114 384h1M118 384h1M121 384h1M124 384h1M127 384h1M130 384h1M133 384h1M136 384h1M139 384h1M142 384h1M145 384h1M148 384h1M151 384h1M154 384h1M157 384h1M160 384h1M163 384h1M166 384h1M169 384h1M172 384h1M175 384h1M178 384h1M181 384h1M184 384h1M187 384h1M190 384h1M193 384h1M196 384h1M199 384h1M202 384h1M205 384h1M208 384h1M211 384h1M214 384h1M217 384h1M220 384h1M223 384h1M226 384h1M229 384h1M232 384h1M235 384h1M238 384h1M241 384h1M244 384h1M247 384h1M250 384h1M253 384h1M256 384h1M40 386h1M44 386h1M48 386h1M52 386h1M56 386h1M72 386h1M76 386h1M80 386h1M84 386h1M88 386h1M108 386h1M112 386h1M116 386h1M41 388h1M46 388h1M50 388h1M55 388h1M73 388h1M78 388h1M82 388h1M87 388h1M110 388h1M114 388h1M42 390h1M54 390h1M74 390h1M86 390h1M44 391h1M52 391h1M76 391h1M84 391h1M46 392h1M48 392h1M50 392h1M78 392h1M80 392h1M82 392h1M94 393h1M96 393h1M98 393h1M48 394h1M92 394h1M100 394h1M91 395h1M101 395h1M48 397h1M90 397h1M102 397h1M90 399h1M102 399h1M48 400h1M90 401h1M102 401h1M48 403h1M91 403h1M101 403h1M92 404h1M100 404h1M94 405h1M96 405h1M98 405h1M48 406h1M80 407h1M112 407h1M46 408h1M48 408h1M50 408h1M80 408h1M96 408h1M112 408h1M44 409h1M52 409h1M73 409h1M87 409h1M105 409h1M119 409h1M42 410h1M54 410h1M74 410h1M86 410h1M94 410h1M98 410h1M106 410h1M118 410h1M41 412h1M46 412h1M50 412h1M55 412h1M78 412h1M82 412h1M92 412h1M100 412h1M110 412h1M114 412h1M40 414h1M44 414h1M48 414h1M52 414h1M56 414h1M76 414h1M80 414h1M84 414h1M90 414h1M102 414h1M108 414h1M112 414h1M116 414h1M40 416h1M46 416h1M50 416h1M56 416h1M71 416h2M78 416h1M82 416h1M86 416h1M88 416h1M104 416h1M106 416h1M110 416h1M114 416h1M120 416h2M40 418h1M44 418h1M48 418h1M52 418h1M56 418h1M76 418h1M80 418h1M84 418h1M90 418h1M102 418h1M108 418h1M112 418h1M116 418h1M41 420h1M46 420h1M50 420h1M55 420h1M78 420h1M82 420h1M92 420h1M100 420h1M110 420h1M114 420h1M42 422h1M54 422h1M74 422h1M86 422h1M94 422h1M98 422h1M106 422h1M118 422h1M284 422h1M288 422h1M292 422h1M44 423h1M52 423h1M73 423h1M87 423h1M105 423h1M119 423h1M46 424h1M48 424h1M50 424h1M80 424h1M96 424h1M112 424h1M278 424h1M282 424h1M286 424h1M290 424h1M294 424h1M298 424h1M80 425h1M112 425h1M48 426h1M276 426h1M280 426h1M284 426h1M288 426h1M292 426h1M296 426h1M300 426h1M94 427h1M96 427h1M98 427h1M92 428h1M100 428h1M270 428h1M274 428h1M278 428h1M282 428h1M286 428h1M290 428h1M294 428h1M298 428h1M302 428h1M306 428h1M48 429h1M91 429h1M101 429h1M268 430h1M272 430h1M276 430h1M280 430h1M284 430h1M288 430h1M292 430h1M296 430h1M300 430h1M304 430h1M308 430h1M90 431h1M102 431h1M48 432h1M270 432h1M274 432h1M278 432h1M282 432h1M286 432h1M290 432h1M294 432h1M298 432h1M302 432h1M306 432h1M90 433h1M102 433h1M268 434h1M272 434h1M276 434h1M280 434h1M284 434h1M288 434h1M292 434h1M296 434h1M300 434h1M304 434h1M308 434h1M48 435h1M90 435h1M102 435h1M190 435h1M192 435h1M194 435h1M187 436h1M189 436h1M191 436h1M193 436h1M195 436h1M197 436h1M266 436h1M270 436h1M274 436h1M278 436h1M282 436h1M286 436h1M290 436h1M294 436h1M298 436h1M302 436h1M306 436h1M310 436h1M91 437h1M101 437h1M186 437h1M188 437h1M190 437h1M192 437h1M194 437h1M196 437h1M198 437h1M48 438h1M92 438h1M100 438h1M183 438h1M185 438h1M187 438h1M189 438h1M191 438h1M193 438h1M195 438h1M197 438h1M199 438h1M201 438h1M264 438h1M268 438h1M272 438h1M276 438h1M280 438h1M284 438h1M288 438h1M292 438h1M296 438h1M300 438h1M304 438h1M308 438h1M312 438h1M94 439h1M96 439h1M98 439h1M182 439h1M184 439h1M186 439h1M188 439h1M190 439h1M194 439h1M196 439h1M198 439h1M200 439h1M202 439h1M46 440h1M48 440h1M50 440h1M78 440h1M80 440h1M82 440h1M183 440h1M185 440h1M187 440h1M189 440h1M195 440h1M197 440h1M199 440h1M201 440h1M266 440h1M270 440h1M274 440h1M278 440h1M282 440h1M286 440h1M290 440h1M294 440h1M298 440h1M302 440h1M306 440h1M310 440h1M44 441h1M52 441h1M76 441h1M84 441h1M182 441h1M184 441h1M186 441h1M198 441h1M200 441h1M202 441h1M42 442h1M54 442h1M74 442h1M86 442h1M181 442h1M183 442h1M201 442h1M203 442h1M264 442h1M268 442h1M272 442h1M276 442h1M280 442h1M284 442h1M288 442h1M292 442h1M296 442h1M300 442h1M304 442h1M308 442h1M312 442h1M323 442h1M325 442h1M334 442h1M180 443h1M182 443h1M202 443h1M204 443h1M322 443h1M326 443h1M41 444h1M46 444h1M50 444h1M55 444h1M73 444h1M78 444h1M82 444h1M87 444h1M110 444h1M114 444h1M181 444h1M183 444h1M262 444h1M266 444h1M270 444h1M274 444h1M278 444h1M282 444h1M286 444h1M290 444h1M294 444h1M298 444h1M302 444h1M306 444h1M310 444h1M314 444h1M334 444h1M180 445h1M182 445h1M322 445h1M326 445h1M40 446h1M44 446h1M48 446h1M52 446h1M56 446h1M72 446h1M76 446h1M80 446h1M84 446h1M88 446h1M108 446h1M112 446h1M116 446h1M179 446h1M181 446h1M183 446h1M193 446h1M195 446h1M197 446h1M199 446h1M201 446h1M203 446h1M205 446h1M276 446h1M280 446h1M284 446h1M288 446h1M292 446h1M296 446h1M300 446h1M304 446h1M308 446h1M312 446h1M323 446h1M325 446h1M334 446h1M180 447h1M182 447h1M192 447h1M194 447h1M196 447h1M198 447h1M200 447h1M202 447h1M204 447h1M206 447h1M40 448h1M46 448h1M50 448h1M56 448h1M72 448h1M78 448h1M82 448h1M88 448h1M91 448h1M94 448h1M97 448h1M100 448h1M103 448h1M106 448h1M110 448h1M114 448h1M118 448h1M121 448h1M124 448h1M127 448h1M130 448h1M133 448h1M136 448h1M139 448h1M142 448h1M145 448h1M148 448h1M151 448h1M154 448h1M157 448h1M160 448h1M163 448h1M166 448h1M169 448h1M172 448h1M175 448h1M179 448h1M181 448h1M183 448h1M191 448h1M193 448h1M195 448h1M197 448h1M199 448h1M201 448h1M203 448h1M205 448h1M207 448h1M209 448h1M212 448h1M215 448h1M218 448h1M221 448h1M224 448h1M227 448h1M230 448h1M233 448h1M236 448h1M239 448h1M242 448h1M245 448h1M248 448h1M251 448h1M254 448h1M257 448h1M260 448h1M278 448h1M282 448h1M286 448h1M290 448h1M294 448h1M298 448h1M302 448h1M306 448h1M310 448h1M314 448h1M334 448h1M180 449h1M182 449h1M192 449h1M194 449h1M196 449h1M198 449h1M200 449h1M202 449h1M204 449h1M206 449h1M40 450h1M44 450h1M48 450h1M52 450h1M56 450h1M72 450h1M76 450h1M80 450h1M84 450h1M88 450h1M108 450h1M112 450h1M116 450h1M179 450h1M181 450h1M183 450h1M193 450h1M195 450h1M197 450h1M199 450h1M201 450h1M203 450h1M205 450h1M276 450h1M280 450h1M284 450h1M288 450h1M292 450h1M296 450h1M300 450h1M304 450h1M308 450h1M312 450h1M334 450h1M180 451h1M182 451h1M41 452h1M46 452h1M50 452h1M55 452h1M73 452h1M78 452h1M82 452h1M87 452h1M110 452h1M114 452h1M181 452h1M183 452h1M262 452h1M266 452h1M270 452h1M274 452h1M278 452h1M282 452h1M286 452h1M290 452h1M294 452h1M298 452h1M302 452h1M306 452h1M310 452h1M314 452h1M334 452h1M180 453h1M182 453h1M202 453h1M204 453h1M42 454h1M54 454h1M74 454h1M86 454h1M181 454h1M183 454h1M185 454h1M199 454h1M201 454h1M203 454h1M264 454h1M268 454h1M272 454h1M276 454h1M280 454h1M284 454h1M288 454h1M292 454h1M296 454h1M300 454h1M304 454h1M308 454h1M312 454h1M322 454h1M324 454h1M326 454h1M328 454h1M330 454h1M332 454h1M334 454h1M44 455h1M52 455h1M76 455h1M84 455h1M182 455h1M184 455h1M186 455h1M198 455h1M200 455h1M202 455h1M46 456h1M48 456h1M50 456h1M78 456h1M80 456h1M82 456h1M183 456h1M185 456h1M187 456h1M189 456h1M195 456h1M197 456h1M199 456h1M201 456h1M266 456h1M270 456h1M274 456h1M278 456h1M282 456h1M286 456h1M290 456h1M294 456h1M298 456h1M302 456h1M306 456h1M310 456h1M182 457h1M184 457h1M186 457h1M188 457h1M190 457h1M194 457h1M196 457h1M198 457h1M200 457h1M202 457h1M48 458h1M183 458h1M185 458h1M187 458h1M189 458h1M191 458h1M193 458h1M195 458h1M197 458h1M199 458h1M201 458h1M264 458h1M268 458h1M272 458h1M276 458h1M280 458h1M284 458h1M288 458h1M292 458h1M296 458h1M300 458h1M304 458h1M308 458h1M312 458h1M186 459h1M188 459h1M190 459h1M192 459h1M194 459h1M196 459h1M198 459h1M187 460h1M189 460h1M191 460h1M193 460h1M195 460h1M197 460h1M266 460h1M270 460h1M274 460h1M278 460h1M282 460h1M286 460h1M290 460h1M294 460h1M298 460h1M302 460h1M306 460h1M310 460h1M48 461h1M190 461h1M192 461h1M194 461h1M268 462h1M272 462h1M276 462h1M280 462h1M284 462h1M288 462h1M292 462h1M296 462h1M300 462h1M304 462h1M308 462h1M48 464h1M192 464h1M270 464h1M274 464h1M278 464h1M282 464h1M286 464h1M290 464h1M294 464h1M298 464h1M302 464h1M306 464h1M268 466h1M272 466h1M276 466h1M280 466h1M284 466h1M288 466h1M292 466h1M296 466h1M300 466h1M304 466h1M308 466h1M48 467h1M192 467h1M270 468h1M274 468h1M278 468h1M282 468h1M286 468h1M290 468h1M294 468h1M298 468h1M302 468h1M306 468h1M48 470h1M192 470h1M276 470h1M280 470h1M284 470h1M288 470h1M292 470h1M296 470h1M300 470h1M46 472h1M48 472h1M50 472h1M110 472h1M112 472h1M114 472h1M278 472h1M282 472h1M286 472h1M290 472h1M294 472h1M298 472h1M44 473h1M52 473h1M108 473h1M116 473h1M192 473h1M42 474h1M54 474h1M93 474h1M98 474h1M106 474h1M118 474h1M284 474h1M288 474h1M292 474h1M41 476h1M46 476h1M50 476h1M55 476h1M78 476h1M82 476h1M105 476h1M110 476h1M114 476h1M119 476h1M192 476h1M93 477h1M98 477h1M40 478h1M44 478h1M48 478h1M52 478h1M56 478h1M76 478h1M80 478h1M84 478h1M104 478h1M108 478h1M112 478h1M116 478h1M120 478h1M192 479h1M40 480h1M46 480h1M50 480h1M56 480h1M78 480h1M82 480h1M86 480h1M89 480h1M92 480h1M98 480h1M101 480h1M104 480h1M110 480h1M114 480h1M120 480h1M40 482h1M44 482h1M48 482h1M52 482h1M56 482h1M76 482h1M80 482h1M84 482h1M104 482h1M108 482h1M112 482h1M116 482h1M120 482h1M192 482h1M93 483h1M98 483h1M41 484h1M46 484h1M50 484h1M55 484h1M78 484h1M82 484h1M105 484h1M110 484h1M114 484h1M119 484h1M192 485h1M42 486h1M54 486h1M93 486h1M98 486h1M106 486h1M118 486h1M44 487h1M52 487h1M108 487h1M116 487h1M46 488h1M48 488h1M50 488h1M110 488h1M112 488h1M114 488h1M192 488h1M192 491h1M192 494h1M192 497h1M192 500h1M192 503h1M78 504h1M80 504h1M82 504h1M76 505h1M84 505h1M74 506h1M86 506h1M192 506h1M46 508h1M50 508h1M73 508h1M78 508h1M82 508h1M87 508h1M110 508h1M114 508h1M192 509h1M44 510h1M48 510h1M52 510h1M72 510h1M76 510h1M80 510h1M84 510h1M88 510h1M108 510h1M112 510h1M116 510h1M46 512h1M50 512h1M54 512h1M57 512h1M60 512h1M63 512h1M66 512h1M69 512h1M72 512h1M78 512h1M82 512h1M88 512h1M110 512h1M114 512h1M118 512h1M121 512h1M124 512h1M127 512h1M130 512h1M133 512h1M136 512h1M139 512h1M142 512h1M145 512h1M148 512h1M151 512h1M154 512h1M157 512h1M160 512h1M163 512h1M166 512h1M169 512h1M172 512h1M175 512h1M178 512h1M181 512h1M184 512h1M187 512h1M192 512h1M197 512h1M200 512h1M203 512h1M206 512h1M209 512h1M212 512h1M215 512h1M218 512h1M221 512h1M224 512h1M227 512h1M230 512h1M233 512h1M236 512h1M239 512h1M242 512h1M245 512h1M248 512h1M251 512h1M254 512h1M257 513h1M44 514h1M48 514h1M52 514h1M72 514h1M76 514h1M80 514h1M84 514h1M88 514h1M108 514h1M112 514h1M116 514h1M192 515h1M46 516h1M50 516h1M73 516h1M78 516h1M82 516h1M87 516h1M110 516h1M114 516h1M260 516h1M74 518h1M86 518h1M188 518h1M192 518h1M196 518h1M284 518h1M288 518h1M292 518h1M48 519h1M76 519h1M84 519h1M112 519h1M263 519h1M78 520h1M80 520h1M82 520h1M182 520h1M186 520h1M190 520h1M194 520h1M198 520h1M202 520h1M278 520h1M282 520h1M286 520h1M290 520h1M294 520h1M298 520h1M71 521h1M48 522h1M112 522h1M180 522h1M184 522h1M188 522h1M192 522h1M196 522h1M200 522h1M204 522h1M266 522h1M276 522h1M280 522h1M284 522h1M288 522h1M292 522h1M296 522h1M300 522h1M68 524h1M174 524h1M178 524h1M182 524h1M186 524h1M190 524h1M194 524h1M198 524h1M202 524h1M206 524h1M210 524h1M270 524h1M274 524h1M278 524h1M282 524h1M286 524h1M290 524h1M294 524h1M298 524h1M302 524h1M306 524h1M48 525h1M112 525h1M172 526h1M176 526h1M180 526h1M184 526h1M188 526h1M192 526h1M196 526h1M200 526h1M204 526h1M208 526h1M212 526h1M268 526h1M272 526h1M276 526h1M280 526h1M284 526h1M288 526h1M292 526h1M296 526h1M300 526h1M304 526h1M308 526h1M65 527h1M48 528h1M112 528h1M174 528h1M178 528h1M182 528h1M186 528h1M190 528h1M194 528h1M198 528h1M202 528h1M206 528h1M210 528h1M270 528h1M274 528h1M278 528h1M282 528h1M286 528h1M290 528h1M294 528h1M298 528h1M302 528h1M306 528h1M62 530h1M172 530h1M176 530h1M180 530h1M184 530h1M188 530h1M192 530h1M196 530h1M200 530h1M204 530h1M208 530h1M212 530h1M268 530h1M272 530h1M276 530h1M280 530h1M284 530h1M288 530h1M292 530h1M296 530h1M300 530h1M304 530h1M308 530h1M48 531h1M112 531h1M170 532h1M174 532h1M178 532h1M182 532h1M186 532h1M190 532h1M194 532h1M198 532h1M202 532h1M206 532h1M210 532h1M214 532h1M266 532h1M270 532h1M274 532h1M278 532h1M282 532h1M286 532h1M290 532h1M294 532h1M298 532h1M302 532h1M306 532h1M310 532h1M59 533h1M48 534h1M112 534h1M168 534h1M172 534h1M176 534h1M180 534h1M184 534h1M188 534h1M192 534h1M196 534h1M200 534h1M204 534h1M208 534h1M212 534h1M216 534h1M264 534h1M268 534h1M272 534h1M276 534h1M280 534h1M284 534h1M288 534h1M292 534h1M296 534h1M300 534h1M304 534h1M308 534h1M312 534h1M56 536h1M78 536h1M80 536h1M82 536h1M170 536h1M174 536h1M178 536h1M182 536h1M186 536h1M190 536h1M194 536h1M198 536h1M202 536h1M206 536h1M210 536h1M214 536h1M266 536h1M270 536h1M274 536h1M278 536h1M282 536h1M286 536h1M290 536h1M294 536h1M298 536h1M302 536h1M306 536h1M310 536h1M48 537h1M76 537h1M84 537h1M112 537h1M74 538h1M86 538h1M168 538h1M172 538h1M176 538h1M180 538h1M184 538h1M188 538h1M192 538h1M196 538h1M200 538h1M204 538h1M208 538h1M212 538h1M216 538h1M264 538h1M268 538h1M272 538h1M276 538h1M280 538h1M284 538h1M288 538h1M292 538h1M296 538h1M300 538h1M304 538h1M308 538h1M312 538h1M322 538h1M324 538h1M326 538h1M328 538h1M330 538h1M332 538h1M334 538h1M53 539h1M46 540h1M50 540h1M73 540h1M78 540h1M82 540h1M87 540h1M110 540h1M114 540h1M166 540h1M170 540h1M174 540h1M178 540h1M182 540h1M186 540h1M190 540h1M194 540h1M198 540h1M202 540h1M206 540h1M210 540h1M214 540h1M218 540h1M262 540h1M266 540h1M270 540h1M274 540h1M278 540h1M282 540h1M286 540h1M290 540h1M294 540h1M298 540h1M302 540h1M306 540h1M310 540h1M314 540h1M334 540h1M44 542h1M48 542h1M52 542h1M72 542h1M76 542h1M80 542h1M84 542h1M88 542h1M108 542h1M112 542h1M116 542h1M180 542h1M184 542h1M188 542h1M192 542h1M196 542h1M200 542h1M204 542h1M208 542h1M212 542h1M216 542h1M276 542h1M280 542h1M284 542h1M288 542h1M292 542h1M296 542h1M300 542h1M304 542h1M308 542h1M312 542h1M323 542h1M325 542h1M334 542h1M322 543h1M326 543h1M46 544h1M50 544h1M72 544h1M78 544h1M82 544h1M88 544h1M91 544h1M94 544h1M97 544h1M100 544h1M103 544h1M106 544h1M110 544h1M114 544h1M118 544h1M121 544h1M124 544h1M127 544h1M130 544h1M133 544h1M136 544h1M139 544h1M142 544h1M145 544h1M148 544h1M151 544h1M154 544h1M157 544h1M160 544h1M163 544h1M182 544h1M186 544h1M190 544h1M194 544h1M198 544h1M202 544h1M206 544h1M210 544h1M214 544h1M218 544h1M278 544h1M282 544h1M286 544h1M290 544h1M294 544h1M298 544h1M302 544h1M306 544h1M310 544h1M314 544h1M334 544h1M322 545h1M326 545h1M44 546h1M48 546h1M52 546h1M72 546h1M76 546h1M80 546h1M84 546h1M88 546h1M108 546h1M112 546h1M116 546h1M180 546h1M184 546h1M188 546h1M192 546h1M196 546h1M200 546h1M204 546h1M208 546h1M212 546h1M216 546h1M276 546h1M280 546h1M284 546h1M288 546h1M292 546h1M296 546h1M300 546h1M304 546h1M308 546h1M312 546h1M323 546h1M325 546h1M334 546h1M46 548h1M50 548h1M73 548h1M78 548h1M82 548h1M87 548h1M110 548h1M114 548h1M166 548h1M170 548h1M174 548h1M178 548h1M182 548h1M186 548h1M190 548h1M194 548h1M198 548h1M202 548h1M206 548h1M210 548h1M214 548h1M218 548h1M262 548h1M266 548h1M270 548h1M274 548h1M278 548h1M282 548h1M286 548h1M290 548h1M294 548h1M298 548h1M302 548h1M306 548h1M310 548h1M314 548h1M334 548h1M74 550h1M86 550h1M168 550h1M172 550h1M176 550h1M180 550h1M184 550h1M188 550h1M192 550h1M196 550h1M200 550h1M204 550h1M208 550h1M212 550h1M216 550h1M264 550h1M268 550h1M272 550h1M276 550h1M280 550h1M284 550h1M288 550h1M292 550h1M296 550h1M300 550h1M304 550h1M308 550h1M312 550h1M322 550h1M324 550h1M326 550h1M328 550h1M330 550h1M332 550h1M334 550h1M76 551h1M84 551h1M78 552h1M80 552h1M82 552h1M170 552h1M174 552h1M178 552h1M182 552h1M186 552h1M190 552h1M194 552h1M198 552h1M202 552h1M206 552h1M210 552h1M214 552h1M266 552h1M270 552h1M274 552h1M278 552h1M282 552h1M286 552h1M290 552h1M294 552h1M298 552h1M302 552h1M306 552h1M310 552h1M168 554h1M172 554h1M176 554h1M180 554h1M184 554h1M188 554h1M192 554h1M196 554h1M200 554h1M204 554h1M208 554h1M212 554h1M216 554h1M264 554h1M268 554h1M272 554h1M276 554h1M280 554h1M284 554h1M288 554h1M292 554h1M296 554h1M300 554h1M304 554h1M308 554h1M312 554h1M170 556h1M174 556h1M178 556h1M182 556h1M186 556h1M190 556h1M194 556h1M198 556h1M202 556h1M206 556h1M210 556h1M214 556h1M266 556h1M270 556h1M274 556h1M278 556h1M282 556h1M286 556h1M290 556h1M294 556h1M298 556h1M302 556h1M306 556h1M310 556h1M172 558h1M176 558h1M180 558h1M184 558h1M188 558h1M192 558h1M196 558h1M200 558h1M204 558h1M208 558h1M212 558h1M268 558h1M272 558h1M276 558h1M280 558h1M284 558h1M288 558h1M292 558h1M296 558h1M300 558h1M304 558h1M308 558h1M174 560h1M178 560h1M182 560h1M186 560h1M190 560h1M194 560h1M198 560h1M202 560h1M206 560h1M210 560h1M270 560h1M274 560h1M278 560h1M282 560h1M286 560h1M290 560h1M294 560h1M298 560h1M302 560h1M306 560h1M172 562h1M176 562h1M180 562h1M184 562h1M188 562h1M192 562h1M196 562h1M200 562h1M204 562h1M208 562h1M212 562h1M268 562h1M272 562h1M276 562h1M280 562h1M284 562h1M288 562h1M292 562h1M296 562h1M300 562h1M304 562h1M308 562h1M174 564h1M178 564h1M182 564h1M186 564h1M190 564h1M194 564h1M198 564h1M202 564h1M206 564h1M210 564h1M270 564h1M274 564h1M278 564h1M282 564h1M286 564h1M290 564h1M294 564h1M298 564h1M302 564h1M306 564h1M180 566h1M184 566h1M188 566h1M192 566h1M196 566h1M200 566h1M204 566h1M276 566h1M280 566h1M284 566h1M288 566h1M292 566h1M296 566h1M300 566h1M182 568h1M186 568h1M190 568h1M194 568h1M198 568h1M202 568h1M278 568h1M282 568h1M286 568h1M290 568h1M294 568h1M298 568h1M188 570h1M192 570h1M196 570h1M284 570h1M288 570h1M292 570h1" />
</svg>