<svg xmlns="http://www.w3.org/2000/svg" viewBox="0 -0.5 608 353" shape-rendering="crispEdges">
<metadata>Made with Pixels to Svg https://codepen.io/shshaw/pen/XbxvNj</metadata>
<path stroke="#ffffff" d="M383 4h1M447 4h1M511 4h1M383 7h1M447 7h1M511 7h1M383 10h1M447 10h1M511 10h1M383 13h1M447 13h1M511 13h1M383 16h1M447 16h1M511 16h1M383 19h1M447 19h1M511 19h1M383 22h1M447 22h1M511 22h1M383 25h1M447 25h1M511 25h1M383 28h1M447 28h1M511 28h1M383 31h1M447 31h1M511 31h1M383 34h1M447 34h1M511 34h1M383 37h1M447 37h1M511 37h1M125 40h1M127 40h1M129 40h1M157 40h1M159 40h1M161 40h1M189 40h1M191 40h1M193 40h1M221 40h1M223 40h1M225 40h1M253 40h1M255 40h1M257 40h1M285 40h1M287 40h1M289 40h1M317 40h1M319 40h1M321 40h1M349 40h1M351 40h1M353 40h1M383 40h1M447 40h1M511 40h1M123 41h1M131 41h1M155 41h1M163 41h1M187 41h1M195 41h1M219 41h1M227 41h1M251 41h1M259 41h1M283 41h1M291 41h1M315 41h1M323 41h1M347 41h1M355 41h1M121 42h1M133 42h1M153 42h1M165 42h1M185 42h1M197 42h1M217 42h1M229 42h1M249 42h1M261 42h1M281 42h1M293 42h1M313 42h1M325 42h1M345 42h1M357 42h1M383 43h1M447 43h1M511 43h1M61 44h1M65 44h1M93 44h1M97 44h1M120 44h1M125 44h1M129 44h1M134 44h1M152 44h1M157 44h1M161 44h1M166 44h1M184 44h1M189 44h1M193 44h1M198 44h1M216 44h1M221 44h1M225 44h1M230 44h1M248 44h1M253 44h1M257 44h1M262 44h1M280 44h1M285 44h1M289 44h1M294 44h1M312 44h1M317 44h1M321 44h1M326 44h1M344 44h1M349 44h1M353 44h1M358 44h1M59 46h1M63 46h1M67 46h1M91 46h1M95 46h1M99 46h1M119 46h1M123 46h1M127 46h1M131 46h1M135 46h1M151 46h1M155 46h1M159 46h1M163 46h1M167 46h1M183 46h1M187 46h1M191 46h1M195 46h1M199 46h1M215 46h1M219 46h1M223 46h1M227 46h1M231 46h1M247 46h1M251 46h1M255 46h1M259 46h1M263 46h1M279 46h1M283 46h1M287 46h1M291 46h1M295 46h1M311 46h1M315 46h1M319 46h1M323 46h1M327 46h1M343 46h1M347 46h1M351 46h1M355 46h1M359 46h1M383 46h1M447 46h1M511 46h1M61 48h1M65 48h1M70 48h1M73 48h1M76 48h1M79 48h1M82 48h1M85 48h1M88 48h1M93 48h1M97 48h1M119 48h1M125 48h1M129 48h1M135 48h1M137 48h1M140 48h1M143 48h1M146 48h1M149 48h1M151 48h1M157 48h1M161 48h1M167 48h1M169 48h1M172 48h1M175 48h1M178 48h1M181 48h1M183 48h1M189 48h1M193 48h1M199 48h1M201 48h1M204 48h1M207 48h1M210 48h1M213 48h1M215 48h1M221 48h1M225 48h1M231 48h1M233 48h1M236 48h1M239 48h1M242 48h1M245 48h1M247 48h1M253 48h1M257 48h1M263 48h1M265 48h1M268 48h1M271 48h1M274 48h1M277 48h1M279 48h1M285 48h1M289 48h1M295 48h1M297 48h1M300 48h1M303 48h1M306 48h1M309 48h1M311 48h1M317 48h1M321 48h1M327 48h1M329 48h1M332 48h1M335 48h1M338 48h1M341 48h1M343 48h1M349 48h1M353 48h1M359 48h1M382 49h1M447 49h1M511 49h1M59 50h1M63 50h1M67 50h1M91 50h1M95 50h1M99 50h1M119 50h1M123 50h1M127 50h1M131 50h1M135 50h1M151 50h1M155 50h1M159 50h1M163 50h1M167 50h1M183 50h1M187 50h1M191 50h1M195 50h1M199 50h1M215 50h1M219 50h1M223 50h1M227 50h1M231 50h1M247 50h1M251 50h1M255 50h1M259 50h1M263 50h1M279 50h1M283 50h1M287 50h1M291 50h1M295 50h1M311 50h1M315 50h1M319 50h1M323 50h1M327 50h1M343 50h1M347 50h1M351 50h1M355 50h1M359 50h1M61 52h1M65 52h1M93 52h1M97 52h1M120 52h1M125 52h1M129 52h1M134 52h1M152 52h1M157 52h1M161 52h1M166 52h1M184 52h1M189 52h1M193 52h1M198 52h1M216 52h1M221 52h1M225 52h1M230 52h1M248 52h1M253 52h1M257 52h1M262 52h1M280 52h1M285 52h1M289 52h1M294 52h1M312 52h1M317 52h1M321 52h1M326 52h1M344 52h1M349 52h1M353 52h1M358 52h1M379 52h1M447 52h1M511 52h1M68 53h1M95 54h1M121 54h1M133 54h1M153 54h1M165 54h1M185 54h1M197 54h1M217 54h1M229 54h1M249 54h1M261 54h1M281 54h1M293 54h1M313 54h1M325 54h1M345 54h1M357 54h1M123 55h1M131 55h1M155 55h1M163 55h1M187 55h1M195 55h1M219 55h1M227 55h1M251 55h1M259 55h1M283 55h1M291 55h1M315 55h1M323 55h1M347 55h1M355 55h1M376 55h1M447 55h1M511 55h1M71 56h1M125 56h1M127 56h1M129 56h1M157 56h1M159 56h1M161 56h1M189 56h1M191 56h1M193 56h1M221 56h1M223 56h1M225 56h1M253 56h1M255 56h1M257 56h1M285 56h1M287 56h1M289 56h1M317 56h1M319 56h1M321 56h1M349 56h1M351 56h1M353 56h1M360 56h1M95 57h1M373 58h1M447 58h1M511 58h1M74 59h1M363 59h1M95 60h1M370 61h1M447 61h1M511 61h1M77 62h1M366 62h1M95 63h1M447 64h1M511 64h1M80 65h1M369 65h1M95 66h1M445 66h1M447 66h1M449 66h1M540 66h1M542 66h1M544 66h1M364 67h1M442 67h1M444 67h1M446 67h1M448 67h1M450 67h1M452 67h1M511 67h1M537 67h1M539 67h1M541 67h1M543 67h1M545 67h1M547 67h1M83 68h1M372 68h1M441 68h1M443 68h1M445 68h1M447 68h1M449 68h1M451 68h1M453 68h1M536 68h1M538 68h1M540 68h1M542 68h1M544 68h1M546 68h1M548 68h1M95 69h1M438 69h1M440 69h1M442 69h1M444 69h1M446 69h1M448 69h1M450 69h1M452 69h1M454 69h1M456 69h1M533 69h1M535 69h1M537 69h1M539 69h1M541 69h1M543 69h1M545 69h1M547 69h1M549 69h1M551 69h1M361 70h1M437 70h1M439 70h1M441 70h1M443 70h1M445 70h1M447 70h1M449 70h1M451 70h1M453 70h1M455 70h1M457 70h1M511 70h1M532 70h1M534 70h1M536 70h1M538 70h1M540 70h1M542 70h1M544 70h1M546 70h1M548 70h1M550 70h1M552 70h1M86 71h1M191 71h1M351 71h1M375 71h1M438 71h1M440 71h1M454 71h1M456 71h1M533 71h1M535 71h1M549 71h1M551 71h1M61 72h1M63 72h1M65 72h1M93 72h1M95 72h1M97 72h1M157 72h1M159 72h1M161 72h1M191 72h1M221 72h1M223 72h1M225 72h1M285 72h1M287 72h1M289 72h1M317 72h1M319 72h1M321 72h1M351 72h1M437 72h1M439 72h1M441 72h1M455 72h1M457 72h1M532 72h1M534 72h1M536 72h1M550 72h1M552 72h1M59 73h1M67 73h1M91 73h1M99 73h1M155 73h1M163 73h1M184 73h1M198 73h1M219 73h1M227 73h1M283 73h1M291 73h1M315 73h1M323 73h1M344 73h1M358 73h1M436 73h1M438 73h1M440 73h1M454 73h1M456 73h1M458 73h1M511 73h1M531 73h1M533 73h1M535 73h1M549 73h1M551 73h1M553 73h1M57 74h1M69 74h1M89 74h1M101 74h1M153 74h1M165 74h1M185 74h1M197 74h1M217 74h1M229 74h1M281 74h1M293 74h1M313 74h1M325 74h1M345 74h1M378 74h1M435 74h1M437 74h1M439 74h1M455 74h1M457 74h1M459 74h1M530 74h1M532 74h1M534 74h1M550 74h1M552 74h1M554 74h1M436 75h1M438 75h1M456 75h1M458 75h1M531 75h1M533 75h1M551 75h1M553 75h1M56 76h1M61 76h1M65 76h1M70 76h1M88 76h1M93 76h1M97 76h1M102 76h1M125 76h1M129 76h1M152 76h1M157 76h1M161 76h1M166 76h1M189 76h1M193 76h1M216 76h1M221 76h1M225 76h1M230 76h1M253 76h1M257 76h1M280 76h1M285 76h1M289 76h1M294 76h1M312 76h1M317 76h1M321 76h1M326 76h1M349 76h1M353 76h1M435 76h1M437 76h1M439 76h1M455 76h1M457 76h1M459 76h1M511 76h1M530 76h1M532 76h1M534 76h1M550 76h1M552 76h1M554 76h1M381 77h1M434 77h1M436 77h1M438 77h1M456 77h1M458 77h1M460 77h1M529 77h1M531 77h1M533 77h1M551 77h1M553 77h1M555 77h1M55 78h1M59 78h1M63 78h1M67 78h1M71 78h1M87 78h1M91 78h1M95 78h1M99 78h1M103 78h1M123 78h1M127 78h1M131 78h1M151 78h1M155 78h1M159 78h1M163 78h1M167 78h1M187 78h1M191 78h1M195 78h1M215 78h1M219 78h1M223 78h1M227 78h1M231 78h1M251 78h1M255 78h1M259 78h1M279 78h1M283 78h1M287 78h1M291 78h1M295 78h1M311 78h1M315 78h1M319 78h1M323 78h1M327 78h1M347 78h1M351 78h1M355 78h1M435 78h1M437 78h1M447 78h1M457 78h1M459 78h1M530 78h1M532 78h1M542 78h1M552 78h1M554 78h1M384 79h1M387 79h1M390 79h1M393 79h1M396 79h1M399 79h1M402 79h1M405 79h1M408 79h1M411 79h1M414 79h1M417 79h1M420 79h1M423 79h1M426 79h1M429 79h1M432 79h1M434 79h1M436 79h1M446 79h1M448 79h1M458 79h1M460 79h1M511 79h1M529 79h1M531 79h1M541 79h1M543 79h1M553 79h1M555 79h1M55 80h1M61 80h1M65 80h1M71 80h1M87 80h1M93 80h1M97 80h1M103 80h1M125 80h1M129 80h1M151 80h1M157 80h1M161 80h1M167 80h1M182 80h2M189 80h1M193 80h1M199 80h2M215 80h1M221 80h1M225 80h1M231 80h1M253 80h1M257 80h1M279 80h1M285 80h1M289 80h1M295 80h1M311 80h1M317 80h1M321 80h1M327 80h1M342 80h2M349 80h1M353 80h1M359 80h2M435 80h1M437 80h1M445 80h1M447 80h1M449 80h1M457 80h1M459 80h1M530 80h1M532 80h1M540 80h1M542 80h1M544 80h1M552 80h1M554 80h1M434 81h1M436 81h1M438 81h1M446 81h1M448 81h1M456 81h1M458 81h1M460 81h1M529 81h1M531 81h1M533 81h1M541 81h1M543 81h1M551 81h1M553 81h1M555 81h1M55 82h1M59 82h1M63 82h1M67 82h1M71 82h1M87 82h1M91 82h1M95 82h1M99 82h1M103 82h1M123 82h1M127 82h1M131 82h1M151 82h1M155 82h1M159 82h1M163 82h1M167 82h1M187 82h1M191 82h1M195 82h1M215 82h1M219 82h1M223 82h1M227 82h1M231 82h1M251 82h1M255 82h1M259 82h1M279 82h1M283 82h1M287 82h1M291 82h1M295 82h1M311 82h1M315 82h1M319 82h1M323 82h1M327 82h1M347 82h1M351 82h1M355 82h1M435 82h1M437 82h1M439 82h1M445 82h1M447 82h1M449 82h1M455 82h1M457 82h1M459 82h1M511 82h1M530 82h1M532 82h1M534 82h1M540 82h1M542 82h1M544 82h1M550 82h1M552 82h1M554 82h1M436 83h1M438 83h1M446 83h1M448 83h1M456 83h1M458 83h1M531 83h1M533 83h1M541 83h1M543 83h1M551 83h1M553 83h1M56 84h1M61 84h1M65 84h1M70 84h1M88 84h1M93 84h1M97 84h1M102 84h1M125 84h1M129 84h1M152 84h1M157 84h1M161 84h1M166 84h1M189 84h1M193 84h1M216 84h1M221 84h1M225 84h1M230 84h1M253 84h1M257 84h1M280 84h1M285 84h1M289 84h1M294 84h1M312 84h1M317 84h1M321 84h1M326 84h1M349 84h1M353 84h1M435 84h1M437 84h1M439 84h1M445 84h1M447 84h1M449 84h1M455 84h1M457 84h1M459 84h1M530 84h1M532 84h1M534 84h1M540 84h1M542 84h1M544 84h1M550 84h1M552 84h1M554 84h1M436 85h1M438 85h1M440 85h1M446 85h1M448 85h1M454 85h1M456 85h1M458 85h1M511 85h1M531 85h1M533 85h1M535 85h1M541 85h1M543 85h1M549 85h1M551 85h1M553 85h1M57 86h1M69 86h1M89 86h1M101 86h1M127 86h1M153 86h1M165 86h1M185 86h1M191 86h1M197 86h1M217 86h1M229 86h1M255 86h1M281 86h1M293 86h1M313 86h1M325 86h1M345 86h1M357 86h1M437 86h1M439 86h1M441 86h1M445 86h1M447 86h1M449 86h1M455 86h1M457 86h1M532 86h1M534 86h1M536 86h1M540 86h1M542 86h1M544 86h1M550 86h1M552 86h1M59 87h1M67 87h1M91 87h1M99 87h1M155 87h1M163 87h1M184 87h1M198 87h1M219 87h1M227 87h1M283 87h1M291 87h1M315 87h1M323 87h1M344 87h1M358 87h1M438 87h1M440 87h1M446 87h1M448 87h1M454 87h1M456 87h1M533 87h1M535 87h1M541 87h1M543 87h1M549 87h1M551 87h1M61 88h1M63 88h1M65 88h1M93 88h1M95 88h1M97 88h1M157 88h1M159 88h1M161 88h1M191 88h1M221 88h1M223 88h1M225 88h1M285 88h1M287 88h1M289 88h1M317 88h1M319 88h1M321 88h1M351 88h1M437 88h1M439 88h1M441 88h1M445 88h1M447 88h1M449 88h1M453 88h1M455 88h1M457 88h1M511 88h1M532 88h1M534 88h1M536 88h1M540 88h1M542 88h1M544 88h1M548 88h1M550 88h1M552 88h1M127 89h1M255 89h1M351 89h1M438 89h1M440 89h1M442 89h1M446 89h1M448 89h1M452 89h1M454 89h1M456 89h1M533 89h1M535 89h1M537 89h1M541 89h1M543 89h1M547 89h1M549 89h1M551 89h1M172 90h1M174 90h1M176 90h1M189 90h1M193 90h1M206 90h1M208 90h1M210 90h1M441 90h1M445 90h1M447 90h1M449 90h1M453 90h1M536 90h1M540 90h1M542 90h1M544 90h1M548 90h1M63 91h1M159 91h1M170 91h1M178 91h1M204 91h1M212 91h1M223 91h1M287 91h1M319 91h1M442 91h1M446 91h1M448 91h1M452 91h1M511 91h1M537 91h1M541 91h1M543 91h1M547 91h1M127 92h1M169 92h1M179 92h1M187 92h1M195 92h1M203 92h1M213 92h1M255 92h1M445 92h1M447 92h1M449 92h1M540 92h1M542 92h1M544 92h1M121 93h1M124 93h1M130 93h1M133 93h1M249 93h1M252 93h1M258 93h1M261 93h1M446 93h1M448 93h1M541 93h1M543 93h1M63 94h1M159 94h1M168 94h1M180 94h1M185 94h1M197 94h1M202 94h1M214 94h1M223 94h1M287 94h1M319 94h1M447 94h1M511 94h1M542 94h1M168 96h1M180 96h1M183 96h1M199 96h1M202 96h1M214 96h1M63 97h1M159 97h1M223 97h1M287 97h1M319 97h1M511 97h1M121 98h1M124 98h1M127 98h1M130 98h1M133 98h1M168 98h1M180 98h1M185 98h1M197 98h1M202 98h1M214 98h1M249 98h1M252 98h1M255 98h1M258 98h1M261 98h1M407 99h1M63 100h1M159 100h1M169 100h1M179 100h1M187 100h1M195 100h1M203 100h1M213 100h1M223 100h1M287 100h1M319 100h1M408 100h1M511 100h1M127 101h1M170 101h1M178 101h1M204 101h1M212 101h1M255 101h1M407 101h1M409 101h1M172 102h1M174 102h1M176 102h1M189 102h1M193 102h1M206 102h1M208 102h1M210 102h1M406 102h1M408 102h1M410 102h1M540 102h1M542 102h1M544 102h1M63 103h1M159 103h1M223 103h1M287 103h1M319 103h1M407 103h1M409 103h1M411 103h1M511 103h1M538 103h1M546 103h1M125 104h1M127 104h1M129 104h1M191 104h1M253 104h1M255 104h1M257 104h1M406 104h1M408 104h1M410 104h1M412 104h1M537 104h1M547 104h1M123 105h1M131 105h1M184 105h1M198 105h1M251 105h1M259 105h1M405 105h1M407 105h1M409 105h1M411 105h1M413 105h1M63 106h1M121 106h1M133 106h1M159 106h1M185 106h1M191 106h1M197 106h1M223 106h1M249 106h1M261 106h1M287 106h1M319 106h1M406 106h1M408 106h1M410 106h1M412 106h1M414 106h1M511 106h1M536 106h1M548 106h1M405 107h1M407 107h1M409 107h1M411 107h1M413 107h1M415 107h1M61 108h1M65 108h1M93 108h1M97 108h1M120 108h1M125 108h1M129 108h1M134 108h1M157 108h1M161 108h1M189 108h1M193 108h1M221 108h1M225 108h1M248 108h1M253 108h1M257 108h1M262 108h1M285 108h1M289 108h1M317 108h1M321 108h1M349 108h1M353 108h1M404 108h1M406 108h1M408 108h1M410 108h1M412 108h1M414 108h1M536 108h1M548 108h1M405 109h1M407 109h1M409 109h1M411 109h1M413 109h1M511 109h1M59 110h1M63 110h1M67 110h1M91 110h1M95 110h1M99 110h1M119 110h1M123 110h1M127 110h1M131 110h1M135 110h1M155 110h1M159 110h1M163 110h1M187 110h1M191 110h1M195 110h1M219 110h1M223 110h1M227 110h1M247 110h1M251 110h1M255 110h1M259 110h1M263 110h1M283 110h1M287 110h1M291 110h1M315 110h1M319 110h1M323 110h1M347 110h1M351 110h1M355 110h1M404 110h1M406 110h1M408 110h1M410 110h1M412 110h1M536 110h1M548 110h1M403 111h1M405 111h1M407 111h1M409 111h1M411 111h1M61 112h1M65 112h1M70 112h1M73 112h1M76 112h1M79 112h1M82 112h1M85 112h1M88 112h1M93 112h1M97 112h1M119 112h1M125 112h1M129 112h1M135 112h1M157 112h1M161 112h1M182 112h2M189 112h1M193 112h1M199 112h2M221 112h1M225 112h1M247 112h1M253 112h1M257 112h1M263 112h1M285 112h1M289 112h1M317 112h1M321 112h1M349 112h1M353 112h1M404 112h1M406 112h1M408 112h1M410 112h1M511 112h1M537 112h1M547 112h1M403 113h1M405 113h1M407 113h1M409 113h1M538 113h1M546 113h1M59 114h1M63 114h1M67 114h1M91 114h1M95 114h1M99 114h1M119 114h1M123 114h1M127 114h1M131 114h1M135 114h1M155 114h1M159 114h1M163 114h1M187 114h1M191 114h1M195 114h1M219 114h1M223 114h1M227 114h1M247 114h1M251 114h1M255 114h1M259 114h1M263 114h1M283 114h1M287 114h1M291 114h1M315 114h1M319 114h1M323 114h1M347 114h1M351 114h1M355 114h1M402 114h1M404 114h1M406 114h1M408 114h1M540 114h1M542 114h1M544 114h1M401 115h1M403 115h1M405 115h1M407 115h1M511 115h1M61 116h1M65 116h1M93 116h1M97 116h1M120 116h1M125 116h1M129 116h1M134 116h1M157 116h1M161 116h1M189 116h1M193 116h1M221 116h1M225 116h1M248 116h1M253 116h1M257 116h1M262 116h1M285 116h1M289 116h1M317 116h1M321 116h1M349 116h1M353 116h1M356 116h1M402 116h1M404 116h1M406 116h1M401 117h1M403 117h1M405 117h1M425 117h1M63 118h1M95 118h1M121 118h1M133 118h1M159 118h1M185 118h1M197 118h1M223 118h1M249 118h1M261 118h1M287 118h1M319 118h1M400 118h1M402 118h1M404 118h1M422 118h1M424 118h1M426 118h1M511 118h1M123 119h1M131 119h1M184 119h1M198 119h1M251 119h1M259 119h1M359 119h1M401 119h1M403 119h1M419 119h1M421 119h1M423 119h1M425 119h1M427 119h1M125 120h1M127 120h1M129 120h1M191 120h1M253 120h1M255 120h1M257 120h1M400 120h1M402 120h1M416 120h1M418 120h1M420 120h1M422 120h1M424 120h1M426 120h1M428 120h1M63 121h1M95 121h1M159 121h1M191 121h1M223 121h1M287 121h1M319 121h1M399 121h1M401 121h1M413 121h1M415 121h1M417 121h1M419 121h1M421 121h1M423 121h1M425 121h1M427 121h1M429 121h1M511 121h1M362 122h1M400 122h1M410 122h1M412 122h1M414 122h1M416 122h1M418 122h1M420 122h1M430 122h1M399 123h1M407 123h1M409 123h1M411 123h1M413 123h1M415 123h1M417 123h1M431 123h1M529 123h1M538 123h1M540 123h1M557 123h1M63 124h1M95 124h1M159 124h1M223 124h1M287 124h1M319 124h1M398 124h1M404 124h1M406 124h1M408 124h1M410 124h1M412 124h1M414 124h1M416 124h1M432 124h1M511 124h1M537 124h1M541 124h1M365 125h1M401 125h1M403 125h1M405 125h1M407 125h1M409 125h1M411 125h1M413 125h1M415 125h1M529 125h1M557 125h1M400 126h1M402 126h1M404 126h1M406 126h1M408 126h1M410 126h1M412 126h1M414 126h1M434 126h1M537 126h1M541 126h1M63 127h1M95 127h1M159 127h1M223 127h1M287 127h1M319 127h1M399 127h1M401 127h1M403 127h1M405 127h1M407 127h1M409 127h1M411 127h1M413 127h1M433 127h1M435 127h1M511 127h1M529 127h1M538 127h1M540 127h1M557 127h1M368 128h1M400 128h1M402 128h1M404 128h1M406 128h1M408 128h1M410 128h1M412 128h1M432 128h1M434 128h1M546 128h1M548 128h1M401 129h1M403 129h1M405 129h1M407 129h1M409 129h1M411 129h1M413 129h1M431 129h1M433 129h1M435 129h1M529 129h1M545 129h1M549 129h1M557 129h1M63 130h1M95 130h1M159 130h1M223 130h1M287 130h1M319 130h1M402 130h1M404 130h1M406 130h1M408 130h1M410 130h1M412 130h1M430 130h1M432 130h1M434 130h1M436 130h1M509 130h1M511 130h1M371 131h1M403 131h1M405 131h1M407 131h1M409 131h1M411 131h1M429 131h1M431 131h1M433 131h1M435 131h1M529 131h1M545 131h1M549 131h1M557 131h1M404 132h1M406 132h1M408 132h1M410 132h1M412 132h1M428 132h1M430 132h1M432 132h1M434 132h1M436 132h1M546 132h1M548 132h1M63 133h1M95 133h1M159 133h1M223 133h1M287 133h1M319 133h1M405 133h1M407 133h1M409 133h1M411 133h1M427 133h1M429 133h1M431 133h1M433 133h1M435 133h1M437 133h1M506 133h1M511 133h1M529 133h1M557 133h1M374 134h1M406 134h1M408 134h1M410 134h1M426 134h1M428 134h1M430 134h1M432 134h1M434 134h1M436 134h1M407 135h1M409 135h1M411 135h1M425 135h1M427 135h1M429 135h1M431 135h1M433 135h1M435 135h1M437 135h1M529 135h1M531 135h1M533 135h1M535 135h1M537 135h1M539 135h1M541 135h1M557 135h1M63 136h1M95 136h1M159 136h1M223 136h1M287 136h1M319 136h1M408 136h1M410 136h1M424 136h1M426 136h1M428 136h1M430 136h1M432 136h1M434 136h1M436 136h1M503 136h1M511 136h1M377 137h1M409 137h1M411 137h1M423 137h1M425 137h1M427 137h1M429 137h1M431 137h1M433 137h1M435 137h1M437 137h1M410 138h1M412 138h1M422 138h1M424 138h1M426 138h1M428 138h1M430 138h1M432 138h1M434 138h1M436 138h1M63 139h1M95 139h1M159 139h1M223 139h1M287 139h1M319 139h1M411 139h1M421 139h1M423 139h1M425 139h1M427 139h1M429 139h1M431 139h1M433 139h1M435 139h1M437 139h1M500 139h1M511 139h1M380 140h1M412 140h1M420 140h1M422 140h1M424 140h1M426 140h1M428 140h1M430 140h1M432 140h1M434 140h1M436 140h1M529 140h1M531 140h1M533 140h1M535 140h1M541 140h1M545 140h1M547 140h1M549 140h1M551 140h1M553 140h1M555 140h1M557 140h1M413 141h1M419 141h1M421 141h1M423 141h1M425 141h1M427 141h1M429 141h1M431 141h1M433 141h1M435 141h1M63 142h1M95 142h1M159 142h1M223 142h1M287 142h1M319 142h1M414 142h1M418 142h1M420 142h1M422 142h1M424 142h1M426 142h1M428 142h1M430 142h1M432 142h1M434 142h1M497 142h1M511 142h1M535 142h1M541 142h1M557 142h1M383 143h1M417 143h1M419 143h1M421 143h1M423 143h1M425 143h1M427 143h1M429 143h1M431 143h1M433 143h1M416 144h1M418 144h1M420 144h1M422 144h1M424 144h1M426 144h1M428 144h1M430 144h1M432 144h1M535 144h1M541 144h1M546 144h1M548 144h1M557 144h1M63 145h1M95 145h1M159 145h1M223 145h1M287 145h1M319 145h1M417 145h1M419 145h1M421 145h1M423 145h1M425 145h1M427 145h1M429 145h1M431 145h1M494 145h1M511 145h1M545 145h1M549 145h1M383 146h1M418 146h1M420 146h1M422 146h1M424 146h1M426 146h1M428 146h1M430 146h1M535 146h1M541 146h1M557 146h1M421 147h1M423 147h1M425 147h1M427 147h1M545 147h1M549 147h1M63 148h1M95 148h1M159 148h1M223 148h1M287 148h1M319 148h1M491 148h1M511 148h1M535 148h1M541 148h1M546 148h1M548 148h1M557 148h1M383 149h1M535 150h1M541 150h1M557 150h1M63 151h1M95 151h1M159 151h1M223 151h1M287 151h1M319 151h1M488 151h1M511 151h1M383 152h1M535 152h1M537 152h1M539 152h1M541 152h1M545 152h1M547 152h1M549 152h1M551 152h1M553 152h1M555 152h1M557 152h1M63 154h1M95 154h1M159 154h1M223 154h1M287 154h1M319 154h1M485 154h1M511 154h1M383 155h1M63 157h1M95 157h1M159 157h1M223 157h1M287 157h1M319 157h1M482 157h1M511 157h1M383 158h1M63 160h1M95 160h1M159 160h1M223 160h1M287 160h1M319 160h1M479 160h1M511 160h1M383 161h1M63 163h1M95 163h1M159 163h1M223 163h1M284 163h1M319 163h1M476 163h1M511 163h1M514 163h1M383 164h1M59 166h1M67 166h1M95 166h1M159 166h1M223 166h1M251 166h1M259 166h1M281 166h1M319 166h1M443 166h1M451 166h1M473 166h1M511 166h1M517 166h1M539 166h1M547 166h1M383 167h1M53 168h1M57 168h1M69 168h1M73 168h1M245 168h1M249 168h1M261 168h1M265 168h1M437 168h1M441 168h1M453 168h1M457 168h1M533 168h1M537 168h1M549 168h1M553 168h1M95 169h1M159 169h1M223 169h1M278 169h1M319 169h1M470 169h1M511 169h1M520 169h1M51 170h1M55 170h1M59 170h1M67 170h1M71 170h1M75 170h1M243 170h1M247 170h1M251 170h1M259 170h1M263 170h1M267 170h1M383 170h1M435 170h1M439 170h1M443 170h1M451 170h1M455 170h1M459 170h1M531 170h1M535 170h1M539 170h1M547 170h1M551 170h1M555 170h1M45 172h1M49 172h1M53 172h1M57 172h1M69 172h1M73 172h1M77 172h1M81 172h1M95 172h1M159 172h1M223 172h1M237 172h1M241 172h1M245 172h1M249 172h1M261 172h1M265 172h1M269 172h1M273 172h1M275 172h1M319 172h1M429 172h1M433 172h1M437 172h1M441 172h1M453 172h1M457 172h1M461 172h1M465 172h1M467 172h1M511 172h1M523 172h1M525 172h1M529 172h1M533 172h1M537 172h1M549 172h1M553 172h1M557 172h1M561 172h1M383 173h1M43 174h1M47 174h1M51 174h1M55 174h1M59 174h1M67 174h1M71 174h1M75 174h1M79 174h1M83 174h1M235 174h1M239 174h1M243 174h1M247 174h1M251 174h1M259 174h1M263 174h1M267 174h1M271 174h1M275 174h1M427 174h1M431 174h1M435 174h1M439 174h1M443 174h1M451 174h1M455 174h1M459 174h1M463 174h1M467 174h1M523 174h1M527 174h1M531 174h1M535 174h1M539 174h1M547 174h1M551 174h1M555 174h1M559 174h1M563 174h1M95 175h1M159 175h1M223 175h1M319 175h1M511 175h1M45 176h1M49 176h1M53 176h1M57 176h1M69 176h1M73 176h1M77 176h1M81 176h1M237 176h1M241 176h1M245 176h1M249 176h1M261 176h1M265 176h1M269 176h1M273 176h1M383 176h1M429 176h1M433 176h1M437 176h1M441 176h1M453 176h1M457 176h1M461 176h1M465 176h1M525 176h1M529 176h1M533 176h1M537 176h1M549 176h1M553 176h1M557 176h1M561 176h1M43 178h1M47 178h1M51 178h1M55 178h1M59 178h1M67 178h1M71 178h1M75 178h1M79 178h1M83 178h1M95 178h1M223 178h1M235 178h1M239 178h1M243 178h1M247 178h1M251 178h1M259 178h1M263 178h1M267 178h1M271 178h1M275 178h1M319 178h1M427 178h1M431 178h1M435 178h1M439 178h1M443 178h1M451 178h1M455 178h1M459 178h1M463 178h1M467 178h1M511 178h1M523 178h1M527 178h1M531 178h1M535 178h1M539 178h1M547 178h1M551 178h1M555 178h1M559 178h1M563 178h1M157 179h1M159 179h1M161 179h1M349 179h1M351 179h1M353 179h1M383 179h1M41 180h1M45 180h1M49 180h1M53 180h1M57 180h1M61 180h1M65 180h1M69 180h1M73 180h1M77 180h1M81 180h1M85 180h1M154 180h1M156 180h1M158 180h1M160 180h1M162 180h1M164 180h1M233 180h1M237 180h1M241 180h1M245 180h1M249 180h1M253 180h1M257 180h1M261 180h1M265 180h1M269 180h1M273 180h1M277 180h1M346 180h1M348 180h1M350 180h1M352 180h1M354 180h1M356 180h1M425 180h1M429 180h1M433 180h1M437 180h1M441 180h1M445 180h1M449 180h1M453 180h1M457 180h1M461 180h1M465 180h1M469 180h1M521 180h1M525 180h1M529 180h1M533 180h1M537 180h1M541 180h1M545 180h1M549 180h1M553 180h1M557 180h1M561 180h1M565 180h1M95 181h1M153 181h1M155 181h1M157 181h1M159 181h1M161 181h1M163 181h1M165 181h1M223 181h1M319 181h1M345 181h1M347 181h1M349 181h1M351 181h1M353 181h1M355 181h1M357 181h1M511 181h1M39 182h1M43 182h1M47 182h1M51 182h1M55 182h1M59 182h1M63 182h1M67 182h1M71 182h1M75 182h1M79 182h1M83 182h1M87 182h1M150 182h1M152 182h1M154 182h1M156 182h1M158 182h1M160 182h1M162 182h1M164 182h1M166 182h1M168 182h1M231 182h1M235 182h1M239 182h1M243 182h1M247 182h1M251 182h1M255 182h1M259 182h1M263 182h1M267 182h1M271 182h1M275 182h1M279 182h1M342 182h1M344 182h1M346 182h1M348 182h1M350 182h1M352 182h1M354 182h1M356 182h1M358 182h1M360 182h1M383 182h1M423 182h1M427 182h1M431 182h1M435 182h1M439 182h1M443 182h1M447 182h1M451 182h1M455 182h1M459 182h1M463 182h1M467 182h1M471 182h1M519 182h1M523 182h1M527 182h1M531 182h1M535 182h1M539 182h1M543 182h1M547 182h1M551 182h1M555 182h1M559 182h1M563 182h1M567 182h1M149 183h1M151 183h1M153 183h1M155 183h1M157 183h1M159 183h1M161 183h1M163 183h1M165 183h1M167 183h1M169 183h1M341 183h1M343 183h1M345 183h1M347 183h1M349 183h1M351 183h1M353 183h1M355 183h1M357 183h1M359 183h1M361 183h1M41 184h1M45 184h1M49 184h1M53 184h1M57 184h1M61 184h1M65 184h1M69 184h1M73 184h1M77 184h1M81 184h1M85 184h1M95 184h1M150 184h1M152 184h1M166 184h1M168 184h1M223 184h1M233 184h1M237 184h1M241 184h1M245 184h1M249 184h1M253 184h1M257 184h1M261 184h1M265 184h1M269 184h1M273 184h1M277 184h1M319 184h1M342 184h1M344 184h1M358 184h1M360 184h1M425 184h1M429 184h1M433 184h1M437 184h1M441 184h1M445 184h1M449 184h1M453 184h1M457 184h1M461 184h1M465 184h1M469 184h1M511 184h1M521 184h1M525 184h1M529 184h1M533 184h1M537 184h1M541 184h1M545 184h1M549 184h1M553 184h1M557 184h1M561 184h1M565 184h1M149 185h1M151 185h1M153 185h1M167 185h1M169 185h1M341 185h1M343 185h1M345 185h1M359 185h1M361 185h1M383 185h1M39 186h1M43 186h1M47 186h1M51 186h1M55 186h1M59 186h1M63 186h1M67 186h1M71 186h1M75 186h1M79 186h1M83 186h1M87 186h1M148 186h1M150 186h1M152 186h1M166 186h1M168 186h1M170 186h1M231 186h1M235 186h1M239 186h1M243 186h1M247 186h1M251 186h1M255 186h1M259 186h1M263 186h1M267 186h1M271 186h1M275 186h1M279 186h1M340 186h1M342 186h1M344 186h1M358 186h1M360 186h1M362 186h1M423 186h1M427 186h1M431 186h1M435 186h1M439 186h1M443 186h1M447 186h1M451 186h1M455 186h1M459 186h1M463 186h1M467 186h1M471 186h1M519 186h1M523 186h1M527 186h1M531 186h1M535 186h1M539 186h1M543 186h1M547 186h1M551 186h1M555 186h1M559 186h1M563 186h1M567 186h1M95 187h1M147 187h1M149 187h1M151 187h1M167 187h1M169 187h1M171 187h1M223 187h1M319 187h1M339 187h1M341 187h1M343 187h1M359 187h1M361 187h1M363 187h1M511 187h1M37 188h1M41 188h1M45 188h1M49 188h1M53 188h1M57 188h1M61 188h1M65 188h1M69 188h1M73 188h1M77 188h1M81 188h1M85 188h1M89 188h1M148 188h1M150 188h1M168 188h1M170 188h1M229 188h1M233 188h1M237 188h1M241 188h1M245 188h1M249 188h1M253 188h1M257 188h1M261 188h1M265 188h1M269 188h1M273 188h1M277 188h1M281 188h1M340 188h1M342 188h1M360 188h1M362 188h1M383 188h1M421 188h1M425 188h1M429 188h1M433 188h1M437 188h1M441 188h1M445 188h1M449 188h1M453 188h1M457 188h1M461 188h1M465 188h1M469 188h1M473 188h1M517 188h1M521 188h1M525 188h1M529 188h1M533 188h1M537 188h1M541 188h1M545 188h1M549 188h1M553 188h1M557 188h1M561 188h1M565 188h1M569 188h1M147 189h1M149 189h1M151 189h1M167 189h1M169 189h1M171 189h1M339 189h1M341 189h1M343 189h1M359 189h1M361 189h1M363 189h1M39 190h1M43 190h1M47 190h1M51 190h1M55 190h1M59 190h1M63 190h1M67 190h1M71 190h1M75 190h1M79 190h1M83 190h1M87 190h1M146 190h1M148 190h1M150 190h1M168 190h1M170 190h1M172 190h1M223 190h1M231 190h1M235 190h1M239 190h1M243 190h1M247 190h1M251 190h1M255 190h1M259 190h1M263 190h1M267 190h1M271 190h1M275 190h1M279 190h1M319 190h1M338 190h1M340 190h1M342 190h1M360 190h1M362 190h1M364 190h1M423 190h1M427 190h1M431 190h1M435 190h1M439 190h1M443 190h1M447 190h1M451 190h1M455 190h1M459 190h1M463 190h1M467 190h1M471 190h1M511 190h1M519 190h1M523 190h1M527 190h1M531 190h1M535 190h1M539 190h1M543 190h1M547 190h1M551 190h1M555 190h1M559 190h1M563 190h1M567 190h1M147 191h1M149 191h1M159 191h1M169 191h1M171 191h1M339 191h1M341 191h1M351 191h1M361 191h1M363 191h1M37 192h1M41 192h1M45 192h1M49 192h1M53 192h1M57 192h1M61 192h1M65 192h1M69 192h1M73 192h1M77 192h1M81 192h1M85 192h1M89 192h1M92 192h1M95 192h1M98 192h1M101 192h1M104 192h1M107 192h1M110 192h1M113 192h1M116 192h1M119 192h1M122 192h1M125 192h1M128 192h1M131 192h1M134 192h1M137 192h1M140 192h1M143 192h1M146 192h1M148 192h1M158 192h1M160 192h1M170 192h1M172 192h1M229 192h1M233 192h1M237 192h1M241 192h1M245 192h1M249 192h1M253 192h1M257 192h1M261 192h1M265 192h1M269 192h1M273 192h1M277 192h1M281 192h1M338 192h1M340 192h1M350 192h1M352 192h1M362 192h1M364 192h2M368 192h1M371 192h1M374 192h1M377 192h1M380 192h1M383 192h1M386 192h1M389 192h1M392 192h1M395 192h1M398 192h1M401 192h1M404 192h1M407 192h1M410 192h1M413 192h1M416 192h1M419 192h1M421 192h1M425 192h1M429 192h1M433 192h1M437 192h1M441 192h1M445 192h1M449 192h1M453 192h1M457 192h1M461 192h1M465 192h1M469 192h1M473 192h1M517 192h1M521 192h1M525 192h1M529 192h1M533 192h1M537 192h1M541 192h1M545 192h1M549 192h1M553 192h1M557 192h1M561 192h1M565 192h1M569 192h1M147 193h1M149 193h1M157 193h1M159 193h1M161 193h1M169 193h1M171 193h1M223 193h1M319 193h1M339 193h1M341 193h1M349 193h1M351 193h1M353 193h1M361 193h1M363 193h1M511 193h1M39 194h1M43 194h1M47 194h1M51 194h1M55 194h1M59 194h1M63 194h1M67 194h1M71 194h1M75 194h1M79 194h1M83 194h1M87 194h1M146 194h1M148 194h1M150 194h1M158 194h1M160 194h1M168 194h1M170 194h1M172 194h1M231 194h1M235 194h1M239 194h1M243 194h1M247 194h1M251 194h1M255 194h1M259 194h1M263 194h1M267 194h1M271 194h1M275 194h1M279 194h1M338 194h1M340 194h1M342 194h1M350 194h1M352 194h1M360 194h1M362 194h1M364 194h1M423 194h1M427 194h1M431 194h1M435 194h1M439 194h1M443 194h1M447 194h1M451 194h1M455 194h1M459 194h1M463 194h1M467 194h1M471 194h1M519 194h1M523 194h1M527 194h1M531 194h1M535 194h1M539 194h1M543 194h1M547 194h1M551 194h1M555 194h1M559 194h1M563 194h1M567 194h1M147 195h1M149 195h1M151 195h1M157 195h1M159 195h1M161 195h1M167 195h1M169 195h1M171 195h1M339 195h1M341 195h1M343 195h1M349 195h1M351 195h1M353 195h1M359 195h1M361 195h1M363 195h1M37 196h1M41 196h1M45 196h1M49 196h1M53 196h1M57 196h1M61 196h1M65 196h1M69 196h1M73 196h1M77 196h1M81 196h1M85 196h1M89 196h1M148 196h1M150 196h1M158 196h1M160 196h1M168 196h1M170 196h1M223 196h1M229 196h1M233 196h1M237 196h1M241 196h1M245 196h1M249 196h1M253 196h1M257 196h1M261 196h1M265 196h1M269 196h1M273 196h1M277 196h1M281 196h1M319 196h1M340 196h1M342 196h1M350 196h1M352 196h1M360 196h1M362 196h1M383 196h1M421 196h1M425 196h1M429 196h1M433 196h1M437 196h1M441 196h1M445 196h1M449 196h1M453 196h1M457 196h1M461 196h1M465 196h1M469 196h1M473 196h1M511 196h1M517 196h1M521 196h1M525 196h1M529 196h1M533 196h1M537 196h1M541 196h1M545 196h1M549 196h1M553 196h1M557 196h1M561 196h1M565 196h1M569 196h1M95 197h1M147 197h1M149 197h1M151 197h1M157 197h1M159 197h1M161 197h1M167 197h1M169 197h1M171 197h1M339 197h1M341 197h1M343 197h1M349 197h1M351 197h1M353 197h1M359 197h1M361 197h1M363 197h1M39 198h1M43 198h1M47 198h1M51 198h1M55 198h1M59 198h1M63 198h1M67 198h1M71 198h1M75 198h1M79 198h1M83 198h1M87 198h1M148 198h1M150 198h1M152 198h1M158 198h1M160 198h1M166 198h1M168 198h1M170 198h1M231 198h1M235 198h1M239 198h1M243 198h1M247 198h1M251 198h1M255 198h1M259 198h1M263 198h1M267 198h1M271 198h1M275 198h1M279 198h1M340 198h1M342 198h1M344 198h1M350 198h1M352 198h1M358 198h1M360 198h1M362 198h1M423 198h1M427 198h1M431 198h1M435 198h1M439 198h1M443 198h1M447 198h1M451 198h1M455 198h1M459 198h1M463 198h1M467 198h1M471 198h1M519 198h1M523 198h1M527 198h1M531 198h1M535 198h1M539 198h1M543 198h1M547 198h1M551 198h1M555 198h1M559 198h1M563 198h1M567 198h1M149 199h1M151 199h1M153 199h1M157 199h1M159 199h1M161 199h1M167 199h1M169 199h1M223 199h1M319 199h1M341 199h1M343 199h1M345 199h1M349 199h1M351 199h1M353 199h1M359 199h1M361 199h1M383 199h1M511 199h1M41 200h1M45 200h1M49 200h1M53 200h1M57 200h1M61 200h1M65 200h1M69 200h1M73 200h1M77 200h1M81 200h1M85 200h1M95 200h1M150 200h1M152 200h1M158 200h1M160 200h1M166 200h1M168 200h1M233 200h1M237 200h1M241 200h1M245 200h1M249 200h1M253 200h1M257 200h1M261 200h1M265 200h1M269 200h1M273 200h1M277 200h1M342 200h1M344 200h1M350 200h1M352 200h1M358 200h1M360 200h1M425 200h1M429 200h1M433 200h1M437 200h1M441 200h1M445 200h1M449 200h1M453 200h1M457 200h1M461 200h1M465 200h1M469 200h1M521 200h1M525 200h1M529 200h1M533 200h1M537 200h1M541 200h1M545 200h1M549 200h1M553 200h1M557 200h1M561 200h1M565 200h1M149 201h1M151 201h1M153 201h1M157 201h1M159 201h1M161 201h1M165 201h1M167 201h1M169 201h1M341 201h1M343 201h1M345 201h1M349 201h1M351 201h1M353 201h1M357 201h1M359 201h1M361 201h1M39 202h1M43 202h1M47 202h1M51 202h1M55 202h1M59 202h1M63 202h1M67 202h1M71 202h1M75 202h1M79 202h1M83 202h1M87 202h1M150 202h1M152 202h1M154 202h1M158 202h1M160 202h1M164 202h1M166 202h1M168 202h1M223 202h1M231 202h1M235 202h1M239 202h1M243 202h1M247 202h1M251 202h1M255 202h1M259 202h1M263 202h1M267 202h1M271 202h1M275 202h1M279 202h1M319 202h1M342 202h1M344 202h1M346 202h1M350 202h1M352 202h1M356 202h1M358 202h1M360 202h1M383 202h1M423 202h1M427 202h1M431 202h1M435 202h1M439 202h1M443 202h1M447 202h1M451 202h1M455 202h1M459 202h1M463 202h1M467 202h1M471 202h1M511 202h1M519 202h1M523 202h1M527 202h1M531 202h1M535 202h1M539 202h1M543 202h1M547 202h1M551 202h1M555 202h1M559 202h1M563 202h1M567 202h1M95 203h1M153 203h1M157 203h1M159 203h1M161 203h1M165 203h1M345 203h1M349 203h1M351 203h1M353 203h1M357 203h1M41 204h1M45 204h1M49 204h1M53 204h1M57 204h1M61 204h1M65 204h1M69 204h1M73 204h1M77 204h1M81 204h1M85 204h1M154 204h1M158 204h1M160 204h1M164 204h1M233 204h1M237 204h1M241 204h1M245 204h1M249 204h1M253 204h1M257 204h1M261 204h1M265 204h1M269 204h1M273 204h1M277 204h1M346 204h1M350 204h1M352 204h1M356 204h1M425 204h1M429 204h1M433 204h1M437 204h1M441 204h1M445 204h1M449 204h1M453 204h1M457 204h1M461 204h1M465 204h1M469 204h1M521 204h1M525 204h1M529 204h1M533 204h1M537 204h1M541 204h1M545 204h1M549 204h1M553 204h1M557 204h1M561 204h1M565 204h1M157 205h1M159 205h1M161 205h1M223 205h1M319 205h1M349 205h1M351 205h1M353 205h1M383 205h1M511 205h1M43 206h1M47 206h1M51 206h1M55 206h1M59 206h1M63 206h1M67 206h1M71 206h1M75 206h1M79 206h1M83 206h1M95 206h1M158 206h1M160 206h1M235 206h1M239 206h1M243 206h1M247 206h1M251 206h1M255 206h1M259 206h1M263 206h1M267 206h1M271 206h1M275 206h1M350 206h1M352 206h1M427 206h1M431 206h1M435 206h1M439 206h1M443 206h1M447 206h1M451 206h1M455 206h1M459 206h1M463 206h1M467 206h1M523 206h1M527 206h1M531 206h1M535 206h1M539 206h1M543 206h1M547 206h1M551 206h1M555 206h1M559 206h1M563 206h1M159 207h1M351 207h1M45 208h1M49 208h1M53 208h1M57 208h1M61 208h1M65 208h1M69 208h1M73 208h1M77 208h1M81 208h1M223 208h1M237 208h1M241 208h1M245 208h1M249 208h1M253 208h1M257 208h1M261 208h1M265 208h1M269 208h1M273 208h1M319 208h1M383 208h1M429 208h1M433 208h1M437 208h1M441 208h1M445 208h1M449 208h1M453 208h1M457 208h1M461 208h1M465 208h1M511 208h1M525 208h1M529 208h1M533 208h1M537 208h1M541 208h1M545 208h1M549 208h1M553 208h1M557 208h1M561 208h1M95 209h1M159 209h1M43 210h1M47 210h1M51 210h1M55 210h1M59 210h1M63 210h1M67 210h1M71 210h1M75 210h1M79 210h1M83 210h1M235 210h1M239 210h1M243 210h1M247 210h1M251 210h1M255 210h1M259 210h1M263 210h1M267 210h1M271 210h1M275 210h1M427 210h1M431 210h1M435 210h1M439 210h1M443 210h1M447 210h1M451 210h1M455 210h1M459 210h1M463 210h1M467 210h1M523 210h1M527 210h1M531 210h1M535 210h1M539 210h1M543 210h1M547 210h1M551 210h1M555 210h1M559 210h1M563 210h1M223 211h1M319 211h1M383 211h1M511 211h1M45 212h1M49 212h1M53 212h1M57 212h1M61 212h1M65 212h1M69 212h1M73 212h1M77 212h1M81 212h1M95 212h1M159 212h1M237 212h1M241 212h1M245 212h1M249 212h1M253 212h1M257 212h1M261 212h1M265 212h1M269 212h1M273 212h1M429 212h1M433 212h1M437 212h1M441 212h1M445 212h1M449 212h1M453 212h1M457 212h1M461 212h1M465 212h1M525 212h1M529 212h1M533 212h1M537 212h1M541 212h1M545 212h1M549 212h1M553 212h1M557 212h1M561 212h1M51 214h1M55 214h1M59 214h1M63 214h1M67 214h1M71 214h1M75 214h1M223 214h1M243 214h1M247 214h1M251 214h1M255 214h1M259 214h1M263 214h1M267 214h1M319 214h1M383 214h1M435 214h1M439 214h1M443 214h1M447 214h1M451 214h1M455 214h1M459 214h1M511 214h1M531 214h1M535 214h1M539 214h1M543 214h1M547 214h1M551 214h1M555 214h1M95 215h1M159 215h1M53 216h1M57 216h1M61 216h1M65 216h1M69 216h1M73 216h1M245 216h1M249 216h1M253 216h1M257 216h1M261 216h1M265 216h1M437 216h1M441 216h1M445 216h1M449 216h1M453 216h1M457 216h1M533 216h1M537 216h1M541 216h1M545 216h1M549 216h1M553 216h1M223 217h1M319 217h1M383 217h1M511 217h1M59 218h1M63 218h1M67 218h1M95 218h1M159 218h1M251 218h1M255 218h1M259 218h1M443 218h1M447 218h1M451 218h1M539 218h1M543 218h1M547 218h1M223 220h1M319 220h1M383 220h1M511 220h1M95 221h1M159 221h1M223 223h1M319 223h1M383 223h1M511 223h1M95 224h1M159 224h1M223 226h1M319 226h1M385 226h1M509 226h1M511 226h1M537 226h1M542 226h1M544 226h1M549 226h1M95 227h1M159 227h1M541 227h1M545 227h1M537 228h1M549 228h1M223 229h1M319 229h1M388 229h1M506 229h1M511 229h1M541 229h1M545 229h1M95 230h1M159 230h1M537 230h1M542 230h1M544 230h1M549 230h1M223 232h1M319 232h1M391 232h1M503 232h1M511 232h1M537 232h1M549 232h1M95 233h1M159 233h1M537 234h1M549 234h1M223 235h1M319 235h1M394 235h1M500 235h1M511 235h1M95 236h1M159 236h1M537 236h1M549 236h1M223 238h1M319 238h1M397 238h1M497 238h1M511 238h1M537 238h1M539 238h1M541 238h1M543 238h1M545 238h1M547 238h1M549 238h1M95 239h1M159 239h1M223 241h1M319 241h1M400 241h1M494 241h1M511 241h1M95 242h1M159 242h1M223 244h1M319 244h1M403 244h1M491 244h1M511 244h1M95 245h1M159 245h1M223 247h1M319 247h1M406 247h1M488 247h1M511 247h1M95 248h1M159 248h1M223 250h1M319 250h1M409 250h1M485 250h1M511 250h1M95 251h1M159 251h1M223 253h1M319 253h1M412 253h1M482 253h1M511 253h1M95 254h1M159 254h1M223 256h1M319 256h1M415 256h1M479 256h1M511 256h1M94 257h1M159 257h1M226 259h1M322 259h1M418 259h1M476 259h1M514 259h1M91 260h1M159 260h1M59 262h1M67 262h1M155 262h1M163 262h1M229 262h1M251 262h1M259 262h1M325 262h1M347 262h1M355 262h1M421 262h1M443 262h1M451 262h1M473 262h1M517 262h1M539 262h1M547 262h1M88 263h1M53 264h1M57 264h1M69 264h1M73 264h1M149 264h1M153 264h1M165 264h1M169 264h1M245 264h1M249 264h1M261 264h1M265 264h1M341 264h1M345 264h1M357 264h1M361 264h1M437 264h1M441 264h1M453 264h1M457 264h1M533 264h1M537 264h1M549 264h1M553 264h1M232 265h1M328 265h1M424 265h1M470 265h1M520 265h1M51 266h1M55 266h1M59 266h1M67 266h1M71 266h1M75 266h1M85 266h1M147 266h1M151 266h1M155 266h1M163 266h1M167 266h1M171 266h1M243 266h1M247 266h1M251 266h1M259 266h1M263 266h1M267 266h1M339 266h1M343 266h1M347 266h1M355 266h1M359 266h1M363 266h1M435 266h1M439 266h1M443 266h1M451 266h1M455 266h1M459 266h1M531 266h1M535 266h1M539 266h1M547 266h1M551 266h1M555 266h1M45 268h1M49 268h1M53 268h1M57 268h1M69 268h1M73 268h1M77 268h1M81 268h1M141 268h1M145 268h1M149 268h1M153 268h1M165 268h1M169 268h1M173 268h1M177 268h1M235 268h1M237 268h1M241 268h1M245 268h1M249 268h1M261 268h1M265 268h1M269 268h1M273 268h1M331 268h1M333 268h1M337 268h1M341 268h1M345 268h1M357 268h1M361 268h1M365 268h1M369 268h1M427 268h1M429 268h1M433 268h1M437 268h1M441 268h1M453 268h1M457 268h1M461 268h1M465 268h1M467 268h1M523 268h1M525 268h1M529 268h1M533 268h1M537 268h1M549 268h1M553 268h1M557 268h1M561 268h1M43 270h1M47 270h1M51 270h1M55 270h1M59 270h1M67 270h1M71 270h1M75 270h1M79 270h1M83 270h1M139 270h1M143 270h1M147 270h1M151 270h1M155 270h1M163 270h1M167 270h1M171 270h1M175 270h1M179 270h1M235 270h1M239 270h1M243 270h1M247 270h1M251 270h1M259 270h1M263 270h1M267 270h1M271 270h1M275 270h1M331 270h1M335 270h1M339 270h1M343 270h1M347 270h1M355 270h1M359 270h1M363 270h1M367 270h1M371 270h1M427 270h1M431 270h1M435 270h1M439 270h1M443 270h1M451 270h1M455 270h1M459 270h1M463 270h1M467 270h1M523 270h1M527 270h1M531 270h1M535 270h1M539 270h1M547 270h1M551 270h1M555 270h1M559 270h1M563 270h1M45 272h1M49 272h1M53 272h1M57 272h1M69 272h1M73 272h1M77 272h1M81 272h1M141 272h1M145 272h1M149 272h1M153 272h1M165 272h1M169 272h1M173 272h1M177 272h1M237 272h1M241 272h1M245 272h1M249 272h1M261 272h1M265 272h1M269 272h1M273 272h1M333 272h1M337 272h1M341 272h1M345 272h1M357 272h1M361 272h1M365 272h1M369 272h1M429 272h1M433 272h1M437 272h1M441 272h1M453 272h1M457 272h1M461 272h1M465 272h1M525 272h1M529 272h1M533 272h1M537 272h1M549 272h1M553 272h1M557 272h1M561 272h1M43 274h1M47 274h1M51 274h1M55 274h1M59 274h1M67 274h1M71 274h1M75 274h1M79 274h1M83 274h1M139 274h1M143 274h1M147 274h1M151 274h1M155 274h1M163 274h1M167 274h1M171 274h1M175 274h1M179 274h1M235 274h1M239 274h1M243 274h1M247 274h1M251 274h1M259 274h1M263 274h1M267 274h1M271 274h1M275 274h1M331 274h1M335 274h1M339 274h1M343 274h1M347 274h1M355 274h1M359 274h1M363 274h1M367 274h1M371 274h1M427 274h1M431 274h1M435 274h1M439 274h1M443 274h1M451 274h1M455 274h1M459 274h1M463 274h1M467 274h1M523 274h1M527 274h1M531 274h1M535 274h1M539 274h1M547 274h1M551 274h1M555 274h1M559 274h1M563 274h1M41 276h1M45 276h1M49 276h1M53 276h1M57 276h1M61 276h1M65 276h1M69 276h1M73 276h1M77 276h1M81 276h1M85 276h1M137 276h1M141 276h1M145 276h1M149 276h1M153 276h1M157 276h1M161 276h1M165 276h1M169 276h1M173 276h1M177 276h1M181 276h1M233 276h1M237 276h1M241 276h1M245 276h1M249 276h1M253 276h1M257 276h1M261 276h1M265 276h1M269 276h1M273 276h1M277 276h1M329 276h1M333 276h1M337 276h1M341 276h1M345 276h1M349 276h1M353 276h1M357 276h1M361 276h1M365 276h1M369 276h1M373 276h1M425 276h1M429 276h1M433 276h1M437 276h1M441 276h1M445 276h1M449 276h1M453 276h1M457 276h1M461 276h1M465 276h1M469 276h1M521 276h1M525 276h1M529 276h1M533 276h1M537 276h1M541 276h1M545 276h1M549 276h1M553 276h1M557 276h1M561 276h1M565 276h1M39 278h1M43 278h1M47 278h1M51 278h1M55 278h1M59 278h1M63 278h1M67 278h1M71 278h1M75 278h1M79 278h1M83 278h1M87 278h1M135 278h1M139 278h1M143 278h1M147 278h1M151 278h1M155 278h1M159 278h1M163 278h1M167 278h1M171 278h1M175 278h1M179 278h1M183 278h1M231 278h1M235 278h1M239 278h1M243 278h1M247 278h1M251 278h1M255 278h1M259 278h1M263 278h1M267 278h1M271 278h1M275 278h1M279 278h1M327 278h1M331 278h1M335 278h1M339 278h1M343 278h1M347 278h1M351 278h1M355 278h1M359 278h1M363 278h1M367 278h1M371 278h1M375 278h1M423 278h1M427 278h1M431 278h1M435 278h1M439 278h1M443 278h1M447 278h1M451 278h1M455 278h1M459 278h1M463 278h1M467 278h1M471 278h1M519 278h1M523 278h1M527 278h1M531 278h1M535 278h1M539 278h1M543 278h1M547 278h1M551 278h1M555 278h1M559 278h1M563 278h1M567 278h1M41 280h1M45 280h1M49 280h1M53 280h1M57 280h1M61 280h1M65 280h1M69 280h1M73 280h1M77 280h1M81 280h1M85 280h1M137 280h1M141 280h1M145 280h1M149 280h1M153 280h1M157 280h1M161 280h1M165 280h1M169 280h1M173 280h1M177 280h1M181 280h1M233 280h1M237 280h1M241 280h1M245 280h1M249 280h1M253 280h1M257 280h1M261 280h1M265 280h1M269 280h1M273 280h1M277 280h1M329 280h1M333 280h1M337 280h1M341 280h1M345 280h1M349 280h1M353 280h1M357 280h1M361 280h1M365 280h1M369 280h1M373 280h1M425 280h1M429 280h1M433 280h1M437 280h1M441 280h1M445 280h1M449 280h1M453 280h1M457 280h1M461 280h1M465 280h1M469 280h1M521 280h1M525 280h1M529 280h1M533 280h1M537 280h1M541 280h1M545 280h1M549 280h1M553 280h1M557 280h1M561 280h1M565 280h1M39 282h1M43 282h1M47 282h1M51 282h1M55 282h1M59 282h1M63 282h1M67 282h1M71 282h1M75 282h1M79 282h1M83 282h1M87 282h1M135 282h1M139 282h1M143 282h1M147 282h1M151 282h1M155 282h1M159 282h1M163 282h1M167 282h1M171 282h1M175 282h1M179 282h1M183 282h1M231 282h1M235 282h1M239 282h1M243 282h1M247 282h1M251 282h1M255 282h1M259 282h1M263 282h1M267 282h1M271 282h1M275 282h1M279 282h1M327 282h1M331 282h1M335 282h1M339 282h1M343 282h1M347 282h1M351 282h1M355 282h1M359 282h1M363 282h1M367 282h1M371 282h1M375 282h1M423 282h1M427 282h1M431 282h1M435 282h1M439 282h1M443 282h1M447 282h1M451 282h1M455 282h1M459 282h1M463 282h1M467 282h1M471 282h1M519 282h1M523 282h1M527 282h1M531 282h1M535 282h1M539 282h1M543 282h1M547 282h1M551 282h1M555 282h1M559 282h1M563 282h1M567 282h1M37 284h1M41 284h1M45 284h1M49 284h1M53 284h1M57 284h1M61 284h1M65 284h1M69 284h1M73 284h1M77 284h1M81 284h1M85 284h1M89 284h1M133 284h1M137 284h1M141 284h1M145 284h1M149 284h1M153 284h1M157 284h1M161 284h1M165 284h1M169 284h1M173 284h1M177 284h1M181 284h1M185 284h1M229 284h1M233 284h1M237 284h1M241 284h1M245 284h1M249 284h1M253 284h1M257 284h1M261 284h1M265 284h1M269 284h1M273 284h1M277 284h1M281 284h1M325 284h1M329 284h1M333 284h1M337 284h1M341 284h1M345 284h1M349 284h1M353 284h1M357 284h1M361 284h1M365 284h1M369 284h1M373 284h1M377 284h1M421 284h1M425 284h1M429 284h1M433 284h1M437 284h1M441 284h1M445 284h1M449 284h1M453 284h1M457 284h1M461 284h1M465 284h1M469 284h1M473 284h1M517 284h1M521 284h1M525 284h1M529 284h1M533 284h1M537 284h1M541 284h1M545 284h1M549 284h1M553 284h1M557 284h1M561 284h1M565 284h1M569 284h1M39 286h1M43 286h1M47 286h1M51 286h1M55 286h1M59 286h1M63 286h1M67 286h1M71 286h1M75 286h1M79 286h1M83 286h1M87 286h1M135 286h1M139 286h1M143 286h1M147 286h1M151 286h1M155 286h1M159 286h1M163 286h1M167 286h1M171 286h1M175 286h1M179 286h1M183 286h1M231 286h1M235 286h1M239 286h1M243 286h1M247 286h1M251 286h1M255 286h1M259 286h1M263 286h1M267 286h1M271 286h1M275 286h1M279 286h1M327 286h1M331 286h1M335 286h1M339 286h1M343 286h1M347 286h1M351 286h1M355 286h1M359 286h1M363 286h1M367 286h1M371 286h1M375 286h1M423 286h1M427 286h1M431 286h1M435 286h1M439 286h1M443 286h1M447 286h1M451 286h1M455 286h1M459 286h1M463 286h1M467 286h1M471 286h1M519 286h1M523 286h1M527 286h1M531 286h1M535 286h1M539 286h1M543 286h1M547 286h1M551 286h1M555 286h1M559 286h1M563 286h1M567 286h1M37 288h1M41 288h1M45 288h1M49 288h1M53 288h1M57 288h1M61 288h1M65 288h1M69 288h1M73 288h1M77 288h1M81 288h1M85 288h1M89 288h1M133 288h1M137 288h1M141 288h1M145 288h1M149 288h1M153 288h1M157 288h1M161 288h1M165 288h1M169 288h1M173 288h1M177 288h1M181 288h1M185 288h1M229 288h1M233 288h1M237 288h1M241 288h1M245 288h1M249 288h1M253 288h1M257 288h1M261 288h1M265 288h1M269 288h1M273 288h1M277 288h1M281 288h1M325 288h1M329 288h1M333 288h1M337 288h1M341 288h1M345 288h1M349 288h1M353 288h1M357 288h1M361 288h1M365 288h1M369 288h1M373 288h1M377 288h1M421 288h1M425 288h1M429 288h1M433 288h1M437 288h1M441 288h1M445 288h1M449 288h1M453 288h1M457 288h1M461 288h1M465 288h1M469 288h1M473 288h1M517 288h1M521 288h1M525 288h1M529 288h1M533 288h1M537 288h1M541 288h1M545 288h1M549 288h1M553 288h1M557 288h1M561 288h1M565 288h1M569 288h1M39 290h1M43 290h1M47 290h1M51 290h1M55 290h1M59 290h1M63 290h1M67 290h1M71 290h1M75 290h1M79 290h1M83 290h1M87 290h1M135 290h1M139 290h1M143 290h1M147 290h1M151 290h1M155 290h1M159 290h1M163 290h1M167 290h1M171 290h1M175 290h1M179 290h1M183 290h1M231 290h1M235 290h1M239 290h1M243 290h1M247 290h1M251 290h1M255 290h1M259 290h1M263 290h1M267 290h1M271 290h1M275 290h1M279 290h1M327 290h1M331 290h1M335 290h1M339 290h1M343 290h1M347 290h1M351 290h1M355 290h1M359 290h1M363 290h1M367 290h1M371 290h1M375 290h1M423 290h1M427 290h1M431 290h1M435 290h1M439 290h1M443 290h1M447 290h1M451 290h1M455 290h1M459 290h1M463 290h1M467 290h1M471 290h1M519 290h1M523 290h1M527 290h1M531 290h1M535 290h1M539 290h1M543 290h1M547 290h1M551 290h1M555 290h1M559 290h1M563 290h1M567 290h1M37 292h1M41 292h1M45 292h1M49 292h1M53 292h1M57 292h1M61 292h1M65 292h1M69 292h1M73 292h1M77 292h1M81 292h1M85 292h1M89 292h1M133 292h1M137 292h1M141 292h1M145 292h1M149 292h1M153 292h1M157 292h1M161 292h1M165 292h1M169 292h1M173 292h1M177 292h1M181 292h1M185 292h1M229 292h1M233 292h1M237 292h1M241 292h1M245 292h1M249 292h1M253 292h1M257 292h1M261 292h1M265 292h1M269 292h1M273 292h1M277 292h1M281 292h1M325 292h1M329 292h1M333 292h1M337 292h1M341 292h1M345 292h1M349 292h1M353 292h1M357 292h1M361 292h1M365 292h1M369 292h1M373 292h1M377 292h1M421 292h1M425 292h1M429 292h1M433 292h1M437 292h1M441 292h1M445 292h1M449 292h1M453 292h1M457 292h1M461 292h1M465 292h1M469 292h1M473 292h1M517 292h1M521 292h1M525 292h1M529 292h1M533 292h1M537 292h1M541 292h1M545 292h1M549 292h1M553 292h1M557 292h1M561 292h1M565 292h1M569 292h1M39 294h1M43 294h1M47 294h1M51 294h1M55 294h1M59 294h1M63 294h1M67 294h1M71 294h1M75 294h1M79 294h1M83 294h1M87 294h1M135 294h1M139 294h1M143 294h1M147 294h1M151 294h1M155 294h1M159 294h1M163 294h1M167 294h1M171 294h1M175 294h1M179 294h1M183 294h1M231 294h1M235 294h1M239 294h1M243 294h1M247 294h1M251 294h1M255 294h1M259 294h1M263 294h1M267 294h1M271 294h1M275 294h1M279 294h1M327 294h1M331 294h1M335 294h1M339 294h1M343 294h1M347 294h1M351 294h1M355 294h1M359 294h1M363 294h1M367 294h1M371 294h1M375 294h1M423 294h1M427 294h1M431 294h1M435 294h1M439 294h1M443 294h1M447 294h1M451 294h1M455 294h1M459 294h1M463 294h1M467 294h1M471 294h1M519 294h1M523 294h1M527 294h1M531 294h1M535 294h1M539 294h1M543 294h1M547 294h1M551 294h1M555 294h1M559 294h1M563 294h1M567 294h1M41 296h1M45 296h1M49 296h1M53 296h1M57 296h1M61 296h1M65 296h1M69 296h1M73 296h1M77 296h1M81 296h1M85 296h1M137 296h1M141 296h1M145 296h1M149 296h1M153 296h1M157 296h1M161 296h1M165 296h1M169 296h1M173 296h1M177 296h1M181 296h1M233 296h1M237 296h1M241 296h1M245 296h1M249 296h1M253 296h1M257 296h1M261 296h1M265 296h1M269 296h1M273 296h1M277 296h1M329 296h1M333 296h1M337 296h1M341 296h1M345 296h1M349 296h1M353 296h1M357 296h1M361 296h1M365 296h1M369 296h1M373 296h1M425 296h1M429 296h1M433 296h1M437 296h1M441 296h1M445 296h1M449 296h1M453 296h1M457 296h1M461 296h1M465 296h1M469 296h1M521 296h1M525 296h1M529 296h1M533 296h1M537 296h1M541 296h1M545 296h1M549 296h1M553 296h1M557 296h1M561 296h1M565 296h1M39 298h1M43 298h1M47 298h1M51 298h1M55 298h1M59 298h1M63 298h1M67 298h1M71 298h1M75 298h1M79 298h1M83 298h1M87 298h1M135 298h1M139 298h1M143 298h1M147 298h1M151 298h1M155 298h1M159 298h1M163 298h1M167 298h1M171 298h1M175 298h1M179 298h1M183 298h1M231 298h1M235 298h1M239 298h1M243 298h1M247 298h1M251 298h1M255 298h1M259 298h1M263 298h1M267 298h1M271 298h1M275 298h1M279 298h1M327 298h1M331 298h1M335 298h1M339 298h1M343 298h1M347 298h1M351 298h1M355 298h1M359 298h1M363 298h1M367 298h1M371 298h1M375 298h1M423 298h1M427 298h1M431 298h1M435 298h1M439 298h1M443 298h1M447 298h1M451 298h1M455 298h1M459 298h1M463 298h1M467 298h1M471 298h1M519 298h1M523 298h1M527 298h1M531 298h1M535 298h1M539 298h1M543 298h1M547 298h1M551 298h1M555 298h1M559 298h1M563 298h1M567 298h1M41 300h1M45 300h1M49 300h1M53 300h1M57 300h1M61 300h1M65 300h1M69 300h1M73 300h1M77 300h1M81 300h1M85 300h1M137 300h1M141 300h1M145 300h1M149 300h1M153 300h1M157 300h1M161 300h1M165 300h1M169 300h1M173 300h1M177 300h1M181 300h1M233 300h1M237 300h1M241 300h1M245 300h1M249 300h1M253 300h1M257 300h1M261 300h1M265 300h1M269 300h1M273 300h1M277 300h1M329 300h1M333 300h1M337 300h1M341 300h1M345 300h1M349 300h1M353 300h1M357 300h1M361 300h1M365 300h1M369 300h1M373 300h1M425 300h1M429 300h1M433 300h1M437 300h1M441 300h1M445 300h1M449 300h1M453 300h1M457 300h1M461 300h1M465 300h1M469 300h1M521 300h1M525 300h1M529 300h1M533 300h1M537 300h1M541 300h1M545 300h1M549 300h1M553 300h1M557 300h1M561 300h1M565 300h1M43 302h1M47 302h1M51 302h1M55 302h1M59 302h1M63 302h1M67 302h1M71 302h1M75 302h1M79 302h1M83 302h1M139 302h1M143 302h1M147 302h1M151 302h1M155 302h1M159 302h1M163 302h1M167 302h1M171 302h1M175 302h1M179 302h1M235 302h1M239 302h1M243 302h1M247 302h1M251 302h1M255 302h1M259 302h1M263 302h1M267 302h1M271 302h1M275 302h1M331 302h1M335 302h1M339 302h1M343 302h1M347 302h1M351 302h1M355 302h1M359 302h1M363 302h1M367 302h1M371 302h1M427 302h1M431 302h1M435 302h1M439 302h1M443 302h1M447 302h1M451 302h1M455 302h1M459 302h1M463 302h1M467 302h1M523 302h1M527 302h1M531 302h1M535 302h1M539 302h1M543 302h1M547 302h1M551 302h1M555 302h1M559 302h1M563 302h1M45 304h1M49 304h1M53 304h1M57 304h1M61 304h1M65 304h1M69 304h1M73 304h1M77 304h1M81 304h1M141 304h1M145 304h1M149 304h1M153 304h1M157 304h1M161 304h1M165 304h1M169 304h1M173 304h1M177 304h1M237 304h1M241 304h1M245 304h1M249 304h1M253 304h1M257 304h1M261 304h1M265 304h1M269 304h1M273 304h1M333 304h1M337 304h1M341 304h1M345 304h1M349 304h1M353 304h1M357 304h1M361 304h1M365 304h1M369 304h1M429 304h1M433 304h1M437 304h1M441 304h1M445 304h1M449 304h1M453 304h1M457 304h1M461 304h1M465 304h1M525 304h1M529 304h1M533 304h1M537 304h1M541 304h1M545 304h1M549 304h1M553 304h1M557 304h1M561 304h1M43 306h1M47 306h1M51 306h1M55 306h1M59 306h1M63 306h1M67 306h1M71 306h1M75 306h1M79 306h1M83 306h1M139 306h1M143 306h1M147 306h1M151 306h1M155 306h1M159 306h1M163 306h1M167 306h1M171 306h1M175 306h1M179 306h1M235 306h1M239 306h1M243 306h1M247 306h1M251 306h1M255 306h1M259 306h1M263 306h1M267 306h1M271 306h1M275 306h1M331 306h1M335 306h1M339 306h1M343 306h1M347 306h1M351 306h1M355 306h1M359 306h1M363 306h1M367 306h1M371 306h1M427 306h1M431 306h1M435 306h1M439 306h1M443 306h1M447 306h1M451 306h1M455 306h1M459 306h1M463 306h1M467 306h1M523 306h1M527 306h1M531 306h1M535 306h1M539 306h1M543 306h1M547 306h1M551 306h1M555 306h1M559 306h1M563 306h1M45 308h1M49 308h1M53 308h1M57 308h1M61 308h1M65 308h1M69 308h1M73 308h1M77 308h1M81 308h1M141 308h1M145 308h1M149 308h1M153 308h1M157 308h1M161 308h1M165 308h1M169 308h1M173 308h1M177 308h1M237 308h1M241 308h1M245 308h1M249 308h1M253 308h1M257 308h1M261 308h1M265 308h1M269 308h1M273 308h1M333 308h1M337 308h1M341 308h1M345 308h1M349 308h1M353 308h1M357 308h1M361 308h1M365 308h1M369 308h1M429 308h1M433 308h1M437 308h1M441 308h1M445 308h1M449 308h1M453 308h1M457 308h1M461 308h1M465 308h1M525 308h1M529 308h1M533 308h1M537 308h1M541 308h1M545 308h1M549 308h1M553 308h1M557 308h1M561 308h1M51 310h1M55 310h1M59 310h1M63 310h1M67 310h1M71 310h1M75 310h1M147 310h1M151 310h1M155 310h1M159 310h1M163 310h1M167 310h1M171 310h1M243 310h1M247 310h1M251 310h1M255 310h1M259 310h1M263 310h1M267 310h1M339 310h1M343 310h1M347 310h1M351 310h1M355 310h1M359 310h1M363 310h1M435 310h1M439 310h1M443 310h1M447 310h1M451 310h1M455 310h1M459 310h1M531 310h1M535 310h1M539 310h1M543 310h1M547 310h1M551 310h1M555 310h1M53 312h1M57 312h1M61 312h1M65 312h1M69 312h1M73 312h1M149 312h1M153 312h1M157 312h1M161 312h1M165 312h1M169 312h1M245 312h1M249 312h1M253 312h1M257 312h1M261 312h1M265 312h1M341 312h1M345 312h1M349 312h1M353 312h1M357 312h1M361 312h1M437 312h1M441 312h1M445 312h1M449 312h1M453 312h1M457 312h1M533 312h1M537 312h1M541 312h1M545 312h1M549 312h1M553 312h1M59 314h1M63 314h1M67 314h1M155 314h1M159 314h1M163 314h1M251 314h1M255 314h1M259 314h1M347 314h1M351 314h1M355 314h1M443 314h1M447 314h1M451 314h1M539 314h1M543 314h1M547 314h1M57 322h1M62 322h1M64 322h1M69 322h1M153 322h1M162 322h1M164 322h1M345 322h1M347 322h1M349 322h1M351 322h1M353 322h1M355 322h1M357 322h1M537 322h1M546 322h1M548 322h1M61 323h1M65 323h1M161 323h1M165 323h1M545 323h1M549 323h1M57 324h1M69 324h1M153 324h1M537 324h1M61 325h1M65 325h1M161 325h1M165 325h1M345 325h1M347 325h1M349 325h1M351 325h1M353 325h1M355 325h1M357 325h1M545 325h1M549 325h1M57 326h1M62 326h1M64 326h1M69 326h1M153 326h1M162 326h1M164 326h1M537 326h1M546 326h1M548 326h1M357 327h1M57 328h1M69 328h1M153 328h1M537 328h1M357 329h1M57 330h1M69 330h1M153 330h1M537 330h1M345 331h1M347 331h1M349 331h1M351 331h1M353 331h1M355 331h1M357 331h1M57 332h1M69 332h1M153 332h1M537 332h1M57 334h1M59 334h1M61 334h1M63 334h1M65 334h1M67 334h1M69 334h1M153 334h1M155 334h1M157 334h1M159 334h1M161 334h1M163 334h1M165 334h1M345 334h1M347 334h1M349 334h1M351 334h1M353 334h1M355 334h1M357 334h1M537 334h1M539 334h1M541 334h1M543 334h1M545 334h1M547 334h1M549 334h1" />
</svg>