<svg xmlns="http://www.w3.org/2000/svg" viewBox="0 -0.5 353 610" shape-rendering="crispEdges">
<metadata>Made with Pixels to Svg https://codepen.io/shshaw/pen/XbxvNj</metadata>
<path stroke="#ffffff" d="M187 38h11M283 38h11M184 39h3M198 39h3M280 39h3M294 39h3M181 40h3M201 40h3M277 40h3M297 40h3M179 41h2M204 41h2M275 41h2M300 41h2M177 42h2M206 42h2M273 42h2M302 42h2M176 43h2M207 43h2M272 43h2M303 43h2M175 44h1M209 44h1M271 44h1M305 44h1M174 45h1M210 45h1M270 45h1M306 45h1M173 46h1M211 46h1M269 46h1M307 46h1M172 47h1M212 47h1M268 47h1M308 47h1M171 48h1M213 48h1M267 48h1M309 48h1M170 49h1M214 49h1M266 49h1M310 49h1M169 50h2M214 50h2M265 50h2M310 50h2M123 51h14M140 51h13M169 51h1M215 51h1M265 51h1M311 51h1M140 52h1M152 52h1M168 52h1M216 52h1M264 52h1M312 52h1M76 53h7M140 53h1M152 53h1M168 53h1M216 53h1M264 53h1M312 53h1M73 54h3M83 54h3M140 54h1M152 54h1M167 54h1M217 54h1M263 54h1M313 54h1M72 55h2M85 55h2M140 55h1M152 55h1M167 55h1M217 55h1M263 55h1M313 55h1M70 56h2M87 56h2M140 56h1M152 56h1M167 56h1M217 56h1M263 56h1M313 56h1M69 57h2M88 57h2M140 57h1M152 57h1M166 57h1M218 57h1M262 57h1M314 57h1M69 58h1M89 58h1M140 58h1M152 58h1M166 58h1M218 58h1M262 58h1M314 58h1M68 59h1M90 59h1M129 59h3M140 59h1M145 59h3M152 59h1M166 59h1M218 59h1M226 59h13M262 59h1M314 59h1M67 60h2M90 60h2M128 60h1M132 60h1M140 60h1M144 60h1M148 60h1M152 60h1M165 60h1M219 60h1M238 60h1M261 60h1M315 60h1M323 60h3M334 60h1M67 61h1M91 61h1M128 61h1M132 61h1M140 61h1M144 61h1M148 61h1M152 61h1M165 61h1M219 61h1M238 61h1M261 61h1M315 61h1M322 61h1M326 61h1M334 61h1M67 62h1M91 62h1M128 62h1M132 62h1M140 62h1M144 62h1M148 62h1M152 62h1M165 62h1M219 62h1M238 62h1M261 62h1M315 62h1M322 62h1M326 62h1M334 62h1M66 63h1M92 63h1M129 63h3M140 63h1M145 63h3M152 63h1M165 63h1M219 63h1M227 63h3M238 63h1M261 63h1M315 63h1M322 63h1M326 63h1M334 63h1M66 64h1M92 64h1M165 64h1M219 64h1M226 64h1M230 64h1M238 64h1M261 64h1M315 64h1M323 64h3M334 64h1M66 65h1M92 65h1M165 65h1M219 65h1M226 65h1M230 65h1M238 65h1M261 65h1M315 65h1M334 65h1M66 66h1M92 66h1M165 66h1M219 66h1M226 66h1M230 66h1M238 66h1M261 66h1M315 66h1M334 66h1M66 67h1M92 67h1M124 67h3M135 67h1M140 67h13M165 67h1M219 67h1M227 67h3M238 67h1M261 67h1M315 67h1M334 67h1M66 68h1M92 68h1M123 68h1M127 68h1M135 68h1M152 68h1M165 68h1M219 68h1M238 68h1M261 68h1M315 68h1M334 68h1M66 69h1M92 69h1M123 69h1M127 69h1M135 69h1M152 69h1M165 69h1M219 69h1M238 69h1M261 69h1M315 69h1M334 69h1M67 70h1M91 70h1M123 70h1M127 70h1M135 70h1M152 70h1M165 70h1M219 70h1M238 70h1M261 70h1M315 70h1M334 70h1M67 71h1M91 71h1M124 71h3M135 71h1M152 71h1M166 71h1M218 71h1M226 71h13M262 71h1M314 71h1M322 71h13M67 72h2M90 72h2M135 72h1M152 72h1M166 72h1M218 72h1M262 72h1M314 72h1M68 73h1M90 73h1M135 73h1M152 73h1M166 73h1M218 73h1M262 73h1M314 73h1M69 74h1M89 74h1M135 74h1M140 74h13M167 74h1M217 74h1M263 74h1M313 74h1M69 75h2M88 75h2M135 75h1M140 75h1M167 75h1M217 75h1M263 75h1M313 75h1M70 76h2M87 76h2M135 76h1M140 76h1M167 76h1M217 76h1M263 76h1M313 76h1M72 77h2M85 77h2M135 77h1M140 77h1M168 77h1M216 77h1M264 77h1M312 77h1M73 78h3M83 78h3M135 78h1M140 78h1M168 78h1M216 78h1M264 78h1M312 78h1M76 79h7M123 79h13M140 79h1M169 79h1M215 79h1M265 79h1M311 79h1M169 80h2M214 80h2M265 80h2M310 80h2M170 81h1M214 81h1M266 81h1M310 81h1M171 82h1M213 82h1M267 82h1M309 82h1M172 83h1M212 83h1M268 83h1M308 83h1M173 84h1M211 84h1M269 84h1M307 84h1M173 85h2M210 85h1M269 85h2M306 85h1M172 86h1M175 86h1M209 86h1M268 86h1M271 86h1M305 86h1M171 87h1M176 87h2M207 87h2M267 87h1M272 87h2M303 87h2M170 88h1M177 88h2M206 88h2M266 88h1M273 88h2M302 88h2M169 89h1M179 89h2M204 89h2M265 89h1M275 89h2M300 89h2M168 90h1M181 90h3M201 90h3M264 90h1M277 90h3M297 90h3M167 91h1M184 91h3M198 91h3M263 91h1M280 91h3M294 91h3M166 92h1M187 92h11M262 92h1M283 92h11M165 93h1M261 93h1M164 94h1M260 94h1M163 95h1M259 95h1M162 96h1M258 96h1M3 97h255M128 98h1M225 98h1M129 99h1M226 99h1M130 100h1M227 100h1M131 101h1M228 101h1M132 102h1M229 102h1M133 103h1M230 103h1M134 104h1M231 104h1M135 105h1M232 105h1M136 106h1M233 106h1M137 107h1M234 107h1M138 108h1M235 108h1M139 109h1M236 109h1M140 110h1M237 110h1M141 111h1M238 111h1M142 112h1M239 112h1M143 113h1M240 113h1M144 114h1M241 114h1M145 115h1M242 115h1M146 116h1M243 116h1M147 117h1M244 117h1M148 118h1M245 118h1M149 119h1M246 119h1M150 120h1M247 120h1M151 121h1M248 121h1M152 122h1M249 122h1M153 123h1M250 123h1M154 124h1M251 124h1M155 125h1M252 125h1M156 126h1M253 126h1M157 127h1M254 127h1M158 128h1M255 128h1M159 129h1M256 129h1M160 130h1M257 130h1M161 131h1M258 131h1M162 132h1M259 132h1M163 133h1M260 133h1M164 134h1M187 134h11M261 134h1M283 134h11M165 135h1M184 135h3M198 135h3M262 135h1M280 135h3M294 135h3M166 136h1M181 136h3M201 136h3M263 136h1M277 136h3M297 136h3M167 137h1M179 137h2M204 137h2M264 137h1M275 137h2M300 137h2M168 138h1M177 138h2M206 138h2M265 138h1M273 138h2M302 138h2M169 139h1M176 139h2M207 139h2M266 139h1M272 139h2M303 139h2M170 140h1M175 140h1M209 140h1M267 140h1M271 140h1M305 140h1M171 141h1M174 141h1M210 141h1M268 141h1M270 141h1M306 141h1M172 142h2M211 142h1M269 142h1M307 142h1M172 143h1M212 143h1M268 143h1M308 143h1M171 144h1M213 144h1M267 144h1M309 144h1M170 145h1M214 145h1M266 145h1M310 145h1M169 146h2M214 146h2M265 146h2M310 146h2M169 147h1M215 147h1M265 147h1M311 147h1M76 148h7M168 148h1M216 148h1M264 148h1M312 148h1M73 149h3M83 149h3M168 149h1M216 149h1M264 149h1M312 149h1M72 150h2M85 150h2M167 150h1M217 150h1M263 150h1M313 150h1M70 151h2M87 151h2M167 151h1M217 151h1M263 151h1M313 151h1M69 152h2M88 152h2M167 152h1M217 152h1M263 152h1M313 152h1M69 153h1M89 153h1M166 153h1M218 153h1M262 153h1M314 153h1M68 154h1M90 154h1M166 154h1M218 154h1M262 154h1M314 154h1M67 155h2M90 155h2M166 155h1M218 155h1M262 155h1M314 155h1M67 156h1M91 156h1M165 156h1M219 156h1M261 156h1M315 156h1M67 157h1M91 157h1M165 157h1M219 157h1M261 157h1M315 157h1M66 158h1M92 158h1M165 158h1M219 158h1M261 158h1M315 158h1M66 159h1M92 159h1M165 159h1M219 159h1M261 159h1M315 159h1M66 160h1M92 160h1M165 160h1M219 160h1M261 160h1M315 160h1M3 161h64M92 161h1M165 161h1M219 161h1M261 161h1M315 161h1M66 162h1M92 162h1M165 162h1M219 162h1M261 162h1M315 162h1M66 163h1M92 163h1M165 163h1M219 163h1M261 163h1M315 163h1M66 164h1M92 164h1M165 164h1M219 164h1M261 164h1M315 164h1M67 165h1M91 165h1M165 165h1M219 165h1M261 165h1M315 165h1M67 166h1M91 166h1M165 166h1M219 166h1M261 166h1M315 166h1M67 167h2M90 167h2M166 167h1M218 167h1M262 167h1M314 167h1M68 168h1M90 168h1M166 168h1M218 168h1M262 168h1M314 168h1M69 169h1M89 169h1M166 169h1M218 169h1M262 169h1M314 169h1M69 170h2M88 170h2M167 170h1M217 170h1M263 170h1M313 170h1M70 171h2M87 171h2M133 171h1M135 171h1M137 171h1M139 171h1M167 171h1M217 171h1M263 171h1M313 171h1M72 172h2M85 172h2M130 172h1M132 172h1M134 172h1M136 172h1M138 172h1M140 172h1M167 172h1M217 172h1M263 172h1M313 172h1M73 173h3M83 173h3M127 173h1M129 173h1M131 173h1M133 173h1M135 173h1M137 173h1M139 173h1M141 173h1M168 173h1M216 173h1M264 173h1M312 173h1M76 174h7M126 174h1M128 174h1M130 174h1M132 174h1M134 174h1M136 174h1M138 174h1M140 174h1M142 174h1M168 174h1M216 174h1M264 174h1M312 174h1M79 175h1M127 175h1M129 175h1M131 175h1M133 175h1M135 175h1M137 175h1M139 175h1M141 175h1M143 175h1M169 175h1M215 175h1M265 175h1M311 175h1M79 176h1M124 176h1M128 176h1M130 176h1M132 176h1M134 176h1M136 176h1M138 176h1M140 176h1M142 176h1M144 176h1M169 176h2M214 176h2M265 176h2M310 176h2M79 177h1M123 177h1M129 177h1M131 177h1M133 177h1M135 177h1M137 177h1M139 177h1M141 177h1M143 177h1M145 177h1M170 177h1M214 177h1M266 177h1M310 177h1M79 178h1M122 178h1M130 178h1M132 178h1M134 178h1M136 178h1M138 178h1M140 178h1M142 178h1M144 178h1M146 178h1M171 178h1M213 178h1M267 178h1M309 178h1M79 179h1M121 179h1M131 179h1M133 179h1M135 179h1M137 179h1M139 179h1M141 179h1M143 179h1M145 179h1M172 179h1M212 179h1M268 179h1M308 179h1M79 180h1M120 180h1M132 180h1M134 180h1M136 180h1M138 180h1M140 180h1M142 180h1M144 180h1M146 180h1M173 180h1M211 180h1M269 180h1M307 180h1M79 181h1M119 181h1M121 181h1M133 181h1M135 181h1M137 181h1M139 181h1M141 181h1M143 181h1M145 181h1M147 181h1M174 181h1M210 181h1M268 181h1M270 181h1M306 181h1M79 182h1M118 182h1M120 182h1M134 182h1M136 182h1M138 182h1M140 182h1M142 182h1M144 182h1M146 182h1M175 182h1M209 182h1M267 182h1M271 182h1M305 182h1M79 183h1M117 183h1M119 183h1M121 183h1M135 183h1M137 183h1M139 183h1M141 183h1M143 183h1M145 183h1M147 183h1M176 183h2M207 183h2M266 183h1M272 183h2M303 183h2M79 184h1M118 184h1M120 184h1M136 184h1M138 184h1M140 184h1M142 184h1M144 184h1M146 184h1M177 184h2M206 184h2M265 184h1M273 184h2M302 184h2M79 185h1M119 185h1M121 185h1M137 185h1M139 185h1M141 185h1M143 185h1M145 185h1M147 185h1M179 185h2M204 185h2M264 185h1M275 185h2M300 185h2M79 186h1M118 186h1M120 186h1M138 186h1M140 186h1M142 186h1M144 186h1M146 186h1M181 186h3M201 186h3M263 186h1M277 186h3M297 186h3M79 187h1M119 187h1M121 187h1M139 187h1M141 187h1M143 187h1M145 187h1M147 187h1M184 187h3M198 187h3M262 187h1M280 187h3M294 187h3M79 188h1M120 188h1M122 188h1M140 188h1M142 188h1M144 188h1M146 188h1M187 188h11M261 188h1M283 188h11M79 189h1M119 189h1M121 189h1M141 189h1M143 189h1M145 189h1M192 189h1M260 189h1M79 190h1M120 190h1M122 190h1M142 190h1M144 190h1M146 190h1M192 190h1M259 190h1M79 191h1M121 191h1M123 191h1M143 191h1M145 191h1M192 191h1M258 191h1M79 192h1M120 192h1M122 192h1M124 192h1M144 192h1M192 192h1M257 192h1M79 193h1M107 193h1M121 193h1M123 193h1M125 193h1M192 193h1M256 193h1M79 194h1M106 194h1M108 194h1M122 194h1M124 194h1M126 194h1M142 194h1M192 194h1M255 194h1M79 195h1M105 195h1M107 195h1M109 195h1M121 195h1M123 195h1M125 195h1M127 195h1M129 195h1M141 195h1M192 195h1M254 195h1M79 196h1M104 196h1M106 196h1M108 196h1M110 196h1M122 196h1M124 196h1M126 196h1M128 196h1M130 196h1M132 196h1M138 196h1M140 196h1M192 196h1M253 196h1M79 197h1M103 197h1M105 197h1M107 197h1M109 197h1M111 197h1M123 197h1M125 197h1M127 197h1M129 197h1M131 197h1M133 197h1M135 197h1M137 197h1M139 197h1M192 197h1M252 197h1M79 198h1M102 198h1M104 198h1M106 198h1M108 198h1M110 198h1M112 198h1M122 198h1M124 198h1M126 198h1M128 198h1M130 198h1M132 198h1M134 198h1M136 198h1M138 198h1M192 198h1M251 198h1M79 199h1M101 199h1M103 199h1M105 199h1M107 199h1M109 199h1M111 199h1M113 199h1M123 199h1M125 199h1M127 199h1M129 199h1M131 199h1M133 199h1M135 199h1M137 199h1M192 199h1M250 199h1M79 200h1M100 200h1M102 200h1M104 200h1M106 200h1M108 200h1M110 200h1M112 200h1M114 200h1M124 200h1M126 200h1M128 200h1M130 200h1M132 200h1M134 200h1M136 200h1M192 200h1M249 200h1M79 201h1M99 201h1M101 201h1M103 201h1M105 201h1M107 201h1M109 201h1M111 201h1M113 201h1M115 201h1M123 201h1M125 201h1M127 201h1M129 201h1M131 201h1M133 201h1M135 201h1M192 201h1M248 201h1M79 202h1M102 202h1M104 202h1M106 202h1M108 202h1M110 202h1M112 202h1M114 202h1M116 202h1M124 202h1M126 202h1M128 202h1M130 202h1M132 202h1M134 202h1M192 202h1M247 202h1M79 203h1M105 203h1M107 203h1M109 203h1M111 203h1M113 203h1M115 203h1M117 203h1M125 203h1M127 203h1M129 203h1M131 203h1M133 203h1M192 203h1M246 203h1M79 204h1M108 204h1M110 204h1M112 204h1M114 204h1M116 204h1M118 204h1M124 204h1M126 204h1M128 204h1M130 204h1M132 204h1M192 204h1M245 204h1M79 205h1M111 205h1M113 205h1M115 205h1M117 205h1M119 205h1M125 205h1M127 205h1M129 205h1M131 205h1M192 205h1M244 205h1M79 206h1M114 206h1M116 206h1M118 206h1M120 206h1M126 206h1M128 206h1M130 206h1M192 206h1M243 206h1M79 207h1M115 207h1M117 207h1M119 207h1M121 207h1M125 207h1M127 207h1M129 207h1M192 207h1M242 207h1M79 208h1M118 208h1M120 208h1M122 208h1M126 208h1M128 208h1M192 208h1M241 208h1M79 209h1M121 209h1M123 209h1M127 209h1M192 209h1M240 209h1M79 210h1M124 210h1M192 210h1M239 210h1M79 211h1M192 211h1M238 211h1M79 212h1M192 212h1M237 212h1M79 213h1M192 213h1M236 213h1M79 214h1M192 214h1M235 214h1M79 215h1M192 215h1M234 215h1M79 216h1M192 216h1M233 216h1M79 217h1M192 217h1M232 217h1M79 218h1M192 218h1M231 218h1M79 219h1M192 219h1M230 219h1M79 220h1M192 220h1M229 220h1M79 221h1M192 221h1M228 221h1M79 222h1M192 222h1M227 222h1M79 223h1M192 223h1M226 223h1M79 224h1M192 224h1M225 224h1M3 225h46M79 225h1M143 225h46M192 225h1M196 225h29M49 226h1M78 226h1M142 226h1M192 226h1M50 227h1M77 227h1M141 227h1M192 227h1M51 228h1M76 228h1M140 228h1M192 228h1M52 229h1M75 229h1M139 229h1M192 229h1M53 230h1M74 230h1M138 230h1M192 230h1M283 230h11M54 231h1M73 231h1M137 231h1M192 231h1M280 231h3M294 231h3M55 232h1M72 232h1M136 232h1M192 232h1M277 232h3M297 232h3M56 233h1M71 233h1M135 233h1M192 233h1M275 233h2M300 233h2M57 234h1M70 234h1M134 234h1M192 234h1M273 234h2M302 234h2M58 235h1M69 235h1M133 235h1M192 235h1M272 235h2M303 235h2M59 236h1M68 236h1M132 236h1M192 236h1M271 236h1M305 236h1M60 237h1M67 237h1M131 237h1M192 237h1M270 237h1M306 237h1M61 238h1M66 238h1M130 238h1M192 238h1M269 238h1M307 238h1M65 239h1M129 239h1M192 239h1M268 239h1M308 239h1M64 240h1M128 240h1M192 240h1M267 240h1M309 240h1M63 241h1M127 241h1M192 241h1M266 241h1M310 241h1M62 242h1M126 242h1M192 242h1M265 242h2M310 242h2M61 243h1M125 243h1M192 243h1M265 243h1M311 243h1M60 244h1M67 244h1M124 244h1M189 244h7M264 244h1M312 244h1M59 245h1M68 245h1M123 245h1M186 245h3M196 245h3M264 245h1M312 245h1M58 246h1M69 246h1M122 246h1M185 246h2M198 246h2M263 246h1M313 246h1M57 247h1M70 247h1M121 247h1M183 247h2M200 247h2M263 247h1M313 247h1M56 248h1M71 248h1M80 248h1M120 248h1M182 248h2M201 248h2M263 248h1M313 248h1M46 249h5M55 249h1M72 249h1M80 249h1M119 249h1M182 249h1M202 249h1M262 249h1M314 249h1M44 250h2M51 250h2M54 250h1M73 250h1M87 250h1M118 250h1M181 250h1M203 250h1M262 250h1M314 250h1M43 251h1M46 251h5M53 251h1M74 251h1M78 251h5M86 251h1M110 251h5M117 251h1M180 251h2M203 251h2M262 251h1M314 251h1M42 252h1M44 252h2M51 252h2M54 252h1M75 252h3M83 252h2M108 252h2M115 252h2M180 252h1M204 252h1M261 252h1M315 252h1M322 252h1M325 252h7M334 252h1M41 253h1M43 253h1M53 253h1M55 253h1M75 253h1M85 253h1M107 253h1M117 253h1M180 253h1M204 253h1M261 253h1M315 253h1M322 253h1M325 253h1M331 253h1M334 253h1M41 254h1M43 254h1M53 254h1M55 254h1M75 254h1M85 254h1M107 254h1M117 254h1M179 254h1M205 254h1M261 254h1M315 254h1M322 254h1M325 254h1M331 254h1M334 254h1M40 255h1M42 255h1M54 255h1M56 255h1M74 255h1M86 255h1M106 255h1M118 255h1M179 255h1M205 255h1M261 255h1M315 255h1M322 255h1M325 255h1M331 255h1M334 255h1M40 256h1M42 256h1M54 256h1M56 256h1M74 256h1M86 256h1M106 256h1M118 256h1M179 256h1M205 256h1M261 256h1M315 256h1M322 256h1M325 256h1M331 256h1M334 256h1M40 257h1M42 257h1M54 257h1M56 257h1M71 257h2M74 257h1M86 257h1M88 257h2M106 257h1M118 257h1M179 257h1M205 257h1M261 257h1M315 257h1M322 257h1M325 257h1M331 257h1M334 257h1M40 258h1M42 258h1M54 258h1M56 258h1M74 258h1M86 258h1M106 258h1M118 258h1M179 258h1M205 258h1M261 258h1M315 258h1M322 258h1M325 258h1M331 258h1M334 258h1M40 259h1M42 259h1M54 259h1M56 259h1M74 259h1M86 259h1M106 259h1M118 259h1M179 259h1M205 259h1M261 259h1M315 259h1M322 259h1M325 259h1M331 259h1M334 259h1M41 260h1M43 260h1M53 260h1M55 260h1M75 260h1M85 260h1M107 260h1M117 260h1M179 260h1M205 260h1M261 260h1M315 260h1M322 260h1M325 260h1M331 260h1M334 260h1M41 261h1M43 261h1M53 261h1M55 261h1M75 261h1M85 261h1M107 261h1M117 261h1M180 261h1M204 261h1M261 261h1M315 261h1M322 261h1M325 261h1M331 261h1M334 261h1M42 262h1M44 262h2M51 262h2M54 262h1M76 262h2M83 262h2M108 262h2M115 262h2M180 262h1M204 262h1M261 262h1M315 262h1M322 262h1M325 262h1M331 262h1M334 262h1M43 263h1M46 263h5M53 263h1M74 263h1M78 263h5M86 263h1M110 263h5M180 263h2M203 263h2M262 263h1M314 263h1M322 263h1M325 263h1M331 263h1M334 263h1M44 264h2M48 264h1M51 264h2M73 264h1M87 264h1M181 264h1M203 264h1M262 264h1M314 264h1M46 265h5M80 265h1M182 265h1M202 265h1M262 265h1M314 265h1M48 266h1M80 266h1M182 266h2M201 266h2M263 266h1M313 266h1M48 267h1M183 267h2M200 267h2M263 267h1M313 267h1M48 268h1M185 268h2M198 268h2M263 268h1M313 268h1M48 269h1M186 269h3M196 269h3M264 269h1M312 269h1M48 270h1M189 270h7M264 270h1M312 270h1M48 271h1M265 271h1M311 271h1M48 272h1M265 272h2M310 272h2M48 273h1M266 273h1M310 273h1M48 274h1M267 274h1M309 274h1M48 275h1M268 275h1M308 275h1M48 276h1M269 276h1M307 276h1M48 277h1M268 277h1M270 277h1M306 277h1M48 278h1M267 278h1M271 278h1M305 278h1M48 279h1M266 279h1M272 279h2M303 279h2M48 280h1M265 280h1M273 280h2M302 280h2M46 281h5M78 281h5M264 281h1M275 281h2M300 281h2M44 282h2M51 282h2M76 282h2M83 282h2M263 282h1M277 282h3M297 282h3M43 283h1M46 283h5M53 283h1M75 283h1M78 283h5M85 283h1M110 283h5M262 283h1M280 283h3M294 283h3M42 284h1M44 284h2M51 284h2M54 284h1M74 284h1M76 284h2M83 284h2M86 284h1M108 284h2M115 284h2M261 284h1M283 284h11M41 285h1M43 285h1M53 285h1M55 285h1M73 285h1M75 285h1M85 285h1M87 285h1M107 285h1M117 285h1M260 285h1M41 286h1M43 286h1M53 286h1M55 286h1M73 286h1M75 286h1M85 286h1M87 286h1M107 286h1M117 286h1M259 286h1M40 287h1M42 287h1M54 287h1M56 287h1M72 287h1M74 287h1M86 287h1M88 287h1M106 287h1M118 287h1M258 287h1M40 288h1M42 288h1M54 288h1M56 288h1M72 288h1M74 288h1M86 288h1M88 288h1M106 288h1M118 288h1M257 288h1M40 289h1M42 289h1M54 289h1M56 289h1M72 289h1M74 289h1M86 289h1M88 289h19M118 289h139M40 290h1M42 290h1M54 290h1M56 290h1M72 290h1M74 290h1M86 290h1M88 290h1M106 290h1M118 290h1M40 291h1M42 291h1M54 291h1M56 291h1M72 291h1M74 291h1M86 291h1M88 291h1M106 291h1M118 291h1M41 292h1M43 292h1M53 292h1M55 292h1M73 292h1M75 292h1M85 292h1M87 292h1M107 292h1M117 292h1M41 293h1M43 293h1M53 293h1M55 293h1M73 293h1M75 293h1M85 293h1M87 293h1M107 293h1M117 293h1M42 294h1M44 294h2M51 294h2M54 294h1M74 294h1M76 294h2M83 294h2M86 294h1M108 294h2M115 294h2M43 295h1M46 295h5M53 295h1M75 295h1M78 295h5M85 295h1M110 295h5M44 296h2M51 296h2M76 296h2M83 296h2M46 297h5M78 297h5M48 298h1M48 299h1M48 300h1M48 301h1M48 302h1M48 303h1M48 304h1M48 305h1M48 306h1M48 307h1M48 308h1M48 309h1M48 310h1M48 311h1M48 312h1M46 313h5M78 313h5M44 314h2M51 314h2M76 314h2M83 314h2M43 315h1M46 315h5M53 315h1M75 315h1M78 315h5M85 315h1M110 315h5M42 316h1M44 316h2M51 316h2M54 316h1M74 316h1M76 316h2M83 316h2M86 316h1M108 316h2M115 316h2M41 317h1M43 317h1M53 317h1M55 317h1M73 317h1M75 317h1M85 317h1M87 317h1M107 317h1M117 317h1M41 318h1M43 318h1M53 318h1M55 318h1M73 318h1M75 318h1M85 318h1M87 318h1M107 318h1M117 318h1M40 319h1M42 319h1M54 319h1M56 319h1M72 319h1M74 319h1M86 319h1M88 319h1M106 319h1M118 319h1M40 320h1M42 320h1M54 320h1M56 320h1M72 320h1M74 320h1M86 320h1M88 320h1M106 320h1M118 320h1M40 321h1M42 321h1M54 321h1M56 321h1M72 321h1M74 321h1M86 321h1M88 321h19M118 321h43M40 322h1M42 322h1M54 322h1M56 322h1M72 322h1M74 322h1M86 322h1M88 322h1M106 322h1M118 322h1M161 322h1M40 323h1M42 323h1M54 323h1M56 323h1M72 323h1M74 323h1M86 323h1M88 323h1M106 323h1M118 323h1M162 323h1M41 324h1M43 324h1M53 324h1M55 324h1M73 324h1M75 324h1M85 324h1M87 324h1M107 324h1M117 324h1M163 324h1M41 325h1M43 325h1M53 325h1M55 325h1M73 325h1M75 325h1M85 325h1M87 325h1M107 325h1M117 325h1M164 325h1M42 326h1M44 326h2M51 326h2M54 326h1M74 326h1M76 326h2M83 326h2M86 326h1M108 326h2M115 326h2M165 326h1M187 326h11M283 326h11M43 327h1M46 327h5M53 327h1M75 327h1M78 327h5M85 327h1M110 327h5M166 327h1M184 327h3M198 327h3M280 327h3M294 327h3M44 328h2M51 328h2M76 328h2M83 328h2M167 328h1M181 328h3M201 328h3M277 328h3M297 328h3M46 329h5M78 329h5M168 329h1M179 329h2M204 329h2M275 329h2M300 329h2M48 330h1M169 330h1M177 330h2M206 330h2M273 330h2M302 330h2M48 331h1M170 331h1M176 331h2M207 331h2M272 331h2M303 331h2M48 332h1M171 332h1M175 332h1M209 332h1M271 332h1M305 332h1M48 333h1M172 333h1M174 333h1M210 333h1M270 333h1M306 333h1M48 334h1M173 334h1M211 334h1M269 334h1M307 334h1M48 335h1M172 335h1M212 335h1M268 335h1M308 335h1M48 336h1M171 336h1M213 336h1M267 336h1M309 336h1M48 337h1M170 337h1M214 337h1M266 337h1M310 337h1M48 338h1M169 338h2M214 338h2M265 338h2M310 338h2M48 339h1M169 339h1M215 339h1M265 339h1M311 339h1M48 340h1M168 340h1M216 340h1M264 340h1M312 340h1M48 341h1M168 341h1M216 341h1M264 341h1M312 341h1M48 342h1M167 342h1M217 342h1M263 342h1M313 342h1M48 343h1M167 343h1M217 343h1M263 343h1M313 343h1M48 344h1M167 344h1M217 344h1M263 344h1M313 344h1M46 345h5M110 345h5M166 345h1M218 345h1M262 345h1M314 345h1M44 346h2M51 346h2M108 346h2M115 346h2M166 346h1M218 346h1M262 346h1M314 346h1M43 347h1M46 347h5M53 347h1M78 347h5M93 347h1M98 347h1M107 347h1M110 347h5M117 347h1M166 347h1M218 347h1M262 347h1M314 347h1M42 348h1M44 348h2M51 348h2M54 348h1M76 348h2M83 348h2M93 348h1M98 348h1M106 348h1M108 348h2M115 348h2M118 348h1M165 348h1M219 348h1M261 348h1M315 348h1M41 349h1M43 349h1M53 349h1M55 349h1M75 349h1M85 349h1M93 349h1M98 349h1M105 349h1M107 349h1M117 349h1M119 349h1M165 349h1M219 349h1M261 349h1M315 349h1M41 350h1M43 350h1M53 350h1M55 350h1M75 350h1M85 350h1M93 350h1M98 350h1M105 350h1M107 350h1M117 350h1M119 350h1M165 350h1M219 350h1M261 350h1M315 350h1M40 351h1M42 351h1M54 351h1M56 351h1M74 351h1M86 351h1M93 351h1M98 351h1M104 351h1M106 351h1M118 351h1M120 351h1M165 351h1M219 351h1M261 351h1M315 351h1M40 352h1M42 352h1M54 352h1M56 352h1M74 352h1M86 352h1M93 352h1M98 352h1M104 352h1M106 352h1M118 352h1M120 352h1M165 352h1M219 352h1M261 352h1M315 352h1M40 353h1M42 353h1M54 353h1M56 353h1M74 353h1M86 353h8M98 353h7M106 353h1M118 353h1M120 353h1M165 353h1M219 353h1M261 353h1M315 353h1M40 354h1M42 354h1M54 354h1M56 354h1M74 354h1M86 354h1M93 354h1M98 354h1M104 354h1M106 354h1M118 354h1M120 354h1M165 354h1M219 354h1M261 354h1M315 354h1M40 355h1M42 355h1M54 355h1M56 355h1M74 355h1M86 355h1M93 355h1M98 355h1M104 355h1M106 355h1M118 355h1M120 355h1M165 355h1M219 355h1M261 355h1M315 355h1M41 356h1M43 356h1M53 356h1M55 356h1M75 356h1M85 356h1M93 356h1M98 356h1M105 356h1M107 356h1M117 356h1M119 356h1M165 356h1M219 356h1M261 356h1M315 356h1M41 357h1M43 357h1M53 357h1M55 357h1M75 357h1M85 357h1M93 357h1M98 357h1M105 357h1M107 357h1M117 357h1M119 357h1M165 357h1M219 357h1M261 357h1M315 357h1M42 358h1M44 358h2M51 358h2M54 358h1M76 358h2M83 358h2M93 358h1M98 358h1M106 358h1M108 358h2M115 358h2M118 358h1M165 358h1M219 358h1M261 358h1M315 358h1M43 359h1M46 359h5M53 359h1M78 359h5M93 359h1M98 359h1M107 359h1M110 359h5M117 359h1M166 359h1M218 359h1M262 359h1M314 359h1M44 360h2M51 360h2M108 360h2M115 360h2M166 360h1M218 360h1M262 360h1M314 360h1M46 361h5M110 361h5M166 361h1M218 361h1M262 361h1M314 361h1M48 362h1M167 362h1M217 362h1M263 362h1M313 362h1M48 363h1M167 363h1M217 363h1M263 363h1M313 363h1M48 364h1M167 364h1M217 364h1M263 364h1M313 364h1M48 365h1M168 365h1M216 365h1M264 365h1M312 365h1M48 366h1M168 366h1M216 366h1M264 366h1M312 366h1M48 367h1M169 367h1M215 367h1M265 367h1M311 367h1M48 368h1M169 368h2M214 368h2M265 368h2M310 368h2M48 369h1M170 369h1M214 369h1M266 369h1M310 369h1M48 370h1M171 370h1M213 370h1M267 370h1M309 370h1M48 371h1M172 371h1M212 371h1M268 371h1M308 371h1M48 372h1M173 372h1M211 372h1M269 372h1M307 372h1M48 373h1M174 373h1M210 373h1M268 373h1M270 373h1M306 373h1M48 374h1M175 374h1M209 374h1M267 374h1M271 374h1M305 374h1M48 375h1M176 375h2M207 375h2M266 375h1M272 375h2M303 375h2M48 376h1M177 376h2M206 376h2M265 376h1M273 376h2M302 376h2M46 377h5M78 377h5M179 377h2M204 377h2M264 377h1M275 377h2M300 377h2M44 378h2M51 378h2M76 378h2M83 378h2M181 378h3M201 378h3M263 378h1M277 378h3M297 378h3M43 379h1M46 379h5M53 379h1M75 379h1M78 379h5M85 379h1M110 379h5M184 379h3M198 379h3M262 379h1M280 379h3M294 379h3M42 380h1M44 380h2M51 380h2M54 380h1M74 380h1M76 380h2M83 380h2M86 380h1M108 380h2M115 380h2M187 380h11M261 380h1M283 380h11M41 381h1M43 381h1M53 381h1M55 381h1M73 381h1M75 381h1M85 381h1M87 381h1M107 381h1M117 381h1M260 381h1M41 382h1M43 382h1M53 382h1M55 382h1M73 382h1M75 382h1M85 382h1M87 382h1M107 382h1M117 382h1M259 382h1M40 383h1M42 383h1M54 383h1M56 383h1M72 383h1M74 383h1M86 383h1M88 383h1M106 383h1M118 383h1M258 383h1M40 384h1M42 384h1M54 384h1M56 384h1M72 384h1M74 384h1M86 384h1M88 384h1M106 384h1M118 384h1M257 384h1M40 385h1M42 385h1M54 385h1M56 385h1M72 385h1M74 385h1M86 385h1M88 385h19M118 385h139M40 386h1M42 386h1M54 386h1M56 386h1M72 386h1M74 386h1M86 386h1M88 386h1M106 386h1M118 386h1M40 387h1M42 387h1M54 387h1M56 387h1M72 387h1M74 387h1M86 387h1M88 387h1M106 387h1M118 387h1M41 388h1M43 388h1M53 388h1M55 388h1M73 388h1M75 388h1M85 388h1M87 388h1M107 388h1M117 388h1M41 389h1M43 389h1M53 389h1M55 389h1M73 389h1M75 389h1M85 389h1M87 389h1M107 389h1M117 389h1M42 390h1M44 390h2M51 390h2M54 390h1M74 390h1M76 390h2M83 390h2M86 390h1M108 390h2M115 390h2M43 391h1M46 391h5M53 391h1M75 391h1M78 391h5M85 391h1M110 391h5M44 392h2M51 392h2M76 392h2M83 392h2M46 393h5M78 393h5M48 394h1M48 395h1M48 396h1M48 397h1M48 398h1M48 399h1M48 400h1M48 401h1M48 402h1M48 403h1M48 404h1M48 405h1M48 406h1M48 407h1M94 407h1M98 407h1M48 408h1M80 408h1M95 408h1M97 408h1M112 408h1M46 409h5M80 409h1M96 409h1M112 409h1M44 410h2M51 410h2M73 410h1M87 410h1M95 410h1M97 410h1M105 410h1M119 410h1M43 411h1M46 411h5M53 411h1M74 411h1M78 411h5M86 411h1M94 411h1M98 411h1M106 411h1M110 411h5M118 411h1M42 412h1M44 412h2M51 412h2M54 412h1M76 412h2M83 412h2M93 412h1M99 412h1M108 412h2M115 412h2M41 413h1M43 413h1M53 413h1M55 413h1M75 413h1M85 413h1M92 413h1M100 413h1M107 413h1M117 413h1M41 414h1M43 414h1M53 414h1M55 414h1M75 414h1M85 414h1M91 414h1M101 414h1M107 414h1M117 414h1M40 415h1M42 415h1M54 415h1M56 415h1M74 415h1M86 415h1M90 415h1M102 415h1M106 415h1M118 415h1M40 416h1M42 416h1M54 416h1M56 416h1M74 416h1M86 416h1M89 416h1M103 416h1M106 416h1M118 416h1M40 417h1M42 417h1M54 417h1M56 417h1M71 417h2M74 417h1M86 417h3M104 417h3M118 417h1M120 417h2M40 418h1M42 418h1M54 418h1M56 418h1M74 418h1M86 418h1M89 418h1M103 418h1M106 418h1M118 418h1M40 419h1M42 419h1M54 419h1M56 419h1M74 419h1M86 419h1M90 419h1M102 419h1M106 419h1M118 419h1M41 420h1M43 420h1M53 420h1M55 420h1M75 420h1M85 420h1M91 420h1M101 420h1M107 420h1M117 420h1M41 421h1M43 421h1M53 421h1M55 421h1M75 421h1M85 421h1M92 421h1M100 421h1M107 421h1M117 421h1M42 422h1M44 422h2M51 422h2M54 422h1M76 422h2M83 422h2M93 422h1M99 422h1M108 422h2M115 422h2M283 422h11M43 423h1M46 423h5M53 423h1M74 423h1M78 423h5M86 423h1M94 423h1M98 423h1M106 423h1M110 423h5M118 423h1M280 423h3M294 423h3M44 424h2M51 424h2M73 424h1M87 424h1M95 424h1M97 424h1M105 424h1M119 424h1M277 424h3M297 424h3M46 425h5M80 425h1M96 425h1M112 425h1M275 425h2M300 425h2M48 426h1M80 426h1M95 426h1M97 426h1M112 426h1M273 426h2M302 426h2M48 427h1M94 427h1M98 427h1M272 427h2M303 427h2M48 428h1M271 428h1M305 428h1M48 429h1M270 429h1M306 429h1M48 430h1M269 430h1M307 430h1M48 431h1M268 431h1M308 431h1M48 432h1M267 432h1M309 432h1M48 433h1M266 433h1M310 433h1M48 434h1M265 434h2M310 434h2M48 435h1M265 435h1M311 435h1M48 436h1M189 436h7M264 436h1M312 436h1M48 437h1M186 437h3M196 437h3M264 437h1M312 437h1M48 438h1M185 438h2M198 438h2M263 438h1M313 438h1M48 439h1M183 439h2M200 439h2M263 439h1M313 439h1M48 440h1M182 440h2M201 440h2M263 440h1M313 440h1M46 441h5M78 441h5M182 441h1M202 441h1M262 441h1M314 441h1M44 442h2M51 442h2M76 442h2M83 442h2M181 442h1M203 442h1M262 442h1M314 442h1M43 443h1M46 443h5M53 443h1M75 443h1M78 443h5M85 443h1M110 443h5M180 443h2M203 443h2M262 443h1M314 443h1M323 443h3M334 443h1M42 444h1M44 444h2M51 444h2M54 444h1M74 444h1M76 444h2M83 444h2M86 444h1M108 444h2M115 444h2M180 444h1M204 444h1M261 444h1M315 444h1M322 444h1M326 444h1M334 444h1M41 445h1M43 445h1M53 445h1M55 445h1M73 445h1M75 445h1M85 445h1M87 445h1M107 445h1M117 445h1M180 445h1M204 445h1M261 445h1M315 445h1M322 445h1M326 445h1M334 445h1M41 446h1M43 446h1M53 446h1M55 446h1M73 446h1M75 446h1M85 446h1M87 446h1M107 446h1M117 446h1M179 446h1M205 446h1M261 446h1M315 446h1M322 446h1M326 446h1M334 446h1M40 447h1M42 447h1M54 447h1M56 447h1M72 447h1M74 447h1M86 447h1M88 447h1M106 447h1M118 447h1M179 447h1M205 447h1M261 447h1M315 447h1M323 447h3M334 447h1M40 448h1M42 448h1M54 448h1M56 448h1M72 448h1M74 448h1M86 448h1M88 448h1M106 448h1M118 448h1M179 448h1M205 448h1M261 448h1M315 448h1M334 448h1M40 449h1M42 449h1M54 449h1M56 449h1M72 449h1M74 449h1M86 449h1M88 449h19M118 449h62M205 449h57M315 449h1M334 449h1M40 450h1M42 450h1M54 450h1M56 450h1M72 450h1M74 450h1M86 450h1M88 450h1M106 450h1M118 450h1M179 450h1M205 450h1M261 450h1M315 450h1M334 450h1M40 451h1M42 451h1M54 451h1M56 451h1M72 451h1M74 451h1M86 451h1M88 451h1M106 451h1M118 451h1M179 451h1M205 451h1M261 451h1M315 451h1M334 451h1M41 452h1M43 452h1M53 452h1M55 452h1M73 452h1M75 452h1M85 452h1M87 452h1M107 452h1M117 452h1M179 452h1M205 452h1M261 452h1M315 452h1M334 452h1M41 453h1M43 453h1M53 453h1M55 453h1M73 453h1M75 453h1M85 453h1M87 453h1M107 453h1M117 453h1M180 453h1M204 453h1M261 453h1M315 453h1M334 453h1M42 454h1M44 454h2M51 454h2M54 454h1M74 454h1M76 454h2M83 454h2M86 454h1M108 454h2M115 454h2M180 454h1M204 454h1M261 454h1M315 454h1M334 454h1M43 455h1M46 455h5M53 455h1M75 455h1M78 455h5M85 455h1M110 455h5M180 455h2M203 455h2M262 455h1M314 455h1M322 455h13M44 456h2M51 456h2M76 456h2M83 456h2M181 456h1M203 456h1M262 456h1M314 456h1M46 457h5M78 457h5M182 457h1M202 457h1M262 457h1M314 457h1M48 458h1M182 458h2M201 458h2M263 458h1M313 458h1M48 459h1M183 459h2M200 459h2M263 459h1M313 459h1M48 460h1M185 460h2M198 460h2M263 460h1M313 460h1M48 461h1M186 461h3M196 461h3M264 461h1M312 461h1M48 462h1M189 462h7M264 462h1M312 462h1M48 463h1M192 463h1M265 463h1M311 463h1M48 464h1M192 464h1M265 464h2M310 464h2M48 465h1M192 465h1M266 465h1M310 465h1M48 466h1M192 466h1M267 466h1M309 466h1M48 467h1M192 467h1M268 467h1M308 467h1M48 468h1M192 468h1M269 468h1M307 468h1M48 469h1M192 469h1M270 469h1M306 469h1M48 470h1M192 470h1M271 470h1M305 470h1M48 471h1M192 471h1M272 471h2M303 471h2M48 472h1M192 472h1M273 472h2M302 472h2M46 473h5M110 473h5M192 473h1M275 473h2M300 473h2M44 474h2M51 474h2M108 474h2M115 474h2M192 474h1M277 474h3M297 474h3M43 475h1M46 475h5M53 475h1M78 475h5M93 475h1M98 475h1M107 475h1M110 475h5M117 475h1M192 475h1M280 475h3M294 475h3M42 476h1M44 476h2M51 476h2M54 476h1M76 476h2M83 476h2M93 476h1M98 476h1M106 476h1M108 476h2M115 476h2M118 476h1M192 476h1M283 476h11M41 477h1M43 477h1M53 477h1M55 477h1M75 477h1M85 477h1M93 477h1M98 477h1M105 477h1M107 477h1M117 477h1M119 477h1M192 477h1M41 478h1M43 478h1M53 478h1M55 478h1M75 478h1M85 478h1M93 478h1M98 478h1M105 478h1M107 478h1M117 478h1M119 478h1M192 478h1M40 479h1M42 479h1M54 479h1M56 479h1M74 479h1M86 479h1M93 479h1M98 479h1M104 479h1M106 479h1M118 479h1M120 479h1M192 479h1M40 480h1M42 480h1M54 480h1M56 480h1M74 480h1M86 480h1M93 480h1M98 480h1M104 480h1M106 480h1M118 480h1M120 480h1M192 480h1M40 481h1M42 481h1M54 481h1M56 481h1M74 481h1M86 481h8M98 481h7M106 481h1M118 481h1M120 481h1M192 481h1M40 482h1M42 482h1M54 482h1M56 482h1M74 482h1M86 482h1M93 482h1M98 482h1M104 482h1M106 482h1M118 482h1M120 482h1M192 482h1M40 483h1M42 483h1M54 483h1M56 483h1M74 483h1M86 483h1M93 483h1M98 483h1M104 483h1M106 483h1M118 483h1M120 483h1M192 483h1M41 484h1M43 484h1M53 484h1M55 484h1M75 484h1M85 484h1M93 484h1M98 484h1M105 484h1M107 484h1M117 484h1M119 484h1M192 484h1M41 485h1M43 485h1M53 485h1M55 485h1M75 485h1M85 485h1M93 485h1M98 485h1M105 485h1M107 485h1M117 485h1M119 485h1M192 485h1M42 486h1M44 486h2M51 486h2M54 486h1M76 486h2M83 486h2M93 486h1M98 486h1M106 486h1M108 486h2M115 486h2M118 486h1M192 486h1M43 487h1M46 487h5M53 487h1M78 487h5M93 487h1M98 487h1M107 487h1M110 487h5M117 487h1M192 487h1M44 488h2M51 488h2M108 488h2M115 488h2M192 488h1M46 489h5M110 489h5M192 489h1M192 490h1M192 491h1M192 492h1M192 493h1M192 494h1M192 495h1M192 496h1M192 497h1M192 498h1M192 499h1M192 500h1M192 501h1M192 502h1M192 503h1M192 504h1M78 505h5M192 505h1M76 506h2M83 506h2M192 506h1M46 507h5M75 507h1M78 507h5M85 507h1M110 507h5M192 507h1M44 508h2M51 508h2M74 508h1M76 508h2M83 508h2M86 508h1M108 508h2M115 508h2M192 508h1M43 509h1M53 509h1M73 509h1M75 509h1M85 509h1M87 509h1M107 509h1M117 509h1M192 509h1M43 510h1M53 510h1M73 510h1M75 510h1M85 510h1M87 510h1M107 510h1M117 510h1M192 510h1M42 511h1M54 511h1M72 511h1M74 511h1M86 511h1M88 511h1M106 511h1M118 511h1M192 511h1M42 512h1M54 512h1M72 512h1M74 512h1M86 512h1M88 512h1M106 512h1M118 512h1M192 512h1M42 513h1M54 513h19M74 513h1M86 513h1M88 513h1M106 513h1M118 513h70M192 513h1M197 513h60M42 514h1M54 514h1M72 514h1M74 514h1M86 514h1M88 514h1M106 514h1M118 514h1M192 514h1M257 514h1M42 515h1M54 515h1M72 515h1M74 515h1M86 515h1M88 515h1M106 515h1M118 515h1M192 515h1M258 515h1M43 516h1M53 516h1M73 516h1M75 516h1M85 516h1M87 516h1M107 516h1M117 516h1M192 516h1M259 516h1M43 517h1M53 517h1M73 517h1M75 517h1M85 517h1M87 517h1M107 517h1M117 517h1M192 517h1M260 517h1M44 518h2M51 518h2M74 518h1M76 518h2M83 518h2M86 518h1M108 518h2M115 518h2M187 518h11M261 518h1M283 518h11M46 519h5M74 519h2M78 519h5M85 519h1M110 519h5M184 519h3M198 519h3M262 519h1M280 519h3M294 519h3M48 520h1M73 520h1M76 520h2M83 520h2M112 520h1M181 520h3M201 520h3M263 520h1M277 520h3M297 520h3M48 521h1M72 521h1M78 521h5M112 521h1M179 521h2M204 521h2M264 521h1M275 521h2M300 521h2M48 522h1M71 522h1M112 522h1M177 522h2M206 522h2M265 522h1M273 522h2M302 522h2M48 523h1M70 523h1M112 523h1M176 523h2M207 523h2M266 523h1M272 523h2M303 523h2M48 524h1M69 524h1M112 524h1M175 524h1M209 524h1M267 524h1M271 524h1M305 524h1M48 525h1M68 525h1M112 525h1M174 525h1M210 525h1M268 525h1M270 525h1M306 525h1M48 526h1M67 526h1M112 526h1M173 526h1M211 526h1M269 526h1M307 526h1M48 527h1M66 527h1M112 527h1M172 527h1M212 527h1M268 527h1M308 527h1M48 528h1M65 528h1M112 528h1M171 528h1M213 528h1M267 528h1M309 528h1M48 529h1M64 529h1M112 529h1M170 529h1M214 529h1M266 529h1M310 529h1M48 530h1M63 530h1M112 530h1M169 530h2M214 530h2M265 530h2M310 530h2M48 531h1M62 531h1M112 531h1M169 531h1M215 531h1M265 531h1M311 531h1M48 532h1M61 532h1M112 532h1M168 532h1M216 532h1M264 532h1M312 532h1M48 533h1M60 533h1M112 533h1M168 533h1M216 533h1M264 533h1M312 533h1M48 534h1M59 534h1M112 534h1M167 534h1M217 534h1M263 534h1M313 534h1M48 535h1M58 535h1M112 535h1M167 535h1M217 535h1M263 535h1M313 535h1M48 536h1M57 536h1M112 536h1M167 536h1M217 536h1M263 536h1M313 536h1M48 537h1M56 537h1M78 537h5M112 537h1M166 537h1M218 537h1M262 537h1M314 537h1M48 538h1M55 538h1M76 538h2M83 538h2M112 538h1M166 538h1M218 538h1M262 538h1M314 538h1M46 539h5M54 539h1M75 539h1M78 539h5M85 539h1M110 539h5M166 539h1M218 539h1M262 539h1M314 539h1M322 539h13M44 540h2M51 540h3M74 540h1M76 540h2M83 540h2M86 540h1M108 540h2M115 540h2M165 540h1M219 540h1M261 540h1M315 540h1M334 540h1M43 541h1M53 541h1M73 541h1M75 541h1M85 541h1M87 541h1M107 541h1M117 541h1M165 541h1M219 541h1M261 541h1M315 541h1M334 541h1M43 542h1M53 542h1M73 542h1M75 542h1M85 542h1M87 542h1M107 542h1M117 542h1M165 542h1M219 542h1M261 542h1M315 542h1M334 542h1M42 543h1M54 543h1M72 543h1M74 543h1M86 543h1M88 543h1M106 543h1M118 543h1M165 543h1M219 543h1M261 543h1M315 543h1M323 543h3M334 543h1M42 544h1M54 544h1M72 544h1M74 544h1M86 544h1M88 544h1M106 544h1M118 544h1M165 544h1M219 544h1M261 544h1M315 544h1M322 544h1M326 544h1M334 544h1M42 545h1M54 545h1M72 545h1M74 545h1M86 545h1M88 545h19M118 545h48M219 545h1M261 545h1M315 545h1M322 545h1M326 545h1M334 545h1M42 546h1M54 546h1M72 546h1M74 546h1M86 546h1M88 546h1M106 546h1M118 546h1M165 546h1M219 546h1M261 546h1M315 546h1M322 546h1M326 546h1M334 546h1M42 547h1M54 547h1M72 547h1M74 547h1M86 547h1M88 547h1M106 547h1M118 547h1M165 547h1M219 547h1M261 547h1M315 547h1M323 547h3M334 547h1M43 548h1M53 548h1M73 548h1M75 548h1M85 548h1M87 548h1M107 548h1M117 548h1M165 548h1M219 548h1M261 548h1M315 548h1M334 548h1M43 549h1M53 549h1M73 549h1M75 549h1M85 549h1M87 549h1M107 549h1M117 549h1M165 549h1M219 549h1M261 549h1M315 549h1M334 549h1M44 550h2M51 550h2M74 550h1M76 550h2M83 550h2M86 550h1M108 550h2M115 550h2M165 550h1M219 550h1M261 550h1M315 550h1M334 550h1M46 551h5M75 551h1M78 551h5M85 551h1M110 551h5M166 551h1M218 551h1M262 551h1M314 551h1M322 551h13M76 552h2M83 552h2M166 552h1M218 552h1M262 552h1M314 552h1M78 553h5M166 553h1M218 553h1M262 553h1M314 553h1M167 554h1M217 554h1M263 554h1M313 554h1M167 555h1M217 555h1M263 555h1M313 555h1M167 556h1M217 556h1M263 556h1M313 556h1M168 557h1M216 557h1M264 557h1M312 557h1M168 558h1M216 558h1M264 558h1M312 558h1M169 559h1M215 559h1M265 559h1M311 559h1M169 560h2M214 560h2M265 560h2M310 560h2M170 561h1M214 561h1M266 561h1M310 561h1M171 562h1M213 562h1M267 562h1M309 562h1M172 563h1M212 563h1M268 563h1M308 563h1M173 564h1M211 564h1M269 564h1M307 564h1M174 565h1M210 565h1M270 565h1M306 565h1M175 566h1M209 566h1M271 566h1M305 566h1M176 567h2M207 567h2M272 567h2M303 567h2M177 568h2M206 568h2M273 568h2M302 568h2M179 569h2M204 569h2M275 569h2M300 569h2M181 570h3M201 570h3M277 570h3M297 570h3M184 571h3M198 571h3M280 571h3M294 571h3M187 572h11M283 572h11" />
</svg>