<svg xmlns="http://www.w3.org/2000/svg" viewBox="0 -0.5 470 480" shape-rendering="crispEdges">
<metadata>Made with Pixels to Svg https://codepen.io/shshaw/pen/XbxvNj</metadata>
<path stroke="#ffffff" d="M85 8h1M85 9h2M83 10h2M87 10h1M82 11h1M88 11h1M282 11h10M385 11h10M81 12h1M89 12h1M280 12h2M292 12h2M383 12h2M395 12h2M80 13h1M90 13h2M195 13h43M279 13h2M293 13h2M382 13h2M396 13h2M79 14h13M143 14h10M195 14h1M231 14h7M278 14h1M295 14h1M381 14h1M398 14h1M85 15h1M141 15h2M153 15h2M195 15h1M197 15h1M199 15h1M201 15h1M203 15h1M205 15h1M207 15h1M209 15h1M211 15h1M213 15h1M215 15h1M217 15h1M219 15h1M221 15h1M223 15h1M225 15h1M227 15h1M229 15h1M231 15h7M277 15h1M296 15h1M380 15h1M399 15h1M85 16h1M140 16h2M154 16h2M195 16h1M231 16h7M276 16h2M296 16h2M379 16h2M399 16h2M85 17h1M139 17h1M156 17h1M195 17h1M197 17h1M199 17h1M201 17h1M203 17h1M205 17h1M207 17h1M209 17h1M211 17h1M213 17h1M215 17h1M217 17h1M219 17h1M221 17h1M223 17h1M225 17h1M227 17h1M229 17h1M231 17h7M276 17h1M284 17h6M297 17h1M379 17h1M387 17h6M400 17h1M85 18h1M138 18h1M157 18h1M195 18h1M231 18h7M275 18h1M282 18h2M290 18h2M298 18h1M378 18h1M385 18h2M393 18h2M401 18h1M85 19h1M137 19h2M157 19h2M195 19h1M197 19h1M199 19h1M201 19h1M203 19h1M205 19h1M207 19h1M209 19h1M211 19h1M213 19h1M215 19h1M217 19h1M219 19h1M221 19h1M223 19h1M225 19h1M227 19h1M229 19h1M231 19h7M275 19h1M282 19h1M291 19h1M298 19h1M378 19h1M385 19h1M394 19h1M401 19h1M85 20h1M137 20h1M145 20h6M158 20h1M195 20h1M231 20h7M275 20h1M281 20h1M292 20h1M298 20h1M378 20h1M384 20h1M395 20h1M401 20h1M85 21h1M136 21h1M143 21h2M151 21h2M159 21h1M195 21h1M197 21h1M199 21h1M201 21h1M203 21h1M205 21h1M207 21h1M209 21h1M211 21h1M213 21h1M215 21h1M217 21h1M219 21h1M221 21h1M223 21h1M225 21h1M227 21h1M229 21h1M231 21h7M275 21h1M281 21h1M292 21h1M298 21h1M378 21h1M384 21h1M395 21h1M401 21h1M85 22h1M136 22h1M143 22h1M152 22h1M159 22h1M195 22h1M204 22h1M213 22h1M222 22h1M231 22h7M275 22h1M281 22h1M292 22h1M298 22h1M378 22h1M384 22h1M395 22h1M401 22h1M85 23h1M136 23h1M142 23h1M153 23h1M159 23h1M195 23h1M197 23h1M199 23h1M201 23h1M203 23h3M207 23h1M209 23h1M211 23h5M217 23h1M219 23h1M221 23h3M225 23h1M227 23h1M229 23h1M231 23h7M275 23h1M281 23h1M292 23h1M298 23h1M378 23h1M384 23h1M395 23h1M401 23h1M85 24h1M136 24h1M142 24h1M153 24h1M159 24h1M195 24h1M201 24h2M206 24h2M210 24h2M215 24h2M219 24h2M224 24h2M231 24h7M275 24h1M281 24h1M292 24h1M298 24h1M378 24h1M384 24h1M395 24h1M401 24h1M85 25h1M136 25h1M142 25h1M153 25h1M159 25h43M203 25h1M205 25h1M207 25h1M209 25h3M213 25h1M215 25h3M219 25h1M221 25h1M223 25h1M225 25h1M227 25h1M229 25h1M231 25h7M275 25h1M281 25h1M292 25h1M298 25h1M378 25h1M384 25h1M395 25h1M401 25h1M85 26h1M136 26h1M142 26h1M153 26h1M159 26h1M195 26h1M210 26h1M219 26h1M231 26h1M275 26h1M282 26h1M291 26h1M298 26h1M378 26h1M385 26h1M394 26h1M401 26h1M85 27h1M136 27h1M142 27h1M153 27h1M159 27h1M195 27h1M197 27h1M199 27h1M201 27h1M203 27h1M205 27h1M207 27h1M209 27h3M213 27h1M215 27h1M217 27h1M219 27h1M221 27h1M223 27h1M225 27h1M227 27h1M229 27h1M231 27h1M275 27h1M282 27h2M290 27h2M298 27h1M378 27h1M385 27h2M393 27h2M401 27h1M85 28h1M136 28h1M142 28h1M153 28h1M159 28h1M195 28h1M210 28h1M219 28h1M231 28h1M276 28h1M284 28h6M297 28h1M379 28h1M387 28h6M400 28h1M85 29h1M136 29h1M143 29h1M152 29h1M159 29h1M195 29h1M197 29h1M199 29h1M201 29h1M203 29h1M205 29h1M207 29h1M209 29h3M213 29h1M215 29h1M217 29h1M219 29h1M221 29h1M223 29h1M225 29h1M227 29h1M229 29h1M231 29h1M276 29h2M296 29h2M379 29h2M399 29h2M85 30h1M136 30h1M143 30h2M151 30h2M159 30h1M195 30h1M210 30h1M219 30h1M231 30h1M277 30h1M296 30h1M380 30h1M399 30h1M85 31h1M137 31h1M145 31h6M158 31h1M195 31h1M197 31h1M199 31h1M201 31h1M203 31h1M205 31h1M207 31h1M209 31h3M213 31h1M215 31h1M217 31h1M219 31h1M221 31h1M223 31h1M225 31h1M227 31h1M229 31h1M231 31h1M278 31h1M295 31h1M381 31h1M398 31h1M85 32h1M137 32h2M157 32h2M195 32h1M210 32h1M219 32h1M231 32h1M279 32h2M293 32h2M382 32h2M396 32h2M84 33h4M138 33h1M157 33h1M195 33h1M197 33h1M199 33h1M201 33h1M203 33h1M205 33h1M207 33h1M209 33h3M213 33h1M215 33h1M217 33h1M219 33h1M221 33h1M223 33h1M225 33h1M227 33h1M229 33h1M231 33h1M280 33h2M292 33h2M383 33h2M395 33h2M84 34h1M87 34h1M139 34h1M156 34h1M195 34h1M210 34h1M219 34h1M231 34h1M282 34h10M385 34h10M84 35h1M87 35h1M140 35h2M154 35h2M195 35h1M197 35h1M199 35h1M201 35h1M203 35h1M205 35h1M207 35h1M209 35h3M213 35h1M215 35h1M217 35h1M219 35h1M221 35h1M223 35h1M225 35h1M227 35h1M229 35h1M231 35h1M287 35h1M390 35h1M84 36h4M141 36h2M153 36h2M195 36h1M210 36h1M219 36h1M231 36h1M287 36h1M390 36h1M87 37h1M143 37h10M171 37h41M213 37h1M215 37h1M217 37h1M219 37h1M221 37h1M223 37h1M225 37h1M227 37h1M229 37h1M231 37h1M287 37h1M390 37h1M88 38h1M171 38h1M195 38h1M219 38h1M231 38h1M287 38h1M390 38h1M88 39h1M171 39h1M195 39h1M197 39h1M199 39h1M201 39h1M203 39h1M205 39h1M207 39h1M209 39h1M211 39h1M213 39h1M215 39h1M217 39h1M219 39h1M221 39h1M223 39h1M225 39h1M227 39h1M229 39h1M231 39h1M287 39h1M390 39h1M89 40h1M171 40h1M195 40h1M219 40h1M231 40h1M287 40h1M390 40h1M89 41h1M171 41h1M195 41h1M197 41h1M199 41h1M201 41h1M203 41h1M205 41h1M207 41h1M209 41h1M211 41h1M213 41h1M215 41h1M217 41h1M219 41h1M221 41h1M223 41h1M225 41h1M227 41h1M229 41h1M231 41h1M287 41h1M390 41h1M90 42h1M171 42h1M195 42h1M219 42h1M231 42h1M287 42h1M390 42h1M91 43h1M171 43h1M195 43h1M197 43h1M199 43h1M201 43h1M203 43h1M205 43h1M207 43h1M209 43h1M211 43h1M213 43h1M215 43h1M217 43h1M219 43h1M221 43h1M223 43h1M225 43h1M227 43h1M229 43h1M231 43h1M287 43h1M390 43h1M91 44h1M171 44h1M195 44h1M219 44h1M231 44h1M287 44h1M390 44h1M92 45h1M171 45h1M195 45h1M197 45h1M199 45h1M201 45h1M203 45h1M205 45h1M207 45h1M209 45h1M211 45h1M213 45h1M215 45h1M217 45h1M219 45h1M221 45h1M223 45h1M225 45h1M227 45h1M229 45h1M231 45h1M287 45h1M343 45h10M390 45h1M446 45h10M92 46h1M171 46h1M195 46h1M219 46h1M231 46h1M287 46h1M341 46h2M353 46h2M390 46h2M444 46h2M456 46h2M93 47h1M171 47h1M195 47h1M197 47h1M199 47h1M201 47h1M203 47h1M205 47h1M207 47h1M209 47h1M211 47h1M213 47h1M215 47h1M217 47h1M219 47h1M221 47h1M223 47h1M225 47h1M227 47h1M229 47h1M231 47h1M288 47h4M340 47h2M354 47h2M392 47h3M443 47h2M457 47h2M94 48h1M171 48h1M195 48h1M219 48h1M231 48h1M290 48h3M339 48h1M356 48h1M393 48h3M442 48h1M459 48h1M94 49h1M171 49h1M183 49h37M221 49h1M223 49h1M225 49h1M227 49h1M229 49h1M231 49h1M287 49h3M338 49h1M357 49h1M390 49h3M441 49h1M460 49h1M95 50h1M143 50h10M171 50h1M183 50h1M195 50h1M231 50h1M285 50h3M337 50h2M357 50h2M387 50h4M440 50h2M460 50h2M95 51h1M141 51h2M153 51h2M171 51h1M183 51h1M195 51h1M197 51h1M199 51h1M201 51h1M203 51h1M205 51h1M207 51h1M209 51h1M211 51h1M213 51h1M215 51h1M217 51h1M219 51h1M221 51h1M223 51h1M225 51h1M227 51h1M229 51h1M231 51h1M282 51h3M312 51h1M324 51h1M337 51h1M345 51h6M358 51h1M385 51h2M415 51h2M427 51h1M440 51h1M448 51h6M461 51h1M72 52h4M96 52h4M140 52h2M154 52h2M171 52h1M183 52h1M195 52h1M231 52h1M283 52h3M312 52h3M324 52h1M336 52h1M343 52h2M351 52h2M359 52h1M386 52h3M415 52h4M427 52h1M439 52h1M446 52h2M454 52h2M462 52h1M72 53h1M75 53h1M96 53h1M99 53h1M139 53h1M156 53h1M171 53h1M183 53h1M195 53h1M197 53h1M199 53h1M201 53h1M203 53h1M205 53h1M207 53h1M209 53h1M211 53h1M213 53h1M215 53h1M217 53h1M219 53h1M221 53h1M223 53h1M225 53h1M227 53h1M229 53h1M231 53h1M286 53h2M312 53h6M324 53h1M336 53h1M343 53h1M352 53h1M359 53h1M389 53h2M415 53h6M427 53h1M439 53h1M446 53h1M455 53h1M462 53h1M72 54h1M75 54h1M96 54h1M99 54h1M138 54h1M157 54h1M171 54h1M183 54h1M195 54h1M231 54h1M288 54h3M298 54h1M312 54h8M324 54h1M336 54h1M342 54h1M353 54h1M359 54h1M391 54h4M401 54h1M415 54h8M427 54h1M439 54h1M445 54h1M456 54h1M462 54h1M72 55h4M96 55h4M137 55h2M157 55h2M171 55h1M177 55h13M195 55h37M291 55h2M295 55h4M312 55h10M324 55h1M336 55h1M342 55h1M353 55h1M359 55h1M393 55h3M398 55h4M415 55h10M427 55h1M439 55h1M445 55h1M456 55h1M462 55h1M73 56h1M97 56h1M137 56h1M145 56h6M158 56h1M171 56h1M178 56h1M189 56h1M288 56h3M293 56h6M312 56h13M336 56h1M342 56h1M353 56h1M359 56h1M390 56h3M395 56h7M415 56h13M439 56h1M445 56h1M456 56h1M462 56h1M73 57h1M97 57h1M136 57h1M143 57h2M151 57h2M159 57h1M171 57h1M179 57h1M187 57h2M285 57h3M292 57h45M342 57h1M353 57h1M359 57h1M388 57h3M395 57h45M445 57h1M456 57h1M462 57h1M73 58h1M97 58h1M136 58h1M143 58h1M152 58h1M159 58h1M171 58h1M180 58h1M186 58h1M282 58h3M294 58h5M312 58h11M324 58h1M336 58h1M342 58h1M353 58h1M359 58h1M385 58h3M398 58h4M415 58h11M427 58h1M439 58h1M445 58h1M456 58h1M462 58h1M73 59h1M97 59h1M136 59h1M142 59h1M153 59h1M159 59h1M171 59h1M181 59h1M185 59h1M282 59h3M297 59h2M312 59h9M324 59h1M336 59h1M342 59h1M353 59h1M359 59h1M386 59h3M400 59h2M415 59h8M427 59h1M439 59h1M445 59h1M456 59h1M462 59h1M73 60h1M97 60h1M136 60h1M142 60h1M153 60h1M159 60h1M171 60h1M182 60h3M285 60h3M312 60h7M324 60h1M336 60h1M343 60h1M352 60h1M359 60h1M389 60h2M415 60h6M427 60h1M439 60h1M446 60h1M455 60h1M462 60h1M73 61h1M97 61h1M136 61h1M142 61h1M153 61h1M159 61h13M183 61h1M287 61h4M312 61h4M324 61h1M336 61h1M343 61h2M351 61h2M359 61h1M391 61h3M415 61h4M427 61h1M439 61h1M446 61h2M454 61h2M462 61h1M73 62h1M97 62h1M136 62h1M142 62h1M153 62h1M159 62h1M291 62h2M312 62h2M324 62h1M337 62h1M345 62h6M358 62h1M394 62h2M415 62h2M427 62h1M440 62h1M448 62h6M461 62h1M73 63h1M97 63h1M136 63h1M142 63h1M153 63h1M159 63h1M288 63h3M312 63h1M324 63h1M337 63h2M357 63h2M391 63h3M415 63h1M427 63h1M440 63h2M460 63h2M73 64h1M97 64h1M136 64h1M142 64h1M153 64h1M159 64h1M286 64h2M338 64h1M357 64h1M388 64h3M441 64h1M460 64h1M73 65h1M97 65h1M136 65h1M143 65h1M152 65h1M159 65h1M283 65h3M339 65h1M356 65h1M385 65h3M442 65h1M459 65h1M73 66h1M97 66h1M136 66h1M143 66h2M151 66h2M159 66h1M282 66h3M340 66h2M354 66h2M385 66h3M443 66h2M457 66h2M73 67h1M97 67h1M137 67h1M145 67h6M158 67h1M285 67h3M341 67h2M353 67h2M388 67h3M444 67h2M456 67h2M73 68h1M97 68h1M137 68h2M157 68h2M287 68h1M343 68h10M390 68h1M446 68h10M73 69h1M97 69h1M138 69h1M157 69h1M287 69h1M390 69h1M73 70h1M97 70h1M139 70h1M156 70h1M287 70h1M390 70h1M73 71h1M97 71h1M140 71h2M154 71h2M287 71h1M390 71h1M73 72h1M97 72h1M141 72h2M153 72h2M287 72h1M390 72h1M73 73h1M97 73h1M143 73h10M287 73h1M390 73h1M73 74h1M91 74h13M287 74h1M390 74h1M41 75h10M73 75h2M92 75h1M102 75h1M193 75h10M287 75h1M390 75h1M39 76h2M51 76h2M75 76h4M93 76h2M101 76h1M191 76h2M203 76h2M287 76h1M390 76h1M38 77h2M52 77h2M76 77h3M95 77h1M100 77h1M190 77h2M204 77h2M287 77h1M390 77h1M37 78h1M54 78h1M73 78h3M96 78h1M98 78h2M189 78h1M206 78h1M287 78h1M390 78h1M36 79h1M55 79h1M71 79h3M97 79h1M188 79h1M207 79h1M287 79h1M390 79h1M35 80h2M55 80h2M69 80h2M187 80h2M207 80h2M287 80h1M384 80h13M35 81h1M43 81h6M56 81h1M69 81h4M187 81h1M195 81h6M208 81h1M281 81h13M384 81h1M396 81h1M34 82h1M41 82h2M49 82h2M57 82h1M73 82h2M186 82h1M193 82h2M201 82h2M209 82h1M282 82h1M292 82h1M385 82h1M394 82h2M34 83h1M41 83h1M50 83h1M57 83h1M75 83h3M186 83h1M193 83h1M202 83h1M209 83h1M283 83h1M290 83h2M386 83h1M393 83h1M34 84h1M40 84h1M51 84h1M57 84h1M77 84h2M186 84h1M192 84h1M203 84h1M209 84h1M284 84h1M289 84h1M387 84h2M392 84h1M34 85h1M40 85h1M51 85h1M57 85h1M74 85h3M186 85h1M192 85h1M203 85h1M209 85h1M285 85h2M288 85h1M389 85h1M391 85h1M16 86h2M34 86h1M40 86h1M51 86h1M57 86h1M71 86h3M186 86h1M192 86h1M203 86h1M209 86h1M236 86h1M287 86h1M390 86h1M16 87h3M34 87h1M40 87h1M51 87h1M57 87h1M69 87h2M186 87h1M192 87h1M203 87h1M209 87h1M235 87h1M237 87h1M15 88h1M17 88h2M34 88h1M40 88h1M51 88h1M57 88h1M69 88h3M186 88h1M192 88h1M203 88h1M209 88h1M234 88h1M238 88h2M15 89h1M17 89h1M19 89h1M34 89h1M40 89h1M51 89h1M57 89h1M72 89h2M186 89h1M192 89h1M203 89h1M209 89h1M233 89h1M240 89h1M14 90h1M17 90h1M19 90h1M34 90h1M41 90h1M50 90h1M57 90h1M74 90h4M186 90h1M193 90h1M202 90h1M209 90h1M231 90h2M241 90h1M14 91h1M17 91h1M20 91h1M34 91h1M41 91h2M49 91h2M57 91h1M77 91h2M186 91h1M193 91h2M201 91h2M209 91h1M230 91h1M242 91h1M13 92h1M17 92h1M20 92h1M35 92h1M43 92h6M56 92h1M74 92h3M174 92h2M187 92h1M195 92h6M208 92h1M230 92h13M17 93h1M35 93h2M55 93h2M72 93h2M174 93h3M187 93h2M207 93h2M236 93h1M17 94h1M36 94h1M55 94h1M69 94h3M173 94h1M175 94h2M188 94h1M207 94h1M236 94h1M17 95h1M37 95h1M54 95h1M69 95h3M173 95h1M175 95h1M177 95h1M189 95h1M206 95h1M236 95h1M17 96h1M38 96h2M52 96h2M72 96h2M172 96h1M175 96h1M177 96h1M190 96h2M204 96h2M236 96h1M17 97h1M39 97h2M51 97h2M73 97h1M172 97h1M175 97h1M178 97h1M191 97h2M203 97h2M236 97h1M17 98h1M41 98h10M73 98h1M103 98h61M171 98h1M175 98h1M178 98h1M193 98h10M236 98h1M17 99h1M46 99h1M73 99h1M103 99h1M163 99h1M175 99h1M197 99h1M236 99h1M17 100h1M46 100h1M73 100h1M103 100h1M105 100h1M107 100h1M109 100h1M111 100h1M113 100h1M115 100h1M117 100h1M119 100h1M121 100h1M123 100h1M125 100h1M127 100h1M129 100h1M131 100h1M133 100h1M135 100h1M137 100h1M139 100h1M141 100h1M143 100h1M145 100h1M147 100h1M149 100h1M151 100h1M153 100h1M155 100h1M157 100h1M159 100h1M161 100h1M163 100h1M175 100h1M197 100h1M236 100h1M17 101h1M46 101h1M73 101h1M103 101h1M163 101h1M175 101h1M197 101h1M236 101h1M17 102h1M46 102h1M73 102h1M103 102h1M105 102h1M107 102h1M109 102h1M111 102h1M113 102h1M115 102h1M117 102h1M119 102h1M121 102h1M123 102h1M125 102h1M127 102h1M129 102h1M131 102h1M133 102h1M135 102h1M137 102h1M139 102h1M141 102h1M143 102h1M145 102h1M147 102h1M149 102h1M151 102h1M153 102h1M155 102h1M157 102h1M159 102h1M161 102h1M163 102h1M175 102h1M197 102h1M236 102h1M17 103h1M46 103h1M73 103h31M163 103h13M197 103h1M236 103h1M17 104h1M46 104h1M103 104h1M105 104h1M107 104h1M109 104h1M111 104h1M113 104h1M115 104h1M117 104h1M119 104h1M121 104h1M123 104h1M125 104h1M127 104h1M129 104h1M131 104h1M133 104h1M135 104h1M137 104h1M139 104h1M141 104h1M143 104h1M145 104h1M147 104h1M149 104h1M151 104h1M153 104h1M155 104h1M157 104h1M159 104h1M161 104h1M163 104h1M197 104h1M236 104h1M17 105h2M46 105h1M103 105h1M163 105h1M197 105h1M236 105h3M19 106h4M46 106h1M103 106h1M105 106h1M107 106h1M109 106h1M111 106h1M113 106h1M115 106h1M117 106h1M119 106h1M131 106h1M133 106h1M135 106h1M147 106h1M149 106h1M151 106h1M153 106h1M155 106h1M157 106h1M159 106h1M161 106h1M163 106h1M197 106h1M239 106h3M19 107h3M46 107h1M103 107h1M163 107h1M197 107h1M239 107h3M17 108h2M46 108h1M103 108h1M105 108h1M107 108h1M109 108h1M111 108h1M113 108h1M115 108h1M117 108h1M119 108h1M123 108h1M125 108h1M127 108h1M131 108h1M133 108h1M135 108h1M137 108h1M139 108h1M143 108h1M145 108h1M147 108h1M149 108h1M151 108h1M153 108h1M155 108h1M157 108h1M159 108h1M161 108h1M163 108h1M197 108h1M236 108h3M14 109h3M46 109h1M103 109h1M163 109h1M197 109h1M233 109h3M386 109h10M12 110h2M46 110h1M103 110h1M105 110h1M107 110h1M109 110h1M111 110h1M113 110h1M115 110h1M117 110h1M119 110h1M123 110h1M125 110h1M127 110h1M131 110h1M133 110h1M135 110h1M137 110h1M139 110h1M143 110h1M145 110h1M147 110h1M149 110h1M151 110h1M153 110h1M155 110h1M157 110h1M159 110h1M161 110h1M163 110h1M197 110h1M231 110h2M384 110h2M396 110h2M14 111h3M46 111h1M103 111h1M163 111h1M197 111h1M233 111h3M383 111h2M397 111h2M17 112h2M46 112h1M103 112h1M105 112h1M107 112h1M109 112h1M111 112h1M113 112h1M115 112h1M117 112h1M119 112h1M131 112h1M133 112h1M135 112h1M137 112h1M139 112h1M143 112h1M145 112h1M147 112h1M149 112h1M151 112h1M153 112h1M155 112h1M157 112h1M159 112h1M161 112h1M163 112h1M197 112h1M236 112h2M382 112h1M399 112h1M19 113h3M27 113h2M46 113h1M103 113h1M163 113h1M197 113h1M225 113h2M238 113h4M381 113h1M400 113h1M20 114h3M25 114h4M45 114h2M103 114h1M105 114h1M107 114h1M109 114h1M111 114h1M113 114h1M115 114h1M117 114h1M119 114h1M123 114h1M125 114h1M127 114h1M131 114h1M133 114h1M135 114h1M137 114h1M139 114h1M143 114h1M145 114h1M147 114h1M149 114h1M151 114h1M153 114h1M155 114h1M157 114h1M159 114h1M161 114h1M163 114h1M197 114h2M225 114h4M239 114h3M380 114h2M400 114h2M17 115h3M22 115h82M163 115h69M236 115h3M380 115h1M388 115h6M401 115h1M14 116h3M22 116h7M44 116h4M103 116h1M105 116h1M107 116h1M109 116h1M111 116h1M113 116h1M115 116h1M117 116h1M119 116h1M123 116h1M125 116h1M127 116h1M131 116h1M133 116h1M135 116h1M137 116h1M139 116h1M143 116h1M145 116h1M147 116h1M149 116h1M151 116h1M153 116h1M155 116h1M157 116h1M159 116h1M161 116h1M163 116h1M196 116h4M225 116h7M234 116h3M379 116h1M386 116h2M394 116h2M402 116h1M12 117h2M25 117h4M45 117h2M103 117h1M163 117h1M197 117h2M225 117h4M231 117h3M379 117h1M386 117h1M395 117h1M402 117h1M13 118h3M28 118h1M103 118h1M105 118h1M107 118h1M109 118h1M111 118h1M113 118h1M115 118h1M117 118h1M119 118h1M123 118h1M125 118h1M127 118h1M131 118h1M133 118h1M135 118h1M137 118h1M139 118h1M143 118h1M145 118h1M147 118h1M149 118h1M151 118h1M153 118h1M155 118h1M157 118h1M159 118h1M161 118h1M163 118h1M225 118h1M232 118h4M379 118h1M385 118h1M396 118h1M402 118h1M16 119h2M103 119h1M163 119h1M236 119h2M379 119h1M385 119h1M396 119h1M402 119h1M18 120h4M103 120h1M105 120h1M107 120h1M109 120h1M111 120h1M113 120h1M115 120h1M117 120h1M119 120h1M121 120h1M123 120h1M125 120h1M127 120h1M129 120h1M131 120h1M133 120h1M135 120h1M137 120h1M139 120h1M141 120h1M143 120h1M145 120h1M147 120h1M149 120h1M151 120h1M153 120h1M155 120h1M157 120h1M159 120h1M161 120h1M163 120h1M238 120h3M379 120h1M385 120h1M396 120h1M402 120h1M20 121h3M103 121h1M163 121h1M240 121h2M379 121h1M385 121h1M396 121h1M402 121h1M17 122h3M103 122h1M105 122h1M107 122h1M109 122h1M111 122h1M113 122h1M115 122h1M117 122h1M119 122h1M121 122h1M123 122h1M125 122h1M127 122h1M129 122h1M131 122h1M133 122h1M135 122h1M137 122h1M139 122h1M141 122h1M143 122h1M145 122h1M147 122h1M149 122h1M151 122h1M153 122h1M155 122h1M157 122h1M159 122h1M161 122h1M163 122h1M236 122h4M379 122h1M385 122h1M396 122h1M402 122h1M15 123h3M103 123h1M163 123h1M234 123h3M379 123h1M385 123h1M396 123h1M402 123h1M12 124h3M103 124h1M105 124h1M107 124h1M109 124h1M111 124h1M113 124h1M115 124h1M117 124h1M119 124h1M121 124h1M123 124h1M125 124h1M127 124h1M129 124h1M131 124h1M133 124h1M135 124h1M137 124h1M139 124h1M141 124h1M143 124h1M145 124h1M147 124h1M149 124h1M151 124h1M153 124h1M155 124h1M157 124h1M159 124h1M161 124h1M163 124h1M231 124h3M379 124h1M386 124h1M395 124h1M402 124h1M12 125h4M103 125h1M163 125h1M232 125h3M379 125h1M386 125h2M394 125h2M402 125h1M16 126h2M103 126h1M105 126h1M107 126h1M109 126h1M111 126h1M113 126h1M115 126h1M117 126h1M119 126h1M131 126h1M133 126h1M135 126h1M147 126h1M149 126h1M151 126h1M153 126h1M155 126h1M157 126h1M159 126h1M161 126h1M163 126h1M235 126h2M380 126h1M388 126h6M401 126h1M17 127h1M71 127h33M163 127h53M236 127h1M380 127h2M400 127h2M17 128h1M71 128h1M103 128h1M105 128h1M107 128h1M109 128h1M111 128h1M113 128h1M115 128h1M117 128h1M119 128h1M123 128h1M125 128h1M127 128h1M131 128h1M133 128h1M135 128h1M139 128h1M141 128h1M143 128h1M145 128h1M147 128h1M149 128h1M151 128h1M153 128h1M155 128h1M157 128h1M159 128h1M161 128h1M163 128h1M215 128h1M236 128h1M381 128h1M400 128h1M17 129h1M71 129h1M103 129h1M163 129h1M215 129h1M236 129h1M382 129h1M399 129h1M17 130h1M71 130h1M103 130h1M105 130h1M107 130h1M109 130h1M111 130h1M113 130h1M115 130h1M117 130h1M119 130h1M123 130h1M125 130h1M127 130h1M131 130h1M133 130h1M135 130h1M139 130h1M141 130h1M143 130h1M145 130h1M147 130h1M149 130h1M151 130h1M153 130h1M155 130h1M157 130h1M159 130h1M161 130h1M163 130h1M215 130h1M236 130h1M383 130h2M397 130h2M17 131h1M71 131h1M103 131h1M163 131h1M215 131h1M236 131h1M384 131h2M396 131h2M17 132h1M71 132h1M103 132h1M105 132h1M107 132h1M109 132h1M111 132h1M113 132h1M115 132h1M117 132h1M119 132h1M131 132h1M133 132h1M135 132h1M147 132h1M149 132h1M151 132h1M153 132h1M155 132h1M157 132h1M159 132h1M161 132h1M163 132h1M215 132h1M236 132h1M386 132h10M17 133h1M71 133h1M103 133h1M163 133h1M215 133h1M236 133h1M391 133h1M17 134h1M71 134h1M103 134h1M105 134h1M107 134h1M109 134h1M111 134h1M113 134h1M115 134h1M117 134h1M119 134h1M123 134h1M125 134h1M127 134h1M131 134h1M133 134h1M135 134h1M137 134h1M139 134h1M141 134h1M143 134h1M147 134h1M149 134h1M151 134h1M153 134h1M155 134h1M157 134h1M159 134h1M161 134h1M163 134h1M215 134h1M236 134h1M391 134h1M17 135h1M71 135h1M103 135h1M163 135h1M215 135h1M236 135h1M391 135h1M17 136h1M71 136h1M103 136h1M105 136h1M107 136h1M109 136h1M111 136h1M113 136h1M115 136h1M117 136h1M119 136h1M123 136h1M125 136h1M127 136h1M131 136h1M133 136h1M135 136h1M137 136h1M139 136h1M141 136h1M143 136h1M147 136h1M149 136h1M151 136h1M153 136h1M155 136h1M157 136h1M159 136h1M161 136h1M163 136h1M215 136h1M236 136h1M391 136h1M17 137h1M71 137h1M103 137h1M163 137h1M215 137h1M236 137h1M391 137h1M17 138h1M71 138h1M103 138h1M105 138h1M107 138h1M109 138h1M111 138h1M113 138h1M115 138h1M117 138h1M119 138h1M131 138h1M133 138h1M135 138h1M147 138h1M149 138h1M151 138h1M153 138h1M155 138h1M157 138h1M159 138h1M161 138h1M163 138h1M215 138h1M236 138h1M391 138h1M11 139h13M71 139h1M91 139h13M163 139h20M215 139h1M233 139h1M236 139h1M240 139h1M391 139h1M11 140h1M22 140h1M71 140h1M91 140h1M103 140h1M105 140h1M107 140h1M109 140h1M111 140h1M113 140h1M115 140h1M117 140h1M119 140h1M121 140h1M123 140h1M125 140h1M127 140h1M129 140h1M131 140h1M133 140h1M135 140h1M137 140h1M139 140h1M141 140h1M143 140h1M145 140h1M147 140h1M149 140h1M151 140h1M153 140h1M155 140h1M157 140h1M159 140h1M161 140h1M163 140h1M182 140h1M215 140h1M233 140h1M236 140h1M239 140h1M391 140h1M12 141h1M21 141h1M71 141h1M91 141h1M103 141h1M163 141h1M182 141h1M215 141h1M234 141h1M236 141h1M239 141h1M391 141h1M13 142h2M20 142h1M44 142h2M71 142h1M91 142h1M103 142h1M105 142h1M107 142h1M109 142h1M111 142h1M113 142h1M115 142h1M117 142h1M119 142h1M121 142h1M123 142h1M125 142h1M127 142h1M129 142h1M131 142h1M133 142h1M135 142h1M137 142h1M139 142h1M141 142h1M143 142h1M145 142h1M147 142h1M149 142h1M151 142h1M153 142h1M155 142h1M157 142h1M159 142h1M161 142h1M163 142h1M182 142h1M215 142h1M234 142h1M236 142h1M238 142h1M391 142h1M15 143h1M19 143h1M44 143h2M71 143h1M91 143h1M103 143h1M163 143h1M182 143h1M215 143h1M235 143h2M238 143h1M391 143h1M16 144h1M18 144h1M43 144h1M45 144h2M71 144h1M91 144h1M103 144h1M105 144h1M107 144h1M109 144h1M111 144h1M113 144h1M115 144h1M117 144h1M119 144h1M121 144h1M123 144h1M125 144h1M127 144h1M129 144h1M131 144h1M133 144h1M135 144h1M137 144h1M139 144h1M141 144h1M143 144h1M145 144h1M147 144h1M149 144h1M151 144h1M153 144h1M155 144h1M157 144h1M159 144h1M161 144h1M163 144h1M182 144h1M215 144h1M235 144h3M391 144h1M447 144h10M17 145h1M43 145h1M45 145h2M71 145h1M85 145h13M103 145h1M163 145h1M182 145h1M215 145h1M236 145h2M391 145h3M445 145h2M457 145h2M42 146h1M45 146h1M47 146h1M71 146h1M86 146h1M97 146h1M103 146h61M182 146h1M215 146h1M394 146h3M444 146h2M458 146h2M42 147h1M45 147h1M47 147h1M71 147h1M87 147h1M95 147h2M182 147h1M215 147h1M392 147h4M443 147h1M460 147h1M41 148h1M45 148h1M48 148h1M71 148h1M88 148h1M94 148h1M182 148h1M215 148h1M390 148h2M442 148h1M461 148h1M45 149h1M71 149h1M89 149h1M93 149h1M182 149h1M215 149h1M387 149h3M416 149h1M428 149h1M441 149h2M461 149h2M45 150h1M71 150h1M90 150h1M92 150h1M182 150h1M215 150h1M386 150h2M416 150h2M428 150h1M441 150h1M449 150h6M462 150h1M45 151h1M71 151h1M91 151h1M182 151h1M215 151h1M388 151h4M416 151h5M428 151h1M440 151h1M447 151h2M455 151h2M463 151h1M45 152h1M71 152h1M182 152h1M215 152h1M391 152h3M416 152h7M428 152h1M440 152h1M447 152h1M456 152h1M463 152h1M45 153h1M71 153h1M182 153h1M215 153h1M394 153h3M401 153h2M416 153h9M428 153h1M440 153h1M446 153h1M457 153h1M463 153h1M45 154h1M71 154h1M182 154h1M215 154h1M393 154h3M398 154h5M416 154h11M428 154h1M440 154h1M446 154h1M457 154h1M463 154h1M45 155h1M71 155h1M182 155h1M215 155h1M391 155h2M396 155h45M446 155h1M457 155h1M463 155h1M45 156h1M71 156h1M182 156h3M216 156h3M387 156h4M397 156h6M416 156h13M440 156h1M446 156h1M457 156h1M463 156h1M45 157h1M71 157h1M185 157h2M219 157h2M386 157h2M400 157h3M416 157h10M428 157h1M440 157h1M446 157h1M457 157h1M463 157h1M45 158h1M71 158h1M183 158h3M217 158h3M388 158h3M402 158h1M416 158h7M428 158h1M440 158h1M446 158h1M457 158h1M463 158h1M45 159h1M71 159h1M181 159h2M214 159h3M391 159h2M416 159h5M428 159h1M440 159h1M447 159h1M456 159h1M463 159h1M45 160h1M71 160h1M177 160h4M211 160h3M393 160h4M416 160h3M428 160h1M440 160h1M447 160h2M455 160h2M463 160h1M45 161h1M71 161h1M177 161h2M211 161h2M393 161h4M416 161h1M428 161h1M441 161h1M449 161h6M462 161h1M46 162h3M71 162h1M179 162h4M213 162h3M391 162h2M441 162h2M461 162h2M49 163h1M71 163h1M182 163h3M215 163h4M388 163h3M442 163h1M461 163h1M45 164h4M71 164h1M185 164h2M219 164h2M386 164h2M443 164h1M460 164h1M43 165h3M71 165h1M183 165h4M217 165h3M387 165h4M444 165h2M458 165h2M40 166h3M71 166h1M181 166h2M215 166h2M391 166h1M445 166h2M457 166h2M40 167h3M71 167h1M178 167h3M212 167h3M391 167h1M447 167h10M43 168h3M71 168h1M177 168h2M211 168h2M391 168h1M45 169h3M71 169h1M179 169h3M213 169h3M391 169h1M48 170h2M54 170h2M71 170h2M182 170h2M215 170h3M391 170h1M46 171h3M51 171h5M70 171h4M184 171h3M218 171h3M391 171h1M44 172h2M50 172h24M184 172h3M218 172h3M391 172h1M40 173h4M51 173h5M71 173h2M182 173h2M215 173h3M303 173h10M391 173h1M40 174h2M54 174h2M71 174h1M178 174h4M212 174h3M301 174h2M313 174h2M391 174h1M42 175h4M71 175h1M177 175h1M211 175h1M300 175h2M314 175h2M391 175h1M45 176h3M71 176h1M178 176h4M212 176h3M299 176h1M316 176h1M391 176h1M48 177h2M71 177h1M182 177h1M215 177h1M298 177h1M317 177h1M391 177h1M46 178h4M71 178h1M182 178h1M215 178h1M297 178h2M317 178h2M391 178h1M44 179h2M71 179h1M182 179h1M215 179h1M297 179h1M305 179h6M318 179h1M385 179h13M41 180h3M71 180h1M182 180h1M215 180h1M296 180h1M303 180h2M311 180h2M319 180h1M385 180h2M396 180h1M40 181h2M71 181h1M182 181h1M215 181h1M296 181h1M303 181h1M312 181h1M319 181h1M387 181h1M395 181h1M42 182h3M71 182h1M182 182h1M215 182h1M296 182h1M302 182h1M313 182h1M319 182h1M388 182h1M394 182h1M45 183h1M71 183h1M182 183h1M215 183h1M296 183h1M302 183h1M313 183h1M319 183h1M389 183h1M393 183h1M45 184h1M71 184h1M152 184h10M182 184h1M215 184h1M237 184h10M296 184h1M302 184h1M313 184h1M319 184h1M390 184h3M45 185h1M71 185h1M150 185h2M162 185h2M182 185h1M215 185h1M235 185h2M247 185h2M296 185h1M302 185h1M313 185h1M319 185h1M391 185h1M45 186h1M71 186h1M149 186h2M163 186h2M182 186h1M215 186h1M234 186h2M248 186h2M296 186h1M302 186h1M313 186h1M319 186h1M45 187h1M71 187h1M148 187h1M165 187h1M182 187h1M215 187h1M233 187h1M250 187h1M296 187h1M302 187h1M313 187h1M319 187h1M45 188h1M71 188h1M147 188h1M166 188h1M182 188h1M215 188h1M232 188h1M251 188h1M296 188h1M303 188h1M312 188h1M319 188h1M45 189h1M71 189h1M146 189h2M166 189h2M182 189h1M215 189h1M231 189h2M251 189h2M296 189h1M303 189h2M311 189h2M319 189h1M45 190h1M71 190h1M146 190h1M154 190h6M167 190h1M182 190h1M215 190h1M231 190h1M239 190h6M252 190h1M297 190h1M305 190h6M318 190h1M45 191h1M71 191h1M145 191h1M152 191h2M160 191h2M168 191h1M182 191h1M215 191h1M230 191h1M237 191h2M245 191h2M253 191h1M297 191h2M317 191h2M45 192h1M71 192h1M145 192h1M152 192h1M161 192h1M168 192h1M182 192h1M215 192h1M230 192h1M237 192h1M246 192h1M253 192h1M298 192h1M317 192h1M45 193h1M71 193h1M145 193h1M151 193h1M162 193h1M168 193h1M182 193h1M215 193h1M230 193h1M236 193h1M247 193h1M253 193h1M299 193h1M316 193h1M45 194h1M71 194h1M145 194h1M151 194h1M162 194h1M168 194h1M181 194h2M215 194h2M230 194h1M236 194h1M247 194h1M253 194h1M300 194h2M314 194h2M45 195h1M71 195h1M145 195h1M151 195h1M162 195h1M168 195h1M180 195h4M214 195h4M230 195h1M236 195h1M247 195h1M253 195h1M301 195h2M313 195h2M39 196h13M67 196h10M145 196h1M151 196h1M162 196h1M168 196h16M214 196h17M236 196h1M247 196h1M253 196h1M303 196h10M39 197h2M50 197h1M65 197h2M77 197h2M145 197h1M151 197h1M162 197h1M168 197h1M181 197h2M215 197h2M230 197h1M236 197h1M247 197h1M253 197h1M308 197h1M41 198h1M48 198h2M64 198h2M78 198h2M145 198h1M151 198h1M162 198h1M168 198h1M182 198h1M215 198h1M230 198h1M236 198h1M247 198h1M253 198h1M308 198h1M42 199h1M47 199h1M63 199h1M80 199h1M145 199h1M152 199h1M161 199h1M168 199h1M182 199h1M215 199h1M230 199h1M237 199h1M246 199h1M253 199h1M308 199h1M43 200h1M46 200h1M62 200h1M81 200h1M145 200h1M152 200h2M160 200h2M168 200h1M182 200h1M215 200h1M230 200h1M237 200h2M245 200h2M253 200h1M308 200h1M44 201h2M61 201h2M81 201h2M146 201h1M154 201h6M167 201h1M182 201h1M215 201h1M231 201h1M239 201h6M252 201h1M308 201h1M45 202h1M61 202h1M69 202h6M82 202h1M146 202h2M166 202h2M182 202h1M215 202h1M231 202h2M251 202h2M308 202h1M60 203h1M67 203h2M75 203h2M83 203h1M147 203h1M166 203h1M182 203h1M215 203h1M232 203h1M251 203h1M308 203h1M397 203h43M60 204h1M67 204h1M76 204h1M83 204h1M148 204h1M165 204h1M182 204h1M215 204h1M233 204h1M250 204h1M308 204h1M397 204h1M433 204h7M60 205h1M66 205h1M77 205h1M83 205h1M149 205h2M163 205h2M182 205h1M215 205h1M234 205h2M248 205h2M308 205h1M397 205h1M399 205h1M401 205h1M403 205h1M405 205h1M407 205h1M409 205h1M411 205h1M413 205h1M415 205h1M417 205h1M419 205h1M421 205h1M423 205h1M425 205h1M427 205h1M429 205h1M431 205h1M433 205h7M60 206h1M66 206h1M77 206h1M83 206h1M150 206h2M162 206h2M182 206h1M215 206h1M235 206h2M247 206h2M308 206h1M397 206h1M433 206h7M60 207h1M66 207h1M77 207h1M83 207h1M152 207h10M182 207h1M215 207h1M237 207h10M308 207h1M397 207h1M399 207h1M401 207h1M403 207h1M405 207h1M407 207h1M409 207h1M411 207h1M413 207h1M415 207h1M417 207h1M419 207h1M421 207h1M423 207h1M425 207h1M427 207h1M429 207h1M431 207h1M433 207h7M60 208h1M66 208h1M77 208h1M83 208h1M182 208h1M215 208h1M308 208h1M397 208h1M433 208h7M60 209h1M66 209h1M77 209h1M83 209h1M182 209h1M215 209h1M308 209h1M397 209h1M399 209h1M401 209h1M403 209h1M405 209h1M407 209h1M409 209h1M411 209h1M413 209h1M415 209h1M417 209h1M419 209h1M421 209h1M423 209h1M425 209h1M427 209h1M429 209h1M431 209h1M433 209h7M60 210h1M66 210h1M77 210h1M83 210h1M182 210h1M215 210h1M308 210h1M397 210h1M433 210h7M60 211h1M67 211h1M76 211h1M83 211h1M182 211h1M215 211h1M308 211h1M397 211h1M399 211h1M401 211h1M403 211h1M405 211h1M407 211h1M409 211h1M411 211h1M413 211h1M415 211h1M417 211h1M419 211h1M421 211h1M423 211h1M425 211h1M427 211h1M429 211h1M431 211h1M433 211h7M60 212h1M67 212h2M75 212h2M83 212h1M182 212h1M215 212h1M308 212h1M397 212h1M406 212h1M415 212h1M424 212h1M433 212h7M61 213h1M69 213h6M82 213h1M182 213h1M215 213h1M308 213h1M397 213h1M399 213h1M401 213h1M403 213h1M405 213h1M407 213h1M409 213h1M411 213h1M413 213h5M419 213h1M421 213h1M423 213h1M425 213h1M427 213h1M429 213h1M431 213h1M433 213h7M61 214h2M81 214h2M182 214h1M215 214h1M308 214h1M397 214h1M403 214h2M408 214h2M412 214h2M417 214h2M421 214h2M426 214h2M433 214h7M62 215h1M81 215h1M182 215h1M215 215h1M308 215h1M373 215h31M405 215h1M407 215h1M409 215h1M411 215h3M415 215h1M417 215h1M419 215h1M421 215h1M423 215h1M425 215h1M427 215h1M429 215h1M431 215h1M433 215h7M63 216h1M80 216h1M182 216h1M215 216h1M308 216h1M373 216h1M397 216h1M412 216h1M421 216h1M433 216h1M64 217h2M78 217h2M172 217h21M205 217h21M309 217h4M339 217h2M347 217h2M373 217h1M397 217h1M399 217h1M401 217h1M403 217h1M405 217h1M407 217h1M409 217h1M411 217h3M415 217h1M417 217h1M419 217h1M421 217h1M423 217h1M425 217h1M427 217h1M429 217h1M431 217h1M433 217h1M65 218h2M77 218h2M172 218h21M205 218h21M311 218h3M339 218h2M347 218h2M373 218h1M397 218h1M412 218h1M421 218h1M433 218h1M67 219h10M308 219h3M339 219h2M347 219h2M373 219h1M397 219h1M399 219h1M401 219h1M403 219h1M405 219h1M407 219h1M409 219h1M411 219h3M415 219h1M417 219h1M419 219h1M421 219h1M423 219h1M425 219h1M427 219h1M429 219h1M431 219h1M433 219h1M306 220h3M339 220h2M347 220h2M373 220h1M397 220h1M412 220h1M421 220h1M433 220h1M303 221h3M339 221h2M347 221h2M373 221h1M397 221h1M399 221h1M401 221h1M403 221h1M405 221h1M407 221h1M409 221h1M411 221h3M415 221h1M417 221h1M419 221h1M421 221h1M423 221h1M425 221h1M427 221h1M429 221h1M431 221h1M433 221h1M304 222h3M339 222h2M347 222h2M373 222h1M397 222h1M412 222h1M421 222h1M433 222h1M307 223h2M339 223h2M347 223h2M373 223h1M397 223h1M399 223h1M401 223h1M403 223h1M405 223h1M407 223h1M409 223h1M411 223h3M415 223h1M417 223h1M419 223h1M421 223h1M423 223h1M425 223h1M427 223h1M429 223h1M431 223h1M433 223h1M172 224h21M205 224h21M309 224h3M318 224h1M339 224h2M347 224h2M373 224h1M397 224h1M412 224h1M421 224h1M433 224h1M172 225h21M205 225h21M312 225h2M316 225h3M339 225h2M347 225h2M373 225h2M397 225h1M399 225h1M401 225h1M403 225h1M405 225h1M407 225h1M409 225h1M411 225h3M415 225h1M417 225h1M419 225h1M421 225h1M423 225h1M425 225h1M427 225h1M429 225h1M431 225h1M433 225h1M182 226h1M215 226h1M308 226h4M314 226h5M339 226h2M347 226h2M372 226h4M397 226h1M412 226h1M421 226h1M433 226h1M182 227h1M215 227h1M306 227h3M313 227h28M347 227h67M415 227h1M417 227h1M419 227h1M421 227h1M423 227h1M425 227h1M427 227h1M429 227h1M431 227h1M433 227h1M182 228h1M215 228h1M303 228h3M315 228h4M339 228h2M347 228h2M373 228h2M397 228h1M421 228h1M433 228h1M182 229h1M215 229h1M303 229h3M318 229h1M339 229h2M347 229h2M397 229h1M399 229h1M401 229h1M403 229h1M405 229h1M407 229h1M409 229h1M411 229h1M413 229h1M415 229h1M417 229h1M419 229h1M421 229h1M423 229h1M425 229h1M427 229h1M429 229h1M431 229h1M433 229h1M182 230h1M215 230h1M306 230h3M339 230h2M347 230h2M397 230h1M421 230h1M433 230h1M182 231h1M215 231h1M308 231h4M339 231h2M347 231h2M397 231h1M399 231h1M401 231h1M403 231h1M405 231h1M407 231h1M409 231h1M411 231h1M413 231h1M415 231h1M417 231h1M419 231h1M421 231h1M423 231h1M425 231h1M427 231h1M429 231h1M431 231h1M433 231h1M182 232h1M215 232h1M312 232h2M339 232h2M347 232h2M397 232h1M421 232h1M433 232h1M182 233h1M215 233h1M309 233h3M339 233h2M347 233h2M397 233h1M399 233h1M401 233h1M403 233h1M405 233h1M407 233h1M409 233h1M411 233h1M413 233h1M415 233h1M417 233h1M419 233h1M421 233h1M423 233h1M425 233h1M427 233h1M429 233h1M431 233h1M433 233h1M182 234h1M215 234h1M307 234h2M339 234h2M347 234h2M397 234h1M421 234h1M433 234h1M182 235h1M215 235h1M303 235h4M339 235h2M347 235h2M397 235h1M399 235h1M401 235h1M403 235h1M405 235h1M407 235h1M409 235h1M411 235h1M413 235h1M415 235h1M417 235h1M419 235h1M421 235h1M423 235h1M425 235h1M427 235h1M429 235h1M431 235h1M433 235h1M182 236h1M215 236h1M303 236h3M339 236h2M347 236h2M397 236h1M421 236h1M433 236h1M182 237h1M215 237h1M306 237h3M339 237h2M347 237h2M397 237h1M399 237h1M401 237h1M403 237h1M405 237h1M407 237h1M409 237h1M411 237h1M413 237h1M415 237h1M417 237h1M419 237h1M421 237h1M423 237h1M425 237h1M427 237h1M429 237h1M431 237h1M433 237h1M182 238h1M215 238h1M308 238h1M397 238h1M421 238h1M433 238h1M176 239h13M209 239h13M308 239h1M385 239h37M423 239h1M425 239h1M427 239h1M429 239h1M431 239h1M433 239h1M177 240h1M186 240h1M210 240h2M220 240h1M308 240h1M385 240h1M397 240h1M433 240h1M178 241h1M185 241h1M212 241h1M219 241h1M308 241h1M385 241h1M397 241h1M399 241h1M401 241h1M403 241h1M405 241h1M407 241h1M409 241h1M411 241h1M413 241h1M415 241h1M417 241h1M419 241h1M421 241h1M423 241h1M425 241h1M427 241h1M429 241h1M431 241h1M433 241h1M179 242h1M184 242h1M213 242h1M218 242h1M308 242h1M385 242h1M397 242h1M433 242h1M180 243h1M183 243h1M214 243h1M216 243h2M308 243h1M385 243h1M397 243h1M399 243h1M401 243h1M403 243h1M405 243h1M407 243h1M409 243h1M411 243h1M413 243h1M415 243h1M417 243h1M419 243h1M421 243h1M423 243h1M425 243h1M427 243h1M429 243h1M431 243h1M433 243h1M181 244h2M215 244h1M308 244h1M385 244h1M397 244h1M433 244h1M308 245h1M379 245h13M397 245h37M308 246h1M380 246h1M390 246h1M308 247h1M381 247h2M389 247h1M308 248h1M383 248h1M388 248h1M308 249h1M384 249h1M386 249h2M308 250h1M385 250h1M302 251h13M303 252h1M312 252h2M304 253h1M311 253h1M305 254h1M310 254h1M306 255h2M309 255h1M308 256h1M157 259h10M263 259h10M446 259h10M155 260h2M167 260h2M261 260h2M273 260h2M444 260h2M456 260h2M154 261h2M168 261h2M260 261h2M274 261h2M443 261h2M457 261h2M153 262h1M170 262h1M259 262h1M276 262h1M442 262h1M459 262h1M152 263h1M171 263h1M258 263h1M277 263h1M441 263h1M460 263h1M151 264h2M171 264h2M257 264h2M277 264h2M440 264h2M460 264h2M151 265h1M159 265h6M172 265h1M186 265h1M193 265h2M201 265h1M257 265h1M265 265h6M278 265h1M407 265h1M414 265h1M421 265h1M440 265h1M448 265h6M461 265h1M150 266h1M157 266h2M165 266h2M173 266h1M186 266h2M193 266h2M200 266h2M256 266h1M263 266h2M271 266h2M279 266h1M407 266h1M414 266h1M421 266h2M439 266h1M446 266h2M454 266h2M462 266h1M150 267h1M157 267h1M166 267h1M173 267h1M186 267h2M193 267h2M200 267h2M256 267h1M263 267h1M272 267h1M279 267h1M406 267h1M408 267h1M413 267h1M415 267h1M421 267h2M439 267h1M446 267h1M455 267h1M462 267h1M60 268h49M150 268h1M156 268h1M167 268h1M173 268h1M185 268h1M187 268h1M193 268h2M200 268h1M202 268h1M256 268h1M262 268h1M273 268h1M279 268h1M406 268h1M408 268h1M413 268h1M415 268h1M420 268h1M422 268h1M439 268h1M445 268h1M456 268h1M462 268h1M60 269h1M108 269h1M150 269h1M156 269h1M167 269h1M173 269h1M185 269h1M188 269h1M192 269h1M195 269h1M199 269h1M202 269h1M256 269h1M262 269h1M273 269h1M279 269h1M406 269h1M408 269h1M413 269h1M415 269h1M420 269h1M423 269h1M439 269h1M445 269h1M456 269h1M462 269h1M60 270h1M62 270h1M64 270h1M66 270h1M68 270h1M70 270h1M72 270h1M74 270h1M76 270h1M78 270h1M80 270h1M82 270h1M84 270h1M86 270h1M88 270h1M90 270h1M92 270h1M94 270h1M96 270h1M98 270h1M100 270h1M102 270h1M104 270h1M106 270h1M108 270h1M150 270h1M156 270h1M167 270h1M173 270h13M188 270h1M192 270h1M195 270h1M199 270h1M202 270h2M206 270h45M256 270h1M262 270h1M273 270h1M279 270h1M363 270h43M409 270h1M412 270h1M416 270h1M419 270h2M423 270h1M426 270h14M445 270h1M456 270h1M462 270h1M60 271h1M108 271h1M150 271h1M156 271h1M167 271h1M173 271h1M189 271h1M191 271h1M196 271h1M198 271h1M203 271h1M206 271h1M250 271h1M256 271h1M262 271h1M273 271h1M279 271h1M363 271h1M409 271h1M412 271h1M416 271h1M419 271h1M423 271h1M426 271h1M439 271h1M445 271h1M456 271h1M462 271h1M60 272h1M62 272h1M64 272h1M66 272h1M68 272h1M70 272h1M72 272h1M74 272h1M76 272h1M78 272h1M80 272h1M82 272h1M84 272h1M86 272h1M88 272h1M90 272h1M92 272h1M94 272h1M96 272h1M98 272h1M100 272h1M102 272h1M104 272h1M106 272h1M108 272h1M150 272h1M156 272h1M167 272h1M173 272h1M189 272h1M191 272h1M196 272h1M198 272h1M203 272h1M205 272h1M250 272h1M256 272h1M262 272h1M273 272h1M279 272h1M363 272h1M409 272h1M424 272h1M426 272h1M439 272h1M445 272h1M456 272h1M462 272h1M28 273h1M60 273h1M108 273h1M150 273h1M156 273h1M167 273h1M173 273h1M189 273h1M191 273h1M196 273h1M198 273h1M203 273h1M205 273h1M250 273h1M256 273h1M262 273h1M273 273h1M279 273h1M363 273h1M410 273h2M417 273h2M424 273h1M426 273h1M439 273h1M445 273h1M456 273h1M462 273h1M27 274h3M60 274h1M62 274h1M64 274h1M66 274h1M68 274h1M70 274h1M72 274h1M74 274h1M76 274h1M78 274h1M80 274h1M82 274h1M84 274h1M86 274h1M88 274h1M90 274h1M92 274h1M94 274h1M96 274h1M98 274h1M100 274h1M102 274h1M104 274h1M106 274h1M108 274h1M150 274h1M157 274h1M166 274h1M173 274h1M189 274h2M197 274h2M204 274h2M250 274h1M256 274h1M263 274h1M272 274h1M279 274h1M363 274h1M410 274h2M417 274h2M424 274h2M439 274h1M446 274h1M455 274h1M462 274h1M27 275h2M30 275h1M60 275h1M108 275h1M150 275h1M157 275h2M165 275h2M173 275h1M190 275h1M197 275h1M204 275h1M250 275h1M256 275h1M263 275h2M271 275h2M279 275h1M363 275h1M410 275h2M425 275h1M439 275h1M446 275h2M454 275h2M462 275h1M26 276h1M28 276h1M30 276h1M60 276h1M62 276h1M64 276h1M66 276h1M68 276h1M70 276h1M72 276h1M74 276h1M76 276h1M78 276h1M80 276h1M82 276h1M84 276h1M86 276h1M88 276h1M90 276h1M92 276h1M94 276h1M96 276h1M98 276h1M100 276h1M102 276h1M104 276h1M106 276h1M108 276h1M151 276h1M159 276h6M172 276h1M250 276h1M257 276h1M265 276h6M278 276h1M363 276h1M440 276h1M448 276h6M461 276h1M26 277h1M28 277h1M31 277h1M60 277h1M62 277h16M108 277h1M151 277h2M171 277h2M250 277h1M257 277h2M277 277h2M363 277h1M440 277h2M460 277h2M25 278h1M28 278h1M31 278h1M60 278h1M62 278h1M64 278h15M80 278h1M82 278h1M84 278h1M86 278h1M88 278h1M90 278h1M92 278h1M94 278h1M96 278h1M98 278h1M100 278h1M102 278h1M104 278h1M106 278h1M108 278h1M126 278h2M152 278h1M171 278h1M250 278h1M258 278h1M277 278h1M363 278h1M441 278h1M460 278h1M24 279h1M28 279h1M32 279h1M60 279h1M62 279h1M64 279h12M77 279h1M108 279h1M128 279h2M153 279h1M170 279h1M250 279h1M259 279h1M276 279h1M363 279h1M442 279h1M459 279h1M28 280h1M60 280h1M62 280h1M64 280h15M80 280h1M82 280h1M84 280h1M86 280h1M88 280h1M90 280h1M92 280h1M94 280h1M96 280h1M98 280h1M100 280h1M102 280h1M104 280h5M130 280h2M154 280h2M168 280h2M250 280h1M260 280h2M274 280h2M363 280h1M443 280h2M457 280h2M28 281h1M60 281h1M63 281h13M77 281h1M104 281h29M155 281h2M167 281h2M250 281h1M261 281h2M273 281h2M363 281h1M444 281h2M456 281h2M28 282h1M60 282h1M62 282h13M76 282h1M78 282h1M80 282h1M82 282h1M84 282h1M86 282h1M88 282h1M90 282h1M92 282h1M94 282h1M96 282h1M98 282h1M100 282h1M102 282h1M104 282h1M106 282h1M108 282h1M129 282h2M157 282h10M250 282h1M263 282h10M363 282h1M446 282h10M28 283h1M60 283h1M63 283h14M108 283h1M127 283h2M250 283h1M268 283h1M363 283h1M28 284h1M60 284h1M62 284h1M64 284h1M66 284h1M68 284h1M70 284h1M72 284h1M74 284h1M76 284h1M78 284h1M80 284h1M82 284h1M84 284h1M86 284h1M88 284h1M90 284h1M92 284h1M94 284h1M96 284h1M98 284h1M100 284h1M102 284h1M104 284h1M106 284h1M108 284h1M126 284h1M250 284h1M268 284h1M363 284h1M28 285h1M60 285h1M108 285h1M250 285h1M268 285h1M363 285h1M28 286h1M60 286h1M62 286h1M64 286h1M66 286h1M68 286h1M70 286h1M72 286h1M74 286h1M76 286h1M78 286h1M80 286h1M82 286h1M84 286h1M86 286h1M88 286h1M90 286h1M92 286h1M94 286h1M96 286h1M98 286h1M100 286h1M102 286h1M104 286h1M106 286h1M108 286h1M250 286h1M268 286h1M363 286h1M28 287h1M60 287h1M79 287h4M108 287h1M250 287h1M268 287h1M363 287h1M28 288h1M60 288h1M62 288h1M64 288h1M66 288h1M68 288h1M70 288h1M72 288h1M74 288h1M76 288h1M78 288h5M84 288h1M86 288h1M88 288h1M90 288h1M92 288h1M94 288h1M96 288h1M98 288h1M100 288h1M102 288h1M104 288h1M106 288h1M108 288h1M157 288h10M250 288h1M268 288h1M363 288h1M446 288h10M28 289h1M60 289h1M78 289h5M108 289h1M155 289h2M167 289h2M250 289h1M268 289h1M363 289h1M444 289h2M456 289h2M28 290h1M60 290h1M62 290h1M64 290h1M66 290h1M68 290h1M70 290h1M72 290h1M74 290h1M76 290h7M84 290h1M86 290h1M88 290h1M90 290h1M92 290h1M94 290h1M96 290h1M98 290h1M100 290h1M102 290h1M104 290h1M106 290h1M108 290h1M154 290h2M168 290h2M250 290h1M268 290h1M363 290h1M443 290h2M457 290h2M28 291h1M60 291h1M75 291h2M87 291h1M108 291h1M153 291h1M170 291h1M250 291h1M268 291h1M363 291h1M442 291h1M459 291h1M28 292h1M60 292h1M62 292h1M64 292h5M70 292h1M72 292h1M74 292h1M76 292h1M78 292h1M80 292h1M82 292h1M84 292h1M86 292h3M90 292h1M92 292h1M94 292h1M96 292h1M98 292h1M100 292h1M102 292h1M104 292h1M106 292h1M108 292h1M152 292h1M171 292h1M250 292h1M268 292h1M363 292h1M441 292h1M460 292h1M28 293h1M60 293h1M64 293h6M73 293h1M87 293h5M108 293h1M151 293h2M171 293h2M250 293h1M268 293h1M363 293h1M440 293h2M460 293h2M28 294h1M60 294h1M62 294h1M64 294h31M96 294h1M98 294h1M100 294h1M102 294h1M104 294h1M106 294h1M108 294h1M151 294h1M159 294h6M172 294h1M250 294h1M268 294h1M363 294h1M440 294h1M448 294h6M461 294h1M28 295h1M60 295h1M64 295h6M75 295h1M87 295h7M108 295h1M150 295h1M157 295h2M165 295h2M173 295h1M186 295h1M193 295h2M201 295h1M250 295h1M268 295h1M363 295h1M407 295h1M414 295h1M421 295h1M439 295h1M446 295h2M454 295h2M462 295h1M28 296h1M60 296h1M62 296h1M64 296h7M72 296h1M74 296h1M76 296h1M78 296h1M80 296h1M82 296h1M84 296h1M86 296h5M92 296h1M94 296h1M96 296h1M98 296h1M100 296h1M102 296h1M104 296h1M106 296h1M108 296h1M150 296h1M157 296h1M166 296h1M173 296h1M186 296h2M193 296h2M200 296h2M250 296h1M268 296h1M363 296h1M407 296h1M414 296h1M421 296h2M439 296h1M446 296h1M455 296h1M462 296h1M28 297h1M60 297h1M65 297h4M76 297h1M87 297h2M108 297h1M150 297h1M156 297h1M167 297h1M173 297h1M186 297h2M193 297h2M200 297h2M250 297h1M268 297h1M363 297h1M406 297h1M408 297h1M413 297h1M415 297h1M421 297h2M439 297h1M445 297h1M456 297h1M462 297h1M18 298h21M60 298h1M62 298h1M64 298h1M66 298h1M68 298h1M70 298h1M72 298h1M74 298h1M76 298h3M80 298h1M82 298h1M84 298h1M86 298h1M88 298h1M90 298h1M92 298h1M94 298h1M96 298h1M98 298h1M100 298h1M102 298h1M104 298h1M106 298h1M108 298h1M150 298h1M156 298h1M167 298h1M173 298h1M185 298h1M187 298h1M192 298h1M195 298h1M200 298h1M202 298h1M250 298h1M268 298h1M363 298h1M406 298h1M408 298h1M413 298h1M415 298h1M420 298h1M422 298h1M439 298h1M445 298h1M456 298h1M462 298h1M18 299h21M60 299h1M77 299h1M82 299h4M108 299h1M150 299h1M156 299h1M167 299h1M173 299h1M185 299h1M188 299h1M192 299h1M195 299h1M199 299h1M202 299h1M250 299h1M268 299h1M363 299h1M406 299h1M408 299h1M413 299h1M415 299h1M420 299h1M423 299h1M439 299h1M445 299h1M456 299h1M462 299h1M60 300h1M62 300h1M64 300h1M66 300h1M68 300h1M70 300h1M72 300h1M74 300h1M76 300h1M78 300h9M88 300h1M90 300h1M92 300h1M94 300h1M96 300h1M98 300h1M100 300h1M102 300h1M104 300h1M106 300h1M108 300h1M150 300h1M156 300h1M167 300h1M173 300h13M188 300h1M192 300h1M195 300h1M199 300h1M202 300h2M206 300h33M250 300h1M268 300h1M363 300h1M375 300h31M409 300h1M412 300h1M416 300h1M419 300h2M423 300h1M426 300h14M445 300h1M456 300h1M462 300h1M60 301h1M82 301h4M108 301h1M150 301h1M156 301h1M167 301h1M173 301h1M189 301h1M191 301h1M196 301h1M198 301h1M203 301h1M206 301h1M238 301h1M250 301h1M268 301h1M363 301h1M375 301h1M409 301h1M412 301h1M416 301h1M419 301h1M424 301h1M426 301h1M439 301h1M445 301h1M456 301h1M462 301h1M60 302h1M62 302h1M64 302h1M66 302h1M68 302h1M70 302h1M72 302h1M74 302h1M76 302h1M78 302h1M80 302h1M82 302h5M88 302h1M90 302h1M92 302h1M94 302h1M96 302h1M98 302h1M100 302h1M102 302h1M104 302h1M106 302h1M108 302h1M117 302h1M123 302h1M150 302h1M156 302h1M167 302h1M173 302h1M189 302h1M191 302h1M196 302h1M198 302h1M203 302h1M205 302h1M238 302h1M250 302h1M269 302h3M363 302h1M375 302h1M410 302h1M424 302h1M426 302h1M439 302h1M445 302h1M456 302h1M462 302h1M60 303h1M108 303h1M118 303h1M121 303h2M150 303h1M157 303h1M166 303h1M173 303h1M189 303h1M191 303h1M196 303h1M198 303h1M204 303h2M238 303h1M250 303h1M272 303h2M363 303h1M375 303h1M410 303h2M417 303h2M424 303h1M426 303h1M439 303h1M446 303h1M455 303h1M462 303h1M60 304h1M62 304h1M64 304h1M66 304h1M68 304h1M70 304h1M72 304h1M74 304h1M76 304h1M78 304h1M80 304h1M82 304h1M84 304h1M86 304h1M88 304h1M90 304h1M92 304h1M94 304h1M96 304h1M98 304h1M100 304h1M102 304h1M104 304h5M119 304h2M150 304h1M157 304h2M165 304h2M173 304h1M190 304h1M197 304h1M204 304h2M238 304h1M250 304h1M269 304h3M363 304h1M375 304h1M410 304h2M417 304h2M424 304h2M439 304h1M446 304h2M454 304h2M462 304h1M60 305h1M104 305h17M151 305h1M159 305h6M172 305h1M190 305h1M197 305h1M204 305h1M238 305h1M250 305h1M266 305h3M363 305h1M375 305h1M410 305h2M425 305h1M440 305h1M448 305h6M461 305h1M18 306h21M60 306h1M62 306h1M64 306h1M66 306h1M68 306h1M70 306h1M72 306h1M74 306h1M76 306h1M78 306h1M80 306h1M82 306h1M84 306h1M86 306h1M88 306h1M90 306h1M92 306h1M94 306h1M96 306h1M98 306h1M100 306h1M102 306h1M104 306h1M106 306h1M108 306h1M118 306h1M121 306h1M151 306h2M171 306h2M238 306h1M250 306h1M263 306h3M363 306h1M375 306h1M440 306h2M460 306h2M18 307h21M60 307h1M108 307h1M117 307h1M122 307h2M152 307h1M171 307h1M238 307h1M250 307h1M263 307h3M363 307h1M375 307h1M441 307h1M460 307h1M28 308h1M60 308h1M62 308h1M64 308h1M66 308h1M68 308h1M70 308h1M72 308h1M74 308h1M76 308h1M78 308h1M80 308h1M82 308h1M84 308h1M86 308h1M88 308h1M90 308h1M92 308h1M94 308h1M96 308h1M98 308h1M100 308h1M102 308h1M104 308h1M106 308h1M108 308h1M153 308h1M170 308h1M238 308h1M250 308h1M266 308h3M363 308h1M375 308h1M442 308h1M459 308h1M28 309h1M60 309h1M108 309h1M154 309h2M168 309h2M238 309h1M250 309h1M268 309h4M363 309h1M375 309h1M443 309h2M457 309h2M28 310h1M60 310h1M62 310h1M64 310h1M66 310h1M68 310h1M70 310h1M72 310h1M74 310h1M76 310h1M78 310h1M80 310h1M82 310h1M84 310h1M86 310h1M88 310h1M90 310h1M92 310h1M94 310h1M96 310h1M98 310h1M100 310h1M102 310h1M104 310h1M106 310h1M108 310h1M155 310h2M167 310h2M238 310h1M250 310h1M272 310h2M363 310h1M375 310h1M444 310h2M456 310h2M28 311h1M60 311h1M108 311h1M157 311h10M238 311h1M250 311h1M269 311h3M363 311h1M375 311h1M446 311h10M28 312h1M60 312h1M62 312h1M64 312h1M66 312h1M68 312h1M70 312h1M72 312h1M74 312h1M76 312h1M78 312h1M80 312h1M82 312h1M84 312h1M86 312h1M88 312h1M90 312h1M92 312h1M94 312h1M96 312h1M98 312h1M100 312h1M102 312h1M104 312h1M106 312h1M108 312h1M238 312h1M250 312h1M267 312h2M363 312h1M375 312h1M28 313h1M60 313h1M108 313h1M238 313h1M250 313h1M264 313h3M363 313h1M375 313h1M28 314h1M60 314h1M62 314h1M64 314h1M66 314h1M68 314h1M70 314h1M72 314h1M74 314h1M76 314h1M78 314h1M80 314h1M82 314h1M84 314h1M86 314h1M88 314h1M90 314h1M92 314h1M94 314h1M96 314h1M98 314h1M100 314h1M102 314h1M104 314h1M106 314h1M108 314h1M117 314h1M123 314h1M238 314h1M250 314h1M263 314h3M363 314h1M375 314h1M28 315h1M60 315h1M108 315h1M118 315h1M121 315h2M238 315h1M250 315h1M266 315h3M363 315h1M375 315h1M28 316h1M60 316h1M62 316h1M64 316h1M66 316h1M68 316h1M70 316h1M72 316h1M74 316h1M76 316h1M78 316h1M80 316h1M82 316h1M84 316h1M86 316h1M88 316h1M90 316h1M92 316h1M94 316h1M96 316h1M98 316h1M100 316h1M102 316h1M104 316h17M238 316h1M250 316h1M268 316h3M363 316h1M375 316h1M28 317h1M60 317h1M104 317h5M119 317h2M238 317h1M250 317h1M271 317h3M363 317h1M375 317h1M28 318h1M60 318h1M62 318h1M64 318h1M66 318h1M68 318h1M70 318h1M72 318h1M74 318h1M76 318h1M78 318h1M80 318h1M82 318h1M84 318h1M86 318h1M88 318h1M90 318h1M92 318h1M94 318h1M96 318h1M98 318h1M100 318h1M102 318h1M104 318h1M106 318h1M108 318h1M118 318h1M121 318h2M157 318h10M238 318h1M250 318h1M270 318h3M351 318h2M363 318h1M375 318h1M446 318h10M28 319h1M60 319h1M108 319h1M117 319h1M123 319h1M155 319h2M167 319h2M238 319h1M250 319h1M267 319h3M350 319h3M363 319h1M375 319h1M444 319h2M456 319h2M28 320h1M60 320h1M62 320h1M64 320h1M66 320h1M68 320h1M70 320h1M72 320h1M74 320h1M76 320h1M78 320h1M80 320h1M82 320h1M84 320h1M86 320h1M88 320h1M90 320h1M92 320h1M94 320h1M96 320h1M98 320h1M100 320h1M102 320h1M104 320h1M106 320h1M108 320h1M154 320h2M168 320h2M238 320h1M250 320h1M264 320h3M350 320h2M353 320h1M363 320h1M375 320h1M443 320h2M457 320h2M28 321h1M60 321h1M108 321h1M153 321h1M170 321h1M238 321h1M250 321h1M263 321h2M349 321h1M351 321h1M353 321h1M363 321h1M375 321h1M442 321h1M459 321h1M28 322h1M60 322h1M62 322h1M64 322h1M66 322h1M68 322h1M70 322h1M72 322h1M74 322h1M76 322h1M78 322h1M80 322h1M82 322h1M84 322h1M86 322h1M88 322h1M90 322h1M92 322h1M94 322h1M96 322h1M98 322h1M100 322h1M102 322h1M104 322h1M106 322h1M108 322h1M152 322h1M171 322h1M238 322h1M250 322h1M265 322h3M349 322h1M351 322h1M354 322h1M363 322h1M375 322h1M441 322h1M460 322h1M28 323h1M60 323h1M108 323h1M151 323h2M171 323h2M238 323h1M250 323h1M268 323h1M348 323h1M351 323h1M354 323h1M363 323h1M375 323h1M440 323h2M460 323h2M28 324h1M60 324h1M62 324h1M64 324h1M66 324h1M68 324h1M70 324h1M72 324h1M74 324h1M76 324h1M78 324h1M80 324h1M82 324h1M84 324h1M86 324h1M88 324h1M90 324h1M92 324h1M94 324h1M96 324h1M98 324h1M100 324h1M102 324h1M104 324h1M106 324h1M108 324h1M151 324h1M159 324h6M172 324h1M238 324h1M250 324h1M268 324h1M279 324h61M348 324h1M351 324h1M355 324h1M363 324h1M375 324h1M440 324h1M448 324h6M461 324h1M28 325h1M60 325h1M108 325h1M150 325h1M157 325h2M165 325h2M173 325h1M186 325h2M193 325h2M200 325h2M238 325h1M250 325h1M268 325h1M279 325h1M339 325h1M351 325h1M363 325h1M375 325h1M407 325h1M414 325h1M421 325h1M439 325h1M446 325h2M454 325h2M462 325h1M22 326h13M60 326h1M62 326h1M64 326h1M66 326h1M68 326h1M70 326h1M72 326h1M74 326h1M76 326h1M78 326h1M80 326h1M82 326h1M84 326h1M86 326h1M88 326h1M90 326h1M92 326h1M94 326h1M96 326h1M98 326h1M100 326h1M102 326h1M104 326h1M106 326h1M108 326h1M117 326h1M122 326h2M150 326h1M157 326h1M166 326h1M173 326h1M186 326h2M193 326h2M200 326h2M238 326h1M250 326h1M268 326h1M279 326h1M281 326h1M283 326h1M285 326h1M287 326h1M289 326h1M291 326h1M293 326h1M295 326h1M297 326h1M299 326h1M301 326h1M303 326h1M305 326h1M307 326h1M309 326h1M311 326h1M313 326h1M315 326h1M317 326h1M319 326h1M321 326h1M323 326h1M325 326h1M327 326h1M329 326h1M331 326h1M333 326h1M335 326h1M337 326h1M339 326h1M351 326h1M363 326h1M375 326h1M406 326h2M414 326h2M421 326h2M439 326h1M446 326h1M455 326h1M462 326h1M23 327h1M33 327h1M60 327h1M108 327h1M118 327h1M121 327h1M150 327h1M156 327h1M167 327h1M173 327h1M186 327h2M193 327h2M200 327h2M238 327h1M250 327h1M268 327h1M279 327h1M339 327h1M351 327h1M363 327h1M375 327h1M406 327h1M408 327h1M413 327h1M415 327h1M420 327h1M422 327h1M439 327h1M445 327h1M456 327h1M462 327h1M24 328h1M32 328h1M60 328h1M62 328h1M64 328h1M66 328h1M68 328h1M70 328h1M72 328h1M74 328h1M76 328h1M78 328h1M80 328h1M82 328h1M84 328h1M86 328h1M88 328h1M90 328h1M92 328h1M94 328h1M96 328h1M98 328h1M100 328h1M102 328h1M104 328h17M150 328h1M156 328h1M167 328h1M173 328h1M185 328h1M187 328h1M192 328h1M195 328h1M200 328h1M202 328h1M238 328h1M250 328h1M268 328h1M279 328h1M281 328h1M283 328h1M285 328h1M287 328h1M289 328h1M291 328h1M293 328h1M295 328h1M297 328h1M299 328h1M301 328h1M303 328h1M305 328h1M307 328h1M309 328h1M311 328h1M313 328h1M315 328h1M317 328h1M319 328h1M321 328h1M323 328h1M325 328h1M327 328h1M329 328h1M331 328h1M333 328h1M335 328h1M337 328h1M339 328h1M351 328h1M363 328h1M375 328h1M406 328h1M408 328h1M413 328h1M415 328h1M420 328h1M422 328h1M439 328h1M445 328h1M456 328h1M462 328h1M25 329h1M31 329h1M60 329h1M104 329h5M119 329h2M150 329h1M156 329h1M167 329h1M173 329h1M185 329h1M188 329h1M192 329h1M195 329h1M199 329h1M202 329h1M238 329h1M250 329h1M268 329h1M279 329h1M339 329h1M351 329h1M363 329h1M375 329h1M406 329h1M408 329h1M413 329h1M415 329h1M420 329h1M423 329h1M439 329h1M445 329h1M456 329h1M462 329h1M26 330h1M30 330h1M60 330h1M62 330h1M64 330h1M66 330h1M68 330h1M70 330h1M72 330h1M74 330h1M76 330h1M78 330h1M80 330h1M82 330h1M84 330h1M86 330h1M88 330h1M90 330h1M92 330h1M94 330h1M96 330h1M98 330h1M100 330h1M102 330h1M104 330h1M106 330h1M108 330h1M118 330h1M121 330h2M150 330h1M156 330h1M167 330h1M173 330h13M188 330h1M191 330h2M195 330h2M199 330h1M202 330h2M206 330h21M238 330h1M250 330h1M268 330h12M281 330h1M283 330h1M285 330h1M287 330h1M289 330h1M291 330h1M293 330h1M295 330h1M297 330h1M299 330h1M301 330h1M303 330h1M305 330h1M307 330h1M309 330h1M311 330h1M313 330h1M315 330h1M317 330h1M319 330h1M321 330h1M323 330h1M325 330h1M327 330h1M329 330h1M331 330h1M333 330h1M335 330h1M337 330h1M339 330h13M363 330h1M375 330h1M387 330h19M409 330h1M412 330h1M416 330h1M419 330h2M423 330h1M426 330h14M445 330h1M456 330h1M462 330h1M27 331h1M30 331h1M60 331h1M108 331h1M117 331h1M123 331h1M150 331h1M156 331h1M167 331h1M173 331h1M189 331h1M191 331h1M196 331h1M198 331h1M203 331h1M205 331h1M226 331h1M238 331h1M250 331h1M279 331h1M339 331h1M363 331h1M375 331h1M387 331h1M409 331h1M412 331h1M416 331h1M419 331h1M424 331h1M426 331h1M439 331h1M445 331h1M456 331h1M462 331h1M27 332h1M29 332h1M60 332h1M62 332h1M64 332h1M66 332h1M68 332h1M70 332h1M72 332h1M74 332h1M76 332h1M78 332h1M80 332h1M82 332h1M84 332h1M86 332h1M88 332h1M90 332h1M92 332h1M94 332h1M96 332h1M98 332h1M100 332h1M102 332h1M104 332h1M106 332h1M108 332h1M150 332h1M156 332h1M167 332h1M173 332h1M189 332h1M196 332h1M203 332h1M205 332h1M226 332h1M238 332h1M250 332h1M279 332h1M281 332h1M283 332h1M285 332h1M287 332h1M289 332h1M291 332h1M293 332h1M295 332h1M297 332h1M299 332h1M301 332h1M303 332h1M305 332h1M307 332h1M309 332h1M311 332h1M313 332h1M315 332h1M317 332h1M319 332h1M321 332h1M323 332h1M325 332h1M327 332h1M329 332h1M331 332h1M333 332h1M335 332h1M337 332h1M339 332h1M363 332h1M375 332h1M387 332h1M410 332h2M424 332h1M426 332h1M439 332h1M445 332h1M456 332h1M462 332h1M60 333h1M108 333h1M150 333h1M157 333h1M166 333h1M173 333h1M189 333h1M196 333h1M198 333h1M204 333h2M226 333h1M238 333h1M250 333h1M279 333h1M339 333h1M363 333h1M375 333h1M387 333h1M410 333h2M417 333h2M424 333h2M439 333h1M446 333h1M455 333h1M462 333h1M60 334h1M62 334h1M64 334h1M66 334h1M68 334h1M70 334h1M72 334h1M74 334h1M76 334h1M78 334h1M80 334h1M82 334h1M84 334h1M86 334h1M88 334h1M90 334h1M92 334h1M94 334h1M96 334h1M98 334h1M100 334h1M102 334h1M104 334h1M106 334h1M108 334h1M150 334h1M157 334h2M165 334h2M173 334h1M190 334h1M197 334h1M204 334h2M226 334h1M238 334h1M250 334h1M279 334h1M281 334h1M283 334h1M285 334h1M287 334h1M289 334h1M291 334h1M293 334h1M295 334h1M297 334h1M299 334h1M301 334h1M303 334h1M305 334h1M307 334h1M309 334h1M311 334h1M313 334h1M315 334h1M317 334h1M319 334h1M321 334h1M323 334h1M325 334h1M327 334h1M329 334h1M331 334h1M333 334h1M335 334h1M337 334h1M339 334h1M363 334h1M375 334h1M387 334h1M410 334h2M417 334h2M424 334h2M439 334h1M446 334h2M454 334h2M462 334h1M60 335h1M108 335h1M151 335h1M159 335h6M172 335h1M190 335h1M197 335h1M204 335h1M226 335h1M238 335h1M250 335h1M279 335h1M339 335h1M363 335h1M375 335h1M387 335h1M410 335h2M425 335h1M440 335h1M448 335h6M461 335h1M60 336h1M62 336h1M64 336h1M66 336h1M68 336h1M70 336h1M72 336h1M74 336h1M76 336h1M78 336h1M80 336h1M82 336h1M84 336h1M86 336h1M88 336h1M90 336h1M92 336h1M94 336h1M96 336h1M98 336h1M100 336h1M102 336h1M104 336h1M106 336h1M108 336h1M151 336h2M171 336h2M226 336h1M238 336h1M250 336h1M279 336h1M281 336h1M283 336h1M285 336h1M287 336h1M289 336h1M291 336h1M293 336h1M295 336h1M297 336h1M299 336h1M301 336h1M303 336h1M305 336h1M307 336h1M309 336h1M311 336h1M313 336h1M315 336h1M317 336h1M319 336h1M321 336h1M323 336h1M325 336h1M327 336h1M329 336h1M331 336h1M333 336h1M335 336h1M337 336h1M339 336h1M363 336h1M375 336h1M387 336h1M440 336h2M460 336h2M60 337h1M83 337h3M108 337h1M152 337h1M171 337h1M226 337h1M238 337h1M250 337h1M279 337h1M339 337h1M363 337h1M375 337h1M387 337h1M441 337h1M460 337h1M60 338h1M62 338h1M64 338h1M66 338h1M68 338h1M70 338h1M72 338h1M74 338h1M76 338h1M78 338h1M80 338h1M82 338h5M88 338h1M90 338h1M92 338h1M94 338h1M96 338h1M98 338h1M100 338h1M102 338h1M104 338h1M106 338h1M108 338h1M153 338h1M170 338h1M226 338h1M238 338h1M250 338h1M279 338h1M281 338h1M283 338h1M285 338h1M287 338h1M289 338h1M291 338h1M293 338h1M295 338h1M297 338h1M299 338h1M301 338h1M303 338h1M305 338h1M307 338h1M309 338h1M311 338h1M313 338h1M315 338h1M317 338h1M319 338h1M321 338h1M323 338h1M325 338h1M327 338h1M329 338h1M331 338h1M333 338h1M335 338h1M337 338h1M339 338h1M363 338h1M375 338h1M387 338h1M442 338h1M459 338h1M60 339h1M83 339h1M85 339h1M108 339h1M154 339h2M168 339h2M226 339h1M238 339h1M250 339h1M279 339h1M339 339h1M363 339h1M375 339h1M387 339h1M443 339h2M457 339h2M60 340h49M155 340h2M167 340h2M226 340h1M238 340h1M250 340h1M279 340h1M281 340h1M283 340h1M285 340h1M287 340h1M289 340h1M291 340h1M293 340h1M295 340h1M297 340h1M299 340h1M301 340h1M303 340h1M305 340h1M307 340h1M309 340h1M311 340h1M313 340h1M315 340h1M317 340h1M319 340h1M321 340h1M323 340h1M325 340h1M327 340h1M329 340h1M331 340h1M333 340h1M335 340h1M337 340h1M339 340h1M363 340h1M375 340h1M387 340h1M444 340h2M456 340h2M72 341h1M84 341h1M157 341h10M226 341h1M238 341h1M250 341h1M279 341h1M339 341h1M363 341h1M375 341h1M387 341h1M446 341h10M72 342h1M84 342h1M226 342h1M238 342h1M250 342h30M281 342h1M283 342h1M285 342h1M287 342h1M289 342h1M291 342h1M293 342h1M295 342h1M297 342h1M299 342h1M301 342h1M303 342h1M305 342h1M307 342h1M309 342h1M311 342h1M313 342h1M315 342h1M317 342h1M319 342h1M321 342h1M323 342h1M325 342h1M327 342h1M329 342h1M331 342h1M333 342h1M335 342h1M337 342h1M339 342h25M375 342h1M387 342h1M72 343h1M84 343h1M226 343h1M238 343h1M279 343h1M339 343h1M375 343h1M387 343h1M72 344h1M84 344h1M226 344h1M238 344h1M279 344h1M281 344h1M283 344h1M285 344h1M287 344h1M289 344h1M291 344h1M293 344h1M295 344h1M297 344h1M299 344h1M301 344h1M303 344h1M305 344h1M307 344h1M309 344h1M311 344h1M313 344h1M315 344h1M317 344h1M319 344h1M321 344h1M323 344h1M325 344h1M327 344h1M329 344h1M331 344h1M333 344h1M335 344h1M337 344h1M339 344h1M375 344h1M387 344h1M72 345h1M84 345h1M226 345h1M238 345h1M279 345h1M339 345h1M375 345h1M387 345h1M72 346h1M84 346h1M226 346h1M238 346h1M279 346h1M281 346h1M283 346h1M285 346h1M287 346h1M289 346h1M291 346h1M293 346h1M295 346h1M297 346h1M299 346h1M301 346h1M303 346h1M305 346h1M307 346h1M309 346h1M311 346h1M313 346h1M315 346h1M317 346h1M319 346h1M321 346h1M323 346h1M325 346h1M327 346h1M329 346h1M331 346h1M333 346h1M335 346h1M337 346h1M339 346h1M375 346h1M387 346h1M72 347h1M84 347h1M226 347h1M238 347h1M279 347h1M339 347h1M375 347h1M387 347h1M72 348h1M84 348h1M157 348h10M226 348h1M238 348h1M279 348h1M281 348h1M283 348h1M285 348h1M287 348h1M289 348h1M291 348h1M293 348h1M295 348h1M297 348h1M299 348h1M301 348h1M303 348h1M305 348h1M307 348h1M309 348h1M311 348h1M313 348h1M315 348h1M317 348h1M319 348h1M321 348h1M323 348h1M325 348h1M327 348h1M329 348h1M331 348h1M333 348h1M335 348h1M337 348h1M339 348h1M375 348h1M387 348h1M446 348h10M72 349h1M84 349h1M155 349h2M167 349h2M226 349h1M238 349h1M279 349h1M339 349h1M375 349h1M387 349h1M444 349h2M456 349h2M69 350h1M72 350h1M75 350h1M84 350h1M154 350h2M168 350h2M226 350h1M238 350h1M279 350h1M281 350h1M283 350h1M285 350h1M287 350h1M289 350h1M291 350h1M293 350h1M295 350h1M297 350h1M299 350h1M301 350h1M303 350h1M305 350h1M307 350h1M309 350h1M311 350h1M313 350h1M315 350h1M317 350h1M319 350h1M321 350h1M323 350h1M325 350h1M327 350h1M329 350h1M331 350h1M333 350h1M335 350h1M337 350h1M339 350h1M375 350h1M387 350h1M443 350h2M457 350h2M70 351h5M84 351h1M153 351h1M170 351h1M226 351h1M238 351h1M279 351h1M339 351h1M375 351h1M387 351h1M442 351h1M459 351h1M72 352h1M84 352h1M152 352h1M171 352h1M226 352h1M238 352h1M279 352h1M281 352h1M283 352h1M285 352h1M287 352h1M289 352h1M291 352h1M293 352h1M295 352h1M297 352h1M299 352h1M301 352h1M303 352h1M305 352h1M307 352h1M309 352h1M311 352h1M313 352h1M315 352h1M317 352h1M319 352h1M321 352h1M323 352h1M325 352h1M327 352h1M329 352h1M331 352h1M333 352h1M335 352h1M337 352h1M339 352h1M375 352h1M387 352h1M441 352h1M460 352h1M71 353h1M73 353h1M84 353h1M151 353h2M171 353h2M226 353h1M238 353h1M279 353h1M339 353h1M375 353h1M387 353h1M440 353h2M460 353h2M70 354h1M74 354h1M84 354h1M151 354h1M159 354h6M172 354h1M226 354h1M238 354h42M281 354h1M283 354h1M285 354h1M287 354h1M289 354h1M291 354h1M293 354h1M295 354h1M297 354h1M299 354h1M301 354h1M303 354h1M305 354h1M307 354h1M309 354h1M311 354h1M313 354h1M315 354h1M317 354h1M319 354h1M321 354h1M323 354h1M325 354h1M327 354h1M329 354h1M331 354h1M333 354h1M335 354h1M337 354h1M339 354h37M387 354h1M440 354h1M448 354h6M461 354h1M69 355h1M75 355h1M84 355h1M150 355h1M157 355h2M165 355h2M173 355h1M186 355h2M193 355h2M200 355h2M226 355h1M279 355h1M339 355h1M387 355h1M407 355h1M414 355h1M421 355h1M439 355h1M446 355h2M454 355h2M462 355h1M84 356h1M150 356h1M157 356h1M166 356h1M173 356h1M186 356h2M193 356h2M200 356h2M226 356h1M279 356h1M281 356h1M283 356h1M285 356h1M287 356h1M289 356h1M291 356h1M293 356h1M297 356h1M299 356h1M301 356h1M303 356h1M307 356h1M309 356h1M311 356h1M325 356h1M327 356h1M329 356h1M331 356h1M333 356h1M335 356h1M337 356h1M339 356h1M387 356h1M406 356h2M414 356h2M421 356h2M439 356h1M446 356h1M455 356h1M462 356h1M84 357h1M150 357h1M156 357h1M167 357h1M173 357h1M186 357h2M193 357h2M200 357h2M226 357h1M279 357h1M339 357h1M387 357h1M406 357h1M408 357h1M413 357h1M415 357h1M420 357h1M422 357h1M439 357h1M445 357h1M456 357h1M462 357h1M78 358h13M150 358h1M156 358h1M167 358h1M173 358h1M185 358h1M187 358h1M192 358h1M195 358h1M200 358h1M202 358h1M226 358h1M279 358h1M281 358h1M283 358h1M285 358h1M287 358h1M289 358h1M291 358h1M293 358h1M297 358h1M299 358h1M301 358h1M303 358h1M307 358h1M309 358h1M311 358h1M315 358h1M317 358h1M319 358h1M321 358h1M325 358h1M327 358h1M329 358h1M331 358h1M333 358h1M335 358h1M337 358h1M339 358h1M387 358h1M406 358h1M408 358h1M413 358h1M415 358h1M420 358h1M422 358h1M439 358h1M445 358h1M456 358h1M462 358h1M78 359h1M89 359h2M150 359h1M156 359h1M167 359h1M173 359h1M185 359h1M188 359h1M192 359h1M195 359h1M199 359h1M202 359h1M226 359h1M279 359h1M339 359h1M387 359h1M405 359h1M408 359h1M413 359h1M416 359h1M420 359h1M423 359h1M439 359h1M445 359h1M456 359h1M462 359h1M79 360h2M88 360h1M150 360h1M156 360h1M167 360h1M173 360h13M188 360h1M191 360h2M195 360h2M199 360h1M202 360h2M206 360h9M226 360h1M279 360h1M281 360h1M283 360h1M285 360h1M287 360h1M289 360h1M291 360h1M293 360h1M297 360h1M299 360h1M301 360h1M303 360h1M307 360h1M309 360h1M311 360h1M315 360h1M317 360h1M319 360h1M321 360h1M325 360h1M327 360h1M329 360h1M331 360h1M333 360h1M335 360h1M337 360h1M339 360h1M387 360h1M399 360h7M409 360h1M412 360h1M416 360h1M419 360h1M423 360h1M426 360h14M445 360h1M456 360h1M462 360h1M81 361h1M87 361h1M150 361h1M156 361h1M167 361h1M173 361h1M189 361h1M196 361h1M203 361h1M205 361h1M214 361h1M226 361h1M279 361h1M339 361h1M387 361h1M399 361h1M409 361h1M412 361h1M416 361h1M419 361h1M424 361h1M426 361h1M439 361h1M445 361h1M456 361h1M462 361h1M82 362h1M86 362h1M150 362h1M156 362h1M167 362h1M173 362h1M189 362h1M196 362h1M198 362h1M203 362h1M205 362h1M214 362h1M226 362h1M279 362h1M281 362h1M283 362h1M285 362h1M287 362h1M289 362h1M291 362h1M293 362h1M307 362h1M309 362h1M311 362h1M315 362h1M317 362h1M319 362h1M321 362h1M325 362h1M327 362h1M329 362h1M331 362h1M333 362h1M335 362h1M337 362h1M339 362h1M387 362h1M399 362h1M410 362h2M417 362h1M419 362h1M424 362h1M426 362h1M439 362h1M445 362h1M456 362h1M462 362h1M83 363h1M85 363h1M150 363h1M157 363h1M166 363h1M173 363h1M189 363h2M197 363h2M204 363h2M214 363h1M226 363h1M279 363h1M339 363h1M387 363h1M399 363h1M410 363h2M417 363h2M424 363h2M439 363h1M446 363h1M455 363h1M462 363h1M84 364h1M150 364h1M157 364h2M165 364h2M173 364h1M190 364h1M197 364h1M204 364h1M214 364h1M226 364h1M279 364h1M281 364h1M283 364h1M285 364h1M287 364h1M289 364h1M291 364h1M293 364h1M295 364h1M297 364h1M299 364h1M301 364h1M303 364h1M307 364h1M309 364h1M311 364h1M315 364h1M317 364h1M319 364h1M321 364h1M325 364h1M327 364h1M329 364h1M331 364h1M333 364h1M335 364h1M337 364h1M339 364h1M387 364h1M399 364h1M410 364h2M417 364h2M425 364h1M439 364h1M446 364h2M454 364h2M462 364h1M151 365h1M159 365h6M172 365h1M214 365h1M226 365h1M279 365h1M339 365h1M387 365h1M399 365h1M440 365h1M448 365h6M461 365h1M151 366h2M171 366h2M214 366h1M226 366h54M281 366h1M283 366h1M285 366h1M287 366h1M289 366h1M291 366h1M293 366h1M295 366h1M297 366h1M299 366h1M301 366h1M303 366h1M307 366h1M309 366h1M311 366h1M315 366h1M317 366h1M319 366h1M321 366h1M325 366h1M327 366h1M329 366h1M331 366h1M333 366h1M335 366h1M337 366h1M339 366h49M399 366h1M440 366h2M460 366h2M152 367h1M171 367h1M214 367h1M279 367h1M339 367h1M399 367h1M441 367h1M460 367h1M153 368h1M170 368h1M214 368h1M279 368h1M281 368h1M283 368h1M285 368h1M287 368h1M289 368h1M291 368h1M293 368h1M295 368h1M297 368h1M299 368h1M301 368h1M303 368h1M307 368h1M309 368h1M311 368h1M325 368h1M327 368h1M329 368h1M331 368h1M333 368h1M335 368h1M337 368h1M339 368h1M399 368h1M442 368h1M459 368h1M154 369h2M168 369h2M214 369h1M279 369h1M339 369h1M399 369h1M443 369h2M457 369h2M155 370h2M167 370h2M214 370h1M279 370h1M281 370h1M283 370h1M285 370h1M287 370h1M289 370h1M291 370h1M293 370h1M295 370h1M297 370h1M299 370h1M301 370h1M303 370h1M305 370h1M307 370h1M309 370h1M311 370h1M313 370h1M315 370h1M317 370h1M319 370h1M321 370h1M323 370h1M325 370h1M327 370h1M329 370h1M331 370h1M333 370h1M335 370h1M337 370h1M339 370h1M399 370h1M444 370h2M456 370h2M157 371h10M214 371h1M279 371h1M339 371h1M399 371h1M446 371h10M214 372h1M279 372h1M281 372h1M283 372h1M285 372h1M287 372h1M289 372h1M291 372h1M293 372h1M295 372h1M297 372h1M299 372h1M301 372h1M303 372h1M305 372h1M307 372h1M309 372h1M311 372h1M313 372h1M315 372h1M317 372h1M319 372h1M321 372h1M323 372h1M325 372h1M327 372h1M329 372h1M331 372h1M333 372h1M335 372h1M337 372h1M339 372h1M399 372h1M214 373h1M279 373h1M339 373h1M399 373h1M214 374h1M279 374h1M281 374h1M283 374h1M285 374h1M287 374h1M289 374h1M291 374h1M293 374h1M295 374h1M297 374h1M299 374h1M301 374h1M303 374h1M305 374h1M307 374h1M309 374h1M311 374h1M313 374h1M315 374h1M317 374h1M319 374h1M321 374h1M323 374h1M325 374h1M327 374h1M329 374h1M331 374h1M333 374h1M335 374h1M337 374h1M339 374h1M399 374h1M214 375h1M279 375h1M339 375h1M399 375h1M214 376h1M279 376h1M281 376h1M283 376h1M285 376h1M287 376h1M289 376h1M291 376h1M293 376h1M297 376h1M299 376h1M301 376h1M303 376h1M307 376h1M309 376h1M311 376h1M325 376h1M327 376h1M329 376h1M331 376h1M333 376h1M335 376h1M337 376h1M339 376h1M399 376h1M214 377h66M339 377h61M157 378h10M279 378h1M281 378h1M283 378h1M285 378h1M287 378h1M289 378h1M291 378h1M293 378h1M297 378h1M299 378h1M301 378h1M303 378h1M307 378h1M309 378h1M311 378h1M315 378h1M317 378h1M319 378h1M321 378h1M325 378h1M327 378h1M329 378h1M331 378h1M333 378h1M335 378h1M337 378h1M339 378h1M430 378h10M155 379h2M167 379h2M279 379h1M339 379h1M428 379h2M440 379h2M154 380h2M168 380h2M279 380h1M281 380h1M283 380h1M285 380h1M287 380h1M289 380h1M291 380h1M293 380h1M297 380h1M299 380h1M301 380h1M303 380h1M307 380h1M309 380h1M311 380h1M315 380h1M317 380h1M319 380h1M321 380h1M325 380h1M327 380h1M329 380h1M331 380h1M333 380h1M335 380h1M337 380h1M339 380h1M427 380h2M441 380h2M153 381h1M170 381h1M279 381h1M339 381h1M426 381h1M443 381h1M152 382h1M171 382h1M279 382h1M281 382h1M283 382h1M285 382h1M287 382h1M289 382h1M291 382h1M293 382h1M307 382h1M309 382h1M311 382h1M315 382h1M317 382h1M319 382h1M321 382h1M325 382h1M327 382h1M329 382h1M331 382h1M333 382h1M335 382h1M337 382h1M339 382h1M425 382h1M444 382h1M151 383h2M171 383h2M279 383h1M339 383h1M424 383h2M444 383h2M151 384h1M159 384h6M172 384h1M279 384h1M281 384h1M283 384h1M285 384h1M287 384h1M289 384h1M291 384h1M293 384h1M295 384h1M297 384h1M299 384h1M301 384h1M303 384h1M307 384h1M309 384h1M311 384h1M315 384h1M317 384h1M319 384h1M321 384h1M325 384h1M327 384h1M329 384h1M331 384h1M333 384h1M335 384h1M337 384h1M339 384h1M424 384h1M432 384h6M445 384h1M150 385h1M157 385h2M165 385h2M173 385h1M186 385h2M193 385h2M200 385h2M279 385h1M339 385h1M423 385h1M430 385h2M438 385h2M446 385h1M150 386h1M157 386h1M166 386h1M173 386h1M186 386h2M193 386h2M200 386h2M279 386h1M281 386h1M283 386h1M285 386h1M287 386h1M289 386h1M291 386h1M293 386h1M295 386h1M297 386h1M299 386h1M301 386h1M303 386h1M307 386h1M309 386h1M311 386h1M315 386h1M317 386h1M319 386h1M321 386h1M325 386h1M327 386h1M329 386h1M331 386h1M333 386h1M335 386h1M337 386h1M339 386h1M423 386h1M430 386h1M439 386h1M446 386h1M150 387h1M156 387h1M167 387h1M173 387h1M185 387h1M187 387h1M193 387h2M200 387h1M202 387h1M279 387h1M339 387h1M423 387h1M429 387h1M440 387h1M446 387h1M150 388h1M156 388h1M167 388h1M173 388h1M185 388h1M188 388h1M192 388h1M195 388h1M199 388h1M202 388h1M279 388h1M281 388h1M283 388h1M285 388h1M287 388h1M289 388h1M291 388h1M293 388h1M295 388h1M297 388h1M299 388h1M301 388h1M303 388h1M307 388h1M309 388h1M311 388h1M325 388h1M327 388h1M329 388h1M331 388h1M333 388h1M335 388h1M337 388h1M339 388h1M410 388h2M423 388h1M429 388h1M440 388h1M446 388h1M150 389h1M156 389h1M167 389h1M173 389h13M188 389h1M192 389h1M195 389h1M199 389h1M202 389h1M206 389h74M339 389h85M429 389h1M440 389h1M446 389h1M150 390h1M156 390h1M167 390h1M173 390h1M188 390h1M191 390h1M196 390h1M199 390h1M203 390h1M206 390h1M279 390h1M281 390h1M283 390h1M285 390h1M287 390h1M289 390h1M291 390h1M293 390h1M295 390h1M297 390h1M299 390h1M301 390h1M303 390h1M305 390h1M307 390h1M309 390h1M311 390h1M313 390h1M315 390h1M317 390h1M319 390h1M321 390h1M323 390h1M325 390h1M327 390h1M329 390h1M331 390h1M333 390h1M335 390h1M337 390h1M339 390h1M409 390h4M423 390h1M429 390h1M440 390h1M446 390h1M150 391h1M156 391h1M167 391h1M173 391h1M189 391h1M191 391h1M196 391h1M198 391h1M203 391h1M205 391h1M279 391h1M339 391h1M410 391h2M423 391h1M429 391h1M440 391h1M446 391h1M150 392h1M156 392h1M167 392h1M173 392h1M189 392h1M191 392h1M196 392h1M198 392h1M203 392h1M205 392h1M279 392h1M281 392h1M283 392h1M285 392h1M287 392h1M289 392h1M291 392h1M293 392h1M295 392h1M297 392h1M299 392h1M301 392h1M303 392h1M305 392h1M307 392h1M309 392h1M311 392h1M313 392h1M315 392h1M317 392h1M319 392h1M321 392h1M323 392h1M325 392h1M327 392h1M329 392h1M331 392h1M333 392h1M335 392h1M337 392h1M339 392h1M411 392h1M423 392h1M429 392h1M440 392h1M446 392h1M150 393h1M157 393h1M166 393h1M173 393h1M189 393h2M197 393h2M204 393h2M279 393h1M339 393h1M411 393h1M423 393h1M430 393h1M439 393h1M446 393h1M150 394h1M157 394h2M165 394h2M173 394h1M190 394h1M197 394h1M204 394h1M279 394h1M281 394h1M283 394h1M285 394h1M287 394h1M289 394h1M291 394h1M293 394h1M295 394h1M297 394h1M299 394h1M301 394h1M303 394h1M305 394h1M307 394h1M309 394h1M311 394h1M313 394h1M315 394h1M317 394h1M319 394h1M321 394h1M323 394h1M325 394h1M327 394h1M329 394h1M331 394h1M333 394h1M335 394h1M337 394h1M339 394h1M411 394h1M423 394h1M430 394h2M438 394h2M446 394h1M151 395h1M159 395h6M172 395h1M279 395h1M339 395h1M411 395h1M424 395h1M432 395h6M445 395h1M151 396h2M171 396h2M279 396h1M281 396h1M283 396h1M285 396h1M287 396h1M289 396h1M291 396h1M293 396h1M295 396h1M297 396h1M299 396h1M301 396h1M303 396h1M305 396h1M307 396h1M309 396h1M311 396h1M313 396h1M315 396h1M317 396h1M319 396h1M321 396h1M323 396h1M325 396h1M327 396h1M329 396h1M331 396h1M333 396h1M335 396h1M337 396h1M339 396h1M411 396h1M424 396h2M444 396h2M152 397h1M171 397h1M279 397h1M339 397h1M411 397h3M425 397h1M444 397h1M153 398h1M170 398h1M279 398h1M281 398h1M283 398h1M285 398h1M287 398h1M289 398h1M291 398h1M293 398h1M295 398h1M297 398h1M299 398h1M301 398h1M303 398h1M305 398h1M307 398h1M309 398h1M311 398h1M313 398h1M315 398h1M317 398h1M319 398h1M321 398h1M323 398h1M325 398h1M327 398h1M329 398h1M331 398h1M333 398h1M335 398h1M337 398h1M339 398h1M414 398h3M426 398h1M443 398h1M154 399h2M168 399h2M279 399h1M339 399h1M413 399h3M427 399h2M441 399h2M155 400h2M167 400h2M279 400h1M281 400h1M283 400h1M285 400h1M287 400h1M289 400h1M291 400h1M293 400h1M295 400h1M297 400h1M299 400h1M301 400h1M303 400h1M305 400h1M307 400h1M309 400h1M311 400h1M313 400h1M315 400h1M317 400h1M319 400h1M321 400h1M323 400h1M325 400h1M327 400h1M329 400h1M331 400h1M333 400h1M335 400h1M337 400h1M339 400h1M411 400h2M428 400h2M440 400h2M157 401h10M250 401h30M339 401h37M408 401h3M430 401h10M84 402h10M250 402h1M279 402h1M281 402h1M283 402h1M285 402h1M287 402h1M289 402h1M291 402h1M293 402h1M295 402h1M297 402h1M299 402h1M301 402h1M303 402h1M305 402h1M307 402h1M309 402h1M311 402h1M313 402h1M315 402h1M317 402h1M319 402h1M321 402h1M323 402h1M325 402h1M327 402h1M329 402h1M331 402h1M333 402h1M335 402h1M337 402h1M339 402h1M375 402h1M406 402h2M82 403h2M94 403h2M250 403h1M279 403h1M339 403h1M375 403h1M408 403h3M81 404h2M95 404h2M250 404h1M279 404h1M281 404h1M283 404h1M285 404h1M287 404h1M289 404h1M291 404h1M293 404h1M295 404h1M297 404h1M299 404h1M301 404h1M303 404h1M305 404h1M307 404h1M309 404h1M311 404h1M313 404h1M315 404h1M317 404h1M319 404h1M321 404h1M323 404h1M325 404h1M327 404h1M329 404h1M331 404h1M333 404h1M335 404h1M337 404h1M339 404h1M375 404h1M411 404h2M80 405h1M97 405h1M250 405h1M279 405h1M339 405h1M375 405h1M413 405h4M79 406h1M98 406h1M250 406h1M279 406h1M281 406h1M283 406h1M285 406h1M287 406h1M289 406h1M291 406h1M293 406h1M295 406h1M297 406h1M299 406h1M301 406h1M303 406h1M305 406h1M307 406h1M309 406h1M311 406h1M313 406h1M315 406h1M317 406h1M319 406h1M321 406h1M323 406h1M325 406h1M327 406h1M329 406h1M331 406h1M333 406h1M335 406h1M337 406h1M339 406h1M375 406h1M414 406h3M78 407h2M98 407h2M250 407h1M279 407h1M339 407h1M375 407h1M411 407h3M78 408h1M86 408h6M99 408h1M250 408h1M279 408h1M281 408h1M283 408h1M285 408h1M287 408h1M289 408h1M291 408h1M293 408h1M295 408h1M297 408h1M299 408h1M301 408h1M303 408h1M305 408h1M307 408h1M309 408h1M311 408h1M313 408h1M315 408h1M317 408h1M319 408h1M321 408h1M323 408h1M325 408h1M327 408h1M329 408h1M331 408h1M333 408h1M335 408h1M337 408h1M339 408h1M375 408h1M408 408h3M77 409h1M84 409h2M92 409h2M100 409h1M250 409h1M279 409h1M339 409h1M375 409h1M406 409h2M77 410h1M84 410h1M93 410h1M100 410h1M250 410h1M279 410h1M281 410h1M283 410h1M285 410h1M287 410h1M289 410h1M291 410h1M293 410h1M295 410h1M297 410h1M299 410h1M301 410h1M303 410h1M305 410h1M307 410h1M309 410h1M311 410h1M313 410h1M315 410h1M317 410h1M319 410h1M321 410h1M323 410h1M325 410h1M327 410h1M329 410h1M331 410h1M333 410h1M335 410h1M337 410h1M339 410h1M375 410h1M408 410h3M77 411h1M83 411h1M94 411h1M100 411h1M250 411h1M279 411h1M339 411h1M375 411h1M411 411h2M77 412h1M83 412h1M94 412h1M100 412h1M112 412h2M250 412h1M279 412h1M281 412h1M283 412h1M285 412h1M287 412h1M289 412h1M291 412h1M293 412h1M295 412h1M297 412h1M299 412h1M301 412h1M303 412h1M305 412h1M307 412h1M309 412h1M311 412h1M313 412h1M315 412h1M317 412h1M319 412h1M321 412h1M323 412h1M325 412h1M327 412h1M329 412h1M331 412h1M333 412h1M335 412h1M337 412h1M339 412h1M375 412h1M413 412h3M77 413h1M83 413h1M94 413h1M100 413h50M250 413h1M268 413h12M339 413h13M375 413h1M414 413h3M77 414h1M83 414h1M94 414h1M100 414h1M111 414h4M149 414h1M250 414h1M268 414h1M279 414h1M281 414h1M283 414h1M285 414h1M287 414h1M289 414h1M291 414h1M293 414h1M295 414h1M297 414h1M299 414h1M301 414h1M303 414h1M305 414h1M307 414h1M309 414h1M311 414h1M313 414h1M315 414h1M317 414h1M319 414h1M321 414h1M323 414h1M325 414h1M327 414h1M329 414h1M331 414h1M333 414h1M335 414h1M337 414h1M339 414h1M351 414h1M375 414h1M411 414h3M77 415h1M83 415h1M94 415h1M100 415h1M112 415h2M149 415h1M250 415h1M268 415h1M279 415h1M339 415h1M351 415h1M375 415h1M409 415h3M77 416h1M83 416h1M94 416h1M100 416h1M113 416h1M149 416h1M250 416h1M268 416h1M279 416h1M281 416h1M283 416h1M285 416h1M287 416h1M289 416h1M291 416h1M293 416h1M295 416h1M297 416h1M299 416h1M301 416h1M303 416h1M305 416h1M307 416h1M309 416h1M311 416h1M313 416h1M315 416h1M317 416h1M319 416h1M321 416h1M323 416h1M325 416h1M327 416h1M329 416h1M331 416h1M333 416h1M335 416h1M337 416h1M339 416h1M351 416h1M375 416h1M406 416h3M77 417h1M84 417h1M93 417h1M100 417h1M113 417h1M149 417h1M250 417h1M268 417h1M279 417h1M339 417h1M351 417h1M375 417h1M407 417h3M77 418h1M84 418h2M92 418h2M100 418h1M113 418h1M149 418h1M234 418h4M250 418h1M268 418h1M279 418h1M281 418h1M283 418h1M285 418h1M287 418h1M289 418h1M291 418h1M293 418h1M295 418h1M297 418h1M299 418h1M301 418h1M303 418h1M305 418h1M307 418h1M309 418h1M311 418h1M313 418h1M315 418h1M317 418h1M319 418h1M321 418h1M323 418h1M325 418h1M327 418h1M329 418h1M331 418h1M333 418h1M335 418h1M337 418h1M339 418h1M351 418h1M375 418h1M410 418h2M78 419h1M86 419h6M99 419h1M113 419h1M149 419h1M234 419h1M237 419h14M262 419h13M279 419h1M339 419h1M351 419h1M375 419h1M411 419h1M78 420h2M98 420h2M113 420h1M149 420h1M234 420h1M237 420h1M262 420h1M273 420h1M279 420h61M351 420h1M375 420h1M411 420h1M79 421h1M98 421h1M113 421h1M149 421h3M233 421h5M263 421h2M272 421h1M351 421h1M375 421h1M411 421h1M80 422h1M97 422h1M113 422h1M152 422h2M231 422h2M265 422h1M271 422h1M351 422h1M375 422h1M411 422h1M81 423h2M95 423h2M113 423h1M150 423h3M230 423h1M266 423h1M270 423h1M351 423h1M375 423h1M411 423h1M82 424h2M94 424h2M113 424h1M148 424h2M228 424h2M267 424h1M269 424h1M351 424h1M375 424h1M411 424h1M84 425h10M113 425h1M145 425h3M226 425h2M268 425h1M351 425h1M375 425h1M411 425h1M113 426h1M144 426h2M175 426h1M182 426h2M190 426h1M225 426h1M351 426h1M371 426h10M411 426h1M103 427h20M146 427h3M175 427h2M182 427h2M189 427h2M223 427h2M351 427h1M369 427h2M381 427h2M411 427h1M103 428h20M149 428h3M175 428h2M182 428h2M189 428h2M221 428h2M351 428h1M368 428h2M382 428h2M411 428h1M152 429h2M158 429h2M174 429h1M176 429h1M182 429h1M184 429h1M189 429h1M191 429h1M220 429h1M351 429h1M367 429h1M384 429h1M411 429h1M151 430h3M156 430h4M174 430h1M177 430h1M181 430h1M184 430h1M188 430h1M191 430h1M215 430h5M351 430h1M366 430h1M385 430h1M411 430h1M148 431h3M154 431h21M177 431h1M181 431h1M184 431h1M188 431h1M191 431h2M195 431h21M218 431h1M351 431h1M365 431h2M385 431h2M405 431h13M145 432h3M155 432h5M178 432h1M180 432h1M185 432h1M187 432h1M192 432h1M195 432h1M215 432h1M218 432h1M351 432h1M365 432h1M373 432h6M386 432h1M405 432h2M416 432h2M144 433h2M158 433h2M178 433h1M180 433h1M185 433h1M187 433h1M192 433h1M194 433h1M215 433h4M351 433h1M364 433h1M371 433h2M379 433h2M387 433h1M407 433h1M415 433h1M103 434h20M146 434h3M159 434h1M178 434h1M180 434h1M185 434h1M187 434h1M193 434h2M351 434h1M364 434h1M371 434h1M380 434h1M387 434h1M408 434h1M414 434h1M103 435h20M149 435h2M179 435h1M186 435h2M193 435h2M351 435h1M364 435h1M370 435h1M381 435h1M387 435h1M409 435h1M413 435h1M113 436h1M151 436h3M179 436h1M186 436h1M193 436h1M351 436h1M364 436h1M370 436h1M381 436h1M387 436h1M410 436h1M412 436h1M113 437h1M151 437h3M351 437h1M364 437h1M370 437h1M381 437h1M387 437h1M411 437h1M113 438h1M149 438h2M351 438h1M364 438h1M370 438h1M381 438h1M387 438h1M113 439h1M146 439h3M351 439h1M364 439h1M370 439h1M381 439h1M387 439h1M113 440h1M144 440h2M351 440h1M364 440h1M370 440h1M381 440h1M387 440h1M113 441h1M145 441h3M351 441h1M364 441h1M371 441h1M380 441h1M387 441h1M113 442h1M148 442h2M234 442h4M351 442h1M364 442h1M371 442h2M379 442h2M387 442h1M113 443h1M149 443h1M234 443h1M237 443h115M365 443h1M373 443h6M386 443h1M113 444h1M149 444h1M234 444h1M237 444h1M365 444h2M385 444h2M113 445h1M149 445h1M234 445h4M366 445h1M385 445h1M113 446h1M149 446h1M367 446h1M384 446h1M113 447h1M149 447h1M368 447h2M382 447h2M113 448h1M149 448h1M369 448h2M381 448h2M113 449h1M149 449h1M371 449h10M113 450h1M149 450h1M113 451h1M149 451h1M113 452h1M149 452h1M113 453h1M149 453h1M113 454h1M149 454h1M107 455h13M143 455h13M107 456h2M118 456h1M143 456h1M154 456h1M109 457h1M117 457h1M144 457h1M153 457h1M110 458h1M116 458h1M145 458h2M151 458h2M111 459h1M114 459h2M147 459h1M150 459h1M112 460h2M148 460h2M113 461h1M149 461h1" />
</svg>