<svg xmlns="http://www.w3.org/2000/svg" viewBox="0 -0.5 360 250" shape-rendering="crispEdges">
<metadata>Made with Pixels to Svg https://codepen.io/shshaw/pen/XbxvNj</metadata>
<path stroke="#ffffff" d="M5 25h1M7 25h1M9 25h1M11 25h1M13 25h1M15 25h1M17 25h1M19 25h1M21 25h1M23 25h1M25 25h1M27 25h1M29 25h1M31 25h1M33 25h1M35 25h1M37 25h1M39 25h1M41 25h1M43 25h1M45 25h1M47 25h1M49 25h1M51 25h1M53 25h1M55 25h1M57 25h1M59 25h1M61 25h1M63 25h1M65 25h1M67 25h1M69 25h1M71 25h1M73 25h1M75 25h1M77 25h1M79 25h1M81 25h1M83 25h1M85 25h1M87 25h1M89 25h1M91 25h1M93 25h1M95 25h1M97 25h1M99 25h1M101 25h1M103 25h1M105 25h1M107 25h1M109 25h1M111 25h1M113 25h1M125 25h1M127 25h1M129 25h1M131 25h1M133 25h1M135 25h1M137 25h1M139 25h1M141 25h1M143 25h1M145 25h1M147 25h1M149 25h1M151 25h1M153 25h1M155 25h1M157 25h1M159 25h1M161 25h1M163 25h1M165 25h1M167 25h1M169 25h1M171 25h1M173 25h1M175 25h1M177 25h1M179 25h1M181 25h1M183 25h1M185 25h1M187 25h1M189 25h1M191 25h1M193 25h1M195 25h1M197 25h1M199 25h1M201 25h1M203 25h1M205 25h1M207 25h1M209 25h1M211 25h1M213 25h1M215 25h1M217 25h1M219 25h1M221 25h1M223 25h1M225 25h1M227 25h1M229 25h1M231 25h1M233 25h1M245 25h1M247 25h1M249 25h1M251 25h1M253 25h1M255 25h1M257 25h1M259 25h1M261 25h1M263 25h1M265 25h1M267 25h1M269 25h1M271 25h1M273 25h1M275 25h1M277 25h1M279 25h1M281 25h1M283 25h1M285 25h1M287 25h1M289 25h1M291 25h1M293 25h1M295 25h1M297 25h1M299 25h1M301 25h1M303 25h1M305 25h1M307 25h1M309 25h1M311 25h1M313 25h1M315 25h1M317 25h1M319 25h1M321 25h1M323 25h1M325 25h1M327 25h1M329 25h1M331 25h1M333 25h1M335 25h1M337 25h1M339 25h1M341 25h1M343 25h1M345 25h1M347 25h1M349 25h1M351 25h1M353 25h1M5 27h1M7 27h1M9 27h1M11 27h1M13 27h1M15 27h1M17 27h1M19 27h1M21 27h1M23 27h1M25 27h1M27 27h1M29 27h1M31 27h1M33 27h1M35 27h1M37 27h1M39 27h1M41 27h1M43 27h1M45 27h1M47 27h1M49 27h1M51 27h1M53 27h1M55 27h1M57 27h1M59 27h1M61 27h1M63 27h1M65 27h1M67 27h1M69 27h1M71 27h1M73 27h1M75 27h1M77 27h1M79 27h1M81 27h1M83 27h1M85 27h1M87 27h1M89 27h1M91 27h1M93 27h1M95 27h1M97 27h1M99 27h1M101 27h1M103 27h1M105 27h1M107 27h1M109 27h1M111 27h1M113 27h1M125 27h1M127 27h1M129 27h1M131 27h1M133 27h1M135 27h1M137 27h1M139 27h1M141 27h1M143 27h1M145 27h1M147 27h1M149 27h1M151 27h1M153 27h1M155 27h1M157 27h1M159 27h1M161 27h1M163 27h1M165 27h1M167 27h1M169 27h1M171 27h1M173 27h1M175 27h1M177 27h1M179 27h1M181 27h1M183 27h1M185 27h1M187 27h1M189 27h1M191 27h1M193 27h1M195 27h1M197 27h1M199 27h1M201 27h1M203 27h1M205 27h1M207 27h1M209 27h1M211 27h1M213 27h1M215 27h1M217 27h1M219 27h1M221 27h1M223 27h1M225 27h1M227 27h1M229 27h1M231 27h1M233 27h1M245 27h1M247 27h1M249 27h1M251 27h1M253 27h1M255 27h1M257 27h1M259 27h1M261 27h1M263 27h1M265 27h1M267 27h1M269 27h1M271 27h1M273 27h1M275 27h1M277 27h1M279 27h1M281 27h1M283 27h1M285 27h1M287 27h1M289 27h1M291 27h1M293 27h1M295 27h1M297 27h1M299 27h1M301 27h1M303 27h1M305 27h1M307 27h1M309 27h1M311 27h1M313 27h1M315 27h1M317 27h1M319 27h1M321 27h1M323 27h1M325 27h1M327 27h1M329 27h1M331 27h1M333 27h1M335 27h1M337 27h1M339 27h1M341 27h1M343 27h1M345 27h1M347 27h1M349 27h1M351 27h1M353 27h1M5 29h1M7 29h1M9 29h1M11 29h1M13 29h1M15 29h1M17 29h1M19 29h1M21 29h1M23 29h1M25 29h1M93 29h1M95 29h1M97 29h1M99 29h1M101 29h1M103 29h1M105 29h1M107 29h1M109 29h1M111 29h1M113 29h1M125 29h1M127 29h1M129 29h1M131 29h1M133 29h1M135 29h1M137 29h1M139 29h1M163 29h1M165 29h1M167 29h1M169 29h1M171 29h1M173 29h1M175 29h1M177 29h1M179 29h1M181 29h1M183 29h1M185 29h1M187 29h1M189 29h1M191 29h1M193 29h1M195 29h1M219 29h1M221 29h1M223 29h1M225 29h1M227 29h1M229 29h1M231 29h1M233 29h1M245 29h1M247 29h1M249 29h1M251 29h1M253 29h1M255 29h1M257 29h1M259 29h1M261 29h1M263 29h1M265 29h1M333 29h1M335 29h1M337 29h1M339 29h1M341 29h1M343 29h1M345 29h1M347 29h1M349 29h1M351 29h1M353 29h1M5 31h1M7 31h1M9 31h1M11 31h1M13 31h1M15 31h1M17 31h1M19 31h1M21 31h1M23 31h1M25 31h1M93 31h1M95 31h1M97 31h1M99 31h1M101 31h1M103 31h1M105 31h1M107 31h1M109 31h1M111 31h1M113 31h1M125 31h1M127 31h1M129 31h1M131 31h1M133 31h1M135 31h1M137 31h1M139 31h1M141 31h1M163 31h1M165 31h1M167 31h1M169 31h1M171 31h1M173 31h1M175 31h1M177 31h1M179 31h1M181 31h1M183 31h1M185 31h1M187 31h1M189 31h1M191 31h1M193 31h1M195 31h1M217 31h1M219 31h1M221 31h1M223 31h1M225 31h1M227 31h1M229 31h1M231 31h1M233 31h1M245 31h1M247 31h1M249 31h1M251 31h1M253 31h1M255 31h1M257 31h1M259 31h1M261 31h1M263 31h1M265 31h1M333 31h1M335 31h1M337 31h1M339 31h1M341 31h1M343 31h1M345 31h1M347 31h1M349 31h1M351 31h1M353 31h1M5 33h1M7 33h1M9 33h1M11 33h1M13 33h1M15 33h1M17 33h1M19 33h1M21 33h1M23 33h1M25 33h1M93 33h1M95 33h1M97 33h1M99 33h1M101 33h1M103 33h1M105 33h1M107 33h1M109 33h1M111 33h1M113 33h1M125 33h1M127 33h1M129 33h1M131 33h1M133 33h1M135 33h1M137 33h1M139 33h1M141 33h1M163 33h1M165 33h1M167 33h1M169 33h1M171 33h1M173 33h1M175 33h1M177 33h1M179 33h1M181 33h1M183 33h1M185 33h1M187 33h1M189 33h1M191 33h1M193 33h1M195 33h1M217 33h1M219 33h1M221 33h1M223 33h1M225 33h1M227 33h1M229 33h1M231 33h1M233 33h1M245 33h1M247 33h1M249 33h1M251 33h1M253 33h1M255 33h1M257 33h1M259 33h1M261 33h1M263 33h1M265 33h1M333 33h1M335 33h1M337 33h1M339 33h1M341 33h1M343 33h1M345 33h1M347 33h1M349 33h1M351 33h1M353 33h1M5 35h1M7 35h1M9 35h1M11 35h1M13 35h1M15 35h1M17 35h1M19 35h1M21 35h1M23 35h1M25 35h1M93 35h1M95 35h1M97 35h1M99 35h1M101 35h1M103 35h1M105 35h1M107 35h1M109 35h1M111 35h1M113 35h1M125 35h1M127 35h1M129 35h1M131 35h1M133 35h1M135 35h1M137 35h1M139 35h1M141 35h1M163 35h1M165 35h1M167 35h1M169 35h1M171 35h1M173 35h1M175 35h1M177 35h1M179 35h1M181 35h1M183 35h1M185 35h1M187 35h1M189 35h1M191 35h1M193 35h1M195 35h1M217 35h1M219 35h1M221 35h1M223 35h1M225 35h1M227 35h1M229 35h1M231 35h1M233 35h1M245 35h1M247 35h1M249 35h1M251 35h1M253 35h1M255 35h1M257 35h1M259 35h1M261 35h1M263 35h1M265 35h1M333 35h1M335 35h1M337 35h1M339 35h1M341 35h1M343 35h1M345 35h1M347 35h1M349 35h1M351 35h1M353 35h1M5 37h1M7 37h1M9 37h1M11 37h1M13 37h1M15 37h1M17 37h1M19 37h1M21 37h1M23 37h1M25 37h1M93 37h1M95 37h1M97 37h1M99 37h1M101 37h1M103 37h1M105 37h1M107 37h1M109 37h1M111 37h1M113 37h1M125 37h1M127 37h1M129 37h1M131 37h1M133 37h1M135 37h1M137 37h1M139 37h1M141 37h1M163 37h1M165 37h1M167 37h1M169 37h1M171 37h1M173 37h1M175 37h1M177 37h1M179 37h1M181 37h1M183 37h1M185 37h1M187 37h1M189 37h1M191 37h1M193 37h1M195 37h1M217 37h1M219 37h1M221 37h1M223 37h1M225 37h1M227 37h1M229 37h1M231 37h1M233 37h1M245 37h1M247 37h1M249 37h1M251 37h1M253 37h1M255 37h1M257 37h1M259 37h1M261 37h1M263 37h1M265 37h1M333 37h1M335 37h1M337 37h1M339 37h1M341 37h1M343 37h1M345 37h1M347 37h1M349 37h1M351 37h1M353 37h1M5 39h1M7 39h1M9 39h1M11 39h1M13 39h1M15 39h1M17 39h1M19 39h1M21 39h1M23 39h1M25 39h1M93 39h1M95 39h1M97 39h1M99 39h1M101 39h1M103 39h1M105 39h1M107 39h1M109 39h1M111 39h1M113 39h1M125 39h1M127 39h1M129 39h1M131 39h1M133 39h1M135 39h1M137 39h1M139 39h1M141 39h1M143 39h1M165 39h1M167 39h1M169 39h1M171 39h1M173 39h1M175 39h1M177 39h1M179 39h1M181 39h1M183 39h1M185 39h1M187 39h1M189 39h1M191 39h1M193 39h1M215 39h1M217 39h1M219 39h1M221 39h1M223 39h1M225 39h1M227 39h1M229 39h1M231 39h1M233 39h1M245 39h1M247 39h1M249 39h1M251 39h1M253 39h1M255 39h1M257 39h1M259 39h1M261 39h1M263 39h1M265 39h1M333 39h1M335 39h1M337 39h1M339 39h1M341 39h1M343 39h1M345 39h1M347 39h1M349 39h1M351 39h1M353 39h1M5 41h1M7 41h1M9 41h1M11 41h1M13 41h1M15 41h1M17 41h1M19 41h1M21 41h1M23 41h1M25 41h1M93 41h1M95 41h1M97 41h1M99 41h1M101 41h1M103 41h1M105 41h1M107 41h1M109 41h1M111 41h1M113 41h1M125 41h1M127 41h1M129 41h1M131 41h1M133 41h1M135 41h1M137 41h1M139 41h1M141 41h1M143 41h1M165 41h1M167 41h1M169 41h1M171 41h1M173 41h1M175 41h1M177 41h1M179 41h1M181 41h1M183 41h1M185 41h1M187 41h1M189 41h1M191 41h1M193 41h1M215 41h1M217 41h1M219 41h1M221 41h1M223 41h1M225 41h1M227 41h1M229 41h1M231 41h1M233 41h1M245 41h1M247 41h1M249 41h1M251 41h1M253 41h1M255 41h1M257 41h1M259 41h1M261 41h1M263 41h1M265 41h1M333 41h1M335 41h1M337 41h1M339 41h1M341 41h1M343 41h1M345 41h1M347 41h1M349 41h1M351 41h1M353 41h1M5 43h1M7 43h1M9 43h1M11 43h1M13 43h1M15 43h1M17 43h1M19 43h1M21 43h1M23 43h1M25 43h1M93 43h1M95 43h1M97 43h1M99 43h1M101 43h1M103 43h1M105 43h1M107 43h1M109 43h1M111 43h1M113 43h1M125 43h1M127 43h1M129 43h1M131 43h1M133 43h1M135 43h1M137 43h1M139 43h1M141 43h1M143 43h1M165 43h1M167 43h1M169 43h1M171 43h1M173 43h1M175 43h1M177 43h1M179 43h1M181 43h1M183 43h1M185 43h1M187 43h1M189 43h1M191 43h1M193 43h1M215 43h1M217 43h1M219 43h1M221 43h1M223 43h1M225 43h1M227 43h1M229 43h1M231 43h1M233 43h1M245 43h1M247 43h1M249 43h1M251 43h1M253 43h1M255 43h1M257 43h1M259 43h1M261 43h1M263 43h1M265 43h1M333 43h1M335 43h1M337 43h1M339 43h1M341 43h1M343 43h1M345 43h1M347 43h1M349 43h1M351 43h1M353 43h1M5 45h1M7 45h1M9 45h1M11 45h1M13 45h1M15 45h1M17 45h1M19 45h1M21 45h1M23 45h1M25 45h1M93 45h1M95 45h1M97 45h1M99 45h1M101 45h1M103 45h1M105 45h1M107 45h1M109 45h1M111 45h1M113 45h1M125 45h1M127 45h1M129 45h1M131 45h1M133 45h1M135 45h1M137 45h1M139 45h1M141 45h1M143 45h1M165 45h1M167 45h1M169 45h1M171 45h1M173 45h1M175 45h1M177 45h1M179 45h1M181 45h1M183 45h1M185 45h1M187 45h1M189 45h1M191 45h1M193 45h1M215 45h1M217 45h1M219 45h1M221 45h1M223 45h1M225 45h1M227 45h1M229 45h1M231 45h1M233 45h1M245 45h1M247 45h1M249 45h1M251 45h1M253 45h1M255 45h1M257 45h1M259 45h1M261 45h1M263 45h1M265 45h1M333 45h1M335 45h1M337 45h1M339 45h1M341 45h1M343 45h1M345 45h1M347 45h1M349 45h1M351 45h1M353 45h1M5 47h1M7 47h1M9 47h1M11 47h1M13 47h1M15 47h1M17 47h1M19 47h1M21 47h1M23 47h1M25 47h1M47 47h1M49 47h1M51 47h1M53 47h1M55 47h1M57 47h1M59 47h1M61 47h1M63 47h1M65 47h1M67 47h1M69 47h1M71 47h1M73 47h1M75 47h1M77 47h1M79 47h1M81 47h1M83 47h1M85 47h1M87 47h1M89 47h1M91 47h1M93 47h1M95 47h1M97 47h1M99 47h1M101 47h1M103 47h1M105 47h1M107 47h1M109 47h1M111 47h1M113 47h1M125 47h1M127 47h1M129 47h1M131 47h1M133 47h1M135 47h1M137 47h1M139 47h1M141 47h1M143 47h1M145 47h1M167 47h1M169 47h1M171 47h1M173 47h1M175 47h1M177 47h1M179 47h1M181 47h1M183 47h1M185 47h1M187 47h1M189 47h1M191 47h1M213 47h1M215 47h1M217 47h1M219 47h1M221 47h1M223 47h1M225 47h1M227 47h1M229 47h1M231 47h1M233 47h1M245 47h1M247 47h1M249 47h1M251 47h1M253 47h1M255 47h1M257 47h1M259 47h1M261 47h1M263 47h1M265 47h1M287 47h1M289 47h1M291 47h1M293 47h1M295 47h1M297 47h1M299 47h1M301 47h1M303 47h1M305 47h1M307 47h1M309 47h1M311 47h1M313 47h1M315 47h1M317 47h1M319 47h1M321 47h1M323 47h1M325 47h1M327 47h1M329 47h1M331 47h1M333 47h1M335 47h1M337 47h1M339 47h1M341 47h1M343 47h1M345 47h1M347 47h1M349 47h1M351 47h1M353 47h1M5 49h1M7 49h1M9 49h1M11 49h1M13 49h1M15 49h1M17 49h1M19 49h1M21 49h1M23 49h1M25 49h1M47 49h1M49 49h1M51 49h1M53 49h1M55 49h1M57 49h1M59 49h1M61 49h1M63 49h1M65 49h1M67 49h1M69 49h1M71 49h1M73 49h1M75 49h1M77 49h1M79 49h1M81 49h1M83 49h1M85 49h1M87 49h1M89 49h1M91 49h1M93 49h1M95 49h1M97 49h1M99 49h1M101 49h1M103 49h1M105 49h1M107 49h1M109 49h1M111 49h1M113 49h1M125 49h1M127 49h1M129 49h1M131 49h1M133 49h1M135 49h1M137 49h1M139 49h1M141 49h1M143 49h1M145 49h1M167 49h1M169 49h1M171 49h1M173 49h1M175 49h1M177 49h1M179 49h1M181 49h1M183 49h1M185 49h1M187 49h1M189 49h1M191 49h1M213 49h1M215 49h1M217 49h1M219 49h1M221 49h1M223 49h1M225 49h1M227 49h1M229 49h1M231 49h1M233 49h1M245 49h1M247 49h1M249 49h1M251 49h1M253 49h1M255 49h1M257 49h1M259 49h1M261 49h1M263 49h1M265 49h1M287 49h1M289 49h1M291 49h1M293 49h1M295 49h1M297 49h1M299 49h1M301 49h1M303 49h1M305 49h1M307 49h1M309 49h1M311 49h1M313 49h1M315 49h1M317 49h1M319 49h1M321 49h1M323 49h1M325 49h1M327 49h1M329 49h1M331 49h1M333 49h1M335 49h1M337 49h1M339 49h1M341 49h1M343 49h1M345 49h1M347 49h1M349 49h1M351 49h1M353 49h1M5 51h1M7 51h1M9 51h1M11 51h1M13 51h1M15 51h1M17 51h1M19 51h1M21 51h1M23 51h1M25 51h1M47 51h1M49 51h1M51 51h1M53 51h1M55 51h1M57 51h1M59 51h1M61 51h1M63 51h1M65 51h1M67 51h1M69 51h1M71 51h1M73 51h1M75 51h1M77 51h1M79 51h1M81 51h1M83 51h1M85 51h1M87 51h1M89 51h1M91 51h1M93 51h1M95 51h1M97 51h1M99 51h1M101 51h1M103 51h1M105 51h1M107 51h1M109 51h1M111 51h1M113 51h1M125 51h1M127 51h1M129 51h1M131 51h1M133 51h1M135 51h1M137 51h1M139 51h1M141 51h1M143 51h1M145 51h1M167 51h1M169 51h1M171 51h1M173 51h1M175 51h1M177 51h1M179 51h1M181 51h1M183 51h1M185 51h1M187 51h1M189 51h1M191 51h1M213 51h1M215 51h1M217 51h1M219 51h1M221 51h1M223 51h1M225 51h1M227 51h1M229 51h1M231 51h1M233 51h1M245 51h1M247 51h1M249 51h1M251 51h1M253 51h1M255 51h1M257 51h1M259 51h1M261 51h1M263 51h1M265 51h1M287 51h1M289 51h1M291 51h1M293 51h1M295 51h1M297 51h1M299 51h1M301 51h1M303 51h1M305 51h1M307 51h1M309 51h1M311 51h1M313 51h1M315 51h1M317 51h1M319 51h1M321 51h1M323 51h1M325 51h1M327 51h1M329 51h1M331 51h1M333 51h1M335 51h1M337 51h1M339 51h1M341 51h1M343 51h1M345 51h1M347 51h1M349 51h1M351 51h1M353 51h1M5 53h1M7 53h1M9 53h1M11 53h1M13 53h1M15 53h1M17 53h1M19 53h1M21 53h1M23 53h1M25 53h1M47 53h1M49 53h1M51 53h1M53 53h1M55 53h1M57 53h1M59 53h1M61 53h1M63 53h1M65 53h1M67 53h1M69 53h1M71 53h1M73 53h1M75 53h1M77 53h1M79 53h1M81 53h1M83 53h1M85 53h1M87 53h1M89 53h1M91 53h1M93 53h1M95 53h1M97 53h1M99 53h1M101 53h1M103 53h1M105 53h1M107 53h1M109 53h1M111 53h1M113 53h1M125 53h1M127 53h1M129 53h1M131 53h1M133 53h1M135 53h1M137 53h1M139 53h1M141 53h1M143 53h1M145 53h1M167 53h1M169 53h1M171 53h1M173 53h1M175 53h1M177 53h1M179 53h1M181 53h1M183 53h1M185 53h1M187 53h1M189 53h1M191 53h1M213 53h1M215 53h1M217 53h1M219 53h1M221 53h1M223 53h1M225 53h1M227 53h1M229 53h1M231 53h1M233 53h1M245 53h1M247 53h1M249 53h1M251 53h1M253 53h1M255 53h1M257 53h1M259 53h1M261 53h1M263 53h1M265 53h1M287 53h1M289 53h1M291 53h1M293 53h1M295 53h1M297 53h1M299 53h1M301 53h1M303 53h1M305 53h1M307 53h1M309 53h1M311 53h1M313 53h1M315 53h1M317 53h1M319 53h1M321 53h1M323 53h1M325 53h1M327 53h1M329 53h1M331 53h1M333 53h1M335 53h1M337 53h1M339 53h1M341 53h1M343 53h1M345 53h1M347 53h1M349 53h1M351 53h1M353 53h1M27 55h1M31 55h1M35 55h1M39 55h1M43 55h1M151 55h1M155 55h1M159 55h1M163 55h1M195 55h1M199 55h1M203 55h1M207 55h1M267 55h1M271 55h1M275 55h1M279 55h1M283 55h1M29 57h1M33 57h1M37 57h1M41 57h1M45 57h1M149 57h1M153 57h1M157 57h1M161 57h1M165 57h1M193 57h1M197 57h1M201 57h1M205 57h1M209 57h1M269 57h1M273 57h1M277 57h1M281 57h1M285 57h1M27 59h1M31 59h1M35 59h1M39 59h1M43 59h1M151 59h1M155 59h1M159 59h1M163 59h1M167 59h1M191 59h1M195 59h1M199 59h1M203 59h1M207 59h1M267 59h1M271 59h1M275 59h1M279 59h1M283 59h1M29 61h1M33 61h1M37 61h1M41 61h1M45 61h1M149 61h1M153 61h1M157 61h1M161 61h1M165 61h1M193 61h1M197 61h1M201 61h1M205 61h1M209 61h1M269 61h1M273 61h1M277 61h1M281 61h1M285 61h1M27 63h1M31 63h1M35 63h1M39 63h1M43 63h1M151 63h1M155 63h1M159 63h1M163 63h1M167 63h1M191 63h1M195 63h1M199 63h1M203 63h1M207 63h1M267 63h1M271 63h1M275 63h1M279 63h1M283 63h1M5 65h1M7 65h1M9 65h1M11 65h1M13 65h1M15 65h1M17 65h1M19 65h1M21 65h1M23 65h1M25 65h1M47 65h1M49 65h1M51 65h1M53 65h1M55 65h1M57 65h1M59 65h1M61 65h1M63 65h1M65 65h1M67 65h1M69 65h1M71 65h1M73 65h1M75 65h1M77 65h1M79 65h1M81 65h1M83 65h1M85 65h1M87 65h1M89 65h1M91 65h1M93 65h1M95 65h1M97 65h1M99 65h1M101 65h1M103 65h1M105 65h1M107 65h1M109 65h1M111 65h1M113 65h1M125 65h1M127 65h1M129 65h1M131 65h1M133 65h1M135 65h1M137 65h1M139 65h1M141 65h1M143 65h1M145 65h1M147 65h1M149 65h1M157 65h1M161 65h1M165 65h1M193 65h1M197 65h1M201 65h1M209 65h1M211 65h1M213 65h1M215 65h1M217 65h1M219 65h1M221 65h1M223 65h1M225 65h1M227 65h1M229 65h1M231 65h1M233 65h1M245 65h1M247 65h1M249 65h1M251 65h1M253 65h1M255 65h1M257 65h1M259 65h1M261 65h1M263 65h1M265 65h1M287 65h1M289 65h1M291 65h1M293 65h1M295 65h1M297 65h1M299 65h1M301 65h1M303 65h1M305 65h1M307 65h1M309 65h1M311 65h1M313 65h1M315 65h1M317 65h1M319 65h1M321 65h1M323 65h1M325 65h1M327 65h1M329 65h1M331 65h1M333 65h1M335 65h1M337 65h1M339 65h1M341 65h1M343 65h1M345 65h1M347 65h1M349 65h1M351 65h1M353 65h1M5 67h1M7 67h1M9 67h1M11 67h1M13 67h1M15 67h1M17 67h1M19 67h1M21 67h1M23 67h1M25 67h1M47 67h1M49 67h1M51 67h1M53 67h1M55 67h1M57 67h1M59 67h1M61 67h1M63 67h1M65 67h1M67 67h1M69 67h1M71 67h1M73 67h1M75 67h1M77 67h1M79 67h1M81 67h1M83 67h1M85 67h1M87 67h1M89 67h1M91 67h1M93 67h1M95 67h1M97 67h1M99 67h1M101 67h1M103 67h1M105 67h1M107 67h1M109 67h1M111 67h1M113 67h1M125 67h1M127 67h1M129 67h1M131 67h1M133 67h1M135 67h1M137 67h1M139 67h1M141 67h1M143 67h1M145 67h1M147 67h1M149 67h1M155 67h1M159 67h1M163 67h1M167 67h1M191 67h1M195 67h1M199 67h1M203 67h1M209 67h1M211 67h1M213 67h1M215 67h1M217 67h1M219 67h1M221 67h1M223 67h1M225 67h1M227 67h1M229 67h1M231 67h1M233 67h1M245 67h1M247 67h1M249 67h1M251 67h1M253 67h1M255 67h1M257 67h1M259 67h1M261 67h1M263 67h1M265 67h1M287 67h1M289 67h1M291 67h1M293 67h1M295 67h1M297 67h1M299 67h1M301 67h1M303 67h1M305 67h1M307 67h1M309 67h1M311 67h1M313 67h1M315 67h1M317 67h1M319 67h1M321 67h1M323 67h1M325 67h1M327 67h1M329 67h1M331 67h1M333 67h1M335 67h1M337 67h1M339 67h1M341 67h1M343 67h1M345 67h1M347 67h1M349 67h1M351 67h1M353 67h1M5 69h1M7 69h1M9 69h1M11 69h1M13 69h1M15 69h1M17 69h1M19 69h1M21 69h1M23 69h1M25 69h1M87 69h1M89 69h1M91 69h1M93 69h1M95 69h1M97 69h1M99 69h1M101 69h1M103 69h1M105 69h1M107 69h1M109 69h1M111 69h1M113 69h1M125 69h1M127 69h1M129 69h1M131 69h1M133 69h1M135 69h1M137 69h1M139 69h1M141 69h1M143 69h1M145 69h1M147 69h1M149 69h1M157 69h1M161 69h1M165 69h1M169 69h1M189 69h1M193 69h1M197 69h1M201 69h1M209 69h1M211 69h1M213 69h1M215 69h1M217 69h1M219 69h1M221 69h1M223 69h1M225 69h1M227 69h1M229 69h1M231 69h1M233 69h1M245 69h1M247 69h1M249 69h1M251 69h1M253 69h1M255 69h1M257 69h1M259 69h1M261 69h1M263 69h1M265 69h1M327 69h1M329 69h1M331 69h1M333 69h1M335 69h1M337 69h1M339 69h1M341 69h1M343 69h1M345 69h1M347 69h1M349 69h1M351 69h1M353 69h1M5 71h1M7 71h1M9 71h1M11 71h1M13 71h1M15 71h1M17 71h1M19 71h1M21 71h1M23 71h1M25 71h1M87 71h1M89 71h1M91 71h1M93 71h1M95 71h1M97 71h1M99 71h1M101 71h1M103 71h1M105 71h1M107 71h1M109 71h1M111 71h1M113 71h1M125 71h1M127 71h1M129 71h1M131 71h1M133 71h1M135 71h1M137 71h1M139 71h1M141 71h1M143 71h1M145 71h1M147 71h1M149 71h1M155 71h1M159 71h1M163 71h1M167 71h1M191 71h1M195 71h1M199 71h1M203 71h1M209 71h1M211 71h1M213 71h1M215 71h1M217 71h1M219 71h1M221 71h1M223 71h1M225 71h1M227 71h1M229 71h1M231 71h1M233 71h1M245 71h1M247 71h1M249 71h1M251 71h1M253 71h1M255 71h1M257 71h1M259 71h1M261 71h1M263 71h1M265 71h1M327 71h1M329 71h1M331 71h1M333 71h1M335 71h1M337 71h1M339 71h1M341 71h1M343 71h1M345 71h1M347 71h1M349 71h1M351 71h1M353 71h1M5 73h1M7 73h1M9 73h1M11 73h1M13 73h1M15 73h1M17 73h1M19 73h1M21 73h1M23 73h1M25 73h1M87 73h1M89 73h1M91 73h1M93 73h1M95 73h1M97 73h1M99 73h1M101 73h1M103 73h1M105 73h1M107 73h1M109 73h1M111 73h1M113 73h1M125 73h1M127 73h1M129 73h1M131 73h1M133 73h1M135 73h1M137 73h1M139 73h1M141 73h1M143 73h1M145 73h1M147 73h1M149 73h1M151 73h1M157 73h1M161 73h1M165 73h1M169 73h1M189 73h1M193 73h1M197 73h1M201 73h1M207 73h1M209 73h1M211 73h1M213 73h1M215 73h1M217 73h1M219 73h1M221 73h1M223 73h1M225 73h1M227 73h1M229 73h1M231 73h1M233 73h1M245 73h1M247 73h1M249 73h1M251 73h1M253 73h1M255 73h1M257 73h1M259 73h1M261 73h1M263 73h1M265 73h1M327 73h1M329 73h1M331 73h1M333 73h1M335 73h1M337 73h1M339 73h1M341 73h1M343 73h1M345 73h1M347 73h1M349 73h1M351 73h1M353 73h1M5 75h1M7 75h1M9 75h1M11 75h1M13 75h1M15 75h1M17 75h1M19 75h1M21 75h1M23 75h1M25 75h1M87 75h1M89 75h1M91 75h1M93 75h1M95 75h1M97 75h1M99 75h1M101 75h1M103 75h1M105 75h1M107 75h1M109 75h1M111 75h1M113 75h1M125 75h1M127 75h1M129 75h1M131 75h1M133 75h1M135 75h1M137 75h1M139 75h1M141 75h1M143 75h1M145 75h1M147 75h1M149 75h1M151 75h1M155 75h1M159 75h1M163 75h1M167 75h1M191 75h1M195 75h1M199 75h1M203 75h1M207 75h1M209 75h1M211 75h1M213 75h1M215 75h1M217 75h1M219 75h1M221 75h1M223 75h1M225 75h1M227 75h1M229 75h1M231 75h1M233 75h1M245 75h1M247 75h1M249 75h1M251 75h1M253 75h1M255 75h1M257 75h1M259 75h1M261 75h1M263 75h1M265 75h1M327 75h1M329 75h1M331 75h1M333 75h1M335 75h1M337 75h1M339 75h1M341 75h1M343 75h1M345 75h1M347 75h1M349 75h1M351 75h1M353 75h1M5 77h1M7 77h1M9 77h1M11 77h1M13 77h1M15 77h1M17 77h1M19 77h1M21 77h1M23 77h1M25 77h1M87 77h1M89 77h1M91 77h1M93 77h1M95 77h1M97 77h1M99 77h1M101 77h1M103 77h1M105 77h1M107 77h1M109 77h1M111 77h1M113 77h1M125 77h1M127 77h1M129 77h1M131 77h1M133 77h1M135 77h1M137 77h1M139 77h1M141 77h1M143 77h1M145 77h1M147 77h1M149 77h1M151 77h1M157 77h1M161 77h1M165 77h1M169 77h1M189 77h1M193 77h1M197 77h1M201 77h1M207 77h1M209 77h1M211 77h1M213 77h1M215 77h1M217 77h1M219 77h1M221 77h1M223 77h1M225 77h1M227 77h1M229 77h1M231 77h1M233 77h1M245 77h1M247 77h1M249 77h1M251 77h1M253 77h1M255 77h1M257 77h1M259 77h1M261 77h1M263 77h1M265 77h1M327 77h1M329 77h1M331 77h1M333 77h1M335 77h1M337 77h1M339 77h1M341 77h1M343 77h1M345 77h1M347 77h1M349 77h1M351 77h1M353 77h1M5 79h1M7 79h1M9 79h1M11 79h1M13 79h1M15 79h1M17 79h1M19 79h1M21 79h1M23 79h1M25 79h1M87 79h1M89 79h1M91 79h1M93 79h1M95 79h1M97 79h1M99 79h1M101 79h1M103 79h1M105 79h1M107 79h1M109 79h1M111 79h1M113 79h1M125 79h1M127 79h1M129 79h1M131 79h1M133 79h1M135 79h1M137 79h1M139 79h1M141 79h1M143 79h1M145 79h1M147 79h1M149 79h1M151 79h1M155 79h1M159 79h1M163 79h1M167 79h1M171 79h1M187 79h1M191 79h1M195 79h1M199 79h1M203 79h1M207 79h1M209 79h1M211 79h1M213 79h1M215 79h1M217 79h1M219 79h1M221 79h1M223 79h1M225 79h1M227 79h1M229 79h1M231 79h1M233 79h1M245 79h1M247 79h1M249 79h1M251 79h1M253 79h1M255 79h1M257 79h1M259 79h1M261 79h1M263 79h1M265 79h1M327 79h1M329 79h1M331 79h1M333 79h1M335 79h1M337 79h1M339 79h1M341 79h1M343 79h1M345 79h1M347 79h1M349 79h1M351 79h1M353 79h1M5 81h1M7 81h1M9 81h1M11 81h1M13 81h1M15 81h1M17 81h1M19 81h1M21 81h1M23 81h1M25 81h1M87 81h1M89 81h1M91 81h1M93 81h1M95 81h1M97 81h1M99 81h1M101 81h1M103 81h1M105 81h1M107 81h1M109 81h1M111 81h1M113 81h1M125 81h1M127 81h1M129 81h1M131 81h1M133 81h1M135 81h1M137 81h1M139 81h1M141 81h1M143 81h1M145 81h1M147 81h1M149 81h1M151 81h1M153 81h1M157 81h1M161 81h1M165 81h1M169 81h1M189 81h1M193 81h1M197 81h1M201 81h1M205 81h1M207 81h1M209 81h1M211 81h1M213 81h1M215 81h1M217 81h1M219 81h1M221 81h1M223 81h1M225 81h1M227 81h1M229 81h1M231 81h1M233 81h1M245 81h1M247 81h1M249 81h1M251 81h1M253 81h1M255 81h1M257 81h1M259 81h1M261 81h1M263 81h1M265 81h1M327 81h1M329 81h1M331 81h1M333 81h1M335 81h1M337 81h1M339 81h1M341 81h1M343 81h1M345 81h1M347 81h1M349 81h1M351 81h1M353 81h1M5 83h1M7 83h1M9 83h1M11 83h1M13 83h1M15 83h1M17 83h1M19 83h1M21 83h1M23 83h1M25 83h1M87 83h1M89 83h1M91 83h1M93 83h1M95 83h1M97 83h1M99 83h1M101 83h1M103 83h1M105 83h1M107 83h1M109 83h1M111 83h1M113 83h1M125 83h1M127 83h1M129 83h1M131 83h1M133 83h1M135 83h1M137 83h1M139 83h1M141 83h1M143 83h1M145 83h1M147 83h1M149 83h1M151 83h1M153 83h1M155 83h1M159 83h1M163 83h1M167 83h1M171 83h1M187 83h1M191 83h1M195 83h1M199 83h1M203 83h1M205 83h1M207 83h1M209 83h1M211 83h1M213 83h1M215 83h1M217 83h1M219 83h1M221 83h1M223 83h1M225 83h1M227 83h1M229 83h1M231 83h1M233 83h1M245 83h1M247 83h1M249 83h1M251 83h1M253 83h1M255 83h1M257 83h1M259 83h1M261 83h1M263 83h1M265 83h1M327 83h1M329 83h1M331 83h1M333 83h1M335 83h1M337 83h1M339 83h1M341 83h1M343 83h1M345 83h1M347 83h1M349 83h1M351 83h1M353 83h1M5 85h1M7 85h1M9 85h1M11 85h1M13 85h1M15 85h1M17 85h1M19 85h1M21 85h1M23 85h1M25 85h1M87 85h1M89 85h1M91 85h1M93 85h1M95 85h1M97 85h1M99 85h1M101 85h1M103 85h1M105 85h1M107 85h1M109 85h1M111 85h1M113 85h1M125 85h1M127 85h1M129 85h1M131 85h1M133 85h1M135 85h1M137 85h1M139 85h1M141 85h1M143 85h1M145 85h1M147 85h1M149 85h1M151 85h1M153 85h1M157 85h1M161 85h1M165 85h1M169 85h1M189 85h1M193 85h1M197 85h1M201 85h1M205 85h1M207 85h1M209 85h1M211 85h1M213 85h1M215 85h1M217 85h1M219 85h1M221 85h1M223 85h1M225 85h1M227 85h1M229 85h1M231 85h1M233 85h1M245 85h1M247 85h1M249 85h1M251 85h1M253 85h1M255 85h1M257 85h1M259 85h1M261 85h1M263 85h1M265 85h1M327 85h1M329 85h1M331 85h1M333 85h1M335 85h1M337 85h1M339 85h1M341 85h1M343 85h1M345 85h1M347 85h1M349 85h1M351 85h1M353 85h1M5 87h1M7 87h1M9 87h1M11 87h1M13 87h1M15 87h1M17 87h1M19 87h1M21 87h1M23 87h1M25 87h1M47 87h1M49 87h1M51 87h1M53 87h1M55 87h1M57 87h1M59 87h1M61 87h1M63 87h1M65 87h1M67 87h1M69 87h1M71 87h1M73 87h1M75 87h1M77 87h1M79 87h1M81 87h1M83 87h1M85 87h1M87 87h1M89 87h1M91 87h1M93 87h1M95 87h1M97 87h1M99 87h1M101 87h1M103 87h1M105 87h1M107 87h1M109 87h1M111 87h1M113 87h1M125 87h1M127 87h1M129 87h1M131 87h1M133 87h1M135 87h1M137 87h1M139 87h1M141 87h1M143 87h1M145 87h1M147 87h1M149 87h1M151 87h1M153 87h1M155 87h1M159 87h1M163 87h1M167 87h1M171 87h1M187 87h1M191 87h1M195 87h1M199 87h1M203 87h1M205 87h1M207 87h1M209 87h1M211 87h1M213 87h1M215 87h1M217 87h1M219 87h1M221 87h1M223 87h1M225 87h1M227 87h1M229 87h1M231 87h1M233 87h1M245 87h1M247 87h1M249 87h1M251 87h1M253 87h1M255 87h1M257 87h1M259 87h1M261 87h1M263 87h1M265 87h1M287 87h1M289 87h1M291 87h1M293 87h1M295 87h1M297 87h1M299 87h1M301 87h1M303 87h1M305 87h1M307 87h1M309 87h1M311 87h1M313 87h1M315 87h1M317 87h1M319 87h1M321 87h1M323 87h1M325 87h1M327 87h1M329 87h1M331 87h1M333 87h1M335 87h1M337 87h1M339 87h1M341 87h1M343 87h1M345 87h1M347 87h1M349 87h1M351 87h1M353 87h1M5 89h1M7 89h1M9 89h1M11 89h1M13 89h1M15 89h1M17 89h1M19 89h1M21 89h1M23 89h1M25 89h1M47 89h1M49 89h1M51 89h1M53 89h1M55 89h1M57 89h1M59 89h1M61 89h1M63 89h1M65 89h1M67 89h1M69 89h1M71 89h1M73 89h1M75 89h1M77 89h1M79 89h1M81 89h1M83 89h1M85 89h1M87 89h1M89 89h1M91 89h1M93 89h1M95 89h1M97 89h1M99 89h1M101 89h1M103 89h1M105 89h1M107 89h1M109 89h1M111 89h1M113 89h1M125 89h1M127 89h1M129 89h1M131 89h1M133 89h1M135 89h1M137 89h1M139 89h1M141 89h1M143 89h1M145 89h1M147 89h1M149 89h1M151 89h1M153 89h1M157 89h1M161 89h1M165 89h1M169 89h1M173 89h1M185 89h1M189 89h1M193 89h1M197 89h1M201 89h1M205 89h1M207 89h1M209 89h1M211 89h1M213 89h1M215 89h1M217 89h1M219 89h1M221 89h1M223 89h1M225 89h1M227 89h1M229 89h1M231 89h1M233 89h1M245 89h1M247 89h1M249 89h1M251 89h1M253 89h1M255 89h1M257 89h1M259 89h1M261 89h1M263 89h1M265 89h1M287 89h1M289 89h1M291 89h1M293 89h1M295 89h1M297 89h1M299 89h1M301 89h1M303 89h1M305 89h1M307 89h1M309 89h1M311 89h1M313 89h1M315 89h1M317 89h1M319 89h1M321 89h1M323 89h1M325 89h1M327 89h1M329 89h1M331 89h1M333 89h1M335 89h1M337 89h1M339 89h1M341 89h1M343 89h1M345 89h1M347 89h1M349 89h1M351 89h1M353 89h1M5 91h1M7 91h1M9 91h1M11 91h1M13 91h1M15 91h1M17 91h1M19 91h1M21 91h1M23 91h1M25 91h1M47 91h1M49 91h1M51 91h1M53 91h1M55 91h1M57 91h1M59 91h1M61 91h1M63 91h1M65 91h1M67 91h1M69 91h1M71 91h1M73 91h1M75 91h1M77 91h1M79 91h1M81 91h1M83 91h1M85 91h1M87 91h1M89 91h1M91 91h1M93 91h1M95 91h1M97 91h1M99 91h1M101 91h1M103 91h1M105 91h1M107 91h1M109 91h1M111 91h1M113 91h1M125 91h1M127 91h1M129 91h1M131 91h1M133 91h1M135 91h1M137 91h1M139 91h1M141 91h1M143 91h1M145 91h1M147 91h1M149 91h1M151 91h1M153 91h1M159 91h1M163 91h1M167 91h1M171 91h1M187 91h1M191 91h1M195 91h1M199 91h1M205 91h1M207 91h1M209 91h1M211 91h1M213 91h1M215 91h1M217 91h1M219 91h1M221 91h1M223 91h1M225 91h1M227 91h1M229 91h1M231 91h1M233 91h1M245 91h1M247 91h1M249 91h1M251 91h1M253 91h1M255 91h1M257 91h1M259 91h1M261 91h1M263 91h1M265 91h1M287 91h1M289 91h1M291 91h1M293 91h1M295 91h1M297 91h1M299 91h1M301 91h1M303 91h1M305 91h1M307 91h1M309 91h1M311 91h1M313 91h1M315 91h1M317 91h1M319 91h1M321 91h1M323 91h1M325 91h1M327 91h1M329 91h1M331 91h1M333 91h1M335 91h1M337 91h1M339 91h1M341 91h1M343 91h1M345 91h1M347 91h1M349 91h1M351 91h1M353 91h1M5 93h1M7 93h1M9 93h1M11 93h1M13 93h1M15 93h1M17 93h1M19 93h1M21 93h1M23 93h1M25 93h1M47 93h1M49 93h1M51 93h1M53 93h1M55 93h1M57 93h1M59 93h1M61 93h1M63 93h1M65 93h1M67 93h1M69 93h1M71 93h1M73 93h1M75 93h1M77 93h1M79 93h1M81 93h1M83 93h1M85 93h1M87 93h1M89 93h1M91 93h1M93 93h1M95 93h1M97 93h1M99 93h1M101 93h1M103 93h1M105 93h1M107 93h1M109 93h1M111 93h1M113 93h1M125 93h1M127 93h1M129 93h1M131 93h1M133 93h1M135 93h1M137 93h1M139 93h1M141 93h1M143 93h1M145 93h1M147 93h1M149 93h1M151 93h1M153 93h1M157 93h1M161 93h1M165 93h1M169 93h1M173 93h1M185 93h1M189 93h1M193 93h1M197 93h1M201 93h1M205 93h1M207 93h1M209 93h1M211 93h1M213 93h1M215 93h1M217 93h1M219 93h1M221 93h1M223 93h1M225 93h1M227 93h1M229 93h1M231 93h1M233 93h1M245 93h1M247 93h1M249 93h1M251 93h1M253 93h1M255 93h1M257 93h1M259 93h1M261 93h1M263 93h1M265 93h1M287 93h1M289 93h1M291 93h1M293 93h1M295 93h1M297 93h1M299 93h1M301 93h1M303 93h1M305 93h1M307 93h1M309 93h1M311 93h1M313 93h1M315 93h1M317 93h1M319 93h1M321 93h1M323 93h1M325 93h1M327 93h1M329 93h1M331 93h1M333 93h1M335 93h1M337 93h1M339 93h1M341 93h1M343 93h1M345 93h1M347 93h1M349 93h1M351 93h1M353 93h1M27 95h1M31 95h1M35 95h1M39 95h1M43 95h1M125 95h1M127 95h1M129 95h1M131 95h1M133 95h1M135 95h1M137 95h1M139 95h1M141 95h1M143 95h1M145 95h1M147 95h1M149 95h1M151 95h1M153 95h1M159 95h1M163 95h1M167 95h1M171 95h1M175 95h1M183 95h1M187 95h1M191 95h1M195 95h1M199 95h1M205 95h1M207 95h1M209 95h1M211 95h1M213 95h1M215 95h1M217 95h1M219 95h1M221 95h1M223 95h1M225 95h1M227 95h1M229 95h1M231 95h1M233 95h1M267 95h1M271 95h1M275 95h1M279 95h1M283 95h1M29 97h1M33 97h1M37 97h1M41 97h1M45 97h1M125 97h1M127 97h1M129 97h1M131 97h1M133 97h1M135 97h1M137 97h1M139 97h1M141 97h1M143 97h1M145 97h1M147 97h1M149 97h1M151 97h1M153 97h1M157 97h1M161 97h1M165 97h1M169 97h1M173 97h1M185 97h1M189 97h1M193 97h1M197 97h1M201 97h1M205 97h1M207 97h1M209 97h1M211 97h1M213 97h1M215 97h1M217 97h1M219 97h1M221 97h1M223 97h1M225 97h1M227 97h1M229 97h1M231 97h1M233 97h1M269 97h1M273 97h1M277 97h1M281 97h1M285 97h1M27 99h1M31 99h1M35 99h1M39 99h1M43 99h1M125 99h1M127 99h1M129 99h1M131 99h1M133 99h1M135 99h1M137 99h1M139 99h1M141 99h1M143 99h1M145 99h1M147 99h1M149 99h1M151 99h1M153 99h1M159 99h1M163 99h1M167 99h1M171 99h1M175 99h1M183 99h1M187 99h1M191 99h1M195 99h1M199 99h1M205 99h1M207 99h1M209 99h1M211 99h1M213 99h1M215 99h1M217 99h1M219 99h1M221 99h1M223 99h1M225 99h1M227 99h1M229 99h1M231 99h1M233 99h1M267 99h1M271 99h1M275 99h1M279 99h1M283 99h1M29 101h1M33 101h1M37 101h1M41 101h1M45 101h1M125 101h1M127 101h1M129 101h1M131 101h1M133 101h1M135 101h1M137 101h1M139 101h1M141 101h1M143 101h1M145 101h1M147 101h1M149 101h1M151 101h1M153 101h1M161 101h1M165 101h1M169 101h1M173 101h1M185 101h1M189 101h1M193 101h1M197 101h1M205 101h1M207 101h1M209 101h1M211 101h1M213 101h1M215 101h1M217 101h1M219 101h1M221 101h1M223 101h1M225 101h1M227 101h1M229 101h1M231 101h1M233 101h1M269 101h1M273 101h1M277 101h1M281 101h1M285 101h1M27 103h1M31 103h1M35 103h1M39 103h1M43 103h1M125 103h1M127 103h1M129 103h1M131 103h1M133 103h1M135 103h1M137 103h1M139 103h1M141 103h1M143 103h1M145 103h1M147 103h1M149 103h1M151 103h1M153 103h1M159 103h1M163 103h1M167 103h1M171 103h1M175 103h1M183 103h1M187 103h1M191 103h1M195 103h1M199 103h1M205 103h1M207 103h1M209 103h1M211 103h1M213 103h1M215 103h1M217 103h1M219 103h1M221 103h1M223 103h1M225 103h1M227 103h1M229 103h1M231 103h1M233 103h1M267 103h1M271 103h1M275 103h1M279 103h1M283 103h1M5 105h1M7 105h1M9 105h1M11 105h1M13 105h1M15 105h1M17 105h1M19 105h1M21 105h1M23 105h1M25 105h1M47 105h1M49 105h1M51 105h1M53 105h1M55 105h1M57 105h1M59 105h1M61 105h1M63 105h1M65 105h1M67 105h1M69 105h1M71 105h1M73 105h1M75 105h1M77 105h1M79 105h1M81 105h1M83 105h1M85 105h1M87 105h1M89 105h1M91 105h1M93 105h1M95 105h1M97 105h1M99 105h1M101 105h1M103 105h1M105 105h1M107 105h1M109 105h1M111 105h1M113 105h1M125 105h1M127 105h1M129 105h1M131 105h1M133 105h1M135 105h1M137 105h1M139 105h1M141 105h1M143 105h1M145 105h1M147 105h1M149 105h1M151 105h1M153 105h1M155 105h1M157 105h1M177 105h1M179 105h1M181 105h1M201 105h1M203 105h1M205 105h1M207 105h1M209 105h1M211 105h1M213 105h1M215 105h1M217 105h1M219 105h1M221 105h1M223 105h1M225 105h1M227 105h1M229 105h1M231 105h1M233 105h1M245 105h1M247 105h1M249 105h1M251 105h1M253 105h1M255 105h1M257 105h1M259 105h1M261 105h1M263 105h1M265 105h1M287 105h1M289 105h1M291 105h1M293 105h1M295 105h1M297 105h1M299 105h1M301 105h1M303 105h1M305 105h1M307 105h1M309 105h1M311 105h1M313 105h1M315 105h1M317 105h1M319 105h1M321 105h1M323 105h1M325 105h1M327 105h1M329 105h1M331 105h1M333 105h1M335 105h1M337 105h1M339 105h1M341 105h1M343 105h1M345 105h1M347 105h1M349 105h1M351 105h1M353 105h1M5 107h1M7 107h1M9 107h1M11 107h1M13 107h1M15 107h1M17 107h1M19 107h1M21 107h1M23 107h1M25 107h1M47 107h1M49 107h1M51 107h1M53 107h1M55 107h1M57 107h1M59 107h1M61 107h1M63 107h1M65 107h1M67 107h1M69 107h1M71 107h1M73 107h1M75 107h1M77 107h1M79 107h1M81 107h1M83 107h1M85 107h1M87 107h1M89 107h1M91 107h1M93 107h1M95 107h1M97 107h1M99 107h1M101 107h1M103 107h1M105 107h1M107 107h1M109 107h1M111 107h1M113 107h1M125 107h1M127 107h1M129 107h1M131 107h1M133 107h1M135 107h1M137 107h1M139 107h1M141 107h1M143 107h1M145 107h1M147 107h1M149 107h1M151 107h1M153 107h1M155 107h1M157 107h1M159 107h1M179 107h1M199 107h1M201 107h1M203 107h1M205 107h1M207 107h1M209 107h1M211 107h1M213 107h1M215 107h1M217 107h1M219 107h1M221 107h1M223 107h1M225 107h1M227 107h1M229 107h1M231 107h1M233 107h1M245 107h1M247 107h1M249 107h1M251 107h1M253 107h1M255 107h1M257 107h1M259 107h1M261 107h1M263 107h1M265 107h1M287 107h1M289 107h1M291 107h1M293 107h1M295 107h1M297 107h1M299 107h1M301 107h1M303 107h1M305 107h1M307 107h1M309 107h1M311 107h1M313 107h1M315 107h1M317 107h1M319 107h1M321 107h1M323 107h1M325 107h1M327 107h1M329 107h1M331 107h1M333 107h1M335 107h1M337 107h1M339 107h1M341 107h1M343 107h1M345 107h1M347 107h1M349 107h1M351 107h1M353 107h1M5 109h1M7 109h1M9 109h1M11 109h1M13 109h1M15 109h1M17 109h1M19 109h1M21 109h1M23 109h1M25 109h1M47 109h1M49 109h1M51 109h1M53 109h1M55 109h1M57 109h1M59 109h1M61 109h1M63 109h1M65 109h1M67 109h1M69 109h1M71 109h1M73 109h1M75 109h1M77 109h1M79 109h1M81 109h1M83 109h1M85 109h1M87 109h1M89 109h1M91 109h1M93 109h1M95 109h1M97 109h1M99 109h1M101 109h1M103 109h1M105 109h1M107 109h1M109 109h1M111 109h1M113 109h1M125 109h1M127 109h1M129 109h1M131 109h1M133 109h1M135 109h1M137 109h1M139 109h1M141 109h1M143 109h1M145 109h1M147 109h1M149 109h1M151 109h1M153 109h1M155 109h1M157 109h1M159 109h1M179 109h1M199 109h1M201 109h1M203 109h1M205 109h1M207 109h1M209 109h1M211 109h1M213 109h1M215 109h1M217 109h1M219 109h1M221 109h1M223 109h1M225 109h1M227 109h1M229 109h1M231 109h1M233 109h1M245 109h1M247 109h1M249 109h1M251 109h1M253 109h1M255 109h1M257 109h1M259 109h1M261 109h1M263 109h1M265 109h1M287 109h1M289 109h1M291 109h1M293 109h1M295 109h1M297 109h1M299 109h1M301 109h1M303 109h1M305 109h1M307 109h1M309 109h1M311 109h1M313 109h1M315 109h1M317 109h1M319 109h1M321 109h1M323 109h1M325 109h1M327 109h1M329 109h1M331 109h1M333 109h1M335 109h1M337 109h1M339 109h1M341 109h1M343 109h1M345 109h1M347 109h1M349 109h1M351 109h1M353 109h1M5 111h1M7 111h1M9 111h1M11 111h1M13 111h1M15 111h1M17 111h1M19 111h1M21 111h1M23 111h1M25 111h1M47 111h1M49 111h1M51 111h1M53 111h1M55 111h1M57 111h1M59 111h1M61 111h1M63 111h1M65 111h1M67 111h1M69 111h1M71 111h1M73 111h1M75 111h1M77 111h1M79 111h1M81 111h1M83 111h1M85 111h1M87 111h1M89 111h1M91 111h1M93 111h1M95 111h1M97 111h1M99 111h1M101 111h1M103 111h1M105 111h1M107 111h1M109 111h1M111 111h1M113 111h1M125 111h1M127 111h1M129 111h1M131 111h1M133 111h1M135 111h1M137 111h1M139 111h1M141 111h1M143 111h1M145 111h1M147 111h1M149 111h1M151 111h1M153 111h1M155 111h1M157 111h1M159 111h1M179 111h1M199 111h1M201 111h1M203 111h1M205 111h1M207 111h1M209 111h1M211 111h1M213 111h1M215 111h1M217 111h1M219 111h1M221 111h1M223 111h1M225 111h1M227 111h1M229 111h1M231 111h1M233 111h1M245 111h1M247 111h1M249 111h1M251 111h1M253 111h1M255 111h1M257 111h1M259 111h1M261 111h1M263 111h1M265 111h1M287 111h1M289 111h1M291 111h1M293 111h1M295 111h1M297 111h1M299 111h1M301 111h1M303 111h1M305 111h1M307 111h1M309 111h1M311 111h1M313 111h1M315 111h1M317 111h1M319 111h1M321 111h1M323 111h1M325 111h1M327 111h1M329 111h1M331 111h1M333 111h1M335 111h1M337 111h1M339 111h1M341 111h1M343 111h1M345 111h1M347 111h1M349 111h1M351 111h1M353 111h1M5 113h1M7 113h1M9 113h1M11 113h1M13 113h1M15 113h1M17 113h1M19 113h1M21 113h1M23 113h1M25 113h1M93 113h1M95 113h1M97 113h1M99 113h1M101 113h1M103 113h1M105 113h1M107 113h1M109 113h1M111 113h1M113 113h1M125 113h1M127 113h1M129 113h1M131 113h1M133 113h1M135 113h1M137 113h1M139 113h1M141 113h1M143 113h1M145 113h1M147 113h1M149 113h1M151 113h1M153 113h1M155 113h1M157 113h1M159 113h1M199 113h1M201 113h1M203 113h1M205 113h1M207 113h1M209 113h1M211 113h1M213 113h1M215 113h1M217 113h1M219 113h1M221 113h1M223 113h1M225 113h1M227 113h1M229 113h1M231 113h1M233 113h1M245 113h1M247 113h1M249 113h1M251 113h1M253 113h1M255 113h1M257 113h1M259 113h1M261 113h1M263 113h1M265 113h1M333 113h1M335 113h1M337 113h1M339 113h1M341 113h1M343 113h1M345 113h1M347 113h1M349 113h1M351 113h1M353 113h1M5 115h1M7 115h1M9 115h1M11 115h1M13 115h1M15 115h1M17 115h1M19 115h1M21 115h1M23 115h1M25 115h1M93 115h1M95 115h1M97 115h1M99 115h1M101 115h1M103 115h1M105 115h1M107 115h1M109 115h1M111 115h1M113 115h1M125 115h1M127 115h1M129 115h1M131 115h1M133 115h1M135 115h1M137 115h1M139 115h1M141 115h1M143 115h1M145 115h1M147 115h1M149 115h1M151 115h1M153 115h1M155 115h1M157 115h1M159 115h1M161 115h1M197 115h1M199 115h1M201 115h1M203 115h1M205 115h1M207 115h1M209 115h1M211 115h1M213 115h1M215 115h1M217 115h1M219 115h1M221 115h1M223 115h1M225 115h1M227 115h1M229 115h1M231 115h1M233 115h1M245 115h1M247 115h1M249 115h1M251 115h1M253 115h1M255 115h1M257 115h1M259 115h1M261 115h1M263 115h1M265 115h1M333 115h1M335 115h1M337 115h1M339 115h1M341 115h1M343 115h1M345 115h1M347 115h1M349 115h1M351 115h1M353 115h1M5 117h1M7 117h1M9 117h1M11 117h1M13 117h1M15 117h1M17 117h1M19 117h1M21 117h1M23 117h1M25 117h1M93 117h1M95 117h1M97 117h1M99 117h1M101 117h1M103 117h1M105 117h1M107 117h1M109 117h1M111 117h1M113 117h1M125 117h1M127 117h1M129 117h1M131 117h1M133 117h1M135 117h1M137 117h1M139 117h1M141 117h1M143 117h1M145 117h1M147 117h1M149 117h1M151 117h1M153 117h1M155 117h1M157 117h1M159 117h1M161 117h1M197 117h1M199 117h1M201 117h1M203 117h1M205 117h1M207 117h1M209 117h1M211 117h1M213 117h1M215 117h1M217 117h1M219 117h1M221 117h1M223 117h1M225 117h1M227 117h1M229 117h1M231 117h1M233 117h1M245 117h1M247 117h1M249 117h1M251 117h1M253 117h1M255 117h1M257 117h1M259 117h1M261 117h1M263 117h1M265 117h1M333 117h1M335 117h1M337 117h1M339 117h1M341 117h1M343 117h1M345 117h1M347 117h1M349 117h1M351 117h1M353 117h1M5 119h1M7 119h1M9 119h1M11 119h1M13 119h1M15 119h1M17 119h1M19 119h1M21 119h1M23 119h1M25 119h1M93 119h1M95 119h1M97 119h1M99 119h1M101 119h1M103 119h1M105 119h1M107 119h1M109 119h1M111 119h1M113 119h1M125 119h1M127 119h1M129 119h1M131 119h1M133 119h1M135 119h1M137 119h1M139 119h1M141 119h1M143 119h1M145 119h1M147 119h1M149 119h1M151 119h1M153 119h1M155 119h1M157 119h1M159 119h1M161 119h1M197 119h1M199 119h1M201 119h1M203 119h1M205 119h1M207 119h1M209 119h1M211 119h1M213 119h1M215 119h1M217 119h1M219 119h1M221 119h1M223 119h1M225 119h1M227 119h1M229 119h1M231 119h1M233 119h1M245 119h1M247 119h1M249 119h1M251 119h1M253 119h1M255 119h1M257 119h1M259 119h1M261 119h1M263 119h1M265 119h1M333 119h1M335 119h1M337 119h1M339 119h1M341 119h1M343 119h1M345 119h1M347 119h1M349 119h1M351 119h1M353 119h1M5 121h1M7 121h1M9 121h1M11 121h1M13 121h1M15 121h1M17 121h1M19 121h1M21 121h1M23 121h1M25 121h1M93 121h1M95 121h1M97 121h1M99 121h1M101 121h1M103 121h1M105 121h1M107 121h1M109 121h1M111 121h1M113 121h1M125 121h1M127 121h1M129 121h1M131 121h1M133 121h1M135 121h1M137 121h1M139 121h1M141 121h1M143 121h1M145 121h1M147 121h1M149 121h1M151 121h1M153 121h1M155 121h1M157 121h1M159 121h1M161 121h1M197 121h1M199 121h1M201 121h1M203 121h1M205 121h1M207 121h1M209 121h1M211 121h1M213 121h1M215 121h1M217 121h1M219 121h1M221 121h1M223 121h1M225 121h1M227 121h1M229 121h1M231 121h1M233 121h1M245 121h1M247 121h1M249 121h1M251 121h1M253 121h1M255 121h1M257 121h1M259 121h1M261 121h1M263 121h1M265 121h1M333 121h1M335 121h1M337 121h1M339 121h1M341 121h1M343 121h1M345 121h1M347 121h1M349 121h1M351 121h1M353 121h1M5 123h1M7 123h1M9 123h1M11 123h1M13 123h1M15 123h1M17 123h1M19 123h1M21 123h1M23 123h1M25 123h1M93 123h1M95 123h1M97 123h1M99 123h1M101 123h1M103 123h1M105 123h1M107 123h1M109 123h1M111 123h1M113 123h1M125 123h1M127 123h1M129 123h1M131 123h1M133 123h1M135 123h1M137 123h1M139 123h1M141 123h1M143 123h1M145 123h1M147 123h1M149 123h1M151 123h1M153 123h1M155 123h1M157 123h1M159 123h1M161 123h1M163 123h1M195 123h1M197 123h1M199 123h1M201 123h1M203 123h1M205 123h1M207 123h1M209 123h1M211 123h1M213 123h1M215 123h1M217 123h1M219 123h1M221 123h1M223 123h1M225 123h1M227 123h1M229 123h1M231 123h1M233 123h1M245 123h1M247 123h1M249 123h1M251 123h1M253 123h1M255 123h1M257 123h1M259 123h1M261 123h1M263 123h1M265 123h1M333 123h1M335 123h1M337 123h1M339 123h1M341 123h1M343 123h1M345 123h1M347 123h1M349 123h1M351 123h1M353 123h1M5 125h1M7 125h1M9 125h1M11 125h1M13 125h1M15 125h1M17 125h1M19 125h1M21 125h1M23 125h1M25 125h1M93 125h1M95 125h1M97 125h1M99 125h1M101 125h1M103 125h1M105 125h1M107 125h1M109 125h1M111 125h1M113 125h1M125 125h1M127 125h1M129 125h1M131 125h1M133 125h1M135 125h1M137 125h1M139 125h1M141 125h1M143 125h1M145 125h1M147 125h1M149 125h1M151 125h1M153 125h1M155 125h1M157 125h1M159 125h1M161 125h1M163 125h1M195 125h1M197 125h1M199 125h1M201 125h1M203 125h1M205 125h1M207 125h1M209 125h1M211 125h1M213 125h1M215 125h1M217 125h1M219 125h1M221 125h1M223 125h1M225 125h1M227 125h1M229 125h1M231 125h1M233 125h1M245 125h1M247 125h1M249 125h1M251 125h1M253 125h1M255 125h1M257 125h1M259 125h1M261 125h1M263 125h1M265 125h1M333 125h1M335 125h1M337 125h1M339 125h1M341 125h1M343 125h1M345 125h1M347 125h1M349 125h1M351 125h1M353 125h1M5 127h1M7 127h1M9 127h1M11 127h1M13 127h1M15 127h1M17 127h1M19 127h1M21 127h1M23 127h1M25 127h1M93 127h1M95 127h1M97 127h1M99 127h1M101 127h1M103 127h1M105 127h1M107 127h1M109 127h1M111 127h1M113 127h1M125 127h1M127 127h1M129 127h1M131 127h1M133 127h1M135 127h1M137 127h1M139 127h1M141 127h1M143 127h1M145 127h1M147 127h1M149 127h1M151 127h1M153 127h1M155 127h1M157 127h1M159 127h1M161 127h1M163 127h1M195 127h1M197 127h1M199 127h1M201 127h1M203 127h1M205 127h1M207 127h1M209 127h1M211 127h1M213 127h1M215 127h1M217 127h1M219 127h1M221 127h1M223 127h1M225 127h1M227 127h1M229 127h1M231 127h1M233 127h1M245 127h1M247 127h1M249 127h1M251 127h1M253 127h1M255 127h1M257 127h1M259 127h1M261 127h1M263 127h1M265 127h1M333 127h1M335 127h1M337 127h1M339 127h1M341 127h1M343 127h1M345 127h1M347 127h1M349 127h1M351 127h1M353 127h1M5 129h1M7 129h1M9 129h1M11 129h1M13 129h1M15 129h1M17 129h1M19 129h1M21 129h1M23 129h1M25 129h1M93 129h1M95 129h1M97 129h1M99 129h1M101 129h1M103 129h1M105 129h1M107 129h1M109 129h1M111 129h1M113 129h1M125 129h1M127 129h1M129 129h1M131 129h1M133 129h1M135 129h1M137 129h1M139 129h1M141 129h1M143 129h1M145 129h1M147 129h1M149 129h1M151 129h1M153 129h1M155 129h1M157 129h1M159 129h1M161 129h1M163 129h1M195 129h1M197 129h1M199 129h1M201 129h1M203 129h1M205 129h1M207 129h1M209 129h1M211 129h1M213 129h1M215 129h1M217 129h1M219 129h1M221 129h1M223 129h1M225 129h1M227 129h1M229 129h1M231 129h1M233 129h1M245 129h1M247 129h1M249 129h1M251 129h1M253 129h1M255 129h1M257 129h1M259 129h1M261 129h1M263 129h1M265 129h1M333 129h1M335 129h1M337 129h1M339 129h1M341 129h1M343 129h1M345 129h1M347 129h1M349 129h1M351 129h1M353 129h1M5 131h1M7 131h1M9 131h1M11 131h1M13 131h1M15 131h1M17 131h1M19 131h1M21 131h1M23 131h1M25 131h1M27 131h1M29 131h1M31 131h1M33 131h1M35 131h1M37 131h1M39 131h1M41 131h1M43 131h1M45 131h1M47 131h1M49 131h1M51 131h1M53 131h1M55 131h1M57 131h1M59 131h1M61 131h1M63 131h1M65 131h1M67 131h1M69 131h1M71 131h1M73 131h1M75 131h1M77 131h1M79 131h1M81 131h1M83 131h1M85 131h1M87 131h1M89 131h1M91 131h1M93 131h1M95 131h1M97 131h1M99 131h1M101 131h1M103 131h1M105 131h1M107 131h1M109 131h1M111 131h1M113 131h1M125 131h1M127 131h1M129 131h1M131 131h1M133 131h1M135 131h1M137 131h1M139 131h1M141 131h1M143 131h1M145 131h1M147 131h1M149 131h1M151 131h1M153 131h1M155 131h1M157 131h1M159 131h1M161 131h1M163 131h1M165 131h1M167 131h1M169 131h1M171 131h1M173 131h1M175 131h1M177 131h1M179 131h1M181 131h1M183 131h1M185 131h1M187 131h1M189 131h1M191 131h1M193 131h1M195 131h1M197 131h1M199 131h1M201 131h1M203 131h1M205 131h1M207 131h1M209 131h1M211 131h1M213 131h1M215 131h1M217 131h1M219 131h1M221 131h1M223 131h1M225 131h1M227 131h1M229 131h1M231 131h1M233 131h1M245 131h1M247 131h1M249 131h1M251 131h1M253 131h1M255 131h1M257 131h1M259 131h1M261 131h1M263 131h1M265 131h1M267 131h1M269 131h1M271 131h1M273 131h1M275 131h1M277 131h1M279 131h1M281 131h1M283 131h1M285 131h1M287 131h1M289 131h1M291 131h1M293 131h1M295 131h1M297 131h1M299 131h1M301 131h1M303 131h1M305 131h1M307 131h1M309 131h1M311 131h1M313 131h1M315 131h1M317 131h1M319 131h1M321 131h1M323 131h1M325 131h1M327 131h1M329 131h1M331 131h1M333 131h1M335 131h1M337 131h1M339 131h1M341 131h1M343 131h1M345 131h1M347 131h1M349 131h1M351 131h1M353 131h1M5 133h1M7 133h1M9 133h1M11 133h1M13 133h1M15 133h1M17 133h1M19 133h1M21 133h1M23 133h1M25 133h1M27 133h1M29 133h1M31 133h1M33 133h1M35 133h1M37 133h1M39 133h1M41 133h1M43 133h1M45 133h1M47 133h1M49 133h1M51 133h1M53 133h1M55 133h1M57 133h1M59 133h1M61 133h1M63 133h1M65 133h1M67 133h1M69 133h1M71 133h1M73 133h1M75 133h1M77 133h1M79 133h1M81 133h1M83 133h1M85 133h1M87 133h1M89 133h1M91 133h1M93 133h1M95 133h1M97 133h1M99 133h1M101 133h1M103 133h1M105 133h1M107 133h1M109 133h1M111 133h1M113 133h1M125 133h1M127 133h1M129 133h1M131 133h1M133 133h1M135 133h1M137 133h1M139 133h1M141 133h1M143 133h1M145 133h1M147 133h1M149 133h1M151 133h1M153 133h1M155 133h1M157 133h1M159 133h1M161 133h1M163 133h1M165 133h1M167 133h1M169 133h1M171 133h1M173 133h1M175 133h1M177 133h1M179 133h1M181 133h1M183 133h1M185 133h1M187 133h1M189 133h1M191 133h1M193 133h1M195 133h1M197 133h1M199 133h1M201 133h1M203 133h1M205 133h1M207 133h1M209 133h1M211 133h1M213 133h1M215 133h1M217 133h1M219 133h1M221 133h1M223 133h1M225 133h1M227 133h1M229 133h1M231 133h1M233 133h1M245 133h1M247 133h1M249 133h1M251 133h1M253 133h1M255 133h1M257 133h1M259 133h1M261 133h1M263 133h1M265 133h1M267 133h1M269 133h1M271 133h1M273 133h1M275 133h1M277 133h1M279 133h1M281 133h1M283 133h1M285 133h1M287 133h1M289 133h1M291 133h1M293 133h1M295 133h1M297 133h1M299 133h1M301 133h1M303 133h1M305 133h1M307 133h1M309 133h1M311 133h1M313 133h1M315 133h1M317 133h1M319 133h1M321 133h1M323 133h1M325 133h1M327 133h1M329 133h1M331 133h1M333 133h1M335 133h1M337 133h1M339 133h1M341 133h1M343 133h1M345 133h1M347 133h1M349 133h1M351 133h1M353 133h1M5 139h15M25 139h4M43 139h4M56 139h8M77 139h4M97 139h4M115 139h4M125 139h12M147 139h5M159 139h4M176 139h10M213 139h4M231 139h4M240 139h15M268 139h8M285 139h20M315 139h8M335 139h12M5 141h15M26 141h4M42 141h4M53 141h14M77 141h4M98 141h4M114 141h4M125 141h12M147 141h6M159 141h4M173 141h14M214 141h4M230 141h4M240 141h15M265 141h13M285 141h20M312 141h14M335 141h15M5 143h4M26 143h4M42 143h4M52 143h5M63 143h5M77 143h4M98 143h4M114 143h4M129 143h4M147 143h6M159 143h4M171 143h5M214 143h4M230 143h4M240 143h4M263 143h5M275 143h5M293 143h4M311 143h5M322 143h5M335 143h4M347 143h5M5 145h4M27 145h4M41 145h4M51 145h4M65 145h4M77 145h4M99 145h4M113 145h4M129 145h4M147 145h7M159 145h4M170 145h4M215 145h4M229 145h4M240 145h4M262 145h4M293 145h4M310 145h4M324 145h4M335 145h4M348 145h4M5 147h4M28 147h4M40 147h4M50 147h5M65 147h5M77 147h4M100 147h4M112 147h4M129 147h4M147 147h8M159 147h4M169 147h5M216 147h4M228 147h4M240 147h4M261 147h5M293 147h4M309 147h5M324 147h5M335 147h4M348 147h4M5 149h4M28 149h4M40 149h4M50 149h4M66 149h4M77 149h4M100 149h4M112 149h4M129 149h4M147 149h4M152 149h4M159 149h4M169 149h4M216 149h4M228 149h4M240 149h4M261 149h4M293 149h4M309 149h4M325 149h4M335 149h4M347 149h4M5 151h14M29 151h4M39 151h4M50 151h4M66 151h4M77 151h4M101 151h4M111 151h4M129 151h4M147 151h4M153 151h4M159 151h4M169 151h4M217 151h4M227 151h4M240 151h14M261 151h4M293 151h4M309 151h4M325 151h4M335 151h14M5 153h14M30 153h4M38 153h4M50 153h4M66 153h4M77 153h4M102 153h4M110 153h4M129 153h4M147 153h4M153 153h4M159 153h4M169 153h4M179 153h9M218 153h4M226 153h4M240 153h14M261 153h4M293 153h4M309 153h4M325 153h4M335 153h11M5 155h4M30 155h4M38 155h4M50 155h4M66 155h4M77 155h4M102 155h4M110 155h4M129 155h4M147 155h4M154 155h4M159 155h4M169 155h4M179 155h9M218 155h4M226 155h4M240 155h4M261 155h4M293 155h4M309 155h4M325 155h4M335 155h4M343 155h4M5 157h4M31 157h4M37 157h4M50 157h5M65 157h5M77 157h4M103 157h4M109 157h4M129 157h4M147 157h4M155 157h8M169 157h5M184 157h4M219 157h4M225 157h4M240 157h4M261 157h5M293 157h4M309 157h5M324 157h5M335 157h4M344 157h4M5 159h4M32 159h8M51 159h4M65 159h4M77 159h4M104 159h8M129 159h4M147 159h4M156 159h7M170 159h4M184 159h4M220 159h8M240 159h4M262 159h4M293 159h4M310 159h4M324 159h4M335 159h4M345 159h4M5 161h4M32 161h8M52 161h5M63 161h5M77 161h4M104 161h8M129 161h4M147 161h4M157 161h6M171 161h5M184 161h4M220 161h8M240 161h4M263 161h5M275 161h5M293 161h4M311 161h5M322 161h5M335 161h4M347 161h4M5 163h15M33 163h6M53 163h14M77 163h15M105 163h6M125 163h12M147 163h4M157 163h6M173 163h15M221 163h6M240 163h15M265 163h13M293 163h4M312 163h14M335 163h4M348 163h4M5 165h15M34 165h5M56 165h8M77 165h15M106 165h5M125 165h12M147 165h4M158 165h5M176 165h8M222 165h5M240 165h15M268 165h8M293 165h4M315 165h8M335 165h4M349 165h4M5 171h15M37 171h5M49 171h4M68 171h4M86 171h4M106 171h12M137 171h12M174 171h8M203 171h5M215 171h4M235 171h6M247 171h6M270 171h15M303 171h5M315 171h4M334 171h20M5 173h15M37 173h6M49 173h4M69 173h4M85 173h4M106 173h12M137 173h15M171 173h14M203 173h6M215 173h4M235 173h6M247 173h6M270 173h15M303 173h6M315 173h4M334 173h20M5 175h4M37 175h6M49 175h4M69 175h4M85 175h4M110 175h4M137 175h4M149 175h5M170 175h5M181 175h5M203 175h6M215 175h4M235 175h7M246 175h7M270 175h4M303 175h6M315 175h4M342 175h4M5 177h4M37 177h7M49 177h4M70 177h4M84 177h4M110 177h4M137 177h4M150 177h4M169 177h4M183 177h4M203 177h7M215 177h4M235 177h8M245 177h8M270 177h4M303 177h7M315 177h4M342 177h4M5 179h4M37 179h8M49 179h4M71 179h4M83 179h4M110 179h4M137 179h4M150 179h4M168 179h5M183 179h5M203 179h8M215 179h4M235 179h8M245 179h8M270 179h4M303 179h8M315 179h4M342 179h4M5 181h4M37 181h4M42 181h4M49 181h4M71 181h4M83 181h4M110 181h4M137 181h4M149 181h4M168 181h4M184 181h4M203 181h4M208 181h4M215 181h4M235 181h4M240 181h8M249 181h4M270 181h4M303 181h4M308 181h4M315 181h4M342 181h4M5 183h14M37 183h4M43 183h4M49 183h4M72 183h4M82 183h4M110 183h4M137 183h14M168 183h4M184 183h4M203 183h4M209 183h4M215 183h4M235 183h4M241 183h6M249 183h4M270 183h14M303 183h4M309 183h4M315 183h4M342 183h4M5 185h14M37 185h4M43 185h4M49 185h4M73 185h4M81 185h4M110 185h4M137 185h11M168 185h4M184 185h4M203 185h4M209 185h4M215 185h4M235 185h4M241 185h6M249 185h4M270 185h14M303 185h4M309 185h4M315 185h4M342 185h4M5 187h4M37 187h4M44 187h4M49 187h4M73 187h4M81 187h4M110 187h4M137 187h4M145 187h4M168 187h4M184 187h4M203 187h4M210 187h4M215 187h4M235 187h4M249 187h4M270 187h4M303 187h4M310 187h4M315 187h4M342 187h4M5 189h4M37 189h4M45 189h8M74 189h4M80 189h4M110 189h4M137 189h4M146 189h4M168 189h5M183 189h5M203 189h4M211 189h8M235 189h4M249 189h4M270 189h4M303 189h4M311 189h8M342 189h4M5 191h4M37 191h4M46 191h7M75 191h8M110 191h4M137 191h4M147 191h4M169 191h4M183 191h4M203 191h4M212 191h7M235 191h4M249 191h4M270 191h4M303 191h4M312 191h7M342 191h4M5 193h4M37 193h4M47 193h6M75 193h8M110 193h4M137 193h4M149 193h4M170 193h5M181 193h5M203 193h4M213 193h6M235 193h4M249 193h4M270 193h4M303 193h4M313 193h6M342 193h4M5 195h15M37 195h4M47 195h6M76 195h6M106 195h12M137 195h4M150 195h4M171 195h14M203 195h4M213 195h6M235 195h4M249 195h4M270 195h15M303 195h4M313 195h6M342 195h4M5 197h15M37 197h4M48 197h5M77 197h5M106 197h12M137 197h4M151 197h4M174 197h8M203 197h4M214 197h5M235 197h4M249 197h4M270 197h15M303 197h4M314 197h5M342 197h4M5 202h349M5 203h1M353 203h1M5 204h1M353 204h1M5 205h1M353 205h1M5 206h1M19 206h5M36 206h2M60 206h2M92 206h5M114 206h2M123 206h2M178 206h4M188 206h2M247 206h9M284 206h5M353 206h1M5 207h1M19 207h2M24 207h2M36 207h2M60 207h2M70 207h2M95 207h2M114 207h2M123 207h2M177 207h2M182 207h1M188 207h2M247 207h2M287 207h2M353 207h1M5 208h1M19 208h2M25 208h2M70 208h2M95 208h2M114 208h2M123 208h2M176 208h2M188 208h2M247 208h2M287 208h2M353 208h1M5 209h1M19 209h2M25 209h2M70 209h2M95 209h2M114 209h2M123 209h2M176 209h2M188 209h2M247 209h2M287 209h2M353 209h1M5 210h1M19 210h2M26 210h2M33 210h5M45 210h8M57 210h5M68 210h7M81 210h6M95 210h2M114 210h2M119 210h1M123 210h2M129 210h6M138 210h2M147 210h2M154 210h4M176 210h2M188 210h2M192 210h3M201 210h6M212 210h2M215 210h3M226 210h4M247 210h2M260 210h2M266 210h2M272 210h2M275 210h3M287 210h2M298 210h4M309 210h2M313 210h2M322 210h4M333 210h2M337 210h2M353 210h1M5 211h1M19 211h2M26 211h2M36 211h2M44 211h2M49 211h2M60 211h2M70 211h2M80 211h1M85 211h3M95 211h2M114 211h2M119 211h1M123 211h1M128 211h1M133 211h3M139 211h2M146 211h2M153 211h2M157 211h2M177 211h3M188 211h2M191 211h1M194 211h2M200 211h1M205 211h3M212 211h3M217 211h2M225 211h2M229 211h2M247 211h2M261 211h2M265 211h2M272 211h3M277 211h2M287 211h2M297 211h2M301 211h2M309 211h2M312 211h1M315 211h1M321 211h2M325 211h2M333 211h2M336 211h1M339 211h1M353 211h1M5 212h1M19 212h2M26 212h2M36 212h2M44 212h2M49 212h2M60 212h2M70 212h2M86 212h2M95 212h2M115 212h2M118 212h1M120 212h1M122 212h2M134 212h2M139 212h2M146 212h2M152 212h2M158 212h2M178 212h4M188 212h3M194 212h2M206 212h2M212 212h2M218 212h2M224 212h2M230 212h2M247 212h9M261 212h6M272 212h2M278 212h2M287 212h2M296 212h2M302 212h2M309 212h3M320 212h2M326 212h2M333 212h3M353 212h1M5 213h1M19 213h2M26 213h2M36 213h2M44 213h2M49 213h2M60 213h2M70 213h2M86 213h2M95 213h2M115 213h2M118 213h1M120 213h1M122 213h2M134 213h2M140 213h2M145 213h2M152 213h2M158 213h2M180 213h3M188 213h2M194 213h2M206 213h2M212 213h2M218 213h2M224 213h2M230 213h2M247 213h2M262 213h4M272 213h2M278 213h2M287 213h2M296 213h2M302 213h2M309 213h2M320 213h2M326 213h2M333 213h2M353 213h1M5 214h1M19 214h2M26 214h2M36 214h2M45 214h2M48 214h2M60 214h2M70 214h2M82 214h6M95 214h2M115 214h2M118 214h1M120 214h1M122 214h2M130 214h6M140 214h2M145 214h2M152 214h8M182 214h2M188 214h2M194 214h2M202 214h6M212 214h2M218 214h2M224 214h8M247 214h2M263 214h2M272 214h2M278 214h2M287 214h2M296 214h2M302 214h2M309 214h2M320 214h8M333 214h2M353 214h1M5 215h1M19 215h2M26 215h2M36 215h2M46 215h3M60 215h2M70 215h2M81 215h2M86 215h2M95 215h2M115 215h3M121 215h3M129 215h2M134 215h2M141 215h2M144 215h2M152 215h2M182 215h2M188 215h2M194 215h2M201 215h2M206 215h2M212 215h2M218 215h2M224 215h2M247 215h2M263 215h2M272 215h2M278 215h2M287 215h2M296 215h2M302 215h2M309 215h2M320 215h2M333 215h2M353 215h1M5 216h1M19 216h2M25 216h2M36 216h2M45 216h1M60 216h2M70 216h2M80 216h2M86 216h2M95 216h2M115 216h3M121 216h3M128 216h2M134 216h2M141 216h2M144 216h2M152 216h2M182 216h2M188 216h2M194 216h2M200 216h2M206 216h2M212 216h2M218 216h2M224 216h2M247 216h2M262 216h4M272 216h2M278 216h2M287 216h2M296 216h2M302 216h2M309 216h2M320 216h2M333 216h2M353 216h1M5 217h1M19 217h2M25 217h2M36 217h2M44 217h2M60 217h2M70 217h2M80 217h2M86 217h2M95 217h2M115 217h3M121 217h3M128 217h2M134 217h2M142 217h3M153 217h2M182 217h2M188 217h2M194 217h2M200 217h2M206 217h2M212 217h2M218 217h2M225 217h2M247 217h2M261 217h6M272 217h2M278 217h2M287 217h2M296 217h2M302 217h2M309 217h2M321 217h2M333 217h2M353 217h1M5 218h1M19 218h2M24 218h2M36 218h2M44 218h8M60 218h2M70 218h2M75 218h1M80 218h2M85 218h3M95 218h2M116 218h1M122 218h1M128 218h2M133 218h3M142 218h3M153 218h2M159 218h1M176 218h1M181 218h2M188 218h2M194 218h2M200 218h2M205 218h3M212 218h3M217 218h2M225 218h2M231 218h1M247 218h2M261 218h2M265 218h2M272 218h3M277 218h2M287 218h2M297 218h2M301 218h2M309 218h2M321 218h2M327 218h1M333 218h2M353 218h1M5 219h1M19 219h5M36 219h2M45 219h8M60 219h2M71 219h4M81 219h4M86 219h2M95 219h5M116 219h1M122 219h1M129 219h4M134 219h2M143 219h1M155 219h4M177 219h5M188 219h2M194 219h2M201 219h4M206 219h2M212 219h2M215 219h3M227 219h4M247 219h9M260 219h2M266 219h2M272 219h2M275 219h3M287 219h5M298 219h4M309 219h2M323 219h4M333 219h2M353 219h1M5 220h1M45 220h1M51 220h2M212 220h2M272 220h2M353 220h1M5 221h1M44 221h2M51 221h2M212 221h2M272 221h2M353 221h1M5 222h1M44 222h2M50 222h2M212 222h2M272 222h2M353 222h1M5 223h37M45 223h6M54 223h156M212 223h2M216 223h54M272 223h2M276 223h78" />
</svg>