<svg xmlns="http://www.w3.org/2000/svg" viewBox="0 -0.5 300 199" shape-rendering="crispEdges">
<metadata>Made with Pixels to Svg https://codepen.io/shshaw/pen/XbxvNj</metadata>
<path stroke="#ffffff" d="M0 0h3M13 0h6M23 0h2M39 0h2M45 0h2M51 0h3M55 0h2M58 0h5M67 0h3M73 0h6M86 0h2M96 0h2M99 0h2M105 0h2M109 0h1M112 0h1M115 0h2M118 0h2M121 0h2M131 0h2M140 0h2M146 0h3M150 0h2M156 0h2M162 0h2M166 0h2M181 0h2M191 0h2M203 0h3M222 0h6M232 0h2M242 0h2M254 0h3M261 0h2M264 0h2M267 0h15M283 0h6M1 1h2M13 1h6M23 1h2M39 1h2M45 1h2M51 1h3M55 1h2M58 1h2M61 1h2M67 1h3M73 1h6M86 1h3M96 1h2M99 1h2M105 1h2M109 1h2M112 1h2M115 1h2M118 1h2M121 1h2M130 1h3M140 1h2M146 1h6M156 1h2M162 1h2M166 1h2M181 1h3M191 1h2M203 1h3M222 1h3M226 1h2M232 1h2M242 1h2M254 1h3M261 1h2M264 1h2M267 1h2M270 1h3M274 1h2M277 1h2M280 1h2M283 1h2M287 1h2M74 2h1M77 2h1M86 2h1M96 2h1M109 2h1M122 2h1M131 2h2M162 2h2M191 2h2M1 3h2M10 3h2M17 3h1M20 3h2M23 3h1M36 3h2M65 3h1M77 3h1M81 3h1M169 3h1M172 3h2M178 3h1M186 3h1M200 3h1M219 3h2M229 3h2M233 3h1M238 3h3M251 3h2M261 3h2M264 3h2M270 3h2M274 3h1M277 3h2M281 3h1M283 3h2M287 3h2M296 3h3M1 4h2M10 4h3M17 4h8M36 4h2M51 4h3M55 4h2M61 4h2M64 4h2M77 4h2M80 4h2M86 4h3M99 4h2M115 4h2M118 4h2M127 4h3M143 4h3M149 4h3M153 4h2M156 4h2M165 4h6M172 4h2M178 4h2M184 4h3M200 4h3M219 4h3M226 4h2M229 4h2M232 4h3M238 4h3M251 4h2M261 4h2M264 4h2M270 4h3M274 4h2M277 4h2M280 4h2M283 4h2M287 4h2M296 4h3M1 5h1M10 5h1M17 5h1M36 5h1M55 5h2M61 5h1M65 5h1M77 5h1M80 5h2M86 5h2M99 5h2M119 5h1M127 5h3M143 5h2M150 5h1M153 5h1M156 5h2M166 5h1M169 5h1M178 5h2M184 5h3M200 5h2M219 5h2M226 5h1M230 5h1M233 5h1M239 5h1M251 5h1M1 6h1M4 6h2M40 6h1M242 6h2M255 6h2M258 6h1M270 6h3M277 6h2M290 6h2M1 7h5M16 7h3M23 7h2M39 7h2M45 7h2M48 7h6M55 7h2M61 7h2M77 7h2M86 7h3M96 7h2M99 7h2M115 7h2M118 7h2M127 7h3M134 7h2M149 7h3M156 7h2M162 7h2M165 7h3M169 7h2M172 7h2M175 7h2M203 7h3M226 7h2M232 7h2M241 7h3M254 7h9M264 7h2M270 7h3M277 7h2M283 7h3M289 7h3M1 8h1M4 8h2M23 8h2M45 8h2M49 8h1M52 8h1M55 8h2M61 8h2M77 8h2M86 8h3M96 8h2M99 8h2M115 8h2M118 8h2M128 8h2M134 8h2M150 8h2M156 8h2M162 8h2M166 8h1M169 8h1M172 8h2M175 8h2M204 8h2M227 8h1M232 8h2M242 8h2M254 8h1M299 9h1M1 10h2M10 10h2M13 10h2M17 10h2M23 10h2M36 10h2M39 10h2M45 10h2M48 10h2M52 10h1M55 10h2M58 10h2M61 10h2M64 10h2M70 10h3M74 10h2M80 10h2M86 10h3M93 10h2M99 10h2M108 10h3M118 10h2M124 10h2M128 10h2M134 10h2M143 10h2M147 10h1M150 10h2M156 10h2M165 10h2M169 10h1M172 10h2M178 10h2M184 10h3M200 10h2M204 10h2M213 10h2M219 10h2M223 10h2M226 10h2M232 10h2M238 10h3M242 10h2M254 10h2M258 10h2M261 10h2M264 10h2M267 10h2M271 10h2M277 10h2M283 10h3M290 10h2M299 10h1M1 11h1M10 11h2M14 11h1M17 11h1M23 11h2M36 11h1M39 11h2M45 11h2M48 11h2M52 11h1M55 11h2M58 11h2M61 11h2M65 11h1M71 11h1M74 11h2M80 11h2M86 11h2M93 11h2M99 11h2M108 11h3M118 11h2M124 11h2M128 11h2M134 11h2M143 11h2M147 11h1M150 11h2M156 11h2M165 11h2M169 11h2M172 11h2M178 11h2M184 11h3M200 11h2M204 11h2M213 11h2M219 11h2M223 11h1M226 11h2M232 11h2M238 11h2M242 11h2M254 11h2M258 11h2M261 11h2M264 11h2M267 11h2M271 11h2M277 11h2M290 11h2M299 11h1M1 13h2M20 13h5M29 13h3M42 13h2M64 13h2M67 13h3M74 13h2M77 13h2M83 13h2M90 13h2M96 13h2M102 13h2M105 13h3M115 13h2M130 13h3M140 13h2M143 13h3M153 13h2M156 13h2M162 13h2M166 13h2M175 13h2M178 13h2M181 13h2M191 13h2M194 13h2M207 13h2M213 13h2M229 13h2M232 13h2M245 13h2M251 13h3M273 13h3M280 13h2M283 13h2M286 13h3M1 14h2M20 14h2M23 14h2M29 14h2M42 14h2M64 14h2M68 14h2M74 14h2M77 14h2M83 14h2M89 14h3M96 14h2M102 14h2M105 14h3M115 14h2M131 14h2M140 14h2M143 14h3M153 14h2M156 14h2M162 14h2M166 14h2M175 14h2M178 14h2M181 14h3M191 14h2M194 14h2M206 14h3M213 14h2M229 14h2M232 14h2M245 14h2M251 14h3M273 14h3M280 14h2M283 14h2M286 14h3M7 16h2M17 16h2M23 16h2M26 16h2M29 16h2M32 16h3M39 16h2M55 16h2M67 16h3M74 16h1M77 16h2M86 16h3M112 16h2M115 16h2M121 16h2M124 16h2M128 16h1M134 16h2M137 16h2M143 16h1M159 16h2M172 16h2M187 16h3M197 16h2M203 16h3M210 16h2M213 16h2M216 16h2M226 16h2M232 16h2M235 16h2M241 16h3M248 16h2M264 16h2M289 16h6M296 16h2M299 16h1M7 17h2M17 17h2M23 17h2M26 17h2M29 17h2M33 17h2M39 17h2M55 17h2M67 17h3M74 17h2M77 17h2M86 17h3M112 17h2M115 17h2M121 17h2M124 17h2M128 17h2M131 17h2M134 17h2M137 17h2M143 17h2M159 17h2M172 17h2M187 17h3M197 17h2M203 17h3M210 17h2M213 17h2M216 17h2M226 17h2M232 17h2M235 17h3M241 17h3M248 17h2M264 17h2M289 17h3M293 17h2M296 17h2M299 17h1M0 19h3M7 19h2M10 19h5M17 19h1M23 19h1M27 19h1M30 19h1M33 19h1M39 19h2M45 19h2M52 19h1M58 19h2M61 19h2M102 19h2M118 19h2M147 19h1M156 19h2M163 19h1M166 19h2M175 19h2M181 19h2M194 19h2M204 19h1M219 19h2M223 19h1M226 19h2M232 19h1M242 19h2M248 19h2M254 19h3M261 19h2M264 19h2M267 19h2M270 19h3M277 19h2M283 19h3M289 19h2M293 19h2M296 19h2M299 19h1M0 20h3M7 20h2M10 20h2M13 20h2M17 20h2M23 20h2M26 20h2M29 20h2M32 20h3M39 20h2M45 20h2M52 20h1M55 20h2M58 20h2M61 20h2M67 20h3M77 20h2M86 20h3M102 20h2M115 20h2M118 20h2M121 20h2M124 20h3M130 20h3M137 20h2M146 20h2M150 20h2M156 20h2M159 20h2M162 20h2M166 20h2M172 20h2M175 20h2M181 20h3M188 20h2M194 20h2M197 20h2M203 20h3M210 20h2M213 20h2M216 20h2M219 20h2M223 20h2M226 20h2M232 20h2M235 20h2M241 20h3M248 20h2M254 20h3M261 20h2M264 20h2M267 20h2M271 20h2M277 20h2M283 20h2M289 20h3M293 20h2M296 20h2M299 20h1M102 21h2M137 21h1M156 21h1M163 21h1M176 21h1M181 21h2M4 22h2M20 22h1M49 22h1M90 22h1M97 22h1M239 22h1M245 22h2M251 22h2M258 22h2M271 22h1M274 22h1M280 22h2M287 22h2M293 22h2M297 22h1M1 23h2M4 23h2M7 23h2M10 23h2M13 23h2M17 23h2M20 23h2M23 23h2M26 23h2M32 23h2M36 23h2M39 23h2M42 23h2M45 23h2M48 23h2M52 23h1M55 23h2M58 23h2M61 23h2M67 23h3M74 23h2M77 23h2M80 23h2M83 23h2M87 23h1M90 23h2M96 23h2M115 23h2M118 23h2M121 23h2M125 23h2M131 23h2M140 23h2M146 23h3M153 23h2M159 23h2M165 23h2M169 23h2M172 23h2M191 23h2M194 23h2M197 23h2M200 23h2M203 23h2M207 23h2M210 23h2M213 23h2M216 23h2M219 23h2M223 23h1M226 23h2M229 23h2M232 23h2M235 23h2M238 23h2M242 23h2M245 23h2M248 23h2M251 23h2M254 23h2M258 23h2M261 23h2M264 23h2M267 23h2M271 23h1M274 23h2M277 23h2M280 23h2M283 23h2M287 23h2M293 23h2M296 23h2M299 23h1M36 24h1M62 24h1M68 24h1M84 24h1M90 24h1M96 24h2M115 24h2M118 24h1M125 24h1M131 24h2M140 24h1M146 24h3M191 24h2M194 24h2M197 24h2M210 24h2M213 24h2M216 24h2M223 24h1M229 24h2M232 24h2M236 24h1M265 24h1M30 25h1M290 25h1M4 26h2M13 26h3M20 26h2M26 26h2M29 26h6M39 26h2M42 26h9M55 26h2M58 26h2M74 26h2M86 26h3M93 26h2M99 26h2M102 26h2M105 26h3M109 26h2M121 26h2M134 26h2M140 26h2M153 26h2M159 26h2M162 26h5M169 26h2M172 26h2M184 26h3M203 26h3M219 26h3M225 26h3M238 26h3M245 26h2M251 26h3M257 26h3M267 26h9M289 26h3M293 26h2M296 26h2M14 27h1M20 27h1M26 27h2M29 27h6M39 27h2M42 27h2M46 27h1M49 27h2M55 27h1M58 27h2M74 27h2M86 27h3M93 27h2M99 27h2M103 27h1M105 27h2M109 27h2M121 27h2M134 27h2M140 27h2M153 27h2M159 27h2M163 27h1M166 27h1M169 27h1M172 27h2M184 27h2M203 27h3M219 27h3M226 27h2M238 27h3M245 27h2M251 27h2M259 27h1M267 27h2M271 27h1M274 27h2M290 27h1M296 27h2M0 29h9M20 29h2M45 29h6M55 29h2M58 29h2M61 29h2M74 29h2M86 29h3M93 29h2M99 29h2M102 29h2M108 29h3M115 29h2M134 29h2M149 29h3M159 29h2M162 29h2M166 29h2M169 29h2M172 29h2M184 29h2M188 29h2M203 29h3M207 29h2M229 29h2M232 29h2M238 29h3M245 29h2M251 29h2M257 29h3M270 29h3M277 29h2M280 29h2M293 29h2M299 29h1M1 30h2M4 30h1M7 30h2M20 30h2M45 30h2M49 30h2M55 30h2M58 30h2M61 30h2M74 30h2M86 30h3M93 30h2M99 30h2M102 30h2M108 30h3M115 30h2M134 30h2M149 30h3M159 30h2M162 30h2M166 30h1M169 30h2M172 30h2M184 30h2M188 30h2M203 30h6M229 30h2M232 30h2M238 30h3M245 30h2M251 30h2M257 30h3M270 30h3M277 30h2M280 30h2M294 30h1M299 30h1M4 32h2M10 32h2M17 32h2M26 32h3M36 32h11M48 32h3M55 32h2M58 32h2M61 32h6M70 32h3M86 32h3M93 32h2M99 32h2M102 32h2M108 32h3M118 32h2M121 32h2M134 32h2M137 32h2M140 32h2M162 32h2M168 32h3M175 32h2M194 32h2M213 32h2M219 32h3M225 32h3M238 32h3M245 32h2M251 32h2M257 32h3M267 32h2M270 32h3M280 32h2M283 32h3M290 32h5M4 33h2M10 33h2M17 33h2M26 33h2M36 33h2M39 33h2M42 33h2M45 33h2M48 33h3M55 33h2M58 33h2M61 33h2M64 33h2M70 33h3M86 33h3M93 33h2M99 33h2M102 33h2M108 33h3M118 33h2M121 33h2M134 33h2M137 33h2M140 33h2M162 33h3M168 33h3M175 33h2M194 33h2M213 33h2M219 33h3M225 33h3M238 33h3M245 33h2M251 33h2M257 33h3M267 33h2M270 33h3M280 33h5M290 33h2M293 33h2M4 35h8M17 35h2M32 35h3M36 35h2M42 35h2M45 35h2M49 35h2M58 35h2M61 35h2M67 35h3M71 35h2M80 35h2M86 35h3M93 35h2M99 35h2M112 35h2M115 35h2M118 35h1M122 35h1M134 35h1M140 35h2M149 35h3M153 35h2M156 35h2M162 35h2M168 35h3M175 35h2M194 35h2M213 35h2M226 35h2M232 35h2M238 35h3M245 35h2M251 35h2M257 35h3M264 35h2M270 35h3M293 35h2M299 35h1M4 36h2M7 36h2M10 36h2M17 36h2M33 36h2M36 36h2M42 36h2M45 36h2M48 36h3M58 36h2M61 36h2M67 36h3M71 36h2M80 36h2M86 36h3M93 36h2M99 36h2M111 36h3M115 36h2M118 36h2M121 36h2M134 36h2M140 36h2M150 36h2M153 36h2M156 36h2M162 36h2M168 36h3M175 36h2M194 36h2M213 36h2M226 36h2M232 36h2M238 36h3M245 36h2M251 36h2M257 36h3M264 36h2M270 36h3M293 36h2M299 36h1M1 38h2M4 38h2M7 38h2M23 38h5M29 38h2M39 38h2M42 38h1M46 38h1M52 38h5M58 38h2M64 38h2M83 38h2M90 38h2M96 38h2M109 38h2M124 38h2M134 38h1M143 38h2M159 38h2M165 38h2M172 38h2M184 38h2M188 38h2M203 38h2M207 38h2M222 38h3M229 38h2M235 38h2M241 38h3M245 38h1M248 38h2M254 38h3M261 38h2M267 38h2M280 38h2M289 38h3M293 38h2M1 39h8M23 39h2M26 39h2M29 39h3M39 39h5M45 39h3M52 39h2M55 39h5M64 39h2M67 39h3M83 39h2M89 39h3M93 39h2M96 39h2M108 39h3M115 39h2M124 39h3M134 39h2M143 39h3M150 39h2M153 39h2M159 39h2M165 39h2M169 39h2M172 39h2M184 39h2M188 39h2M203 39h2M207 39h2M222 39h3M229 39h2M235 39h3M241 39h3M245 39h2M248 39h2M254 39h3M261 39h2M267 39h2M280 39h2M290 39h5M56 40h1M83 40h1M90 40h1M93 40h1M115 40h2M134 40h2M143 40h1M153 40h2M159 40h2M165 40h2M169 40h2M172 40h2M185 40h1M204 40h1M10 41h2M17 41h5M36 41h2M71 41h2M86 41h2M113 41h1M122 41h1M140 41h2M147 41h1M175 41h2M182 41h1M200 41h2M232 41h2M251 41h2M257 41h3M283 41h5M296 41h4M10 42h2M17 42h8M36 42h2M42 42h2M51 42h3M70 42h3M86 42h3M105 42h2M109 42h2M112 42h2M121 42h2M127 42h3M140 42h2M146 42h3M150 42h2M175 42h2M181 42h2M200 42h3M232 42h2M244 42h3M251 42h2M257 42h3M283 42h6M296 42h4M36 43h2M42 43h1M71 43h2M105 43h1M121 43h2M127 43h2M140 43h2M146 43h2M150 43h2M175 43h2M181 43h2M200 43h2M232 43h2M245 43h2M251 43h2M4 44h2M8 44h1M194 44h2M287 44h1M293 44h2M4 45h9M17 45h2M20 45h2M23 45h2M45 45h2M52 45h2M58 45h5M77 45h2M86 45h3M93 45h2M99 45h2M105 45h3M109 45h2M112 45h2M115 45h2M118 45h2M121 45h3M127 45h3M131 45h2M134 45h2M140 45h2M146 45h3M153 45h2M162 45h2M168 45h3M175 45h2M187 45h3M194 45h2M206 45h3M213 45h2M216 45h2M238 45h3M257 45h3M286 45h3M293 45h7M4 46h2M17 46h1M23 46h2M45 46h2M52 46h2M58 46h1M77 46h2M86 46h3M93 46h2M99 46h2M105 46h2M109 46h1M112 46h2M115 46h2M118 46h2M122 46h1M128 46h1M131 46h1M134 46h2M140 46h2M147 46h2M153 46h2M162 46h2M169 46h2M175 46h2M188 46h2M194 46h2M207 46h2M213 46h2M216 46h2M258 46h1M296 46h2M1 48h2M7 48h2M10 48h3M20 48h2M26 48h2M48 48h3M55 48h2M58 48h2M61 48h2M64 48h2M68 48h2M77 48h2M80 48h2M83 48h2M90 48h2M96 48h2M105 48h2M109 48h2M112 48h2M115 48h2M121 48h2M124 48h2M128 48h1M131 48h2M134 48h2M137 48h2M140 48h2M143 48h2M147 48h1M150 48h2M153 48h2M159 48h2M163 48h1M166 48h2M169 48h1M172 48h2M184 48h2M188 48h2M203 48h2M207 48h2M216 48h2M222 48h3M229 48h2M232 48h2M235 48h2M238 48h6M245 48h2M248 48h2M251 48h2M254 48h2M258 48h2M261 48h2M267 48h2M280 48h2M286 48h6M293 48h2M299 48h1M7 49h2M20 49h2M26 49h2M48 49h2M55 49h2M58 49h2M61 49h2M64 49h2M68 49h2M77 49h2M81 49h1M84 49h1M90 49h2M96 49h2M105 49h2M109 49h1M112 49h1M115 49h2M121 49h2M125 49h1M128 49h2M131 49h2M134 49h2M137 49h2M140 49h2M144 49h1M147 49h1M150 49h2M153 49h2M159 49h2M162 49h2M166 49h1M169 49h1M172 49h2M184 49h2M188 49h2M203 49h2M207 49h2M216 49h2M222 49h3M229 49h2M232 49h2M235 49h2M239 49h1M242 49h1M245 49h1M248 49h2M251 49h2M254 49h3M258 49h1M261 49h2M267 49h2M280 49h2M286 49h2M290 49h1M293 49h2M0 51h6M10 51h3M17 51h2M23 51h2M29 51h3M36 51h2M48 51h3M52 51h2M58 51h2M80 51h2M83 51h2M90 51h2M93 51h2M99 51h2M102 51h5M109 51h1M112 51h2M115 51h2M134 51h2M146 51h3M159 51h2M178 51h2M184 51h2M188 51h2M191 51h2M194 51h2M197 51h2M206 51h3M210 51h2M213 51h2M216 51h2M238 51h2M242 51h1M245 51h2M248 51h2M257 51h3M264 51h2M270 51h3M289 51h3M296 51h4M1 52h1M4 52h2M10 52h2M17 52h2M23 52h2M29 52h3M36 52h2M48 52h3M52 52h2M58 52h2M80 52h2M83 52h2M89 52h3M93 52h2M99 52h2M102 52h2M105 52h2M109 52h2M112 52h2M115 52h2M134 52h2M146 52h3M159 52h2M178 52h2M184 52h2M188 52h2M191 52h2M194 52h2M197 52h2M206 52h3M210 52h2M213 52h2M216 52h2M238 52h2M242 52h1M245 52h2M248 52h2M257 52h3M264 52h2M270 52h3M289 52h3M296 52h4M1 54h2M4 54h2M10 54h2M17 54h2M23 54h2M39 54h2M42 54h2M52 54h2M61 54h2M67 54h3M71 54h2M86 54h3M93 54h2M96 54h2M99 54h2M103 54h1M106 54h1M109 54h2M112 54h2M115 54h2M121 54h2M131 54h2M143 54h3M156 54h2M159 54h2M175 54h2M181 54h2M185 54h1M188 54h1M191 54h1M194 54h2M206 54h2M210 54h2M213 54h2M232 54h2M238 54h3M245 54h2M254 54h2M258 54h2M261 54h5M267 54h2M270 54h3M277 54h2M280 54h2M1 55h2M4 55h2M10 55h3M17 55h2M23 55h2M39 55h2M42 55h2M52 55h2M61 55h2M67 55h6M86 55h3M93 55h2M96 55h2M99 55h2M102 55h5M109 55h2M112 55h2M115 55h2M121 55h2M130 55h3M143 55h3M156 55h2M159 55h2M175 55h2M181 55h2M184 55h2M188 55h2M191 55h2M194 55h2M206 55h3M210 55h2M213 55h2M232 55h2M238 55h3M245 55h2M254 55h2M258 55h2M261 55h2M264 55h2M267 55h2M270 55h3M277 55h2M280 55h2M1 57h2M4 57h2M10 57h3M17 57h2M23 57h2M29 57h3M36 57h2M52 57h2M93 57h2M99 57h2M105 57h2M118 57h2M134 57h2M146 57h3M159 57h2M165 57h3M194 57h1M197 57h2M214 57h1M216 57h2M219 57h3M229 57h2M238 57h3M251 57h2M258 57h2M264 57h2M270 57h3M1 58h5M10 58h3M17 58h2M23 58h2M29 58h3M36 58h2M52 58h2M93 58h2M99 58h2M105 58h3M112 58h2M118 58h2M134 58h2M146 58h3M159 58h2M165 58h3M194 58h2M197 58h2M210 58h2M213 58h2M216 58h2M219 58h3M229 58h2M238 58h3M251 58h2M257 58h3M264 58h2M270 58h3M194 59h1M217 59h1M229 59h1M4 60h2M11 60h1M23 60h2M36 60h2M42 60h2M48 60h2M52 60h1M67 60h2M71 60h2M86 60h2M90 60h1M122 60h1M131 60h1M143 60h2M175 60h2M184 60h3M191 60h2M226 60h2M232 60h2M248 60h2M257 60h1M270 60h1M277 60h2M280 60h2M299 60h1M4 61h2M10 61h3M17 61h2M23 61h2M36 61h2M42 61h2M48 61h3M52 61h2M67 61h3M71 61h2M86 61h2M90 61h2M93 61h2M99 61h2M105 61h3M112 61h2M118 61h2M121 61h2M131 61h2M134 61h2M143 61h2M147 61h2M159 61h2M165 61h3M175 61h2M184 61h3M191 61h2M197 61h2M210 61h2M225 61h3M232 61h2M238 61h3M248 61h2M251 61h2M257 61h3M264 61h2M270 61h3M276 61h3M280 61h2M299 61h1M36 62h1M42 62h2M71 62h1M90 62h1M93 62h1M106 62h1M118 62h2M122 62h1M131 62h2M134 62h2M143 62h2M147 62h1M165 62h3M175 62h2M191 62h2M197 62h2M226 62h2M232 62h2M238 62h2M248 62h2M251 62h1M258 62h1M271 62h1M277 62h2M281 62h1M299 62h1M1 63h2M7 63h2M14 63h1M20 63h2M33 63h1M39 63h2M59 63h1M61 63h2M74 63h2M103 63h1M169 63h1M222 63h1M293 63h2M296 63h2M1 64h2M7 64h2M13 64h3M17 64h5M32 64h3M39 64h2M48 64h6M58 64h5M74 64h2M83 64h2M86 64h3M96 64h2M99 64h2M102 64h2M108 64h3M112 64h2M115 64h2M124 64h3M137 64h2M150 64h2M156 64h2M159 64h2M168 64h3M184 64h2M187 64h3M194 64h2M200 64h3M210 64h2M222 64h3M241 64h3M254 64h3M261 64h2M264 64h2M267 64h2M283 64h2M292 64h6M7 65h2M14 65h1M17 65h2M20 65h2M33 65h2M39 65h2M48 65h3M52 65h2M58 65h2M61 65h2M74 65h1M83 65h2M87 65h2M96 65h2M99 65h2M102 65h2M108 65h2M112 65h2M115 65h2M125 65h1M137 65h2M150 65h2M156 65h2M159 65h2M169 65h2M184 65h2M187 65h3M194 65h2M200 65h2M210 65h2M223 65h2M241 65h3M254 65h2M261 65h2M264 65h2M267 65h2M283 65h1M293 65h2M296 65h2M0 67h3M10 67h3M42 67h2M55 67h2M64 67h2M68 67h2M71 67h2M74 67h2M77 67h2M86 67h3M118 67h2M121 67h2M124 67h2M128 67h2M134 67h2M140 67h2M146 67h3M153 67h2M162 67h2M166 67h1M169 67h2M172 67h2M197 67h2M203 67h2M207 67h2M219 67h2M222 67h3M229 67h2M235 67h2M244 67h3M251 67h2M270 67h2M274 67h5M280 67h2M283 67h2M286 67h3M1 68h1M42 68h2M55 68h2M64 68h2M68 68h2M71 68h1M74 68h2M77 68h2M86 68h3M118 68h2M121 68h2M125 68h1M128 68h2M134 68h2M140 68h2M146 68h3M153 68h2M162 68h2M166 68h1M169 68h1M172 68h2M197 68h2M203 68h2M207 68h2M219 68h2M222 68h3M229 68h2M235 68h2M245 68h2M251 68h2M270 68h2M274 68h5M280 68h2M283 68h2M287 68h1M1 70h5M10 70h2M17 70h2M23 70h2M26 70h2M48 70h3M52 70h2M61 70h2M64 70h2M71 70h2M77 70h2M89 70h3M93 70h2M99 70h2M105 70h3M112 70h2M118 70h2M121 70h2M125 70h1M128 70h2M134 70h2M140 70h2M146 70h3M153 70h2M159 70h2M162 70h2M166 70h1M169 70h2M172 70h2M181 70h2M187 70h3M194 70h2M197 70h2M203 70h2M207 70h2M210 70h2M222 70h3M235 70h2M238 70h3M244 70h3M248 70h2M251 70h2M257 70h3M264 70h2M270 70h2M274 70h2M280 70h2M286 70h3M293 70h2M1 71h1M4 71h2M10 71h2M17 71h2M23 71h2M27 71h1M48 71h2M52 71h2M61 71h2M65 71h1M71 71h2M77 71h2M90 71h2M93 71h2M99 71h2M105 71h3M112 71h2M118 71h2M121 71h2M124 71h2M128 71h2M134 71h2M140 71h2M146 71h3M153 71h2M159 71h2M162 71h2M166 71h1M169 71h2M172 71h2M181 71h2M187 71h3M194 71h2M197 71h2M203 71h2M207 71h2M210 71h2M222 71h3M235 71h2M238 71h3M245 71h2M248 71h2M251 71h2M257 71h3M264 71h2M270 71h2M274 71h2M280 71h2M286 71h3M292 71h3M1 73h2M4 73h5M13 73h3M20 73h2M26 73h2M33 73h2M39 73h2M42 73h2M52 73h2M58 73h2M61 73h2M65 73h1M67 73h3M71 73h1M74 73h2M77 73h2M83 73h3M89 73h3M96 73h2M102 73h2M106 73h1M109 73h2M112 73h2M115 73h2M118 73h2M121 73h2M127 73h2M131 73h2M134 73h2M137 73h2M140 73h2M143 73h2M147 73h1M150 73h2M153 73h2M156 73h2M159 73h2M165 73h3M172 73h2M175 73h2M181 73h2M187 73h3M194 73h2M197 73h2M200 73h2M204 73h2M210 73h2M222 73h2M226 73h2M232 73h2M235 73h2M239 73h1M242 73h2M245 73h2M248 73h2M254 73h2M258 73h1M261 73h2M264 73h2M267 73h2M271 73h1M274 73h2M277 73h2M280 73h2M283 73h2M286 73h3M1 74h2M4 74h2M7 74h2M13 74h2M20 74h2M26 74h2M32 74h3M39 74h2M42 74h2M52 74h2M58 74h2M61 74h2M64 74h2M68 74h1M71 74h2M74 74h2M77 74h2M83 74h3M89 74h3M96 74h2M102 74h2M106 74h1M109 74h1M112 74h2M115 74h2M118 74h2M121 74h2M127 74h2M131 74h2M134 74h2M137 74h2M140 74h2M143 74h2M147 74h1M150 74h2M153 74h2M156 74h2M159 74h2M165 74h3M172 74h2M175 74h2M181 74h2M187 74h3M194 74h2M197 74h2M200 74h2M204 74h2M210 74h2M222 74h2M226 74h2M232 74h2M235 74h2M238 74h2M242 74h2M245 74h2M248 74h2M254 74h2M258 74h2M261 74h2M264 74h2M267 74h2M270 74h2M274 74h2M277 74h2M280 74h2M283 74h2M286 74h3M1 76h2M4 76h2M10 76h2M17 76h2M23 76h2M36 76h2M52 76h2M64 76h2M68 76h2M74 76h2M77 76h2M83 76h2M87 76h1M90 76h2M96 76h2M99 76h2M105 76h2M109 76h1M112 76h1M115 76h2M124 76h2M128 76h1M140 76h1M144 76h1M147 76h1M150 76h1M156 76h1M162 76h2M166 76h1M169 76h1M172 76h2M178 76h2M182 76h1M187 76h2M191 76h2M194 76h2M204 76h2M210 76h2M219 76h2M226 76h2M242 76h1M245 76h2M248 76h2M251 76h2M270 76h2M274 76h2M287 76h1M293 76h2M1 77h5M10 77h2M17 77h2M23 77h2M36 77h2M52 77h2M64 77h2M68 77h2M74 77h2M77 77h2M83 77h2M86 77h2M90 77h2M96 77h2M99 77h2M105 77h2M109 77h2M112 77h2M115 77h2M118 77h2M121 77h2M124 77h2M128 77h2M131 77h2M134 77h2M137 77h2M140 77h2M143 77h2M147 77h2M150 77h2M153 77h2M156 77h2M159 77h2M162 77h2M166 77h1M169 77h2M172 77h2M178 77h2M181 77h2M187 77h3M191 77h2M194 77h2M197 77h2M203 77h3M210 77h2M219 77h3M225 77h3M238 77h2M242 77h2M245 77h2M248 77h2M251 77h2M254 77h3M270 77h2M274 77h2M286 77h3M293 77h2M4 79h2M7 79h2M10 79h2M13 79h3M17 79h5M23 79h2M26 79h2M49 79h2M61 79h2M68 79h1M74 79h1M80 79h2M102 79h2M112 79h1M173 79h1M210 79h1M213 79h2M229 79h2M232 79h2M257 79h2M261 79h2M283 79h2M4 80h25M48 80h3M61 80h2M64 80h2M68 80h2M74 80h2M77 80h2M80 80h2M102 80h2M105 80h2M109 80h2M112 80h2M115 80h2M118 80h2M124 80h3M130 80h3M137 80h2M140 80h2M143 80h2M147 80h1M150 80h2M153 80h2M156 80h2M159 80h2M162 80h2M166 80h1M169 80h2M172 80h2M178 80h2M181 80h2M203 80h3M210 80h2M213 80h2M229 80h2M232 80h2M248 80h2M251 80h2M257 80h2M261 80h2M283 80h2M102 81h2M115 81h1M140 81h2M147 81h1M153 81h1M182 81h1M213 81h2M229 81h2M232 81h2M257 81h2M283 81h2M1 82h2M30 82h4M37 82h1M39 82h2M52 82h2M84 82h1M93 82h2M97 82h1M99 82h2M201 82h1M271 82h1M274 82h1M294 82h1M1 83h5M10 83h3M17 83h2M23 83h2M29 83h12M52 83h2M64 83h2M68 83h2M74 83h2M77 83h2M80 83h2M83 83h3M93 83h2M96 83h2M99 83h2M105 83h3M111 83h3M118 83h2M124 83h3M130 83h3M137 83h2M143 83h3M149 83h3M156 83h2M162 83h2M169 83h2M175 83h2M178 83h2M191 83h2M200 83h2M203 83h3M210 83h2M219 83h3M225 83h3M248 83h2M251 83h2M260 83h3M264 83h2M270 83h2M273 83h3M292 83h3M1 84h1M30 84h1M33 84h1M36 84h5M74 84h2M84 84h1M96 84h2M124 84h1M132 84h1M137 84h2M143 84h2M150 84h2M162 84h1M169 84h2M179 84h1M191 84h2M200 84h2M204 84h2M210 84h2M219 84h2M226 84h2M248 84h2M251 84h2M260 84h3M264 84h2M270 84h2M274 84h2M293 84h2M27 85h1M4 86h2M10 86h3M17 86h2M23 86h6M48 86h6M64 86h6M77 86h2M80 86h2M89 86h3M93 86h2M99 86h2M105 86h3M112 86h2M118 86h2M124 86h3M130 86h3M137 86h2M143 86h2M149 86h3M156 86h2M162 86h3M168 86h3M175 86h2M178 86h2M197 86h2M200 86h2M203 86h3M209 86h3M213 86h2M225 86h3M232 86h2M241 86h3M251 86h2M273 86h3M283 86h2M286 86h6M293 86h2M4 87h2M10 87h2M17 87h1M23 87h2M26 87h2M48 87h3M52 87h2M64 87h2M68 87h2M77 87h2M80 87h2M89 87h3M93 87h2M99 87h2M105 87h3M112 87h2M118 87h2M124 87h3M131 87h2M137 87h2M143 87h2M149 87h3M156 87h2M162 87h3M169 87h2M175 87h2M178 87h2M197 87h2M200 87h2M203 87h3M210 87h2M213 87h2M226 87h2M232 87h2M241 87h3M251 87h2M273 87h3M283 87h2M286 87h2M289 87h3M293 87h2M1 89h2M7 89h2M13 89h9M36 89h2M55 89h2M61 89h2M65 89h2M71 89h2M74 89h2M77 89h2M83 89h2M86 89h3M96 89h2M99 89h2M102 89h2M108 89h3M112 89h2M115 89h2M121 89h2M127 89h2M131 89h2M134 89h2M140 89h2M143 89h2M146 89h3M153 89h2M156 89h2M159 89h2M165 89h2M169 89h2M172 89h2M178 89h2M187 89h3M191 89h2M197 89h2M206 89h3M210 89h2M222 89h3M229 89h2M235 89h2M238 89h3M248 89h2M260 89h3M270 89h3M277 89h2M283 89h2M286 89h3M296 89h2M1 90h2M7 90h2M13 90h6M20 90h2M36 90h2M55 90h2M61 90h2M64 90h3M71 90h2M74 90h2M77 90h2M83 90h2M86 90h3M96 90h2M99 90h2M102 90h2M109 90h2M112 90h2M115 90h2M121 90h2M127 90h2M131 90h2M134 90h2M140 90h2M143 90h2M146 90h3M153 90h2M156 90h2M159 90h2M165 90h2M169 90h2M172 90h2M178 90h2M187 90h2M191 90h2M197 90h2M206 90h3M210 90h2M222 90h3M229 90h2M235 90h2M238 90h3M248 90h2M261 90h2M270 90h2M277 90h2M283 90h2M286 90h3M296 90h2M23 92h2M32 92h3M39 92h2M45 92h3M52 92h2M58 92h2M70 92h3M93 92h2M99 92h2M175 92h2M178 92h2M203 92h3M232 92h2M245 92h2M248 92h2M264 92h2M267 92h2M273 92h3M280 92h2M283 92h2M293 92h2M299 92h1M23 93h2M32 93h3M39 93h2M45 93h3M52 93h2M58 93h2M71 93h2M93 93h2M99 93h2M175 93h2M178 93h2M203 93h3M232 93h2M244 93h3M248 93h2M264 93h2M267 93h2M273 93h3M280 93h2M283 93h2M293 93h2M299 93h1M5 106h9M22 106h3M43 106h11M60 106h17M86 106h9M102 106h3M113 106h3M150 106h4M190 106h7M206 106h3M219 106h5M226 106h14M244 106h17M270 106h9M286 106h3M297 106h3M2 108h13M22 108h3M43 108h11M60 108h17M84 108h12M102 108h3M113 108h3M149 108h6M187 108h11M206 108h3M217 108h4M226 108h14M244 108h17M268 108h12M286 108h3M297 108h3M1 110h4M13 110h3M22 110h3M47 110h3M67 110h3M82 110h4M94 110h3M102 110h3M113 110h3M149 110h7M186 110h4M196 110h3M206 110h3M215 110h4M226 110h3M251 110h3M266 110h4M278 110h3M286 110h3M297 110h3M1 112h3M22 112h3M47 112h3M67 112h3M82 112h3M102 112h3M113 112h3M148 112h3M153 112h3M186 112h3M206 112h3M213 112h4M226 112h3M251 112h3M266 112h3M286 112h3M297 112h3M0 114h3M22 114h3M47 114h3M67 114h3M81 114h3M102 114h3M113 114h3M147 114h4M154 114h3M187 114h5M206 114h3M211 114h4M226 114h3M251 114h3M265 114h3M286 114h3M297 114h3M0 116h3M22 116h3M47 116h3M67 116h3M81 116h3M102 116h14M147 116h3M154 116h4M188 116h8M206 116h8M226 116h14M251 116h3M265 116h3M286 116h14M0 118h3M8 118h8M22 118h3M47 118h3M67 118h3M81 118h3M102 118h14M146 118h12M193 118h5M206 118h9M226 118h14M251 118h3M265 118h3M286 118h14M0 120h4M8 120h8M22 120h3M47 120h3M67 120h3M81 120h4M102 120h3M113 120h3M145 120h14M195 120h4M206 120h3M213 120h4M226 120h3M251 120h3M265 120h4M286 120h3M297 120h3M1 122h3M13 122h3M22 122h3M47 122h3M67 122h3M82 122h3M102 122h3M113 122h3M145 122h3M156 122h3M196 122h3M206 122h3M215 122h4M226 122h3M251 122h3M266 122h3M286 122h3M297 122h3M1 124h4M12 124h4M22 124h3M47 124h3M67 124h3M82 124h4M94 124h3M102 124h3M113 124h3M144 124h4M157 124h3M186 124h3M195 124h4M206 124h3M216 124h4M226 124h3M251 124h3M266 124h4M278 124h3M286 124h3M297 124h3M3 126h12M22 126h14M43 126h11M67 126h3M84 126h12M102 126h3M113 126h3M144 126h3M157 126h4M186 126h12M206 126h3M218 126h4M226 126h14M251 126h3M268 126h12M286 126h3M297 126h3M5 128h8M22 128h14M43 128h11M67 128h3M86 128h8M102 128h3M113 128h3M143 128h3M158 128h3M188 128h7M206 128h3M220 128h4M226 128h14M251 128h3M270 128h8M286 128h3M297 128h3M0 141h300M0 142h1M299 142h1M0 143h1M299 143h1M0 144h1M299 144h1M0 145h1M299 145h1M0 146h1M299 146h1M0 147h1M299 147h1M0 148h1M299 148h1M0 149h1M299 149h1M0 150h1M299 150h1M0 151h1M299 151h1M0 152h1M11 152h3M24 152h3M39 152h4M70 152h1M75 152h1M96 152h1M131 152h2M138 152h3M157 152h5M165 152h2M187 152h2M192 152h5M214 152h2M221 152h2M299 152h1M0 153h1M12 153h1M24 153h1M27 153h1M38 153h1M70 153h1M96 153h1M124 153h1M131 153h1M137 153h1M161 153h1M166 153h1M187 153h1M196 153h1M213 153h1M215 153h1M222 153h1M299 153h1M0 154h1M12 154h1M24 154h1M28 154h1M38 154h1M46 154h3M53 154h3M60 154h1M62 154h2M67 154h4M73 154h3M80 154h1M82 154h2M87 154h4M95 154h4M102 154h3M110 154h1M124 154h1M131 154h1M136 154h1M160 154h1M166 154h1M187 154h1M195 154h1M215 154h1M222 154h1M299 154h1M0 155h1M12 155h1M24 155h1M28 155h1M38 155h1M45 155h1M49 155h1M52 155h1M56 155h1M60 155h2M66 155h1M70 155h1M75 155h1M80 155h2M84 155h1M91 155h1M96 155h1M101 155h1M105 155h1M110 155h1M122 155h5M131 155h1M136 155h4M160 155h1M166 155h1M187 155h1M195 155h1M215 155h1M222 155h1M299 155h1M0 156h1M12 156h1M24 156h1M28 156h1M38 156h1M45 156h1M49 156h1M52 156h1M56 156h1M60 156h1M66 156h1M70 156h1M75 156h1M80 156h1M84 156h1M88 156h4M96 156h1M101 156h5M124 156h1M131 156h1M136 156h1M140 156h1M159 156h1M166 156h1M179 156h3M187 156h1M194 156h1M215 156h1M222 156h1M299 156h1M0 157h1M12 157h1M24 157h1M28 157h1M38 157h1M45 157h1M49 157h1M52 157h1M56 157h1M60 157h1M66 157h1M70 157h1M75 157h1M80 157h1M84 157h1M87 157h1M91 157h1M96 157h1M101 157h1M124 157h1M131 157h1M136 157h1M140 157h1M159 157h1M166 157h1M187 157h1M194 157h1M215 157h1M222 157h1M299 157h1M0 158h1M12 158h1M24 158h1M27 158h1M38 158h1M45 158h1M49 158h1M52 158h1M56 158h1M60 158h1M66 158h1M70 158h1M75 158h1M80 158h1M84 158h1M87 158h1M90 158h2M96 158h1M101 158h1M110 158h1M131 158h1M136 158h1M140 158h1M145 158h1M159 158h1M166 158h1M187 158h1M194 158h1M201 158h1M215 158h1M222 158h1M299 158h1M0 159h1M11 159h3M24 159h3M39 159h4M46 159h3M53 159h3M60 159h1M67 159h4M75 159h1M80 159h1M84 159h1M88 159h2M91 159h1M97 159h2M102 159h4M110 159h1M131 159h1M137 159h3M145 159h1M158 159h1M166 159h1M187 159h1M193 159h1M201 159h1M213 159h5M222 159h1M299 159h1M0 160h1M131 160h1M144 160h1M166 160h1M187 160h1M200 160h1M222 160h1M299 160h1M0 161h1M131 161h2M165 161h2M187 161h2M221 161h2M299 161h1M0 162h1M299 162h1M0 163h1M299 163h1M0 164h1M299 164h1M0 165h1M299 165h1M0 166h1M299 166h1M0 167h1M299 167h1M0 168h1M299 168h1M0 169h1M299 169h1M0 170h1M11 170h4M45 170h3M61 170h1M77 170h1M87 170h1M91 170h1M123 170h3M138 170h1M161 170h1M166 170h1M201 170h1M227 170h3M241 170h4M248 170h3M264 170h1M271 170h1M299 170h1M0 171h1M10 171h1M47 171h1M61 171h1M77 171h1M87 171h1M91 171h1M124 171h1M138 171h1M161 171h1M229 171h1M241 171h1M245 171h1M250 171h1M264 171h1M271 171h1M299 171h1M0 172h1M10 172h1M17 172h4M25 172h3M32 172h4M38 172h1M42 172h1M47 172h1M52 172h4M60 172h4M67 172h3M74 172h4M87 172h1M91 172h1M95 172h4M102 172h3M110 172h1M124 172h1M129 172h1M131 172h2M137 172h4M144 172h3M151 172h1M153 172h2M158 172h4M164 172h3M171 172h2M174 172h1M179 172h3M185 172h1M187 172h2M193 172h4M199 172h3M207 172h3M213 172h1M215 172h2M220 172h4M229 172h1M241 172h1M245 172h1M250 172h1M256 172h3M263 172h4M270 172h4M277 172h3M284 172h1M286 172h2M299 172h1M0 173h1M11 173h2M17 173h1M21 173h1M24 173h1M28 173h1M31 173h1M38 173h1M42 173h1M47 173h1M56 173h1M61 173h1M66 173h1M70 173h1M73 173h1M77 173h1M87 173h1M91 173h1M94 173h1M101 173h1M105 173h1M110 173h1M124 173h1M129 173h2M133 173h1M138 173h1M143 173h1M147 173h1M151 173h2M157 173h1M161 173h1M166 173h1M171 173h1M173 173h1M175 173h1M178 173h1M182 173h1M185 173h2M189 173h1M192 173h1M201 173h1M206 173h1M210 173h1M213 173h2M217 173h1M224 173h1M229 173h1M241 173h4M250 173h1M255 173h1M259 173h1M264 173h1M271 173h1M276 173h1M280 173h1M284 173h2M299 173h1M0 174h1M13 174h1M17 174h1M21 174h1M24 174h5M31 174h1M38 174h1M42 174h1M47 174h1M53 174h4M61 174h1M66 174h5M73 174h1M77 174h1M87 174h1M91 174h1M95 174h2M101 174h5M124 174h1M129 174h1M133 174h1M138 174h1M143 174h5M151 174h1M157 174h1M161 174h1M166 174h1M171 174h1M173 174h1M175 174h1M178 174h5M185 174h1M189 174h1M193 174h2M201 174h1M206 174h1M210 174h1M213 174h1M217 174h1M221 174h4M229 174h1M241 174h1M250 174h1M255 174h1M259 174h1M264 174h1M271 174h1M276 174h5M284 174h1M299 174h1M0 175h1M14 175h1M17 175h1M21 175h1M24 175h1M31 175h1M38 175h1M42 175h1M47 175h1M52 175h1M56 175h1M61 175h1M66 175h1M73 175h1M77 175h1M87 175h1M91 175h1M97 175h1M101 175h1M124 175h1M129 175h1M133 175h1M138 175h1M143 175h1M151 175h1M157 175h1M161 175h1M166 175h1M171 175h1M173 175h1M175 175h1M178 175h1M185 175h1M189 175h1M195 175h1M201 175h1M206 175h1M210 175h1M213 175h1M217 175h1M220 175h1M224 175h1M229 175h1M241 175h1M250 175h1M255 175h1M259 175h1M264 175h1M271 175h1M276 175h1M284 175h1M299 175h1M0 176h1M14 176h1M17 176h1M21 176h1M24 176h1M31 176h1M38 176h1M41 176h2M47 176h1M52 176h1M55 176h2M61 176h1M66 176h1M73 176h1M77 176h1M87 176h1M91 176h1M98 176h1M101 176h1M110 176h1M124 176h1M129 176h1M133 176h1M138 176h1M143 176h1M151 176h1M157 176h1M161 176h1M166 176h1M171 176h1M173 176h1M175 176h1M178 176h1M185 176h1M189 176h1M196 176h1M201 176h1M206 176h1M210 176h1M213 176h1M217 176h1M220 176h1M223 176h2M229 176h1M241 176h1M250 176h1M255 176h1M259 176h1M264 176h1M271 176h1M276 176h1M284 176h1M299 176h1M0 177h1M10 177h4M17 177h4M25 177h4M32 177h4M39 177h2M42 177h1M47 177h3M53 177h2M56 177h1M62 177h2M67 177h4M74 177h4M88 177h3M94 177h4M102 177h4M110 177h1M123 177h3M129 177h1M133 177h1M139 177h2M144 177h4M151 177h1M158 177h4M166 177h1M171 177h1M173 177h1M175 177h1M179 177h4M185 177h1M189 177h1M192 177h4M201 177h1M207 177h3M213 177h1M217 177h1M221 177h2M224 177h1M229 177h3M241 177h1M250 177h3M256 177h3M265 177h2M272 177h2M277 177h4M284 177h1M299 177h1M0 178h1M17 178h1M299 178h1M0 179h1M17 179h1M299 179h1M0 180h1M299 180h1M0 181h1M299 181h1M0 182h1M299 182h1M0 183h1M299 183h1M0 184h1M299 184h1M0 185h1M299 185h1M0 186h1M299 186h1M0 187h1M299 187h1M0 188h1M299 188h1M0 189h1M299 189h1M0 190h1M299 190h1M0 191h1M299 191h1M0 192h1M299 192h1M0 193h1M299 193h1M0 194h1M299 194h1M0 195h1M299 195h1M0 196h1M299 196h1M0 197h1M299 197h1M0 198h300" />
<path stroke="#000000" d="M149 0h1" />
</svg>