<svg xmlns="http://www.w3.org/2000/svg" viewBox="0 -0.5 360 250" shape-rendering="crispEdges">
<metadata>Made with Pixels to Svg https://codepen.io/shshaw/pen/XbxvNj</metadata>
<path stroke="#ffffff" d="M5 25h1M7 25h1M9 25h1M11 25h1M13 25h1M15 25h1M17 25h1M19 25h1M21 25h1M23 25h1M25 25h1M27 25h1M29 25h1M31 25h1M33 25h1M35 25h1M37 25h1M39 25h1M41 25h1M43 25h1M45 25h1M47 25h1M49 25h1M51 25h1M53 25h1M55 25h1M57 25h1M59 25h1M61 25h1M63 25h1M65 25h1M67 25h1M69 25h1M71 25h1M73 25h1M75 25h1M77 25h1M79 25h1M81 25h1M83 25h1M85 25h1M87 25h1M95 25h1M97 25h1M99 25h1M101 25h1M103 25h1M105 25h1M107 25h1M109 25h1M111 25h1M113 25h1M115 25h1M117 25h1M119 25h1M121 25h1M123 25h1M125 25h1M127 25h1M129 25h1M131 25h1M133 25h1M135 25h1M137 25h1M139 25h1M141 25h1M143 25h1M145 25h1M147 25h1M149 25h1M151 25h1M153 25h1M155 25h1M157 25h1M159 25h1M161 25h1M163 25h1M165 25h1M167 25h1M169 25h1M171 25h1M173 25h1M175 25h1M183 25h1M185 25h1M187 25h1M189 25h1M191 25h1M193 25h1M195 25h1M197 25h1M199 25h1M201 25h1M203 25h1M205 25h1M207 25h1M209 25h1M211 25h1M213 25h1M215 25h1M217 25h1M219 25h1M221 25h1M223 25h1M225 25h1M227 25h1M229 25h1M231 25h1M233 25h1M235 25h1M237 25h1M239 25h1M241 25h1M243 25h1M245 25h1M247 25h1M249 25h1M251 25h1M253 25h1M255 25h1M257 25h1M259 25h1M261 25h1M263 25h1M265 25h1M273 25h1M275 25h1M277 25h1M279 25h1M281 25h1M283 25h1M285 25h1M287 25h1M289 25h1M291 25h1M293 25h1M295 25h1M297 25h1M299 25h1M301 25h1M303 25h1M305 25h1M307 25h1M309 25h1M311 25h1M313 25h1M315 25h1M317 25h1M319 25h1M321 25h1M323 25h1M325 25h1M327 25h1M329 25h1M331 25h1M333 25h1M335 25h1M337 25h1M339 25h1M341 25h1M343 25h1M345 25h1M347 25h1M349 25h1M351 25h1M353 25h1M5 27h1M7 27h1M9 27h1M11 27h1M13 27h1M15 27h1M17 27h1M19 27h1M21 27h1M23 27h1M25 27h1M27 27h1M29 27h1M31 27h1M33 27h1M35 27h1M37 27h1M39 27h1M41 27h1M43 27h1M45 27h1M47 27h1M49 27h1M51 27h1M53 27h1M55 27h1M57 27h1M59 27h1M61 27h1M63 27h1M65 27h1M67 27h1M69 27h1M71 27h1M73 27h1M75 27h1M77 27h1M79 27h1M81 27h1M83 27h1M85 27h1M87 27h1M95 27h1M97 27h1M99 27h1M101 27h1M103 27h1M105 27h1M107 27h1M109 27h1M111 27h1M113 27h1M115 27h1M117 27h1M119 27h1M121 27h1M123 27h1M125 27h1M127 27h1M129 27h1M131 27h1M133 27h1M135 27h1M137 27h1M139 27h1M141 27h1M143 27h1M145 27h1M147 27h1M149 27h1M151 27h1M153 27h1M155 27h1M157 27h1M159 27h1M161 27h1M163 27h1M165 27h1M167 27h1M169 27h1M171 27h1M173 27h1M175 27h1M183 27h1M185 27h1M187 27h1M189 27h1M191 27h1M193 27h1M195 27h1M197 27h1M199 27h1M201 27h1M203 27h1M205 27h1M207 27h1M209 27h1M211 27h1M213 27h1M215 27h1M217 27h1M219 27h1M221 27h1M223 27h1M225 27h1M227 27h1M229 27h1M231 27h1M233 27h1M235 27h1M237 27h1M239 27h1M241 27h1M243 27h1M245 27h1M247 27h1M249 27h1M251 27h1M253 27h1M255 27h1M257 27h1M259 27h1M261 27h1M263 27h1M265 27h1M273 27h1M275 27h1M277 27h1M279 27h1M281 27h1M283 27h1M285 27h1M287 27h1M289 27h1M291 27h1M293 27h1M295 27h1M297 27h1M299 27h1M301 27h1M303 27h1M305 27h1M307 27h1M309 27h1M311 27h1M313 27h1M315 27h1M317 27h1M319 27h1M321 27h1M323 27h1M325 27h1M327 27h1M329 27h1M331 27h1M333 27h1M335 27h1M337 27h1M339 27h1M341 27h1M343 27h1M345 27h1M347 27h1M349 27h1M351 27h1M353 27h1M5 29h1M7 29h1M9 29h1M11 29h1M13 29h1M15 29h1M17 29h1M19 29h1M21 29h1M23 29h1M25 29h1M27 29h1M29 29h1M31 29h1M33 29h1M35 29h1M57 29h1M59 29h1M61 29h1M63 29h1M65 29h1M67 29h1M69 29h1M71 29h1M73 29h1M75 29h1M77 29h1M79 29h1M81 29h1M83 29h1M85 29h1M87 29h1M95 29h1M97 29h1M99 29h1M101 29h1M103 29h1M105 29h1M107 29h1M109 29h1M111 29h1M113 29h1M115 29h1M117 29h1M119 29h1M121 29h1M123 29h1M125 29h1M127 29h1M129 29h1M131 29h1M133 29h1M135 29h1M137 29h1M139 29h1M141 29h1M143 29h1M145 29h1M147 29h1M149 29h1M151 29h1M153 29h1M155 29h1M157 29h1M159 29h1M161 29h1M163 29h1M165 29h1M167 29h1M169 29h1M171 29h1M173 29h1M175 29h1M183 29h1M185 29h1M187 29h1M189 29h1M191 29h1M193 29h1M195 29h1M197 29h1M199 29h1M201 29h1M247 29h1M249 29h1M251 29h1M253 29h1M255 29h1M257 29h1M259 29h1M261 29h1M263 29h1M265 29h1M273 29h1M275 29h1M277 29h1M279 29h1M281 29h1M283 29h1M285 29h1M319 29h1M321 29h1M323 29h1M325 29h1M327 29h1M329 29h1M331 29h1M333 29h1M335 29h1M337 29h1M339 29h1M341 29h1M343 29h1M345 29h1M347 29h1M349 29h1M351 29h1M353 29h1M5 31h1M7 31h1M9 31h1M11 31h1M13 31h1M15 31h1M17 31h1M19 31h1M21 31h1M23 31h1M25 31h1M27 31h1M29 31h1M63 31h1M65 31h1M67 31h1M69 31h1M71 31h1M73 31h1M75 31h1M77 31h1M79 31h1M81 31h1M83 31h1M85 31h1M87 31h1M95 31h1M97 31h1M99 31h1M101 31h1M103 31h1M105 31h1M107 31h1M125 31h1M127 31h1M129 31h1M131 31h1M133 31h1M135 31h1M137 31h1M139 31h1M141 31h1M143 31h1M145 31h1M163 31h1M165 31h1M167 31h1M169 31h1M171 31h1M173 31h1M175 31h1M183 31h1M185 31h1M187 31h1M189 31h1M191 31h1M193 31h1M195 31h1M197 31h1M199 31h1M201 31h1M247 31h1M249 31h1M251 31h1M253 31h1M255 31h1M257 31h1M259 31h1M261 31h1M263 31h1M265 31h1M273 31h1M275 31h1M277 31h1M279 31h1M281 31h1M283 31h1M285 31h1M325 31h1M327 31h1M329 31h1M331 31h1M333 31h1M335 31h1M337 31h1M339 31h1M341 31h1M343 31h1M345 31h1M347 31h1M349 31h1M351 31h1M353 31h1M5 33h1M7 33h1M9 33h1M11 33h1M13 33h1M15 33h1M17 33h1M19 33h1M21 33h1M23 33h1M25 33h1M27 33h1M67 33h1M69 33h1M71 33h1M73 33h1M75 33h1M77 33h1M79 33h1M81 33h1M83 33h1M85 33h1M87 33h1M95 33h1M97 33h1M99 33h1M101 33h1M103 33h1M105 33h1M107 33h1M127 33h1M129 33h1M131 33h1M133 33h1M135 33h1M137 33h1M139 33h1M141 33h1M143 33h1M145 33h1M163 33h1M165 33h1M167 33h1M169 33h1M171 33h1M173 33h1M175 33h1M183 33h1M185 33h1M187 33h1M189 33h1M191 33h1M193 33h1M195 33h1M197 33h1M199 33h1M201 33h1M247 33h1M249 33h1M251 33h1M253 33h1M255 33h1M257 33h1M259 33h1M261 33h1M263 33h1M265 33h1M273 33h1M275 33h1M277 33h1M279 33h1M281 33h1M283 33h1M285 33h1M329 33h1M331 33h1M333 33h1M335 33h1M337 33h1M339 33h1M341 33h1M343 33h1M345 33h1M347 33h1M349 33h1M351 33h1M353 33h1M5 35h1M7 35h1M9 35h1M11 35h1M13 35h1M15 35h1M17 35h1M19 35h1M21 35h1M23 35h1M25 35h1M67 35h1M69 35h1M71 35h1M73 35h1M75 35h1M77 35h1M79 35h1M81 35h1M83 35h1M85 35h1M87 35h1M95 35h1M97 35h1M99 35h1M101 35h1M103 35h1M105 35h1M107 35h1M127 35h1M129 35h1M131 35h1M133 35h1M135 35h1M137 35h1M139 35h1M141 35h1M143 35h1M145 35h1M163 35h1M165 35h1M167 35h1M169 35h1M171 35h1M173 35h1M175 35h1M183 35h1M185 35h1M187 35h1M189 35h1M191 35h1M193 35h1M195 35h1M197 35h1M199 35h1M201 35h1M247 35h1M249 35h1M251 35h1M253 35h1M255 35h1M257 35h1M259 35h1M261 35h1M263 35h1M265 35h1M273 35h1M275 35h1M277 35h1M279 35h1M281 35h1M283 35h1M285 35h1M331 35h1M333 35h1M335 35h1M337 35h1M339 35h1M341 35h1M343 35h1M345 35h1M347 35h1M349 35h1M351 35h1M353 35h1M5 37h1M7 37h1M9 37h1M11 37h1M13 37h1M15 37h1M17 37h1M19 37h1M21 37h1M23 37h1M67 37h1M69 37h1M71 37h1M73 37h1M75 37h1M77 37h1M79 37h1M81 37h1M83 37h1M85 37h1M87 37h1M95 37h1M97 37h1M99 37h1M101 37h1M103 37h1M105 37h1M107 37h1M129 37h1M131 37h1M133 37h1M135 37h1M137 37h1M139 37h1M141 37h1M143 37h1M145 37h1M163 37h1M165 37h1M167 37h1M169 37h1M171 37h1M173 37h1M175 37h1M183 37h1M185 37h1M187 37h1M189 37h1M191 37h1M193 37h1M195 37h1M197 37h1M199 37h1M201 37h1M247 37h1M249 37h1M251 37h1M253 37h1M255 37h1M257 37h1M259 37h1M261 37h1M263 37h1M265 37h1M273 37h1M275 37h1M277 37h1M279 37h1M281 37h1M283 37h1M285 37h1M333 37h1M335 37h1M337 37h1M339 37h1M341 37h1M343 37h1M345 37h1M347 37h1M349 37h1M351 37h1M353 37h1M5 39h1M7 39h1M9 39h1M11 39h1M13 39h1M15 39h1M17 39h1M19 39h1M21 39h1M23 39h1M67 39h1M69 39h1M71 39h1M73 39h1M75 39h1M77 39h1M79 39h1M81 39h1M83 39h1M85 39h1M87 39h1M95 39h1M97 39h1M99 39h1M101 39h1M103 39h1M105 39h1M107 39h1M129 39h1M131 39h1M133 39h1M135 39h1M137 39h1M139 39h1M141 39h1M143 39h1M145 39h1M163 39h1M165 39h1M167 39h1M169 39h1M171 39h1M173 39h1M175 39h1M183 39h1M185 39h1M187 39h1M189 39h1M191 39h1M193 39h1M195 39h1M197 39h1M199 39h1M201 39h1M247 39h1M249 39h1M251 39h1M253 39h1M255 39h1M257 39h1M259 39h1M261 39h1M263 39h1M265 39h1M273 39h1M275 39h1M277 39h1M279 39h1M281 39h1M283 39h1M285 39h1M335 39h1M337 39h1M339 39h1M341 39h1M343 39h1M345 39h1M347 39h1M349 39h1M351 39h1M353 39h1M5 41h1M7 41h1M9 41h1M11 41h1M13 41h1M15 41h1M17 41h1M19 41h1M21 41h1M43 41h1M45 41h1M47 41h1M49 41h1M51 41h1M67 41h1M69 41h1M71 41h1M73 41h1M75 41h1M77 41h1M79 41h1M81 41h1M83 41h1M85 41h1M87 41h1M95 41h1M97 41h1M99 41h1M101 41h1M103 41h1M105 41h1M107 41h1M131 41h1M133 41h1M135 41h1M137 41h1M139 41h1M141 41h1M143 41h1M145 41h1M163 41h1M165 41h1M167 41h1M169 41h1M171 41h1M173 41h1M175 41h1M183 41h1M185 41h1M187 41h1M189 41h1M191 41h1M193 41h1M195 41h1M197 41h1M199 41h1M201 41h1M203 41h1M205 41h1M207 41h1M209 41h1M211 41h1M213 41h1M215 41h1M233 41h1M235 41h1M237 41h1M239 41h1M241 41h1M243 41h1M245 41h1M247 41h1M249 41h1M251 41h1M253 41h1M255 41h1M257 41h1M259 41h1M261 41h1M263 41h1M265 41h1M273 41h1M275 41h1M277 41h1M279 41h1M281 41h1M283 41h1M285 41h1M303 41h1M305 41h1M307 41h1M309 41h1M311 41h1M335 41h1M337 41h1M339 41h1M341 41h1M343 41h1M345 41h1M347 41h1M349 41h1M351 41h1M353 41h1M5 43h1M7 43h1M9 43h1M11 43h1M13 43h1M15 43h1M17 43h1M19 43h1M21 43h1M39 43h1M41 43h1M43 43h1M45 43h1M47 43h1M49 43h1M51 43h1M53 43h1M55 43h1M57 43h1M67 43h1M69 43h1M71 43h1M73 43h1M75 43h1M77 43h1M79 43h1M81 43h1M83 43h1M85 43h1M87 43h1M95 43h1M97 43h1M99 43h1M101 43h1M103 43h1M105 43h1M107 43h1M131 43h1M133 43h1M135 43h1M137 43h1M139 43h1M141 43h1M143 43h1M145 43h1M163 43h1M165 43h1M167 43h1M169 43h1M171 43h1M173 43h1M175 43h1M183 43h1M185 43h1M187 43h1M189 43h1M191 43h1M193 43h1M195 43h1M197 43h1M199 43h1M201 43h1M203 43h1M205 43h1M207 43h1M209 43h1M211 43h1M213 43h1M215 43h1M233 43h1M235 43h1M237 43h1M239 43h1M241 43h1M243 43h1M245 43h1M247 43h1M249 43h1M251 43h1M253 43h1M255 43h1M257 43h1M259 43h1M261 43h1M263 43h1M265 43h1M273 43h1M275 43h1M277 43h1M279 43h1M281 43h1M283 43h1M285 43h1M303 43h1M305 43h1M307 43h1M309 43h1M311 43h1M313 43h1M315 43h1M317 43h1M337 43h1M339 43h1M341 43h1M343 43h1M345 43h1M347 43h1M349 43h1M351 43h1M353 43h1M5 45h1M7 45h1M9 45h1M11 45h1M13 45h1M15 45h1M17 45h1M19 45h1M21 45h1M37 45h1M39 45h1M41 45h1M43 45h1M45 45h1M47 45h1M49 45h1M51 45h1M53 45h1M55 45h1M57 45h1M59 45h1M61 45h1M67 45h1M69 45h1M71 45h1M73 45h1M75 45h1M77 45h1M79 45h1M81 45h1M83 45h1M85 45h1M87 45h1M95 45h1M97 45h1M99 45h1M101 45h1M103 45h1M105 45h1M107 45h1M133 45h1M135 45h1M137 45h1M139 45h1M141 45h1M143 45h1M145 45h1M163 45h1M165 45h1M167 45h1M169 45h1M171 45h1M173 45h1M175 45h1M183 45h1M185 45h1M187 45h1M189 45h1M191 45h1M193 45h1M195 45h1M197 45h1M199 45h1M201 45h1M203 45h1M205 45h1M207 45h1M209 45h1M211 45h1M213 45h1M215 45h1M233 45h1M235 45h1M237 45h1M239 45h1M241 45h1M243 45h1M245 45h1M247 45h1M249 45h1M251 45h1M253 45h1M255 45h1M257 45h1M259 45h1M261 45h1M263 45h1M265 45h1M273 45h1M275 45h1M277 45h1M279 45h1M281 45h1M283 45h1M285 45h1M303 45h1M305 45h1M307 45h1M309 45h1M311 45h1M313 45h1M315 45h1M317 45h1M319 45h1M337 45h1M339 45h1M341 45h1M343 45h1M345 45h1M347 45h1M349 45h1M351 45h1M353 45h1M5 47h1M7 47h1M9 47h1M11 47h1M13 47h1M15 47h1M17 47h1M19 47h1M21 47h1M37 47h1M39 47h1M41 47h1M43 47h1M45 47h1M47 47h1M49 47h1M51 47h1M53 47h1M55 47h1M57 47h1M59 47h1M61 47h1M63 47h1M65 47h1M67 47h1M69 47h1M71 47h1M73 47h1M75 47h1M77 47h1M79 47h1M81 47h1M83 47h1M85 47h1M87 47h1M95 47h1M97 47h1M99 47h1M101 47h1M103 47h1M105 47h1M107 47h1M133 47h1M135 47h1M137 47h1M139 47h1M141 47h1M143 47h1M145 47h1M163 47h1M165 47h1M167 47h1M169 47h1M171 47h1M173 47h1M175 47h1M183 47h1M185 47h1M187 47h1M189 47h1M191 47h1M193 47h1M195 47h1M197 47h1M199 47h1M201 47h1M203 47h1M205 47h1M207 47h1M209 47h1M211 47h1M213 47h1M215 47h1M233 47h1M235 47h1M237 47h1M239 47h1M241 47h1M243 47h1M245 47h1M247 47h1M249 47h1M251 47h1M253 47h1M255 47h1M257 47h1M259 47h1M261 47h1M263 47h1M265 47h1M273 47h1M275 47h1M277 47h1M279 47h1M281 47h1M283 47h1M285 47h1M303 47h1M305 47h1M307 47h1M309 47h1M311 47h1M313 47h1M315 47h1M317 47h1M319 47h1M321 47h1M339 47h1M341 47h1M343 47h1M345 47h1M347 47h1M349 47h1M351 47h1M353 47h1M217 48h1M221 48h1M225 48h1M229 48h1M287 48h1M291 48h1M295 48h1M299 48h1M326 48h1M330 48h1M23 49h1M27 49h1M31 49h1M35 49h1M95 49h1M97 49h1M99 49h1M101 49h1M103 49h1M105 49h1M107 49h1M121 49h1M125 49h1M129 49h1M133 49h1M149 49h1M163 49h1M165 49h1M167 49h1M169 49h1M171 49h1M173 49h1M175 49h1M339 49h1M341 49h1M343 49h1M345 49h1M347 49h1M349 49h1M351 49h1M353 49h1M219 50h1M223 50h1M227 50h1M231 50h1M289 50h1M293 50h1M297 50h1M301 50h1M324 50h1M328 50h1M25 51h1M29 51h1M33 51h1M95 51h1M97 51h1M99 51h1M101 51h1M103 51h1M105 51h1M107 51h1M119 51h1M123 51h1M127 51h1M131 51h1M147 51h1M151 51h1M163 51h1M165 51h1M167 51h1M169 51h1M171 51h1M173 51h1M175 51h1M339 51h1M341 51h1M343 51h1M345 51h1M347 51h1M349 51h1M351 51h1M353 51h1M217 52h1M221 52h1M225 52h1M229 52h1M287 52h1M291 52h1M295 52h1M299 52h1M326 52h1M330 52h1M23 53h1M27 53h1M31 53h1M35 53h1M95 53h1M97 53h1M99 53h1M101 53h1M103 53h1M105 53h1M107 53h1M121 53h1M125 53h1M129 53h1M133 53h1M149 53h1M163 53h1M165 53h1M167 53h1M169 53h1M171 53h1M173 53h1M175 53h1M339 53h1M341 53h1M343 53h1M345 53h1M347 53h1M349 53h1M351 53h1M353 53h1M219 54h1M223 54h1M227 54h1M231 54h1M289 54h1M293 54h1M297 54h1M301 54h1M324 54h1M328 54h1M5 55h1M7 55h1M9 55h1M11 55h1M13 55h1M15 55h1M17 55h1M19 55h1M21 55h1M41 55h1M43 55h1M45 55h1M47 55h1M49 55h1M51 55h1M53 55h1M55 55h1M57 55h1M59 55h1M61 55h1M63 55h1M65 55h1M67 55h1M69 55h1M71 55h1M73 55h1M75 55h1M77 55h1M79 55h1M81 55h1M83 55h1M85 55h1M87 55h1M95 55h1M97 55h1M99 55h1M101 55h1M103 55h1M105 55h1M107 55h1M119 55h1M123 55h1M127 55h1M131 55h1M135 55h1M147 55h1M151 55h1M163 55h1M165 55h1M167 55h1M169 55h1M171 55h1M173 55h1M175 55h1M339 55h1M341 55h1M343 55h1M345 55h1M347 55h1M349 55h1M351 55h1M353 55h1M217 56h1M221 56h1M225 56h1M229 56h1M287 56h1M291 56h1M295 56h1M299 56h1M326 56h1M330 56h1M5 57h1M7 57h1M9 57h1M11 57h1M13 57h1M15 57h1M17 57h1M19 57h1M21 57h1M45 57h1M47 57h1M49 57h1M51 57h1M53 57h1M55 57h1M57 57h1M59 57h1M61 57h1M63 57h1M65 57h1M67 57h1M69 57h1M71 57h1M73 57h1M75 57h1M77 57h1M79 57h1M81 57h1M83 57h1M85 57h1M87 57h1M95 57h1M97 57h1M99 57h1M101 57h1M103 57h1M105 57h1M107 57h1M121 57h1M125 57h1M129 57h1M133 57h1M149 57h1M163 57h1M165 57h1M167 57h1M169 57h1M171 57h1M173 57h1M175 57h1M341 57h1M343 57h1M345 57h1M347 57h1M349 57h1M351 57h1M353 57h1M219 58h1M223 58h1M227 58h1M231 58h1M289 58h1M293 58h1M297 58h1M301 58h1M328 58h1M5 59h1M7 59h1M9 59h1M11 59h1M13 59h1M15 59h1M17 59h1M19 59h1M21 59h1M23 59h1M51 59h1M53 59h1M55 59h1M57 59h1M59 59h1M61 59h1M63 59h1M65 59h1M67 59h1M69 59h1M71 59h1M73 59h1M75 59h1M77 59h1M79 59h1M81 59h1M83 59h1M85 59h1M87 59h1M95 59h1M97 59h1M99 59h1M101 59h1M103 59h1M105 59h1M107 59h1M119 59h1M123 59h1M127 59h1M131 59h1M135 59h1M147 59h1M151 59h1M163 59h1M165 59h1M167 59h1M169 59h1M171 59h1M173 59h1M175 59h1M341 59h1M343 59h1M345 59h1M347 59h1M349 59h1M351 59h1M353 59h1M217 60h1M221 60h1M225 60h1M229 60h1M287 60h1M291 60h1M295 60h1M299 60h1M326 60h1M330 60h1M5 61h1M7 61h1M9 61h1M11 61h1M13 61h1M15 61h1M17 61h1M19 61h1M21 61h1M23 61h1M57 61h1M59 61h1M61 61h1M63 61h1M65 61h1M67 61h1M69 61h1M71 61h1M73 61h1M75 61h1M77 61h1M79 61h1M81 61h1M83 61h1M85 61h1M87 61h1M95 61h1M97 61h1M99 61h1M101 61h1M103 61h1M105 61h1M107 61h1M121 61h1M125 61h1M129 61h1M133 61h1M137 61h1M149 61h1M163 61h1M165 61h1M167 61h1M169 61h1M171 61h1M173 61h1M175 61h1M341 61h1M343 61h1M345 61h1M347 61h1M349 61h1M351 61h1M353 61h1M219 62h1M223 62h1M227 62h1M231 62h1M289 62h1M293 62h1M297 62h1M301 62h1M328 62h1M5 63h1M7 63h1M9 63h1M11 63h1M13 63h1M15 63h1M17 63h1M19 63h1M21 63h1M23 63h1M25 63h1M61 63h1M63 63h1M65 63h1M67 63h1M69 63h1M71 63h1M73 63h1M75 63h1M77 63h1M79 63h1M81 63h1M83 63h1M85 63h1M87 63h1M95 63h1M97 63h1M99 63h1M101 63h1M103 63h1M105 63h1M107 63h1M119 63h1M123 63h1M127 63h1M131 63h1M135 63h1M139 63h1M147 63h1M151 63h1M163 63h1M165 63h1M167 63h1M169 63h1M171 63h1M173 63h1M175 63h1M341 63h1M343 63h1M345 63h1M347 63h1M349 63h1M351 63h1M353 63h1M217 64h1M221 64h1M225 64h1M229 64h1M287 64h1M291 64h1M295 64h1M299 64h1M326 64h1M330 64h1M5 65h1M7 65h1M9 65h1M11 65h1M13 65h1M15 65h1M17 65h1M19 65h1M21 65h1M23 65h1M25 65h1M27 65h1M63 65h1M65 65h1M67 65h1M69 65h1M71 65h1M73 65h1M75 65h1M77 65h1M79 65h1M81 65h1M83 65h1M85 65h1M87 65h1M95 65h1M97 65h1M99 65h1M101 65h1M103 65h1M105 65h1M107 65h1M121 65h1M129 65h1M133 65h1M137 65h1M141 65h1M149 65h1M163 65h1M165 65h1M167 65h1M169 65h1M171 65h1M173 65h1M175 65h1M341 65h1M343 65h1M345 65h1M347 65h1M349 65h1M351 65h1M353 65h1M219 66h1M223 66h1M227 66h1M231 66h1M289 66h1M293 66h1M297 66h1M301 66h1M328 66h1M5 67h1M7 67h1M9 67h1M11 67h1M13 67h1M15 67h1M17 67h1M19 67h1M21 67h1M23 67h1M25 67h1M27 67h1M29 67h1M31 67h1M65 67h1M67 67h1M69 67h1M71 67h1M73 67h1M75 67h1M77 67h1M79 67h1M81 67h1M83 67h1M85 67h1M87 67h1M95 67h1M97 67h1M99 67h1M101 67h1M103 67h1M105 67h1M107 67h1M119 67h1M123 67h1M131 67h1M135 67h1M139 67h1M143 67h1M147 67h1M151 67h1M163 67h1M165 67h1M167 67h1M169 67h1M171 67h1M173 67h1M175 67h1M341 67h1M343 67h1M345 67h1M347 67h1M349 67h1M351 67h1M353 67h1M217 68h1M221 68h1M225 68h1M229 68h1M287 68h1M291 68h1M295 68h1M299 68h1M326 68h1M330 68h1M5 69h1M7 69h1M9 69h1M11 69h1M13 69h1M15 69h1M17 69h1M19 69h1M21 69h1M23 69h1M25 69h1M27 69h1M29 69h1M31 69h1M33 69h1M35 69h1M67 69h1M69 69h1M71 69h1M73 69h1M75 69h1M77 69h1M79 69h1M81 69h1M83 69h1M85 69h1M87 69h1M95 69h1M97 69h1M99 69h1M101 69h1M103 69h1M105 69h1M107 69h1M121 69h1M129 69h1M133 69h1M137 69h1M141 69h1M149 69h1M163 69h1M165 69h1M167 69h1M169 69h1M171 69h1M173 69h1M175 69h1M341 69h1M343 69h1M345 69h1M347 69h1M349 69h1M351 69h1M353 69h1M219 70h1M223 70h1M227 70h1M231 70h1M289 70h1M293 70h1M297 70h1M301 70h1M328 70h1M5 71h1M7 71h1M9 71h1M11 71h1M13 71h1M15 71h1M17 71h1M19 71h1M21 71h1M23 71h1M25 71h1M27 71h1M29 71h1M31 71h1M33 71h1M35 71h1M37 71h1M39 71h1M67 71h1M69 71h1M71 71h1M73 71h1M75 71h1M77 71h1M79 71h1M81 71h1M83 71h1M85 71h1M87 71h1M95 71h1M97 71h1M99 71h1M101 71h1M103 71h1M105 71h1M107 71h1M119 71h1M123 71h1M131 71h1M135 71h1M139 71h1M143 71h1M147 71h1M151 71h1M163 71h1M165 71h1M167 71h1M169 71h1M171 71h1M173 71h1M175 71h1M341 71h1M343 71h1M345 71h1M347 71h1M349 71h1M351 71h1M353 71h1M217 72h1M221 72h1M225 72h1M229 72h1M287 72h1M291 72h1M295 72h1M299 72h1M326 72h1M330 72h1M5 73h1M7 73h1M9 73h1M11 73h1M13 73h1M15 73h1M17 73h1M19 73h1M21 73h1M23 73h1M25 73h1M27 73h1M29 73h1M31 73h1M33 73h1M35 73h1M37 73h1M39 73h1M41 73h1M43 73h1M45 73h1M69 73h1M71 73h1M73 73h1M75 73h1M77 73h1M79 73h1M81 73h1M83 73h1M85 73h1M87 73h1M95 73h1M97 73h1M99 73h1M101 73h1M103 73h1M105 73h1M107 73h1M121 73h1M133 73h1M137 73h1M141 73h1M145 73h1M149 73h1M163 73h1M165 73h1M167 73h1M169 73h1M171 73h1M173 73h1M175 73h1M341 73h1M343 73h1M345 73h1M347 73h1M349 73h1M351 73h1M353 73h1M219 74h1M223 74h1M227 74h1M231 74h1M289 74h1M293 74h1M297 74h1M301 74h1M328 74h1M5 75h1M7 75h1M9 75h1M11 75h1M13 75h1M15 75h1M17 75h1M19 75h1M21 75h1M23 75h1M25 75h1M27 75h1M29 75h1M31 75h1M33 75h1M35 75h1M37 75h1M39 75h1M41 75h1M43 75h1M45 75h1M47 75h1M49 75h1M69 75h1M71 75h1M73 75h1M75 75h1M77 75h1M79 75h1M81 75h1M83 75h1M85 75h1M87 75h1M95 75h1M97 75h1M99 75h1M101 75h1M103 75h1M105 75h1M107 75h1M119 75h1M123 75h1M131 75h1M135 75h1M139 75h1M143 75h1M147 75h1M151 75h1M163 75h1M165 75h1M167 75h1M169 75h1M171 75h1M173 75h1M175 75h1M341 75h1M343 75h1M345 75h1M347 75h1M349 75h1M351 75h1M353 75h1M217 76h1M221 76h1M225 76h1M229 76h1M287 76h1M291 76h1M295 76h1M299 76h1M326 76h1M330 76h1M5 77h1M7 77h1M9 77h1M11 77h1M13 77h1M15 77h1M17 77h1M19 77h1M21 77h1M23 77h1M25 77h1M27 77h1M29 77h1M31 77h1M33 77h1M35 77h1M37 77h1M39 77h1M41 77h1M43 77h1M45 77h1M47 77h1M49 77h1M51 77h1M53 77h1M71 77h1M73 77h1M75 77h1M77 77h1M79 77h1M81 77h1M83 77h1M85 77h1M87 77h1M95 77h1M97 77h1M99 77h1M101 77h1M103 77h1M105 77h1M107 77h1M121 77h1M133 77h1M137 77h1M141 77h1M145 77h1M149 77h1M163 77h1M165 77h1M167 77h1M169 77h1M171 77h1M173 77h1M175 77h1M339 77h1M341 77h1M343 77h1M345 77h1M347 77h1M349 77h1M351 77h1M353 77h1M219 78h1M223 78h1M227 78h1M231 78h1M289 78h1M293 78h1M297 78h1M301 78h1M324 78h1M328 78h1M55 79h1M59 79h1M63 79h1M71 79h1M73 79h1M75 79h1M77 79h1M79 79h1M81 79h1M83 79h1M85 79h1M87 79h1M95 79h1M97 79h1M99 79h1M101 79h1M103 79h1M105 79h1M107 79h1M119 79h1M123 79h1M135 79h1M139 79h1M143 79h1M147 79h1M151 79h1M163 79h1M165 79h1M167 79h1M169 79h1M171 79h1M173 79h1M175 79h1M339 79h1M341 79h1M343 79h1M345 79h1M347 79h1M349 79h1M351 79h1M353 79h1M217 80h1M221 80h1M225 80h1M229 80h1M287 80h1M291 80h1M295 80h1M299 80h1M326 80h1M330 80h1M57 81h1M61 81h1M71 81h1M73 81h1M75 81h1M77 81h1M79 81h1M81 81h1M83 81h1M85 81h1M87 81h1M95 81h1M97 81h1M99 81h1M101 81h1M103 81h1M105 81h1M107 81h1M121 81h1M137 81h1M141 81h1M145 81h1M149 81h1M163 81h1M165 81h1M167 81h1M169 81h1M171 81h1M173 81h1M175 81h1M339 81h1M341 81h1M343 81h1M345 81h1M347 81h1M349 81h1M351 81h1M353 81h1M219 82h1M223 82h1M227 82h1M231 82h1M289 82h1M293 82h1M297 82h1M301 82h1M324 82h1M328 82h1M59 83h1M63 83h1M71 83h1M73 83h1M75 83h1M77 83h1M79 83h1M81 83h1M83 83h1M85 83h1M87 83h1M95 83h1M97 83h1M99 83h1M101 83h1M103 83h1M105 83h1M107 83h1M119 83h1M123 83h1M135 83h1M139 83h1M143 83h1M147 83h1M151 83h1M163 83h1M165 83h1M167 83h1M169 83h1M171 83h1M173 83h1M175 83h1M339 83h1M341 83h1M343 83h1M345 83h1M347 83h1M349 83h1M351 83h1M353 83h1M217 84h1M221 84h1M225 84h1M229 84h1M287 84h1M291 84h1M295 84h1M299 84h1M326 84h1M330 84h1M5 85h1M7 85h1M9 85h1M11 85h1M13 85h1M15 85h1M17 85h1M19 85h1M21 85h1M23 85h1M25 85h1M27 85h1M29 85h1M31 85h1M33 85h1M35 85h1M37 85h1M39 85h1M41 85h1M43 85h1M45 85h1M47 85h1M49 85h1M51 85h1M53 85h1M55 85h1M71 85h1M73 85h1M75 85h1M77 85h1M79 85h1M81 85h1M83 85h1M85 85h1M87 85h1M95 85h1M97 85h1M99 85h1M101 85h1M103 85h1M105 85h1M107 85h1M121 85h1M137 85h1M141 85h1M145 85h1M149 85h1M163 85h1M165 85h1M167 85h1M169 85h1M171 85h1M173 85h1M175 85h1M183 85h1M185 85h1M187 85h1M189 85h1M191 85h1M193 85h1M195 85h1M197 85h1M199 85h1M201 85h1M203 85h1M205 85h1M207 85h1M209 85h1M211 85h1M213 85h1M215 85h1M233 85h1M235 85h1M237 85h1M239 85h1M241 85h1M243 85h1M245 85h1M247 85h1M249 85h1M251 85h1M253 85h1M255 85h1M257 85h1M259 85h1M261 85h1M263 85h1M265 85h1M273 85h1M275 85h1M277 85h1M279 85h1M281 85h1M283 85h1M285 85h1M303 85h1M305 85h1M307 85h1M309 85h1M311 85h1M313 85h1M315 85h1M317 85h1M319 85h1M321 85h1M339 85h1M341 85h1M343 85h1M345 85h1M347 85h1M349 85h1M351 85h1M353 85h1M5 87h1M7 87h1M9 87h1M11 87h1M13 87h1M15 87h1M17 87h1M19 87h1M21 87h1M27 87h1M29 87h1M31 87h1M33 87h1M35 87h1M37 87h1M39 87h1M41 87h1M43 87h1M45 87h1M47 87h1M49 87h1M51 87h1M53 87h1M71 87h1M73 87h1M75 87h1M77 87h1M79 87h1M81 87h1M83 87h1M85 87h1M87 87h1M95 87h1M97 87h1M99 87h1M101 87h1M103 87h1M105 87h1M107 87h1M119 87h1M123 87h1M139 87h1M143 87h1M147 87h1M151 87h1M163 87h1M165 87h1M167 87h1M169 87h1M171 87h1M173 87h1M175 87h1M183 87h1M185 87h1M187 87h1M189 87h1M191 87h1M193 87h1M195 87h1M197 87h1M199 87h1M201 87h1M203 87h1M205 87h1M207 87h1M209 87h1M211 87h1M213 87h1M215 87h1M233 87h1M235 87h1M237 87h1M239 87h1M241 87h1M243 87h1M245 87h1M247 87h1M249 87h1M251 87h1M253 87h1M255 87h1M257 87h1M259 87h1M261 87h1M263 87h1M265 87h1M273 87h1M275 87h1M277 87h1M279 87h1M281 87h1M283 87h1M285 87h1M303 87h1M305 87h1M307 87h1M309 87h1M311 87h1M313 87h1M315 87h1M317 87h1M319 87h1M337 87h1M339 87h1M341 87h1M343 87h1M345 87h1M347 87h1M349 87h1M351 87h1M353 87h1M5 89h1M7 89h1M9 89h1M11 89h1M13 89h1M15 89h1M17 89h1M19 89h1M21 89h1M31 89h1M33 89h1M35 89h1M37 89h1M39 89h1M41 89h1M43 89h1M45 89h1M47 89h1M49 89h1M51 89h1M69 89h1M71 89h1M73 89h1M75 89h1M77 89h1M79 89h1M81 89h1M83 89h1M85 89h1M87 89h1M95 89h1M97 89h1M99 89h1M101 89h1M103 89h1M105 89h1M107 89h1M121 89h1M141 89h1M145 89h1M149 89h1M163 89h1M165 89h1M167 89h1M169 89h1M171 89h1M173 89h1M175 89h1M183 89h1M185 89h1M187 89h1M189 89h1M191 89h1M193 89h1M195 89h1M197 89h1M199 89h1M201 89h1M203 89h1M205 89h1M207 89h1M209 89h1M211 89h1M213 89h1M215 89h1M233 89h1M235 89h1M237 89h1M239 89h1M241 89h1M243 89h1M245 89h1M247 89h1M249 89h1M251 89h1M253 89h1M255 89h1M257 89h1M259 89h1M261 89h1M263 89h1M265 89h1M273 89h1M275 89h1M277 89h1M279 89h1M281 89h1M283 89h1M285 89h1M303 89h1M305 89h1M307 89h1M309 89h1M311 89h1M313 89h1M315 89h1M317 89h1M337 89h1M339 89h1M341 89h1M343 89h1M345 89h1M347 89h1M349 89h1M351 89h1M353 89h1M5 91h1M7 91h1M9 91h1M11 91h1M13 91h1M15 91h1M17 91h1M19 91h1M21 91h1M39 91h1M41 91h1M43 91h1M45 91h1M47 91h1M69 91h1M71 91h1M73 91h1M75 91h1M77 91h1M79 91h1M81 91h1M83 91h1M85 91h1M87 91h1M95 91h1M97 91h1M99 91h1M101 91h1M103 91h1M105 91h1M107 91h1M119 91h1M123 91h1M139 91h1M143 91h1M147 91h1M151 91h1M163 91h1M165 91h1M167 91h1M169 91h1M171 91h1M173 91h1M175 91h1M183 91h1M185 91h1M187 91h1M189 91h1M191 91h1M193 91h1M195 91h1M197 91h1M199 91h1M201 91h1M203 91h1M205 91h1M207 91h1M209 91h1M211 91h1M213 91h1M215 91h1M233 91h1M235 91h1M237 91h1M239 91h1M241 91h1M243 91h1M245 91h1M247 91h1M249 91h1M251 91h1M253 91h1M255 91h1M257 91h1M259 91h1M261 91h1M263 91h1M265 91h1M273 91h1M275 91h1M277 91h1M279 91h1M281 91h1M283 91h1M285 91h1M303 91h1M305 91h1M307 91h1M309 91h1M311 91h1M335 91h1M337 91h1M339 91h1M341 91h1M343 91h1M345 91h1M347 91h1M349 91h1M351 91h1M353 91h1M5 93h1M7 93h1M9 93h1M11 93h1M13 93h1M15 93h1M17 93h1M19 93h1M21 93h1M69 93h1M71 93h1M73 93h1M75 93h1M77 93h1M79 93h1M81 93h1M83 93h1M85 93h1M87 93h1M95 93h1M97 93h1M99 93h1M101 93h1M103 93h1M105 93h1M107 93h1M121 93h1M141 93h1M145 93h1M149 93h1M163 93h1M165 93h1M167 93h1M169 93h1M171 93h1M173 93h1M175 93h1M183 93h1M185 93h1M187 93h1M189 93h1M191 93h1M193 93h1M195 93h1M197 93h1M199 93h1M201 93h1M247 93h1M249 93h1M251 93h1M253 93h1M255 93h1M257 93h1M259 93h1M261 93h1M263 93h1M265 93h1M273 93h1M275 93h1M277 93h1M279 93h1M281 93h1M283 93h1M285 93h1M335 93h1M337 93h1M339 93h1M341 93h1M343 93h1M345 93h1M347 93h1M349 93h1M351 93h1M353 93h1M5 95h1M7 95h1M9 95h1M11 95h1M13 95h1M15 95h1M17 95h1M19 95h1M21 95h1M67 95h1M69 95h1M71 95h1M73 95h1M75 95h1M77 95h1M79 95h1M81 95h1M83 95h1M85 95h1M87 95h1M95 95h1M97 95h1M99 95h1M101 95h1M103 95h1M105 95h1M107 95h1M119 95h1M123 95h1M143 95h1M147 95h1M151 95h1M163 95h1M165 95h1M167 95h1M169 95h1M171 95h1M173 95h1M175 95h1M183 95h1M185 95h1M187 95h1M189 95h1M191 95h1M193 95h1M195 95h1M197 95h1M199 95h1M201 95h1M247 95h1M249 95h1M251 95h1M253 95h1M255 95h1M257 95h1M259 95h1M261 95h1M263 95h1M265 95h1M273 95h1M275 95h1M277 95h1M279 95h1M281 95h1M283 95h1M285 95h1M333 95h1M335 95h1M337 95h1M339 95h1M341 95h1M343 95h1M345 95h1M347 95h1M349 95h1M351 95h1M353 95h1M5 97h1M7 97h1M9 97h1M11 97h1M13 97h1M15 97h1M17 97h1M19 97h1M21 97h1M65 97h1M67 97h1M69 97h1M71 97h1M73 97h1M75 97h1M77 97h1M79 97h1M81 97h1M83 97h1M85 97h1M87 97h1M95 97h1M97 97h1M99 97h1M101 97h1M103 97h1M105 97h1M107 97h1M121 97h1M145 97h1M149 97h1M163 97h1M165 97h1M167 97h1M169 97h1M171 97h1M173 97h1M175 97h1M183 97h1M185 97h1M187 97h1M189 97h1M191 97h1M193 97h1M195 97h1M197 97h1M199 97h1M201 97h1M247 97h1M249 97h1M251 97h1M253 97h1M255 97h1M257 97h1M259 97h1M261 97h1M263 97h1M265 97h1M273 97h1M275 97h1M277 97h1M279 97h1M281 97h1M283 97h1M285 97h1M331 97h1M333 97h1M335 97h1M337 97h1M339 97h1M341 97h1M343 97h1M345 97h1M347 97h1M349 97h1M351 97h1M353 97h1M5 99h1M7 99h1M9 99h1M11 99h1M13 99h1M15 99h1M17 99h1M19 99h1M21 99h1M63 99h1M65 99h1M67 99h1M69 99h1M71 99h1M73 99h1M75 99h1M77 99h1M79 99h1M81 99h1M83 99h1M85 99h1M87 99h1M95 99h1M97 99h1M99 99h1M101 99h1M103 99h1M105 99h1M107 99h1M119 99h1M123 99h1M143 99h1M147 99h1M151 99h1M163 99h1M165 99h1M167 99h1M169 99h1M171 99h1M173 99h1M175 99h1M183 99h1M185 99h1M187 99h1M189 99h1M191 99h1M193 99h1M195 99h1M197 99h1M199 99h1M201 99h1M247 99h1M249 99h1M251 99h1M253 99h1M255 99h1M257 99h1M259 99h1M261 99h1M263 99h1M265 99h1M273 99h1M275 99h1M277 99h1M279 99h1M281 99h1M283 99h1M285 99h1M329 99h1M331 99h1M333 99h1M335 99h1M337 99h1M339 99h1M341 99h1M343 99h1M345 99h1M347 99h1M349 99h1M351 99h1M353 99h1M5 101h1M7 101h1M9 101h1M11 101h1M13 101h1M15 101h1M17 101h1M19 101h1M21 101h1M23 101h1M61 101h1M63 101h1M65 101h1M67 101h1M69 101h1M71 101h1M73 101h1M75 101h1M77 101h1M79 101h1M81 101h1M83 101h1M85 101h1M87 101h1M95 101h1M97 101h1M99 101h1M101 101h1M103 101h1M105 101h1M107 101h1M121 101h1M145 101h1M149 101h1M163 101h1M165 101h1M167 101h1M169 101h1M171 101h1M173 101h1M175 101h1M183 101h1M185 101h1M187 101h1M189 101h1M191 101h1M193 101h1M195 101h1M197 101h1M199 101h1M201 101h1M247 101h1M249 101h1M251 101h1M253 101h1M255 101h1M257 101h1M259 101h1M261 101h1M263 101h1M265 101h1M273 101h1M275 101h1M277 101h1M279 101h1M281 101h1M283 101h1M285 101h1M325 101h1M327 101h1M329 101h1M331 101h1M333 101h1M335 101h1M337 101h1M339 101h1M341 101h1M343 101h1M345 101h1M347 101h1M349 101h1M351 101h1M353 101h1M5 103h1M7 103h1M9 103h1M11 103h1M13 103h1M15 103h1M17 103h1M19 103h1M21 103h1M23 103h1M25 103h1M27 103h1M29 103h1M31 103h1M57 103h1M59 103h1M61 103h1M63 103h1M65 103h1M67 103h1M69 103h1M71 103h1M73 103h1M75 103h1M77 103h1M79 103h1M81 103h1M83 103h1M85 103h1M87 103h1M95 103h1M97 103h1M99 103h1M101 103h1M103 103h1M105 103h1M107 103h1M119 103h1M123 103h1M147 103h1M151 103h1M163 103h1M165 103h1M167 103h1M169 103h1M171 103h1M173 103h1M175 103h1M183 103h1M185 103h1M187 103h1M189 103h1M191 103h1M193 103h1M195 103h1M197 103h1M199 103h1M201 103h1M247 103h1M249 103h1M251 103h1M253 103h1M255 103h1M257 103h1M259 103h1M261 103h1M263 103h1M265 103h1M273 103h1M275 103h1M277 103h1M279 103h1M281 103h1M283 103h1M285 103h1M319 103h1M321 103h1M323 103h1M325 103h1M327 103h1M329 103h1M331 103h1M333 103h1M335 103h1M337 103h1M339 103h1M341 103h1M343 103h1M345 103h1M347 103h1M349 103h1M351 103h1M353 103h1M5 105h1M7 105h1M9 105h1M11 105h1M13 105h1M15 105h1M17 105h1M19 105h1M21 105h1M23 105h1M25 105h1M27 105h1M29 105h1M31 105h1M33 105h1M35 105h1M37 105h1M39 105h1M41 105h1M43 105h1M45 105h1M47 105h1M49 105h1M51 105h1M53 105h1M55 105h1M57 105h1M59 105h1M61 105h1M63 105h1M65 105h1M67 105h1M69 105h1M71 105h1M73 105h1M75 105h1M77 105h1M79 105h1M81 105h1M83 105h1M85 105h1M87 105h1M95 105h1M97 105h1M99 105h1M101 105h1M103 105h1M105 105h1M107 105h1M109 105h1M111 105h1M113 105h1M115 105h1M117 105h1M153 105h1M155 105h1M157 105h1M159 105h1M161 105h1M163 105h1M165 105h1M167 105h1M169 105h1M171 105h1M173 105h1M175 105h1M183 105h1M185 105h1M187 105h1M189 105h1M191 105h1M193 105h1M195 105h1M197 105h1M199 105h1M201 105h1M203 105h1M205 105h1M207 105h1M209 105h1M211 105h1M213 105h1M215 105h1M217 105h1M219 105h1M221 105h1M223 105h1M225 105h1M227 105h1M229 105h1M231 105h1M233 105h1M235 105h1M237 105h1M239 105h1M241 105h1M243 105h1M245 105h1M247 105h1M249 105h1M251 105h1M253 105h1M255 105h1M257 105h1M259 105h1M261 105h1M263 105h1M265 105h1M273 105h1M275 105h1M277 105h1M279 105h1M281 105h1M283 105h1M285 105h1M287 105h1M289 105h1M291 105h1M293 105h1M295 105h1M297 105h1M299 105h1M301 105h1M303 105h1M305 105h1M307 105h1M309 105h1M311 105h1M313 105h1M315 105h1M317 105h1M319 105h1M321 105h1M323 105h1M325 105h1M327 105h1M329 105h1M331 105h1M333 105h1M335 105h1M337 105h1M339 105h1M341 105h1M343 105h1M345 105h1M347 105h1M349 105h1M351 105h1M353 105h1M5 107h1M7 107h1M9 107h1M11 107h1M13 107h1M15 107h1M17 107h1M19 107h1M21 107h1M23 107h1M25 107h1M27 107h1M29 107h1M31 107h1M33 107h1M35 107h1M37 107h1M39 107h1M41 107h1M43 107h1M45 107h1M47 107h1M49 107h1M51 107h1M53 107h1M55 107h1M57 107h1M59 107h1M61 107h1M63 107h1M65 107h1M67 107h1M69 107h1M71 107h1M73 107h1M75 107h1M77 107h1M79 107h1M81 107h1M83 107h1M85 107h1M87 107h1M95 107h1M97 107h1M99 107h1M101 107h1M103 107h1M105 107h1M107 107h1M109 107h1M111 107h1M113 107h1M115 107h1M117 107h1M153 107h1M155 107h1M157 107h1M159 107h1M161 107h1M163 107h1M165 107h1M167 107h1M169 107h1M171 107h1M173 107h1M175 107h1M183 107h1M185 107h1M187 107h1M189 107h1M191 107h1M193 107h1M195 107h1M197 107h1M199 107h1M201 107h1M203 107h1M205 107h1M207 107h1M209 107h1M211 107h1M213 107h1M215 107h1M217 107h1M219 107h1M221 107h1M223 107h1M225 107h1M227 107h1M229 107h1M231 107h1M233 107h1M235 107h1M237 107h1M239 107h1M241 107h1M243 107h1M245 107h1M247 107h1M249 107h1M251 107h1M253 107h1M255 107h1M257 107h1M259 107h1M261 107h1M263 107h1M265 107h1M273 107h1M275 107h1M277 107h1M279 107h1M281 107h1M283 107h1M285 107h1M287 107h1M289 107h1M291 107h1M293 107h1M295 107h1M297 107h1M299 107h1M301 107h1M303 107h1M305 107h1M307 107h1M309 107h1M311 107h1M313 107h1M315 107h1M317 107h1M319 107h1M321 107h1M323 107h1M325 107h1M327 107h1M329 107h1M331 107h1M333 107h1M335 107h1M337 107h1M339 107h1M341 107h1M343 107h1M345 107h1M347 107h1M349 107h1M351 107h1M353 107h1M9 118h7M25 118h12M43 118h6M53 118h4M63 118h4M73 118h4M88 118h7M107 118h7M124 118h12M142 118h9M167 118h5M182 118h4M222 118h6M232 118h4M241 118h4M251 118h4M261 118h6M270 118h5M281 118h14M301 118h12M322 118h12M344 118h8M6 120h12M25 120h12M43 120h6M53 120h4M63 120h4M73 120h4M85 120h12M104 120h12M124 120h12M142 120h12M166 120h6M182 120h4M222 120h6M232 120h4M241 120h4M251 120h4M261 120h6M269 120h6M281 120h14M301 120h14M322 120h12M342 120h12M5 122h5M15 122h4M29 122h4M43 122h7M53 122h4M63 122h4M73 122h4M84 122h5M94 122h4M103 122h5M113 122h4M128 122h4M142 122h4M151 122h5M166 122h7M182 122h4M222 122h7M232 122h4M241 122h4M251 122h4M261 122h7M269 122h6M281 122h4M301 122h4M311 122h5M326 122h4M340 122h5M351 122h4M5 124h4M29 124h4M43 124h7M53 124h4M63 124h4M73 124h4M84 124h4M103 124h4M113 124h5M128 124h4M142 124h4M152 124h4M165 124h8M182 124h4M222 124h7M232 124h4M241 124h4M251 124h4M261 124h14M281 124h4M301 124h4M312 124h4M326 124h4M340 124h4M5 126h6M29 126h4M43 126h4M48 126h3M53 126h4M63 126h4M73 126h4M84 126h6M102 126h5M114 126h4M128 126h4M142 126h4M153 126h4M165 126h9M182 126h4M222 126h4M227 126h3M232 126h4M241 126h4M251 126h4M261 126h14M281 126h4M301 126h4M312 126h4M326 126h4M339 126h5M7 128h8M29 128h4M43 128h4M48 128h3M53 128h4M63 128h4M73 128h4M86 128h8M102 128h4M114 128h4M128 128h4M142 128h4M153 128h4M164 128h4M170 128h4M182 128h4M222 128h4M227 128h3M232 128h4M241 128h4M251 128h4M261 128h4M266 128h4M271 128h4M281 128h14M301 128h4M309 128h6M326 128h4M339 128h4M10 130h7M29 130h4M43 130h4M49 130h3M53 130h4M63 130h4M73 130h4M89 130h7M102 130h4M114 130h4M128 130h4M142 130h4M153 130h4M163 130h5M171 130h4M182 130h4M222 130h4M228 130h3M232 130h4M241 130h4M251 130h4M261 130h4M266 130h4M271 130h4M281 130h14M301 130h12M326 130h4M339 130h4M13 132h6M29 132h4M43 132h4M49 132h3M54 132h3M63 132h4M73 132h4M92 132h6M102 132h4M114 132h4M128 132h4M142 132h4M153 132h4M163 132h13M182 132h4M222 132h4M228 132h3M233 132h3M241 132h4M251 132h4M261 132h4M267 132h2M271 132h4M281 132h4M301 132h4M308 132h4M326 132h4M339 132h4M15 134h4M29 134h4M43 134h4M50 134h3M54 134h3M63 134h4M73 134h4M94 134h4M102 134h5M114 134h4M128 134h4M142 134h4M153 134h4M162 134h14M182 134h4M222 134h4M229 134h3M233 134h3M241 134h4M251 134h4M261 134h4M271 134h4M281 134h4M301 134h4M309 134h4M326 134h4M339 134h5M15 136h4M29 136h4M43 136h4M50 136h7M63 136h4M73 136h4M94 136h4M103 136h4M113 136h5M128 136h4M142 136h4M152 136h4M162 136h4M172 136h5M182 136h4M222 136h4M229 136h7M241 136h4M251 136h4M261 136h4M271 136h4M281 136h4M301 136h4M310 136h5M326 136h4M340 136h4M5 138h4M14 138h5M29 138h4M43 138h4M51 138h6M63 138h5M72 138h5M84 138h4M93 138h5M103 138h5M112 138h5M128 138h4M142 138h4M150 138h5M161 138h5M173 138h4M182 138h4M222 138h4M230 138h6M241 138h5M250 138h5M261 138h4M271 138h4M281 138h4M301 138h4M311 138h5M326 138h4M341 138h5M351 138h4M6 140h11M25 140h12M43 140h4M51 140h6M64 140h12M85 140h11M105 140h11M124 140h12M142 140h12M160 140h5M173 140h5M182 140h14M222 140h4M230 140h6M243 140h11M261 140h4M271 140h4M281 140h14M301 140h4M312 140h5M322 140h12M342 140h12M8 142h6M25 142h12M43 142h4M52 142h5M67 142h6M87 142h6M107 142h6M124 142h12M142 142h8M160 142h4M174 142h5M182 142h14M222 142h4M231 142h5M245 142h6M261 142h4M271 142h4M281 142h14M301 142h4M314 142h4M322 142h12M344 142h8M5 152h12M24 152h6M34 152h4M47 152h8M63 152h12M83 152h14M103 152h6M112 152h5M123 152h14M142 152h6M152 152h4M160 152h18M187 152h5M202 152h4M241 152h9M261 152h14M279 152h5M293 152h4M302 152h12M325 152h8M340 152h14M5 154h12M24 154h6M34 154h4M45 154h12M63 154h14M83 154h14M103 154h6M111 154h6M123 154h14M142 154h6M152 154h4M160 154h18M186 154h6M202 154h4M241 154h12M261 154h14M280 154h4M292 154h5M302 154h12M323 154h12M340 154h14M9 156h4M24 156h7M34 156h4M43 156h5M54 156h4M63 156h4M73 156h5M83 156h4M103 156h7M111 156h6M123 156h4M142 156h7M152 156h4M167 156h4M186 156h7M202 156h4M241 156h4M250 156h5M261 156h4M280 156h5M292 156h4M306 156h4M321 156h5M332 156h4M340 156h4M9 158h4M24 158h7M34 158h4M43 158h4M63 158h4M74 158h4M83 158h4M103 158h14M123 158h4M142 158h7M152 158h4M167 158h4M185 158h8M202 158h4M241 158h4M251 158h4M261 158h4M281 158h4M291 158h5M306 158h4M321 158h4M340 158h4M9 160h4M24 160h4M29 160h3M34 160h4M42 160h5M63 160h4M74 160h4M83 160h4M103 160h14M123 160h4M142 160h4M147 160h3M152 160h4M167 160h4M185 160h9M202 160h4M241 160h4M252 160h4M261 160h4M281 160h5M291 160h4M306 160h4M320 160h5M340 160h4M9 162h4M24 162h4M29 162h3M34 162h4M42 162h4M63 162h4M71 162h6M83 162h14M103 162h4M108 162h4M113 162h4M123 162h14M142 162h4M147 162h3M152 162h4M167 162h4M184 162h4M190 162h4M202 162h4M241 162h4M252 162h4M261 162h14M282 162h4M290 162h5M306 162h4M320 162h4M340 162h14M9 164h4M24 164h4M30 164h3M34 164h4M42 164h4M63 164h12M83 164h14M103 164h4M108 164h4M113 164h4M123 164h14M142 164h4M148 164h3M152 164h4M167 164h4M183 164h5M191 164h4M202 164h4M241 164h4M252 164h4M261 164h14M282 164h5M289 164h5M306 164h4M320 164h4M340 164h14M9 166h4M24 166h4M30 166h3M35 166h3M42 166h4M63 166h4M70 166h4M83 166h4M103 166h4M109 166h2M113 166h4M123 166h4M142 166h4M148 166h3M153 166h3M167 166h4M183 166h13M202 166h4M241 166h4M252 166h4M261 166h4M283 166h5M289 166h4M306 166h4M320 166h4M340 166h4M9 168h4M24 168h4M31 168h3M35 168h3M42 168h5M63 168h4M71 168h4M83 168h4M103 168h4M113 168h4M123 168h4M142 168h4M149 168h3M153 168h3M167 168h4M182 168h14M202 168h4M241 168h4M252 168h4M261 168h4M284 168h9M306 168h4M320 168h5M340 168h4M9 170h4M24 170h4M31 170h7M43 170h4M63 170h4M72 170h5M83 170h4M103 170h4M113 170h4M123 170h4M142 170h4M149 170h7M167 170h4M182 170h4M192 170h5M202 170h4M241 170h4M251 170h4M261 170h4M284 170h8M306 170h4M321 170h4M340 170h4M9 172h4M24 172h4M32 172h6M44 172h5M54 172h4M63 172h4M73 172h5M83 172h4M103 172h4M113 172h4M123 172h4M142 172h4M150 172h6M167 172h4M181 172h5M193 172h4M202 172h4M241 172h4M249 172h5M261 172h4M285 172h7M306 172h4M322 172h5M332 172h4M340 172h4M5 174h12M24 174h4M32 174h6M45 174h12M63 174h4M74 174h5M83 174h14M103 174h4M113 174h4M123 174h14M142 174h4M150 174h6M167 174h4M180 174h5M193 174h5M202 174h14M241 174h12M261 174h14M285 174h6M302 174h12M323 174h12M340 174h14M5 176h12M24 176h4M33 176h5M47 176h8M63 176h4M76 176h4M83 176h14M103 176h4M113 176h4M123 176h14M142 176h4M151 176h5M167 176h4M180 176h4M194 176h5M202 176h14M241 176h8M261 176h14M286 176h5M302 176h12M325 176h8M340 176h14M5 187h349M5 188h1M353 188h1M5 189h1M7 189h345M353 189h1M5 190h1M7 190h1M351 190h1M353 190h1M5 191h1M7 191h1M351 191h1M353 191h1M5 192h1M7 192h1M351 192h1M353 192h1M5 193h1M7 193h1M351 193h1M353 193h1M5 194h1M7 194h1M351 194h1M353 194h1M5 195h1M7 195h1M351 195h1M353 195h1M5 196h1M7 196h1M19 196h2M26 196h2M71 196h2M97 196h9M188 196h5M205 196h2M270 196h2M351 196h1M353 196h1M5 197h1M7 197h1M19 197h2M26 197h2M71 197h2M97 197h2M188 197h2M193 197h2M205 197h2M270 197h2M308 197h2M351 197h1M353 197h1M5 198h1M7 198h1M19 198h2M26 198h2M71 198h2M97 198h2M188 198h2M194 198h2M308 198h2M351 198h1M353 198h1M5 199h1M7 199h1M19 199h2M26 199h2M71 199h2M97 199h2M188 199h2M194 199h2M308 199h2M351 199h1M353 199h1M5 200h1M7 200h1M19 200h2M26 200h2M33 200h6M47 200h2M51 200h3M60 200h5M71 200h2M75 200h3M97 200h2M110 200h2M114 200h3M126 200h3M138 200h2M142 200h3M151 200h8M161 200h2M170 200h2M188 200h2M195 200h2M202 200h5M216 200h5M229 200h5M243 200h3M252 200h2M255 200h2M259 200h2M267 200h5M279 200h2M283 200h3M293 200h6M306 200h7M320 200h5M333 200h2M337 200h3M351 200h1M353 200h1M5 201h1M7 201h1M19 201h2M26 201h2M32 201h2M38 201h2M47 201h2M50 201h1M54 201h1M58 201h3M65 201h1M71 201h4M77 201h2M97 201h2M110 201h4M116 201h2M124 201h2M129 201h2M138 201h2M141 201h1M145 201h1M150 201h2M154 201h3M162 201h2M169 201h2M188 201h2M195 201h2M205 201h2M214 201h3M221 201h1M227 201h3M234 201h1M241 201h2M246 201h2M252 201h3M256 201h3M260 201h2M270 201h2M279 201h4M285 201h2M292 201h2M298 201h2M308 201h2M319 201h2M324 201h2M333 201h2M336 201h1M340 201h1M351 201h1M353 201h1M5 202h1M7 202h1M19 202h2M26 202h2M39 202h2M47 202h3M58 202h2M71 202h2M78 202h2M97 202h2M110 202h2M117 202h2M124 202h2M129 202h2M138 202h3M149 202h2M155 202h2M162 202h2M169 202h2M188 202h2M195 202h2M205 202h2M214 202h2M227 202h2M241 202h2M246 202h2M252 202h2M256 202h2M260 202h2M270 202h2M279 202h2M286 202h2M299 202h2M308 202h2M319 202h2M324 202h2M333 202h3M351 202h1M353 202h1M5 203h1M7 203h1M19 203h9M39 203h2M47 203h3M58 203h3M71 203h2M78 203h2M97 203h9M110 203h2M117 203h2M123 203h2M130 203h2M138 203h3M149 203h2M155 203h2M162 203h2M169 203h1M188 203h2M195 203h2M205 203h2M214 203h3M227 203h3M240 203h2M247 203h2M252 203h2M256 203h2M260 203h2M270 203h2M279 203h2M286 203h2M299 203h2M308 203h2M318 203h2M325 203h2M333 203h3M351 203h1M353 203h1M5 204h1M7 204h1M19 204h2M26 204h2M39 204h2M47 204h2M59 204h4M71 204h2M78 204h2M97 204h2M110 204h2M117 204h2M123 204h2M130 204h2M138 204h2M149 204h2M155 204h2M163 204h2M168 204h2M188 204h2M195 204h2M205 204h2M215 204h4M228 204h4M240 204h2M247 204h2M252 204h2M256 204h2M260 204h2M270 204h2M279 204h2M286 204h2M299 204h2M308 204h2M318 204h2M325 204h2M333 204h2M351 204h1M353 204h1M5 205h1M7 205h1M19 205h2M26 205h2M35 205h6M47 205h2M60 205h6M71 205h2M78 205h2M97 205h2M110 205h2M117 205h2M123 205h9M138 205h2M150 205h2M154 205h2M163 205h2M168 205h2M188 205h2M195 205h2M205 205h2M216 205h6M229 205h6M240 205h9M252 205h2M256 205h2M260 205h2M270 205h2M279 205h2M286 205h2M295 205h6M308 205h2M318 205h2M325 205h2M333 205h2M351 205h1M353 205h1M5 206h1M7 206h1M19 206h2M26 206h2M33 206h3M39 206h2M47 206h2M63 206h4M71 206h2M78 206h2M97 206h2M110 206h2M117 206h2M123 206h2M138 206h2M151 206h4M164 206h2M167 206h2M188 206h2M195 206h2M205 206h2M219 206h4M232 206h4M240 206h2M252 206h2M256 206h2M260 206h2M270 206h2M279 206h2M286 206h2M293 206h3M299 206h2M308 206h2M318 206h2M325 206h2M333 206h2M351 206h1M353 206h1M5 207h1M7 207h1M19 207h2M26 207h2M32 207h2M39 207h2M47 207h2M65 207h2M71 207h2M78 207h2M97 207h2M110 207h2M117 207h2M123 207h2M138 207h2M150 207h2M164 207h2M167 207h2M188 207h2M194 207h2M205 207h2M221 207h2M234 207h2M240 207h2M252 207h2M256 207h2M260 207h2M270 207h2M279 207h2M286 207h2M292 207h2M299 207h2M308 207h2M318 207h2M325 207h2M333 207h2M351 207h1M353 207h1M5 208h1M7 208h1M19 208h2M26 208h2M32 208h2M38 208h3M47 208h2M65 208h2M71 208h2M78 208h2M97 208h2M110 208h2M117 208h2M124 208h2M138 208h2M149 208h2M164 208h4M188 208h2M194 208h2M205 208h2M221 208h2M234 208h2M241 208h2M252 208h2M256 208h2M260 208h2M270 208h2M279 208h2M286 208h2M292 208h2M298 208h3M308 208h2M319 208h2M324 208h2M333 208h2M351 208h1M353 208h1M5 209h1M7 209h1M19 209h2M26 209h2M32 209h2M37 209h4M47 209h2M58 209h1M64 209h2M71 209h2M78 209h2M97 209h2M110 209h2M117 209h2M125 209h2M131 209h1M138 209h2M149 209h8M165 209h3M188 209h2M193 209h2M205 209h2M214 209h1M220 209h2M227 209h1M233 209h2M242 209h2M248 209h1M252 209h2M256 209h2M260 209h2M270 209h2M279 209h2M286 209h2M292 209h2M297 209h4M308 209h2M313 209h1M319 209h2M324 209h2M333 209h2M351 209h1M353 209h1M5 210h1M7 210h1M19 210h2M26 210h2M33 210h4M39 210h2M47 210h2M59 210h6M71 210h2M78 210h2M97 210h9M110 210h2M117 210h2M126 210h5M138 210h2M150 210h8M165 210h2M188 210h5M205 210h2M215 210h6M228 210h6M243 210h5M252 210h2M256 210h2M260 210h2M270 210h2M279 210h2M286 210h2M293 210h4M299 210h2M309 210h4M320 210h5M333 210h2M351 210h1M353 210h1M5 211h1M7 211h1M150 211h2M156 211h2M165 211h2M351 211h1M353 211h1M5 212h1M7 212h1M149 212h2M156 212h2M165 212h2M351 212h1M353 212h1M5 213h1M7 213h1M149 213h2M155 213h2M164 213h2M351 213h1M353 213h1M5 214h1M7 214h1M150 214h6M161 214h4M351 214h1M353 214h1M5 215h1M7 215h1M351 215h1M353 215h1M5 216h1M7 216h1M351 216h1M353 216h1M5 217h1M7 217h1M351 217h1M353 217h1M5 218h1M7 218h1M351 218h1M353 218h1M5 219h1M7 219h1M351 219h1M353 219h1M5 220h1M7 220h1M351 220h1M353 220h1M5 221h1M7 221h345M353 221h1M5 222h1M353 222h1M5 223h349" />
</svg>