<svg xmlns="http://www.w3.org/2000/svg" viewBox="0 -0.5 360 250" shape-rendering="crispEdges">
<metadata>Made with Pixels to Svg https://codepen.io/shshaw/pen/XbxvNj</metadata>
<path stroke="#ffffff" d="M5 23h1M7 23h1M9 23h1M11 23h1M13 23h1M15 23h1M17 23h1M19 23h1M21 23h1M23 23h1M25 23h1M27 23h1M29 23h1M31 23h1M33 23h1M35 23h1M37 23h1M39 23h1M41 23h1M43 23h1M45 23h1M47 23h1M49 23h1M51 23h1M53 23h1M55 23h1M57 23h1M59 23h1M61 23h1M63 23h1M65 23h1M67 23h1M69 23h1M71 23h1M73 23h1M75 23h1M77 23h1M79 23h1M81 23h1M83 23h1M85 23h1M87 23h1M95 23h1M97 23h1M99 23h1M101 23h1M103 23h1M105 23h1M107 23h1M109 23h1M111 23h1M113 23h1M115 23h1M117 23h1M119 23h1M121 23h1M123 23h1M125 23h1M127 23h1M129 23h1M131 23h1M133 23h1M135 23h1M137 23h1M139 23h1M141 23h1M143 23h1M145 23h1M147 23h1M149 23h1M151 23h1M153 23h1M155 23h1M157 23h1M159 23h1M161 23h1M163 23h1M165 23h1M167 23h1M169 23h1M171 23h1M173 23h1M175 23h1M183 23h1M185 23h1M187 23h1M189 23h1M191 23h1M193 23h1M195 23h1M197 23h1M199 23h1M201 23h1M203 23h1M205 23h1M207 23h1M209 23h1M211 23h1M213 23h1M215 23h1M217 23h1M219 23h1M221 23h1M223 23h1M225 23h1M227 23h1M229 23h1M231 23h1M233 23h1M235 23h1M237 23h1M239 23h1M241 23h1M243 23h1M245 23h1M247 23h1M249 23h1M251 23h1M253 23h1M255 23h1M257 23h1M259 23h1M261 23h1M263 23h1M265 23h1M273 23h1M275 23h1M277 23h1M279 23h1M281 23h1M283 23h1M285 23h1M287 23h1M289 23h1M291 23h1M293 23h1M295 23h1M297 23h1M299 23h1M301 23h1M303 23h1M305 23h1M307 23h1M309 23h1M311 23h1M313 23h1M315 23h1M317 23h1M319 23h1M321 23h1M323 23h1M325 23h1M327 23h1M329 23h1M331 23h1M333 23h1M335 23h1M337 23h1M339 23h1M341 23h1M343 23h1M345 23h1M347 23h1M349 23h1M351 23h1M353 23h1M355 23h1M5 25h1M7 25h1M9 25h1M11 25h1M13 25h1M15 25h1M33 25h1M35 25h1M37 25h1M39 25h1M41 25h1M43 25h1M45 25h1M47 25h1M49 25h1M51 25h1M53 25h1M55 25h1M57 25h1M59 25h1M77 25h1M79 25h1M81 25h1M83 25h1M85 25h1M87 25h1M95 25h1M97 25h1M99 25h1M101 25h1M103 25h1M105 25h1M107 25h1M109 25h1M111 25h1M113 25h1M115 25h1M117 25h1M119 25h1M121 25h1M123 25h1M147 25h1M149 25h1M151 25h1M153 25h1M155 25h1M157 25h1M159 25h1M161 25h1M163 25h1M165 25h1M167 25h1M169 25h1M171 25h1M173 25h1M175 25h1M183 25h1M185 25h1M187 25h1M189 25h1M191 25h1M193 25h1M195 25h1M235 25h1M237 25h1M239 25h1M241 25h1M243 25h1M245 25h1M247 25h1M249 25h1M251 25h1M253 25h1M255 25h1M257 25h1M259 25h1M261 25h1M263 25h1M265 25h1M273 25h1M275 25h1M277 25h1M279 25h1M281 25h1M283 25h1M285 25h1M287 25h1M289 25h1M291 25h1M293 25h1M295 25h1M297 25h1M299 25h1M301 25h1M303 25h1M305 25h1M307 25h1M309 25h1M311 25h1M313 25h1M315 25h1M317 25h1M319 25h1M321 25h1M323 25h1M325 25h1M327 25h1M329 25h1M331 25h1M333 25h1M335 25h1M337 25h1M339 25h1M341 25h1M343 25h1M345 25h1M347 25h1M349 25h1M351 25h1M353 25h1M355 25h1M5 27h1M7 27h1M9 27h1M11 27h1M13 27h1M15 27h1M33 27h1M35 27h1M37 27h1M39 27h1M41 27h1M43 27h1M45 27h1M47 27h1M49 27h1M51 27h1M53 27h1M55 27h1M57 27h1M75 27h1M77 27h1M79 27h1M81 27h1M83 27h1M85 27h1M87 27h1M95 27h1M97 27h1M99 27h1M101 27h1M103 27h1M105 27h1M107 27h1M109 27h1M111 27h1M113 27h1M115 27h1M117 27h1M119 27h1M121 27h1M123 27h1M147 27h1M149 27h1M151 27h1M153 27h1M155 27h1M157 27h1M159 27h1M161 27h1M163 27h1M165 27h1M167 27h1M169 27h1M171 27h1M173 27h1M175 27h1M183 27h1M185 27h1M187 27h1M189 27h1M191 27h1M193 27h1M195 27h1M239 27h1M241 27h1M243 27h1M245 27h1M247 27h1M249 27h1M251 27h1M253 27h1M255 27h1M257 27h1M259 27h1M261 27h1M263 27h1M265 27h1M273 27h1M275 27h1M277 27h1M279 27h1M281 27h1M283 27h1M285 27h1M287 27h1M289 27h1M291 27h1M337 27h1M339 27h1M341 27h1M343 27h1M345 27h1M347 27h1M349 27h1M351 27h1M353 27h1M355 27h1M5 29h1M7 29h1M9 29h1M11 29h1M13 29h1M15 29h1M33 29h1M35 29h1M37 29h1M39 29h1M41 29h1M43 29h1M45 29h1M47 29h1M49 29h1M51 29h1M53 29h1M55 29h1M57 29h1M75 29h1M77 29h1M79 29h1M81 29h1M83 29h1M85 29h1M87 29h1M95 29h1M97 29h1M99 29h1M101 29h1M103 29h1M105 29h1M107 29h1M109 29h1M111 29h1M113 29h1M115 29h1M117 29h1M119 29h1M121 29h1M123 29h1M147 29h1M149 29h1M151 29h1M153 29h1M155 29h1M157 29h1M159 29h1M161 29h1M163 29h1M165 29h1M167 29h1M169 29h1M171 29h1M173 29h1M175 29h1M183 29h1M185 29h1M187 29h1M189 29h1M191 29h1M193 29h1M195 29h1M243 29h1M245 29h1M247 29h1M249 29h1M251 29h1M253 29h1M255 29h1M257 29h1M259 29h1M261 29h1M263 29h1M265 29h1M273 29h1M275 29h1M277 29h1M279 29h1M281 29h1M283 29h1M285 29h1M287 29h1M289 29h1M291 29h1M337 29h1M339 29h1M341 29h1M343 29h1M345 29h1M347 29h1M349 29h1M351 29h1M353 29h1M355 29h1M5 31h1M7 31h1M9 31h1M11 31h1M13 31h1M15 31h1M17 31h1M35 31h1M37 31h1M39 31h1M41 31h1M43 31h1M45 31h1M47 31h1M49 31h1M51 31h1M53 31h1M55 31h1M57 31h1M75 31h1M77 31h1M79 31h1M81 31h1M83 31h1M85 31h1M87 31h1M95 31h1M97 31h1M99 31h1M101 31h1M103 31h1M105 31h1M107 31h1M109 31h1M111 31h1M113 31h1M115 31h1M117 31h1M119 31h1M121 31h1M123 31h1M147 31h1M149 31h1M151 31h1M153 31h1M155 31h1M157 31h1M159 31h1M161 31h1M163 31h1M165 31h1M167 31h1M169 31h1M171 31h1M173 31h1M175 31h1M183 31h1M185 31h1M187 31h1M189 31h1M191 31h1M193 31h1M195 31h1M245 31h1M247 31h1M249 31h1M251 31h1M253 31h1M255 31h1M257 31h1M259 31h1M261 31h1M263 31h1M265 31h1M273 31h1M275 31h1M277 31h1M279 31h1M281 31h1M283 31h1M285 31h1M287 31h1M289 31h1M291 31h1M337 31h1M339 31h1M341 31h1M343 31h1M345 31h1M347 31h1M349 31h1M351 31h1M353 31h1M355 31h1M5 33h1M7 33h1M9 33h1M11 33h1M13 33h1M15 33h1M17 33h1M35 33h1M37 33h1M39 33h1M41 33h1M43 33h1M45 33h1M47 33h1M49 33h1M51 33h1M53 33h1M55 33h1M57 33h1M75 33h1M77 33h1M79 33h1M81 33h1M83 33h1M85 33h1M87 33h1M95 33h1M97 33h1M99 33h1M101 33h1M103 33h1M105 33h1M107 33h1M109 33h1M111 33h1M113 33h1M115 33h1M117 33h1M119 33h1M121 33h1M149 33h1M151 33h1M153 33h1M155 33h1M157 33h1M159 33h1M161 33h1M163 33h1M165 33h1M167 33h1M169 33h1M171 33h1M173 33h1M175 33h1M183 33h1M185 33h1M187 33h1M189 33h1M191 33h1M193 33h1M195 33h1M247 33h1M249 33h1M251 33h1M253 33h1M255 33h1M257 33h1M259 33h1M261 33h1M263 33h1M265 33h1M273 33h1M275 33h1M277 33h1M279 33h1M281 33h1M283 33h1M285 33h1M287 33h1M289 33h1M291 33h1M337 33h1M339 33h1M341 33h1M343 33h1M345 33h1M347 33h1M349 33h1M351 33h1M353 33h1M355 33h1M5 35h1M7 35h1M9 35h1M11 35h1M13 35h1M15 35h1M17 35h1M35 35h1M37 35h1M39 35h1M41 35h1M43 35h1M45 35h1M47 35h1M49 35h1M51 35h1M53 35h1M55 35h1M57 35h1M73 35h1M75 35h1M77 35h1M79 35h1M81 35h1M83 35h1M85 35h1M87 35h1M95 35h1M97 35h1M99 35h1M101 35h1M103 35h1M105 35h1M107 35h1M109 35h1M111 35h1M113 35h1M115 35h1M117 35h1M119 35h1M121 35h1M149 35h1M151 35h1M153 35h1M155 35h1M157 35h1M159 35h1M161 35h1M163 35h1M165 35h1M167 35h1M169 35h1M171 35h1M173 35h1M175 35h1M183 35h1M185 35h1M187 35h1M189 35h1M191 35h1M193 35h1M195 35h1M247 35h1M249 35h1M251 35h1M253 35h1M255 35h1M257 35h1M259 35h1M261 35h1M263 35h1M265 35h1M273 35h1M275 35h1M277 35h1M279 35h1M281 35h1M283 35h1M285 35h1M287 35h1M289 35h1M291 35h1M337 35h1M339 35h1M341 35h1M343 35h1M345 35h1M347 35h1M349 35h1M351 35h1M353 35h1M355 35h1M5 37h1M7 37h1M9 37h1M11 37h1M13 37h1M15 37h1M17 37h1M35 37h1M37 37h1M39 37h1M41 37h1M43 37h1M45 37h1M47 37h1M49 37h1M51 37h1M53 37h1M55 37h1M73 37h1M75 37h1M77 37h1M79 37h1M81 37h1M83 37h1M85 37h1M87 37h1M95 37h1M97 37h1M99 37h1M101 37h1M103 37h1M105 37h1M107 37h1M109 37h1M111 37h1M113 37h1M115 37h1M117 37h1M119 37h1M121 37h1M149 37h1M151 37h1M153 37h1M155 37h1M157 37h1M159 37h1M161 37h1M163 37h1M165 37h1M167 37h1M169 37h1M171 37h1M173 37h1M175 37h1M183 37h1M185 37h1M187 37h1M189 37h1M191 37h1M193 37h1M195 37h1M249 37h1M251 37h1M253 37h1M255 37h1M257 37h1M259 37h1M261 37h1M263 37h1M265 37h1M273 37h1M275 37h1M277 37h1M279 37h1M281 37h1M283 37h1M285 37h1M287 37h1M289 37h1M291 37h1M337 37h1M339 37h1M341 37h1M343 37h1M345 37h1M347 37h1M349 37h1M351 37h1M353 37h1M355 37h1M5 39h1M7 39h1M9 39h1M11 39h1M13 39h1M15 39h1M17 39h1M19 39h1M35 39h1M37 39h1M39 39h1M41 39h1M43 39h1M45 39h1M47 39h1M49 39h1M51 39h1M53 39h1M55 39h1M73 39h1M75 39h1M77 39h1M79 39h1M81 39h1M83 39h1M85 39h1M87 39h1M95 39h1M97 39h1M99 39h1M101 39h1M103 39h1M105 39h1M107 39h1M109 39h1M111 39h1M113 39h1M115 39h1M117 39h1M119 39h1M121 39h1M135 39h1M149 39h1M151 39h1M153 39h1M155 39h1M157 39h1M159 39h1M161 39h1M163 39h1M165 39h1M167 39h1M169 39h1M171 39h1M173 39h1M175 39h1M183 39h1M185 39h1M187 39h1M189 39h1M191 39h1M193 39h1M195 39h1M213 39h1M215 39h1M217 39h1M219 39h1M221 39h1M223 39h1M225 39h1M227 39h1M249 39h1M251 39h1M253 39h1M255 39h1M257 39h1M259 39h1M261 39h1M263 39h1M265 39h1M273 39h1M275 39h1M277 39h1M279 39h1M281 39h1M283 39h1M285 39h1M287 39h1M289 39h1M291 39h1M293 39h1M295 39h1M297 39h1M299 39h1M301 39h1M303 39h1M305 39h1M323 39h1M325 39h1M327 39h1M329 39h1M331 39h1M333 39h1M335 39h1M337 39h1M339 39h1M341 39h1M343 39h1M345 39h1M347 39h1M349 39h1M351 39h1M353 39h1M355 39h1M5 41h1M7 41h1M9 41h1M11 41h1M13 41h1M15 41h1M17 41h1M19 41h1M37 41h1M39 41h1M41 41h1M43 41h1M45 41h1M47 41h1M49 41h1M51 41h1M53 41h1M55 41h1M73 41h1M75 41h1M77 41h1M79 41h1M81 41h1M83 41h1M85 41h1M87 41h1M95 41h1M97 41h1M99 41h1M101 41h1M103 41h1M105 41h1M107 41h1M109 41h1M111 41h1M113 41h1M115 41h1M117 41h1M119 41h1M135 41h1M151 41h1M153 41h1M155 41h1M157 41h1M159 41h1M161 41h1M163 41h1M165 41h1M167 41h1M169 41h1M171 41h1M173 41h1M175 41h1M183 41h1M185 41h1M187 41h1M189 41h1M191 41h1M193 41h1M195 41h1M213 41h1M215 41h1M217 41h1M219 41h1M221 41h1M223 41h1M225 41h1M227 41h1M229 41h1M249 41h1M251 41h1M253 41h1M255 41h1M257 41h1M259 41h1M261 41h1M263 41h1M265 41h1M273 41h1M275 41h1M277 41h1M279 41h1M281 41h1M283 41h1M285 41h1M287 41h1M289 41h1M291 41h1M293 41h1M295 41h1M297 41h1M299 41h1M301 41h1M303 41h1M305 41h1M323 41h1M325 41h1M327 41h1M329 41h1M331 41h1M333 41h1M335 41h1M337 41h1M339 41h1M341 41h1M343 41h1M345 41h1M347 41h1M349 41h1M351 41h1M353 41h1M355 41h1M5 43h1M7 43h1M9 43h1M11 43h1M13 43h1M15 43h1M17 43h1M19 43h1M37 43h1M39 43h1M41 43h1M43 43h1M45 43h1M47 43h1M49 43h1M51 43h1M53 43h1M55 43h1M71 43h1M73 43h1M75 43h1M77 43h1M79 43h1M81 43h1M83 43h1M85 43h1M87 43h1M95 43h1M97 43h1M99 43h1M101 43h1M103 43h1M105 43h1M107 43h1M109 43h1M111 43h1M113 43h1M115 43h1M117 43h1M119 43h1M135 43h1M151 43h1M153 43h1M155 43h1M157 43h1M159 43h1M161 43h1M163 43h1M165 43h1M167 43h1M169 43h1M171 43h1M173 43h1M175 43h1M183 43h1M185 43h1M187 43h1M189 43h1M191 43h1M193 43h1M195 43h1M213 43h1M215 43h1M217 43h1M219 43h1M221 43h1M223 43h1M225 43h1M227 43h1M229 43h1M231 43h1M249 43h1M251 43h1M253 43h1M255 43h1M257 43h1M259 43h1M261 43h1M263 43h1M265 43h1M273 43h1M275 43h1M277 43h1M279 43h1M281 43h1M283 43h1M285 43h1M287 43h1M289 43h1M291 43h1M293 43h1M295 43h1M297 43h1M299 43h1M301 43h1M303 43h1M305 43h1M323 43h1M325 43h1M327 43h1M329 43h1M331 43h1M333 43h1M335 43h1M337 43h1M339 43h1M341 43h1M343 43h1M345 43h1M347 43h1M349 43h1M351 43h1M353 43h1M355 43h1M5 45h1M7 45h1M9 45h1M11 45h1M13 45h1M15 45h1M17 45h1M19 45h1M37 45h1M39 45h1M41 45h1M43 45h1M45 45h1M47 45h1M49 45h1M51 45h1M53 45h1M55 45h1M71 45h1M73 45h1M75 45h1M77 45h1M79 45h1M81 45h1M83 45h1M85 45h1M87 45h1M95 45h1M97 45h1M99 45h1M101 45h1M103 45h1M105 45h1M107 45h1M109 45h1M111 45h1M113 45h1M115 45h1M117 45h1M119 45h1M135 45h1M151 45h1M153 45h1M155 45h1M157 45h1M159 45h1M161 45h1M163 45h1M165 45h1M167 45h1M169 45h1M171 45h1M173 45h1M175 45h1M183 45h1M185 45h1M187 45h1M189 45h1M191 45h1M193 45h1M195 45h1M213 45h1M215 45h1M217 45h1M219 45h1M221 45h1M223 45h1M225 45h1M227 45h1M229 45h1M231 45h1M249 45h1M251 45h1M253 45h1M255 45h1M257 45h1M259 45h1M261 45h1M263 45h1M265 45h1M273 45h1M275 45h1M277 45h1M279 45h1M281 45h1M283 45h1M285 45h1M287 45h1M289 45h1M291 45h1M293 45h1M295 45h1M297 45h1M299 45h1M301 45h1M303 45h1M305 45h1M323 45h1M325 45h1M327 45h1M329 45h1M331 45h1M333 45h1M335 45h1M337 45h1M339 45h1M341 45h1M343 45h1M345 45h1M347 45h1M349 45h1M351 45h1M353 45h1M355 45h1M307 46h1M311 46h1M315 46h1M319 46h1M23 47h1M27 47h1M31 47h1M35 47h1M55 47h1M59 47h1M63 47h1M67 47h1M119 47h1M123 47h1M127 47h1M131 47h1M139 47h1M143 47h1M147 47h1M151 47h1M197 47h1M201 47h1M205 47h1M209 47h1M233 47h1M237 47h1M241 47h1M245 47h1M309 48h1M313 48h1M317 48h1M321 48h1M25 49h1M29 49h1M33 49h1M57 49h1M61 49h1M65 49h1M69 49h1M121 49h1M125 49h1M129 49h1M141 49h1M145 49h1M149 49h1M199 49h1M203 49h1M207 49h1M211 49h1M235 49h1M239 49h1M243 49h1M247 49h1M307 50h1M311 50h1M315 50h1M319 50h1M23 51h1M27 51h1M31 51h1M35 51h1M55 51h1M59 51h1M63 51h1M67 51h1M119 51h1M123 51h1M127 51h1M131 51h1M139 51h1M143 51h1M147 51h1M151 51h1M197 51h1M201 51h1M205 51h1M209 51h1M233 51h1M237 51h1M241 51h1M245 51h1M309 52h1M313 52h1M317 52h1M321 52h1M5 53h1M7 53h1M9 53h1M11 53h1M13 53h1M15 53h1M17 53h1M19 53h1M21 53h1M29 53h1M33 53h1M37 53h1M57 53h1M61 53h1M69 53h1M71 53h1M73 53h1M75 53h1M77 53h1M79 53h1M81 53h1M83 53h1M85 53h1M87 53h1M95 53h1M97 53h1M99 53h1M101 53h1M103 53h1M105 53h1M107 53h1M109 53h1M111 53h1M113 53h1M115 53h1M117 53h1M133 53h1M135 53h1M137 53h1M153 53h1M155 53h1M157 53h1M159 53h1M161 53h1M163 53h1M165 53h1M167 53h1M169 53h1M171 53h1M173 53h1M175 53h1M183 53h1M185 53h1M187 53h1M189 53h1M191 53h1M193 53h1M195 53h1M213 53h1M215 53h1M217 53h1M219 53h1M221 53h1M223 53h1M225 53h1M227 53h1M229 53h1M231 53h1M249 53h1M251 53h1M253 53h1M255 53h1M257 53h1M259 53h1M261 53h1M263 53h1M265 53h1M307 54h1M311 54h1M315 54h1M319 54h1M5 55h1M7 55h1M9 55h1M11 55h1M13 55h1M15 55h1M17 55h1M19 55h1M21 55h1M31 55h1M35 55h1M55 55h1M59 55h1M63 55h1M69 55h1M71 55h1M73 55h1M75 55h1M77 55h1M79 55h1M81 55h1M83 55h1M85 55h1M87 55h1M95 55h1M97 55h1M99 55h1M101 55h1M103 55h1M105 55h1M107 55h1M109 55h1M111 55h1M113 55h1M115 55h1M133 55h1M135 55h1M137 55h1M155 55h1M157 55h1M159 55h1M161 55h1M163 55h1M165 55h1M167 55h1M169 55h1M171 55h1M173 55h1M175 55h1M183 55h1M185 55h1M187 55h1M189 55h1M191 55h1M193 55h1M195 55h1M213 55h1M215 55h1M217 55h1M219 55h1M221 55h1M223 55h1M225 55h1M227 55h1M229 55h1M249 55h1M251 55h1M253 55h1M255 55h1M257 55h1M259 55h1M261 55h1M263 55h1M265 55h1M309 56h1M313 56h1M317 56h1M321 56h1M5 57h1M7 57h1M9 57h1M11 57h1M13 57h1M15 57h1M17 57h1M19 57h1M21 57h1M23 57h1M29 57h1M33 57h1M37 57h1M53 57h1M57 57h1M61 57h1M69 57h1M71 57h1M73 57h1M75 57h1M77 57h1M79 57h1M81 57h1M83 57h1M85 57h1M87 57h1M95 57h1M97 57h1M99 57h1M101 57h1M103 57h1M105 57h1M107 57h1M109 57h1M111 57h1M113 57h1M115 57h1M131 57h1M133 57h1M135 57h1M137 57h1M139 57h1M155 57h1M157 57h1M159 57h1M161 57h1M163 57h1M165 57h1M167 57h1M169 57h1M171 57h1M173 57h1M175 57h1M183 57h1M185 57h1M187 57h1M189 57h1M191 57h1M193 57h1M195 57h1M213 57h1M215 57h1M217 57h1M219 57h1M221 57h1M223 57h1M225 57h1M227 57h1M247 57h1M249 57h1M251 57h1M253 57h1M255 57h1M257 57h1M259 57h1M261 57h1M263 57h1M265 57h1M307 58h1M311 58h1M315 58h1M319 58h1M5 59h1M7 59h1M9 59h1M11 59h1M13 59h1M15 59h1M17 59h1M19 59h1M21 59h1M23 59h1M31 59h1M35 59h1M55 59h1M59 59h1M63 59h1M69 59h1M71 59h1M73 59h1M75 59h1M77 59h1M79 59h1M81 59h1M83 59h1M85 59h1M87 59h1M95 59h1M97 59h1M99 59h1M101 59h1M103 59h1M105 59h1M107 59h1M109 59h1M111 59h1M113 59h1M115 59h1M131 59h1M133 59h1M135 59h1M137 59h1M139 59h1M155 59h1M157 59h1M159 59h1M161 59h1M163 59h1M165 59h1M167 59h1M169 59h1M171 59h1M173 59h1M175 59h1M183 59h1M185 59h1M187 59h1M189 59h1M191 59h1M193 59h1M195 59h1M247 59h1M249 59h1M251 59h1M253 59h1M255 59h1M257 59h1M259 59h1M261 59h1M263 59h1M265 59h1M309 60h1M313 60h1M317 60h1M321 60h1M5 61h1M7 61h1M9 61h1M11 61h1M13 61h1M15 61h1M17 61h1M19 61h1M21 61h1M23 61h1M29 61h1M33 61h1M37 61h1M53 61h1M57 61h1M61 61h1M67 61h1M69 61h1M71 61h1M73 61h1M75 61h1M77 61h1M79 61h1M81 61h1M83 61h1M85 61h1M87 61h1M95 61h1M97 61h1M99 61h1M101 61h1M103 61h1M105 61h1M107 61h1M109 61h1M111 61h1M113 61h1M115 61h1M131 61h1M133 61h1M135 61h1M137 61h1M139 61h1M155 61h1M157 61h1M159 61h1M161 61h1M163 61h1M165 61h1M167 61h1M169 61h1M171 61h1M173 61h1M175 61h1M183 61h1M185 61h1M187 61h1M189 61h1M191 61h1M193 61h1M195 61h1M245 61h1M247 61h1M249 61h1M251 61h1M253 61h1M255 61h1M257 61h1M259 61h1M261 61h1M263 61h1M265 61h1M307 62h1M311 62h1M315 62h1M319 62h1M5 63h1M7 63h1M9 63h1M11 63h1M13 63h1M15 63h1M17 63h1M19 63h1M21 63h1M23 63h1M31 63h1M35 63h1M39 63h1M55 63h1M59 63h1M63 63h1M67 63h1M69 63h1M71 63h1M73 63h1M75 63h1M77 63h1M79 63h1M81 63h1M83 63h1M85 63h1M87 63h1M95 63h1M97 63h1M99 63h1M101 63h1M103 63h1M105 63h1M107 63h1M109 63h1M111 63h1M113 63h1M131 63h1M133 63h1M135 63h1M137 63h1M139 63h1M157 63h1M159 63h1M161 63h1M163 63h1M165 63h1M167 63h1M169 63h1M171 63h1M173 63h1M175 63h1M183 63h1M185 63h1M187 63h1M189 63h1M191 63h1M193 63h1M195 63h1M243 63h1M245 63h1M247 63h1M249 63h1M251 63h1M253 63h1M255 63h1M257 63h1M259 63h1M261 63h1M263 63h1M265 63h1M309 64h1M313 64h1M317 64h1M321 64h1M5 65h1M7 65h1M9 65h1M11 65h1M13 65h1M15 65h1M17 65h1M19 65h1M21 65h1M23 65h1M25 65h1M29 65h1M33 65h1M37 65h1M53 65h1M57 65h1M61 65h1M67 65h1M69 65h1M71 65h1M73 65h1M75 65h1M77 65h1M79 65h1M81 65h1M83 65h1M85 65h1M87 65h1M95 65h1M97 65h1M99 65h1M101 65h1M103 65h1M105 65h1M107 65h1M109 65h1M111 65h1M113 65h1M129 65h1M131 65h1M133 65h1M135 65h1M137 65h1M139 65h1M141 65h1M157 65h1M159 65h1M161 65h1M163 65h1M165 65h1M167 65h1M169 65h1M171 65h1M173 65h1M175 65h1M183 65h1M185 65h1M187 65h1M189 65h1M191 65h1M193 65h1M195 65h1M239 65h1M241 65h1M243 65h1M245 65h1M247 65h1M249 65h1M251 65h1M253 65h1M255 65h1M257 65h1M259 65h1M261 65h1M263 65h1M265 65h1M307 66h1M311 66h1M315 66h1M319 66h1M5 67h1M7 67h1M9 67h1M11 67h1M13 67h1M15 67h1M17 67h1M19 67h1M21 67h1M23 67h1M25 67h1M31 67h1M35 67h1M39 67h1M51 67h1M55 67h1M59 67h1M63 67h1M67 67h1M69 67h1M71 67h1M73 67h1M75 67h1M77 67h1M79 67h1M81 67h1M83 67h1M85 67h1M87 67h1M95 67h1M97 67h1M99 67h1M101 67h1M103 67h1M105 67h1M107 67h1M109 67h1M111 67h1M113 67h1M129 67h1M131 67h1M133 67h1M135 67h1M137 67h1M139 67h1M141 67h1M157 67h1M159 67h1M161 67h1M163 67h1M165 67h1M167 67h1M169 67h1M171 67h1M173 67h1M175 67h1M183 67h1M185 67h1M187 67h1M189 67h1M191 67h1M193 67h1M195 67h1M237 67h1M239 67h1M241 67h1M243 67h1M245 67h1M247 67h1M249 67h1M251 67h1M253 67h1M255 67h1M257 67h1M259 67h1M261 67h1M263 67h1M265 67h1M309 68h1M313 68h1M317 68h1M321 68h1M5 69h1M7 69h1M9 69h1M11 69h1M13 69h1M15 69h1M17 69h1M19 69h1M21 69h1M23 69h1M25 69h1M29 69h1M33 69h1M37 69h1M53 69h1M57 69h1M61 69h1M65 69h1M67 69h1M69 69h1M71 69h1M73 69h1M75 69h1M77 69h1M79 69h1M81 69h1M83 69h1M85 69h1M87 69h1M95 69h1M97 69h1M99 69h1M101 69h1M103 69h1M105 69h1M107 69h1M109 69h1M111 69h1M129 69h1M131 69h1M133 69h1M135 69h1M137 69h1M139 69h1M141 69h1M159 69h1M161 69h1M163 69h1M165 69h1M167 69h1M169 69h1M171 69h1M173 69h1M175 69h1M183 69h1M185 69h1M187 69h1M189 69h1M191 69h1M193 69h1M195 69h1M239 69h1M241 69h1M243 69h1M245 69h1M247 69h1M249 69h1M251 69h1M253 69h1M255 69h1M257 69h1M259 69h1M261 69h1M263 69h1M265 69h1M307 70h1M311 70h1M315 70h1M319 70h1M5 71h1M7 71h1M9 71h1M11 71h1M13 71h1M15 71h1M17 71h1M19 71h1M21 71h1M23 71h1M25 71h1M31 71h1M35 71h1M39 71h1M51 71h1M55 71h1M59 71h1M63 71h1M65 71h1M67 71h1M69 71h1M71 71h1M73 71h1M75 71h1M77 71h1M79 71h1M81 71h1M83 71h1M85 71h1M87 71h1M95 71h1M97 71h1M99 71h1M101 71h1M103 71h1M105 71h1M107 71h1M109 71h1M111 71h1M159 71h1M161 71h1M163 71h1M165 71h1M167 71h1M169 71h1M171 71h1M173 71h1M175 71h1M183 71h1M185 71h1M187 71h1M189 71h1M191 71h1M193 71h1M195 71h1M241 71h1M243 71h1M245 71h1M247 71h1M249 71h1M251 71h1M253 71h1M255 71h1M257 71h1M259 71h1M261 71h1M263 71h1M265 71h1M309 72h1M313 72h1M317 72h1M321 72h1M5 73h1M7 73h1M9 73h1M11 73h1M13 73h1M15 73h1M17 73h1M19 73h1M21 73h1M23 73h1M25 73h1M27 73h1M29 73h1M33 73h1M37 73h1M41 73h1M53 73h1M57 73h1M61 73h1M65 73h1M67 73h1M69 73h1M71 73h1M73 73h1M75 73h1M77 73h1M79 73h1M81 73h1M83 73h1M85 73h1M87 73h1M95 73h1M97 73h1M99 73h1M101 73h1M103 73h1M105 73h1M107 73h1M109 73h1M111 73h1M159 73h1M161 73h1M163 73h1M165 73h1M167 73h1M169 73h1M171 73h1M173 73h1M175 73h1M183 73h1M185 73h1M187 73h1M189 73h1M191 73h1M193 73h1M195 73h1M213 73h1M215 73h1M217 73h1M219 73h1M241 73h1M243 73h1M245 73h1M247 73h1M249 73h1M251 73h1M253 73h1M255 73h1M257 73h1M259 73h1M261 73h1M263 73h1M265 73h1M307 74h1M311 74h1M315 74h1M319 74h1M5 75h1M7 75h1M9 75h1M11 75h1M13 75h1M15 75h1M17 75h1M19 75h1M21 75h1M23 75h1M25 75h1M27 75h1M31 75h1M35 75h1M39 75h1M51 75h1M55 75h1M59 75h1M63 75h1M65 75h1M67 75h1M69 75h1M71 75h1M73 75h1M75 75h1M77 75h1M79 75h1M81 75h1M83 75h1M85 75h1M87 75h1M95 75h1M97 75h1M99 75h1M101 75h1M103 75h1M105 75h1M107 75h1M109 75h1M111 75h1M159 75h1M161 75h1M163 75h1M165 75h1M167 75h1M169 75h1M171 75h1M173 75h1M175 75h1M183 75h1M185 75h1M187 75h1M189 75h1M191 75h1M193 75h1M195 75h1M213 75h1M215 75h1M217 75h1M219 75h1M221 75h1M223 75h1M243 75h1M245 75h1M247 75h1M249 75h1M251 75h1M253 75h1M255 75h1M257 75h1M259 75h1M261 75h1M263 75h1M265 75h1M309 76h1M313 76h1M317 76h1M321 76h1M5 77h1M7 77h1M9 77h1M11 77h1M13 77h1M15 77h1M17 77h1M19 77h1M21 77h1M23 77h1M25 77h1M27 77h1M29 77h1M33 77h1M37 77h1M41 77h1M49 77h1M53 77h1M57 77h1M61 77h1M65 77h1M67 77h1M69 77h1M71 77h1M73 77h1M75 77h1M77 77h1M79 77h1M81 77h1M83 77h1M85 77h1M87 77h1M95 77h1M97 77h1M99 77h1M101 77h1M103 77h1M105 77h1M107 77h1M109 77h1M121 77h1M125 77h1M129 77h1M133 77h1M137 77h1M141 77h1M145 77h1M149 77h1M153 77h1M157 77h1M197 77h1M201 77h1M205 77h1M209 77h1M229 77h1M233 77h1M237 77h1M241 77h1M243 77h1M245 77h1M247 77h1M249 77h1M251 77h1M253 77h1M255 77h1M257 77h1M259 77h1M261 77h1M263 77h1M265 77h1M307 78h1M311 78h1M315 78h1M319 78h1M5 79h1M7 79h1M9 79h1M11 79h1M13 79h1M15 79h1M17 79h1M19 79h1M21 79h1M23 79h1M25 79h1M27 79h1M31 79h1M35 79h1M39 79h1M43 79h1M51 79h1M55 79h1M59 79h1M65 79h1M67 79h1M69 79h1M71 79h1M73 79h1M75 79h1M77 79h1M79 79h1M81 79h1M83 79h1M85 79h1M87 79h1M95 79h1M97 79h1M99 79h1M101 79h1M103 79h1M105 79h1M107 79h1M109 79h1M119 79h1M123 79h1M127 79h1M131 79h1M135 79h1M139 79h1M143 79h1M147 79h1M151 79h1M155 79h1M159 79h1M199 79h1M203 79h1M207 79h1M211 79h1M227 79h1M231 79h1M235 79h1M239 79h1M245 79h1M247 79h1M249 79h1M251 79h1M253 79h1M255 79h1M257 79h1M259 79h1M261 79h1M263 79h1M265 79h1M309 80h1M313 80h1M317 80h1M321 80h1M5 81h1M7 81h1M9 81h1M11 81h1M13 81h1M15 81h1M17 81h1M19 81h1M21 81h1M23 81h1M25 81h1M27 81h1M33 81h1M37 81h1M41 81h1M49 81h1M53 81h1M57 81h1M61 81h1M65 81h1M67 81h1M69 81h1M71 81h1M73 81h1M75 81h1M77 81h1M79 81h1M81 81h1M83 81h1M85 81h1M87 81h1M95 81h1M97 81h1M99 81h1M101 81h1M103 81h1M105 81h1M107 81h1M109 81h1M121 81h1M125 81h1M129 81h1M133 81h1M137 81h1M141 81h1M145 81h1M149 81h1M153 81h1M157 81h1M197 81h1M201 81h1M205 81h1M209 81h1M229 81h1M233 81h1M237 81h1M241 81h1M245 81h1M247 81h1M249 81h1M251 81h1M253 81h1M255 81h1M257 81h1M259 81h1M261 81h1M263 81h1M265 81h1M307 82h1M311 82h1M315 82h1M319 82h1M5 83h1M7 83h1M9 83h1M11 83h1M13 83h1M15 83h1M17 83h1M19 83h1M21 83h1M23 83h1M25 83h1M27 83h1M29 83h1M45 83h1M63 83h1M65 83h1M67 83h1M69 83h1M71 83h1M73 83h1M75 83h1M77 83h1M79 83h1M81 83h1M83 83h1M85 83h1M87 83h1M95 83h1M97 83h1M99 83h1M101 83h1M103 83h1M105 83h1M107 83h1M109 83h1M161 83h1M163 83h1M165 83h1M167 83h1M169 83h1M171 83h1M173 83h1M175 83h1M199 83h1M203 83h1M207 83h1M211 83h1M231 83h1M235 83h1M239 83h1M247 83h1M249 83h1M251 83h1M253 83h1M255 83h1M257 83h1M259 83h1M261 83h1M263 83h1M265 83h1M273 83h1M275 83h1M277 83h1M279 83h1M281 83h1M283 83h1M285 83h1M287 83h1M289 83h1M291 83h1M293 83h1M295 83h1M297 83h1M299 83h1M301 83h1M303 83h1M305 83h1M323 83h1M325 83h1M327 83h1M329 83h1M331 83h1M333 83h1M335 83h1M337 83h1M339 83h1M341 83h1M343 83h1M345 83h1M347 83h1M349 83h1M351 83h1M353 83h1M355 83h1M5 85h1M7 85h1M9 85h1M11 85h1M13 85h1M15 85h1M17 85h1M19 85h1M21 85h1M23 85h1M25 85h1M27 85h1M29 85h1M45 85h1M61 85h1M63 85h1M65 85h1M67 85h1M69 85h1M71 85h1M73 85h1M75 85h1M77 85h1M79 85h1M81 85h1M83 85h1M85 85h1M87 85h1M95 85h1M97 85h1M99 85h1M101 85h1M103 85h1M105 85h1M107 85h1M125 85h1M127 85h1M129 85h1M131 85h1M133 85h1M135 85h1M137 85h1M139 85h1M141 85h1M143 85h1M145 85h1M163 85h1M165 85h1M167 85h1M169 85h1M171 85h1M173 85h1M175 85h1M197 85h1M201 85h1M205 85h1M209 85h1M233 85h1M237 85h1M241 85h1M247 85h1M249 85h1M251 85h1M253 85h1M255 85h1M257 85h1M259 85h1M261 85h1M263 85h1M265 85h1M273 85h1M275 85h1M277 85h1M279 85h1M281 85h1M283 85h1M285 85h1M287 85h1M289 85h1M291 85h1M293 85h1M295 85h1M297 85h1M299 85h1M301 85h1M303 85h1M305 85h1M323 85h1M325 85h1M327 85h1M329 85h1M331 85h1M333 85h1M335 85h1M337 85h1M339 85h1M341 85h1M343 85h1M345 85h1M347 85h1M349 85h1M351 85h1M353 85h1M355 85h1M5 87h1M7 87h1M9 87h1M11 87h1M13 87h1M15 87h1M17 87h1M19 87h1M21 87h1M23 87h1M25 87h1M27 87h1M29 87h1M45 87h1M61 87h1M63 87h1M65 87h1M67 87h1M69 87h1M71 87h1M73 87h1M75 87h1M77 87h1M79 87h1M81 87h1M83 87h1M85 87h1M87 87h1M95 87h1M97 87h1M99 87h1M101 87h1M103 87h1M105 87h1M107 87h1M125 87h1M127 87h1M129 87h1M131 87h1M133 87h1M135 87h1M137 87h1M139 87h1M141 87h1M143 87h1M145 87h1M163 87h1M165 87h1M167 87h1M169 87h1M171 87h1M173 87h1M175 87h1M199 87h1M203 87h1M207 87h1M211 87h1M231 87h1M235 87h1M239 87h1M249 87h1M251 87h1M253 87h1M255 87h1M257 87h1M259 87h1M261 87h1M263 87h1M265 87h1M273 87h1M275 87h1M277 87h1M279 87h1M281 87h1M283 87h1M285 87h1M287 87h1M289 87h1M291 87h1M293 87h1M295 87h1M297 87h1M299 87h1M301 87h1M303 87h1M305 87h1M323 87h1M325 87h1M327 87h1M329 87h1M331 87h1M333 87h1M335 87h1M337 87h1M339 87h1M341 87h1M343 87h1M345 87h1M347 87h1M349 87h1M351 87h1M353 87h1M355 87h1M5 89h1M7 89h1M9 89h1M11 89h1M13 89h1M15 89h1M17 89h1M19 89h1M21 89h1M23 89h1M25 89h1M27 89h1M29 89h1M31 89h1M61 89h1M63 89h1M65 89h1M67 89h1M69 89h1M71 89h1M73 89h1M75 89h1M77 89h1M79 89h1M81 89h1M83 89h1M85 89h1M87 89h1M95 89h1M97 89h1M99 89h1M101 89h1M103 89h1M105 89h1M107 89h1M123 89h1M125 89h1M127 89h1M129 89h1M131 89h1M133 89h1M135 89h1M137 89h1M139 89h1M141 89h1M143 89h1M145 89h1M163 89h1M165 89h1M167 89h1M169 89h1M171 89h1M173 89h1M175 89h1M197 89h1M201 89h1M205 89h1M209 89h1M233 89h1M237 89h1M241 89h1M249 89h1M251 89h1M253 89h1M255 89h1M257 89h1M259 89h1M261 89h1M263 89h1M265 89h1M273 89h1M275 89h1M277 89h1M279 89h1M281 89h1M283 89h1M285 89h1M287 89h1M289 89h1M291 89h1M293 89h1M295 89h1M297 89h1M299 89h1M301 89h1M303 89h1M305 89h1M323 89h1M325 89h1M327 89h1M329 89h1M331 89h1M333 89h1M335 89h1M337 89h1M339 89h1M341 89h1M343 89h1M345 89h1M347 89h1M349 89h1M351 89h1M353 89h1M355 89h1M5 91h1M7 91h1M9 91h1M11 91h1M13 91h1M15 91h1M17 91h1M19 91h1M21 91h1M23 91h1M25 91h1M27 91h1M29 91h1M31 91h1M61 91h1M63 91h1M65 91h1M67 91h1M69 91h1M71 91h1M73 91h1M75 91h1M77 91h1M79 91h1M81 91h1M83 91h1M85 91h1M87 91h1M95 91h1M97 91h1M99 91h1M101 91h1M103 91h1M105 91h1M123 91h1M125 91h1M127 91h1M129 91h1M131 91h1M133 91h1M135 91h1M137 91h1M139 91h1M141 91h1M143 91h1M145 91h1M147 91h1M165 91h1M167 91h1M169 91h1M171 91h1M173 91h1M175 91h1M199 91h1M203 91h1M207 91h1M211 91h1M235 91h1M239 91h1M251 91h1M253 91h1M255 91h1M257 91h1M259 91h1M261 91h1M263 91h1M265 91h1M273 91h1M275 91h1M277 91h1M279 91h1M281 91h1M283 91h1M285 91h1M287 91h1M289 91h1M291 91h1M337 91h1M339 91h1M341 91h1M343 91h1M345 91h1M347 91h1M349 91h1M351 91h1M353 91h1M355 91h1M5 93h1M7 93h1M9 93h1M11 93h1M13 93h1M15 93h1M17 93h1M19 93h1M21 93h1M23 93h1M25 93h1M27 93h1M29 93h1M31 93h1M59 93h1M61 93h1M63 93h1M65 93h1M67 93h1M69 93h1M71 93h1M73 93h1M75 93h1M77 93h1M79 93h1M81 93h1M83 93h1M85 93h1M87 93h1M95 93h1M97 93h1M99 93h1M101 93h1M103 93h1M105 93h1M123 93h1M125 93h1M127 93h1M129 93h1M131 93h1M133 93h1M135 93h1M137 93h1M139 93h1M141 93h1M143 93h1M145 93h1M147 93h1M165 93h1M167 93h1M169 93h1M171 93h1M173 93h1M175 93h1M197 93h1M201 93h1M205 93h1M209 93h1M237 93h1M241 93h1M251 93h1M253 93h1M255 93h1M257 93h1M259 93h1M261 93h1M263 93h1M265 93h1M273 93h1M275 93h1M277 93h1M279 93h1M281 93h1M283 93h1M285 93h1M287 93h1M289 93h1M291 93h1M337 93h1M339 93h1M341 93h1M343 93h1M345 93h1M347 93h1M349 93h1M351 93h1M353 93h1M355 93h1M5 95h1M7 95h1M9 95h1M11 95h1M13 95h1M15 95h1M17 95h1M19 95h1M21 95h1M23 95h1M25 95h1M27 95h1M29 95h1M31 95h1M59 95h1M61 95h1M63 95h1M65 95h1M67 95h1M69 95h1M71 95h1M73 95h1M75 95h1M77 95h1M79 95h1M81 95h1M83 95h1M85 95h1M87 95h1M95 95h1M97 95h1M99 95h1M101 95h1M103 95h1M105 95h1M123 95h1M125 95h1M127 95h1M129 95h1M131 95h1M133 95h1M135 95h1M137 95h1M139 95h1M141 95h1M143 95h1M145 95h1M147 95h1M165 95h1M167 95h1M169 95h1M171 95h1M173 95h1M175 95h1M199 95h1M203 95h1M207 95h1M211 95h1M235 95h1M239 95h1M253 95h1M255 95h1M257 95h1M259 95h1M261 95h1M263 95h1M265 95h1M273 95h1M275 95h1M277 95h1M279 95h1M281 95h1M283 95h1M285 95h1M287 95h1M289 95h1M291 95h1M337 95h1M339 95h1M341 95h1M343 95h1M345 95h1M347 95h1M349 95h1M351 95h1M353 95h1M355 95h1M5 97h1M7 97h1M9 97h1M11 97h1M13 97h1M15 97h1M17 97h1M19 97h1M21 97h1M23 97h1M25 97h1M27 97h1M29 97h1M31 97h1M59 97h1M61 97h1M63 97h1M65 97h1M67 97h1M69 97h1M71 97h1M73 97h1M75 97h1M77 97h1M79 97h1M81 97h1M83 97h1M85 97h1M87 97h1M95 97h1M97 97h1M99 97h1M101 97h1M103 97h1M105 97h1M123 97h1M125 97h1M127 97h1M129 97h1M131 97h1M133 97h1M135 97h1M137 97h1M139 97h1M141 97h1M143 97h1M145 97h1M147 97h1M165 97h1M167 97h1M169 97h1M171 97h1M173 97h1M175 97h1M197 97h1M201 97h1M205 97h1M209 97h1M237 97h1M241 97h1M253 97h1M255 97h1M257 97h1M259 97h1M261 97h1M263 97h1M265 97h1M273 97h1M275 97h1M277 97h1M279 97h1M281 97h1M283 97h1M285 97h1M287 97h1M289 97h1M291 97h1M337 97h1M339 97h1M341 97h1M343 97h1M345 97h1M347 97h1M349 97h1M351 97h1M353 97h1M355 97h1M5 99h1M7 99h1M9 99h1M11 99h1M13 99h1M15 99h1M17 99h1M19 99h1M21 99h1M23 99h1M25 99h1M27 99h1M29 99h1M31 99h1M33 99h1M59 99h1M61 99h1M63 99h1M65 99h1M67 99h1M69 99h1M71 99h1M73 99h1M75 99h1M77 99h1M79 99h1M81 99h1M83 99h1M85 99h1M87 99h1M95 99h1M97 99h1M99 99h1M101 99h1M103 99h1M121 99h1M123 99h1M125 99h1M127 99h1M129 99h1M131 99h1M133 99h1M135 99h1M137 99h1M139 99h1M141 99h1M143 99h1M145 99h1M147 99h1M149 99h1M167 99h1M169 99h1M171 99h1M173 99h1M175 99h1M199 99h1M203 99h1M207 99h1M211 99h1M239 99h1M255 99h1M257 99h1M259 99h1M261 99h1M263 99h1M265 99h1M273 99h1M275 99h1M277 99h1M279 99h1M281 99h1M283 99h1M285 99h1M287 99h1M289 99h1M291 99h1M337 99h1M339 99h1M341 99h1M343 99h1M345 99h1M347 99h1M349 99h1M351 99h1M353 99h1M355 99h1M5 101h1M7 101h1M9 101h1M11 101h1M13 101h1M15 101h1M17 101h1M19 101h1M21 101h1M23 101h1M25 101h1M27 101h1M29 101h1M31 101h1M33 101h1M59 101h1M61 101h1M63 101h1M65 101h1M67 101h1M69 101h1M71 101h1M73 101h1M75 101h1M77 101h1M79 101h1M81 101h1M83 101h1M85 101h1M87 101h1M95 101h1M97 101h1M99 101h1M101 101h1M103 101h1M121 101h1M123 101h1M125 101h1M127 101h1M129 101h1M131 101h1M133 101h1M135 101h1M137 101h1M139 101h1M141 101h1M143 101h1M145 101h1M147 101h1M149 101h1M167 101h1M169 101h1M171 101h1M173 101h1M175 101h1M197 101h1M201 101h1M205 101h1M209 101h1M241 101h1M255 101h1M257 101h1M259 101h1M261 101h1M263 101h1M265 101h1M273 101h1M275 101h1M277 101h1M279 101h1M281 101h1M283 101h1M285 101h1M287 101h1M289 101h1M291 101h1M337 101h1M339 101h1M341 101h1M343 101h1M345 101h1M347 101h1M349 101h1M351 101h1M353 101h1M355 101h1M5 103h1M7 103h1M9 103h1M11 103h1M13 103h1M15 103h1M17 103h1M19 103h1M21 103h1M23 103h1M25 103h1M27 103h1M29 103h1M31 103h1M33 103h1M57 103h1M59 103h1M61 103h1M63 103h1M65 103h1M67 103h1M69 103h1M71 103h1M73 103h1M75 103h1M77 103h1M79 103h1M81 103h1M83 103h1M85 103h1M87 103h1M95 103h1M97 103h1M99 103h1M101 103h1M103 103h1M121 103h1M123 103h1M125 103h1M127 103h1M129 103h1M131 103h1M133 103h1M135 103h1M137 103h1M139 103h1M141 103h1M143 103h1M145 103h1M147 103h1M149 103h1M167 103h1M169 103h1M171 103h1M173 103h1M175 103h1M199 103h1M203 103h1M207 103h1M211 103h1M239 103h1M257 103h1M259 103h1M261 103h1M263 103h1M265 103h1M273 103h1M275 103h1M277 103h1M279 103h1M281 103h1M283 103h1M285 103h1M287 103h1M289 103h1M291 103h1M293 103h1M295 103h1M297 103h1M299 103h1M301 103h1M303 103h1M305 103h1M307 103h1M309 103h1M311 103h1M313 103h1M315 103h1M317 103h1M319 103h1M321 103h1M323 103h1M325 103h1M327 103h1M329 103h1M331 103h1M333 103h1M335 103h1M337 103h1M339 103h1M341 103h1M343 103h1M345 103h1M347 103h1M349 103h1M351 103h1M353 103h1M355 103h1M5 105h1M7 105h1M9 105h1M11 105h1M13 105h1M15 105h1M17 105h1M19 105h1M21 105h1M23 105h1M25 105h1M27 105h1M29 105h1M31 105h1M33 105h1M35 105h1M37 105h1M39 105h1M41 105h1M43 105h1M45 105h1M47 105h1M49 105h1M51 105h1M53 105h1M55 105h1M57 105h1M59 105h1M61 105h1M63 105h1M65 105h1M67 105h1M69 105h1M71 105h1M73 105h1M75 105h1M77 105h1M79 105h1M81 105h1M83 105h1M85 105h1M87 105h1M95 105h1M97 105h1M99 105h1M101 105h1M103 105h1M105 105h1M107 105h1M109 105h1M111 105h1M113 105h1M115 105h1M117 105h1M119 105h1M121 105h1M123 105h1M125 105h1M127 105h1M129 105h1M131 105h1M133 105h1M135 105h1M137 105h1M139 105h1M141 105h1M143 105h1M145 105h1M147 105h1M149 105h1M151 105h1M153 105h1M155 105h1M157 105h1M159 105h1M161 105h1M163 105h1M165 105h1M167 105h1M169 105h1M171 105h1M173 105h1M175 105h1M243 105h1M245 105h1M247 105h1M249 105h1M251 105h1M253 105h1M255 105h1M257 105h1M259 105h1M261 105h1M263 105h1M265 105h1M273 105h1M275 105h1M277 105h1M279 105h1M281 105h1M283 105h1M285 105h1M287 105h1M289 105h1M291 105h1M293 105h1M295 105h1M297 105h1M299 105h1M301 105h1M303 105h1M305 105h1M307 105h1M309 105h1M311 105h1M313 105h1M315 105h1M317 105h1M319 105h1M321 105h1M323 105h1M325 105h1M327 105h1M329 105h1M331 105h1M333 105h1M335 105h1M337 105h1M339 105h1M341 105h1M343 105h1M345 105h1M347 105h1M349 105h1M351 105h1M353 105h1M355 105h1M5 113h1M7 113h1M9 113h1M11 113h1M13 113h1M15 113h1M17 113h1M19 113h1M21 113h1M23 113h1M25 113h1M27 113h1M29 113h1M31 113h1M33 113h1M35 113h1M37 113h1M39 113h1M41 113h1M43 113h1M45 113h1M47 113h1M49 113h1M51 113h1M53 113h1M55 113h1M57 113h1M59 113h1M61 113h1M63 113h1M65 113h1M67 113h1M69 113h1M71 113h1M73 113h1M75 113h1M77 113h1M79 113h1M81 113h1M83 113h1M85 113h1M87 113h1M95 113h1M97 113h1M99 113h1M101 113h1M103 113h1M105 113h1M107 113h1M109 113h1M111 113h1M113 113h1M115 113h1M117 113h1M119 113h1M121 113h1M123 113h1M125 113h1M127 113h1M129 113h1M131 113h1M133 113h1M135 113h1M137 113h1M139 113h1M141 113h1M143 113h1M145 113h1M147 113h1M149 113h1M151 113h1M153 113h1M155 113h1M157 113h1M159 113h1M161 113h1M163 113h1M165 113h1M167 113h1M169 113h1M171 113h1M173 113h1M175 113h1M183 113h1M185 113h1M187 113h1M189 113h1M191 113h1M193 113h1M195 113h1M197 113h1M199 113h1M201 113h1M203 113h1M205 113h1M207 113h1M209 113h1M211 113h1M213 113h1M215 113h1M217 113h1M219 113h1M221 113h1M223 113h1M225 113h1M227 113h1M229 113h1M231 113h1M233 113h1M235 113h1M237 113h1M239 113h1M241 113h1M243 113h1M245 113h1M247 113h1M249 113h1M251 113h1M253 113h1M255 113h1M257 113h1M259 113h1M261 113h1M263 113h1M265 113h1M273 113h1M275 113h1M277 113h1M279 113h1M281 113h1M283 113h1M285 113h1M287 113h1M289 113h1M291 113h1M293 113h1M295 113h1M303 113h1M305 113h1M307 113h1M309 113h1M311 113h1M313 113h1M315 113h1M317 113h1M319 113h1M321 113h1M323 113h1M325 113h1M327 113h1M329 113h1M331 113h1M333 113h1M335 113h1M337 113h1M339 113h1M341 113h1M343 113h1M345 113h1M347 113h1M349 113h1M351 113h1M353 113h1M355 113h1M5 115h1M7 115h1M9 115h1M11 115h1M13 115h1M15 115h1M17 115h1M57 115h1M59 115h1M61 115h1M63 115h1M65 115h1M67 115h1M69 115h1M71 115h1M73 115h1M75 115h1M77 115h1M79 115h1M81 115h1M83 115h1M85 115h1M87 115h1M95 115h1M97 115h1M99 115h1M101 115h1M103 115h1M105 115h1M107 115h1M109 115h1M111 115h1M113 115h1M115 115h1M117 115h1M119 115h1M121 115h1M123 115h1M147 115h1M149 115h1M151 115h1M153 115h1M155 115h1M157 115h1M159 115h1M161 115h1M163 115h1M165 115h1M167 115h1M169 115h1M171 115h1M173 115h1M175 115h1M183 115h1M185 115h1M187 115h1M189 115h1M191 115h1M193 115h1M195 115h1M197 115h1M199 115h1M201 115h1M203 115h1M205 115h1M207 115h1M209 115h1M211 115h1M213 115h1M215 115h1M217 115h1M219 115h1M221 115h1M223 115h1M225 115h1M239 115h1M241 115h1M243 115h1M245 115h1M247 115h1M249 115h1M251 115h1M253 115h1M255 115h1M257 115h1M259 115h1M261 115h1M263 115h1M265 115h1M273 115h1M275 115h1M277 115h1M279 115h1M281 115h1M283 115h1M285 115h1M297 115h1M301 115h1M303 115h1M305 115h1M307 115h1M309 115h1M311 115h1M313 115h1M315 115h1M317 115h1M319 115h1M321 115h1M323 115h1M325 115h1M345 115h1M347 115h1M349 115h1M351 115h1M353 115h1M355 115h1M5 117h1M7 117h1M9 117h1M11 117h1M13 117h1M15 117h1M17 117h1M61 117h1M63 117h1M65 117h1M67 117h1M69 117h1M71 117h1M73 117h1M75 117h1M77 117h1M79 117h1M81 117h1M83 117h1M85 117h1M87 117h1M95 117h1M97 117h1M99 117h1M101 117h1M103 117h1M105 117h1M107 117h1M109 117h1M111 117h1M113 117h1M115 117h1M117 117h1M119 117h1M121 117h1M123 117h1M147 117h1M149 117h1M151 117h1M153 117h1M155 117h1M157 117h1M159 117h1M161 117h1M163 117h1M165 117h1M167 117h1M169 117h1M171 117h1M173 117h1M175 117h1M183 117h1M185 117h1M187 117h1M189 117h1M191 117h1M193 117h1M195 117h1M197 117h1M199 117h1M201 117h1M203 117h1M205 117h1M207 117h1M209 117h1M211 117h1M213 117h1M215 117h1M217 117h1M247 117h1M249 117h1M251 117h1M253 117h1M255 117h1M257 117h1M259 117h1M261 117h1M263 117h1M265 117h1M273 117h1M275 117h1M277 117h1M279 117h1M281 117h1M283 117h1M285 117h1M299 117h1M303 117h1M305 117h1M307 117h1M309 117h1M311 117h1M313 117h1M315 117h1M317 117h1M319 117h1M321 117h1M323 117h1M343 117h1M345 117h1M347 117h1M349 117h1M351 117h1M353 117h1M355 117h1M5 119h1M7 119h1M9 119h1M11 119h1M13 119h1M15 119h1M17 119h1M65 119h1M67 119h1M69 119h1M71 119h1M73 119h1M75 119h1M77 119h1M79 119h1M81 119h1M83 119h1M85 119h1M87 119h1M95 119h1M97 119h1M99 119h1M101 119h1M103 119h1M105 119h1M107 119h1M109 119h1M111 119h1M113 119h1M115 119h1M117 119h1M119 119h1M121 119h1M123 119h1M147 119h1M149 119h1M151 119h1M153 119h1M155 119h1M157 119h1M159 119h1M161 119h1M163 119h1M165 119h1M167 119h1M169 119h1M171 119h1M173 119h1M175 119h1M183 119h1M185 119h1M187 119h1M189 119h1M191 119h1M193 119h1M195 119h1M197 119h1M199 119h1M201 119h1M203 119h1M205 119h1M207 119h1M209 119h1M211 119h1M213 119h1M249 119h1M251 119h1M253 119h1M255 119h1M257 119h1M259 119h1M261 119h1M263 119h1M265 119h1M273 119h1M275 119h1M277 119h1M279 119h1M281 119h1M283 119h1M285 119h1M297 119h1M301 119h1M303 119h1M305 119h1M307 119h1M309 119h1M311 119h1M313 119h1M315 119h1M317 119h1M319 119h1M321 119h1M341 119h1M343 119h1M345 119h1M347 119h1M349 119h1M351 119h1M353 119h1M355 119h1M5 121h1M7 121h1M9 121h1M11 121h1M13 121h1M15 121h1M17 121h1M67 121h1M69 121h1M71 121h1M73 121h1M75 121h1M77 121h1M79 121h1M81 121h1M83 121h1M85 121h1M87 121h1M95 121h1M97 121h1M99 121h1M101 121h1M103 121h1M105 121h1M107 121h1M109 121h1M111 121h1M113 121h1M115 121h1M117 121h1M119 121h1M121 121h1M123 121h1M147 121h1M149 121h1M151 121h1M153 121h1M155 121h1M157 121h1M159 121h1M161 121h1M163 121h1M165 121h1M167 121h1M169 121h1M171 121h1M173 121h1M175 121h1M183 121h1M185 121h1M187 121h1M189 121h1M191 121h1M193 121h1M195 121h1M197 121h1M199 121h1M201 121h1M203 121h1M205 121h1M207 121h1M209 121h1M211 121h1M249 121h1M251 121h1M253 121h1M255 121h1M257 121h1M259 121h1M261 121h1M263 121h1M265 121h1M273 121h1M275 121h1M277 121h1M279 121h1M281 121h1M283 121h1M285 121h1M299 121h1M303 121h1M305 121h1M307 121h1M309 121h1M311 121h1M313 121h1M315 121h1M317 121h1M319 121h1M339 121h1M341 121h1M343 121h1M345 121h1M347 121h1M349 121h1M351 121h1M353 121h1M355 121h1M5 123h1M7 123h1M9 123h1M11 123h1M13 123h1M15 123h1M17 123h1M69 123h1M71 123h1M73 123h1M75 123h1M77 123h1M79 123h1M81 123h1M83 123h1M85 123h1M87 123h1M95 123h1M97 123h1M99 123h1M101 123h1M103 123h1M105 123h1M107 123h1M109 123h1M111 123h1M113 123h1M115 123h1M117 123h1M119 123h1M121 123h1M149 123h1M151 123h1M153 123h1M155 123h1M157 123h1M159 123h1M161 123h1M163 123h1M165 123h1M167 123h1M169 123h1M171 123h1M173 123h1M175 123h1M183 123h1M185 123h1M187 123h1M189 123h1M191 123h1M193 123h1M195 123h1M197 123h1M199 123h1M201 123h1M203 123h1M205 123h1M207 123h1M209 123h1M249 123h1M251 123h1M253 123h1M255 123h1M257 123h1M259 123h1M261 123h1M263 123h1M265 123h1M273 123h1M275 123h1M277 123h1M279 123h1M281 123h1M283 123h1M285 123h1M297 123h1M301 123h1M303 123h1M305 123h1M307 123h1M309 123h1M311 123h1M313 123h1M315 123h1M317 123h1M337 123h1M339 123h1M341 123h1M343 123h1M345 123h1M347 123h1M349 123h1M351 123h1M353 123h1M355 123h1M5 125h1M7 125h1M9 125h1M11 125h1M13 125h1M15 125h1M17 125h1M69 125h1M71 125h1M73 125h1M75 125h1M77 125h1M79 125h1M81 125h1M83 125h1M85 125h1M87 125h1M95 125h1M97 125h1M99 125h1M101 125h1M103 125h1M105 125h1M107 125h1M109 125h1M111 125h1M113 125h1M115 125h1M117 125h1M119 125h1M121 125h1M149 125h1M151 125h1M153 125h1M155 125h1M157 125h1M159 125h1M161 125h1M163 125h1M165 125h1M167 125h1M169 125h1M171 125h1M173 125h1M175 125h1M183 125h1M185 125h1M187 125h1M189 125h1M191 125h1M193 125h1M195 125h1M197 125h1M199 125h1M201 125h1M203 125h1M205 125h1M207 125h1M249 125h1M251 125h1M253 125h1M255 125h1M257 125h1M259 125h1M261 125h1M263 125h1M265 125h1M273 125h1M275 125h1M277 125h1M279 125h1M281 125h1M283 125h1M285 125h1M299 125h1M303 125h1M305 125h1M307 125h1M309 125h1M311 125h1M313 125h1M315 125h1M317 125h1M337 125h1M339 125h1M341 125h1M343 125h1M345 125h1M347 125h1M349 125h1M351 125h1M353 125h1M355 125h1M5 127h1M7 127h1M9 127h1M11 127h1M13 127h1M15 127h1M17 127h1M71 127h1M73 127h1M75 127h1M77 127h1M79 127h1M81 127h1M83 127h1M85 127h1M87 127h1M95 127h1M97 127h1M99 127h1M101 127h1M103 127h1M105 127h1M107 127h1M109 127h1M111 127h1M113 127h1M115 127h1M117 127h1M119 127h1M121 127h1M149 127h1M151 127h1M153 127h1M155 127h1M157 127h1M159 127h1M161 127h1M163 127h1M165 127h1M167 127h1M169 127h1M171 127h1M173 127h1M175 127h1M183 127h1M185 127h1M187 127h1M189 127h1M191 127h1M193 127h1M195 127h1M197 127h1M199 127h1M201 127h1M203 127h1M205 127h1M249 127h1M251 127h1M253 127h1M255 127h1M257 127h1M259 127h1M261 127h1M263 127h1M265 127h1M273 127h1M275 127h1M277 127h1M279 127h1M281 127h1M283 127h1M285 127h1M297 127h1M301 127h1M303 127h1M305 127h1M307 127h1M309 127h1M311 127h1M313 127h1M315 127h1M335 127h1M337 127h1M339 127h1M341 127h1M343 127h1M345 127h1M347 127h1M349 127h1M351 127h1M353 127h1M355 127h1M5 129h1M7 129h1M9 129h1M11 129h1M13 129h1M15 129h1M17 129h1M35 129h1M37 129h1M39 129h1M41 129h1M43 129h1M45 129h1M47 129h1M49 129h1M71 129h1M73 129h1M75 129h1M77 129h1M79 129h1M81 129h1M83 129h1M85 129h1M87 129h1M95 129h1M97 129h1M99 129h1M101 129h1M103 129h1M105 129h1M107 129h1M109 129h1M111 129h1M113 129h1M115 129h1M117 129h1M119 129h1M121 129h1M135 129h1M149 129h1M151 129h1M153 129h1M155 129h1M157 129h1M159 129h1M161 129h1M163 129h1M165 129h1M167 129h1M169 129h1M171 129h1M173 129h1M175 129h1M183 129h1M185 129h1M187 129h1M189 129h1M191 129h1M193 129h1M195 129h1M197 129h1M199 129h1M201 129h1M203 129h1M229 129h1M231 129h1M233 129h1M235 129h1M249 129h1M251 129h1M253 129h1M255 129h1M257 129h1M259 129h1M261 129h1M263 129h1M265 129h1M273 129h1M275 129h1M277 129h1M279 129h1M281 129h1M283 129h1M285 129h1M299 129h1M303 129h1M305 129h1M307 129h1M309 129h1M311 129h1M313 129h1M333 129h1M335 129h1M337 129h1M339 129h1M341 129h1M343 129h1M345 129h1M347 129h1M349 129h1M351 129h1M353 129h1M355 129h1M5 131h1M7 131h1M9 131h1M11 131h1M13 131h1M15 131h1M17 131h1M35 131h1M37 131h1M39 131h1M41 131h1M43 131h1M45 131h1M47 131h1M49 131h1M51 131h1M71 131h1M73 131h1M75 131h1M77 131h1M79 131h1M81 131h1M83 131h1M85 131h1M87 131h1M95 131h1M97 131h1M99 131h1M101 131h1M103 131h1M105 131h1M107 131h1M109 131h1M111 131h1M113 131h1M115 131h1M117 131h1M119 131h1M135 131h1M151 131h1M153 131h1M155 131h1M157 131h1M159 131h1M161 131h1M163 131h1M165 131h1M167 131h1M169 131h1M171 131h1M173 131h1M175 131h1M183 131h1M185 131h1M187 131h1M189 131h1M191 131h1M193 131h1M195 131h1M197 131h1M199 131h1M201 131h1M203 131h1M225 131h1M227 131h1M229 131h1M231 131h1M233 131h1M235 131h1M237 131h1M239 131h1M241 131h1M249 131h1M251 131h1M253 131h1M255 131h1M257 131h1M259 131h1M261 131h1M263 131h1M265 131h1M273 131h1M275 131h1M277 131h1M279 131h1M281 131h1M283 131h1M285 131h1M297 131h1M301 131h1M303 131h1M305 131h1M307 131h1M309 131h1M311 131h1M331 131h1M333 131h1M335 131h1M337 131h1M339 131h1M341 131h1M343 131h1M345 131h1M347 131h1M349 131h1M351 131h1M353 131h1M355 131h1M5 133h1M7 133h1M9 133h1M11 133h1M13 133h1M15 133h1M17 133h1M35 133h1M37 133h1M39 133h1M41 133h1M43 133h1M45 133h1M47 133h1M49 133h1M51 133h1M53 133h1M71 133h1M73 133h1M75 133h1M77 133h1M79 133h1M81 133h1M83 133h1M85 133h1M87 133h1M95 133h1M97 133h1M99 133h1M101 133h1M103 133h1M105 133h1M107 133h1M109 133h1M111 133h1M113 133h1M115 133h1M117 133h1M119 133h1M135 133h1M151 133h1M153 133h1M155 133h1M157 133h1M159 133h1M161 133h1M163 133h1M165 133h1M167 133h1M169 133h1M171 133h1M173 133h1M175 133h1M183 133h1M185 133h1M187 133h1M189 133h1M191 133h1M193 133h1M195 133h1M197 133h1M199 133h1M201 133h1M221 133h1M223 133h1M225 133h1M227 133h1M229 133h1M231 133h1M233 133h1M235 133h1M237 133h1M239 133h1M241 133h1M243 133h1M249 133h1M251 133h1M253 133h1M255 133h1M257 133h1M259 133h1M261 133h1M263 133h1M265 133h1M273 133h1M275 133h1M277 133h1M279 133h1M281 133h1M283 133h1M285 133h1M299 133h1M303 133h1M305 133h1M307 133h1M309 133h1M329 133h1M331 133h1M333 133h1M335 133h1M337 133h1M339 133h1M341 133h1M343 133h1M345 133h1M347 133h1M349 133h1M351 133h1M353 133h1M355 133h1M5 135h1M7 135h1M9 135h1M11 135h1M13 135h1M15 135h1M17 135h1M35 135h1M37 135h1M39 135h1M41 135h1M43 135h1M45 135h1M47 135h1M49 135h1M51 135h1M53 135h1M71 135h1M73 135h1M75 135h1M77 135h1M79 135h1M81 135h1M83 135h1M85 135h1M87 135h1M95 135h1M97 135h1M99 135h1M101 135h1M103 135h1M105 135h1M107 135h1M109 135h1M111 135h1M113 135h1M115 135h1M117 135h1M119 135h1M135 135h1M151 135h1M153 135h1M155 135h1M157 135h1M159 135h1M161 135h1M163 135h1M165 135h1M167 135h1M169 135h1M171 135h1M173 135h1M175 135h1M183 135h1M185 135h1M187 135h1M189 135h1M191 135h1M193 135h1M195 135h1M197 135h1M199 135h1M201 135h1M221 135h1M223 135h1M225 135h1M227 135h1M229 135h1M231 135h1M233 135h1M235 135h1M237 135h1M239 135h1M241 135h1M243 135h1M245 135h1M249 135h1M251 135h1M253 135h1M255 135h1M257 135h1M259 135h1M261 135h1M263 135h1M265 135h1M273 135h1M275 135h1M277 135h1M279 135h1M281 135h1M283 135h1M285 135h1M297 135h1M301 135h1M303 135h1M305 135h1M307 135h1M309 135h1M327 135h1M329 135h1M331 135h1M333 135h1M335 135h1M337 135h1M339 135h1M341 135h1M343 135h1M345 135h1M347 135h1M349 135h1M351 135h1M353 135h1M355 135h1M19 137h1M23 137h1M27 137h1M31 137h1M55 137h1M59 137h1M63 137h1M67 137h1M119 137h1M123 137h1M127 137h1M131 137h1M139 137h1M143 137h1M147 137h1M151 137h1M203 137h1M207 137h1M211 137h1M215 137h1M273 137h1M275 137h1M277 137h1M279 137h1M281 137h1M283 137h1M285 137h1M299 137h1M311 137h1M315 137h1M319 137h1M323 137h1M21 139h1M25 139h1M29 139h1M33 139h1M57 139h1M61 139h1M65 139h1M69 139h1M121 139h1M125 139h1M129 139h1M141 139h1M145 139h1M149 139h1M201 139h1M205 139h1M209 139h1M213 139h1M217 139h1M273 139h1M275 139h1M277 139h1M279 139h1M281 139h1M283 139h1M285 139h1M297 139h1M301 139h1M309 139h1M313 139h1M317 139h1M321 139h1M19 141h1M23 141h1M27 141h1M31 141h1M55 141h1M59 141h1M63 141h1M67 141h1M119 141h1M123 141h1M127 141h1M131 141h1M139 141h1M143 141h1M147 141h1M151 141h1M203 141h1M207 141h1M211 141h1M215 141h1M273 141h1M275 141h1M277 141h1M279 141h1M281 141h1M283 141h1M285 141h1M299 141h1M307 141h1M311 141h1M315 141h1M319 141h1M5 143h1M7 143h1M9 143h1M11 143h1M13 143h1M15 143h1M17 143h1M35 143h1M37 143h1M39 143h1M41 143h1M43 143h1M45 143h1M47 143h1M49 143h1M51 143h1M53 143h1M71 143h1M73 143h1M75 143h1M77 143h1M79 143h1M81 143h1M83 143h1M85 143h1M87 143h1M95 143h1M97 143h1M99 143h1M101 143h1M103 143h1M105 143h1M107 143h1M109 143h1M111 143h1M113 143h1M115 143h1M117 143h1M133 143h1M135 143h1M137 143h1M153 143h1M155 143h1M157 143h1M159 143h1M161 143h1M163 143h1M165 143h1M167 143h1M169 143h1M171 143h1M173 143h1M175 143h1M183 143h1M185 143h1M187 143h1M189 143h1M191 143h1M193 143h1M195 143h1M197 143h1M199 143h1M209 143h1M213 143h1M273 143h1M275 143h1M277 143h1M279 143h1M281 143h1M283 143h1M285 143h1M303 143h1M321 143h1M323 143h1M325 143h1M327 143h1M329 143h1M331 143h1M333 143h1M335 143h1M337 143h1M339 143h1M341 143h1M343 143h1M345 143h1M347 143h1M349 143h1M351 143h1M353 143h1M355 143h1M5 145h1M7 145h1M9 145h1M11 145h1M13 145h1M15 145h1M17 145h1M35 145h1M37 145h1M39 145h1M41 145h1M43 145h1M45 145h1M47 145h1M49 145h1M51 145h1M71 145h1M73 145h1M75 145h1M77 145h1M79 145h1M81 145h1M83 145h1M85 145h1M87 145h1M95 145h1M97 145h1M99 145h1M101 145h1M103 145h1M105 145h1M107 145h1M109 145h1M111 145h1M113 145h1M115 145h1M133 145h1M135 145h1M137 145h1M155 145h1M157 145h1M159 145h1M161 145h1M163 145h1M165 145h1M167 145h1M169 145h1M171 145h1M173 145h1M175 145h1M183 145h1M185 145h1M187 145h1M189 145h1M191 145h1M193 145h1M195 145h1M197 145h1M199 145h1M207 145h1M211 145h1M215 145h1M273 145h1M275 145h1M277 145h1M279 145h1M281 145h1M283 145h1M285 145h1M319 145h1M321 145h1M323 145h1M325 145h1M327 145h1M329 145h1M331 145h1M333 145h1M335 145h1M337 145h1M339 145h1M341 145h1M343 145h1M345 145h1M347 145h1M349 145h1M351 145h1M353 145h1M355 145h1M5 147h1M7 147h1M9 147h1M11 147h1M13 147h1M15 147h1M17 147h1M35 147h1M37 147h1M39 147h1M41 147h1M43 147h1M45 147h1M47 147h1M49 147h1M69 147h1M71 147h1M73 147h1M75 147h1M77 147h1M79 147h1M81 147h1M83 147h1M85 147h1M87 147h1M95 147h1M97 147h1M99 147h1M101 147h1M103 147h1M105 147h1M107 147h1M109 147h1M111 147h1M113 147h1M115 147h1M131 147h1M133 147h1M135 147h1M137 147h1M139 147h1M155 147h1M157 147h1M159 147h1M161 147h1M163 147h1M165 147h1M167 147h1M169 147h1M171 147h1M173 147h1M175 147h1M183 147h1M185 147h1M187 147h1M189 147h1M191 147h1M193 147h1M195 147h1M197 147h1M199 147h1M209 147h1M213 147h1M273 147h1M275 147h1M277 147h1M279 147h1M281 147h1M283 147h1M285 147h1M321 147h1M323 147h1M325 147h1M327 147h1M329 147h1M331 147h1M333 147h1M335 147h1M337 147h1M339 147h1M341 147h1M343 147h1M345 147h1M347 147h1M349 147h1M351 147h1M353 147h1M355 147h1M5 149h1M7 149h1M9 149h1M11 149h1M13 149h1M15 149h1M17 149h1M69 149h1M71 149h1M73 149h1M75 149h1M77 149h1M79 149h1M81 149h1M83 149h1M85 149h1M87 149h1M95 149h1M97 149h1M99 149h1M101 149h1M103 149h1M105 149h1M107 149h1M109 149h1M111 149h1M113 149h1M115 149h1M131 149h1M133 149h1M135 149h1M137 149h1M139 149h1M155 149h1M157 149h1M159 149h1M161 149h1M163 149h1M165 149h1M167 149h1M169 149h1M171 149h1M173 149h1M175 149h1M183 149h1M185 149h1M187 149h1M189 149h1M191 149h1M193 149h1M195 149h1M197 149h1M207 149h1M211 149h1M273 149h1M275 149h1M277 149h1M279 149h1M281 149h1M283 149h1M285 149h1M323 149h1M325 149h1M327 149h1M329 149h1M331 149h1M333 149h1M335 149h1M337 149h1M339 149h1M341 149h1M343 149h1M345 149h1M347 149h1M349 149h1M351 149h1M353 149h1M355 149h1M5 151h1M7 151h1M9 151h1M11 151h1M13 151h1M15 151h1M17 151h1M67 151h1M69 151h1M71 151h1M73 151h1M75 151h1M77 151h1M79 151h1M81 151h1M83 151h1M85 151h1M87 151h1M95 151h1M97 151h1M99 151h1M101 151h1M103 151h1M105 151h1M107 151h1M109 151h1M111 151h1M113 151h1M115 151h1M131 151h1M133 151h1M135 151h1M137 151h1M139 151h1M155 151h1M157 151h1M159 151h1M161 151h1M163 151h1M165 151h1M167 151h1M169 151h1M171 151h1M173 151h1M175 151h1M183 151h1M185 151h1M187 151h1M189 151h1M191 151h1M193 151h1M195 151h1M197 151h1M209 151h1M213 151h1M273 151h1M275 151h1M277 151h1M279 151h1M281 151h1M283 151h1M285 151h1M323 151h1M325 151h1M327 151h1M329 151h1M331 151h1M333 151h1M335 151h1M337 151h1M339 151h1M341 151h1M343 151h1M345 151h1M347 151h1M349 151h1M351 151h1M353 151h1M355 151h1M5 153h1M7 153h1M9 153h1M11 153h1M13 153h1M15 153h1M17 153h1M65 153h1M67 153h1M69 153h1M71 153h1M73 153h1M75 153h1M77 153h1M79 153h1M81 153h1M83 153h1M85 153h1M87 153h1M95 153h1M97 153h1M99 153h1M101 153h1M103 153h1M105 153h1M107 153h1M109 153h1M111 153h1M113 153h1M131 153h1M133 153h1M135 153h1M137 153h1M139 153h1M157 153h1M159 153h1M161 153h1M163 153h1M165 153h1M167 153h1M169 153h1M171 153h1M173 153h1M175 153h1M183 153h1M185 153h1M187 153h1M189 153h1M191 153h1M193 153h1M195 153h1M197 153h1M207 153h1M211 153h1M273 153h1M275 153h1M277 153h1M279 153h1M281 153h1M283 153h1M285 153h1M325 153h1M327 153h1M329 153h1M331 153h1M333 153h1M335 153h1M337 153h1M339 153h1M341 153h1M343 153h1M345 153h1M347 153h1M349 153h1M351 153h1M353 153h1M355 153h1M5 155h1M7 155h1M9 155h1M11 155h1M13 155h1M15 155h1M17 155h1M61 155h1M63 155h1M65 155h1M67 155h1M69 155h1M71 155h1M73 155h1M75 155h1M77 155h1M79 155h1M81 155h1M83 155h1M85 155h1M87 155h1M95 155h1M97 155h1M99 155h1M101 155h1M103 155h1M105 155h1M107 155h1M109 155h1M111 155h1M113 155h1M129 155h1M131 155h1M133 155h1M135 155h1M137 155h1M139 155h1M141 155h1M157 155h1M159 155h1M161 155h1M163 155h1M165 155h1M167 155h1M169 155h1M171 155h1M173 155h1M175 155h1M183 155h1M185 155h1M187 155h1M189 155h1M191 155h1M193 155h1M195 155h1M197 155h1M209 155h1M213 155h1M273 155h1M275 155h1M277 155h1M279 155h1M281 155h1M283 155h1M285 155h1M325 155h1M327 155h1M329 155h1M331 155h1M333 155h1M335 155h1M337 155h1M339 155h1M341 155h1M343 155h1M345 155h1M347 155h1M349 155h1M351 155h1M353 155h1M355 155h1M5 157h1M7 157h1M9 157h1M11 157h1M13 157h1M15 157h1M17 157h1M59 157h1M61 157h1M63 157h1M65 157h1M67 157h1M69 157h1M71 157h1M73 157h1M75 157h1M77 157h1M79 157h1M81 157h1M83 157h1M85 157h1M87 157h1M95 157h1M97 157h1M99 157h1M101 157h1M103 157h1M105 157h1M107 157h1M109 157h1M111 157h1M113 157h1M129 157h1M131 157h1M133 157h1M135 157h1M137 157h1M139 157h1M141 157h1M157 157h1M159 157h1M161 157h1M163 157h1M165 157h1M167 157h1M169 157h1M171 157h1M173 157h1M175 157h1M183 157h1M185 157h1M187 157h1M189 157h1M191 157h1M193 157h1M195 157h1M197 157h1M207 157h1M211 157h1M273 157h1M275 157h1M277 157h1M279 157h1M281 157h1M283 157h1M285 157h1M327 157h1M329 157h1M331 157h1M333 157h1M335 157h1M337 157h1M339 157h1M341 157h1M343 157h1M345 157h1M347 157h1M349 157h1M351 157h1M353 157h1M355 157h1M5 159h1M7 159h1M9 159h1M11 159h1M13 159h1M15 159h1M17 159h1M61 159h1M63 159h1M65 159h1M67 159h1M69 159h1M71 159h1M73 159h1M75 159h1M77 159h1M79 159h1M81 159h1M83 159h1M85 159h1M87 159h1M95 159h1M97 159h1M99 159h1M101 159h1M103 159h1M105 159h1M107 159h1M109 159h1M111 159h1M129 159h1M131 159h1M133 159h1M135 159h1M137 159h1M139 159h1M141 159h1M159 159h1M161 159h1M163 159h1M165 159h1M167 159h1M169 159h1M171 159h1M173 159h1M175 159h1M183 159h1M185 159h1M187 159h1M189 159h1M191 159h1M193 159h1M195 159h1M197 159h1M209 159h1M213 159h1M273 159h1M275 159h1M277 159h1M279 159h1M281 159h1M283 159h1M285 159h1M309 159h1M327 159h1M329 159h1M331 159h1M333 159h1M335 159h1M337 159h1M339 159h1M341 159h1M343 159h1M345 159h1M347 159h1M349 159h1M351 159h1M353 159h1M355 159h1M5 161h1M7 161h1M9 161h1M11 161h1M13 161h1M15 161h1M17 161h1M63 161h1M65 161h1M67 161h1M69 161h1M71 161h1M73 161h1M75 161h1M77 161h1M79 161h1M81 161h1M83 161h1M85 161h1M87 161h1M95 161h1M97 161h1M99 161h1M101 161h1M103 161h1M105 161h1M107 161h1M109 161h1M111 161h1M159 161h1M161 161h1M163 161h1M165 161h1M167 161h1M169 161h1M171 161h1M173 161h1M175 161h1M183 161h1M185 161h1M187 161h1M189 161h1M191 161h1M193 161h1M195 161h1M197 161h1M199 161h1M207 161h1M211 161h1M215 161h1M273 161h1M275 161h1M277 161h1M279 161h1M281 161h1M283 161h1M285 161h1M307 161h1M309 161h1M329 161h1M331 161h1M333 161h1M335 161h1M337 161h1M339 161h1M341 161h1M343 161h1M345 161h1M347 161h1M349 161h1M351 161h1M353 161h1M355 161h1M5 163h1M7 163h1M9 163h1M11 163h1M13 163h1M15 163h1M17 163h1M35 163h1M37 163h1M39 163h1M41 163h1M63 163h1M65 163h1M67 163h1M69 163h1M71 163h1M73 163h1M75 163h1M77 163h1M79 163h1M81 163h1M83 163h1M85 163h1M87 163h1M95 163h1M97 163h1M99 163h1M101 163h1M103 163h1M105 163h1M107 163h1M109 163h1M111 163h1M159 163h1M161 163h1M163 163h1M165 163h1M167 163h1M169 163h1M171 163h1M173 163h1M175 163h1M183 163h1M185 163h1M187 163h1M189 163h1M191 163h1M193 163h1M195 163h1M197 163h1M199 163h1M209 163h1M213 163h1M273 163h1M275 163h1M277 163h1M279 163h1M281 163h1M283 163h1M285 163h1M305 163h1M307 163h1M309 163h1M311 163h1M329 163h1M331 163h1M333 163h1M335 163h1M337 163h1M339 163h1M341 163h1M343 163h1M345 163h1M347 163h1M349 163h1M351 163h1M353 163h1M355 163h1M5 165h1M7 165h1M9 165h1M11 165h1M13 165h1M15 165h1M17 165h1M35 165h1M37 165h1M39 165h1M41 165h1M43 165h1M45 165h1M65 165h1M67 165h1M69 165h1M71 165h1M73 165h1M75 165h1M77 165h1M79 165h1M81 165h1M83 165h1M85 165h1M87 165h1M95 165h1M97 165h1M99 165h1M101 165h1M103 165h1M105 165h1M107 165h1M109 165h1M111 165h1M159 165h1M161 165h1M163 165h1M165 165h1M167 165h1M169 165h1M171 165h1M173 165h1M175 165h1M183 165h1M185 165h1M187 165h1M189 165h1M191 165h1M193 165h1M195 165h1M197 165h1M199 165h1M207 165h1M211 165h1M215 165h1M273 165h1M275 165h1M277 165h1M279 165h1M281 165h1M283 165h1M285 165h1M303 165h1M305 165h1M307 165h1M309 165h1M311 165h1M331 165h1M333 165h1M335 165h1M337 165h1M339 165h1M341 165h1M343 165h1M345 165h1M347 165h1M349 165h1M351 165h1M353 165h1M355 165h1M19 167h1M23 167h1M27 167h1M31 167h1M51 167h1M55 167h1M59 167h1M63 167h1M65 167h1M67 167h1M69 167h1M71 167h1M73 167h1M75 167h1M77 167h1M79 167h1M81 167h1M83 167h1M85 167h1M87 167h1M95 167h1M97 167h1M99 167h1M101 167h1M103 167h1M105 167h1M107 167h1M109 167h1M121 167h1M125 167h1M129 167h1M133 167h1M137 167h1M141 167h1M145 167h1M149 167h1M153 167h1M157 167h1M183 167h1M185 167h1M187 167h1M189 167h1M191 167h1M193 167h1M195 167h1M197 167h1M199 167h1M209 167h1M213 167h1M273 167h1M275 167h1M277 167h1M279 167h1M281 167h1M283 167h1M285 167h1M299 167h1M315 167h1M319 167h1M323 167h1M327 167h1M333 167h1M335 167h1M337 167h1M339 167h1M341 167h1M343 167h1M345 167h1M347 167h1M349 167h1M351 167h1M353 167h1M355 167h1M21 169h1M25 169h1M29 169h1M33 169h1M49 169h1M53 169h1M57 169h1M61 169h1M67 169h1M69 169h1M71 169h1M73 169h1M75 169h1M77 169h1M79 169h1M81 169h1M83 169h1M85 169h1M87 169h1M95 169h1M97 169h1M99 169h1M101 169h1M103 169h1M105 169h1M107 169h1M109 169h1M119 169h1M123 169h1M127 169h1M131 169h1M135 169h1M139 169h1M143 169h1M147 169h1M151 169h1M155 169h1M159 169h1M183 169h1M185 169h1M187 169h1M189 169h1M191 169h1M193 169h1M195 169h1M197 169h1M199 169h1M207 169h1M211 169h1M215 169h1M273 169h1M275 169h1M277 169h1M279 169h1M281 169h1M283 169h1M285 169h1M297 169h1M301 169h1M317 169h1M321 169h1M325 169h1M329 169h1M333 169h1M335 169h1M337 169h1M339 169h1M341 169h1M343 169h1M345 169h1M347 169h1M349 169h1M351 169h1M353 169h1M355 169h1M19 171h1M23 171h1M27 171h1M31 171h1M51 171h1M55 171h1M59 171h1M63 171h1M67 171h1M69 171h1M71 171h1M73 171h1M75 171h1M77 171h1M79 171h1M81 171h1M83 171h1M85 171h1M87 171h1M95 171h1M97 171h1M99 171h1M101 171h1M103 171h1M105 171h1M107 171h1M109 171h1M121 171h1M125 171h1M129 171h1M133 171h1M137 171h1M141 171h1M145 171h1M149 171h1M153 171h1M157 171h1M183 171h1M185 171h1M187 171h1M189 171h1M191 171h1M193 171h1M195 171h1M197 171h1M199 171h1M201 171h1M209 171h1M213 171h1M217 171h1M273 171h1M275 171h1M277 171h1M279 171h1M281 171h1M283 171h1M285 171h1M299 171h1M319 171h1M323 171h1M327 171h1M331 171h1M335 171h1M337 171h1M339 171h1M341 171h1M343 171h1M345 171h1M347 171h1M349 171h1M351 171h1M353 171h1M355 171h1M21 173h1M25 173h1M29 173h1M33 173h1M53 173h1M57 173h1M61 173h1M69 173h1M71 173h1M73 173h1M75 173h1M77 173h1M79 173h1M81 173h1M83 173h1M85 173h1M87 173h1M95 173h1M97 173h1M99 173h1M101 173h1M103 173h1M105 173h1M107 173h1M109 173h1M161 173h1M163 173h1M165 173h1M167 173h1M169 173h1M171 173h1M173 173h1M175 173h1M183 173h1M185 173h1M187 173h1M189 173h1M191 173h1M193 173h1M195 173h1M197 173h1M199 173h1M201 173h1M221 173h1M223 173h1M225 173h1M227 173h1M229 173h1M231 173h1M233 173h1M235 173h1M237 173h1M239 173h1M241 173h1M243 173h1M245 173h1M249 173h1M251 173h1M253 173h1M255 173h1M257 173h1M259 173h1M261 173h1M263 173h1M265 173h1M273 173h1M275 173h1M277 173h1M279 173h1M281 173h1M283 173h1M285 173h1M297 173h1M301 173h1M321 173h1M325 173h1M329 173h1M335 173h1M337 173h1M339 173h1M341 173h1M343 173h1M345 173h1M347 173h1M349 173h1M351 173h1M353 173h1M355 173h1M19 175h1M23 175h1M27 175h1M31 175h1M55 175h1M59 175h1M63 175h1M69 175h1M71 175h1M73 175h1M75 175h1M77 175h1M79 175h1M81 175h1M83 175h1M85 175h1M87 175h1M95 175h1M97 175h1M99 175h1M101 175h1M103 175h1M105 175h1M107 175h1M125 175h1M127 175h1M129 175h1M131 175h1M133 175h1M135 175h1M137 175h1M139 175h1M141 175h1M143 175h1M145 175h1M163 175h1M165 175h1M167 175h1M169 175h1M171 175h1M173 175h1M175 175h1M183 175h1M185 175h1M187 175h1M189 175h1M191 175h1M193 175h1M195 175h1M197 175h1M199 175h1M201 175h1M221 175h1M223 175h1M225 175h1M227 175h1M229 175h1M231 175h1M233 175h1M235 175h1M237 175h1M239 175h1M241 175h1M243 175h1M249 175h1M251 175h1M253 175h1M255 175h1M257 175h1M259 175h1M261 175h1M263 175h1M265 175h1M273 175h1M275 175h1M277 175h1M279 175h1M281 175h1M283 175h1M285 175h1M299 175h1M319 175h1M323 175h1M327 175h1M331 175h1M337 175h1M339 175h1M341 175h1M343 175h1M345 175h1M347 175h1M349 175h1M351 175h1M353 175h1M355 175h1M21 177h1M25 177h1M29 177h1M33 177h1M53 177h1M57 177h1M61 177h1M71 177h1M73 177h1M75 177h1M77 177h1M79 177h1M81 177h1M83 177h1M85 177h1M87 177h1M95 177h1M97 177h1M99 177h1M101 177h1M103 177h1M105 177h1M107 177h1M125 177h1M127 177h1M129 177h1M131 177h1M133 177h1M135 177h1M137 177h1M139 177h1M141 177h1M143 177h1M145 177h1M163 177h1M165 177h1M167 177h1M169 177h1M171 177h1M173 177h1M175 177h1M183 177h1M185 177h1M187 177h1M189 177h1M191 177h1M193 177h1M195 177h1M197 177h1M199 177h1M201 177h1M203 177h1M225 177h1M227 177h1M229 177h1M231 177h1M233 177h1M235 177h1M237 177h1M239 177h1M241 177h1M249 177h1M251 177h1M253 177h1M255 177h1M257 177h1M259 177h1M261 177h1M263 177h1M265 177h1M273 177h1M275 177h1M277 177h1M279 177h1M281 177h1M283 177h1M285 177h1M297 177h1M301 177h1M321 177h1M325 177h1M329 177h1M337 177h1M339 177h1M341 177h1M343 177h1M345 177h1M347 177h1M349 177h1M351 177h1M353 177h1M355 177h1M19 179h1M23 179h1M27 179h1M31 179h1M55 179h1M59 179h1M63 179h1M71 179h1M73 179h1M75 179h1M77 179h1M79 179h1M81 179h1M83 179h1M85 179h1M87 179h1M95 179h1M97 179h1M99 179h1M101 179h1M103 179h1M105 179h1M107 179h1M123 179h1M125 179h1M127 179h1M129 179h1M131 179h1M133 179h1M135 179h1M137 179h1M139 179h1M141 179h1M143 179h1M145 179h1M163 179h1M165 179h1M167 179h1M169 179h1M171 179h1M173 179h1M175 179h1M183 179h1M185 179h1M187 179h1M189 179h1M191 179h1M193 179h1M195 179h1M197 179h1M199 179h1M201 179h1M203 179h1M229 179h1M231 179h1M233 179h1M235 179h1M249 179h1M251 179h1M253 179h1M255 179h1M257 179h1M259 179h1M261 179h1M263 179h1M265 179h1M273 179h1M275 179h1M277 179h1M279 179h1M281 179h1M283 179h1M285 179h1M299 179h1M323 179h1M327 179h1M331 179h1M339 179h1M341 179h1M343 179h1M345 179h1M347 179h1M349 179h1M351 179h1M353 179h1M355 179h1M21 181h1M25 181h1M29 181h1M33 181h1M57 181h1M61 181h1M73 181h1M75 181h1M77 181h1M79 181h1M81 181h1M83 181h1M85 181h1M87 181h1M95 181h1M97 181h1M99 181h1M101 181h1M103 181h1M105 181h1M123 181h1M125 181h1M127 181h1M129 181h1M131 181h1M133 181h1M135 181h1M137 181h1M139 181h1M141 181h1M143 181h1M145 181h1M147 181h1M165 181h1M167 181h1M169 181h1M171 181h1M173 181h1M175 181h1M183 181h1M185 181h1M187 181h1M189 181h1M191 181h1M193 181h1M195 181h1M197 181h1M199 181h1M201 181h1M203 181h1M205 181h1M249 181h1M251 181h1M253 181h1M255 181h1M257 181h1M259 181h1M261 181h1M263 181h1M265 181h1M273 181h1M275 181h1M277 181h1M279 181h1M281 181h1M283 181h1M285 181h1M297 181h1M301 181h1M321 181h1M325 181h1M329 181h1M339 181h1M341 181h1M343 181h1M345 181h1M347 181h1M349 181h1M351 181h1M353 181h1M355 181h1M19 183h1M23 183h1M27 183h1M31 183h1M59 183h1M63 183h1M73 183h1M75 183h1M77 183h1M79 183h1M81 183h1M83 183h1M85 183h1M87 183h1M95 183h1M97 183h1M99 183h1M101 183h1M103 183h1M105 183h1M123 183h1M125 183h1M127 183h1M129 183h1M131 183h1M133 183h1M135 183h1M137 183h1M139 183h1M141 183h1M143 183h1M145 183h1M147 183h1M165 183h1M167 183h1M169 183h1M171 183h1M173 183h1M175 183h1M183 183h1M185 183h1M187 183h1M189 183h1M191 183h1M193 183h1M195 183h1M197 183h1M199 183h1M201 183h1M203 183h1M205 183h1M207 183h1M249 183h1M251 183h1M253 183h1M255 183h1M257 183h1M259 183h1M261 183h1M263 183h1M265 183h1M273 183h1M275 183h1M277 183h1M279 183h1M281 183h1M283 183h1M285 183h1M299 183h1M323 183h1M327 183h1M331 183h1M341 183h1M343 183h1M345 183h1M347 183h1M349 183h1M351 183h1M353 183h1M355 183h1M21 185h1M25 185h1M29 185h1M33 185h1M57 185h1M61 185h1M75 185h1M77 185h1M79 185h1M81 185h1M83 185h1M85 185h1M87 185h1M95 185h1M97 185h1M99 185h1M101 185h1M103 185h1M105 185h1M123 185h1M125 185h1M127 185h1M129 185h1M131 185h1M133 185h1M135 185h1M137 185h1M139 185h1M141 185h1M143 185h1M145 185h1M147 185h1M165 185h1M167 185h1M169 185h1M171 185h1M173 185h1M175 185h1M183 185h1M185 185h1M187 185h1M189 185h1M191 185h1M193 185h1M195 185h1M197 185h1M199 185h1M201 185h1M203 185h1M205 185h1M207 185h1M209 185h1M249 185h1M251 185h1M253 185h1M255 185h1M257 185h1M259 185h1M261 185h1M263 185h1M265 185h1M273 185h1M275 185h1M277 185h1M279 185h1M281 185h1M283 185h1M285 185h1M297 185h1M301 185h1M325 185h1M329 185h1M341 185h1M343 185h1M345 185h1M347 185h1M349 185h1M351 185h1M353 185h1M355 185h1M19 187h1M23 187h1M27 187h1M31 187h1M59 187h1M63 187h1M75 187h1M77 187h1M79 187h1M81 187h1M83 187h1M85 187h1M87 187h1M95 187h1M97 187h1M99 187h1M101 187h1M103 187h1M105 187h1M123 187h1M125 187h1M127 187h1M129 187h1M131 187h1M133 187h1M135 187h1M137 187h1M139 187h1M141 187h1M143 187h1M145 187h1M147 187h1M165 187h1M167 187h1M169 187h1M171 187h1M173 187h1M175 187h1M183 187h1M185 187h1M187 187h1M189 187h1M191 187h1M193 187h1M195 187h1M197 187h1M199 187h1M201 187h1M203 187h1M205 187h1M207 187h1M209 187h1M211 187h1M249 187h1M251 187h1M253 187h1M255 187h1M257 187h1M259 187h1M261 187h1M263 187h1M265 187h1M273 187h1M275 187h1M277 187h1M279 187h1M281 187h1M283 187h1M285 187h1M299 187h1M327 187h1M331 187h1M343 187h1M345 187h1M347 187h1M349 187h1M351 187h1M353 187h1M355 187h1M21 189h1M25 189h1M29 189h1M33 189h1M61 189h1M77 189h1M79 189h1M81 189h1M83 189h1M85 189h1M87 189h1M95 189h1M97 189h1M99 189h1M101 189h1M103 189h1M121 189h1M123 189h1M125 189h1M127 189h1M129 189h1M131 189h1M133 189h1M135 189h1M137 189h1M139 189h1M141 189h1M143 189h1M145 189h1M147 189h1M149 189h1M167 189h1M169 189h1M171 189h1M173 189h1M175 189h1M183 189h1M185 189h1M187 189h1M189 189h1M191 189h1M193 189h1M195 189h1M197 189h1M199 189h1M201 189h1M203 189h1M205 189h1M207 189h1M209 189h1M211 189h1M213 189h1M249 189h1M251 189h1M253 189h1M255 189h1M257 189h1M259 189h1M261 189h1M263 189h1M265 189h1M273 189h1M275 189h1M277 189h1M279 189h1M281 189h1M283 189h1M285 189h1M297 189h1M301 189h1M329 189h1M343 189h1M345 189h1M347 189h1M349 189h1M351 189h1M353 189h1M355 189h1M19 191h1M23 191h1M27 191h1M31 191h1M63 191h1M77 191h1M79 191h1M81 191h1M83 191h1M85 191h1M87 191h1M95 191h1M97 191h1M99 191h1M101 191h1M103 191h1M121 191h1M123 191h1M125 191h1M127 191h1M129 191h1M131 191h1M133 191h1M135 191h1M137 191h1M139 191h1M141 191h1M143 191h1M145 191h1M147 191h1M149 191h1M167 191h1M169 191h1M171 191h1M173 191h1M175 191h1M183 191h1M185 191h1M187 191h1M189 191h1M191 191h1M193 191h1M195 191h1M197 191h1M199 191h1M201 191h1M203 191h1M205 191h1M207 191h1M209 191h1M211 191h1M213 191h1M215 191h1M217 191h1M247 191h1M249 191h1M251 191h1M253 191h1M255 191h1M257 191h1M259 191h1M261 191h1M263 191h1M265 191h1M273 191h1M275 191h1M277 191h1M279 191h1M281 191h1M283 191h1M285 191h1M299 191h1M327 191h1M331 191h1M345 191h1M347 191h1M349 191h1M351 191h1M353 191h1M355 191h1M21 193h1M25 193h1M29 193h1M33 193h1M61 193h1M79 193h1M81 193h1M83 193h1M85 193h1M87 193h1M95 193h1M97 193h1M99 193h1M101 193h1M103 193h1M121 193h1M123 193h1M125 193h1M127 193h1M129 193h1M131 193h1M133 193h1M135 193h1M137 193h1M139 193h1M141 193h1M143 193h1M145 193h1M147 193h1M149 193h1M167 193h1M169 193h1M171 193h1M173 193h1M175 193h1M183 193h1M185 193h1M187 193h1M189 193h1M191 193h1M193 193h1M195 193h1M197 193h1M199 193h1M201 193h1M203 193h1M205 193h1M207 193h1M209 193h1M211 193h1M213 193h1M215 193h1M217 193h1M219 193h1M221 193h1M223 193h1M225 193h1M239 193h1M241 193h1M243 193h1M245 193h1M247 193h1M249 193h1M251 193h1M253 193h1M255 193h1M257 193h1M259 193h1M261 193h1M263 193h1M265 193h1M273 193h1M275 193h1M277 193h1M279 193h1M281 193h1M283 193h1M285 193h1M297 193h1M301 193h1M329 193h1M345 193h1M347 193h1M349 193h1M351 193h1M353 193h1M355 193h1M65 195h1M67 195h1M69 195h1M71 195h1M73 195h1M75 195h1M77 195h1M79 195h1M81 195h1M83 195h1M85 195h1M87 195h1M95 195h1M97 195h1M99 195h1M101 195h1M103 195h1M105 195h1M107 195h1M109 195h1M111 195h1M113 195h1M115 195h1M117 195h1M119 195h1M121 195h1M123 195h1M125 195h1M127 195h1M129 195h1M131 195h1M133 195h1M135 195h1M137 195h1M139 195h1M141 195h1M143 195h1M145 195h1M147 195h1M149 195h1M151 195h1M153 195h1M155 195h1M157 195h1M159 195h1M161 195h1M163 195h1M165 195h1M167 195h1M169 195h1M171 195h1M173 195h1M175 195h1M183 195h1M185 195h1M187 195h1M189 195h1M191 195h1M193 195h1M195 195h1M197 195h1M199 195h1M201 195h1M203 195h1M205 195h1M207 195h1M209 195h1M211 195h1M213 195h1M215 195h1M217 195h1M219 195h1M221 195h1M223 195h1M225 195h1M227 195h1M229 195h1M231 195h1M233 195h1M235 195h1M237 195h1M239 195h1M241 195h1M243 195h1M245 195h1M247 195h1M249 195h1M251 195h1M253 195h1M255 195h1M257 195h1M259 195h1M261 195h1M263 195h1M265 195h1M273 195h1M275 195h1M277 195h1M279 195h1M281 195h1M283 195h1M285 195h1M287 195h1M289 195h1M291 195h1M293 195h1M295 195h1M333 195h1M335 195h1M337 195h1M339 195h1M341 195h1M343 195h1M345 195h1M347 195h1M349 195h1M351 195h1M353 195h1M355 195h1M5 206h350M5 207h1M354 207h1M5 208h1M354 208h1M5 209h1M354 209h1M5 210h1M354 210h1M5 211h1M12 211h3M20 211h3M49 211h2M70 211h5M129 211h5M182 211h2M229 211h2M269 211h5M354 211h1M5 212h1M12 212h4M19 212h4M49 212h2M70 212h5M128 212h7M171 212h2M182 212h2M229 212h2M268 212h7M311 212h2M354 212h1M5 213h1M12 213h4M19 213h4M49 213h2M73 213h2M127 213h3M134 213h1M171 213h2M182 213h2M267 213h3M274 213h1M311 213h2M354 213h1M5 214h1M12 214h2M15 214h1M19 214h1M21 214h2M49 214h2M73 214h2M127 214h2M171 214h2M182 214h2M267 214h2M311 214h2M354 214h1M5 215h1M12 215h2M15 215h2M18 215h2M21 215h2M30 215h4M43 215h4M49 215h2M55 215h2M63 215h2M73 215h2M85 215h6M99 215h2M103 215h4M127 215h2M139 215h2M149 215h2M154 215h2M158 215h4M169 215h8M182 215h2M186 215h4M199 215h4M212 215h6M226 215h5M240 215h6M267 215h2M279 215h2M289 215h2M296 215h6M309 215h8M325 215h4M335 215h2M338 215h3M343 215h3M354 215h1M5 216h1M12 216h2M15 216h2M18 216h2M21 216h2M28 216h8M42 216h9M55 216h2M63 216h2M73 216h2M83 216h9M99 216h2M102 216h4M127 216h3M140 216h2M148 216h2M154 216h2M157 216h6M169 216h8M182 216h2M185 216h6M198 216h7M211 216h8M226 216h5M239 216h8M267 216h3M280 216h2M288 216h2M295 216h8M309 216h8M324 216h7M335 216h12M354 216h1M5 217h1M12 217h2M16 217h1M18 217h1M21 217h2M28 217h2M34 217h2M42 217h2M48 217h3M55 217h2M63 217h2M73 217h2M83 217h2M90 217h3M99 217h4M128 217h4M140 217h2M148 217h2M154 217h4M161 217h3M171 217h2M182 217h4M189 217h3M197 217h2M203 217h2M210 217h3M218 217h1M229 217h2M238 217h3M246 217h1M268 217h4M280 217h2M288 217h2M294 217h3M302 217h1M311 217h2M323 217h2M329 217h2M335 217h3M340 217h3M345 217h2M354 217h1M5 218h1M12 218h2M16 218h3M21 218h2M27 218h3M34 218h3M41 218h2M49 218h2M55 218h2M63 218h2M73 218h2M91 218h2M99 218h3M130 218h4M141 218h2M148 218h2M154 218h3M162 218h2M171 218h2M182 218h3M190 218h2M196 218h2M204 218h2M210 218h2M229 218h2M238 218h2M270 218h4M281 218h2M288 218h2M294 218h2M311 218h2M322 218h2M330 218h2M335 218h2M340 218h2M345 218h2M354 218h1M5 219h1M12 219h2M16 219h3M21 219h2M27 219h2M35 219h2M41 219h2M49 219h2M55 219h2M63 219h2M73 219h2M91 219h2M99 219h2M131 219h4M141 219h2M147 219h2M154 219h2M162 219h2M171 219h2M182 219h2M190 219h2M196 219h10M210 219h4M229 219h2M238 219h4M271 219h4M281 219h2M287 219h2M294 219h4M311 219h2M322 219h10M335 219h2M340 219h2M345 219h2M354 219h1M5 220h1M12 220h2M21 220h2M27 220h2M35 220h2M41 220h2M49 220h2M55 220h2M63 220h2M73 220h2M86 220h7M99 220h2M133 220h3M142 220h2M147 220h2M154 220h2M162 220h2M171 220h2M182 220h2M190 220h2M196 220h10M211 220h6M229 220h2M239 220h6M273 220h3M282 220h2M287 220h2M295 220h6M311 220h2M322 220h10M335 220h2M340 220h2M345 220h2M354 220h1M5 221h1M12 221h2M21 221h2M27 221h2M35 221h2M41 221h2M49 221h2M55 221h2M63 221h2M73 221h2M84 221h9M99 221h2M134 221h2M142 221h2M146 221h2M154 221h2M162 221h2M171 221h2M182 221h2M190 221h2M196 221h2M214 221h5M229 221h2M242 221h5M274 221h2M282 221h2M286 221h2M298 221h5M311 221h2M322 221h2M335 221h2M340 221h2M345 221h2M354 221h1M5 222h1M12 222h2M21 222h2M27 222h2M35 222h2M41 222h2M49 222h2M55 222h2M63 222h2M73 222h2M83 222h3M91 222h2M99 222h2M134 222h2M142 222h3M146 222h2M154 222h2M162 222h2M171 222h2M182 222h2M190 222h2M196 222h2M217 222h3M229 222h2M245 222h3M274 222h2M282 222h3M286 222h2M301 222h3M311 222h2M322 222h2M335 222h2M340 222h2M345 222h2M354 222h1M5 223h1M12 223h2M21 223h2M27 223h3M34 223h3M41 223h2M49 223h2M55 223h2M62 223h3M73 223h2M83 223h2M91 223h2M99 223h2M134 223h2M143 223h2M146 223h2M154 223h2M162 223h2M171 223h2M182 223h2M190 223h2M196 223h3M218 223h2M229 223h2M246 223h2M274 223h2M283 223h2M286 223h2M302 223h2M311 223h2M322 223h3M335 223h2M340 223h2M345 223h2M354 223h1M5 224h1M12 224h2M21 224h2M28 224h2M34 224h2M42 224h2M47 224h4M55 224h3M61 224h4M73 224h2M83 224h2M89 224h4M99 224h2M127 224h1M133 224h2M143 224h4M154 224h2M162 224h2M171 224h2M177 224h1M182 224h2M190 224h2M197 224h3M205 224h1M210 224h1M217 224h3M229 224h2M238 224h1M245 224h3M267 224h1M273 224h2M283 224h4M294 224h1M301 224h3M311 224h2M317 224h1M323 224h3M331 224h1M335 224h2M340 224h2M345 224h2M354 224h1M5 225h1M12 225h2M21 225h2M28 225h8M42 225h9M56 225h6M63 225h2M73 225h5M84 225h9M99 225h2M127 225h8M144 225h3M154 225h2M162 225h2M171 225h7M182 225h2M190 225h2M198 225h8M210 225h9M229 225h2M238 225h9M267 225h8M284 225h3M294 225h9M311 225h7M324 225h8M335 225h2M340 225h2M345 225h2M354 225h1M5 226h1M12 226h2M21 226h2M30 226h4M43 226h4M49 226h2M57 226h4M63 226h2M73 226h5M85 226h4M91 226h2M99 226h2M128 226h5M144 226h2M154 226h2M162 226h2M172 226h5M182 226h2M190 226h2M199 226h6M211 226h6M229 226h2M239 226h6M268 226h5M284 226h2M295 226h6M312 226h5M325 226h6M335 226h2M340 226h2M345 226h2M354 226h1M5 227h1M144 227h2M284 227h2M354 227h1M5 228h1M143 228h3M283 228h3M354 228h1M5 229h1M143 229h2M283 229h2M354 229h1M5 230h1M139 230h5M279 230h5M354 230h1M5 231h132M139 231h4M146 231h131M279 231h4M286 231h69" />
</svg>