<svg xmlns="http://www.w3.org/2000/svg" viewBox="0 -0.5 300 199" shape-rendering="crispEdges">
<metadata>Made with Pixels to Svg https://codepen.io/shshaw/pen/XbxvNj</metadata>
<path stroke="#ffffff" d="M0 0h1M2 0h1M4 0h1M6 0h1M8 0h1M10 0h1M12 0h1M14 0h1M16 0h1M18 0h1M20 0h1M22 0h1M24 0h1M26 0h1M28 0h1M30 0h1M32 0h1M34 0h1M36 0h1M38 0h1M40 0h1M42 0h1M44 0h1M46 0h1M48 0h1M50 0h1M52 0h1M54 0h1M56 0h1M58 0h1M60 0h1M62 0h1M64 0h1M66 0h1M68 0h1M70 0h1M72 0h1M74 0h1M76 0h1M78 0h1M80 0h1M82 0h1M84 0h1M86 0h1M88 0h1M90 0h1M92 0h1M94 0h1M96 0h1M98 0h1M100 0h1M102 0h1M104 0h1M106 0h1M108 0h1M110 0h1M112 0h1M114 0h1M116 0h1M118 0h1M120 0h1M122 0h1M124 0h1M126 0h1M128 0h1M130 0h1M132 0h1M134 0h1M136 0h1M138 0h1M140 0h1M142 0h1M144 0h1M159 0h1M163 0h1M167 0h1M171 0h1M175 0h1M179 0h1M183 0h1M187 0h1M191 0h1M231 0h1M235 0h1M239 0h1M243 0h1M247 0h1M251 0h1M255 0h1M267 0h1M0 2h1M2 2h1M4 2h1M6 2h1M8 2h1M10 2h1M12 2h1M14 2h1M16 2h1M18 2h1M20 2h1M22 2h1M24 2h1M26 2h1M28 2h1M30 2h1M32 2h1M34 2h1M36 2h1M38 2h1M40 2h1M42 2h1M44 2h1M46 2h1M48 2h1M50 2h1M52 2h1M54 2h1M56 2h1M58 2h1M60 2h1M62 2h1M64 2h1M66 2h1M68 2h1M70 2h1M72 2h1M74 2h1M76 2h1M78 2h1M80 2h1M82 2h1M84 2h1M86 2h1M88 2h1M90 2h1M92 2h1M94 2h1M96 2h1M98 2h1M100 2h1M102 2h1M104 2h1M106 2h1M108 2h1M110 2h1M112 2h1M114 2h1M116 2h1M118 2h1M120 2h1M122 2h1M124 2h1M126 2h1M128 2h1M130 2h1M132 2h1M134 2h1M136 2h1M138 2h1M140 2h1M142 2h1M144 2h1M157 2h1M161 2h1M165 2h1M169 2h1M173 2h1M177 2h1M181 2h1M185 2h1M189 2h1M229 2h1M233 2h1M237 2h1M241 2h1M245 2h1M249 2h1M265 2h1M269 2h1M273 2h1M0 4h1M2 4h1M4 4h1M6 4h1M8 4h1M10 4h1M12 4h1M14 4h1M16 4h1M18 4h1M20 4h1M22 4h1M24 4h1M26 4h1M28 4h1M30 4h1M32 4h1M34 4h1M36 4h1M38 4h1M40 4h1M42 4h1M44 4h1M46 4h1M48 4h1M50 4h1M52 4h1M54 4h1M56 4h1M58 4h1M60 4h1M62 4h1M64 4h1M66 4h1M68 4h1M70 4h1M72 4h1M74 4h1M76 4h1M78 4h1M80 4h1M82 4h1M84 4h1M86 4h1M88 4h1M90 4h1M92 4h1M94 4h1M96 4h1M98 4h1M100 4h1M102 4h1M104 4h1M106 4h1M108 4h1M110 4h1M112 4h1M114 4h1M116 4h1M118 4h1M120 4h1M122 4h1M124 4h1M126 4h1M128 4h1M130 4h1M132 4h1M134 4h1M136 4h1M138 4h1M140 4h1M142 4h1M144 4h1M146 4h1M159 4h1M163 4h1M167 4h1M171 4h1M175 4h1M179 4h1M183 4h1M187 4h1M191 4h1M227 4h1M231 4h1M235 4h1M239 4h1M243 4h1M267 4h1M271 4h1M275 4h1M279 4h1M0 6h1M2 6h1M4 6h1M6 6h1M8 6h1M10 6h1M12 6h1M14 6h1M16 6h1M18 6h1M20 6h1M22 6h1M24 6h1M26 6h1M28 6h1M30 6h1M32 6h1M34 6h1M36 6h1M38 6h1M40 6h1M42 6h1M44 6h1M46 6h1M48 6h1M50 6h1M52 6h1M54 6h1M56 6h1M58 6h1M60 6h1M62 6h1M64 6h1M66 6h1M68 6h1M70 6h1M72 6h1M74 6h1M76 6h1M78 6h1M80 6h1M82 6h1M84 6h1M86 6h1M88 6h1M90 6h1M92 6h1M94 6h1M96 6h1M98 6h1M100 6h1M102 6h1M104 6h1M106 6h1M108 6h1M110 6h1M112 6h1M114 6h1M116 6h1M118 6h1M120 6h1M122 6h1M124 6h1M126 6h1M128 6h1M130 6h1M132 6h1M134 6h1M136 6h1M138 6h1M140 6h1M142 6h1M144 6h1M146 6h1M161 6h1M165 6h1M169 6h1M173 6h1M177 6h1M181 6h1M185 6h1M189 6h1M225 6h1M229 6h1M233 6h1M237 6h1M241 6h1M265 6h1M269 6h1M273 6h1M277 6h1M281 6h1M0 8h1M2 8h1M4 8h1M6 8h1M8 8h1M10 8h1M12 8h1M14 8h1M16 8h1M18 8h1M20 8h1M22 8h1M24 8h1M26 8h1M28 8h1M30 8h1M32 8h1M34 8h1M36 8h1M38 8h1M40 8h1M42 8h1M44 8h1M46 8h1M48 8h1M50 8h1M52 8h1M54 8h1M56 8h1M58 8h1M60 8h1M62 8h1M64 8h1M66 8h1M68 8h1M70 8h1M72 8h1M74 8h1M76 8h1M78 8h1M80 8h1M82 8h1M84 8h1M86 8h1M88 8h1M90 8h1M92 8h1M94 8h1M96 8h1M98 8h1M100 8h1M102 8h1M104 8h1M106 8h1M108 8h1M110 8h1M112 8h1M114 8h1M116 8h1M118 8h1M120 8h1M122 8h1M124 8h1M126 8h1M128 8h1M130 8h1M132 8h1M134 8h1M136 8h1M138 8h1M140 8h1M142 8h1M144 8h1M146 8h1M148 8h1M163 8h1M167 8h1M171 8h1M175 8h1M179 8h1M183 8h1M187 8h1M191 8h1M227 8h1M231 8h1M235 8h1M239 8h1M267 8h1M271 8h1M275 8h1M279 8h1M283 8h1M0 10h1M2 10h1M4 10h1M6 10h1M8 10h1M10 10h1M12 10h1M14 10h1M16 10h1M18 10h1M20 10h1M22 10h1M24 10h1M26 10h1M28 10h1M30 10h1M32 10h1M34 10h1M36 10h1M38 10h1M40 10h1M42 10h1M44 10h1M46 10h1M48 10h1M50 10h1M52 10h1M54 10h1M56 10h1M58 10h1M60 10h1M62 10h1M64 10h1M66 10h1M68 10h1M70 10h1M72 10h1M74 10h1M76 10h1M78 10h1M80 10h1M82 10h1M84 10h1M86 10h1M88 10h1M90 10h1M92 10h1M94 10h1M96 10h1M98 10h1M100 10h1M102 10h1M104 10h1M106 10h1M108 10h1M110 10h1M112 10h1M114 10h1M116 10h1M118 10h1M120 10h1M122 10h1M124 10h1M126 10h1M128 10h1M130 10h1M132 10h1M134 10h1M136 10h1M138 10h1M140 10h1M142 10h1M144 10h1M146 10h1M148 10h1M161 10h1M165 10h1M169 10h1M173 10h1M177 10h1M181 10h1M185 10h1M189 10h1M225 10h1M229 10h1M233 10h1M237 10h1M265 10h1M269 10h1M273 10h1M277 10h1M281 10h1M285 10h1M0 12h1M2 12h1M4 12h1M6 12h1M8 12h1M10 12h1M12 12h1M14 12h1M16 12h1M18 12h1M20 12h1M22 12h1M24 12h1M26 12h1M28 12h1M30 12h1M32 12h1M34 12h1M36 12h1M38 12h1M40 12h1M42 12h1M44 12h1M46 12h1M48 12h1M50 12h1M52 12h1M54 12h1M56 12h1M58 12h1M60 12h1M62 12h1M64 12h1M66 12h1M68 12h1M70 12h1M72 12h1M74 12h1M76 12h1M78 12h1M80 12h1M82 12h1M84 12h1M86 12h1M88 12h1M90 12h1M92 12h1M94 12h1M96 12h1M98 12h1M100 12h1M102 12h1M104 12h1M106 12h1M108 12h1M110 12h1M112 12h1M114 12h1M116 12h1M118 12h1M120 12h1M122 12h1M124 12h1M126 12h1M128 12h1M130 12h1M132 12h1M134 12h1M136 12h1M138 12h1M140 12h1M142 12h1M144 12h1M146 12h1M148 12h1M150 12h1M163 12h1M167 12h1M171 12h1M175 12h1M179 12h1M183 12h1M187 12h1M191 12h1M223 12h1M227 12h1M231 12h1M235 12h1M267 12h1M271 12h1M275 12h1M279 12h1M283 12h1M287 12h1M0 14h1M2 14h1M4 14h1M6 14h1M8 14h1M10 14h1M12 14h1M14 14h1M16 14h1M18 14h1M20 14h1M22 14h1M24 14h1M26 14h1M28 14h1M30 14h1M32 14h1M34 14h1M36 14h1M38 14h1M40 14h1M42 14h1M44 14h1M46 14h1M48 14h1M50 14h1M52 14h1M54 14h1M56 14h1M58 14h1M60 14h1M62 14h1M64 14h1M66 14h1M68 14h1M70 14h1M72 14h1M74 14h1M76 14h1M78 14h1M80 14h1M82 14h1M84 14h1M86 14h1M88 14h1M90 14h1M92 14h1M94 14h1M96 14h1M98 14h1M100 14h1M102 14h1M104 14h1M106 14h1M108 14h1M110 14h1M112 14h1M114 14h1M116 14h1M118 14h1M120 14h1M122 14h1M124 14h1M126 14h1M128 14h1M130 14h1M132 14h1M134 14h1M136 14h1M138 14h1M140 14h1M142 14h1M144 14h1M146 14h1M148 14h1M150 14h1M165 14h1M169 14h1M173 14h1M177 14h1M181 14h1M185 14h1M189 14h1M221 14h1M225 14h1M229 14h1M233 14h1M265 14h1M269 14h1M273 14h1M277 14h1M281 14h1M285 14h1M289 14h1M0 16h1M2 16h1M4 16h1M6 16h1M8 16h1M10 16h1M12 16h1M14 16h1M16 16h1M18 16h1M20 16h1M22 16h1M24 16h1M26 16h1M28 16h1M30 16h1M32 16h1M34 16h1M36 16h1M38 16h1M40 16h1M42 16h1M44 16h1M46 16h1M48 16h1M50 16h1M52 16h1M54 16h1M56 16h1M58 16h1M60 16h1M62 16h1M64 16h1M66 16h1M68 16h1M70 16h1M72 16h1M74 16h1M76 16h1M78 16h1M80 16h1M82 16h1M84 16h1M86 16h1M88 16h1M90 16h1M92 16h1M94 16h1M96 16h1M98 16h1M100 16h1M102 16h1M104 16h1M106 16h1M108 16h1M110 16h1M112 16h1M114 16h1M116 16h1M118 16h1M120 16h1M122 16h1M124 16h1M126 16h1M128 16h1M130 16h1M132 16h1M134 16h1M136 16h1M138 16h1M140 16h1M142 16h1M144 16h1M146 16h1M148 16h1M150 16h1M152 16h1M167 16h1M171 16h1M175 16h1M179 16h1M183 16h1M187 16h1M191 16h1M223 16h1M227 16h1M231 16h1M267 16h1M271 16h1M275 16h1M279 16h1M283 16h1M287 16h1M291 16h1M0 18h1M2 18h1M4 18h1M6 18h1M8 18h1M10 18h1M12 18h1M14 18h1M16 18h1M18 18h1M20 18h1M22 18h1M24 18h1M26 18h1M28 18h1M30 18h1M32 18h1M34 18h1M36 18h1M38 18h1M40 18h1M42 18h1M44 18h1M46 18h1M48 18h1M50 18h1M52 18h1M54 18h1M56 18h1M58 18h1M60 18h1M62 18h1M64 18h1M66 18h1M68 18h1M70 18h1M72 18h1M74 18h1M76 18h1M78 18h1M80 18h1M82 18h1M84 18h1M86 18h1M88 18h1M90 18h1M92 18h1M94 18h1M96 18h1M98 18h1M100 18h1M102 18h1M104 18h1M106 18h1M108 18h1M110 18h1M112 18h1M114 18h1M116 18h1M118 18h1M120 18h1M122 18h1M124 18h1M126 18h1M128 18h1M130 18h1M132 18h1M134 18h1M136 18h1M138 18h1M140 18h1M142 18h1M144 18h1M146 18h1M148 18h1M150 18h1M152 18h1M165 18h1M169 18h1M173 18h1M177 18h1M181 18h1M185 18h1M189 18h1M221 18h1M225 18h1M229 18h1M265 18h1M269 18h1M273 18h1M277 18h1M281 18h1M285 18h1M289 18h1M293 18h1M0 20h1M2 20h1M4 20h1M6 20h1M8 20h1M10 20h1M12 20h1M14 20h1M16 20h1M18 20h1M20 20h1M22 20h1M24 20h1M26 20h1M28 20h1M30 20h1M32 20h1M34 20h1M36 20h1M38 20h1M40 20h1M42 20h1M44 20h1M46 20h1M48 20h1M50 20h1M52 20h1M54 20h1M56 20h1M58 20h1M60 20h1M62 20h1M64 20h1M66 20h1M68 20h1M70 20h1M72 20h1M74 20h1M76 20h1M78 20h1M80 20h1M82 20h1M84 20h1M86 20h1M88 20h1M90 20h1M92 20h1M94 20h1M96 20h1M98 20h1M100 20h1M102 20h1M104 20h1M106 20h1M108 20h1M110 20h1M112 20h1M114 20h1M116 20h1M118 20h1M120 20h1M122 20h1M124 20h1M126 20h1M128 20h1M130 20h1M132 20h1M134 20h1M136 20h1M138 20h1M140 20h1M142 20h1M144 20h1M146 20h1M148 20h1M150 20h1M152 20h1M154 20h1M167 20h1M171 20h1M175 20h1M179 20h1M183 20h1M187 20h1M191 20h1M219 20h1M223 20h1M227 20h1M231 20h1M267 20h1M271 20h1M275 20h1M279 20h1M283 20h1M287 20h1M291 20h1M295 20h1M0 22h1M2 22h1M4 22h1M6 22h1M8 22h1M10 22h1M12 22h1M14 22h1M16 22h1M18 22h1M20 22h1M22 22h1M24 22h1M26 22h1M28 22h1M30 22h1M32 22h1M34 22h1M36 22h1M38 22h1M40 22h1M42 22h1M44 22h1M46 22h1M48 22h1M50 22h1M52 22h1M54 22h1M56 22h1M58 22h1M60 22h1M62 22h1M64 22h1M66 22h1M68 22h1M70 22h1M72 22h1M74 22h1M76 22h1M78 22h1M80 22h1M82 22h1M84 22h1M86 22h1M88 22h1M90 22h1M92 22h1M94 22h1M96 22h1M98 22h1M100 22h1M102 22h1M104 22h1M106 22h1M108 22h1M110 22h1M112 22h1M114 22h1M116 22h1M118 22h1M120 22h1M122 22h1M124 22h1M126 22h1M128 22h1M130 22h1M132 22h1M134 22h1M136 22h1M138 22h1M140 22h1M142 22h1M144 22h1M146 22h1M148 22h1M150 22h1M152 22h1M154 22h1M169 22h1M173 22h1M177 22h1M181 22h1M185 22h1M189 22h1M217 22h1M221 22h1M225 22h1M229 22h1M265 22h1M269 22h1M273 22h1M277 22h1M281 22h1M285 22h1M289 22h1M293 22h1M0 24h1M2 24h1M4 24h1M6 24h1M8 24h1M10 24h1M12 24h1M14 24h1M16 24h1M18 24h1M20 24h1M22 24h1M24 24h1M26 24h1M28 24h1M30 24h1M32 24h1M34 24h1M36 24h1M38 24h1M40 24h1M42 24h1M44 24h1M46 24h1M48 24h1M50 24h1M52 24h1M54 24h1M56 24h1M58 24h1M60 24h1M62 24h1M64 24h1M66 24h1M68 24h1M70 24h1M72 24h1M74 24h1M76 24h1M78 24h1M80 24h1M82 24h1M84 24h1M86 24h1M88 24h1M90 24h1M92 24h1M94 24h1M96 24h1M98 24h1M100 24h1M102 24h1M104 24h1M106 24h1M108 24h1M110 24h1M112 24h1M114 24h1M116 24h1M118 24h1M120 24h1M122 24h1M124 24h1M126 24h1M128 24h1M130 24h1M132 24h1M134 24h1M136 24h1M138 24h1M140 24h1M142 24h1M144 24h1M146 24h1M148 24h1M150 24h1M152 24h1M154 24h1M156 24h1M171 24h1M175 24h1M179 24h1M183 24h1M187 24h1M191 24h1M219 24h1M223 24h1M227 24h1M267 24h1M271 24h1M275 24h1M279 24h1M283 24h1M287 24h1M291 24h1M295 24h1M0 26h1M2 26h1M4 26h1M6 26h1M8 26h1M10 26h1M12 26h1M14 26h1M16 26h1M18 26h1M20 26h1M22 26h1M24 26h1M26 26h1M28 26h1M30 26h1M32 26h1M34 26h1M36 26h1M38 26h1M40 26h1M42 26h1M44 26h1M46 26h1M48 26h1M50 26h1M52 26h1M54 26h1M56 26h1M58 26h1M60 26h1M62 26h1M64 26h1M66 26h1M68 26h1M70 26h1M72 26h1M74 26h1M76 26h1M78 26h1M80 26h1M82 26h1M84 26h1M86 26h1M88 26h1M90 26h1M92 26h1M94 26h1M96 26h1M98 26h1M100 26h1M102 26h1M104 26h1M106 26h1M108 26h1M110 26h1M112 26h1M114 26h1M116 26h1M118 26h1M120 26h1M122 26h1M124 26h1M126 26h1M128 26h1M130 26h1M132 26h1M134 26h1M136 26h1M138 26h1M140 26h1M142 26h1M144 26h1M146 26h1M148 26h1M150 26h1M152 26h1M154 26h1M156 26h1M169 26h1M173 26h1M177 26h1M181 26h1M185 26h1M189 26h1M217 26h1M221 26h1M225 26h1M265 26h1M269 26h1M273 26h1M277 26h1M281 26h1M285 26h1M289 26h1M293 26h1M297 26h1M0 28h1M2 28h1M4 28h1M6 28h1M8 28h1M10 28h1M12 28h1M14 28h1M16 28h1M18 28h1M20 28h1M22 28h1M24 28h1M26 28h1M28 28h1M30 28h1M32 28h1M34 28h1M36 28h1M38 28h1M40 28h1M42 28h1M44 28h1M46 28h1M48 28h1M50 28h1M52 28h1M54 28h1M56 28h1M58 28h1M60 28h1M62 28h1M64 28h1M66 28h1M68 28h1M70 28h1M72 28h1M74 28h1M76 28h1M78 28h1M80 28h1M82 28h1M84 28h1M86 28h1M88 28h1M90 28h1M92 28h1M94 28h1M96 28h1M98 28h1M100 28h1M102 28h1M104 28h1M106 28h1M108 28h1M110 28h1M112 28h1M114 28h1M116 28h1M118 28h1M120 28h1M122 28h1M124 28h1M126 28h1M128 28h1M130 28h1M132 28h1M134 28h1M136 28h1M138 28h1M140 28h1M142 28h1M144 28h1M146 28h1M148 28h1M150 28h1M152 28h1M154 28h1M156 28h1M158 28h1M171 28h1M175 28h1M179 28h1M183 28h1M187 28h1M191 28h1M215 28h1M219 28h1M223 28h1M227 28h1M267 28h1M271 28h1M275 28h1M279 28h1M283 28h1M287 28h1M291 28h1M295 28h1M0 30h1M2 30h1M4 30h1M6 30h1M8 30h1M10 30h1M12 30h1M14 30h1M16 30h1M18 30h1M20 30h1M22 30h1M24 30h1M26 30h1M28 30h1M30 30h1M32 30h1M34 30h1M36 30h1M38 30h1M40 30h1M42 30h1M44 30h1M46 30h1M48 30h1M50 30h1M52 30h1M54 30h1M56 30h1M58 30h1M60 30h1M62 30h1M64 30h1M66 30h1M68 30h1M70 30h1M72 30h1M74 30h1M76 30h1M78 30h1M80 30h1M82 30h1M84 30h1M86 30h1M88 30h1M90 30h1M92 30h1M94 30h1M96 30h1M98 30h1M100 30h1M102 30h1M104 30h1M106 30h1M108 30h1M110 30h1M112 30h1M114 30h1M116 30h1M118 30h1M120 30h1M122 30h1M124 30h1M126 30h1M128 30h1M130 30h1M132 30h1M134 30h1M136 30h1M138 30h1M140 30h1M142 30h1M144 30h1M146 30h1M148 30h1M150 30h1M152 30h1M154 30h1M156 30h1M158 30h1M173 30h1M177 30h1M181 30h1M185 30h1M189 30h1M213 30h1M217 30h1M221 30h1M225 30h1M265 30h1M269 30h1M273 30h1M277 30h1M281 30h1M285 30h1M289 30h1M293 30h1M297 30h1M0 32h1M2 32h1M4 32h1M6 32h1M8 32h1M10 32h1M12 32h1M14 32h1M16 32h1M18 32h1M20 32h1M22 32h1M24 32h1M26 32h1M28 32h1M30 32h1M32 32h1M34 32h1M36 32h1M38 32h1M40 32h1M42 32h1M44 32h1M46 32h1M48 32h1M50 32h1M52 32h1M54 32h1M56 32h1M58 32h1M60 32h1M62 32h1M64 32h1M66 32h1M68 32h1M70 32h1M72 32h1M74 32h1M76 32h1M78 32h1M80 32h1M82 32h1M84 32h1M86 32h1M88 32h1M90 32h1M92 32h1M94 32h1M96 32h1M98 32h1M100 32h1M102 32h1M104 32h1M106 32h1M108 32h1M110 32h1M112 32h1M114 32h1M116 32h1M118 32h1M120 32h1M122 32h1M124 32h1M126 32h1M128 32h1M130 32h1M132 32h1M134 32h1M136 32h1M138 32h1M140 32h1M142 32h1M144 32h1M146 32h1M148 32h1M150 32h1M152 32h1M154 32h1M156 32h1M158 32h1M160 32h1M175 32h1M179 32h1M183 32h1M187 32h1M191 32h1M215 32h1M219 32h1M223 32h1M227 32h1M267 32h1M271 32h1M275 32h1M279 32h1M283 32h1M287 32h1M291 32h1M295 32h1M299 32h1M0 34h1M2 34h1M4 34h1M6 34h1M8 34h1M10 34h1M12 34h1M14 34h1M16 34h1M18 34h1M20 34h1M22 34h1M24 34h1M26 34h1M28 34h1M30 34h1M32 34h1M34 34h1M36 34h1M38 34h1M40 34h1M42 34h1M44 34h1M46 34h1M48 34h1M50 34h1M52 34h1M54 34h1M56 34h1M58 34h1M60 34h1M62 34h1M64 34h1M66 34h1M68 34h1M70 34h1M72 34h1M74 34h1M76 34h1M78 34h1M80 34h1M82 34h1M84 34h1M86 34h1M88 34h1M90 34h1M92 34h1M94 34h1M96 34h1M98 34h1M100 34h1M102 34h1M104 34h1M106 34h1M108 34h1M110 34h1M112 34h1M114 34h1M116 34h1M118 34h1M120 34h1M122 34h1M124 34h1M126 34h1M128 34h1M130 34h1M132 34h1M134 34h1M136 34h1M138 34h1M140 34h1M142 34h1M144 34h1M146 34h1M148 34h1M150 34h1M152 34h1M154 34h1M156 34h1M158 34h1M160 34h1M173 34h1M177 34h1M181 34h1M185 34h1M189 34h1M213 34h1M217 34h1M221 34h1M225 34h1M265 34h1M269 34h1M273 34h1M277 34h1M281 34h1M285 34h1M289 34h1M293 34h1M297 34h1M0 36h1M2 36h1M4 36h1M6 36h1M8 36h1M10 36h1M12 36h1M14 36h1M16 36h1M18 36h1M20 36h1M22 36h1M24 36h1M26 36h1M28 36h1M30 36h1M32 36h1M34 36h1M36 36h1M38 36h1M40 36h1M42 36h1M44 36h1M46 36h1M48 36h1M50 36h1M52 36h1M54 36h1M56 36h1M58 36h1M60 36h1M62 36h1M64 36h1M66 36h1M68 36h1M70 36h1M72 36h1M74 36h1M76 36h1M78 36h1M80 36h1M82 36h1M84 36h1M86 36h1M88 36h1M90 36h1M92 36h1M94 36h1M96 36h1M98 36h1M100 36h1M102 36h1M104 36h1M106 36h1M108 36h1M110 36h1M112 36h1M114 36h1M116 36h1M118 36h1M120 36h1M122 36h1M124 36h1M126 36h1M128 36h1M130 36h1M132 36h1M134 36h1M136 36h1M138 36h1M140 36h1M142 36h1M144 36h1M146 36h1M148 36h1M150 36h1M152 36h1M154 36h1M156 36h1M158 36h1M160 36h1M162 36h1M175 36h1M179 36h1M183 36h1M187 36h1M191 36h1M211 36h1M215 36h1M219 36h1M223 36h1M227 36h1M267 36h1M271 36h1M275 36h1M279 36h1M283 36h1M287 36h1M291 36h1M295 36h1M299 36h1M0 38h1M2 38h1M4 38h1M6 38h1M8 38h1M10 38h1M12 38h1M14 38h1M16 38h1M18 38h1M20 38h1M22 38h1M24 38h1M26 38h1M28 38h1M30 38h1M32 38h1M34 38h1M36 38h1M38 38h1M40 38h1M42 38h1M44 38h1M46 38h1M48 38h1M50 38h1M52 38h1M54 38h1M56 38h1M58 38h1M60 38h1M62 38h1M64 38h1M66 38h1M68 38h1M70 38h1M72 38h1M74 38h1M76 38h1M78 38h1M80 38h1M82 38h1M84 38h1M86 38h1M88 38h1M90 38h1M92 38h1M94 38h1M96 38h1M98 38h1M100 38h1M102 38h1M104 38h1M106 38h1M108 38h1M110 38h1M112 38h1M114 38h1M116 38h1M118 38h1M120 38h1M122 38h1M124 38h1M126 38h1M128 38h1M130 38h1M132 38h1M134 38h1M136 38h1M138 38h1M140 38h1M142 38h1M144 38h1M146 38h1M148 38h1M150 38h1M152 38h1M154 38h1M156 38h1M158 38h1M160 38h1M162 38h1M177 38h1M181 38h1M185 38h1M189 38h1M209 38h1M213 38h1M217 38h1M221 38h1M225 38h1M265 38h1M269 38h1M273 38h1M277 38h1M281 38h1M285 38h1M289 38h1M293 38h1M297 38h1M0 40h1M2 40h1M4 40h1M6 40h1M8 40h1M10 40h1M12 40h1M14 40h1M16 40h1M18 40h1M20 40h1M22 40h1M24 40h1M26 40h1M28 40h1M30 40h1M32 40h1M34 40h1M36 40h1M38 40h1M40 40h1M42 40h1M44 40h1M46 40h1M48 40h1M50 40h1M52 40h1M54 40h1M56 40h1M58 40h1M60 40h1M62 40h1M64 40h1M66 40h1M68 40h1M70 40h1M72 40h1M74 40h1M76 40h1M78 40h1M80 40h1M82 40h1M84 40h1M86 40h1M88 40h1M90 40h1M92 40h1M94 40h1M96 40h1M98 40h1M100 40h1M102 40h1M104 40h1M106 40h1M108 40h1M110 40h1M112 40h1M114 40h1M116 40h1M118 40h1M120 40h1M122 40h1M124 40h1M126 40h1M128 40h1M130 40h1M132 40h1M134 40h1M136 40h1M138 40h1M140 40h1M142 40h1M144 40h1M146 40h1M148 40h1M150 40h1M152 40h1M154 40h1M156 40h1M158 40h1M160 40h1M162 40h1M164 40h1M179 40h1M183 40h1M187 40h1M191 40h1M211 40h1M215 40h1M219 40h1M223 40h1M227 40h1M267 40h1M271 40h1M275 40h1M279 40h1M283 40h1M287 40h1M291 40h1M295 40h1M299 40h1M0 42h1M2 42h1M4 42h1M6 42h1M8 42h1M10 42h1M12 42h1M14 42h1M16 42h1M18 42h1M20 42h1M22 42h1M24 42h1M26 42h1M28 42h1M30 42h1M32 42h1M34 42h1M36 42h1M38 42h1M40 42h1M42 42h1M44 42h1M46 42h1M48 42h1M50 42h1M52 42h1M54 42h1M56 42h1M58 42h1M60 42h1M62 42h1M64 42h1M66 42h1M68 42h1M70 42h1M72 42h1M74 42h1M76 42h1M78 42h1M80 42h1M82 42h1M84 42h1M86 42h1M88 42h1M90 42h1M92 42h1M94 42h1M96 42h1M98 42h1M100 42h1M102 42h1M104 42h1M106 42h1M108 42h1M110 42h1M112 42h1M114 42h1M116 42h1M118 42h1M120 42h1M122 42h1M124 42h1M126 42h1M128 42h1M130 42h1M132 42h1M134 42h1M136 42h1M138 42h1M140 42h1M142 42h1M144 42h1M146 42h1M148 42h1M150 42h1M152 42h1M154 42h1M156 42h1M158 42h1M160 42h1M162 42h1M164 42h1M177 42h1M181 42h1M185 42h1M189 42h1M209 42h1M213 42h1M217 42h1M221 42h1M225 42h1M265 42h1M269 42h1M273 42h1M277 42h1M281 42h1M285 42h1M289 42h1M293 42h1M297 42h1M0 44h1M2 44h1M4 44h1M6 44h1M8 44h1M10 44h1M12 44h1M14 44h1M16 44h1M18 44h1M20 44h1M22 44h1M24 44h1M26 44h1M28 44h1M30 44h1M32 44h1M34 44h1M36 44h1M38 44h1M40 44h1M42 44h1M44 44h1M46 44h1M48 44h1M50 44h1M52 44h1M54 44h1M56 44h1M58 44h1M60 44h1M62 44h1M64 44h1M66 44h1M68 44h1M70 44h1M72 44h1M74 44h1M76 44h1M78 44h1M80 44h1M82 44h1M84 44h1M86 44h1M88 44h1M90 44h1M92 44h1M94 44h1M96 44h1M98 44h1M100 44h1M102 44h1M104 44h1M106 44h1M108 44h1M110 44h1M112 44h1M114 44h1M116 44h1M118 44h1M120 44h1M122 44h1M124 44h1M126 44h1M128 44h1M130 44h1M132 44h1M134 44h1M136 44h1M138 44h1M140 44h1M142 44h1M144 44h1M146 44h1M148 44h1M150 44h1M152 44h1M154 44h1M156 44h1M158 44h1M160 44h1M162 44h1M164 44h1M166 44h1M179 44h1M183 44h1M187 44h1M191 44h1M207 44h1M211 44h1M215 44h1M219 44h1M223 44h1M227 44h1M267 44h1M271 44h1M275 44h1M279 44h1M283 44h1M287 44h1M291 44h1M295 44h1M0 46h1M2 46h1M4 46h1M6 46h1M8 46h1M10 46h1M12 46h1M14 46h1M16 46h1M18 46h1M20 46h1M22 46h1M24 46h1M26 46h1M28 46h1M30 46h1M32 46h1M34 46h1M36 46h1M38 46h1M40 46h1M42 46h1M44 46h1M46 46h1M48 46h1M50 46h1M52 46h1M54 46h1M56 46h1M58 46h1M60 46h1M62 46h1M64 46h1M66 46h1M68 46h1M70 46h1M72 46h1M74 46h1M76 46h1M78 46h1M80 46h1M82 46h1M84 46h1M86 46h1M88 46h1M90 46h1M92 46h1M94 46h1M96 46h1M98 46h1M100 46h1M102 46h1M104 46h1M106 46h1M108 46h1M110 46h1M112 46h1M114 46h1M116 46h1M118 46h1M120 46h1M122 46h1M124 46h1M126 46h1M128 46h1M130 46h1M132 46h1M134 46h1M136 46h1M138 46h1M140 46h1M142 46h1M144 46h1M146 46h1M148 46h1M150 46h1M152 46h1M154 46h1M156 46h1M158 46h1M160 46h1M162 46h1M164 46h1M166 46h1M181 46h1M185 46h1M189 46h1M205 46h1M209 46h1M213 46h1M217 46h1M221 46h1M225 46h1M229 46h1M265 46h1M269 46h1M273 46h1M277 46h1M281 46h1M285 46h1M289 46h1M293 46h1M297 46h1M0 48h1M2 48h1M4 48h1M6 48h1M8 48h1M10 48h1M12 48h1M14 48h1M16 48h1M18 48h1M20 48h1M22 48h1M24 48h1M26 48h1M28 48h1M30 48h1M32 48h1M34 48h1M36 48h1M38 48h1M40 48h1M42 48h1M44 48h1M46 48h1M48 48h1M50 48h1M52 48h1M54 48h1M56 48h1M58 48h1M60 48h1M62 48h1M64 48h1M66 48h1M68 48h1M70 48h1M72 48h1M74 48h1M76 48h1M78 48h1M80 48h1M82 48h1M84 48h1M86 48h1M88 48h1M90 48h1M92 48h1M94 48h1M96 48h1M98 48h1M100 48h1M102 48h1M104 48h1M106 48h1M108 48h1M110 48h1M112 48h1M114 48h1M116 48h1M118 48h1M120 48h1M122 48h1M124 48h1M126 48h1M128 48h1M130 48h1M132 48h1M134 48h1M136 48h1M138 48h1M140 48h1M142 48h1M144 48h1M146 48h1M148 48h1M150 48h1M152 48h1M154 48h1M156 48h1M158 48h1M160 48h1M162 48h1M164 48h1M166 48h1M168 48h1M183 48h1M187 48h1M191 48h1M207 48h1M211 48h1M215 48h1M219 48h1M223 48h1M227 48h1M267 48h1M271 48h1M275 48h1M279 48h1M283 48h1M287 48h1M291 48h1M295 48h1M0 50h1M2 50h1M4 50h1M6 50h1M8 50h1M10 50h1M12 50h1M14 50h1M16 50h1M18 50h1M20 50h1M22 50h1M24 50h1M26 50h1M28 50h1M30 50h1M32 50h1M34 50h1M36 50h1M38 50h1M40 50h1M42 50h1M44 50h1M46 50h1M48 50h1M50 50h1M52 50h1M54 50h1M56 50h1M58 50h1M60 50h1M62 50h1M64 50h1M66 50h1M68 50h1M70 50h1M72 50h1M74 50h1M76 50h1M78 50h1M80 50h1M82 50h1M84 50h1M86 50h1M88 50h1M90 50h1M92 50h1M94 50h1M96 50h1M98 50h1M100 50h1M102 50h1M104 50h1M106 50h1M108 50h1M110 50h1M112 50h1M114 50h1M116 50h1M118 50h1M120 50h1M122 50h1M124 50h1M126 50h1M128 50h1M130 50h1M132 50h1M134 50h1M136 50h1M138 50h1M140 50h1M142 50h1M144 50h1M146 50h1M148 50h1M150 50h1M152 50h1M154 50h1M156 50h1M158 50h1M160 50h1M162 50h1M164 50h1M166 50h1M168 50h1M181 50h1M185 50h1M189 50h1M205 50h1M209 50h1M213 50h1M217 50h1M221 50h1M225 50h1M229 50h1M265 50h1M269 50h1M273 50h1M277 50h1M281 50h1M285 50h1M289 50h1M293 50h1M0 52h1M2 52h1M4 52h1M6 52h1M8 52h1M10 52h1M12 52h1M14 52h1M16 52h1M18 52h1M20 52h1M22 52h1M24 52h1M26 52h1M28 52h1M30 52h1M32 52h1M34 52h1M36 52h1M38 52h1M40 52h1M42 52h1M44 52h1M46 52h1M48 52h1M50 52h1M52 52h1M54 52h1M56 52h1M58 52h1M60 52h1M62 52h1M64 52h1M66 52h1M68 52h1M70 52h1M72 52h1M74 52h1M76 52h1M78 52h1M80 52h1M82 52h1M84 52h1M86 52h1M88 52h1M90 52h1M92 52h1M94 52h1M96 52h1M98 52h1M100 52h1M102 52h1M104 52h1M106 52h1M108 52h1M110 52h1M112 52h1M114 52h1M116 52h1M118 52h1M120 52h1M122 52h1M124 52h1M126 52h1M128 52h1M130 52h1M132 52h1M134 52h1M136 52h1M138 52h1M140 52h1M142 52h1M144 52h1M146 52h1M148 52h1M150 52h1M152 52h1M154 52h1M156 52h1M158 52h1M160 52h1M162 52h1M164 52h1M166 52h1M168 52h1M170 52h1M183 52h1M187 52h1M191 52h1M203 52h1M207 52h1M211 52h1M215 52h1M219 52h1M223 52h1M227 52h1M231 52h1M267 52h1M271 52h1M275 52h1M279 52h1M283 52h1M287 52h1M291 52h1M295 52h1M0 54h1M2 54h1M4 54h1M6 54h1M8 54h1M10 54h1M12 54h1M14 54h1M16 54h1M18 54h1M20 54h1M22 54h1M24 54h1M26 54h1M28 54h1M30 54h1M32 54h1M34 54h1M36 54h1M38 54h1M40 54h1M42 54h1M44 54h1M46 54h1M48 54h1M50 54h1M52 54h1M54 54h1M56 54h1M58 54h1M60 54h1M62 54h1M64 54h1M66 54h1M68 54h1M70 54h1M72 54h1M74 54h1M76 54h1M78 54h1M80 54h1M82 54h1M84 54h1M86 54h1M88 54h1M90 54h1M92 54h1M94 54h1M96 54h1M98 54h1M100 54h1M102 54h1M104 54h1M106 54h1M108 54h1M110 54h1M112 54h1M114 54h1M116 54h1M118 54h1M120 54h1M122 54h1M124 54h1M126 54h1M128 54h1M130 54h1M132 54h1M134 54h1M136 54h1M138 54h1M140 54h1M142 54h1M144 54h1M146 54h1M148 54h1M150 54h1M152 54h1M154 54h1M156 54h1M158 54h1M160 54h1M162 54h1M164 54h1M166 54h1M168 54h1M170 54h1M185 54h1M189 54h1M201 54h1M205 54h1M209 54h1M213 54h1M217 54h1M221 54h1M225 54h1M229 54h1M265 54h1M269 54h1M273 54h1M277 54h1M281 54h1M285 54h1M289 54h1M293 54h1M0 56h1M2 56h1M4 56h1M6 56h1M8 56h1M10 56h1M12 56h1M14 56h1M16 56h1M18 56h1M20 56h1M22 56h1M24 56h1M26 56h1M28 56h1M30 56h1M32 56h1M34 56h1M36 56h1M38 56h1M40 56h1M42 56h1M44 56h1M46 56h1M48 56h1M50 56h1M52 56h1M54 56h1M56 56h1M58 56h1M60 56h1M62 56h1M64 56h1M66 56h1M68 56h1M70 56h1M72 56h1M74 56h1M76 56h1M78 56h1M80 56h1M82 56h1M84 56h1M86 56h1M88 56h1M90 56h1M92 56h1M94 56h1M96 56h1M98 56h1M100 56h1M102 56h1M104 56h1M106 56h1M108 56h1M110 56h1M112 56h1M114 56h1M116 56h1M118 56h1M120 56h1M122 56h1M124 56h1M126 56h1M128 56h1M130 56h1M132 56h1M134 56h1M136 56h1M138 56h1M140 56h1M142 56h1M144 56h1M146 56h1M148 56h1M150 56h1M152 56h1M154 56h1M156 56h1M158 56h1M160 56h1M162 56h1M164 56h1M166 56h1M168 56h1M170 56h1M172 56h1M187 56h1M191 56h1M203 56h1M207 56h1M211 56h1M215 56h1M219 56h1M223 56h1M227 56h1M231 56h1M267 56h1M271 56h1M275 56h1M279 56h1M283 56h1M287 56h1M291 56h1M0 58h1M2 58h1M4 58h1M6 58h1M8 58h1M10 58h1M12 58h1M14 58h1M16 58h1M18 58h1M20 58h1M22 58h1M24 58h1M26 58h1M28 58h1M30 58h1M32 58h1M34 58h1M36 58h1M38 58h1M40 58h1M42 58h1M44 58h1M46 58h1M48 58h1M50 58h1M52 58h1M54 58h1M56 58h1M58 58h1M60 58h1M62 58h1M64 58h1M66 58h1M68 58h1M70 58h1M72 58h1M74 58h1M76 58h1M78 58h1M80 58h1M82 58h1M84 58h1M86 58h1M88 58h1M90 58h1M92 58h1M94 58h1M96 58h1M98 58h1M100 58h1M102 58h1M104 58h1M106 58h1M108 58h1M110 58h1M112 58h1M114 58h1M116 58h1M118 58h1M120 58h1M122 58h1M124 58h1M126 58h1M128 58h1M130 58h1M132 58h1M134 58h1M136 58h1M138 58h1M140 58h1M142 58h1M144 58h1M146 58h1M148 58h1M150 58h1M152 58h1M154 58h1M156 58h1M158 58h1M160 58h1M162 58h1M164 58h1M166 58h1M168 58h1M170 58h1M172 58h1M185 58h1M189 58h1M201 58h1M205 58h1M209 58h1M213 58h1M217 58h1M221 58h1M225 58h1M229 58h1M233 58h1M265 58h1M269 58h1M273 58h1M277 58h1M281 58h1M285 58h1M289 58h1M0 60h1M2 60h1M4 60h1M6 60h1M8 60h1M10 60h1M12 60h1M14 60h1M16 60h1M18 60h1M20 60h1M22 60h1M24 60h1M26 60h1M28 60h1M30 60h1M32 60h1M34 60h1M36 60h1M38 60h1M40 60h1M42 60h1M44 60h1M46 60h1M48 60h1M50 60h1M52 60h1M54 60h1M56 60h1M58 60h1M60 60h1M62 60h1M64 60h1M66 60h1M68 60h1M70 60h1M72 60h1M74 60h1M76 60h1M78 60h1M80 60h1M82 60h1M84 60h1M86 60h1M88 60h1M90 60h1M92 60h1M94 60h1M96 60h1M98 60h1M100 60h1M102 60h1M104 60h1M106 60h1M108 60h1M110 60h1M112 60h1M114 60h1M116 60h1M118 60h1M120 60h1M122 60h1M124 60h1M126 60h1M128 60h1M130 60h1M132 60h1M134 60h1M136 60h1M138 60h1M140 60h1M142 60h1M144 60h1M146 60h1M148 60h1M150 60h1M152 60h1M154 60h1M156 60h1M158 60h1M160 60h1M162 60h1M164 60h1M166 60h1M168 60h1M170 60h1M172 60h1M174 60h1M187 60h1M191 60h1M199 60h1M203 60h1M207 60h1M211 60h1M215 60h1M219 60h1M223 60h1M227 60h1M231 60h1M235 60h1M267 60h1M271 60h1M275 60h1M279 60h1M283 60h1M287 60h1M0 62h1M2 62h1M4 62h1M6 62h1M8 62h1M10 62h1M12 62h1M14 62h1M16 62h1M18 62h1M20 62h1M22 62h1M24 62h1M26 62h1M28 62h1M30 62h1M32 62h1M34 62h1M36 62h1M38 62h1M40 62h1M42 62h1M44 62h1M46 62h1M48 62h1M50 62h1M52 62h1M54 62h1M56 62h1M58 62h1M60 62h1M62 62h1M64 62h1M66 62h1M68 62h1M70 62h1M72 62h1M74 62h1M76 62h1M78 62h1M80 62h1M82 62h1M84 62h1M86 62h1M88 62h1M90 62h1M92 62h1M94 62h1M96 62h1M98 62h1M100 62h1M102 62h1M104 62h1M106 62h1M108 62h1M110 62h1M112 62h1M114 62h1M116 62h1M118 62h1M120 62h1M122 62h1M124 62h1M126 62h1M128 62h1M130 62h1M132 62h1M134 62h1M136 62h1M138 62h1M140 62h1M142 62h1M144 62h1M146 62h1M148 62h1M150 62h1M152 62h1M154 62h1M156 62h1M158 62h1M160 62h1M162 62h1M164 62h1M166 62h1M168 62h1M170 62h1M172 62h1M174 62h1M189 62h1M197 62h1M201 62h1M205 62h1M209 62h1M213 62h1M217 62h1M221 62h1M225 62h1M229 62h1M233 62h1M237 62h1M265 62h1M269 62h1M273 62h1M277 62h1M281 62h1M285 62h1M0 64h1M2 64h1M4 64h1M6 64h1M8 64h1M10 64h1M12 64h1M14 64h1M16 64h1M18 64h1M20 64h1M22 64h1M24 64h1M26 64h1M28 64h1M30 64h1M32 64h1M34 64h1M36 64h1M38 64h1M40 64h1M42 64h1M44 64h1M46 64h1M48 64h1M50 64h1M52 64h1M54 64h1M56 64h1M58 64h1M60 64h1M62 64h1M64 64h1M66 64h1M68 64h1M70 64h1M72 64h1M74 64h1M76 64h1M78 64h1M80 64h1M82 64h1M84 64h1M86 64h1M88 64h1M90 64h1M92 64h1M94 64h1M96 64h1M98 64h1M100 64h1M102 64h1M104 64h1M106 64h1M108 64h1M110 64h1M112 64h1M114 64h1M116 64h1M118 64h1M120 64h1M122 64h1M124 64h1M126 64h1M128 64h1M130 64h1M132 64h1M134 64h1M136 64h1M138 64h1M140 64h1M142 64h1M144 64h1M146 64h1M148 64h1M150 64h1M152 64h1M154 64h1M156 64h1M158 64h1M160 64h1M162 64h1M164 64h1M166 64h1M168 64h1M170 64h1M172 64h1M174 64h1M176 64h1M191 64h1M199 64h1M203 64h1M207 64h1M211 64h1M215 64h1M219 64h1M223 64h1M227 64h1M231 64h1M235 64h1M239 64h1M267 64h1M271 64h1M275 64h1M279 64h1M283 64h1M0 66h1M2 66h1M4 66h1M6 66h1M8 66h1M10 66h1M12 66h1M14 66h1M16 66h1M18 66h1M20 66h1M22 66h1M24 66h1M26 66h1M28 66h1M30 66h1M32 66h1M34 66h1M36 66h1M38 66h1M40 66h1M42 66h1M44 66h1M46 66h1M48 66h1M50 66h1M52 66h1M54 66h1M56 66h1M58 66h1M60 66h1M62 66h1M64 66h1M66 66h1M68 66h1M70 66h1M72 66h1M74 66h1M76 66h1M78 66h1M80 66h1M82 66h1M84 66h1M86 66h1M88 66h1M90 66h1M92 66h1M94 66h1M96 66h1M98 66h1M100 66h1M102 66h1M104 66h1M106 66h1M108 66h1M110 66h1M112 66h1M114 66h1M116 66h1M118 66h1M120 66h1M122 66h1M124 66h1M126 66h1M128 66h1M130 66h1M132 66h1M134 66h1M136 66h1M138 66h1M140 66h1M142 66h1M144 66h1M146 66h1M148 66h1M150 66h1M152 66h1M154 66h1M156 66h1M158 66h1M160 66h1M162 66h1M164 66h1M166 66h1M168 66h1M170 66h1M172 66h1M174 66h1M176 66h1M189 66h1M197 66h1M201 66h1M205 66h1M209 66h1M213 66h1M217 66h1M221 66h1M225 66h1M229 66h1M233 66h1M237 66h1M241 66h1M265 66h1M269 66h1M273 66h1M277 66h1M281 66h1M0 68h1M2 68h1M4 68h1M6 68h1M8 68h1M10 68h1M12 68h1M14 68h1M16 68h1M18 68h1M20 68h1M22 68h1M24 68h1M26 68h1M28 68h1M30 68h1M32 68h1M34 68h1M36 68h1M38 68h1M40 68h1M42 68h1M44 68h1M46 68h1M48 68h1M50 68h1M52 68h1M54 68h1M56 68h1M58 68h1M60 68h1M62 68h1M64 68h1M66 68h1M68 68h1M70 68h1M72 68h1M74 68h1M76 68h1M78 68h1M80 68h1M82 68h1M84 68h1M86 68h1M88 68h1M90 68h1M92 68h1M94 68h1M96 68h1M98 68h1M100 68h1M102 68h1M104 68h1M106 68h1M108 68h1M110 68h1M112 68h1M114 68h1M116 68h1M118 68h1M120 68h1M122 68h1M124 68h1M126 68h1M128 68h1M130 68h1M132 68h1M134 68h1M136 68h1M138 68h1M140 68h1M142 68h1M144 68h1M146 68h1M148 68h1M150 68h1M152 68h1M154 68h1M156 68h1M158 68h1M160 68h1M162 68h1M164 68h1M166 68h1M168 68h1M170 68h1M172 68h1M174 68h1M176 68h1M178 68h1M191 68h1M195 68h1M199 68h1M203 68h1M207 68h1M211 68h1M215 68h1M219 68h1M223 68h1M227 68h1M231 68h1M235 68h1M239 68h1M243 68h1M247 68h1M267 68h1M271 68h1M275 68h1M0 70h1M2 70h1M4 70h1M6 70h1M8 70h1M10 70h1M12 70h1M14 70h1M16 70h1M18 70h1M20 70h1M22 70h1M24 70h1M26 70h1M28 70h1M30 70h1M32 70h1M34 70h1M36 70h1M38 70h1M40 70h1M42 70h1M44 70h1M46 70h1M48 70h1M50 70h1M52 70h1M54 70h1M56 70h1M58 70h1M60 70h1M62 70h1M64 70h1M66 70h1M68 70h1M70 70h1M72 70h1M74 70h1M76 70h1M78 70h1M80 70h1M82 70h1M84 70h1M86 70h1M88 70h1M90 70h1M92 70h1M94 70h1M96 70h1M98 70h1M100 70h1M102 70h1M104 70h1M106 70h1M108 70h1M110 70h1M112 70h1M114 70h1M116 70h1M118 70h1M120 70h1M122 70h1M124 70h1M126 70h1M128 70h1M130 70h1M132 70h1M134 70h1M136 70h1M138 70h1M140 70h1M142 70h1M144 70h1M146 70h1M148 70h1M150 70h1M152 70h1M154 70h1M156 70h1M158 70h1M160 70h1M162 70h1M164 70h1M166 70h1M168 70h1M170 70h1M172 70h1M174 70h1M176 70h1M178 70h1M193 70h1M197 70h1M201 70h1M205 70h1M209 70h1M213 70h1M217 70h1M221 70h1M225 70h1M229 70h1M233 70h1M237 70h1M241 70h1M245 70h1M249 70h1M253 70h1M265 70h1M269 70h1M273 70h1M0 83h3M13 83h3M47 83h4M84 83h10M126 83h9M169 83h4M206 83h9M247 83h3M288 83h12M1 85h3M12 85h3M46 85h6M84 85h12M126 85h9M168 85h6M206 85h11M247 85h3M288 85h12M1 87h4M12 87h3M46 87h6M84 87h3M94 87h3M129 87h3M168 87h6M206 87h3M215 87h3M247 87h3M288 87h3M2 89h3M11 89h3M45 89h3M50 89h3M84 89h3M94 89h3M129 89h3M167 89h3M172 89h3M206 89h3M215 89h3M247 89h3M288 89h3M3 91h3M10 91h3M44 91h4M50 91h4M84 91h12M129 91h3M166 91h4M172 91h4M206 91h11M247 91h3M288 91h12M3 93h4M9 93h4M44 93h10M84 93h9M129 93h3M166 93h10M206 93h12M247 93h3M288 93h12M4 95h3M9 95h3M43 95h12M84 95h3M90 95h4M129 95h3M165 95h12M206 95h3M216 95h3M247 95h3M288 95h3M5 97h6M42 97h3M53 97h3M84 97h3M92 97h3M129 97h3M164 97h3M175 97h3M206 97h3M216 97h3M247 97h3M288 97h3M6 99h5M42 99h3M53 99h3M84 99h3M93 99h4M126 99h9M164 99h3M175 99h3M206 99h12M247 99h12M288 99h12M6 101h4M41 101h3M54 101h3M84 101h3M95 101h3M126 101h9M163 101h3M176 101h3M206 101h9M247 101h12M288 101h12M4 111h6M31 111h6M57 111h6M81 111h9M105 111h3M131 111h3M161 111h4M182 111h15M211 111h9M238 111h6M261 111h3M270 111h3M292 111h6M2 113h10M29 113h9M54 113h11M81 113h9M105 113h3M131 113h3M160 113h6M182 113h15M211 113h9M236 113h10M261 113h4M270 113h3M290 113h9M1 115h3M10 115h3M28 115h3M36 115h3M53 115h3M63 115h3M84 115h3M105 115h3M131 115h3M160 115h6M188 115h3M214 115h3M235 115h3M244 115h3M261 115h5M270 115h3M289 115h3M297 115h3M0 117h3M11 117h3M28 117h4M52 117h3M84 117h3M105 117h3M131 117h3M159 117h3M164 117h3M188 117h3M214 117h3M234 117h3M245 117h3M261 117h6M270 117h3M289 117h4M0 119h3M11 119h3M30 119h6M52 119h3M84 119h3M105 119h3M131 119h3M158 119h4M164 119h4M188 119h3M214 119h3M234 119h3M245 119h3M261 119h3M265 119h3M270 119h3M291 119h6M0 121h3M11 121h3M33 121h5M52 121h3M84 121h3M105 121h3M131 121h3M158 121h10M188 121h3M214 121h3M234 121h3M245 121h3M261 121h3M266 121h3M270 121h3M294 121h5M0 123h3M11 123h3M36 123h3M52 123h3M84 123h3M105 123h3M131 123h3M157 123h12M188 123h3M214 123h3M234 123h3M245 123h3M261 123h3M267 123h6M297 123h3M1 125h3M10 125h3M28 125h3M36 125h3M53 125h3M63 125h3M84 125h3M105 125h3M131 125h3M156 125h3M167 125h3M188 125h3M214 125h3M235 125h3M244 125h3M261 125h3M268 125h5M289 125h3M297 125h3M2 127h10M28 127h10M54 127h11M81 127h9M105 127h12M131 127h12M156 127h3M167 127h3M188 127h3M211 127h9M236 127h10M261 127h3M269 127h4M289 127h10M4 129h6M30 129h5M57 129h6M81 129h9M105 129h12M131 129h12M155 129h3M168 129h3M188 129h3M211 129h9M238 129h6M261 129h3M270 129h3M291 129h5M0 141h300M0 142h1M299 142h1M0 143h1M299 143h1M0 144h1M299 144h1M0 145h1M299 145h1M0 146h1M299 146h1M0 147h1M299 147h1M0 148h1M299 148h1M0 149h1M299 149h1M0 150h1M16 150h3M45 150h2M53 150h2M77 150h2M87 150h2M113 150h8M145 150h2M178 150h8M215 150h3M244 150h8M277 150h2M287 150h2M299 150h1M0 151h1M16 151h3M45 151h2M53 151h2M78 151h2M86 151h2M113 151h8M145 151h2M178 151h8M215 151h3M244 151h9M278 151h2M286 151h2M299 151h1M0 152h1M16 152h3M45 152h2M53 152h2M78 152h2M86 152h2M116 152h2M145 152h2M181 152h2M215 152h3M244 152h2M251 152h3M278 152h2M286 152h2M299 152h1M0 153h1M15 153h2M18 153h2M45 153h2M53 153h2M79 153h2M85 153h2M116 153h2M145 153h2M181 153h2M214 153h2M217 153h2M244 153h2M252 153h2M279 153h2M285 153h2M299 153h1M0 154h1M15 154h2M18 154h2M45 154h2M53 154h2M80 154h2M84 154h2M116 154h2M145 154h2M181 154h2M214 154h2M217 154h2M244 154h2M252 154h2M279 154h2M285 154h2M299 154h1M0 155h1M15 155h2M18 155h2M45 155h2M53 155h2M80 155h2M84 155h2M116 155h2M145 155h2M181 155h2M214 155h2M217 155h2M244 155h2M252 155h2M280 155h2M284 155h2M299 155h1M0 156h1M14 156h2M18 156h2M45 156h2M53 156h2M81 156h4M116 156h2M145 156h2M181 156h2M213 156h2M217 156h2M244 156h2M251 156h2M280 156h2M284 156h2M299 156h1M0 157h1M14 157h2M19 157h2M45 157h2M53 157h2M81 157h4M116 157h2M145 157h2M181 157h2M213 157h2M218 157h2M244 157h8M281 157h4M299 157h1M0 158h1M14 158h2M19 158h2M45 158h2M53 158h2M82 158h2M116 158h2M145 158h2M181 158h2M213 158h2M218 158h2M244 158h6M281 158h4M299 158h1M0 159h1M13 159h8M45 159h2M53 159h2M81 159h4M116 159h2M145 159h2M181 159h2M212 159h8M244 159h2M248 159h2M282 159h2M299 159h1M0 160h1M13 160h8M45 160h2M53 160h2M81 160h4M116 160h2M145 160h2M181 160h2M212 160h8M244 160h2M249 160h2M282 160h2M299 160h1M0 161h1M13 161h2M20 161h2M45 161h2M53 161h2M80 161h2M84 161h2M116 161h2M145 161h2M181 161h2M212 161h2M219 161h2M244 161h2M250 161h2M282 161h2M299 161h1M0 162h1M12 162h2M20 162h2M45 162h2M53 162h2M80 162h2M84 162h2M116 162h2M145 162h2M181 162h2M211 162h2M219 162h2M244 162h2M250 162h2M282 162h2M299 162h1M0 163h1M12 163h2M20 163h2M45 163h2M53 163h2M79 163h2M85 163h2M116 163h2M145 163h2M181 163h2M211 163h2M219 163h2M244 163h2M251 163h2M282 163h2M299 163h1M0 164h1M12 164h2M20 164h2M46 164h2M52 164h2M78 164h2M86 164h2M116 164h2M145 164h2M181 164h2M211 164h2M219 164h2M244 164h2M252 164h2M282 164h2M299 164h1M0 165h1M11 165h3M21 165h2M46 165h8M78 165h2M86 165h2M113 165h8M145 165h10M178 165h8M210 165h3M220 165h2M244 165h2M252 165h2M282 165h2M299 165h1M0 166h1M11 166h2M21 166h2M48 166h4M77 166h2M87 166h2M113 166h8M145 166h10M178 166h8M210 166h2M220 166h2M244 166h2M253 166h2M282 166h2M299 166h1M0 167h1M299 167h1M0 168h1M299 168h1M0 169h1M299 169h1M0 170h1M299 170h1M0 171h1M299 171h1M0 172h1M299 172h1M0 173h1M299 173h1M0 174h1M11 174h8M28 174h10M49 174h5M63 174h10M85 174h3M98 174h8M120 174h5M133 174h2M141 174h2M177 174h5M191 174h12M213 174h3M226 174h12M245 174h8M265 174h4M279 174h3M287 174h2M299 174h1M0 175h1M11 175h9M28 175h10M48 175h7M63 175h10M85 175h3M98 175h9M118 175h8M133 175h2M141 175h2M176 175h7M191 175h12M213 175h3M226 175h12M245 175h8M264 175h6M279 175h3M287 175h2M299 175h1M0 176h1M11 176h2M18 176h3M28 176h2M47 176h3M54 176h1M63 176h2M85 176h3M98 176h2M105 176h3M117 176h3M125 176h1M133 176h2M141 176h2M175 176h3M182 176h1M196 176h2M213 176h3M231 176h2M248 176h2M263 176h2M269 176h2M279 176h4M287 176h2M299 176h1M0 177h1M11 177h2M19 177h2M28 177h2M47 177h2M63 177h2M84 177h2M87 177h2M98 177h2M106 177h2M117 177h2M133 177h2M141 177h2M175 177h2M196 177h2M212 177h2M215 177h2M231 177h2M248 177h2M263 177h2M269 177h2M279 177h4M287 177h2M299 177h1M0 178h1M11 178h2M19 178h2M28 178h2M47 178h2M63 178h2M84 178h2M87 178h2M98 178h2M106 178h2M116 178h3M133 178h2M141 178h2M175 178h2M196 178h2M212 178h2M215 178h2M231 178h2M248 178h2M262 178h2M270 178h2M279 178h4M287 178h2M299 178h1M0 179h1M11 179h2M19 179h2M28 179h2M47 179h2M63 179h2M84 179h2M87 179h2M98 179h2M106 179h2M116 179h2M133 179h2M141 179h2M175 179h2M196 179h2M212 179h2M215 179h2M231 179h2M248 179h2M262 179h2M270 179h2M279 179h2M282 179h2M287 179h2M299 179h1M0 180h1M11 180h2M18 180h2M28 180h2M48 180h3M63 180h2M83 180h2M87 180h2M98 180h2M105 180h2M116 180h2M133 180h2M141 180h2M176 180h3M196 180h2M211 180h2M215 180h2M231 180h2M248 180h2M262 180h2M270 180h2M279 180h2M282 180h2M287 180h2M299 180h1M0 181h1M11 181h8M28 181h10M49 181h3M63 181h10M83 181h2M88 181h2M98 181h8M116 181h2M133 181h10M177 181h3M196 181h2M211 181h2M216 181h2M231 181h2M248 181h2M262 181h2M270 181h2M279 181h2M283 181h2M287 181h2M299 181h1M0 182h1M11 182h6M28 182h10M50 182h4M63 182h10M83 182h2M88 182h2M98 182h6M116 182h2M133 182h10M178 182h4M196 182h2M211 182h2M216 182h2M231 182h2M248 182h2M262 182h2M270 182h2M279 182h2M283 182h2M287 182h2M299 182h1M0 183h1M11 183h2M15 183h2M28 183h2M52 183h3M63 183h2M82 183h8M98 183h2M102 183h2M116 183h2M133 183h2M141 183h2M180 183h3M196 183h2M210 183h8M231 183h2M248 183h2M262 183h2M270 183h2M279 183h2M283 183h2M287 183h2M299 183h1M0 184h1M11 184h2M16 184h2M28 184h2M53 184h3M63 184h2M82 184h8M98 184h2M103 184h2M116 184h2M133 184h2M141 184h2M181 184h3M196 184h2M210 184h8M231 184h2M248 184h2M262 184h2M270 184h2M279 184h2M284 184h2M287 184h2M299 184h1M0 185h1M11 185h2M17 185h2M28 185h2M54 185h2M63 185h2M82 185h2M89 185h2M98 185h2M104 185h2M116 185h2M133 185h2M141 185h2M182 185h2M196 185h2M210 185h2M217 185h2M231 185h2M248 185h2M262 185h2M270 185h2M279 185h2M284 185h2M287 185h2M299 185h1M0 186h1M11 186h2M17 186h2M28 186h2M54 186h2M63 186h2M81 186h2M89 186h2M98 186h2M104 186h2M116 186h3M133 186h2M141 186h2M182 186h2M196 186h2M209 186h2M217 186h2M231 186h2M248 186h2M262 186h2M270 186h2M279 186h2M285 186h4M299 186h1M0 187h1M11 187h2M18 187h2M28 187h2M54 187h2M63 187h2M81 187h2M89 187h2M98 187h2M105 187h2M117 187h2M133 187h2M141 187h2M182 187h2M196 187h2M209 187h2M217 187h2M231 187h2M248 187h2M263 187h2M269 187h2M279 187h2M285 187h4M299 187h1M0 188h1M11 188h2M19 188h2M28 188h2M47 188h1M53 188h2M63 188h2M81 188h2M89 188h2M98 188h2M106 188h2M117 188h3M124 188h2M133 188h2M141 188h2M175 188h1M181 188h2M196 188h2M209 188h2M217 188h2M231 188h2M248 188h2M263 188h2M269 188h2M279 188h2M286 188h3M299 188h1M0 189h1M11 189h2M19 189h2M28 189h10M47 189h8M63 189h10M80 189h3M90 189h2M98 189h2M106 189h2M118 189h8M133 189h2M141 189h2M175 189h8M196 189h2M208 189h3M218 189h2M231 189h2M245 189h8M264 189h6M279 189h2M286 189h3M299 189h1M0 190h1M11 190h2M20 190h2M28 190h10M48 190h5M63 190h10M80 190h2M90 190h2M98 190h2M107 190h2M119 190h6M133 190h2M141 190h2M176 190h5M196 190h2M208 190h2M218 190h2M231 190h2M245 190h8M265 190h4M279 190h2M286 190h3M299 190h1M0 191h1M299 191h1M0 192h1M299 192h1M0 193h1M299 193h1M0 194h1M299 194h1M0 195h1M299 195h1M0 196h1M299 196h1M0 197h1M299 197h1M0 198h300" />
</svg>