<svg xmlns="http://www.w3.org/2000/svg" viewBox="0 -0.5 608 353" shape-rendering="crispEdges">
<metadata>Made with Pixels to Svg https://codepen.io/shshaw/pen/XbxvNj</metadata>
<path stroke="#ffffff" d="M383 3h1M447 3h1M511 3h1M383 4h1M447 4h1M511 4h1M383 5h1M447 5h1M511 5h1M383 6h1M447 6h1M511 6h1M383 7h1M447 7h1M511 7h1M383 8h1M447 8h1M511 8h1M383 9h1M447 9h1M511 9h1M383 10h1M447 10h1M511 10h1M383 11h1M447 11h1M511 11h1M383 12h1M447 12h1M511 12h1M383 13h1M447 13h1M511 13h1M383 14h1M447 14h1M511 14h1M383 15h1M447 15h1M511 15h1M383 16h1M447 16h1M511 16h1M383 17h1M447 17h1M511 17h1M383 18h1M447 18h1M511 18h1M383 19h1M447 19h1M511 19h1M383 20h1M447 20h1M511 20h1M383 21h1M447 21h1M511 21h1M383 22h1M447 22h1M511 22h1M383 23h1M447 23h1M511 23h1M383 24h1M447 24h1M511 24h1M383 25h1M447 25h1M511 25h1M383 26h1M447 26h1M511 26h1M383 27h1M447 27h1M511 27h1M383 28h1M447 28h1M511 28h1M383 29h1M447 29h1M511 29h1M383 30h1M447 30h1M511 30h1M383 31h1M447 31h1M511 31h1M383 32h1M447 32h1M511 32h1M383 33h1M447 33h1M511 33h1M383 34h1M447 34h1M511 34h1M383 35h1M447 35h1M511 35h1M383 36h1M447 36h1M511 36h1M383 37h1M447 37h1M511 37h1M383 38h1M447 38h1M511 38h1M383 39h1M447 39h1M511 39h1M125 40h5M157 40h5M189 40h5M221 40h5M253 40h5M285 40h5M317 40h5M349 40h5M383 40h1M447 40h1M511 40h1M123 41h2M130 41h2M155 41h2M162 41h2M187 41h2M194 41h2M219 41h2M226 41h2M251 41h2M258 41h2M283 41h2M290 41h2M315 41h2M322 41h2M347 41h2M354 41h2M383 41h1M447 41h1M511 41h1M61 42h5M93 42h5M122 42h1M125 42h5M132 42h1M154 42h1M157 42h5M164 42h1M186 42h1M189 42h5M196 42h1M218 42h1M221 42h5M228 42h1M250 42h1M253 42h5M260 42h1M282 42h1M285 42h5M292 42h1M314 42h1M317 42h5M324 42h1M346 42h1M349 42h5M356 42h1M383 42h1M447 42h1M511 42h1M59 43h2M66 43h2M91 43h2M98 43h2M121 43h1M123 43h2M130 43h2M133 43h1M153 43h1M155 43h2M162 43h2M165 43h1M185 43h1M187 43h2M194 43h2M197 43h1M217 43h1M219 43h2M226 43h2M229 43h1M249 43h1M251 43h2M258 43h2M261 43h1M281 43h1M283 43h2M290 43h2M293 43h1M313 43h1M315 43h2M322 43h2M325 43h1M345 43h1M347 43h2M354 43h2M357 43h1M383 43h1M447 43h1M511 43h1M58 44h1M68 44h1M90 44h1M100 44h1M120 44h1M122 44h1M132 44h1M134 44h1M152 44h1M154 44h1M164 44h1M166 44h1M184 44h1M186 44h1M196 44h1M198 44h1M216 44h1M218 44h1M228 44h1M230 44h1M248 44h1M250 44h1M260 44h1M262 44h1M280 44h1M282 44h1M292 44h1M294 44h1M312 44h1M314 44h1M324 44h1M326 44h1M344 44h1M346 44h1M356 44h1M358 44h1M383 44h1M447 44h1M511 44h1M58 45h1M68 45h1M90 45h1M100 45h1M120 45h1M122 45h1M132 45h1M134 45h1M152 45h1M154 45h1M164 45h1M166 45h1M184 45h1M186 45h1M196 45h1M198 45h1M216 45h1M218 45h1M228 45h1M230 45h1M248 45h1M250 45h1M260 45h1M262 45h1M280 45h1M282 45h1M292 45h1M294 45h1M312 45h1M314 45h1M324 45h1M326 45h1M344 45h1M346 45h1M356 45h1M358 45h1M383 45h1M447 45h1M511 45h1M57 46h1M69 46h1M89 46h1M101 46h1M119 46h1M121 46h1M133 46h1M135 46h1M151 46h1M153 46h1M165 46h1M167 46h1M183 46h1M185 46h1M197 46h1M199 46h1M215 46h1M217 46h1M229 46h1M231 46h1M247 46h1M249 46h1M261 46h1M263 46h1M279 46h1M281 46h1M293 46h1M295 46h1M311 46h1M313 46h1M325 46h1M327 46h1M343 46h1M345 46h1M357 46h1M359 46h1M383 46h1M447 46h1M511 46h1M57 47h1M69 47h1M89 47h1M101 47h1M119 47h1M121 47h1M133 47h1M135 47h1M151 47h1M153 47h1M165 47h1M167 47h1M183 47h1M185 47h1M197 47h1M199 47h1M215 47h1M217 47h1M229 47h1M231 47h1M247 47h1M249 47h1M261 47h1M263 47h1M279 47h1M281 47h1M293 47h1M295 47h1M311 47h1M313 47h1M325 47h1M327 47h1M343 47h1M345 47h1M357 47h1M359 47h1M383 47h1M447 47h1M511 47h1M57 48h1M69 48h21M101 48h1M119 48h1M121 48h1M133 48h1M135 48h17M153 48h1M165 48h1M167 48h17M185 48h1M197 48h1M199 48h17M217 48h1M229 48h1M231 48h17M249 48h1M261 48h1M263 48h17M281 48h1M293 48h1M295 48h17M313 48h1M325 48h1M327 48h19M357 48h1M359 48h1M383 48h1M447 48h1M511 48h1M57 49h1M69 49h1M89 49h1M101 49h1M119 49h1M121 49h1M133 49h1M135 49h1M151 49h1M153 49h1M165 49h1M167 49h1M183 49h1M185 49h1M197 49h1M199 49h1M215 49h1M217 49h1M229 49h1M231 49h1M247 49h1M249 49h1M261 49h1M263 49h1M279 49h1M281 49h1M293 49h1M295 49h1M311 49h1M313 49h1M325 49h1M327 49h1M343 49h1M345 49h1M357 49h1M359 49h1M382 49h1M447 49h1M511 49h1M57 50h1M69 50h1M89 50h1M101 50h1M119 50h1M121 50h1M133 50h1M135 50h1M151 50h1M153 50h1M165 50h1M167 50h1M183 50h1M185 50h1M197 50h1M199 50h1M215 50h1M217 50h1M229 50h1M231 50h1M247 50h1M249 50h1M261 50h1M263 50h1M279 50h1M281 50h1M293 50h1M295 50h1M311 50h1M313 50h1M325 50h1M327 50h1M343 50h1M345 50h1M357 50h1M359 50h1M381 50h1M447 50h1M511 50h1M58 51h1M68 51h1M90 51h1M100 51h1M120 51h1M122 51h1M132 51h1M134 51h1M152 51h1M154 51h1M164 51h1M166 51h1M184 51h1M186 51h1M196 51h1M198 51h1M216 51h1M218 51h1M228 51h1M230 51h1M248 51h1M250 51h1M260 51h1M262 51h1M280 51h1M282 51h1M292 51h1M294 51h1M312 51h1M314 51h1M324 51h1M326 51h1M344 51h1M346 51h1M356 51h1M358 51h1M380 51h1M447 51h1M511 51h1M58 52h1M68 52h1M90 52h1M100 52h1M120 52h1M122 52h1M132 52h1M134 52h1M152 52h1M154 52h1M164 52h1M166 52h1M184 52h1M186 52h1M196 52h1M198 52h1M216 52h1M218 52h1M228 52h1M230 52h1M248 52h1M250 52h1M260 52h1M262 52h1M280 52h1M282 52h1M292 52h1M294 52h1M312 52h1M314 52h1M324 52h1M326 52h1M344 52h1M346 52h1M356 52h1M358 52h1M379 52h1M447 52h1M511 52h1M59 53h2M66 53h3M91 53h2M98 53h2M121 53h1M123 53h2M130 53h2M133 53h1M153 53h1M155 53h2M162 53h2M165 53h1M185 53h1M187 53h2M194 53h2M197 53h1M217 53h1M219 53h2M226 53h2M229 53h1M249 53h1M251 53h2M258 53h2M261 53h1M281 53h1M283 53h2M290 53h2M293 53h1M313 53h1M315 53h2M322 53h2M325 53h1M345 53h1M347 53h2M354 53h2M357 53h1M378 53h1M447 53h1M511 53h1M61 54h5M69 54h1M93 54h5M122 54h1M125 54h5M132 54h1M154 54h1M157 54h5M164 54h1M186 54h1M189 54h5M196 54h1M218 54h1M221 54h5M228 54h1M250 54h1M253 54h5M260 54h1M282 54h1M285 54h5M292 54h1M314 54h1M317 54h5M324 54h1M346 54h1M349 54h5M356 54h1M358 54h1M377 54h1M447 54h1M511 54h1M70 55h1M95 55h1M123 55h2M130 55h2M155 55h2M162 55h2M187 55h2M194 55h2M219 55h2M226 55h2M251 55h2M258 55h2M283 55h2M290 55h2M315 55h2M322 55h2M347 55h2M354 55h2M359 55h1M376 55h1M447 55h1M511 55h1M71 56h1M95 56h1M125 56h5M157 56h5M189 56h5M221 56h5M253 56h5M285 56h5M317 56h5M349 56h5M360 56h1M375 56h1M447 56h1M511 56h1M72 57h1M95 57h1M361 57h1M374 57h1M447 57h1M511 57h1M73 58h1M95 58h1M362 58h1M373 58h1M447 58h1M511 58h1M74 59h1M95 59h1M363 59h1M372 59h1M447 59h1M511 59h1M75 60h1M95 60h1M364 60h1M371 60h1M447 60h1M511 60h1M76 61h1M95 61h1M365 61h1M370 61h1M447 61h1M511 61h1M77 62h1M95 62h1M366 62h1M447 62h1M511 62h1M78 63h1M95 63h1M367 63h1M447 63h1M511 63h1M79 64h1M95 64h1M368 64h1M447 64h1M511 64h1M80 65h1M95 65h1M369 65h1M447 65h1M511 65h1M81 66h1M95 66h1M370 66h1M444 66h7M511 66h1M539 66h7M82 67h1M95 67h1M364 67h1M371 67h1M441 67h3M451 67h3M511 67h1M536 67h3M546 67h3M83 68h1M95 68h1M363 68h1M372 68h1M440 68h2M453 68h2M511 68h1M535 68h2M548 68h2M84 69h1M95 69h1M362 69h1M373 69h1M438 69h2M455 69h2M511 69h1M533 69h2M550 69h2M85 70h1M95 70h1M361 70h1M374 70h1M437 70h2M456 70h2M511 70h1M532 70h2M551 70h2M86 71h1M95 71h1M191 71h1M351 71h1M360 71h1M375 71h1M437 71h1M457 71h1M511 71h1M532 71h1M552 71h1M61 72h5M87 72h1M93 72h5M157 72h5M191 72h1M221 72h5M285 72h5M317 72h5M351 72h1M359 72h1M376 72h1M436 72h1M458 72h1M511 72h1M531 72h1M553 72h1M59 73h2M66 73h2M88 73h1M91 73h2M98 73h2M155 73h2M162 73h2M184 73h1M198 73h1M219 73h2M226 73h2M283 73h2M290 73h2M315 73h2M322 73h2M344 73h1M358 73h1M377 73h1M435 73h2M458 73h2M511 73h1M530 73h2M553 73h2M58 74h1M61 74h5M68 74h1M89 74h2M93 74h5M100 74h1M125 74h5M154 74h1M157 74h5M164 74h1M185 74h1M189 74h5M197 74h1M218 74h1M221 74h5M228 74h1M253 74h5M282 74h1M285 74h5M292 74h1M314 74h1M317 74h5M324 74h1M345 74h1M349 74h5M357 74h1M378 74h1M435 74h1M459 74h1M511 74h1M530 74h1M554 74h1M57 75h1M59 75h2M66 75h2M69 75h1M89 75h1M91 75h2M98 75h2M101 75h1M123 75h2M130 75h2M153 75h1M155 75h2M162 75h2M165 75h1M187 75h2M194 75h2M217 75h1M219 75h2M226 75h2M229 75h1M251 75h2M258 75h2M281 75h1M283 75h2M290 75h2M293 75h1M313 75h1M315 75h2M322 75h2M325 75h1M347 75h2M354 75h3M379 75h1M435 75h1M459 75h1M511 75h1M530 75h1M554 75h1M56 76h1M58 76h1M68 76h1M70 76h1M88 76h1M90 76h1M100 76h1M102 76h1M122 76h1M132 76h1M152 76h1M154 76h1M164 76h1M166 76h1M186 76h1M196 76h1M216 76h1M218 76h1M228 76h1M230 76h1M250 76h1M260 76h1M280 76h1M282 76h1M292 76h1M294 76h1M312 76h1M314 76h1M324 76h1M326 76h1M346 76h1M356 76h1M380 76h1M434 76h1M460 76h1M511 76h1M529 76h1M555 76h1M56 77h1M58 77h1M68 77h1M70 77h1M88 77h1M90 77h1M100 77h1M102 77h1M122 77h1M132 77h1M152 77h1M154 77h1M164 77h1M166 77h1M186 77h1M196 77h1M216 77h1M218 77h1M228 77h1M230 77h1M250 77h1M260 77h1M280 77h1M282 77h1M292 77h1M294 77h1M312 77h1M314 77h1M324 77h1M326 77h1M346 77h1M356 77h1M381 77h1M434 77h1M460 77h1M511 77h1M529 77h1M555 77h1M55 78h1M57 78h1M69 78h1M71 78h1M87 78h1M89 78h1M101 78h1M103 78h1M121 78h1M133 78h1M151 78h1M153 78h1M165 78h1M167 78h1M185 78h1M197 78h1M215 78h1M217 78h1M229 78h1M231 78h1M249 78h1M261 78h1M279 78h1M281 78h1M293 78h1M295 78h1M311 78h1M313 78h1M325 78h1M327 78h1M345 78h1M357 78h1M382 78h1M434 78h1M460 78h1M511 78h1M529 78h1M555 78h1M55 79h1M57 79h1M69 79h1M71 79h1M87 79h1M89 79h1M101 79h1M103 79h1M121 79h1M133 79h1M151 79h1M153 79h1M165 79h1M167 79h1M185 79h1M197 79h1M215 79h1M217 79h1M229 79h1M231 79h1M249 79h1M261 79h1M279 79h1M281 79h1M293 79h1M295 79h1M311 79h1M313 79h1M325 79h1M327 79h1M345 79h1M357 79h1M383 79h52M460 79h1M511 79h1M529 79h1M555 79h1M55 80h1M57 80h1M69 80h1M71 80h1M87 80h1M89 80h1M101 80h1M103 80h1M121 80h1M133 80h1M151 80h1M153 80h1M165 80h1M167 80h1M182 80h2M185 80h1M197 80h1M199 80h2M215 80h1M217 80h1M229 80h1M231 80h1M249 80h1M261 80h1M279 80h1M281 80h1M293 80h1M295 80h1M311 80h1M313 80h1M325 80h1M327 80h1M342 80h2M345 80h1M357 80h1M359 80h2M434 80h1M460 80h1M511 80h1M529 80h1M555 80h1M55 81h1M57 81h1M69 81h1M71 81h1M87 81h1M89 81h1M101 81h1M103 81h1M121 81h1M133 81h1M151 81h1M153 81h1M165 81h1M167 81h1M185 81h1M197 81h1M215 81h1M217 81h1M229 81h1M231 81h1M249 81h1M261 81h1M279 81h1M281 81h1M293 81h1M295 81h1M311 81h1M313 81h1M325 81h1M327 81h1M345 81h1M357 81h1M434 81h1M460 81h1M511 81h1M529 81h1M555 81h1M55 82h1M57 82h1M69 82h1M71 82h1M87 82h1M89 82h1M101 82h1M103 82h1M121 82h1M133 82h1M151 82h1M153 82h1M165 82h1M167 82h1M185 82h1M197 82h1M215 82h1M217 82h1M229 82h1M231 82h1M249 82h1M261 82h1M279 82h1M281 82h1M293 82h1M295 82h1M311 82h1M313 82h1M325 82h1M327 82h1M345 82h1M357 82h1M434 82h1M460 82h1M511 82h1M529 82h1M555 82h1M56 83h1M58 83h1M68 83h1M70 83h1M88 83h1M90 83h1M100 83h1M102 83h1M122 83h1M132 83h1M152 83h1M154 83h1M164 83h1M166 83h1M186 83h1M196 83h1M216 83h1M218 83h1M228 83h1M230 83h1M250 83h1M260 83h1M280 83h1M282 83h1M292 83h1M294 83h1M312 83h1M314 83h1M324 83h1M326 83h1M346 83h1M356 83h1M435 83h1M459 83h1M511 83h1M530 83h1M554 83h1M56 84h1M58 84h1M68 84h1M70 84h1M88 84h1M90 84h1M100 84h1M102 84h1M122 84h1M132 84h1M152 84h1M154 84h1M164 84h1M166 84h1M186 84h1M196 84h1M216 84h1M218 84h1M228 84h1M230 84h1M250 84h1M260 84h1M280 84h1M282 84h1M292 84h1M294 84h1M312 84h1M314 84h1M324 84h1M326 84h1M346 84h1M356 84h1M435 84h1M459 84h1M511 84h1M530 84h1M554 84h1M57 85h1M59 85h2M66 85h2M69 85h1M89 85h1M91 85h2M98 85h2M101 85h1M123 85h2M130 85h2M153 85h1M155 85h2M162 85h2M165 85h1M187 85h2M194 85h2M217 85h1M219 85h2M226 85h2M229 85h1M251 85h2M258 85h2M281 85h1M283 85h2M290 85h2M293 85h1M313 85h1M315 85h2M322 85h2M325 85h1M347 85h2M354 85h2M435 85h2M458 85h2M511 85h1M530 85h2M553 85h2M58 86h1M61 86h5M68 86h1M90 86h1M93 86h5M100 86h1M125 86h5M154 86h1M157 86h5M164 86h1M185 86h1M189 86h5M197 86h1M218 86h1M221 86h5M228 86h1M253 86h5M282 86h1M285 86h5M292 86h1M314 86h1M317 86h5M324 86h1M345 86h1M349 86h5M357 86h1M436 86h1M458 86h1M511 86h1M531 86h1M553 86h1M59 87h2M66 87h2M91 87h2M98 87h2M127 87h1M155 87h2M162 87h2M184 87h1M191 87h1M198 87h1M219 87h2M226 87h2M255 87h1M283 87h2M290 87h2M315 87h2M322 87h2M344 87h1M358 87h1M437 87h1M457 87h1M511 87h1M532 87h1M552 87h1M61 88h5M93 88h5M127 88h1M157 88h5M191 88h1M221 88h5M255 88h1M285 88h5M317 88h5M351 88h1M437 88h2M456 88h2M511 88h1M532 88h2M551 88h2M63 89h1M127 89h1M159 89h1M190 89h1M192 89h1M223 89h1M255 89h1M287 89h1M319 89h1M351 89h1M438 89h2M455 89h2M511 89h1M533 89h2M550 89h2M63 90h1M127 90h1M159 90h1M189 90h1M193 90h1M223 90h1M255 90h1M287 90h1M319 90h1M440 90h2M453 90h2M511 90h1M535 90h2M548 90h2M63 91h1M127 91h1M159 91h1M188 91h1M194 91h1M223 91h1M255 91h1M287 91h1M319 91h1M441 91h3M451 91h3M511 91h1M536 91h3M546 91h3M63 92h1M127 92h1M159 92h1M187 92h1M195 92h1M223 92h1M255 92h1M287 92h1M319 92h1M444 92h7M511 92h1M539 92h7M63 93h1M121 93h13M159 93h1M186 93h1M196 93h1M223 93h1M249 93h13M287 93h1M319 93h1M511 93h1M63 94h1M159 94h1M181 94h1M185 94h1M197 94h1M201 94h1M223 94h1M287 94h1M319 94h1M511 94h1M63 95h1M159 95h1M182 95h1M184 95h1M198 95h1M200 95h1M223 95h1M287 95h1M319 95h1M511 95h1M63 96h1M159 96h1M183 96h1M199 96h1M223 96h1M287 96h1M319 96h1M511 96h1M63 97h1M159 97h1M182 97h1M184 97h1M198 97h1M200 97h1M223 97h1M287 97h1M319 97h1M511 97h1M63 98h1M121 98h13M159 98h1M181 98h1M185 98h1M197 98h1M201 98h1M223 98h1M249 98h13M287 98h1M319 98h1M511 98h1M63 99h1M127 99h1M159 99h1M186 99h1M196 99h1M223 99h1M255 99h1M287 99h1M319 99h1M407 99h1M511 99h1M63 100h1M127 100h1M159 100h1M187 100h1M195 100h1M223 100h1M255 100h1M287 100h1M319 100h1M408 100h1M511 100h1M63 101h1M127 101h1M159 101h1M188 101h1M194 101h1M223 101h1M255 101h1M287 101h1M319 101h1M407 101h1M409 101h1M511 101h1M63 102h1M127 102h1M159 102h1M189 102h1M193 102h1M223 102h1M255 102h1M287 102h1M319 102h1M406 102h1M408 102h1M410 102h1M511 102h1M63 103h1M127 103h1M159 103h1M190 103h1M192 103h1M223 103h1M255 103h1M287 103h1M319 103h1M407 103h1M409 103h1M411 103h1M511 103h1M63 104h1M125 104h5M159 104h1M191 104h1M223 104h1M253 104h5M287 104h1M319 104h1M406 104h1M408 104h1M410 104h1M412 104h1M511 104h1M63 105h1M123 105h2M130 105h2M159 105h1M184 105h1M191 105h1M198 105h1M223 105h1M251 105h2M258 105h2M287 105h1M319 105h1M405 105h1M407 105h1M409 105h1M411 105h1M413 105h1M511 105h1M61 106h5M93 106h5M122 106h1M125 106h5M132 106h1M157 106h5M185 106h1M189 106h5M197 106h1M221 106h5M250 106h1M253 106h5M260 106h1M285 106h5M317 106h5M349 106h5M406 106h1M408 106h1M410 106h1M412 106h1M414 106h1M511 106h1M59 107h2M66 107h2M91 107h2M98 107h2M121 107h1M123 107h2M130 107h2M133 107h1M155 107h2M162 107h2M187 107h2M194 107h2M219 107h2M226 107h2M249 107h1M251 107h2M258 107h2M261 107h1M283 107h2M290 107h2M315 107h2M322 107h2M347 107h2M354 107h2M405 107h1M407 107h1M409 107h1M411 107h1M413 107h1M415 107h1M511 107h1M58 108h1M68 108h1M90 108h1M100 108h1M120 108h1M122 108h1M132 108h1M134 108h1M154 108h1M164 108h1M186 108h1M196 108h1M218 108h1M228 108h1M248 108h1M250 108h1M260 108h1M262 108h1M282 108h1M292 108h1M314 108h1M324 108h1M346 108h1M356 108h1M404 108h1M406 108h1M408 108h1M410 108h1M412 108h1M414 108h1M511 108h1M58 109h1M68 109h1M90 109h1M100 109h1M120 109h1M122 109h1M132 109h1M134 109h1M154 109h1M164 109h1M186 109h1M196 109h1M218 109h1M228 109h1M248 109h1M250 109h1M260 109h1M262 109h1M282 109h1M292 109h1M314 109h1M324 109h1M346 109h1M356 109h1M405 109h1M407 109h1M409 109h1M411 109h1M413 109h1M511 109h1M57 110h1M69 110h1M89 110h1M101 110h1M119 110h1M121 110h1M133 110h1M135 110h1M153 110h1M165 110h1M185 110h1M197 110h1M217 110h1M229 110h1M247 110h1M249 110h1M261 110h1M263 110h1M281 110h1M293 110h1M313 110h1M325 110h1M345 110h1M357 110h1M404 110h1M406 110h1M408 110h1M410 110h1M412 110h1M511 110h1M57 111h1M69 111h1M89 111h1M101 111h1M119 111h1M121 111h1M133 111h1M135 111h1M153 111h1M165 111h1M185 111h1M197 111h1M217 111h1M229 111h1M247 111h1M249 111h1M261 111h1M263 111h1M281 111h1M293 111h1M313 111h1M325 111h1M345 111h1M357 111h1M403 111h1M405 111h1M407 111h1M409 111h1M411 111h1M511 111h1M57 112h1M69 112h21M101 112h1M119 112h1M121 112h1M133 112h1M135 112h1M153 112h1M165 112h1M182 112h2M185 112h1M197 112h1M199 112h2M217 112h1M229 112h1M247 112h1M249 112h1M261 112h1M263 112h1M281 112h1M293 112h1M313 112h1M325 112h1M345 112h1M357 112h1M404 112h1M406 112h1M408 112h1M410 112h1M511 112h1M57 113h1M69 113h1M89 113h1M101 113h1M119 113h1M121 113h1M133 113h1M135 113h1M153 113h1M165 113h1M185 113h1M197 113h1M217 113h1M229 113h1M247 113h1M249 113h1M261 113h1M263 113h1M281 113h1M293 113h1M313 113h1M325 113h1M345 113h1M357 113h1M403 113h1M405 113h1M407 113h1M409 113h1M511 113h1M57 114h1M69 114h1M89 114h1M101 114h1M119 114h1M121 114h1M133 114h1M135 114h1M153 114h1M165 114h1M185 114h1M197 114h1M217 114h1M229 114h1M247 114h1M249 114h1M261 114h1M263 114h1M281 114h1M293 114h1M313 114h1M325 114h1M345 114h1M357 114h1M402 114h1M404 114h1M406 114h1M408 114h1M511 114h1M58 115h1M68 115h1M90 115h1M100 115h1M120 115h1M122 115h1M132 115h1M134 115h1M154 115h1M164 115h1M186 115h1M196 115h1M218 115h1M228 115h1M248 115h1M250 115h1M260 115h1M262 115h1M282 115h1M292 115h1M314 115h1M324 115h1M346 115h1M356 115h1M401 115h1M403 115h1M405 115h1M407 115h1M511 115h1M58 116h1M68 116h1M90 116h1M100 116h1M120 116h1M122 116h1M132 116h1M134 116h1M154 116h1M164 116h1M186 116h1M196 116h1M218 116h1M228 116h1M248 116h1M250 116h1M260 116h1M262 116h1M282 116h1M292 116h1M314 116h1M324 116h1M346 116h1M356 116h1M402 116h1M404 116h1M406 116h1M511 116h1M59 117h2M66 117h2M91 117h2M98 117h2M121 117h1M123 117h2M130 117h2M133 117h1M155 117h2M162 117h2M187 117h2M194 117h2M219 117h2M226 117h2M249 117h1M251 117h2M258 117h2M261 117h1M283 117h2M290 117h2M315 117h2M322 117h2M347 117h2M354 117h2M357 117h1M401 117h1M403 117h1M405 117h1M425 117h1M511 117h1M61 118h5M93 118h5M122 118h1M125 118h5M132 118h1M157 118h5M185 118h1M189 118h5M197 118h1M221 118h5M250 118h1M253 118h5M260 118h1M285 118h5M317 118h5M349 118h5M358 118h1M400 118h1M402 118h1M404 118h1M422 118h1M424 118h1M426 118h1M511 118h1M63 119h1M95 119h1M123 119h2M130 119h2M159 119h1M184 119h1M198 119h1M223 119h1M251 119h2M258 119h2M287 119h1M319 119h1M359 119h1M401 119h1M403 119h1M419 119h1M421 119h1M423 119h1M425 119h1M427 119h1M511 119h1M63 120h1M95 120h1M125 120h5M159 120h1M191 120h1M223 120h1M253 120h5M287 120h1M319 120h1M360 120h1M400 120h1M402 120h1M416 120h1M418 120h1M420 120h1M422 120h1M424 120h1M426 120h1M428 120h1M511 120h1M63 121h1M95 121h1M159 121h1M191 121h1M223 121h1M287 121h1M319 121h1M361 121h1M399 121h1M401 121h1M413 121h1M415 121h1M417 121h1M419 121h1M421 121h1M423 121h1M425 121h1M427 121h1M429 121h1M511 121h1M63 122h1M95 122h1M159 122h1M223 122h1M287 122h1M319 122h1M362 122h1M400 122h1M410 122h1M412 122h1M414 122h1M416 122h1M418 122h1M420 122h1M430 122h1M511 122h1M63 123h1M95 123h1M159 123h1M223 123h1M287 123h1M319 123h1M363 123h1M399 123h1M407 123h1M409 123h1M411 123h1M413 123h1M415 123h1M417 123h1M431 123h1M511 123h1M529 123h1M538 123h3M557 123h1M63 124h1M95 124h1M159 124h1M223 124h1M287 124h1M319 124h1M364 124h1M398 124h1M404 124h1M406 124h1M408 124h1M410 124h1M412 124h1M414 124h1M416 124h1M432 124h1M511 124h1M529 124h1M537 124h1M541 124h1M557 124h1M63 125h1M95 125h1M159 125h1M223 125h1M287 125h1M319 125h1M365 125h1M401 125h1M403 125h1M405 125h1M407 125h1M409 125h1M411 125h1M413 125h1M415 125h1M511 125h1M529 125h1M537 125h1M541 125h1M557 125h1M63 126h1M95 126h1M159 126h1M223 126h1M287 126h1M319 126h1M366 126h1M400 126h1M402 126h1M404 126h1M406 126h1M408 126h1M410 126h1M412 126h1M414 126h1M434 126h1M511 126h1M529 126h1M537 126h1M541 126h1M557 126h1M63 127h1M95 127h1M159 127h1M223 127h1M287 127h1M319 127h1M367 127h1M399 127h1M401 127h1M403 127h1M405 127h1M407 127h1M409 127h1M411 127h1M413 127h1M433 127h1M435 127h1M511 127h1M529 127h1M538 127h3M557 127h1M63 128h1M95 128h1M159 128h1M223 128h1M287 128h1M319 128h1M368 128h1M400 128h1M402 128h1M404 128h1M406 128h1M408 128h1M410 128h1M412 128h1M432 128h1M434 128h1M510 128h2M529 128h1M546 128h3M557 128h1M63 129h1M95 129h1M159 129h1M223 129h1M287 129h1M319 129h1M369 129h1M401 129h1M403 129h1M405 129h1M407 129h1M409 129h1M411 129h1M413 129h1M431 129h1M433 129h1M435 129h1M509 129h1M511 129h1M529 129h1M545 129h1M549 129h1M557 129h1M63 130h1M95 130h1M159 130h1M223 130h1M287 130h1M319 130h1M370 130h1M402 130h1M404 130h1M406 130h1M408 130h1M410 130h1M412 130h1M430 130h1M432 130h1M434 130h1M436 130h1M508 130h1M511 130h1M529 130h1M545 130h1M549 130h1M557 130h1M63 131h1M95 131h1M159 131h1M223 131h1M287 131h1M319 131h1M371 131h1M403 131h1M405 131h1M407 131h1M409 131h1M411 131h1M429 131h1M431 131h1M433 131h1M435 131h1M507 131h1M511 131h1M529 131h1M545 131h1M549 131h1M557 131h1M63 132h1M95 132h1M159 132h1M223 132h1M287 132h1M319 132h1M372 132h1M404 132h1M406 132h1M408 132h1M410 132h1M412 132h1M428 132h1M430 132h1M432 132h1M434 132h1M436 132h1M506 132h1M511 132h1M529 132h1M546 132h3M557 132h1M63 133h1M95 133h1M159 133h1M223 133h1M287 133h1M319 133h1M373 133h1M405 133h1M407 133h1M409 133h1M411 133h1M427 133h1M429 133h1M431 133h1M433 133h1M435 133h1M437 133h1M505 133h1M511 133h1M529 133h1M557 133h1M63 134h1M95 134h1M159 134h1M223 134h1M287 134h1M319 134h1M374 134h1M406 134h1M408 134h1M410 134h1M426 134h1M428 134h1M430 134h1M432 134h1M434 134h1M436 134h1M504 134h1M511 134h1M529 134h1M557 134h1M63 135h1M95 135h1M159 135h1M223 135h1M287 135h1M319 135h1M375 135h1M407 135h1M409 135h1M411 135h1M425 135h1M427 135h1M429 135h1M431 135h1M433 135h1M435 135h1M437 135h1M503 135h1M511 135h1M529 135h13M557 135h1M63 136h1M95 136h1M159 136h1M223 136h1M287 136h1M319 136h1M376 136h1M408 136h1M410 136h1M424 136h1M426 136h1M428 136h1M430 136h1M432 136h1M434 136h1M436 136h1M502 136h1M511 136h1M557 136h1M63 137h1M95 137h1M159 137h1M223 137h1M287 137h1M319 137h1M377 137h1M409 137h1M411 137h1M423 137h1M425 137h1M427 137h1M429 137h1M431 137h1M433 137h1M435 137h1M437 137h1M501 137h1M511 137h1M63 138h1M95 138h1M159 138h1M223 138h1M287 138h1M319 138h1M378 138h1M410 138h1M412 138h1M422 138h1M424 138h1M426 138h1M428 138h1M430 138h1M432 138h1M434 138h1M436 138h1M500 138h1M511 138h1M63 139h1M95 139h1M159 139h1M223 139h1M287 139h1M319 139h1M379 139h1M411 139h1M421 139h1M423 139h1M425 139h1M427 139h1M429 139h1M431 139h1M433 139h1M435 139h1M437 139h1M499 139h1M511 139h1M63 140h1M95 140h1M159 140h1M223 140h1M287 140h1M319 140h1M380 140h1M412 140h1M420 140h1M422 140h1M424 140h1M426 140h1M428 140h1M430 140h1M432 140h1M434 140h1M436 140h1M498 140h1M511 140h1M529 140h6M541 140h1M545 140h13M63 141h1M95 141h1M159 141h1M223 141h1M287 141h1M319 141h1M381 141h1M413 141h1M419 141h1M421 141h1M423 141h1M425 141h1M427 141h1M429 141h1M431 141h1M433 141h1M435 141h1M497 141h1M511 141h1M534 141h1M541 141h1M557 141h1M63 142h1M95 142h1M159 142h1M223 142h1M287 142h1M319 142h1M382 142h1M414 142h1M418 142h1M420 142h1M422 142h1M424 142h1M426 142h1M428 142h1M430 142h1M432 142h1M434 142h1M496 142h1M511 142h1M534 142h1M541 142h1M557 142h1M63 143h1M95 143h1M159 143h1M223 143h1M287 143h1M319 143h1M383 143h1M417 143h1M419 143h1M421 143h1M423 143h1M425 143h1M427 143h1M429 143h1M431 143h1M433 143h1M495 143h1M511 143h1M534 143h1M541 143h1M557 143h1M63 144h1M95 144h1M159 144h1M223 144h1M287 144h1M319 144h1M383 144h1M416 144h1M418 144h1M420 144h1M422 144h1M424 144h1M426 144h1M428 144h1M430 144h1M432 144h1M494 144h1M511 144h1M534 144h1M541 144h1M546 144h3M557 144h1M63 145h1M95 145h1M159 145h1M223 145h1M287 145h1M319 145h1M383 145h1M417 145h1M419 145h1M421 145h1M423 145h1M425 145h1M427 145h1M429 145h1M431 145h1M493 145h1M511 145h1M534 145h1M541 145h1M545 145h1M549 145h1M557 145h1M63 146h1M95 146h1M159 146h1M223 146h1M287 146h1M319 146h1M383 146h1M418 146h1M420 146h1M422 146h1M424 146h1M426 146h1M428 146h1M430 146h1M492 146h1M511 146h1M534 146h1M541 146h1M545 146h1M549 146h1M557 146h1M63 147h1M95 147h1M159 147h1M223 147h1M287 147h1M319 147h1M383 147h1M421 147h1M423 147h1M425 147h1M427 147h1M491 147h1M511 147h1M534 147h1M541 147h1M545 147h1M549 147h1M557 147h1M63 148h1M95 148h1M159 148h1M223 148h1M287 148h1M319 148h1M383 148h1M490 148h1M511 148h1M534 148h1M541 148h1M546 148h3M557 148h1M63 149h1M95 149h1M159 149h1M223 149h1M287 149h1M319 149h1M383 149h1M489 149h1M511 149h1M534 149h1M541 149h1M557 149h1M63 150h1M95 150h1M159 150h1M223 150h1M287 150h1M319 150h1M383 150h1M488 150h1M511 150h1M534 150h1M541 150h1M557 150h1M63 151h1M95 151h1M159 151h1M223 151h1M287 151h1M319 151h1M383 151h1M487 151h1M511 151h1M534 151h1M541 151h1M557 151h1M63 152h1M95 152h1M159 152h1M223 152h1M287 152h1M319 152h1M383 152h1M486 152h1M511 152h1M534 152h8M545 152h13M63 153h1M95 153h1M159 153h1M223 153h1M287 153h1M319 153h1M383 153h1M485 153h1M511 153h1M63 154h1M95 154h1M159 154h1M223 154h1M287 154h1M319 154h1M383 154h1M484 154h1M511 154h1M63 155h1M95 155h1M159 155h1M223 155h1M287 155h1M319 155h1M383 155h1M483 155h1M511 155h1M63 156h1M95 156h1M159 156h1M223 156h1M287 156h1M319 156h1M383 156h1M482 156h1M511 156h1M63 157h1M95 157h1M159 157h1M223 157h1M287 157h1M319 157h1M383 157h1M481 157h1M511 157h1M63 158h1M95 158h1M159 158h1M223 158h1M287 158h1M319 158h1M383 158h1M480 158h1M511 158h1M63 159h1M95 159h1M159 159h1M223 159h1M287 159h1M319 159h1M383 159h1M479 159h1M511 159h1M63 160h1M95 160h1M159 160h1M223 160h1M287 160h1M319 160h1M383 160h1M478 160h1M511 160h1M63 161h1M95 161h1M159 161h1M223 161h1M286 161h1M319 161h1M383 161h1M477 161h1M511 161h1M63 162h1M95 162h1M159 162h1M223 162h1M285 162h1M319 162h1M383 162h1M476 162h1M511 162h2M63 163h1M95 163h1M159 163h1M223 163h1M284 163h1M319 163h1M383 163h1M475 163h1M511 163h1M513 163h1M63 164h1M95 164h1M159 164h1M223 164h1M283 164h1M319 164h1M383 164h1M474 164h1M511 164h1M514 164h1M58 165h11M95 165h1M159 165h1M223 165h1M250 165h11M282 165h1M319 165h1M383 165h1M442 165h11M473 165h1M511 165h1M515 165h1M538 165h11M55 166h3M69 166h3M95 166h1M159 166h1M223 166h1M247 166h3M261 166h3M281 166h1M319 166h1M383 166h1M439 166h3M453 166h3M472 166h1M511 166h1M516 166h1M535 166h3M549 166h3M52 167h3M72 167h3M95 167h1M159 167h1M223 167h1M244 167h3M264 167h3M280 167h1M319 167h1M383 167h1M436 167h3M456 167h3M471 167h1M511 167h1M517 167h1M532 167h3M552 167h3M50 168h2M75 168h2M95 168h1M159 168h1M223 168h1M242 168h2M267 168h2M279 168h1M319 168h1M383 168h1M434 168h2M459 168h2M470 168h1M511 168h1M518 168h1M530 168h2M555 168h2M48 169h2M77 169h2M95 169h1M159 169h1M223 169h1M240 169h2M269 169h2M278 169h1M319 169h1M383 169h1M432 169h2M461 169h2M469 169h1M511 169h1M519 169h1M528 169h2M557 169h2M47 170h2M78 170h2M95 170h1M159 170h1M223 170h1M239 170h2M270 170h2M277 170h1M319 170h1M383 170h1M431 170h2M462 170h2M468 170h1M511 170h1M520 170h1M527 170h2M558 170h2M46 171h1M80 171h1M95 171h1M159 171h1M223 171h1M238 171h1M272 171h1M276 171h1M319 171h1M383 171h1M430 171h1M464 171h1M467 171h1M511 171h1M521 171h1M526 171h1M560 171h1M45 172h1M81 172h1M95 172h1M159 172h1M223 172h1M237 172h1M273 172h1M275 172h1M319 172h1M383 172h1M429 172h1M465 172h2M511 172h1M522 172h1M525 172h1M561 172h1M44 173h1M82 173h1M95 173h1M159 173h1M223 173h1M236 173h1M274 173h1M319 173h1M383 173h1M428 173h1M466 173h1M511 173h1M523 173h2M562 173h1M43 174h1M83 174h1M95 174h1M159 174h1M223 174h1M235 174h1M275 174h1M319 174h1M383 174h1M427 174h1M467 174h1M511 174h1M523 174h1M563 174h1M42 175h1M84 175h1M95 175h1M159 175h1M223 175h1M234 175h1M276 175h1M319 175h1M383 175h1M426 175h1M468 175h1M511 175h1M522 175h1M564 175h1M41 176h1M85 176h1M95 176h1M159 176h1M223 176h1M233 176h1M277 176h1M319 176h1M383 176h1M425 176h1M469 176h1M511 176h1M521 176h1M565 176h1M40 177h2M85 177h2M95 177h1M159 177h1M223 177h1M232 177h2M277 177h2M319 177h1M383 177h1M424 177h2M469 177h2M511 177h1M520 177h2M565 177h2M40 178h1M86 178h1M95 178h1M159 178h1M223 178h1M232 178h1M278 178h1M319 178h1M383 178h1M424 178h1M470 178h1M511 178h1M520 178h1M566 178h1M39 179h1M87 179h1M95 179h1M156 179h7M223 179h1M231 179h1M279 179h1M319 179h1M348 179h7M383 179h1M423 179h1M471 179h1M511 179h1M519 179h1M567 179h1M39 180h1M87 180h1M95 180h1M153 180h3M163 180h3M223 180h1M231 180h1M279 180h1M319 180h1M345 180h3M355 180h3M383 180h1M423 180h1M471 180h1M511 180h1M519 180h1M567 180h1M38 181h1M88 181h1M95 181h1M152 181h2M165 181h2M223 181h1M230 181h1M280 181h1M319 181h1M344 181h2M357 181h2M383 181h1M422 181h1M472 181h1M511 181h1M518 181h1M568 181h1M38 182h1M88 182h1M95 182h1M150 182h2M167 182h2M223 182h1M230 182h1M280 182h1M319 182h1M342 182h2M359 182h2M383 182h1M422 182h1M472 182h1M511 182h1M518 182h1M568 182h1M38 183h1M88 183h1M95 183h1M149 183h2M168 183h2M223 183h1M230 183h1M280 183h1M319 183h1M341 183h2M360 183h2M383 183h1M422 183h1M472 183h1M511 183h1M518 183h1M568 183h1M37 184h1M89 184h1M95 184h1M149 184h1M169 184h1M223 184h1M229 184h1M281 184h1M319 184h1M341 184h1M361 184h1M383 184h1M421 184h1M473 184h1M511 184h1M517 184h1M569 184h1M37 185h1M89 185h1M95 185h1M148 185h1M170 185h1M223 185h1M229 185h1M281 185h1M319 185h1M340 185h1M362 185h1M383 185h1M421 185h1M473 185h1M511 185h1M517 185h1M569 185h1M37 186h1M89 186h1M95 186h1M147 186h2M170 186h2M223 186h1M229 186h1M281 186h1M319 186h1M339 186h2M362 186h2M383 186h1M421 186h1M473 186h1M511 186h1M517 186h1M569 186h1M36 187h1M90 187h1M95 187h1M147 187h1M171 187h1M223 187h1M228 187h1M282 187h1M319 187h1M339 187h1M363 187h1M383 187h1M420 187h1M474 187h1M511 187h1M516 187h1M570 187h1M36 188h1M90 188h1M147 188h1M171 188h1M223 188h1M228 188h1M282 188h1M319 188h1M339 188h1M363 188h1M383 188h1M420 188h1M474 188h1M511 188h1M516 188h1M570 188h1M36 189h1M90 189h1M146 189h1M172 189h1M223 189h1M228 189h1M282 189h1M319 189h1M338 189h1M364 189h1M420 189h1M474 189h1M511 189h1M516 189h1M570 189h1M36 190h1M90 190h1M146 190h1M172 190h1M223 190h1M228 190h1M282 190h1M319 190h1M338 190h1M364 190h1M420 190h1M474 190h1M511 190h1M516 190h1M570 190h1M36 191h1M90 191h1M146 191h1M172 191h1M223 191h1M228 191h1M282 191h1M319 191h1M338 191h1M364 191h1M420 191h1M474 191h1M511 191h1M516 191h1M570 191h1M36 192h1M90 192h57M172 192h1M223 192h1M228 192h1M282 192h1M319 192h1M338 192h1M364 192h57M474 192h1M511 192h1M516 192h1M570 192h1M36 193h1M90 193h1M146 193h1M172 193h1M223 193h1M228 193h1M282 193h1M319 193h1M338 193h1M364 193h1M420 193h1M474 193h1M511 193h1M516 193h1M570 193h1M36 194h1M90 194h1M146 194h1M172 194h1M223 194h1M228 194h1M282 194h1M319 194h1M338 194h1M364 194h1M420 194h1M474 194h1M511 194h1M516 194h1M570 194h1M36 195h1M90 195h1M146 195h1M172 195h1M223 195h1M228 195h1M282 195h1M319 195h1M338 195h1M364 195h1M420 195h1M474 195h1M511 195h1M516 195h1M570 195h1M36 196h1M90 196h1M147 196h1M171 196h1M223 196h1M228 196h1M282 196h1M319 196h1M339 196h1M363 196h1M383 196h1M420 196h1M474 196h1M511 196h1M516 196h1M570 196h1M36 197h1M90 197h1M95 197h1M147 197h1M171 197h1M223 197h1M228 197h1M282 197h1M319 197h1M339 197h1M363 197h1M383 197h1M420 197h1M474 197h1M511 197h1M516 197h1M570 197h1M37 198h1M89 198h1M95 198h1M147 198h2M170 198h2M223 198h1M229 198h1M281 198h1M319 198h1M339 198h2M362 198h2M383 198h1M421 198h1M473 198h1M511 198h1M517 198h1M569 198h1M37 199h1M89 199h1M95 199h1M148 199h1M170 199h1M223 199h1M229 199h1M281 199h1M319 199h1M340 199h1M362 199h1M383 199h1M421 199h1M473 199h1M511 199h1M517 199h1M569 199h1M37 200h1M89 200h1M95 200h1M149 200h1M169 200h1M223 200h1M229 200h1M281 200h1M319 200h1M341 200h1M361 200h1M383 200h1M421 200h1M473 200h1M511 200h1M517 200h1M569 200h1M38 201h1M88 201h1M95 201h1M149 201h2M168 201h2M223 201h1M230 201h1M280 201h1M319 201h1M341 201h2M360 201h2M383 201h1M422 201h1M472 201h1M511 201h1M518 201h1M568 201h1M38 202h1M88 202h1M95 202h1M150 202h2M167 202h2M223 202h1M230 202h1M280 202h1M319 202h1M342 202h2M359 202h2M383 202h1M422 202h1M472 202h1M511 202h1M518 202h1M568 202h1M38 203h1M88 203h1M95 203h1M152 203h2M165 203h2M223 203h1M230 203h1M280 203h1M319 203h1M344 203h2M357 203h2M383 203h1M422 203h1M472 203h1M511 203h1M518 203h1M568 203h1M39 204h1M87 204h1M95 204h1M153 204h3M163 204h3M223 204h1M231 204h1M279 204h1M319 204h1M345 204h3M355 204h3M383 204h1M423 204h1M471 204h1M511 204h1M519 204h1M567 204h1M39 205h1M87 205h1M95 205h1M156 205h7M223 205h1M231 205h1M279 205h1M319 205h1M348 205h7M383 205h1M423 205h1M471 205h1M511 205h1M519 205h1M567 205h1M40 206h1M86 206h1M95 206h1M159 206h1M223 206h1M232 206h1M278 206h1M319 206h1M383 206h1M424 206h1M470 206h1M511 206h1M520 206h1M566 206h1M40 207h2M85 207h2M95 207h1M159 207h1M223 207h1M232 207h2M277 207h2M319 207h1M383 207h1M424 207h2M469 207h2M511 207h1M520 207h2M565 207h2M41 208h1M85 208h1M95 208h1M159 208h1M223 208h1M233 208h1M277 208h1M319 208h1M383 208h1M425 208h1M469 208h1M511 208h1M521 208h1M565 208h1M42 209h1M84 209h1M95 209h1M159 209h1M223 209h1M234 209h1M276 209h1M319 209h1M383 209h1M426 209h1M468 209h1M511 209h1M522 209h1M564 209h1M43 210h1M83 210h1M95 210h1M159 210h1M223 210h1M235 210h1M275 210h1M319 210h1M383 210h1M427 210h1M467 210h1M511 210h1M523 210h1M563 210h1M44 211h1M82 211h1M95 211h1M159 211h1M223 211h1M236 211h1M274 211h1M319 211h1M383 211h1M428 211h1M466 211h1M511 211h1M524 211h1M562 211h1M45 212h1M81 212h1M95 212h1M159 212h1M223 212h1M237 212h1M273 212h1M319 212h1M383 212h1M429 212h1M465 212h1M511 212h1M525 212h1M561 212h1M46 213h1M80 213h1M95 213h1M159 213h1M223 213h1M238 213h1M272 213h1M319 213h1M383 213h1M430 213h1M464 213h1M511 213h1M526 213h1M560 213h1M47 214h2M78 214h2M95 214h1M159 214h1M223 214h1M239 214h2M270 214h2M319 214h1M383 214h1M431 214h2M462 214h2M511 214h1M527 214h2M558 214h2M48 215h2M77 215h2M95 215h1M159 215h1M223 215h1M240 215h2M269 215h2M319 215h1M383 215h1M432 215h2M461 215h2M511 215h1M528 215h2M557 215h2M50 216h2M75 216h2M95 216h1M159 216h1M223 216h1M242 216h2M267 216h2M319 216h1M383 216h1M434 216h2M459 216h2M511 216h1M530 216h2M555 216h2M52 217h3M72 217h3M95 217h1M159 217h1M223 217h1M244 217h3M264 217h3M319 217h1M383 217h1M436 217h3M456 217h3M511 217h1M532 217h3M552 217h3M55 218h3M69 218h3M95 218h1M159 218h1M223 218h1M247 218h3M261 218h3M319 218h1M383 218h1M439 218h3M453 218h3M511 218h1M535 218h3M549 218h3M58 219h11M95 219h1M159 219h1M223 219h1M250 219h11M319 219h1M383 219h1M442 219h11M511 219h1M538 219h11M95 220h1M159 220h1M223 220h1M319 220h1M383 220h1M511 220h1M95 221h1M159 221h1M223 221h1M319 221h1M383 221h1M511 221h1M95 222h1M159 222h1M223 222h1M319 222h1M383 222h1M511 222h1M95 223h1M159 223h1M223 223h1M319 223h1M383 223h1M511 223h1M95 224h1M159 224h1M223 224h1M319 224h1M383 224h1M511 224h1M95 225h1M159 225h1M223 225h1M319 225h1M384 225h1M510 225h2M95 226h1M159 226h1M223 226h1M319 226h1M385 226h1M509 226h1M511 226h1M537 226h1M542 226h3M549 226h1M95 227h1M159 227h1M223 227h1M319 227h1M386 227h1M508 227h1M511 227h1M537 227h1M541 227h1M545 227h1M549 227h1M95 228h1M159 228h1M223 228h1M319 228h1M387 228h1M507 228h1M511 228h1M537 228h1M541 228h1M545 228h1M549 228h1M95 229h1M159 229h1M223 229h1M319 229h1M388 229h1M506 229h1M511 229h1M537 229h1M541 229h1M545 229h1M549 229h1M95 230h1M159 230h1M223 230h1M319 230h1M389 230h1M505 230h1M511 230h1M537 230h1M542 230h3M549 230h1M95 231h1M159 231h1M223 231h1M319 231h1M390 231h1M504 231h1M511 231h1M537 231h1M549 231h1M95 232h1M159 232h1M223 232h1M319 232h1M391 232h1M503 232h1M511 232h1M537 232h1M549 232h1M95 233h1M159 233h1M223 233h1M319 233h1M392 233h1M502 233h1M511 233h1M537 233h1M549 233h1M95 234h1M159 234h1M223 234h1M319 234h1M393 234h1M501 234h1M511 234h1M537 234h1M549 234h1M95 235h1M159 235h1M223 235h1M319 235h1M394 235h1M500 235h1M511 235h1M537 235h1M549 235h1M95 236h1M159 236h1M223 236h1M319 236h1M395 236h1M499 236h1M511 236h1M537 236h1M549 236h1M95 237h1M159 237h1M223 237h1M319 237h1M396 237h1M498 237h1M511 237h1M537 237h1M549 237h1M95 238h1M159 238h1M223 238h1M319 238h1M397 238h1M497 238h1M511 238h1M537 238h13M95 239h1M159 239h1M223 239h1M319 239h1M398 239h1M496 239h1M511 239h1M95 240h1M159 240h1M223 240h1M319 240h1M399 240h1M495 240h1M511 240h1M95 241h1M159 241h1M223 241h1M319 241h1M400 241h1M494 241h1M511 241h1M95 242h1M159 242h1M223 242h1M319 242h1M401 242h1M493 242h1M511 242h1M95 243h1M159 243h1M223 243h1M319 243h1M402 243h1M492 243h1M511 243h1M95 244h1M159 244h1M223 244h1M319 244h1M403 244h1M491 244h1M511 244h1M95 245h1M159 245h1M223 245h1M319 245h1M404 245h1M490 245h1M511 245h1M95 246h1M159 246h1M223 246h1M319 246h1M405 246h1M489 246h1M511 246h1M95 247h1M159 247h1M223 247h1M319 247h1M406 247h1M488 247h1M511 247h1M95 248h1M159 248h1M223 248h1M319 248h1M407 248h1M487 248h1M511 248h1M95 249h1M159 249h1M223 249h1M319 249h1M408 249h1M486 249h1M511 249h1M95 250h1M159 250h1M223 250h1M319 250h1M409 250h1M485 250h1M511 250h1M95 251h1M159 251h1M223 251h1M319 251h1M410 251h1M484 251h1M511 251h1M95 252h1M159 252h1M223 252h1M319 252h1M411 252h1M483 252h1M511 252h1M95 253h1M159 253h1M223 253h1M319 253h1M412 253h1M482 253h1M511 253h1M95 254h1M159 254h1M223 254h1M319 254h1M413 254h1M481 254h1M511 254h1M95 255h1M159 255h1M223 255h1M319 255h1M414 255h1M480 255h1M511 255h1M95 256h1M159 256h1M223 256h1M319 256h1M415 256h1M479 256h1M511 256h1M94 257h1M159 257h1M224 257h1M320 257h1M416 257h1M478 257h1M511 257h1M93 258h1M159 258h1M225 258h1M321 258h1M417 258h1M477 258h1M512 258h1M92 259h1M159 259h1M226 259h1M322 259h1M418 259h1M476 259h1M513 259h1M91 260h1M159 260h1M227 260h1M323 260h1M419 260h1M475 260h1M514 260h1M58 261h11M90 261h1M154 261h11M228 261h1M250 261h11M324 261h1M346 261h11M420 261h1M442 261h11M474 261h1M515 261h1M538 261h11M55 262h3M69 262h3M89 262h1M151 262h3M165 262h3M229 262h1M247 262h3M261 262h3M325 262h1M343 262h3M357 262h3M421 262h1M439 262h3M453 262h3M473 262h1M516 262h1M535 262h3M549 262h3M52 263h3M72 263h3M88 263h1M148 263h3M168 263h3M230 263h1M244 263h3M264 263h3M326 263h1M340 263h3M360 263h3M422 263h1M436 263h3M456 263h3M472 263h1M517 263h1M532 263h3M552 263h3M50 264h2M75 264h2M87 264h1M146 264h2M171 264h2M231 264h1M242 264h2M267 264h2M327 264h1M338 264h2M363 264h2M423 264h1M434 264h2M459 264h2M471 264h1M518 264h1M530 264h2M555 264h2M48 265h2M77 265h2M86 265h1M144 265h2M173 265h2M232 265h1M240 265h2M269 265h2M328 265h1M336 265h2M365 265h2M424 265h1M432 265h2M461 265h2M470 265h1M519 265h1M528 265h2M557 265h2M47 266h2M78 266h2M85 266h1M143 266h2M174 266h2M233 266h1M239 266h2M270 266h2M329 266h1M335 266h2M366 266h2M425 266h1M431 266h2M462 266h2M469 266h1M520 266h1M527 266h2M558 266h2M46 267h1M80 267h1M84 267h1M142 267h1M176 267h1M234 267h1M238 267h1M272 267h1M330 267h1M334 267h1M368 267h1M426 267h1M430 267h1M464 267h1M468 267h1M521 267h1M526 267h1M560 267h1M45 268h1M81 268h1M83 268h1M141 268h1M177 268h1M235 268h1M237 268h1M273 268h1M331 268h1M333 268h1M369 268h1M427 268h1M429 268h1M465 268h1M467 268h1M522 268h1M525 268h1M561 268h1M44 269h1M82 269h1M140 269h1M178 269h1M236 269h1M274 269h1M332 269h1M370 269h1M428 269h1M466 269h1M523 269h2M562 269h1M43 270h1M83 270h1M139 270h1M179 270h1M235 270h1M275 270h1M331 270h1M371 270h1M427 270h1M467 270h1M523 270h1M563 270h1M42 271h1M84 271h1M138 271h1M180 271h1M234 271h1M276 271h1M330 271h1M372 271h1M426 271h1M468 271h1M522 271h1M564 271h1M41 272h1M85 272h1M137 272h1M181 272h1M233 272h1M277 272h1M329 272h1M373 272h1M425 272h1M469 272h1M521 272h1M565 272h1M40 273h2M85 273h2M136 273h2M181 273h2M232 273h2M277 273h2M328 273h2M373 273h2M424 273h2M469 273h2M520 273h2M565 273h2M40 274h1M86 274h1M136 274h1M182 274h1M232 274h1M278 274h1M328 274h1M374 274h1M424 274h1M470 274h1M520 274h1M566 274h1M39 275h1M87 275h1M135 275h1M183 275h1M231 275h1M279 275h1M327 275h1M375 275h1M423 275h1M471 275h1M519 275h1M567 275h1M39 276h1M87 276h1M135 276h1M183 276h1M231 276h1M279 276h1M327 276h1M375 276h1M423 276h1M471 276h1M519 276h1M567 276h1M38 277h1M88 277h1M134 277h1M184 277h1M230 277h1M280 277h1M326 277h1M376 277h1M422 277h1M472 277h1M518 277h1M568 277h1M38 278h1M88 278h1M134 278h1M184 278h1M230 278h1M280 278h1M326 278h1M376 278h1M422 278h1M472 278h1M518 278h1M568 278h1M38 279h1M88 279h1M134 279h1M184 279h1M230 279h1M280 279h1M326 279h1M376 279h1M422 279h1M472 279h1M518 279h1M568 279h1M37 280h1M89 280h1M133 280h1M185 280h1M229 280h1M281 280h1M325 280h1M377 280h1M421 280h1M473 280h1M517 280h1M569 280h1M37 281h1M89 281h1M133 281h1M185 281h1M229 281h1M281 281h1M325 281h1M377 281h1M421 281h1M473 281h1M517 281h1M569 281h1M37 282h1M89 282h1M133 282h1M185 282h1M229 282h1M281 282h1M325 282h1M377 282h1M421 282h1M473 282h1M517 282h1M569 282h1M36 283h1M90 283h1M132 283h1M186 283h1M228 283h1M282 283h1M324 283h1M378 283h1M420 283h1M474 283h1M516 283h1M570 283h1M36 284h1M90 284h1M132 284h1M186 284h1M228 284h1M282 284h1M324 284h1M378 284h1M420 284h1M474 284h1M516 284h1M570 284h1M36 285h1M90 285h1M132 285h1M186 285h1M228 285h1M282 285h1M324 285h1M378 285h1M420 285h1M474 285h1M516 285h1M570 285h1M36 286h1M90 286h1M132 286h1M186 286h1M228 286h1M282 286h1M324 286h1M378 286h1M420 286h1M474 286h1M516 286h1M570 286h1M36 287h1M90 287h1M132 287h1M186 287h1M228 287h1M282 287h1M324 287h1M378 287h1M420 287h1M474 287h1M516 287h1M570 287h1M36 288h1M90 288h1M132 288h1M186 288h1M228 288h1M282 288h1M324 288h1M378 288h1M420 288h1M474 288h1M516 288h1M570 288h1M36 289h1M90 289h1M132 289h1M186 289h1M228 289h1M282 289h1M324 289h1M378 289h1M420 289h1M474 289h1M516 289h1M570 289h1M36 290h1M90 290h1M132 290h1M186 290h1M228 290h1M282 290h1M324 290h1M378 290h1M420 290h1M474 290h1M516 290h1M570 290h1M36 291h1M90 291h1M132 291h1M186 291h1M228 291h1M282 291h1M324 291h1M378 291h1M420 291h1M474 291h1M516 291h1M570 291h1M36 292h1M90 292h1M132 292h1M186 292h1M228 292h1M282 292h1M324 292h1M378 292h1M420 292h1M474 292h1M516 292h1M570 292h1M36 293h1M90 293h1M132 293h1M186 293h1M228 293h1M282 293h1M324 293h1M378 293h1M420 293h1M474 293h1M516 293h1M570 293h1M37 294h1M89 294h1M133 294h1M185 294h1M229 294h1M281 294h1M325 294h1M377 294h1M421 294h1M473 294h1M517 294h1M569 294h1M37 295h1M89 295h1M133 295h1M185 295h1M229 295h1M281 295h1M325 295h1M377 295h1M421 295h1M473 295h1M517 295h1M569 295h1M37 296h1M89 296h1M133 296h1M185 296h1M229 296h1M281 296h1M325 296h1M377 296h1M421 296h1M473 296h1M517 296h1M569 296h1M38 297h1M88 297h1M134 297h1M184 297h1M230 297h1M280 297h1M326 297h1M376 297h1M422 297h1M472 297h1M518 297h1M568 297h1M38 298h1M88 298h1M134 298h1M184 298h1M230 298h1M280 298h1M326 298h1M376 298h1M422 298h1M472 298h1M518 298h1M568 298h1M38 299h1M88 299h1M134 299h1M184 299h1M230 299h1M280 299h1M326 299h1M376 299h1M422 299h1M472 299h1M518 299h1M568 299h1M39 300h1M87 300h1M135 300h1M183 300h1M231 300h1M279 300h1M327 300h1M375 300h1M423 300h1M471 300h1M519 300h1M567 300h1M39 301h1M87 301h1M135 301h1M183 301h1M231 301h1M279 301h1M327 301h1M375 301h1M423 301h1M471 301h1M519 301h1M567 301h1M40 302h1M86 302h1M136 302h1M182 302h1M232 302h1M278 302h1M328 302h1M374 302h1M424 302h1M470 302h1M520 302h1M566 302h1M40 303h2M85 303h2M136 303h2M181 303h2M232 303h2M277 303h2M328 303h2M373 303h2M424 303h2M469 303h2M520 303h2M565 303h2M41 304h1M85 304h1M137 304h1M181 304h1M233 304h1M277 304h1M329 304h1M373 304h1M425 304h1M469 304h1M521 304h1M565 304h1M42 305h1M84 305h1M138 305h1M180 305h1M234 305h1M276 305h1M330 305h1M372 305h1M426 305h1M468 305h1M522 305h1M564 305h1M43 306h1M83 306h1M139 306h1M179 306h1M235 306h1M275 306h1M331 306h1M371 306h1M427 306h1M467 306h1M523 306h1M563 306h1M44 307h1M82 307h1M140 307h1M178 307h1M236 307h1M274 307h1M332 307h1M370 307h1M428 307h1M466 307h1M524 307h1M562 307h1M45 308h1M81 308h1M141 308h1M177 308h1M237 308h1M273 308h1M333 308h1M369 308h1M429 308h1M465 308h1M525 308h1M561 308h1M46 309h1M80 309h1M142 309h1M176 309h1M238 309h1M272 309h1M334 309h1M368 309h1M430 309h1M464 309h1M526 309h1M560 309h1M47 310h2M78 310h2M143 310h2M174 310h2M239 310h2M270 310h2M335 310h2M366 310h2M431 310h2M462 310h2M527 310h2M558 310h2M48 311h2M77 311h2M144 311h2M173 311h2M240 311h2M269 311h2M336 311h2M365 311h2M432 311h2M461 311h2M528 311h2M557 311h2M50 312h2M75 312h2M146 312h2M171 312h2M242 312h2M267 312h2M338 312h2M363 312h2M434 312h2M459 312h2M530 312h2M555 312h2M52 313h3M72 313h3M148 313h3M168 313h3M244 313h3M264 313h3M340 313h3M360 313h3M436 313h3M456 313h3M532 313h3M552 313h3M55 314h3M69 314h3M151 314h3M165 314h3M247 314h3M261 314h3M343 314h3M357 314h3M439 314h3M453 314h3M535 314h3M549 314h3M58 315h11M154 315h11M250 315h11M346 315h11M442 315h11M538 315h11M57 322h1M62 322h3M69 322h1M153 322h1M162 322h3M345 322h12M537 322h1M545 322h3M57 323h1M61 323h1M65 323h1M69 323h1M153 323h1M161 323h1M165 323h1M537 323h1M544 323h1M548 323h1M57 324h1M61 324h1M65 324h1M69 324h1M153 324h1M161 324h1M165 324h1M537 324h1M544 324h1M548 324h1M57 325h1M61 325h1M65 325h1M69 325h1M153 325h1M161 325h1M165 325h1M345 325h12M537 325h1M544 325h1M548 325h1M57 326h1M62 326h3M69 326h1M153 326h1M162 326h3M356 326h1M537 326h1M545 326h3M57 327h1M69 327h1M153 327h1M356 327h1M537 327h1M57 328h1M69 328h1M153 328h1M356 328h1M537 328h1M57 329h1M69 329h1M153 329h1M356 329h1M537 329h1M57 330h1M69 330h1M153 330h1M356 330h1M537 330h1M57 331h1M69 331h1M153 331h1M345 331h12M537 331h1M57 332h1M69 332h1M153 332h1M537 332h1M57 333h1M69 333h1M153 333h1M537 333h1M57 334h13M153 334h13M345 334h12M537 334h12" />
</svg>