<svg xmlns="http://www.w3.org/2000/svg" viewBox="0 -0.5 300 200" shape-rendering="crispEdges">
<metadata>Made with Pixels to Svg https://codepen.io/shshaw/pen/XbxvNj</metadata>
<path stroke="#ffffff" d="M0 0h1M2 0h1M4 0h1M6 0h1M8 0h1M10 0h1M12 0h1M14 0h1M16 0h1M18 0h1M20 0h1M22 0h1M24 0h1M26 0h1M28 0h1M30 0h1M32 0h1M34 0h1M36 0h1M38 0h1M40 0h1M42 0h1M44 0h1M46 0h1M48 0h1M50 0h1M52 0h1M54 0h1M56 0h1M58 0h1M60 0h1M62 0h1M64 0h1M66 0h1M68 0h1M70 0h1M76 0h1M78 0h1M80 0h1M82 0h1M84 0h1M86 0h1M88 0h1M90 0h1M92 0h1M94 0h1M96 0h1M98 0h1M100 0h1M102 0h1M104 0h1M106 0h1M108 0h1M110 0h1M112 0h1M114 0h1M116 0h1M118 0h1M120 0h1M122 0h1M124 0h1M126 0h1M128 0h1M130 0h1M132 0h1M134 0h1M136 0h1M138 0h1M140 0h1M142 0h1M144 0h1M146 0h1M153 0h1M155 0h1M157 0h1M159 0h1M161 0h1M163 0h1M165 0h1M167 0h1M169 0h1M171 0h1M173 0h1M175 0h1M177 0h1M179 0h1M181 0h1M183 0h1M185 0h1M187 0h1M189 0h1M191 0h1M193 0h1M195 0h1M197 0h1M199 0h1M201 0h1M203 0h1M205 0h1M207 0h1M209 0h1M211 0h1M213 0h1M215 0h1M217 0h1M219 0h1M221 0h1M223 0h1M229 0h1M231 0h1M233 0h1M235 0h1M237 0h1M239 0h1M241 0h1M243 0h1M245 0h1M247 0h1M249 0h1M251 0h1M253 0h1M255 0h1M257 0h1M259 0h1M261 0h1M263 0h1M265 0h1M267 0h1M269 0h1M271 0h1M273 0h1M275 0h1M277 0h1M279 0h1M281 0h1M283 0h1M285 0h1M287 0h1M289 0h1M291 0h1M293 0h1M295 0h1M297 0h1M299 0h1M0 2h1M2 2h1M4 2h1M6 2h1M8 2h1M10 2h1M12 2h1M14 2h1M16 2h1M18 2h1M20 2h1M22 2h1M24 2h1M26 2h1M28 2h1M30 2h1M32 2h1M34 2h1M36 2h1M38 2h1M40 2h1M42 2h1M44 2h1M46 2h1M48 2h1M50 2h1M52 2h1M54 2h1M56 2h1M58 2h1M60 2h1M62 2h1M64 2h1M66 2h1M68 2h1M70 2h1M76 2h1M78 2h1M80 2h1M82 2h1M84 2h1M86 2h1M88 2h1M90 2h1M92 2h1M94 2h1M96 2h1M98 2h1M100 2h1M102 2h1M104 2h1M106 2h1M108 2h1M110 2h1M112 2h1M114 2h1M116 2h1M118 2h1M120 2h1M122 2h1M124 2h1M126 2h1M128 2h1M130 2h1M132 2h1M134 2h1M136 2h1M138 2h1M140 2h1M142 2h1M144 2h1M146 2h1M153 2h1M155 2h1M157 2h1M159 2h1M161 2h1M163 2h1M165 2h1M167 2h1M169 2h1M171 2h1M173 2h1M175 2h1M177 2h1M179 2h1M181 2h1M183 2h1M185 2h1M187 2h1M189 2h1M191 2h1M193 2h1M195 2h1M197 2h1M199 2h1M201 2h1M203 2h1M205 2h1M207 2h1M209 2h1M211 2h1M213 2h1M215 2h1M217 2h1M219 2h1M221 2h1M223 2h1M229 2h1M231 2h1M233 2h1M235 2h1M237 2h1M239 2h1M241 2h1M243 2h1M245 2h1M247 2h1M249 2h1M251 2h1M253 2h1M255 2h1M257 2h1M259 2h1M261 2h1M263 2h1M265 2h1M267 2h1M269 2h1M271 2h1M273 2h1M275 2h1M277 2h1M279 2h1M281 2h1M283 2h1M285 2h1M287 2h1M289 2h1M291 2h1M293 2h1M295 2h1M297 2h1M299 2h1M0 4h1M2 4h1M4 4h1M6 4h1M8 4h1M10 4h1M12 4h1M14 4h1M16 4h1M18 4h1M20 4h1M22 4h1M24 4h1M26 4h1M28 4h1M46 4h1M48 4h1M50 4h1M52 4h1M54 4h1M56 4h1M58 4h1M60 4h1M62 4h1M64 4h1M66 4h1M68 4h1M70 4h1M76 4h1M78 4h1M80 4h1M82 4h1M84 4h1M86 4h1M88 4h1M102 4h1M104 4h1M106 4h1M108 4h1M110 4h1M112 4h1M114 4h1M116 4h1M118 4h1M120 4h1M134 4h1M136 4h1M138 4h1M140 4h1M142 4h1M144 4h1M146 4h1M153 4h1M155 4h1M157 4h1M159 4h1M161 4h1M163 4h1M165 4h1M167 4h1M169 4h1M171 4h1M205 4h1M207 4h1M209 4h1M211 4h1M213 4h1M215 4h1M217 4h1M219 4h1M221 4h1M223 4h1M229 4h1M231 4h1M233 4h1M235 4h1M237 4h1M239 4h1M241 4h1M263 4h1M265 4h1M267 4h1M269 4h1M271 4h1M273 4h1M275 4h1M277 4h1M279 4h1M281 4h1M283 4h1M285 4h1M287 4h1M289 4h1M291 4h1M293 4h1M295 4h1M297 4h1M299 4h1M0 6h1M2 6h1M4 6h1M6 6h1M8 6h1M10 6h1M12 6h1M14 6h1M16 6h1M18 6h1M20 6h1M22 6h1M50 6h1M52 6h1M54 6h1M56 6h1M58 6h1M60 6h1M62 6h1M64 6h1M66 6h1M68 6h1M70 6h1M76 6h1M78 6h1M80 6h1M82 6h1M84 6h1M86 6h1M88 6h1M102 6h1M104 6h1M106 6h1M108 6h1M110 6h1M112 6h1M114 6h1M116 6h1M118 6h1M120 6h1M134 6h1M136 6h1M138 6h1M140 6h1M142 6h1M144 6h1M146 6h1M153 6h1M155 6h1M157 6h1M159 6h1M161 6h1M163 6h1M165 6h1M167 6h1M169 6h1M171 6h1M205 6h1M207 6h1M209 6h1M211 6h1M213 6h1M215 6h1M217 6h1M219 6h1M221 6h1M223 6h1M229 6h1M231 6h1M233 6h1M235 6h1M237 6h1M239 6h1M241 6h1M269 6h1M271 6h1M273 6h1M275 6h1M277 6h1M279 6h1M281 6h1M283 6h1M285 6h1M287 6h1M289 6h1M291 6h1M293 6h1M295 6h1M297 6h1M299 6h1M0 8h1M2 8h1M4 8h1M6 8h1M8 8h1M10 8h1M12 8h1M14 8h1M16 8h1M18 8h1M20 8h1M52 8h1M54 8h1M56 8h1M58 8h1M60 8h1M62 8h1M64 8h1M66 8h1M68 8h1M70 8h1M76 8h1M78 8h1M80 8h1M82 8h1M84 8h1M86 8h1M88 8h1M104 8h1M106 8h1M108 8h1M110 8h1M112 8h1M114 8h1M116 8h1M118 8h1M120 8h1M134 8h1M136 8h1M138 8h1M140 8h1M142 8h1M144 8h1M146 8h1M153 8h1M155 8h1M157 8h1M159 8h1M161 8h1M163 8h1M165 8h1M167 8h1M169 8h1M171 8h1M205 8h1M207 8h1M209 8h1M211 8h1M213 8h1M215 8h1M217 8h1M219 8h1M221 8h1M223 8h1M229 8h1M231 8h1M233 8h1M235 8h1M237 8h1M239 8h1M241 8h1M273 8h1M275 8h1M277 8h1M279 8h1M281 8h1M283 8h1M285 8h1M287 8h1M289 8h1M291 8h1M293 8h1M295 8h1M297 8h1M299 8h1M0 10h1M2 10h1M4 10h1M6 10h1M8 10h1M10 10h1M12 10h1M14 10h1M16 10h1M18 10h1M52 10h1M54 10h1M56 10h1M58 10h1M60 10h1M62 10h1M64 10h1M66 10h1M68 10h1M70 10h1M76 10h1M78 10h1M80 10h1M82 10h1M84 10h1M86 10h1M88 10h1M104 10h1M106 10h1M108 10h1M110 10h1M112 10h1M114 10h1M116 10h1M118 10h1M120 10h1M134 10h1M136 10h1M138 10h1M140 10h1M142 10h1M144 10h1M146 10h1M153 10h1M155 10h1M157 10h1M159 10h1M161 10h1M163 10h1M165 10h1M167 10h1M169 10h1M171 10h1M205 10h1M207 10h1M209 10h1M211 10h1M213 10h1M215 10h1M217 10h1M219 10h1M221 10h1M223 10h1M229 10h1M231 10h1M233 10h1M235 10h1M237 10h1M239 10h1M241 10h1M275 10h1M277 10h1M279 10h1M281 10h1M283 10h1M285 10h1M287 10h1M289 10h1M291 10h1M293 10h1M295 10h1M297 10h1M299 10h1M0 12h1M2 12h1M4 12h1M6 12h1M8 12h1M10 12h1M12 12h1M14 12h1M16 12h1M52 12h1M54 12h1M56 12h1M58 12h1M60 12h1M62 12h1M64 12h1M66 12h1M68 12h1M70 12h1M76 12h1M78 12h1M80 12h1M82 12h1M84 12h1M86 12h1M88 12h1M106 12h1M108 12h1M110 12h1M112 12h1M114 12h1M116 12h1M118 12h1M120 12h1M134 12h1M136 12h1M138 12h1M140 12h1M142 12h1M144 12h1M146 12h1M153 12h1M155 12h1M157 12h1M159 12h1M161 12h1M163 12h1M165 12h1M167 12h1M169 12h1M171 12h1M205 12h1M207 12h1M209 12h1M211 12h1M213 12h1M215 12h1M217 12h1M219 12h1M221 12h1M223 12h1M229 12h1M231 12h1M233 12h1M235 12h1M237 12h1M239 12h1M241 12h1M277 12h1M279 12h1M281 12h1M283 12h1M285 12h1M287 12h1M289 12h1M291 12h1M293 12h1M295 12h1M297 12h1M299 12h1M0 14h1M2 14h1M4 14h1M6 14h1M8 14h1M10 14h1M12 14h1M14 14h1M16 14h1M32 14h1M34 14h1M36 14h1M38 14h1M40 14h1M42 14h1M52 14h1M54 14h1M56 14h1M58 14h1M60 14h1M62 14h1M64 14h1M66 14h1M68 14h1M70 14h1M76 14h1M78 14h1M80 14h1M82 14h1M84 14h1M86 14h1M88 14h1M106 14h1M108 14h1M110 14h1M112 14h1M114 14h1M116 14h1M118 14h1M120 14h1M134 14h1M136 14h1M138 14h1M140 14h1M142 14h1M144 14h1M146 14h1M153 14h1M155 14h1M157 14h1M159 14h1M161 14h1M163 14h1M165 14h1M167 14h1M169 14h1M171 14h1M173 14h1M175 14h1M177 14h1M179 14h1M181 14h1M195 14h1M197 14h1M199 14h1M201 14h1M203 14h1M205 14h1M207 14h1M209 14h1M211 14h1M213 14h1M215 14h1M217 14h1M219 14h1M221 14h1M223 14h1M229 14h1M231 14h1M233 14h1M235 14h1M237 14h1M239 14h1M241 14h1M255 14h1M257 14h1M259 14h1M261 14h1M279 14h1M281 14h1M283 14h1M285 14h1M287 14h1M289 14h1M291 14h1M293 14h1M295 14h1M297 14h1M299 14h1M0 16h1M2 16h1M4 16h1M6 16h1M8 16h1M10 16h1M12 16h1M14 16h1M30 16h1M32 16h1M34 16h1M36 16h1M38 16h1M40 16h1M42 16h1M44 16h1M46 16h1M52 16h1M54 16h1M56 16h1M58 16h1M60 16h1M62 16h1M64 16h1M66 16h1M68 16h1M70 16h1M76 16h1M78 16h1M80 16h1M82 16h1M84 16h1M86 16h1M88 16h1M108 16h1M110 16h1M112 16h1M114 16h1M116 16h1M118 16h1M120 16h1M134 16h1M136 16h1M138 16h1M140 16h1M142 16h1M144 16h1M146 16h1M153 16h1M155 16h1M157 16h1M159 16h1M161 16h1M163 16h1M165 16h1M167 16h1M169 16h1M171 16h1M173 16h1M175 16h1M177 16h1M179 16h1M181 16h1M195 16h1M197 16h1M199 16h1M201 16h1M203 16h1M205 16h1M207 16h1M209 16h1M211 16h1M213 16h1M215 16h1M217 16h1M219 16h1M221 16h1M223 16h1M229 16h1M231 16h1M233 16h1M235 16h1M237 16h1M239 16h1M241 16h1M255 16h1M257 16h1M259 16h1M261 16h1M263 16h1M265 16h1M281 16h1M283 16h1M285 16h1M287 16h1M289 16h1M291 16h1M293 16h1M295 16h1M297 16h1M299 16h1M0 18h1M2 18h1M4 18h1M6 18h1M8 18h1M10 18h1M12 18h1M14 18h1M28 18h1M30 18h1M32 18h1M34 18h1M36 18h1M38 18h1M40 18h1M42 18h1M44 18h1M46 18h1M48 18h1M50 18h1M52 18h1M54 18h1M56 18h1M58 18h1M60 18h1M62 18h1M64 18h1M66 18h1M68 18h1M70 18h1M76 18h1M78 18h1M80 18h1M82 18h1M84 18h1M86 18h1M88 18h1M108 18h1M110 18h1M112 18h1M114 18h1M116 18h1M118 18h1M120 18h1M134 18h1M136 18h1M138 18h1M140 18h1M142 18h1M144 18h1M146 18h1M153 18h1M155 18h1M157 18h1M159 18h1M161 18h1M163 18h1M165 18h1M167 18h1M169 18h1M171 18h1M173 18h1M175 18h1M177 18h1M179 18h1M181 18h1M195 18h1M197 18h1M199 18h1M201 18h1M203 18h1M205 18h1M207 18h1M209 18h1M211 18h1M213 18h1M215 18h1M217 18h1M219 18h1M221 18h1M223 18h1M229 18h1M231 18h1M233 18h1M235 18h1M237 18h1M239 18h1M241 18h1M255 18h1M257 18h1M259 18h1M261 18h1M263 18h1M265 18h1M267 18h1M281 18h1M283 18h1M285 18h1M287 18h1M289 18h1M291 18h1M293 18h1M295 18h1M297 18h1M299 18h1M0 20h1M2 20h1M4 20h1M6 20h1M8 20h1M10 20h1M12 20h1M14 20h1M28 20h1M30 20h1M32 20h1M34 20h1M36 20h1M38 20h1M40 20h1M42 20h1M44 20h1M46 20h1M48 20h1M50 20h1M52 20h1M54 20h1M56 20h1M58 20h1M60 20h1M62 20h1M64 20h1M66 20h1M68 20h1M70 20h1M76 20h1M78 20h1M80 20h1M82 20h1M84 20h1M86 20h1M88 20h1M110 20h1M112 20h1M114 20h1M116 20h1M118 20h1M120 20h1M134 20h1M136 20h1M138 20h1M140 20h1M142 20h1M144 20h1M146 20h1M153 20h1M155 20h1M157 20h1M159 20h1M161 20h1M163 20h1M165 20h1M167 20h1M169 20h1M171 20h1M173 20h1M175 20h1M177 20h1M179 20h1M181 20h1M195 20h1M197 20h1M199 20h1M201 20h1M203 20h1M205 20h1M207 20h1M209 20h1M211 20h1M213 20h1M215 20h1M217 20h1M219 20h1M221 20h1M223 20h1M229 20h1M231 20h1M233 20h1M235 20h1M237 20h1M239 20h1M241 20h1M255 20h1M257 20h1M259 20h1M261 20h1M263 20h1M265 20h1M267 20h1M269 20h1M283 20h1M285 20h1M287 20h1M289 20h1M291 20h1M293 20h1M295 20h1M297 20h1M299 20h1M16 22h1M20 22h1M24 22h1M28 22h1M76 22h1M78 22h1M80 22h1M82 22h1M84 22h1M86 22h1M88 22h1M98 22h1M102 22h1M106 22h1M122 22h1M134 22h1M136 22h1M138 22h1M140 22h1M142 22h1M144 22h1M146 22h1M183 22h1M187 22h1M191 22h1M243 22h1M247 22h1M251 22h1M273 22h1M277 22h1M283 22h1M285 22h1M287 22h1M289 22h1M291 22h1M293 22h1M295 22h1M297 22h1M299 22h1M18 24h1M22 24h1M26 24h1M30 24h1M76 24h1M78 24h1M80 24h1M82 24h1M84 24h1M86 24h1M88 24h1M100 24h1M104 24h1M108 24h1M124 24h1M134 24h1M136 24h1M138 24h1M140 24h1M142 24h1M144 24h1M146 24h1M185 24h1M189 24h1M193 24h1M245 24h1M249 24h1M253 24h1M275 24h1M285 24h1M287 24h1M289 24h1M291 24h1M293 24h1M295 24h1M297 24h1M299 24h1M0 26h1M2 26h1M4 26h1M6 26h1M8 26h1M10 26h1M12 26h1M14 26h1M16 26h1M32 26h1M34 26h1M36 26h1M38 26h1M40 26h1M42 26h1M44 26h1M46 26h1M48 26h1M50 26h1M52 26h1M54 26h1M56 26h1M58 26h1M60 26h1M62 26h1M64 26h1M66 26h1M68 26h1M70 26h1M76 26h1M78 26h1M80 26h1M82 26h1M84 26h1M86 26h1M88 26h1M98 26h1M102 26h1M106 26h1M110 26h1M122 26h1M134 26h1M136 26h1M138 26h1M140 26h1M142 26h1M144 26h1M146 26h1M183 26h1M187 26h1M191 26h1M243 26h1M247 26h1M251 26h1M273 26h1M277 26h1M285 26h1M287 26h1M289 26h1M291 26h1M293 26h1M295 26h1M297 26h1M299 26h1M0 28h1M2 28h1M4 28h1M6 28h1M8 28h1M10 28h1M12 28h1M14 28h1M16 28h1M18 28h1M36 28h1M38 28h1M40 28h1M42 28h1M44 28h1M46 28h1M48 28h1M50 28h1M52 28h1M54 28h1M56 28h1M58 28h1M60 28h1M62 28h1M64 28h1M66 28h1M68 28h1M70 28h1M76 28h1M78 28h1M80 28h1M82 28h1M84 28h1M86 28h1M88 28h1M100 28h1M104 28h1M108 28h1M112 28h1M124 28h1M134 28h1M136 28h1M138 28h1M140 28h1M142 28h1M144 28h1M146 28h1M185 28h1M189 28h1M193 28h1M245 28h1M249 28h1M253 28h1M275 28h1M285 28h1M287 28h1M289 28h1M291 28h1M293 28h1M295 28h1M297 28h1M299 28h1M0 30h1M2 30h1M4 30h1M6 30h1M8 30h1M10 30h1M12 30h1M14 30h1M16 30h1M18 30h1M20 30h1M40 30h1M42 30h1M44 30h1M46 30h1M48 30h1M50 30h1M52 30h1M54 30h1M56 30h1M58 30h1M60 30h1M62 30h1M64 30h1M66 30h1M68 30h1M70 30h1M76 30h1M78 30h1M80 30h1M82 30h1M84 30h1M86 30h1M88 30h1M98 30h1M106 30h1M110 30h1M114 30h1M122 30h1M134 30h1M136 30h1M138 30h1M140 30h1M142 30h1M144 30h1M146 30h1M183 30h1M187 30h1M191 30h1M243 30h1M247 30h1M251 30h1M277 30h1M287 30h1M289 30h1M291 30h1M293 30h1M295 30h1M297 30h1M299 30h1M0 32h1M2 32h1M4 32h1M6 32h1M8 32h1M10 32h1M12 32h1M14 32h1M16 32h1M18 32h1M20 32h1M22 32h1M44 32h1M46 32h1M48 32h1M50 32h1M52 32h1M54 32h1M56 32h1M58 32h1M60 32h1M62 32h1M64 32h1M66 32h1M68 32h1M70 32h1M76 32h1M78 32h1M80 32h1M82 32h1M84 32h1M86 32h1M88 32h1M100 32h1M108 32h1M112 32h1M124 32h1M134 32h1M136 32h1M138 32h1M140 32h1M142 32h1M144 32h1M146 32h1M185 32h1M189 32h1M193 32h1M245 32h1M249 32h1M253 32h1M275 32h1M287 32h1M289 32h1M291 32h1M293 32h1M295 32h1M297 32h1M299 32h1M0 34h1M2 34h1M4 34h1M6 34h1M8 34h1M10 34h1M12 34h1M14 34h1M16 34h1M18 34h1M20 34h1M22 34h1M24 34h1M46 34h1M48 34h1M50 34h1M52 34h1M54 34h1M56 34h1M58 34h1M60 34h1M62 34h1M64 34h1M66 34h1M68 34h1M70 34h1M76 34h1M78 34h1M80 34h1M82 34h1M84 34h1M86 34h1M88 34h1M98 34h1M106 34h1M110 34h1M114 34h1M122 34h1M134 34h1M136 34h1M138 34h1M140 34h1M142 34h1M144 34h1M146 34h1M183 34h1M187 34h1M191 34h1M243 34h1M247 34h1M251 34h1M277 34h1M287 34h1M289 34h1M291 34h1M293 34h1M295 34h1M297 34h1M299 34h1M0 36h1M2 36h1M4 36h1M6 36h1M8 36h1M10 36h1M12 36h1M14 36h1M16 36h1M18 36h1M20 36h1M22 36h1M24 36h1M26 36h1M28 36h1M48 36h1M50 36h1M52 36h1M54 36h1M56 36h1M58 36h1M60 36h1M62 36h1M64 36h1M66 36h1M68 36h1M70 36h1M76 36h1M78 36h1M80 36h1M82 36h1M84 36h1M86 36h1M88 36h1M100 36h1M108 36h1M112 36h1M116 36h1M124 36h1M134 36h1M136 36h1M138 36h1M140 36h1M142 36h1M144 36h1M146 36h1M185 36h1M189 36h1M193 36h1M245 36h1M249 36h1M253 36h1M275 36h1M287 36h1M289 36h1M291 36h1M293 36h1M295 36h1M297 36h1M299 36h1M0 38h1M2 38h1M4 38h1M6 38h1M8 38h1M10 38h1M12 38h1M14 38h1M16 38h1M18 38h1M20 38h1M22 38h1M24 38h1M26 38h1M28 38h1M30 38h1M32 38h1M50 38h1M52 38h1M54 38h1M56 38h1M58 38h1M60 38h1M62 38h1M64 38h1M66 38h1M68 38h1M70 38h1M76 38h1M78 38h1M80 38h1M82 38h1M84 38h1M86 38h1M88 38h1M98 38h1M110 38h1M114 38h1M118 38h1M122 38h1M134 38h1M136 38h1M138 38h1M140 38h1M142 38h1M144 38h1M146 38h1M183 38h1M187 38h1M191 38h1M243 38h1M247 38h1M251 38h1M277 38h1M287 38h1M289 38h1M291 38h1M293 38h1M295 38h1M297 38h1M299 38h1M0 40h1M2 40h1M4 40h1M6 40h1M8 40h1M10 40h1M12 40h1M14 40h1M16 40h1M18 40h1M20 40h1M22 40h1M24 40h1M26 40h1M28 40h1M30 40h1M32 40h1M34 40h1M36 40h1M52 40h1M54 40h1M56 40h1M58 40h1M60 40h1M62 40h1M64 40h1M66 40h1M68 40h1M70 40h1M76 40h1M78 40h1M80 40h1M82 40h1M84 40h1M86 40h1M88 40h1M100 40h1M108 40h1M112 40h1M116 40h1M124 40h1M134 40h1M136 40h1M138 40h1M140 40h1M142 40h1M144 40h1M146 40h1M185 40h1M189 40h1M193 40h1M245 40h1M249 40h1M253 40h1M275 40h1M285 40h1M287 40h1M289 40h1M291 40h1M293 40h1M295 40h1M297 40h1M299 40h1M0 42h1M2 42h1M4 42h1M6 42h1M8 42h1M10 42h1M12 42h1M14 42h1M16 42h1M18 42h1M20 42h1M22 42h1M24 42h1M26 42h1M28 42h1M30 42h1M32 42h1M34 42h1M36 42h1M38 42h1M52 42h1M54 42h1M56 42h1M58 42h1M60 42h1M62 42h1M64 42h1M66 42h1M68 42h1M70 42h1M76 42h1M78 42h1M80 42h1M82 42h1M84 42h1M86 42h1M88 42h1M98 42h1M110 42h1M114 42h1M118 42h1M122 42h1M134 42h1M136 42h1M138 42h1M140 42h1M142 42h1M144 42h1M146 42h1M183 42h1M187 42h1M191 42h1M243 42h1M247 42h1M251 42h1M277 42h1M285 42h1M287 42h1M289 42h1M291 42h1M293 42h1M295 42h1M297 42h1M299 42h1M0 44h1M2 44h1M4 44h1M6 44h1M8 44h1M10 44h1M12 44h1M14 44h1M16 44h1M18 44h1M20 44h1M22 44h1M24 44h1M26 44h1M28 44h1M30 44h1M32 44h1M34 44h1M36 44h1M38 44h1M40 44h1M54 44h1M56 44h1M58 44h1M60 44h1M62 44h1M64 44h1M66 44h1M68 44h1M70 44h1M76 44h1M78 44h1M80 44h1M82 44h1M84 44h1M86 44h1M88 44h1M100 44h1M112 44h1M116 44h1M120 44h1M124 44h1M134 44h1M136 44h1M138 44h1M140 44h1M142 44h1M144 44h1M146 44h1M185 44h1M189 44h1M193 44h1M245 44h1M249 44h1M253 44h1M275 44h1M285 44h1M287 44h1M289 44h1M291 44h1M293 44h1M295 44h1M297 44h1M299 44h1M42 46h1M46 46h1M54 46h1M56 46h1M58 46h1M60 46h1M62 46h1M64 46h1M66 46h1M68 46h1M70 46h1M76 46h1M78 46h1M80 46h1M82 46h1M84 46h1M86 46h1M88 46h1M98 46h1M114 46h1M118 46h1M122 46h1M134 46h1M136 46h1M138 46h1M140 46h1M142 46h1M144 46h1M146 46h1M183 46h1M187 46h1M191 46h1M243 46h1M247 46h1M251 46h1M273 46h1M277 46h1M285 46h1M287 46h1M289 46h1M291 46h1M293 46h1M295 46h1M297 46h1M299 46h1M44 48h1M48 48h1M54 48h1M56 48h1M58 48h1M60 48h1M62 48h1M64 48h1M66 48h1M68 48h1M70 48h1M76 48h1M78 48h1M80 48h1M82 48h1M84 48h1M86 48h1M88 48h1M100 48h1M112 48h1M116 48h1M120 48h1M124 48h1M134 48h1M136 48h1M138 48h1M140 48h1M142 48h1M144 48h1M146 48h1M185 48h1M189 48h1M193 48h1M245 48h1M249 48h1M253 48h1M275 48h1M283 48h1M285 48h1M287 48h1M289 48h1M291 48h1M293 48h1M295 48h1M297 48h1M299 48h1M0 50h1M2 50h1M4 50h1M6 50h1M8 50h1M10 50h1M12 50h1M14 50h1M16 50h1M18 50h1M20 50h1M22 50h1M24 50h1M26 50h1M28 50h1M30 50h1M32 50h1M34 50h1M36 50h1M38 50h1M40 50h1M54 50h1M56 50h1M58 50h1M60 50h1M62 50h1M64 50h1M66 50h1M68 50h1M70 50h1M76 50h1M78 50h1M80 50h1M82 50h1M84 50h1M86 50h1M88 50h1M98 50h1M114 50h1M118 50h1M122 50h1M134 50h1M136 50h1M138 50h1M140 50h1M142 50h1M144 50h1M146 50h1M153 50h1M155 50h1M157 50h1M159 50h1M161 50h1M163 50h1M165 50h1M167 50h1M169 50h1M171 50h1M173 50h1M175 50h1M177 50h1M179 50h1M181 50h1M195 50h1M197 50h1M199 50h1M201 50h1M203 50h1M205 50h1M207 50h1M209 50h1M211 50h1M213 50h1M215 50h1M217 50h1M219 50h1M221 50h1M223 50h1M229 50h1M231 50h1M233 50h1M235 50h1M237 50h1M239 50h1M241 50h1M255 50h1M257 50h1M259 50h1M261 50h1M263 50h1M265 50h1M267 50h1M269 50h1M283 50h1M285 50h1M287 50h1M289 50h1M291 50h1M293 50h1M295 50h1M297 50h1M299 50h1M0 52h1M2 52h1M4 52h1M6 52h1M8 52h1M10 52h1M12 52h1M14 52h1M16 52h1M18 52h1M20 52h1M22 52h1M24 52h1M26 52h1M28 52h1M30 52h1M32 52h1M34 52h1M36 52h1M38 52h1M40 52h1M54 52h1M56 52h1M58 52h1M60 52h1M62 52h1M64 52h1M66 52h1M68 52h1M70 52h1M76 52h1M78 52h1M80 52h1M82 52h1M84 52h1M86 52h1M88 52h1M100 52h1M114 52h1M116 52h1M120 52h1M124 52h1M134 52h1M136 52h1M138 52h1M140 52h1M142 52h1M144 52h1M146 52h1M153 52h1M155 52h1M157 52h1M159 52h1M161 52h1M163 52h1M165 52h1M167 52h1M169 52h1M171 52h1M173 52h1M175 52h1M177 52h1M179 52h1M181 52h1M195 52h1M197 52h1M199 52h1M201 52h1M203 52h1M205 52h1M207 52h1M209 52h1M211 52h1M213 52h1M215 52h1M217 52h1M219 52h1M221 52h1M223 52h1M229 52h1M231 52h1M233 52h1M235 52h1M237 52h1M239 52h1M241 52h1M255 52h1M257 52h1M259 52h1M261 52h1M263 52h1M265 52h1M267 52h1M281 52h1M283 52h1M285 52h1M287 52h1M289 52h1M291 52h1M293 52h1M295 52h1M297 52h1M299 52h1M0 54h1M2 54h1M4 54h1M6 54h1M8 54h1M10 54h1M12 54h1M14 54h1M20 54h1M22 54h1M24 54h1M26 54h1M28 54h1M30 54h1M32 54h1M34 54h1M36 54h1M38 54h1M40 54h1M54 54h1M56 54h1M58 54h1M60 54h1M62 54h1M64 54h1M66 54h1M68 54h1M70 54h1M76 54h1M78 54h1M80 54h1M82 54h1M84 54h1M86 54h1M88 54h1M98 54h1M118 54h1M122 54h1M134 54h1M136 54h1M138 54h1M140 54h1M142 54h1M144 54h1M146 54h1M153 54h1M155 54h1M157 54h1M159 54h1M161 54h1M163 54h1M165 54h1M167 54h1M169 54h1M171 54h1M173 54h1M175 54h1M177 54h1M179 54h1M181 54h1M195 54h1M197 54h1M199 54h1M201 54h1M203 54h1M205 54h1M207 54h1M209 54h1M211 54h1M213 54h1M215 54h1M217 54h1M219 54h1M221 54h1M223 54h1M229 54h1M231 54h1M233 54h1M235 54h1M237 54h1M239 54h1M241 54h1M255 54h1M257 54h1M259 54h1M261 54h1M263 54h1M265 54h1M281 54h1M283 54h1M285 54h1M287 54h1M289 54h1M291 54h1M293 54h1M295 54h1M297 54h1M299 54h1M0 56h1M2 56h1M4 56h1M6 56h1M8 56h1M10 56h1M12 56h1M14 56h1M24 56h1M26 56h1M28 56h1M30 56h1M32 56h1M34 56h1M36 56h1M38 56h1M54 56h1M56 56h1M58 56h1M60 56h1M62 56h1M64 56h1M66 56h1M68 56h1M70 56h1M76 56h1M78 56h1M80 56h1M82 56h1M84 56h1M86 56h1M88 56h1M100 56h1M116 56h1M120 56h1M124 56h1M134 56h1M136 56h1M138 56h1M140 56h1M142 56h1M144 56h1M146 56h1M153 56h1M155 56h1M157 56h1M159 56h1M161 56h1M163 56h1M165 56h1M167 56h1M169 56h1M171 56h1M173 56h1M175 56h1M177 56h1M179 56h1M181 56h1M195 56h1M197 56h1M199 56h1M201 56h1M203 56h1M205 56h1M207 56h1M209 56h1M211 56h1M213 56h1M215 56h1M217 56h1M219 56h1M221 56h1M223 56h1M229 56h1M231 56h1M233 56h1M235 56h1M237 56h1M239 56h1M241 56h1M255 56h1M257 56h1M259 56h1M261 56h1M279 56h1M281 56h1M283 56h1M285 56h1M287 56h1M289 56h1M291 56h1M293 56h1M295 56h1M297 56h1M299 56h1M0 58h1M2 58h1M4 58h1M6 58h1M8 58h1M10 58h1M12 58h1M14 58h1M52 58h1M54 58h1M56 58h1M58 58h1M60 58h1M62 58h1M64 58h1M66 58h1M68 58h1M70 58h1M76 58h1M78 58h1M80 58h1M82 58h1M84 58h1M86 58h1M88 58h1M98 58h1M118 58h1M122 58h1M134 58h1M136 58h1M138 58h1M140 58h1M142 58h1M144 58h1M146 58h1M153 58h1M155 58h1M157 58h1M159 58h1M161 58h1M163 58h1M165 58h1M167 58h1M169 58h1M171 58h1M205 58h1M207 58h1M209 58h1M211 58h1M213 58h1M215 58h1M217 58h1M219 58h1M221 58h1M223 58h1M229 58h1M231 58h1M233 58h1M235 58h1M237 58h1M239 58h1M241 58h1M277 58h1M279 58h1M281 58h1M283 58h1M285 58h1M287 58h1M289 58h1M291 58h1M293 58h1M295 58h1M297 58h1M299 58h1M0 60h1M2 60h1M4 60h1M6 60h1M8 60h1M10 60h1M12 60h1M14 60h1M52 60h1M54 60h1M56 60h1M58 60h1M60 60h1M62 60h1M64 60h1M66 60h1M68 60h1M70 60h1M76 60h1M78 60h1M80 60h1M82 60h1M84 60h1M86 60h1M88 60h1M100 60h1M120 60h1M124 60h1M134 60h1M136 60h1M138 60h1M140 60h1M142 60h1M144 60h1M146 60h1M153 60h1M155 60h1M157 60h1M159 60h1M161 60h1M163 60h1M165 60h1M167 60h1M169 60h1M171 60h1M205 60h1M207 60h1M209 60h1M211 60h1M213 60h1M215 60h1M217 60h1M219 60h1M221 60h1M223 60h1M229 60h1M231 60h1M233 60h1M235 60h1M237 60h1M239 60h1M241 60h1M275 60h1M277 60h1M279 60h1M281 60h1M283 60h1M285 60h1M287 60h1M289 60h1M291 60h1M293 60h1M295 60h1M297 60h1M299 60h1M0 62h1M2 62h1M4 62h1M6 62h1M8 62h1M10 62h1M12 62h1M14 62h1M50 62h1M52 62h1M54 62h1M56 62h1M58 62h1M60 62h1M62 62h1M64 62h1M66 62h1M68 62h1M70 62h1M76 62h1M78 62h1M80 62h1M82 62h1M84 62h1M86 62h1M88 62h1M98 62h1M122 62h1M134 62h1M136 62h1M138 62h1M140 62h1M142 62h1M144 62h1M146 62h1M153 62h1M155 62h1M157 62h1M159 62h1M161 62h1M163 62h1M165 62h1M167 62h1M169 62h1M171 62h1M205 62h1M207 62h1M209 62h1M211 62h1M213 62h1M215 62h1M217 62h1M219 62h1M221 62h1M223 62h1M229 62h1M231 62h1M233 62h1M235 62h1M237 62h1M239 62h1M241 62h1M273 62h1M275 62h1M277 62h1M279 62h1M281 62h1M283 62h1M285 62h1M287 62h1M289 62h1M291 62h1M293 62h1M295 62h1M297 62h1M299 62h1M0 64h1M2 64h1M4 64h1M6 64h1M8 64h1M10 64h1M12 64h1M14 64h1M16 64h1M48 64h1M50 64h1M52 64h1M54 64h1M56 64h1M58 64h1M60 64h1M62 64h1M64 64h1M66 64h1M68 64h1M70 64h1M76 64h1M78 64h1M80 64h1M82 64h1M84 64h1M86 64h1M88 64h1M100 64h1M120 64h1M124 64h1M134 64h1M136 64h1M138 64h1M140 64h1M142 64h1M144 64h1M146 64h1M153 64h1M155 64h1M157 64h1M159 64h1M161 64h1M163 64h1M165 64h1M167 64h1M169 64h1M171 64h1M205 64h1M207 64h1M209 64h1M211 64h1M213 64h1M215 64h1M217 64h1M219 64h1M221 64h1M223 64h1M229 64h1M231 64h1M233 64h1M235 64h1M237 64h1M239 64h1M241 64h1M269 64h1M271 64h1M273 64h1M275 64h1M277 64h1M279 64h1M281 64h1M283 64h1M285 64h1M287 64h1M289 64h1M291 64h1M293 64h1M295 64h1M297 64h1M299 64h1M0 66h1M2 66h1M4 66h1M6 66h1M8 66h1M10 66h1M12 66h1M14 66h1M16 66h1M18 66h1M20 66h1M42 66h1M44 66h1M46 66h1M48 66h1M50 66h1M52 66h1M54 66h1M56 66h1M58 66h1M60 66h1M62 66h1M64 66h1M66 66h1M68 66h1M70 66h1M76 66h1M78 66h1M80 66h1M82 66h1M84 66h1M86 66h1M88 66h1M98 66h1M122 66h1M134 66h1M136 66h1M138 66h1M140 66h1M142 66h1M144 66h1M146 66h1M153 66h1M155 66h1M157 66h1M159 66h1M161 66h1M163 66h1M165 66h1M167 66h1M169 66h1M171 66h1M205 66h1M207 66h1M209 66h1M211 66h1M213 66h1M215 66h1M217 66h1M219 66h1M221 66h1M223 66h1M229 66h1M231 66h1M233 66h1M235 66h1M237 66h1M239 66h1M241 66h1M263 66h1M265 66h1M267 66h1M269 66h1M271 66h1M273 66h1M275 66h1M277 66h1M279 66h1M281 66h1M283 66h1M285 66h1M287 66h1M289 66h1M291 66h1M293 66h1M295 66h1M297 66h1M299 66h1M0 68h1M2 68h1M4 68h1M6 68h1M8 68h1M10 68h1M12 68h1M14 68h1M16 68h1M18 68h1M20 68h1M22 68h1M24 68h1M26 68h1M28 68h1M30 68h1M32 68h1M34 68h1M36 68h1M38 68h1M40 68h1M42 68h1M44 68h1M46 68h1M48 68h1M50 68h1M52 68h1M54 68h1M56 68h1M58 68h1M60 68h1M62 68h1M64 68h1M66 68h1M68 68h1M70 68h1M76 68h1M78 68h1M80 68h1M82 68h1M84 68h1M86 68h1M88 68h1M90 68h1M92 68h1M94 68h1M96 68h1M126 68h1M128 68h1M130 68h1M132 68h1M134 68h1M136 68h1M138 68h1M140 68h1M142 68h1M144 68h1M146 68h1M153 68h1M155 68h1M157 68h1M159 68h1M161 68h1M163 68h1M165 68h1M167 68h1M169 68h1M171 68h1M173 68h1M175 68h1M177 68h1M179 68h1M181 68h1M183 68h1M185 68h1M187 68h1M189 68h1M191 68h1M193 68h1M195 68h1M197 68h1M199 68h1M201 68h1M203 68h1M205 68h1M207 68h1M209 68h1M211 68h1M213 68h1M215 68h1M217 68h1M219 68h1M221 68h1M223 68h1M229 68h1M231 68h1M233 68h1M235 68h1M237 68h1M239 68h1M241 68h1M243 68h1M245 68h1M247 68h1M249 68h1M251 68h1M253 68h1M255 68h1M257 68h1M259 68h1M261 68h1M263 68h1M265 68h1M267 68h1M269 68h1M271 68h1M273 68h1M275 68h1M277 68h1M279 68h1M281 68h1M283 68h1M285 68h1M287 68h1M289 68h1M291 68h1M293 68h1M295 68h1M297 68h1M299 68h1M0 70h1M2 70h1M4 70h1M6 70h1M8 70h1M10 70h1M12 70h1M14 70h1M16 70h1M18 70h1M20 70h1M22 70h1M24 70h1M26 70h1M28 70h1M30 70h1M32 70h1M34 70h1M36 70h1M38 70h1M40 70h1M42 70h1M44 70h1M46 70h1M48 70h1M50 70h1M52 70h1M54 70h1M56 70h1M58 70h1M60 70h1M62 70h1M64 70h1M66 70h1M68 70h1M70 70h1M76 70h1M78 70h1M80 70h1M82 70h1M84 70h1M86 70h1M88 70h1M90 70h1M92 70h1M94 70h1M96 70h1M126 70h1M128 70h1M130 70h1M132 70h1M134 70h1M136 70h1M138 70h1M140 70h1M142 70h1M144 70h1M146 70h1M153 70h1M155 70h1M157 70h1M159 70h1M161 70h1M163 70h1M165 70h1M167 70h1M169 70h1M171 70h1M173 70h1M175 70h1M177 70h1M179 70h1M181 70h1M183 70h1M185 70h1M187 70h1M189 70h1M191 70h1M193 70h1M195 70h1M197 70h1M199 70h1M201 70h1M203 70h1M205 70h1M207 70h1M209 70h1M211 70h1M213 70h1M215 70h1M217 70h1M219 70h1M221 70h1M223 70h1M229 70h1M231 70h1M233 70h1M235 70h1M237 70h1M239 70h1M241 70h1M243 70h1M245 70h1M247 70h1M249 70h1M251 70h1M253 70h1M255 70h1M257 70h1M259 70h1M261 70h1M263 70h1M265 70h1M267 70h1M269 70h1M271 70h1M273 70h1M275 70h1M277 70h1M279 70h1M281 70h1M283 70h1M285 70h1M287 70h1M289 70h1M291 70h1M293 70h1M295 70h1M297 70h1M299 70h1M3 83h6M18 83h9M33 83h3M42 83h3M50 83h3M59 83h3M71 83h6M86 83h6M102 83h9M117 83h8M138 83h4M151 83h3M186 83h3M195 83h3M203 83h3M212 83h3M220 83h4M228 83h4M237 83h12M253 83h10M272 83h9M291 83h6M1 85h9M18 85h9M33 85h4M42 85h3M50 85h3M59 85h3M69 85h9M84 85h10M102 85h9M117 85h11M137 85h6M151 85h3M186 85h4M195 85h3M203 85h3M212 85h3M220 85h5M227 85h5M237 85h12M253 85h12M272 85h9M288 85h11M0 87h3M8 87h3M21 87h3M33 87h5M42 87h3M50 87h3M59 87h3M68 87h3M76 87h3M83 87h3M92 87h3M105 87h3M117 87h3M125 87h4M137 87h6M151 87h3M186 87h5M195 87h3M203 87h3M212 87h3M220 87h5M227 87h5M237 87h3M253 87h3M263 87h3M275 87h3M287 87h3M297 87h3M0 89h4M21 89h3M33 89h6M42 89h3M50 89h3M59 89h3M68 89h4M82 89h3M93 89h3M105 89h3M117 89h3M126 89h4M136 89h3M141 89h3M151 89h3M186 89h6M195 89h3M203 89h3M212 89h3M220 89h12M237 89h3M253 89h3M263 89h3M275 89h3M286 89h3M2 91h6M21 91h3M33 91h3M37 91h3M42 91h3M50 91h3M59 91h3M70 91h6M82 91h3M93 91h3M105 91h3M117 91h3M127 91h3M135 91h4M141 91h4M151 91h3M186 91h3M190 91h3M195 91h3M203 91h3M212 91h3M220 91h3M224 91h4M229 91h3M237 91h12M253 91h12M275 91h3M286 91h3M5 93h5M21 93h3M33 93h3M38 93h3M42 93h3M50 93h3M59 93h3M73 93h5M82 93h3M93 93h3M105 93h3M117 93h3M127 93h3M135 93h10M151 93h3M186 93h3M191 93h3M195 93h3M203 93h3M212 93h3M220 93h3M224 93h4M229 93h3M237 93h12M253 93h8M275 93h3M286 93h3M8 95h3M21 95h3M33 95h3M39 95h6M50 95h3M59 95h3M76 95h3M82 95h3M93 95h3M105 95h3M117 95h3M126 95h4M134 95h12M151 95h3M186 95h3M192 95h6M203 95h3M212 95h3M220 95h3M229 95h3M237 95h3M253 95h3M259 95h4M275 95h3M286 95h3M0 97h3M8 97h3M21 97h3M33 97h3M40 97h5M50 97h3M59 97h3M68 97h3M76 97h3M83 97h3M92 97h3M105 97h3M117 97h3M125 97h4M133 97h3M144 97h3M151 97h3M186 97h3M193 97h5M203 97h3M212 97h3M220 97h3M229 97h3M237 97h3M253 97h3M261 97h3M275 97h3M287 97h3M297 97h3M0 99h10M18 99h9M33 99h3M41 99h4M51 99h10M68 99h10M84 99h10M102 99h9M117 99h11M133 99h3M144 99h3M151 99h12M186 99h3M194 99h4M204 99h10M220 99h3M229 99h3M237 99h12M253 99h3M262 99h4M272 99h9M288 99h11M2 101h5M18 101h9M33 101h3M42 101h3M53 101h6M70 101h5M86 101h6M102 101h9M117 101h7M132 101h3M145 101h3M151 101h12M186 101h3M195 101h3M206 101h6M220 101h3M229 101h3M237 101h12M253 101h3M264 101h3M272 101h9M291 101h6M1 111h9M16 111h3M25 111h3M37 111h6M50 111h10M67 111h12M83 111h4M91 111h4M100 111h12M117 111h3M126 111h3M133 111h15M155 111h4M167 111h3M204 111h8M221 111h12M236 111h3M249 111h3M256 111h9M275 111h6M288 111h12M1 113h9M16 113h4M25 113h3M34 113h11M50 113h12M67 113h12M83 113h5M90 113h5M100 113h12M117 113h4M126 113h3M133 113h15M154 113h6M167 113h3M204 113h11M221 113h12M237 113h3M248 113h3M256 113h9M272 113h11M288 113h12M4 115h3M16 115h5M25 115h3M33 115h3M43 115h3M50 115h3M60 115h3M67 115h3M83 115h5M90 115h5M100 115h3M117 115h5M126 115h3M139 115h3M154 115h6M167 115h3M204 115h3M212 115h4M221 115h3M237 115h4M248 115h3M259 115h3M271 115h3M281 115h3M288 115h3M4 117h3M16 117h6M25 117h3M32 117h3M50 117h3M60 117h3M67 117h3M83 117h12M100 117h3M117 117h6M126 117h3M139 117h3M153 117h3M158 117h3M167 117h3M204 117h3M213 117h4M221 117h3M238 117h3M247 117h3M259 117h3M270 117h3M288 117h3M4 119h3M16 119h3M20 119h3M25 119h3M32 119h3M50 119h12M67 119h12M83 119h3M87 119h4M92 119h3M100 119h12M117 119h3M121 119h3M126 119h3M139 119h3M152 119h4M158 119h4M167 119h3M204 119h3M214 119h3M221 119h12M239 119h3M246 119h3M259 119h3M270 119h3M288 119h12M4 121h3M16 121h3M21 121h3M25 121h3M32 121h3M50 121h8M67 121h12M83 121h3M87 121h4M92 121h3M100 121h12M117 121h3M122 121h3M126 121h3M139 121h3M152 121h10M167 121h3M204 121h3M214 121h3M221 121h12M239 121h4M245 121h4M259 121h3M270 121h3M288 121h12M4 123h3M16 123h3M22 123h6M32 123h3M50 123h3M56 123h4M67 123h3M83 123h3M92 123h3M100 123h3M117 123h3M123 123h6M139 123h3M151 123h12M167 123h3M204 123h3M213 123h4M221 123h3M240 123h3M245 123h3M259 123h3M270 123h3M288 123h3M4 125h3M16 125h3M23 125h5M33 125h3M43 125h3M50 125h3M58 125h3M67 125h3M83 125h3M92 125h3M100 125h3M117 125h3M124 125h5M139 125h3M150 125h3M161 125h3M167 125h3M204 125h3M212 125h4M221 125h3M241 125h6M259 125h3M271 125h3M281 125h3M288 125h3M1 127h9M16 127h3M24 127h4M34 127h11M50 127h3M59 127h4M67 127h12M83 127h3M92 127h3M100 127h12M117 127h3M125 127h4M139 127h3M150 127h3M161 127h3M167 127h12M204 127h11M221 127h12M242 127h5M256 127h9M272 127h11M288 127h12M1 129h9M16 129h3M25 129h3M37 129h6M50 129h3M61 129h3M67 129h12M83 129h3M92 129h3M100 129h12M117 129h3M126 129h3M139 129h3M149 129h3M162 129h3M167 129h12M204 129h7M221 129h12M242 129h4M256 129h9M275 129h6M288 129h12M0 141h300M0 142h1M299 142h1M0 143h1M299 143h1M0 144h1M299 144h1M0 145h1M299 145h1M0 146h1M299 146h1M0 147h1M299 147h1M0 148h1M299 148h1M0 149h1M299 149h1M0 150h1M299 150h1M0 151h1M299 151h1M0 152h1M11 152h3M24 152h3M39 152h4M70 152h1M75 152h1M96 152h1M131 152h2M138 152h3M158 152h2M165 152h2M187 152h2M193 152h4M214 152h2M221 152h3M228 152h2M299 152h1M0 153h1M12 153h1M24 153h1M27 153h1M38 153h1M70 153h1M96 153h1M124 153h1M131 153h1M137 153h1M157 153h1M159 153h1M166 153h1M187 153h1M193 153h1M213 153h1M215 153h1M220 153h1M224 153h1M229 153h1M299 153h1M0 154h1M12 154h1M24 154h1M28 154h1M38 154h1M46 154h3M53 154h3M60 154h1M62 154h2M67 154h4M73 154h3M80 154h1M82 154h2M87 154h4M95 154h4M102 154h3M110 154h1M124 154h1M131 154h1M136 154h1M159 154h1M166 154h1M187 154h1M193 154h1M215 154h1M220 154h1M224 154h1M229 154h1M299 154h1M0 155h1M12 155h1M24 155h1M28 155h1M38 155h1M45 155h1M49 155h1M52 155h1M56 155h1M60 155h2M66 155h1M70 155h1M75 155h1M80 155h2M84 155h1M91 155h1M96 155h1M101 155h1M105 155h1M110 155h1M122 155h5M131 155h1M136 155h4M159 155h1M166 155h1M187 155h1M193 155h3M215 155h1M220 155h1M222 155h1M224 155h1M229 155h1M299 155h1M0 156h1M12 156h1M24 156h1M28 156h1M38 156h1M45 156h1M49 156h1M52 156h1M56 156h1M60 156h1M66 156h1M70 156h1M75 156h1M80 156h1M84 156h1M88 156h4M96 156h1M101 156h5M124 156h1M131 156h1M136 156h1M140 156h1M159 156h1M166 156h1M179 156h3M187 156h1M196 156h1M215 156h1M220 156h1M222 156h1M224 156h1M229 156h1M299 156h1M0 157h1M12 157h1M24 157h1M28 157h1M38 157h1M45 157h1M49 157h1M52 157h1M56 157h1M60 157h1M66 157h1M70 157h1M75 157h1M80 157h1M84 157h1M87 157h1M91 157h1M96 157h1M101 157h1M124 157h1M131 157h1M136 157h1M140 157h1M159 157h1M166 157h1M187 157h1M196 157h1M215 157h1M220 157h1M224 157h1M229 157h1M299 157h1M0 158h1M12 158h1M24 158h1M27 158h1M38 158h1M45 158h1M49 158h1M52 158h1M56 158h1M60 158h1M66 158h1M70 158h1M75 158h1M80 158h1M84 158h1M87 158h1M90 158h2M96 158h1M101 158h1M110 158h1M131 158h1M136 158h1M140 158h1M145 158h1M159 158h1M166 158h1M187 158h1M196 158h1M201 158h1M215 158h1M220 158h1M224 158h1M229 158h1M299 158h1M0 159h1M11 159h3M24 159h3M39 159h4M46 159h3M53 159h3M60 159h1M67 159h4M75 159h1M80 159h1M84 159h1M88 159h2M91 159h1M97 159h2M102 159h4M110 159h1M131 159h1M137 159h3M145 159h1M157 159h5M166 159h1M187 159h1M193 159h3M201 159h1M213 159h5M221 159h3M229 159h1M299 159h1M0 160h1M131 160h1M144 160h1M166 160h1M187 160h1M200 160h1M229 160h1M299 160h1M0 161h1M131 161h2M165 161h2M187 161h2M228 161h2M299 161h1M0 162h1M299 162h1M0 163h1M299 163h1M0 164h1M299 164h1M0 165h1M299 165h1M0 166h1M299 166h1M0 167h1M299 167h1M0 168h1M299 168h1M0 169h1M299 169h1M0 170h1M11 170h4M45 170h3M61 170h1M77 170h1M87 170h1M91 170h1M122 170h1M126 170h1M150 170h1M162 170h5M209 170h3M218 170h1M253 170h1M274 170h1M299 170h1M0 171h1M10 171h1M47 171h1M61 171h1M77 171h1M87 171h1M91 171h1M122 171h1M126 171h1M150 171h1M162 171h1M209 171h1M212 171h1M274 171h1M299 171h1M0 172h1M10 172h1M17 172h4M25 172h3M32 172h4M38 172h1M42 172h1M47 172h1M52 172h4M60 172h4M67 172h3M74 172h4M87 172h1M91 172h1M95 172h4M102 172h3M110 172h1M122 172h1M126 172h1M129 172h4M137 172h1M139 172h2M144 172h4M150 172h1M152 172h2M162 172h1M169 172h1M171 172h2M177 172h3M184 172h1M186 172h2M191 172h4M197 172h1M201 172h1M209 172h1M213 172h1M216 172h3M224 172h4M231 172h4M238 172h3M244 172h2M247 172h1M251 172h3M258 172h1M260 172h2M265 172h4M273 172h4M280 172h3M287 172h1M289 172h2M299 172h1M0 173h1M11 173h2M17 173h1M21 173h1M24 173h1M28 173h1M31 173h1M38 173h1M42 173h1M47 173h1M56 173h1M61 173h1M66 173h1M70 173h1M73 173h1M77 173h1M87 173h1M91 173h1M94 173h1M101 173h1M105 173h1M110 173h1M122 173h5M133 173h1M137 173h2M143 173h1M150 173h2M154 173h1M162 173h5M169 173h2M173 173h1M176 173h1M180 173h1M184 173h2M190 173h1M193 173h1M197 173h1M201 173h1M209 173h1M213 173h1M218 173h1M223 173h1M230 173h1M237 173h1M241 173h1M244 173h1M246 173h1M248 173h1M253 173h1M258 173h2M262 173h1M269 173h1M274 173h1M279 173h1M283 173h1M287 173h2M299 173h1M0 174h1M13 174h1M17 174h1M21 174h1M24 174h5M31 174h1M38 174h1M42 174h1M47 174h1M53 174h4M61 174h1M66 174h5M73 174h1M77 174h1M87 174h1M91 174h1M95 174h2M101 174h5M122 174h1M126 174h1M130 174h4M137 174h1M144 174h2M150 174h1M154 174h1M162 174h1M169 174h1M173 174h1M176 174h5M184 174h1M190 174h1M193 174h1M198 174h1M200 174h1M209 174h1M213 174h1M218 174h1M224 174h2M231 174h2M237 174h5M244 174h1M246 174h1M248 174h1M253 174h1M258 174h1M262 174h1M266 174h4M274 174h1M279 174h1M283 174h1M287 174h1M299 174h1M0 175h1M14 175h1M17 175h1M21 175h1M24 175h1M31 175h1M38 175h1M42 175h1M47 175h1M52 175h1M56 175h1M61 175h1M66 175h1M73 175h1M77 175h1M87 175h1M91 175h1M97 175h1M101 175h1M122 175h1M126 175h1M129 175h1M133 175h1M137 175h1M146 175h1M150 175h1M154 175h1M162 175h1M169 175h1M173 175h1M176 175h1M184 175h1M191 175h2M198 175h1M200 175h1M209 175h1M213 175h1M218 175h1M226 175h1M233 175h1M237 175h1M244 175h1M246 175h1M248 175h1M253 175h1M258 175h1M262 175h1M265 175h1M269 175h1M274 175h1M279 175h1M283 175h1M287 175h1M299 175h1M0 176h1M14 176h1M17 176h1M21 176h1M24 176h1M31 176h1M38 176h1M41 176h2M47 176h1M52 176h1M55 176h2M61 176h1M66 176h1M73 176h1M77 176h1M87 176h1M91 176h1M98 176h1M101 176h1M110 176h1M122 176h1M126 176h1M129 176h1M132 176h2M137 176h1M147 176h1M150 176h1M154 176h1M162 176h1M169 176h1M173 176h1M176 176h1M184 176h1M190 176h1M199 176h1M209 176h1M212 176h1M218 176h1M227 176h1M234 176h1M237 176h1M244 176h1M246 176h1M248 176h1M253 176h1M258 176h1M262 176h1M265 176h1M268 176h2M274 176h1M279 176h1M283 176h1M287 176h1M299 176h1M0 177h1M10 177h4M17 177h4M25 177h4M32 177h4M39 177h2M42 177h1M47 177h3M53 177h2M56 177h1M62 177h2M67 177h4M74 177h4M88 177h3M94 177h4M102 177h4M110 177h1M122 177h1M126 177h1M130 177h2M133 177h1M137 177h1M143 177h4M150 177h1M154 177h1M162 177h5M169 177h1M173 177h1M177 177h4M184 177h1M190 177h5M199 177h1M209 177h3M218 177h1M223 177h4M230 177h4M238 177h4M244 177h1M246 177h1M248 177h1M253 177h1M258 177h1M262 177h1M266 177h2M269 177h1M275 177h2M280 177h3M287 177h1M299 177h1M0 178h1M17 178h1M190 178h1M194 178h1M199 178h1M299 178h1M0 179h1M17 179h1M191 179h3M197 179h2M299 179h1M0 180h1M299 180h1M0 181h1M299 181h1M0 182h1M299 182h1M0 183h1M299 183h1M0 184h1M299 184h1M0 185h1M299 185h1M0 186h1M299 186h1M0 187h1M299 187h1M0 188h1M299 188h1M0 189h1M299 189h1M0 190h1M299 190h1M0 191h1M299 191h1M0 192h1M299 192h1M0 193h1M299 193h1M0 194h1M299 194h1M0 195h1M299 195h1M0 196h1M299 196h1M0 197h1M299 197h1M0 198h1M299 198h1M0 199h300" />
</svg>