<svg xmlns="http://www.w3.org/2000/svg" viewBox="0 -0.5 500 700" shape-rendering="crispEdges">
<metadata>Made with Pixels to Svg https://codepen.io/shshaw/pen/XbxvNj</metadata>
<path stroke="#ffffff" d="M269 94h5M268 95h1M274 95h1M267 96h1M275 96h1M267 97h1M275 97h1M267 98h1M275 98h1M267 99h1M275 99h1M267 100h1M275 100h1M268 101h1M274 101h1M269 102h5M271 103h1M271 104h1M271 105h1M271 106h1M271 107h1M271 108h1M271 109h1M271 110h1M271 111h1M271 112h1M271 113h1M271 114h1M271 115h1M271 116h2M273 117h3M276 118h3M273 119h3M270 120h3M267 121h3M264 122h3M267 123h3M270 124h3M273 125h3M276 126h3M273 127h3M270 128h3M267 129h3M264 130h3M267 131h3M270 132h3M273 133h3M276 134h3M273 135h3M270 136h3M267 137h3M264 138h3M267 139h3M270 140h2M271 141h1M271 142h1M271 143h1M271 144h1M271 145h1M271 146h1M271 147h1M271 148h1M271 149h1M271 150h1M271 151h1M271 152h1M271 153h1M271 154h1M271 155h1M374 155h5M269 156h5M374 156h1M378 156h1M266 157h3M271 157h1M274 157h3M374 157h1M378 157h1M264 158h2M271 158h1M277 158h2M374 158h1M378 158h1M263 159h1M271 159h1M279 159h1M374 159h1M378 159h1M262 160h1M271 160h1M280 160h1M374 160h1M378 160h1M261 161h21M374 161h1M378 161h1M261 162h1M267 162h1M275 162h1M281 162h1M374 162h1M378 162h1M260 163h1M267 163h1M275 163h1M282 163h1M374 163h1M378 163h1M260 164h1M266 164h1M276 164h1M282 164h1M374 164h1M378 164h1M260 165h1M266 165h1M276 165h1M282 165h1M374 165h1M378 165h1M259 166h1M265 166h1M277 166h1M283 166h1M374 166h1M378 166h1M259 167h1M265 167h1M277 167h1M283 167h1M374 167h1M378 167h1M259 168h1M264 168h1M278 168h1M283 168h1M374 168h1M378 168h1M259 169h1M264 169h1M278 169h1M281 169h1M283 169h1M366 169h1M374 169h1M378 169h1M222 170h5M259 170h1M263 170h1M279 170h3M283 170h1M316 170h5M366 170h1M374 170h1M378 170h1M221 171h1M227 171h1M260 171h1M263 171h1M277 171h4M282 171h1M315 171h1M321 171h1M365 171h1M367 171h1M374 171h1M378 171h1M220 172h1M228 172h1M260 172h1M262 172h1M278 172h5M314 172h1M317 172h3M322 172h1M365 172h1M367 172h1M374 172h1M378 172h1M220 173h1M228 173h1M244 173h3M260 173h1M262 173h1M280 173h3M314 173h1M316 173h5M322 173h1M364 173h1M368 173h1M374 173h1M378 173h1M220 174h1M228 174h34M281 174h34M316 174h5M322 174h1M348 174h17M368 174h1M374 174h1M378 174h1M220 175h1M228 175h1M244 175h3M261 175h1M281 175h1M314 175h1M316 175h5M322 175h1M348 175h1M374 175h5M220 176h1M228 176h1M245 176h1M262 176h1M280 176h1M314 176h1M317 176h3M322 176h1M348 176h1M376 176h1M221 177h1M227 177h1M245 177h1M263 177h1M279 177h1M315 177h1M321 177h1M348 177h1M376 177h1M222 178h5M245 178h1M264 178h2M277 178h2M316 178h5M348 178h1M376 178h1M245 179h1M266 179h3M274 179h3M348 179h1M372 179h9M245 180h1M269 180h5M348 180h1M245 181h1M348 181h1M374 181h5M245 182h1M348 182h1M245 183h1M348 183h1M376 183h1M245 184h1M348 184h1M245 185h1M348 185h1M245 186h1M348 186h1M245 187h1M348 187h1M238 188h15M348 188h1M348 189h1M348 190h1M348 191h1M238 192h15M348 192h1M245 193h1M348 193h1M245 194h1M348 194h1M245 195h1M348 195h1M245 196h1M348 196h1M245 197h1M348 197h1M245 198h1M348 198h1M245 199h1M315 199h2M326 199h1M348 199h1M245 200h1M315 200h1M317 200h2M326 200h1M348 200h1M245 201h1M315 201h1M319 201h1M326 201h1M348 201h1M245 202h1M315 202h1M320 202h2M326 202h1M348 202h1M245 203h1M315 203h1M322 203h1M326 203h1M348 203h1M245 204h1M315 204h1M323 204h2M326 204h1M348 204h1M245 205h1M315 205h1M325 205h2M347 205h3M375 205h3M245 206h1M285 206h31M326 206h79M241 207h9M285 207h1M315 207h1M325 207h2M347 207h3M375 207h3M404 207h1M285 208h1M315 208h1M323 208h2M326 208h1M348 208h1M376 208h1M404 208h1M243 209h5M285 209h1M315 209h1M322 209h1M326 209h1M348 209h1M376 209h1M404 209h1M285 210h1M315 210h1M320 210h2M326 210h1M348 210h1M376 210h1M404 210h1M245 211h1M285 211h1M315 211h1M319 211h1M326 211h1M348 211h1M376 211h1M404 211h1M123 212h5M285 212h1M315 212h1M317 212h2M326 212h1M348 212h1M376 212h1M404 212h1M122 213h1M128 213h1M285 213h1M315 213h2M326 213h1M348 213h1M376 213h1M404 213h1M121 214h1M125 214h1M129 214h1M285 214h1M348 214h1M376 214h1M404 214h1M121 215h1M125 215h1M129 215h1M285 215h2M348 215h1M376 215h1M404 215h1M121 216h1M123 216h5M129 216h1M287 216h3M348 216h1M376 216h1M404 216h1M121 217h1M125 217h1M129 217h1M290 217h3M348 217h1M376 217h1M404 217h1M121 218h1M125 218h1M129 218h1M287 218h3M348 218h1M376 218h1M404 218h1M122 219h1M128 219h1M284 219h3M348 219h1M376 219h1M404 219h1M123 220h5M281 220h3M348 220h1M376 220h1M404 220h1M125 221h1M278 221h3M348 221h1M376 221h1M404 221h1M125 222h1M281 222h3M348 222h1M376 222h1M404 222h1M125 223h1M284 223h3M348 223h1M376 223h1M404 223h1M125 224h1M287 224h3M348 224h1M376 224h1M404 224h1M125 225h1M290 225h3M348 225h1M376 225h1M404 225h1M125 226h1M287 226h3M348 226h1M376 226h1M404 226h1M125 227h1M284 227h3M348 227h1M376 227h1M404 227h1M125 228h1M133 228h1M141 228h1M149 228h1M281 228h3M348 228h1M376 228h1M404 228h1M125 229h1M133 229h1M141 229h1M149 229h1M278 229h3M348 229h1M376 229h1M404 229h1M125 230h1M133 230h1M141 230h1M149 230h1M281 230h3M348 230h1M376 230h1M404 230h1M125 231h1M132 231h1M134 231h1M140 231h1M142 231h1M148 231h1M150 231h1M284 231h3M348 231h1M376 231h1M404 231h1M125 232h1M132 232h1M134 232h1M140 232h1M142 232h1M148 232h1M150 232h1M287 232h3M348 232h1M376 232h1M404 232h1M125 233h1M132 233h1M134 233h1M140 233h1M142 233h1M148 233h1M150 233h1M290 233h3M348 233h1M376 233h1M404 233h1M124 234h3M131 234h1M135 234h1M139 234h1M143 234h1M147 234h1M151 234h1M168 234h3M287 234h3M348 234h1M376 234h1M404 234h1M124 235h8M135 235h1M139 235h1M143 235h1M147 235h1M151 235h1M155 235h38M284 235h3M348 235h1M376 235h1M404 235h1M124 236h3M135 236h1M139 236h1M143 236h1M147 236h1M151 236h1M155 236h1M168 236h3M192 236h1M281 236h3M341 236h15M369 236h15M397 236h15M125 237h1M136 237h1M138 237h1M144 237h1M146 237h1M152 237h1M154 237h1M169 237h1M192 237h1M278 237h3M347 237h1M349 237h1M375 237h1M377 237h1M403 237h1M405 237h1M125 238h1M136 238h1M138 238h1M144 238h1M146 238h1M152 238h1M154 238h1M169 238h1M192 238h1M281 238h3M346 238h1M350 238h1M374 238h1M378 238h1M402 238h1M406 238h1M125 239h1M136 239h1M138 239h1M144 239h1M146 239h1M152 239h1M154 239h1M169 239h1M192 239h1M284 239h2M346 239h1M350 239h1M374 239h1M378 239h1M402 239h1M406 239h1M125 240h1M137 240h1M145 240h1M153 240h1M169 240h1M192 240h1M285 240h1M345 240h1M351 240h1M373 240h1M379 240h1M401 240h1M407 240h1M125 241h1M137 241h1M145 241h1M153 241h1M169 241h1M192 241h1M285 241h1M344 241h1M352 241h1M372 241h1M380 241h1M400 241h1M408 241h1M125 242h1M137 242h1M145 242h1M153 242h1M169 242h1M192 242h1M285 242h1M344 242h1M352 242h1M372 242h1M380 242h1M400 242h1M408 242h1M125 243h1M169 243h1M192 243h1M285 243h1M343 243h1M353 243h1M371 243h1M381 243h1M399 243h1M409 243h1M125 244h1M169 244h1M192 244h1M285 244h1M342 244h1M354 244h1M370 244h1M382 244h1M398 244h1M410 244h1M125 245h1M143 245h1M169 245h1M192 245h1M285 245h1M342 245h1M354 245h1M370 245h1M382 245h1M398 245h1M410 245h1M125 246h1M142 246h3M165 246h9M192 246h1M285 246h1M341 246h1M355 246h1M369 246h1M383 246h1M397 246h1M411 246h1M125 247h1M141 247h1M143 247h1M145 247h1M185 247h15M285 247h1M341 247h15M369 247h15M397 247h15M125 248h1M140 248h1M143 248h1M146 248h1M167 248h5M285 248h1M348 248h1M376 248h1M404 248h1M125 249h1M143 249h1M282 249h1M285 249h1M288 249h1M348 249h1M376 249h1M404 249h1M125 250h1M143 250h1M169 250h1M283 250h1M285 250h1M287 250h1M348 250h1M376 250h1M404 250h1M125 251h1M143 251h1M185 251h15M284 251h3M348 251h1M376 251h1M404 251h1M125 252h1M143 252h1M192 252h1M285 252h1M348 252h1M376 252h1M404 252h1M125 253h1M143 253h1M192 253h1M348 253h1M376 253h1M404 253h1M125 254h1M143 254h1M192 254h1M348 254h1M376 254h1M404 254h1M125 255h1M143 255h1M192 255h1M275 255h1M283 255h1M291 255h1M348 255h1M376 255h1M404 255h1M125 256h1M143 256h1M192 256h1M275 256h1M283 256h1M291 256h1M348 256h1M376 256h1M404 256h1M125 257h1M143 257h1M192 257h1M275 257h1M283 257h1M291 257h1M348 257h1M376 257h1M404 257h1M125 258h1M143 258h1M192 258h1M222 258h5M274 258h1M276 258h1M282 258h1M284 258h1M290 258h1M292 258h1M348 258h1M376 258h1M404 258h1M125 259h1M143 259h1M192 259h1M221 259h1M227 259h1M274 259h1M276 259h1M282 259h1M284 259h1M290 259h1M292 259h1M348 259h1M376 259h1M404 259h1M125 260h1M143 260h1M192 260h1M220 260h1M223 260h3M228 260h1M274 260h1M276 260h1M282 260h1M284 260h1M290 260h1M292 260h1M348 260h1M376 260h1M404 260h1M125 261h1M143 261h1M191 261h3M220 261h1M222 261h5M228 261h1M265 261h3M273 261h1M277 261h1M281 261h1M285 261h1M289 261h1M293 261h1M348 261h1M376 261h1M404 261h1M125 262h1M143 262h1M161 262h60M222 262h5M228 262h46M277 262h1M281 262h1M285 262h1M289 262h1M293 262h1M297 262h10M348 262h1M376 262h1M404 262h1M125 263h1M143 263h1M161 263h1M191 263h3M220 263h1M222 263h5M228 263h1M265 263h3M277 263h1M281 263h1M285 263h1M289 263h1M293 263h1M297 263h1M306 263h1M348 263h1M376 263h1M404 263h1M125 264h1M143 264h1M161 264h1M220 264h1M223 264h3M228 264h1M266 264h1M278 264h1M280 264h1M286 264h1M288 264h1M294 264h1M296 264h1M306 264h1M348 264h1M376 264h1M404 264h1M125 265h1M143 265h1M161 265h1M221 265h1M227 265h1M266 265h1M278 265h1M280 265h1M286 265h1M288 265h1M294 265h1M296 265h1M306 265h1M348 265h1M376 265h1M404 265h1M125 266h1M143 266h1M161 266h1M222 266h5M266 266h1M278 266h1M280 266h1M286 266h1M288 266h1M294 266h1M296 266h1M306 266h1M348 266h1M376 266h1M404 266h1M125 267h1M143 267h1M161 267h1M266 267h1M279 267h1M287 267h1M295 267h1M306 267h1M348 267h1M376 267h1M404 267h1M125 268h1M141 268h5M161 268h1M266 268h1M279 268h1M287 268h1M295 268h1M306 268h1M348 268h1M376 268h2M404 268h2M125 269h1M140 269h1M146 269h1M161 269h1M266 269h1M279 269h1M287 269h1M295 269h1M306 269h1M348 269h1M378 269h3M406 269h3M125 270h1M139 270h1M147 270h1M161 270h1M266 270h1M306 270h1M348 270h1M381 270h3M409 270h3M125 271h1M139 271h1M147 271h1M161 271h2M266 271h1M306 271h1M317 271h1M325 271h1M333 271h1M348 271h1M378 271h3M406 271h3M125 272h1M139 272h1M147 272h1M163 272h3M266 272h1M306 272h1M317 272h1M325 272h1M333 272h1M348 272h1M375 272h3M403 272h3M125 273h1M139 273h1M147 273h1M166 273h3M266 273h1M306 273h1M317 273h1M325 273h1M333 273h1M348 273h1M372 273h3M400 273h3M125 274h1M139 274h1M147 274h1M163 274h3M266 274h1M306 274h1M316 274h1M318 274h1M324 274h1M326 274h1M332 274h1M334 274h1M348 274h1M369 274h3M397 274h3M125 275h1M140 275h1M146 275h1M160 275h3M266 275h1M306 275h1M316 275h1M318 275h1M324 275h1M326 275h1M332 275h1M334 275h1M348 275h1M372 275h3M400 275h3M125 276h1M141 276h5M157 276h3M266 276h1M306 276h1M316 276h1M318 276h1M324 276h1M326 276h1M332 276h1M334 276h1M348 276h1M375 276h3M403 276h3M125 277h1M143 277h1M154 277h3M266 277h1M315 277h1M319 277h1M323 277h1M327 277h1M331 277h1M335 277h1M348 277h1M378 277h3M406 277h3M125 278h1M143 278h1M157 278h3M266 278h1M285 278h31M319 278h1M323 278h1M327 278h1M331 278h1M335 278h1M339 278h10M381 278h3M409 278h3M125 279h1M143 279h1M160 279h3M266 279h1M285 279h1M319 279h1M323 279h1M327 279h1M331 279h1M335 279h1M339 279h1M378 279h3M406 279h3M125 280h1M143 280h1M163 280h3M266 280h1M285 280h1M306 280h1M320 280h1M322 280h1M328 280h1M330 280h1M336 280h1M338 280h1M375 280h3M403 280h3M125 281h1M143 281h1M166 281h3M266 281h1M285 281h1M306 281h1M320 281h1M322 281h1M328 281h1M330 281h1M336 281h1M338 281h1M372 281h3M400 281h3M125 282h1M143 282h1M163 282h3M266 282h1M285 282h1M306 282h1M320 282h1M322 282h1M328 282h1M330 282h1M336 282h1M338 282h1M369 282h3M397 282h3M108 283h1M112 283h1M125 283h1M143 283h1M160 283h3M266 283h1M285 283h1M306 283h1M321 283h1M329 283h1M337 283h1M372 283h3M400 283h3M108 284h1M112 284h1M125 284h1M143 284h1M157 284h3M266 284h1M285 284h1M306 284h1M321 284h1M329 284h1M337 284h1M375 284h3M403 284h3M108 285h1M112 285h1M125 285h1M143 285h1M154 285h3M266 285h1M285 285h1M306 285h1M321 285h1M329 285h1M337 285h1M378 285h3M406 285h3M108 286h1M112 286h1M125 286h1M143 286h1M157 286h3M266 286h1M282 286h1M285 286h1M288 286h1M306 286h1M381 286h3M409 286h3M108 287h1M112 287h1M125 287h1M143 287h1M160 287h3M266 287h1M283 287h1M285 287h1M287 287h1M306 287h1M378 287h3M406 287h3M108 288h1M112 288h1M125 288h1M143 288h1M163 288h3M266 288h1M284 288h3M306 288h1M375 288h3M403 288h3M108 289h1M112 289h1M124 289h3M143 289h1M166 289h3M266 289h1M285 289h1M306 289h1M372 289h3M400 289h3M97 290h12M112 290h15M143 290h1M163 290h3M266 290h1M306 290h1M369 290h3M397 290h3M97 291h1M108 291h1M112 291h1M124 291h3M143 291h1M160 291h3M266 291h1M306 291h1M372 291h3M400 291h3M97 292h1M108 292h1M112 292h1M125 292h1M143 292h1M157 292h3M198 292h1M206 292h1M214 292h1M266 292h1M275 292h1M283 292h1M291 292h1M306 292h1M375 292h2M403 292h2M97 293h1M108 293h1M112 293h1M125 293h1M143 293h1M154 293h3M198 293h1M206 293h1M214 293h1M266 293h1M275 293h1M283 293h1M291 293h1M306 293h1M376 293h1M404 293h1M97 294h1M108 294h1M112 294h1M125 294h1M143 294h1M157 294h3M198 294h1M206 294h1M214 294h1M266 294h1M275 294h1M283 294h1M291 294h1M306 294h1M376 294h1M404 294h1M97 295h1M108 295h1M112 295h1M125 295h1M143 295h1M160 295h2M197 295h1M199 295h1M205 295h1M207 295h1M213 295h1M215 295h1M241 295h5M266 295h1M274 295h1M276 295h1M282 295h1M284 295h1M290 295h1M292 295h1M306 295h1M376 295h1M404 295h1M97 296h1M108 296h1M112 296h1M125 296h1M143 296h1M161 296h1M197 296h1M199 296h1M205 296h1M207 296h1M213 296h1M215 296h1M240 296h1M246 296h1M266 296h1M274 296h1M276 296h1M282 296h1M284 296h1M290 296h1M292 296h1M306 296h1M376 296h1M404 296h1M97 297h1M108 297h1M112 297h1M125 297h1M143 297h1M161 297h1M197 297h1M199 297h1M205 297h1M207 297h1M213 297h1M215 297h1M239 297h1M242 297h3M247 297h1M266 297h1M274 297h1M276 297h1M282 297h1M284 297h1M290 297h1M292 297h1M306 297h1M376 297h1M404 297h1M97 298h1M125 298h1M143 298h1M161 298h1M196 298h1M200 298h1M204 298h1M208 298h1M212 298h1M216 298h1M228 298h3M239 298h1M241 298h5M247 298h1M255 298h3M273 298h1M277 298h1M281 298h1M285 298h1M289 298h1M293 298h1M305 298h3M376 298h1M404 298h1M97 299h1M125 299h1M143 299h1M161 299h1M179 299h18M200 299h1M204 299h1M208 299h1M212 299h1M216 299h1M220 299h20M241 299h5M247 299h27M277 299h1M281 299h1M285 299h1M289 299h1M293 299h1M297 299h11M376 299h1M404 299h1M97 300h1M125 300h1M143 300h1M161 300h1M179 300h1M200 300h1M204 300h1M208 300h1M212 300h1M216 300h1M220 300h1M228 300h3M239 300h1M241 300h5M247 300h1M255 300h3M277 300h1M281 300h1M285 300h1M289 300h1M293 300h1M297 300h1M305 300h3M376 300h1M404 300h1M93 301h9M125 301h1M143 301h1M161 301h1M179 301h1M201 301h1M203 301h1M209 301h1M211 301h1M217 301h1M219 301h1M229 301h1M239 301h1M242 301h3M247 301h1M256 301h1M266 301h1M278 301h1M280 301h1M286 301h1M288 301h1M294 301h1M296 301h1M306 301h1M376 301h1M404 301h1M125 302h1M143 302h1M161 302h1M179 302h1M201 302h1M203 302h1M209 302h1M211 302h1M217 302h1M219 302h1M229 302h1M240 302h1M246 302h1M256 302h1M266 302h1M278 302h1M280 302h1M286 302h1M288 302h1M294 302h1M296 302h1M306 302h1M376 302h1M404 302h1M95 303h5M125 303h1M143 303h1M161 303h1M179 303h1M201 303h1M203 303h1M209 303h1M211 303h1M217 303h1M219 303h1M229 303h1M241 303h5M256 303h1M266 303h1M278 303h1M280 303h1M286 303h1M288 303h1M294 303h1M296 303h1M306 303h1M376 303h1M404 303h1M125 304h1M143 304h1M161 304h1M179 304h1M202 304h1M210 304h1M218 304h1M229 304h1M256 304h1M266 304h1M279 304h1M287 304h1M295 304h1M306 304h1M376 304h1M404 304h1M97 305h1M125 305h1M143 305h1M161 305h1M179 305h1M202 305h1M210 305h1M218 305h1M229 305h1M256 305h1M266 305h1M279 305h1M287 305h1M295 305h1M306 305h1M376 305h1M404 305h1M125 306h1M143 306h1M161 306h1M179 306h1M202 306h1M210 306h1M218 306h1M229 306h1M256 306h1M266 306h1M279 306h1M287 306h1M295 306h1M306 306h1M376 306h1M404 306h1M125 307h1M143 307h1M161 307h1M179 307h1M229 307h1M256 307h1M266 307h1M306 307h1M376 307h1M404 307h1M125 308h1M143 308h1M161 308h1M179 308h1M229 308h1M256 308h1M266 308h1M306 308h1M376 308h1M404 308h1M125 309h1M143 309h1M161 309h1M179 309h1M229 309h1M256 309h1M266 309h1M306 309h1M376 309h1M404 309h1M125 310h1M143 310h1M161 310h1M179 310h1M229 310h1M256 310h1M266 310h1M306 310h1M376 310h1M404 310h1M125 311h1M143 311h1M161 311h1M179 311h1M229 311h1M256 311h1M266 311h1M306 311h1M376 311h1M404 311h1M229 312h1M256 312h1M266 312h1M306 312h1M376 312h1M404 312h1M125 313h55M229 313h1M256 313h1M266 313h1M306 313h1M376 313h1M404 313h1M125 314h1M179 314h1M229 314h1M256 314h1M266 314h1M306 314h1M376 314h1M404 314h1M125 315h1M179 315h1M229 315h1M256 315h1M266 315h1M302 315h9M376 315h1M404 315h1M125 316h1M179 316h1M229 316h1M256 316h1M266 316h1M376 316h1M404 316h1M125 317h1M179 317h1M229 317h1M256 317h1M266 317h1M304 317h5M376 317h1M404 317h1M125 318h1M179 318h1M229 318h1M256 318h1M266 318h1M376 318h1M404 318h1M125 319h1M179 319h1M229 319h1M256 319h1M266 319h1M306 319h1M376 319h1M404 319h1M125 320h1M179 320h1M229 320h1M256 320h1M266 320h1M376 320h1M404 320h1M125 321h1M179 321h1M229 321h1M256 321h1M266 321h1M376 321h1M404 321h1M125 322h1M179 322h1M229 322h1M256 322h1M266 322h1M376 322h1M404 322h1M125 323h1M179 323h1M229 323h1M256 323h1M266 323h1M376 323h1M404 323h1M179 324h1M229 324h1M256 324h1M266 324h1M376 324h1M404 324h2M125 325h1M127 325h1M129 325h1M179 325h1M229 325h1M256 325h1M266 325h1M376 325h1M406 325h3M179 326h1M229 326h1M256 326h1M266 326h1M376 326h1M409 326h3M125 327h1M127 327h1M129 327h1M131 327h1M141 327h3M148 327h5M157 327h3M164 327h5M179 327h1M229 327h1M256 327h1M266 327h1M376 327h1M406 327h3M140 328h1M144 328h1M150 328h1M156 328h1M160 328h1M164 328h1M179 328h1M222 328h15M256 328h1M266 328h1M376 328h1M403 328h3M125 329h1M127 329h1M129 329h1M131 329h1M140 329h1M144 329h1M150 329h1M156 329h1M160 329h1M164 329h1M179 329h1M256 329h1M266 329h1M376 329h1M400 329h3M140 330h1M144 330h1M150 330h1M156 330h1M160 330h1M164 330h1M179 330h1M256 330h1M266 330h1M282 330h1M354 330h5M376 330h1M397 330h3M125 331h1M127 331h1M129 331h1M131 331h1M140 331h5M150 331h1M157 331h3M165 331h3M179 331h1M256 331h1M266 331h16M283 331h1M354 331h1M358 331h1M376 331h1M400 331h3M140 332h1M144 332h1M150 332h1M156 332h1M160 332h1M168 332h1M179 332h1M222 332h15M256 332h1M282 332h1M285 332h2M354 332h1M358 332h1M376 332h1M403 332h3M434 332h5M125 333h1M127 333h1M129 333h1M131 333h1M140 333h1M144 333h1M150 333h1M156 333h1M160 333h1M168 333h1M179 333h1M229 333h1M256 333h1M287 333h1M354 333h1M358 333h1M376 333h1M406 333h3M417 333h1M433 333h1M439 333h1M140 334h1M144 334h1M150 334h1M156 334h1M160 334h1M164 334h1M168 334h1M179 334h1M229 334h1M256 334h1M288 334h2M354 334h1M358 334h1M376 334h1M409 334h3M416 334h1M432 334h1M440 334h1M125 335h1M127 335h1M129 335h1M131 335h1M140 335h1M144 335h1M150 335h1M157 335h3M165 335h3M179 335h1M229 335h1M256 335h1M290 335h1M354 335h1M358 335h1M376 335h1M406 335h3M415 335h1M432 335h1M440 335h1M179 336h1M229 336h1M256 336h1M291 336h2M354 336h1M358 336h1M376 336h1M403 336h3M414 336h19M440 336h1M125 337h1M127 337h1M129 337h1M179 337h1M229 337h1M256 337h1M293 337h1M354 337h1M358 337h1M376 337h1M400 337h3M415 337h1M432 337h1M440 337h1M179 338h1M229 338h1M256 338h1M294 338h2M298 338h1M354 338h1M358 338h1M376 338h1M397 338h3M416 338h1M432 338h1M440 338h1M125 339h1M179 339h1M229 339h1M256 339h1M297 339h1M299 339h39M354 339h1M358 339h1M376 339h1M400 339h3M417 339h1M433 339h1M439 339h1M125 340h1M179 340h1M229 340h1M256 340h1M295 340h1M298 340h1M337 340h1M354 340h1M358 340h1M376 340h1M403 340h3M434 340h5M125 341h1M179 341h1M229 341h1M256 341h1M337 341h1M354 341h1M358 341h1M376 341h1M406 341h3M125 342h1M179 342h1M229 342h1M256 342h1M292 342h1M337 342h1M354 342h1M358 342h1M376 342h1M409 342h3M125 343h1M179 343h1M229 343h1M256 343h1M337 343h1M354 343h1M358 343h1M376 343h1M406 343h3M125 344h1M179 344h1M229 344h1M256 344h1M289 344h1M334 344h1M337 344h1M340 344h1M346 344h1M354 344h1M358 344h1M376 344h1M403 344h3M125 345h1M179 345h1M229 345h1M256 345h1M335 345h1M337 345h1M339 345h1M346 345h1M354 345h1M358 345h1M376 345h1M400 345h3M125 346h1M179 346h1M229 346h1M256 346h1M282 346h1M286 346h1M336 346h3M345 346h1M347 346h1M354 346h1M358 346h1M376 346h1M397 346h3M125 347h1M179 347h1M229 347h1M256 347h26M283 347h1M337 347h1M345 347h1M347 347h1M354 347h1M358 347h1M376 347h1M400 347h3M125 348h1M179 348h1M229 348h1M282 348h1M344 348h1M348 348h1M354 348h1M358 348h1M376 348h1M403 348h2M125 349h55M229 349h1M314 349h31M348 349h1M354 349h1M358 349h1M376 349h1M404 349h1M229 350h1M314 350h1M354 350h5M376 350h1M404 350h1M125 351h1M143 351h1M161 351h1M179 351h1M229 351h1M314 351h1M356 351h1M376 351h1M404 351h1M125 352h1M143 352h1M161 352h1M179 352h1M229 352h1M314 352h1M356 352h1M376 352h1M404 352h1M49 353h1M57 353h1M125 353h1M143 353h1M161 353h1M179 353h1M225 353h9M314 353h1M356 353h1M376 353h1M404 353h1M50 354h1M56 354h1M125 354h1M143 354h1M161 354h1M179 354h1M314 354h1M352 354h9M376 354h1M404 354h1M51 355h1M55 355h1M125 355h1M143 355h1M161 355h1M179 355h1M227 355h5M314 355h1M376 355h1M404 355h1M52 356h1M54 356h1M63 356h1M125 356h1M143 356h1M161 356h1M179 356h1M314 356h1M354 356h5M376 356h1M404 356h1M53 357h10M64 357h1M125 357h1M143 357h1M161 357h1M179 357h1M229 357h1M314 357h1M376 357h1M404 357h1M52 358h1M54 358h1M63 358h1M66 358h2M92 358h1M100 358h1M108 358h1M125 358h1M143 358h1M161 358h1M179 358h1M314 358h1M356 358h1M376 358h1M404 358h1M51 359h1M55 359h1M68 359h1M92 359h1M100 359h1M108 359h1M125 359h1M143 359h1M161 359h1M179 359h1M314 359h1M376 359h1M404 359h1M50 360h1M56 360h1M69 360h2M92 360h1M100 360h1M108 360h1M125 360h1M143 360h1M161 360h1M175 360h9M314 360h1M376 360h1M404 360h1M49 361h1M57 361h1M71 361h1M91 361h1M93 361h1M99 361h1M101 361h1M107 361h1M109 361h1M125 361h1M143 361h1M161 361h1M314 361h1M376 361h1M404 361h1M72 362h2M91 362h1M93 362h1M99 362h1M101 362h1M107 362h1M109 362h1M125 362h1M143 362h1M161 362h1M177 362h5M314 362h1M376 362h1M404 362h1M74 363h1M91 363h1M93 363h1M99 363h1M101 363h1M107 363h1M109 363h1M125 363h1M143 363h1M161 363h1M314 363h1M376 363h1M404 363h1M75 364h2M79 364h1M90 364h1M94 364h1M98 364h1M102 364h1M106 364h1M110 364h1M125 364h1M143 364h1M161 364h1M179 364h1M314 364h1M376 364h1M404 364h1M78 365h1M80 365h11M94 365h1M98 365h1M102 365h1M106 365h1M110 365h1M114 365h12M143 365h1M161 365h1M314 365h1M376 365h1M404 365h1M76 366h1M79 366h1M94 366h1M98 366h1M102 366h1M106 366h1M110 366h1M114 366h1M143 366h1M161 366h1M314 366h1M376 366h1M404 366h1M95 367h1M97 367h1M103 367h1M105 367h1M111 367h1M113 367h1M143 367h1M161 367h1M314 367h1M376 367h1M404 367h1M73 368h1M95 368h1M97 368h1M103 368h1M105 368h1M111 368h1M113 368h1M143 368h1M161 368h1M314 368h1M376 368h1M404 368h1M95 369h1M97 369h1M103 369h1M105 369h1M111 369h1M113 369h1M143 369h1M161 369h1M314 369h1M376 369h1M404 369h1M70 370h1M96 370h1M104 370h1M112 370h1M143 370h1M161 370h1M314 370h1M376 370h1M404 370h1M96 371h1M104 371h1M112 371h1M143 371h1M161 371h1M314 371h1M376 371h1M404 371h1M63 372h1M67 372h1M96 372h1M104 372h1M112 372h1M143 372h1M161 372h1M314 372h1M376 372h2M404 372h1M53 373h10M64 373h1M143 373h1M161 373h1M314 373h1M378 373h3M400 373h9M53 374h1M63 374h1M143 374h1M161 374h1M314 374h1M381 374h3M53 375h1M143 375h1M161 375h1M314 375h1M378 375h3M402 375h5M53 376h1M143 376h1M161 376h1M314 376h1M375 376h3M53 377h1M143 377h1M161 377h1M314 377h1M372 377h3M404 377h1M53 378h1M143 378h1M161 378h1M314 378h1M369 378h3M53 379h1M129 379h5M143 379h1M161 379h1M172 379h5M314 379h1M372 379h3M53 380h1M128 380h1M134 380h1M143 380h1M161 380h1M171 380h1M177 380h1M314 380h1M375 380h3M53 381h1M127 381h1M135 381h1M143 381h1M161 381h1M170 381h1M178 381h1M314 381h1M363 381h1M378 381h3M49 382h9M127 382h1M135 382h1M143 382h1M161 382h1M170 382h1M178 382h1M314 382h1M364 382h1M381 382h3M119 383h9M135 383h9M161 383h10M178 383h8M314 383h1M365 383h1M378 383h3M51 384h5M119 384h1M127 384h1M135 384h1M170 384h1M178 384h1M185 384h1M314 384h1M340 384h27M375 384h3M119 385h1M127 385h1M135 385h1M170 385h1M178 385h1M185 385h1M314 385h1M340 385h1M365 385h1M372 385h3M53 386h1M119 386h1M128 386h1M134 386h1M171 386h1M177 386h1M185 386h1M314 386h1M340 386h1M364 386h1M369 386h3M119 387h1M129 387h5M172 387h5M185 387h1M314 387h1M340 387h1M363 387h1M372 387h3M119 388h1M185 388h1M314 388h1M340 388h1M375 388h3M119 389h1M185 389h1M314 389h1M340 389h1M378 389h3M119 390h1M185 390h1M314 390h1M340 390h1M381 390h3M119 391h1M185 391h1M314 391h1M340 391h1M378 391h3M119 392h1M185 392h1M314 392h1M340 392h1M375 392h3M119 393h1M185 393h1M314 393h1M340 393h1M372 393h3M119 394h1M185 394h1M314 394h1M340 394h1M369 394h3M119 395h1M185 395h1M314 395h1M340 395h1M372 395h3M119 396h1M185 396h1M314 396h1M340 396h1M375 396h2M116 397h1M119 397h1M122 397h1M182 397h1M185 397h1M188 397h1M314 397h1M340 397h2M376 397h1M117 398h1M119 398h1M121 398h1M183 398h1M185 398h1M187 398h1M314 398h1M342 398h3M376 398h1M118 399h3M184 399h3M314 399h1M345 399h3M376 399h1M119 400h1M185 400h1M314 400h1M342 400h3M376 400h1M314 401h1M339 401h3M376 401h1M314 402h1M336 402h3M376 402h1M109 403h1M117 403h1M125 403h1M175 403h1M183 403h1M191 403h1M314 403h1M333 403h3M376 403h1M109 404h1M117 404h1M125 404h1M175 404h1M183 404h1M191 404h1M314 404h1M336 404h3M376 404h1M109 405h1M117 405h1M125 405h1M175 405h1M183 405h1M191 405h1M314 405h1M339 405h3M376 405h1M87 406h5M108 406h1M110 406h1M116 406h1M118 406h1M124 406h1M126 406h1M153 406h5M174 406h1M176 406h1M182 406h1M184 406h1M190 406h1M192 406h1M314 406h1M342 406h3M376 406h1M86 407h1M92 407h1M108 407h1M110 407h1M116 407h1M118 407h1M124 407h1M126 407h1M152 407h1M158 407h1M174 407h1M176 407h1M182 407h1M184 407h1M190 407h1M192 407h1M314 407h1M345 407h3M376 407h1M85 408h1M89 408h1M93 408h1M108 408h1M110 408h1M116 408h1M118 408h1M124 408h1M126 408h1M151 408h1M155 408h1M159 408h1M174 408h1M176 408h1M182 408h1M184 408h1M190 408h1M192 408h1M314 408h1M342 408h3M376 408h1M85 409h1M89 409h1M93 409h1M107 409h1M111 409h1M115 409h1M119 409h1M123 409h1M127 409h1M151 409h1M155 409h1M159 409h1M173 409h1M177 409h1M181 409h1M185 409h1M189 409h1M193 409h1M314 409h1M339 409h3M376 409h1M85 410h1M87 410h5M93 410h15M111 410h1M115 410h1M119 410h1M123 410h1M127 410h1M131 410h10M151 410h1M153 410h5M159 410h15M177 410h1M181 410h1M185 410h1M189 410h1M193 410h1M197 410h10M314 410h1M336 410h3M376 410h1M85 411h1M89 411h1M93 411h1M111 411h1M115 411h1M119 411h1M123 411h1M127 411h1M131 411h1M140 411h1M151 411h1M155 411h1M159 411h1M177 411h1M181 411h1M185 411h1M189 411h1M193 411h1M197 411h1M206 411h1M314 411h1M333 411h3M376 411h1M85 412h1M89 412h1M93 412h1M112 412h1M114 412h1M120 412h1M122 412h1M128 412h1M130 412h1M140 412h1M151 412h1M155 412h1M159 412h1M178 412h1M180 412h1M186 412h1M188 412h1M194 412h1M196 412h1M206 412h1M314 412h1M336 412h3M376 412h1M86 413h1M92 413h1M112 413h1M114 413h1M120 413h1M122 413h1M128 413h1M130 413h1M140 413h1M152 413h1M158 413h1M178 413h1M180 413h1M186 413h1M188 413h1M194 413h1M196 413h1M206 413h1M314 413h1M339 413h3M376 413h1M87 414h5M112 414h1M114 414h1M120 414h1M122 414h1M128 414h1M130 414h1M140 414h1M153 414h5M178 414h1M180 414h1M186 414h1M188 414h1M194 414h1M196 414h1M206 414h1M314 414h1M342 414h3M376 414h1M113 415h1M121 415h1M129 415h1M140 415h1M179 415h1M187 415h1M195 415h1M206 415h1M314 415h1M345 415h3M372 415h9M113 416h1M121 416h1M129 416h1M140 416h1M179 416h1M187 416h1M195 416h1M206 416h1M314 416h1M342 416h3M113 417h1M121 417h1M129 417h1M140 417h1M179 417h1M187 417h1M195 417h1M206 417h1M258 417h5M276 417h5M296 417h1M314 417h1M339 417h3M374 417h5M140 418h1M206 418h1M257 418h1M263 418h1M275 418h1M281 418h1M314 418h1M336 418h3M136 419h9M202 419h9M256 419h1M259 419h3M264 419h1M274 419h1M277 419h3M282 419h1M294 419h5M314 419h1M333 419h3M376 419h1M256 420h1M258 420h5M264 420h1M274 420h1M276 420h5M282 420h1M314 420h1M336 420h3M138 421h5M204 421h5M256 421h1M258 421h5M264 421h1M274 421h1M276 421h5M282 421h1M292 421h9M314 421h1M339 421h2M256 422h1M258 422h5M264 422h1M274 422h1M276 422h5M282 422h1M296 422h1M314 422h1M340 422h1M140 423h1M206 423h1M256 423h1M259 423h3M264 423h1M274 423h1M277 423h3M282 423h1M296 423h1M314 423h1M340 423h1M257 424h1M263 424h1M275 424h1M281 424h1M296 424h1M314 424h1M340 424h1M258 425h5M276 425h5M296 425h1M314 425h1M340 425h1M260 426h1M278 426h1M296 426h1M314 426h1M340 426h1M260 427h1M278 427h1M296 427h1M314 427h1M340 427h1M260 428h1M278 428h1M296 428h1M314 428h1M340 428h1M260 429h1M278 429h1M296 429h1M314 429h1M340 429h1M260 430h1M278 430h1M296 430h1M314 430h1M340 430h1M260 431h1M278 431h1M296 431h1M314 431h1M340 431h1M260 432h1M278 432h1M296 432h1M314 432h1M340 432h1M260 433h1M278 433h1M296 433h1M314 433h1M339 433h1M341 433h1M260 434h1M278 434h1M296 434h1M314 434h1M340 434h1M260 435h1M278 435h1M296 435h1M314 435h1M260 436h1M278 436h1M296 436h1M314 436h1M339 436h1M341 436h1M260 437h1M278 437h1M296 437h1M314 437h1M339 437h1M260 438h2M278 438h2M296 438h2M314 438h1M338 438h1M262 439h3M280 439h3M298 439h3M314 439h1M337 439h1M343 439h1M265 440h3M283 440h3M301 440h3M314 440h1M337 440h1M262 441h3M280 441h3M298 441h3M314 441h1M336 441h1M259 442h3M277 442h3M295 442h3M314 442h1M335 442h1M345 442h1M256 443h3M274 443h3M292 443h3M314 443h1M335 443h1M253 444h3M271 444h3M289 444h3M314 444h1M334 444h1M256 445h3M274 445h3M292 445h3M314 445h1M333 445h1M347 445h1M259 446h3M277 446h3M295 446h3M314 446h1M333 446h1M262 447h3M280 447h3M298 447h3M314 447h1M265 448h3M283 448h3M301 448h3M314 448h1M332 448h1M348 448h1M262 449h3M280 449h3M298 449h3M314 449h1M331 449h1M333 449h1M347 449h1M349 449h1M259 450h3M277 450h3M295 450h3M314 450h1M332 450h1M348 450h1M256 451h3M274 451h3M292 451h3M314 451h1M332 451h1M348 451h1M253 452h3M271 452h3M289 452h3M314 452h1M332 452h1M348 452h1M256 453h3M274 453h3M292 453h3M314 453h1M332 453h1M348 453h1M259 454h3M277 454h3M295 454h3M314 454h1M332 454h1M348 454h1M262 455h3M280 455h3M298 455h3M314 455h1M332 455h1M348 455h1M265 456h3M283 456h3M301 456h3M314 456h1M332 456h1M348 456h1M204 457h5M220 457h1M228 457h1M238 457h1M246 457h1M262 457h3M280 457h3M298 457h3M314 457h1M332 457h1M348 457h1M203 458h1M209 458h1M221 458h1M227 458h1M239 458h1M245 458h1M259 458h3M277 458h3M295 458h3M314 458h1M332 458h1M348 458h1M202 459h1M206 459h1M210 459h1M222 459h1M226 459h1M240 459h1M244 459h1M256 459h3M274 459h3M292 459h3M314 459h1M332 459h1M348 459h1M202 460h1M206 460h1M210 460h1M223 460h1M225 460h1M241 460h1M243 460h1M253 460h3M271 460h3M289 460h3M314 460h1M332 460h1M348 460h1M202 461h1M204 461h5M210 461h1M224 461h1M242 461h1M256 461h3M274 461h3M292 461h3M314 461h1M332 461h1M348 461h1M202 462h1M206 462h1M210 462h1M223 462h3M241 462h3M259 462h2M277 462h2M295 462h2M314 462h1M332 462h1M348 462h1M202 463h1M206 463h1M210 463h1M222 463h1M224 463h1M226 463h1M240 463h1M242 463h1M244 463h1M260 463h1M278 463h1M296 463h1M314 463h1M332 463h1M348 463h1M203 464h1M209 464h1M221 464h1M224 464h1M227 464h1M239 464h1M242 464h1M245 464h1M260 464h1M278 464h1M296 464h1M314 464h1M332 464h1M348 464h1M204 465h5M220 465h1M224 465h1M228 465h1M238 465h1M242 465h1M246 465h1M260 465h1M278 465h1M296 465h1M314 465h1M332 465h1M348 465h1M206 466h1M224 466h1M242 466h1M260 466h1M278 466h1M296 466h1M314 466h1M332 466h1M348 466h1M206 467h1M224 467h1M242 467h1M260 467h1M278 467h1M296 467h1M314 467h1M332 467h1M348 467h1M206 468h1M224 468h1M242 468h1M260 468h1M278 468h1M296 468h1M314 468h1M332 468h1M348 468h1M206 469h1M224 469h1M242 469h1M260 469h1M278 469h1M296 469h1M314 469h1M332 469h1M348 469h1M206 470h1M224 470h1M242 470h1M260 470h1M278 470h1M296 470h1M314 470h1M332 470h1M348 470h1M206 471h1M224 471h1M242 471h1M260 471h1M278 471h1M296 471h1M314 471h1M332 471h1M348 471h1M206 472h1M224 472h1M242 472h1M260 472h1M278 472h1M296 472h1M314 472h1M332 472h1M348 472h1M206 473h1M224 473h1M242 473h1M260 473h1M278 473h1M296 473h1M314 473h1M332 473h1M348 473h1M348 474h1M206 475h127M348 475h1M206 476h1M332 476h1M348 476h1M206 477h1M332 477h1M348 477h1M206 478h1M332 478h1M348 478h1M206 479h1M332 479h1M348 479h1M206 480h1M332 480h1M348 480h1M206 481h1M332 481h1M348 481h1M206 482h1M332 482h1M348 482h1M206 483h1M332 483h1M348 483h1M206 484h1M332 484h1M348 484h1M206 485h1M332 485h1M348 485h1M332 486h1M348 486h1M206 487h1M208 487h1M210 487h1M332 487h1M348 487h1M332 488h1M348 488h1M206 489h1M208 489h1M210 489h1M212 489h1M257 489h2M263 489h3M273 489h2M279 489h3M332 489h1M348 489h1M256 490h1M258 490h1M262 490h1M266 490h1M272 490h1M274 490h1M278 490h1M282 490h1M332 490h1M348 490h1M206 491h1M208 491h1M210 491h1M212 491h1M255 491h1M258 491h1M262 491h1M266 491h1M271 491h1M274 491h1M278 491h1M282 491h1M332 491h1M348 491h1M254 492h1M258 492h1M262 492h1M266 492h1M270 492h1M274 492h1M278 492h1M282 492h1M332 492h1M348 492h1M206 493h1M208 493h1M210 493h1M212 493h1M254 493h5M262 493h1M266 493h1M270 493h5M278 493h1M282 493h1M332 493h1M348 493h1M258 494h1M262 494h1M266 494h1M274 494h1M278 494h1M282 494h1M332 494h1M348 494h1M206 495h1M208 495h1M210 495h1M212 495h1M258 495h1M262 495h1M266 495h1M274 495h1M278 495h1M282 495h1M332 495h1M348 495h1M258 496h1M262 496h1M266 496h1M274 496h1M278 496h1M282 496h1M332 496h1M348 496h1M206 497h1M208 497h1M210 497h1M212 497h1M258 497h1M263 497h3M274 497h1M279 497h3M332 497h1M348 497h1M332 498h1M348 498h1M206 499h1M208 499h1M210 499h1M332 499h1M348 499h1M332 500h1M348 500h1M206 501h1M332 501h1M348 501h1M206 502h1M332 502h1M348 502h1M206 503h1M332 503h1M348 503h1M206 504h1M332 504h1M348 504h1M206 505h1M332 505h1M348 505h1M206 506h1M332 506h1M348 506h1M206 507h1M332 507h1M348 507h1M206 508h1M332 508h1M348 508h1M206 509h1M332 509h1M348 509h1M206 510h1M332 510h1M348 510h1M206 511h127M348 511h1M348 512h1M206 513h1M224 513h1M242 513h1M260 513h1M278 513h1M296 513h1M314 513h1M332 513h1M348 513h1M206 514h1M224 514h1M242 514h1M260 514h1M278 514h1M296 514h1M314 514h1M332 514h1M348 514h1M206 515h1M224 515h1M242 515h1M260 515h1M278 515h1M296 515h1M314 515h1M332 515h1M348 515h1M206 516h1M224 516h1M242 516h1M260 516h1M278 516h1M296 516h1M314 516h1M332 516h1M348 516h1M206 517h1M224 517h1M242 517h1M260 517h1M278 517h1M296 517h1M314 517h1M332 517h1M348 517h1M206 518h1M224 518h1M242 518h1M260 518h1M278 518h1M296 518h1M314 518h1M332 518h1M348 518h1M206 519h1M224 519h1M242 519h1M260 519h1M278 519h1M296 519h1M314 519h1M332 519h1M348 519h1M206 520h1M224 520h1M242 520h1M260 520h1M278 520h1M296 520h1M314 520h1M332 520h1M348 520h1M202 521h1M206 521h1M210 521h1M224 521h1M242 521h1M260 521h1M278 521h1M296 521h1M314 521h1M332 521h1M348 521h1M203 522h1M206 522h1M209 522h1M224 522h1M242 522h1M260 522h1M278 522h1M296 522h1M314 522h1M328 522h9M348 522h1M204 523h1M206 523h1M208 523h1M224 523h1M242 523h1M260 523h1M278 523h1M296 523h1M314 523h1M348 523h1M205 524h3M224 524h1M242 524h1M260 524h1M278 524h1M296 524h1M314 524h1M330 524h5M348 524h1M206 525h1M224 525h2M242 525h2M260 525h2M278 525h2M296 525h2M314 525h1M348 525h1M205 526h1M207 526h1M226 526h3M244 526h3M262 526h3M280 526h3M298 526h3M314 526h1M332 526h1M348 526h1M204 527h1M208 527h1M229 527h3M247 527h3M265 527h3M283 527h3M301 527h3M314 527h1M348 527h1M203 528h1M209 528h1M226 528h3M244 528h3M262 528h3M280 528h3M298 528h3M314 528h1M348 528h1M202 529h1M210 529h1M223 529h3M241 529h3M259 529h3M277 529h3M295 529h3M314 529h1M348 529h1M220 530h3M238 530h3M256 530h3M274 530h3M292 530h3M314 530h1M348 530h1M217 531h3M235 531h3M253 531h3M271 531h3M289 531h3M314 531h1M348 531h1M220 532h3M238 532h3M256 532h3M274 532h3M292 532h3M314 532h1M348 532h1M223 533h3M241 533h3M259 533h3M277 533h3M295 533h3M314 533h1M348 533h1M226 534h3M244 534h3M262 534h3M280 534h3M298 534h3M314 534h1M348 534h1M229 535h3M247 535h3M265 535h3M283 535h3M301 535h3M314 535h1M348 535h1M226 536h3M244 536h3M262 536h3M280 536h3M298 536h3M314 536h1M348 536h1M223 537h3M241 537h3M259 537h3M277 537h3M295 537h3M314 537h35M220 538h3M238 538h3M256 538h3M274 538h3M292 538h3M217 539h3M235 539h3M253 539h3M271 539h3M289 539h3M220 540h3M238 540h3M256 540h3M274 540h3M292 540h3M223 541h3M241 541h3M259 541h3M277 541h3M295 541h3M226 542h3M244 542h3M262 542h3M280 542h3M298 542h3M229 543h3M247 543h3M265 543h3M283 543h3M301 543h3M226 544h3M244 544h3M262 544h3M280 544h3M298 544h3M223 545h3M241 545h3M259 545h3M277 545h3M295 545h3M220 546h3M238 546h3M256 546h3M274 546h3M292 546h3M217 547h3M235 547h3M253 547h3M271 547h3M289 547h3M220 548h3M238 548h3M256 548h3M274 548h3M292 548h3M223 549h2M241 549h2M259 549h2M277 549h2M295 549h2M224 550h1M242 550h1M260 550h1M278 550h1M296 550h1M224 551h1M242 551h1M260 551h1M278 551h1M296 551h1M224 552h1M242 552h1M260 552h1M278 552h1M296 552h1M224 553h1M242 553h1M260 553h1M278 553h1M296 553h1M224 554h1M242 554h1M260 554h1M278 554h1M296 554h1M224 555h1M242 555h1M260 555h1M278 555h1M296 555h1M224 556h1M242 556h1M260 556h1M278 556h1M296 556h1M224 557h1M242 557h1M260 557h1M278 557h1M296 557h1M224 558h1M242 558h1M260 558h1M278 558h1M296 558h1M224 559h1M242 559h1M260 559h1M278 559h1M296 559h1M224 560h1M242 560h1M260 560h1M278 560h1M296 560h1M222 561h5M240 561h5M258 561h5M276 561h5M294 561h5M221 562h1M227 562h1M239 562h1M245 562h1M257 562h1M263 562h1M275 562h1M281 562h1M293 562h1M299 562h1M220 563h1M223 563h3M228 563h1M238 563h1M241 563h3M246 563h1M256 563h1M259 563h3M264 563h1M274 563h1M277 563h3M282 563h1M292 563h1M295 563h3M300 563h1M220 564h1M222 564h5M228 564h1M238 564h1M240 564h5M246 564h1M256 564h1M258 564h5M264 564h1M274 564h1M276 564h5M282 564h1M292 564h1M294 564h5M300 564h1M220 565h1M222 565h5M228 565h1M238 565h1M240 565h5M246 565h1M256 565h1M258 565h5M264 565h1M274 565h1M276 565h5M282 565h1M292 565h1M294 565h5M300 565h1M220 566h1M222 566h5M228 566h1M238 566h1M240 566h5M246 566h1M256 566h1M258 566h5M264 566h1M274 566h1M276 566h5M282 566h1M292 566h1M294 566h5M300 566h1M220 567h1M223 567h3M228 567h1M238 567h1M241 567h3M246 567h1M256 567h1M259 567h3M264 567h1M274 567h1M277 567h3M282 567h1M292 567h1M295 567h3M300 567h1M221 568h1M227 568h1M239 568h1M245 568h1M257 568h1M263 568h1M275 568h1M281 568h1M293 568h1M299 568h1M222 569h5M240 569h5M258 569h5M276 569h5M294 569h5" />
</svg>