<svg xmlns="http://www.w3.org/2000/svg" viewBox="0 -0.5 610 353" shape-rendering="crispEdges">
<metadata>Made with Pixels to Svg https://codepen.io/shshaw/pen/XbxvNj</metadata>
<path stroke="#ffffff" d="M384 3h1M448 3h1M512 3h1M384 4h1M448 4h1M512 4h1M384 5h1M448 5h1M512 5h1M384 6h1M448 6h1M512 6h1M384 7h1M448 7h1M512 7h1M384 8h1M448 8h1M512 8h1M384 9h1M448 9h1M512 9h1M384 10h1M448 10h1M512 10h1M384 11h1M448 11h1M512 11h1M384 12h1M448 12h1M512 12h1M384 13h1M448 13h1M512 13h1M384 14h1M448 14h1M512 14h1M384 15h1M448 15h1M512 15h1M384 16h1M448 16h1M512 16h1M384 17h1M448 17h1M512 17h1M384 18h1M448 18h1M512 18h1M384 19h1M448 19h1M512 19h1M384 20h1M448 20h1M512 20h1M384 21h1M448 21h1M512 21h1M384 22h1M448 22h1M512 22h1M384 23h1M448 23h1M512 23h1M384 24h1M448 24h1M512 24h1M384 25h1M448 25h1M512 25h1M384 26h1M448 26h1M512 26h1M384 27h1M448 27h1M512 27h1M384 28h1M448 28h1M512 28h1M384 29h1M448 29h1M512 29h1M384 30h1M448 30h1M512 30h1M384 31h1M448 31h1M512 31h1M384 32h1M448 32h1M512 32h1M384 33h1M448 33h1M512 33h1M384 34h1M448 34h1M512 34h1M384 35h1M448 35h1M512 35h1M384 36h1M448 36h1M512 36h1M384 37h1M448 37h1M512 37h1M384 38h1M448 38h1M512 38h1M384 39h1M448 39h1M512 39h1M126 40h5M158 40h5M190 40h5M222 40h5M254 40h5M286 40h5M318 40h5M350 40h5M384 40h1M448 40h1M512 40h1M124 41h2M131 41h2M156 41h2M163 41h2M188 41h2M195 41h2M220 41h2M227 41h2M252 41h2M259 41h2M284 41h2M291 41h2M316 41h2M323 41h2M348 41h2M355 41h2M384 41h1M448 41h1M512 41h1M62 42h5M94 42h5M123 42h1M126 42h5M133 42h1M155 42h1M158 42h5M165 42h1M187 42h1M190 42h5M197 42h1M219 42h1M222 42h5M229 42h1M251 42h1M254 42h5M261 42h1M283 42h1M286 42h5M293 42h1M315 42h1M318 42h5M325 42h1M347 42h1M350 42h5M357 42h1M384 42h1M448 42h1M512 42h1M60 43h2M67 43h2M92 43h2M99 43h2M122 43h1M124 43h2M131 43h2M134 43h1M154 43h1M156 43h2M163 43h2M166 43h1M186 43h1M188 43h2M195 43h2M198 43h1M218 43h1M220 43h2M227 43h2M230 43h1M250 43h1M252 43h2M259 43h2M262 43h1M282 43h1M284 43h2M291 43h2M294 43h1M314 43h1M316 43h2M323 43h2M326 43h1M346 43h1M348 43h2M355 43h2M358 43h1M384 43h1M448 43h1M512 43h1M59 44h1M69 44h1M91 44h1M101 44h1M121 44h1M123 44h1M133 44h1M135 44h1M153 44h1M155 44h1M165 44h1M167 44h1M185 44h1M187 44h1M197 44h1M199 44h1M217 44h1M219 44h1M229 44h1M231 44h1M249 44h1M251 44h1M261 44h1M263 44h1M281 44h1M283 44h1M293 44h1M295 44h1M313 44h1M315 44h1M325 44h1M327 44h1M345 44h1M347 44h1M357 44h1M359 44h1M384 44h1M448 44h1M512 44h1M59 45h1M69 45h1M91 45h1M101 45h1M121 45h1M123 45h1M133 45h1M135 45h1M153 45h1M155 45h1M165 45h1M167 45h1M185 45h1M187 45h1M197 45h1M199 45h1M217 45h1M219 45h1M229 45h1M231 45h1M249 45h1M251 45h1M261 45h1M263 45h1M281 45h1M283 45h1M293 45h1M295 45h1M313 45h1M315 45h1M325 45h1M327 45h1M345 45h1M347 45h1M357 45h1M359 45h1M384 45h1M448 45h1M512 45h1M58 46h1M70 46h1M90 46h1M102 46h1M120 46h1M122 46h1M134 46h1M136 46h1M152 46h1M154 46h1M166 46h1M168 46h1M184 46h1M186 46h1M198 46h1M200 46h1M216 46h1M218 46h1M230 46h1M232 46h1M248 46h1M250 46h1M262 46h1M264 46h1M280 46h1M282 46h1M294 46h1M296 46h1M312 46h1M314 46h1M326 46h1M328 46h1M344 46h1M346 46h1M358 46h1M360 46h1M384 46h1M448 46h1M512 46h1M58 47h1M70 47h1M90 47h1M102 47h1M120 47h1M122 47h1M134 47h1M136 47h1M152 47h1M154 47h1M166 47h1M168 47h1M184 47h1M186 47h1M198 47h1M200 47h1M216 47h1M218 47h1M230 47h1M232 47h1M248 47h1M250 47h1M262 47h1M264 47h1M280 47h1M282 47h1M294 47h1M296 47h1M312 47h1M314 47h1M326 47h1M328 47h1M344 47h1M346 47h1M358 47h1M360 47h1M384 47h1M448 47h1M512 47h1M58 48h1M70 48h21M102 48h1M120 48h1M122 48h1M134 48h1M136 48h17M154 48h1M166 48h1M168 48h17M186 48h1M198 48h1M200 48h17M218 48h1M230 48h1M232 48h17M250 48h1M262 48h1M264 48h17M282 48h1M294 48h1M296 48h17M314 48h1M326 48h1M328 48h19M358 48h1M360 48h1M384 48h1M448 48h1M512 48h1M58 49h1M70 49h1M90 49h1M102 49h1M120 49h1M122 49h1M134 49h1M136 49h1M152 49h1M154 49h1M166 49h1M168 49h1M184 49h1M186 49h1M198 49h1M200 49h1M216 49h1M218 49h1M230 49h1M232 49h1M248 49h1M250 49h1M262 49h1M264 49h1M280 49h1M282 49h1M294 49h1M296 49h1M312 49h1M314 49h1M326 49h1M328 49h1M344 49h1M346 49h1M358 49h1M360 49h1M383 49h1M448 49h1M512 49h1M58 50h1M70 50h1M90 50h1M102 50h1M120 50h1M122 50h1M134 50h1M136 50h1M152 50h1M154 50h1M166 50h1M168 50h1M184 50h1M186 50h1M198 50h1M200 50h1M216 50h1M218 50h1M230 50h1M232 50h1M248 50h1M250 50h1M262 50h1M264 50h1M280 50h1M282 50h1M294 50h1M296 50h1M312 50h1M314 50h1M326 50h1M328 50h1M344 50h1M346 50h1M358 50h1M360 50h1M382 50h1M448 50h1M512 50h1M59 51h1M69 51h1M91 51h1M101 51h1M121 51h1M123 51h1M133 51h1M135 51h1M153 51h1M155 51h1M165 51h1M167 51h1M185 51h1M187 51h1M197 51h1M199 51h1M217 51h1M219 51h1M229 51h1M231 51h1M249 51h1M251 51h1M261 51h1M263 51h1M281 51h1M283 51h1M293 51h1M295 51h1M313 51h1M315 51h1M325 51h1M327 51h1M345 51h1M347 51h1M357 51h1M359 51h1M381 51h1M448 51h1M512 51h1M59 52h1M69 52h1M91 52h1M101 52h1M121 52h1M123 52h1M133 52h1M135 52h1M153 52h1M155 52h1M165 52h1M167 52h1M185 52h1M187 52h1M197 52h1M199 52h1M217 52h1M219 52h1M229 52h1M231 52h1M249 52h1M251 52h1M261 52h1M263 52h1M281 52h1M283 52h1M293 52h1M295 52h1M313 52h1M315 52h1M325 52h1M327 52h1M345 52h1M347 52h1M357 52h1M359 52h1M380 52h1M448 52h1M512 52h1M60 53h2M67 53h3M92 53h2M99 53h2M122 53h1M124 53h2M131 53h2M134 53h1M154 53h1M156 53h2M163 53h2M166 53h1M186 53h1M188 53h2M195 53h2M198 53h1M218 53h1M220 53h2M227 53h2M230 53h1M250 53h1M252 53h2M259 53h2M262 53h1M282 53h1M284 53h2M291 53h2M294 53h1M314 53h1M316 53h2M323 53h2M326 53h1M346 53h1M348 53h2M355 53h2M358 53h1M379 53h1M448 53h1M512 53h1M62 54h5M70 54h1M94 54h5M123 54h1M126 54h5M133 54h1M155 54h1M158 54h5M165 54h1M187 54h1M190 54h5M197 54h1M219 54h1M222 54h5M229 54h1M251 54h1M254 54h5M261 54h1M283 54h1M286 54h5M293 54h1M315 54h1M318 54h5M325 54h1M347 54h1M350 54h5M357 54h1M359 54h1M378 54h1M448 54h1M512 54h1M71 55h1M96 55h1M124 55h2M131 55h2M156 55h2M163 55h2M188 55h2M195 55h2M220 55h2M227 55h2M252 55h2M259 55h2M284 55h2M291 55h2M316 55h2M323 55h2M348 55h2M355 55h2M360 55h1M377 55h1M448 55h1M512 55h1M72 56h1M96 56h1M126 56h5M158 56h5M190 56h5M222 56h5M254 56h5M286 56h5M318 56h5M350 56h5M361 56h1M376 56h1M448 56h1M512 56h1M73 57h1M96 57h1M362 57h1M375 57h1M448 57h1M512 57h1M74 58h1M96 58h1M363 58h1M374 58h1M448 58h1M512 58h1M75 59h1M96 59h1M364 59h1M373 59h1M448 59h1M512 59h1M76 60h1M96 60h1M365 60h1M372 60h1M448 60h1M512 60h1M77 61h1M96 61h1M366 61h1M371 61h1M448 61h1M512 61h1M78 62h1M96 62h1M367 62h1M448 62h1M512 62h1M79 63h1M96 63h1M368 63h1M448 63h1M512 63h1M80 64h1M96 64h1M369 64h1M448 64h1M512 64h1M81 65h1M96 65h1M370 65h1M448 65h1M512 65h1M82 66h1M96 66h1M371 66h1M445 66h7M512 66h1M540 66h7M83 67h1M96 67h1M365 67h1M372 67h1M442 67h3M452 67h3M512 67h1M537 67h3M547 67h3M84 68h1M96 68h1M364 68h1M373 68h1M441 68h2M454 68h2M512 68h1M536 68h2M549 68h2M85 69h1M96 69h1M363 69h1M374 69h1M439 69h2M456 69h2M512 69h1M534 69h2M551 69h2M86 70h1M96 70h1M362 70h1M375 70h1M438 70h2M457 70h2M512 70h1M533 70h2M552 70h2M87 71h1M96 71h1M192 71h1M352 71h1M361 71h1M376 71h1M438 71h1M458 71h1M512 71h1M533 71h1M553 71h1M62 72h5M88 72h1M94 72h5M158 72h5M192 72h1M222 72h5M286 72h5M318 72h5M352 72h1M360 72h1M377 72h1M437 72h1M459 72h1M512 72h1M532 72h1M554 72h1M60 73h2M67 73h2M89 73h1M92 73h2M99 73h2M156 73h2M163 73h2M185 73h1M199 73h1M220 73h2M227 73h2M284 73h2M291 73h2M316 73h2M323 73h2M345 73h1M359 73h1M378 73h1M436 73h2M459 73h2M512 73h1M531 73h2M554 73h2M59 74h1M62 74h5M69 74h1M90 74h2M94 74h5M101 74h1M126 74h5M155 74h1M158 74h5M165 74h1M186 74h1M190 74h5M198 74h1M219 74h1M222 74h5M229 74h1M254 74h5M283 74h1M286 74h5M293 74h1M315 74h1M318 74h5M325 74h1M346 74h1M350 74h5M358 74h1M379 74h1M436 74h1M460 74h1M512 74h1M531 74h1M555 74h1M58 75h1M60 75h2M67 75h2M70 75h1M90 75h1M92 75h2M99 75h2M102 75h1M124 75h2M131 75h2M154 75h1M156 75h2M163 75h2M166 75h1M188 75h2M195 75h2M218 75h1M220 75h2M227 75h2M230 75h1M252 75h2M259 75h2M282 75h1M284 75h2M291 75h2M294 75h1M314 75h1M316 75h2M323 75h2M326 75h1M348 75h2M355 75h3M380 75h1M436 75h1M460 75h1M512 75h1M531 75h1M555 75h1M57 76h1M59 76h1M69 76h1M71 76h1M89 76h1M91 76h1M101 76h1M103 76h1M123 76h1M133 76h1M153 76h1M155 76h1M165 76h1M167 76h1M187 76h1M197 76h1M217 76h1M219 76h1M229 76h1M231 76h1M251 76h1M261 76h1M281 76h1M283 76h1M293 76h1M295 76h1M313 76h1M315 76h1M325 76h1M327 76h1M347 76h1M357 76h1M381 76h1M435 76h1M461 76h1M512 76h1M530 76h1M556 76h1M57 77h1M59 77h1M69 77h1M71 77h1M89 77h1M91 77h1M101 77h1M103 77h1M123 77h1M133 77h1M153 77h1M155 77h1M165 77h1M167 77h1M187 77h1M197 77h1M217 77h1M219 77h1M229 77h1M231 77h1M251 77h1M261 77h1M281 77h1M283 77h1M293 77h1M295 77h1M313 77h1M315 77h1M325 77h1M327 77h1M347 77h1M357 77h1M382 77h1M435 77h1M461 77h1M512 77h1M530 77h1M556 77h1M56 78h1M58 78h1M70 78h1M72 78h1M88 78h1M90 78h1M102 78h1M104 78h1M122 78h1M134 78h1M152 78h1M154 78h1M166 78h1M168 78h1M186 78h1M198 78h1M216 78h1M218 78h1M230 78h1M232 78h1M250 78h1M262 78h1M280 78h1M282 78h1M294 78h1M296 78h1M312 78h1M314 78h1M326 78h1M328 78h1M346 78h1M358 78h1M383 78h1M435 78h1M461 78h1M512 78h1M530 78h1M556 78h1M56 79h1M58 79h1M70 79h1M72 79h1M88 79h1M90 79h1M102 79h1M104 79h1M122 79h1M134 79h1M152 79h1M154 79h1M166 79h1M168 79h1M186 79h1M198 79h1M216 79h1M218 79h1M230 79h1M232 79h1M250 79h1M262 79h1M280 79h1M282 79h1M294 79h1M296 79h1M312 79h1M314 79h1M326 79h1M328 79h1M346 79h1M358 79h1M384 79h52M461 79h1M512 79h1M530 79h1M556 79h1M56 80h1M58 80h1M70 80h1M72 80h1M88 80h1M90 80h1M102 80h1M104 80h1M122 80h1M134 80h1M152 80h1M154 80h1M166 80h1M168 80h1M183 80h2M186 80h1M198 80h1M200 80h2M216 80h1M218 80h1M230 80h1M232 80h1M250 80h1M262 80h1M280 80h1M282 80h1M294 80h1M296 80h1M312 80h1M314 80h1M326 80h1M328 80h1M343 80h2M346 80h1M358 80h1M360 80h2M435 80h1M461 80h1M512 80h1M530 80h1M556 80h1M56 81h1M58 81h1M70 81h1M72 81h1M88 81h1M90 81h1M102 81h1M104 81h1M122 81h1M134 81h1M152 81h1M154 81h1M166 81h1M168 81h1M186 81h1M198 81h1M216 81h1M218 81h1M230 81h1M232 81h1M250 81h1M262 81h1M280 81h1M282 81h1M294 81h1M296 81h1M312 81h1M314 81h1M326 81h1M328 81h1M346 81h1M358 81h1M435 81h1M461 81h1M512 81h1M530 81h1M556 81h1M56 82h1M58 82h1M70 82h1M72 82h1M88 82h1M90 82h1M102 82h1M104 82h1M122 82h1M134 82h1M152 82h1M154 82h1M166 82h1M168 82h1M186 82h1M198 82h1M216 82h1M218 82h1M230 82h1M232 82h1M250 82h1M262 82h1M280 82h1M282 82h1M294 82h1M296 82h1M312 82h1M314 82h1M326 82h1M328 82h1M346 82h1M358 82h1M435 82h1M461 82h1M512 82h1M530 82h1M556 82h1M57 83h1M59 83h1M69 83h1M71 83h1M89 83h1M91 83h1M101 83h1M103 83h1M123 83h1M133 83h1M153 83h1M155 83h1M165 83h1M167 83h1M187 83h1M197 83h1M217 83h1M219 83h1M229 83h1M231 83h1M251 83h1M261 83h1M281 83h1M283 83h1M293 83h1M295 83h1M313 83h1M315 83h1M325 83h1M327 83h1M347 83h1M357 83h1M436 83h1M460 83h1M512 83h1M531 83h1M555 83h1M57 84h1M59 84h1M69 84h1M71 84h1M89 84h1M91 84h1M101 84h1M103 84h1M123 84h1M133 84h1M153 84h1M155 84h1M165 84h1M167 84h1M187 84h1M197 84h1M217 84h1M219 84h1M229 84h1M231 84h1M251 84h1M261 84h1M281 84h1M283 84h1M293 84h1M295 84h1M313 84h1M315 84h1M325 84h1M327 84h1M347 84h1M357 84h1M436 84h1M460 84h1M512 84h1M531 84h1M555 84h1M58 85h1M60 85h2M67 85h2M70 85h1M90 85h1M92 85h2M99 85h2M102 85h1M124 85h2M131 85h2M154 85h1M156 85h2M163 85h2M166 85h1M188 85h2M195 85h2M218 85h1M220 85h2M227 85h2M230 85h1M252 85h2M259 85h2M282 85h1M284 85h2M291 85h2M294 85h1M314 85h1M316 85h2M323 85h2M326 85h1M348 85h2M355 85h2M436 85h2M459 85h2M512 85h1M531 85h2M554 85h2M59 86h1M62 86h5M69 86h1M91 86h1M94 86h5M101 86h1M126 86h5M155 86h1M158 86h5M165 86h1M186 86h1M190 86h5M198 86h1M219 86h1M222 86h5M229 86h1M254 86h5M283 86h1M286 86h5M293 86h1M315 86h1M318 86h5M325 86h1M346 86h1M350 86h5M358 86h1M437 86h1M459 86h1M512 86h1M532 86h1M554 86h1M60 87h2M67 87h2M92 87h2M99 87h2M128 87h1M156 87h2M163 87h2M185 87h1M192 87h1M199 87h1M220 87h2M227 87h2M256 87h1M284 87h2M291 87h2M316 87h2M323 87h2M345 87h1M359 87h1M438 87h1M458 87h1M512 87h1M533 87h1M553 87h1M62 88h5M94 88h5M128 88h1M158 88h5M192 88h1M222 88h5M256 88h1M286 88h5M318 88h5M352 88h1M438 88h2M457 88h2M512 88h1M533 88h2M552 88h2M64 89h1M128 89h1M160 89h1M191 89h1M193 89h1M224 89h1M256 89h1M288 89h1M320 89h1M352 89h1M439 89h2M456 89h2M512 89h1M534 89h2M551 89h2M64 90h1M128 90h1M160 90h1M190 90h1M194 90h1M224 90h1M256 90h1M288 90h1M320 90h1M441 90h2M454 90h2M512 90h1M536 90h2M549 90h2M64 91h1M128 91h1M160 91h1M189 91h1M195 91h1M224 91h1M256 91h1M288 91h1M320 91h1M442 91h3M452 91h3M512 91h1M537 91h3M547 91h3M64 92h1M128 92h1M160 92h1M188 92h1M196 92h1M224 92h1M256 92h1M288 92h1M320 92h1M445 92h7M512 92h1M540 92h7M64 93h1M122 93h13M160 93h1M187 93h1M197 93h1M224 93h1M250 93h13M288 93h1M320 93h1M512 93h1M64 94h1M160 94h1M182 94h1M186 94h1M198 94h1M202 94h1M224 94h1M288 94h1M320 94h1M512 94h1M64 95h1M160 95h1M183 95h1M185 95h1M199 95h1M201 95h1M224 95h1M288 95h1M320 95h1M512 95h1M64 96h1M160 96h1M184 96h1M200 96h1M224 96h1M288 96h1M320 96h1M512 96h1M64 97h1M160 97h1M183 97h1M185 97h1M199 97h1M201 97h1M224 97h1M288 97h1M320 97h1M512 97h1M64 98h1M122 98h13M160 98h1M182 98h1M186 98h1M198 98h1M202 98h1M224 98h1M250 98h13M288 98h1M320 98h1M512 98h1M64 99h1M128 99h1M160 99h1M187 99h1M197 99h1M224 99h1M256 99h1M288 99h1M320 99h1M408 99h1M512 99h1M64 100h1M128 100h1M160 100h1M188 100h1M196 100h1M224 100h1M256 100h1M288 100h1M320 100h1M409 100h1M512 100h1M64 101h1M128 101h1M160 101h1M189 101h1M195 101h1M224 101h1M256 101h1M288 101h1M320 101h1M408 101h1M410 101h1M512 101h1M64 102h1M128 102h1M160 102h1M190 102h1M194 102h1M224 102h1M256 102h1M288 102h1M320 102h1M407 102h1M409 102h1M411 102h1M512 102h1M64 103h1M128 103h1M160 103h1M191 103h1M193 103h1M224 103h1M256 103h1M288 103h1M320 103h1M408 103h1M410 103h1M412 103h1M512 103h1M64 104h1M126 104h5M160 104h1M192 104h1M224 104h1M254 104h5M288 104h1M320 104h1M407 104h1M409 104h1M411 104h1M413 104h1M512 104h1M64 105h1M124 105h2M131 105h2M160 105h1M185 105h1M192 105h1M199 105h1M224 105h1M252 105h2M259 105h2M288 105h1M320 105h1M406 105h1M408 105h1M410 105h1M412 105h1M414 105h1M512 105h1M62 106h5M94 106h5M123 106h1M126 106h5M133 106h1M158 106h5M186 106h1M190 106h5M198 106h1M222 106h5M251 106h1M254 106h5M261 106h1M286 106h5M318 106h5M350 106h5M407 106h1M409 106h1M411 106h1M413 106h1M415 106h1M512 106h1M60 107h2M67 107h2M92 107h2M99 107h2M122 107h1M124 107h2M131 107h2M134 107h1M156 107h2M163 107h2M188 107h2M195 107h2M220 107h2M227 107h2M250 107h1M252 107h2M259 107h2M262 107h1M284 107h2M291 107h2M316 107h2M323 107h2M348 107h2M355 107h2M406 107h1M408 107h1M410 107h1M412 107h1M414 107h1M416 107h1M512 107h1M59 108h1M69 108h1M91 108h1M101 108h1M121 108h1M123 108h1M133 108h1M135 108h1M155 108h1M165 108h1M187 108h1M197 108h1M219 108h1M229 108h1M249 108h1M251 108h1M261 108h1M263 108h1M283 108h1M293 108h1M315 108h1M325 108h1M347 108h1M357 108h1M405 108h1M407 108h1M409 108h1M411 108h1M413 108h1M415 108h1M512 108h1M59 109h1M69 109h1M91 109h1M101 109h1M121 109h1M123 109h1M133 109h1M135 109h1M155 109h1M165 109h1M187 109h1M197 109h1M219 109h1M229 109h1M249 109h1M251 109h1M261 109h1M263 109h1M283 109h1M293 109h1M315 109h1M325 109h1M347 109h1M357 109h1M406 109h1M408 109h1M410 109h1M412 109h1M414 109h1M512 109h1M58 110h1M70 110h1M90 110h1M102 110h1M120 110h1M122 110h1M134 110h1M136 110h1M154 110h1M166 110h1M186 110h1M198 110h1M218 110h1M230 110h1M248 110h1M250 110h1M262 110h1M264 110h1M282 110h1M294 110h1M314 110h1M326 110h1M346 110h1M358 110h1M405 110h1M407 110h1M409 110h1M411 110h1M413 110h1M512 110h1M58 111h1M70 111h1M90 111h1M102 111h1M120 111h1M122 111h1M134 111h1M136 111h1M154 111h1M166 111h1M186 111h1M198 111h1M218 111h1M230 111h1M248 111h1M250 111h1M262 111h1M264 111h1M282 111h1M294 111h1M314 111h1M326 111h1M346 111h1M358 111h1M404 111h1M406 111h1M408 111h1M410 111h1M412 111h1M512 111h1M58 112h1M70 112h21M102 112h1M120 112h1M122 112h1M134 112h1M136 112h1M154 112h1M166 112h1M183 112h2M186 112h1M198 112h1M200 112h2M218 112h1M230 112h1M248 112h1M250 112h1M262 112h1M264 112h1M282 112h1M294 112h1M314 112h1M326 112h1M346 112h1M358 112h1M405 112h1M407 112h1M409 112h1M411 112h1M512 112h1M58 113h1M70 113h1M90 113h1M102 113h1M120 113h1M122 113h1M134 113h1M136 113h1M154 113h1M166 113h1M186 113h1M198 113h1M218 113h1M230 113h1M248 113h1M250 113h1M262 113h1M264 113h1M282 113h1M294 113h1M314 113h1M326 113h1M346 113h1M358 113h1M404 113h1M406 113h1M408 113h1M410 113h1M512 113h1M58 114h1M70 114h1M90 114h1M102 114h1M120 114h1M122 114h1M134 114h1M136 114h1M154 114h1M166 114h1M186 114h1M198 114h1M218 114h1M230 114h1M248 114h1M250 114h1M262 114h1M264 114h1M282 114h1M294 114h1M314 114h1M326 114h1M346 114h1M358 114h1M403 114h1M405 114h1M407 114h1M409 114h1M512 114h1M59 115h1M69 115h1M91 115h1M101 115h1M121 115h1M123 115h1M133 115h1M135 115h1M155 115h1M165 115h1M187 115h1M197 115h1M219 115h1M229 115h1M249 115h1M251 115h1M261 115h1M263 115h1M283 115h1M293 115h1M315 115h1M325 115h1M347 115h1M357 115h1M402 115h1M404 115h1M406 115h1M408 115h1M512 115h1M59 116h1M69 116h1M91 116h1M101 116h1M121 116h1M123 116h1M133 116h1M135 116h1M155 116h1M165 116h1M187 116h1M197 116h1M219 116h1M229 116h1M249 116h1M251 116h1M261 116h1M263 116h1M283 116h1M293 116h1M315 116h1M325 116h1M347 116h1M357 116h1M403 116h1M405 116h1M407 116h1M512 116h1M60 117h2M67 117h2M92 117h2M99 117h2M122 117h1M124 117h2M131 117h2M134 117h1M156 117h2M163 117h2M188 117h2M195 117h2M220 117h2M227 117h2M250 117h1M252 117h2M259 117h2M262 117h1M284 117h2M291 117h2M316 117h2M323 117h2M348 117h2M355 117h2M358 117h1M402 117h1M404 117h1M406 117h1M426 117h1M512 117h1M62 118h5M94 118h5M123 118h1M126 118h5M133 118h1M158 118h5M186 118h1M190 118h5M198 118h1M222 118h5M251 118h1M254 118h5M261 118h1M286 118h5M318 118h5M350 118h5M359 118h1M401 118h1M403 118h1M405 118h1M423 118h1M425 118h1M427 118h1M512 118h1M64 119h1M96 119h1M124 119h2M131 119h2M160 119h1M185 119h1M199 119h1M224 119h1M252 119h2M259 119h2M288 119h1M320 119h1M360 119h1M402 119h1M404 119h1M420 119h1M422 119h1M424 119h1M426 119h1M428 119h1M512 119h1M64 120h1M96 120h1M126 120h5M160 120h1M192 120h1M224 120h1M254 120h5M288 120h1M320 120h1M361 120h1M401 120h1M403 120h1M417 120h1M419 120h1M421 120h1M423 120h1M425 120h1M427 120h1M429 120h1M512 120h1M64 121h1M96 121h1M160 121h1M192 121h1M224 121h1M288 121h1M320 121h1M362 121h1M400 121h1M402 121h1M414 121h1M416 121h1M418 121h1M420 121h1M422 121h1M424 121h1M426 121h1M428 121h1M430 121h1M512 121h1M64 122h1M96 122h1M160 122h1M224 122h1M288 122h1M320 122h1M363 122h1M401 122h1M411 122h1M413 122h1M415 122h1M417 122h1M419 122h1M421 122h1M431 122h1M512 122h1M64 123h1M96 123h1M160 123h1M224 123h1M288 123h1M320 123h1M364 123h1M400 123h1M408 123h1M410 123h1M412 123h1M414 123h1M416 123h1M418 123h1M432 123h1M512 123h1M530 123h1M539 123h3M558 123h1M64 124h1M96 124h1M160 124h1M224 124h1M288 124h1M320 124h1M365 124h1M399 124h1M405 124h1M407 124h1M409 124h1M411 124h1M413 124h1M415 124h1M417 124h1M433 124h1M512 124h1M530 124h1M538 124h1M542 124h1M558 124h1M64 125h1M96 125h1M160 125h1M224 125h1M288 125h1M320 125h1M366 125h1M402 125h1M404 125h1M406 125h1M408 125h1M410 125h1M412 125h1M414 125h1M416 125h1M512 125h1M530 125h1M538 125h1M542 125h1M558 125h1M64 126h1M96 126h1M160 126h1M224 126h1M288 126h1M320 126h1M367 126h1M401 126h1M403 126h1M405 126h1M407 126h1M409 126h1M411 126h1M413 126h1M415 126h1M435 126h1M512 126h1M530 126h1M538 126h1M542 126h1M558 126h1M64 127h1M96 127h1M160 127h1M224 127h1M288 127h1M320 127h1M368 127h1M400 127h1M402 127h1M404 127h1M406 127h1M408 127h1M410 127h1M412 127h1M414 127h1M434 127h1M436 127h1M512 127h1M530 127h1M539 127h3M558 127h1M64 128h1M96 128h1M160 128h1M224 128h1M288 128h1M320 128h1M369 128h1M401 128h1M403 128h1M405 128h1M407 128h1M409 128h1M411 128h1M413 128h1M433 128h1M435 128h1M511 128h2M530 128h1M547 128h3M558 128h1M64 129h1M96 129h1M160 129h1M224 129h1M288 129h1M320 129h1M370 129h1M402 129h1M404 129h1M406 129h1M408 129h1M410 129h1M412 129h1M414 129h1M432 129h1M434 129h1M436 129h1M510 129h1M512 129h1M530 129h1M546 129h1M550 129h1M558 129h1M64 130h1M96 130h1M160 130h1M224 130h1M288 130h1M320 130h1M371 130h1M403 130h1M405 130h1M407 130h1M409 130h1M411 130h1M413 130h1M431 130h1M433 130h1M435 130h1M437 130h1M509 130h1M512 130h1M530 130h1M546 130h1M550 130h1M558 130h1M64 131h1M96 131h1M160 131h1M224 131h1M288 131h1M320 131h1M372 131h1M404 131h1M406 131h1M408 131h1M410 131h1M412 131h1M430 131h1M432 131h1M434 131h1M436 131h1M508 131h1M512 131h1M530 131h1M546 131h1M550 131h1M558 131h1M64 132h1M96 132h1M160 132h1M224 132h1M288 132h1M320 132h1M373 132h1M405 132h1M407 132h1M409 132h1M411 132h1M413 132h1M429 132h1M431 132h1M433 132h1M435 132h1M437 132h1M507 132h1M512 132h1M530 132h1M547 132h3M558 132h1M64 133h1M96 133h1M160 133h1M224 133h1M288 133h1M320 133h1M374 133h1M406 133h1M408 133h1M410 133h1M412 133h1M428 133h1M430 133h1M432 133h1M434 133h1M436 133h1M438 133h1M506 133h1M512 133h1M530 133h1M558 133h1M64 134h1M96 134h1M160 134h1M224 134h1M288 134h1M320 134h1M375 134h1M407 134h1M409 134h1M411 134h1M427 134h1M429 134h1M431 134h1M433 134h1M435 134h1M437 134h1M505 134h1M512 134h1M530 134h1M558 134h1M64 135h1M96 135h1M160 135h1M224 135h1M288 135h1M320 135h1M376 135h1M408 135h1M410 135h1M412 135h1M426 135h1M428 135h1M430 135h1M432 135h1M434 135h1M436 135h1M438 135h1M504 135h1M512 135h1M530 135h13M558 135h1M64 136h1M96 136h1M160 136h1M224 136h1M288 136h1M320 136h1M377 136h1M409 136h1M411 136h1M425 136h1M427 136h1M429 136h1M431 136h1M433 136h1M435 136h1M437 136h1M503 136h1M512 136h1M558 136h1M64 137h1M96 137h1M160 137h1M224 137h1M288 137h1M320 137h1M378 137h1M410 137h1M412 137h1M424 137h1M426 137h1M428 137h1M430 137h1M432 137h1M434 137h1M436 137h1M438 137h1M502 137h1M512 137h1M64 138h1M96 138h1M160 138h1M224 138h1M288 138h1M320 138h1M379 138h1M411 138h1M413 138h1M423 138h1M425 138h1M427 138h1M429 138h1M431 138h1M433 138h1M435 138h1M437 138h1M501 138h1M512 138h1M64 139h1M96 139h1M160 139h1M224 139h1M288 139h1M320 139h1M380 139h1M412 139h1M422 139h1M424 139h1M426 139h1M428 139h1M430 139h1M432 139h1M434 139h1M436 139h1M438 139h1M500 139h1M512 139h1M64 140h1M96 140h1M160 140h1M224 140h1M288 140h1M320 140h1M381 140h1M413 140h1M421 140h1M423 140h1M425 140h1M427 140h1M429 140h1M431 140h1M433 140h1M435 140h1M437 140h1M499 140h1M512 140h1M530 140h6M542 140h1M546 140h13M64 141h1M96 141h1M160 141h1M224 141h1M288 141h1M320 141h1M382 141h1M414 141h1M420 141h1M422 141h1M424 141h1M426 141h1M428 141h1M430 141h1M432 141h1M434 141h1M436 141h1M498 141h1M512 141h1M535 141h1M542 141h1M558 141h1M64 142h1M96 142h1M160 142h1M224 142h1M288 142h1M320 142h1M383 142h1M415 142h1M419 142h1M421 142h1M423 142h1M425 142h1M427 142h1M429 142h1M431 142h1M433 142h1M435 142h1M497 142h1M512 142h1M535 142h1M542 142h1M558 142h1M64 143h1M96 143h1M160 143h1M224 143h1M288 143h1M320 143h1M384 143h1M418 143h1M420 143h1M422 143h1M424 143h1M426 143h1M428 143h1M430 143h1M432 143h1M434 143h1M496 143h1M512 143h1M535 143h1M542 143h1M558 143h1M64 144h1M96 144h1M160 144h1M224 144h1M288 144h1M320 144h1M384 144h1M417 144h1M419 144h1M421 144h1M423 144h1M425 144h1M427 144h1M429 144h1M431 144h1M433 144h1M495 144h1M512 144h1M535 144h1M542 144h1M547 144h3M558 144h1M64 145h1M96 145h1M160 145h1M224 145h1M288 145h1M320 145h1M384 145h1M418 145h1M420 145h1M422 145h1M424 145h1M426 145h1M428 145h1M430 145h1M432 145h1M494 145h1M512 145h1M535 145h1M542 145h1M546 145h1M550 145h1M558 145h1M64 146h1M96 146h1M160 146h1M224 146h1M288 146h1M320 146h1M384 146h1M419 146h1M421 146h1M423 146h1M425 146h1M427 146h1M429 146h1M431 146h1M493 146h1M512 146h1M535 146h1M542 146h1M546 146h1M550 146h1M558 146h1M64 147h1M96 147h1M160 147h1M224 147h1M288 147h1M320 147h1M384 147h1M422 147h1M424 147h1M426 147h1M428 147h1M492 147h1M512 147h1M535 147h1M542 147h1M546 147h1M550 147h1M558 147h1M64 148h1M96 148h1M160 148h1M224 148h1M288 148h1M320 148h1M384 148h1M491 148h1M512 148h1M535 148h1M542 148h1M547 148h3M558 148h1M64 149h1M96 149h1M160 149h1M224 149h1M288 149h1M320 149h1M384 149h1M490 149h1M512 149h1M535 149h1M542 149h1M558 149h1M64 150h1M96 150h1M160 150h1M224 150h1M288 150h1M320 150h1M384 150h1M489 150h1M512 150h1M535 150h1M542 150h1M558 150h1M64 151h1M96 151h1M160 151h1M224 151h1M288 151h1M320 151h1M384 151h1M488 151h1M512 151h1M535 151h1M542 151h1M558 151h1M64 152h1M96 152h1M160 152h1M224 152h1M288 152h1M320 152h1M384 152h1M487 152h1M512 152h1M535 152h8M546 152h13M64 153h1M96 153h1M160 153h1M224 153h1M288 153h1M320 153h1M384 153h1M486 153h1M512 153h1M64 154h1M96 154h1M160 154h1M224 154h1M288 154h1M320 154h1M384 154h1M485 154h1M512 154h1M64 155h1M96 155h1M160 155h1M224 155h1M288 155h1M320 155h1M384 155h1M484 155h1M512 155h1M64 156h1M96 156h1M160 156h1M224 156h1M288 156h1M320 156h1M384 156h1M483 156h1M512 156h1M64 157h1M96 157h1M160 157h1M224 157h1M288 157h1M320 157h1M384 157h1M482 157h1M512 157h1M64 158h1M96 158h1M160 158h1M224 158h1M288 158h1M320 158h1M384 158h1M481 158h1M512 158h1M64 159h1M96 159h1M160 159h1M224 159h1M288 159h1M320 159h1M384 159h1M480 159h1M512 159h1M64 160h1M96 160h1M160 160h1M224 160h1M288 160h1M320 160h1M384 160h1M479 160h1M512 160h1M64 161h1M96 161h1M160 161h1M224 161h1M287 161h1M320 161h1M384 161h1M478 161h1M512 161h1M64 162h1M96 162h1M160 162h1M224 162h1M286 162h1M320 162h1M384 162h1M477 162h1M512 162h2M64 163h1M96 163h1M160 163h1M224 163h1M285 163h1M320 163h1M384 163h1M476 163h1M512 163h1M514 163h1M64 164h1M96 164h1M160 164h1M224 164h1M284 164h1M320 164h1M384 164h1M475 164h1M512 164h1M515 164h1M59 165h11M96 165h1M160 165h1M224 165h1M251 165h11M283 165h1M320 165h1M384 165h1M443 165h11M474 165h1M512 165h1M516 165h1M539 165h11M56 166h3M70 166h3M96 166h1M160 166h1M224 166h1M248 166h3M262 166h3M282 166h1M320 166h1M384 166h1M440 166h3M454 166h3M473 166h1M512 166h1M517 166h1M536 166h3M550 166h3M53 167h3M73 167h3M96 167h1M160 167h1M224 167h1M245 167h3M265 167h3M281 167h1M320 167h1M384 167h1M437 167h3M457 167h3M472 167h1M512 167h1M518 167h1M533 167h3M553 167h3M51 168h2M76 168h2M96 168h1M160 168h1M224 168h1M243 168h2M268 168h2M280 168h1M320 168h1M384 168h1M435 168h2M460 168h2M471 168h1M512 168h1M519 168h1M531 168h2M556 168h2M49 169h2M78 169h2M96 169h1M160 169h1M224 169h1M241 169h2M270 169h2M279 169h1M320 169h1M384 169h1M433 169h2M462 169h2M470 169h1M512 169h1M520 169h1M529 169h2M558 169h2M48 170h2M79 170h2M96 170h1M160 170h1M224 170h1M240 170h2M271 170h2M278 170h1M320 170h1M384 170h1M432 170h2M463 170h2M469 170h1M512 170h1M521 170h1M528 170h2M559 170h2M47 171h1M81 171h1M96 171h1M160 171h1M224 171h1M239 171h1M273 171h1M277 171h1M320 171h1M384 171h1M431 171h1M465 171h1M468 171h1M512 171h1M522 171h1M527 171h1M561 171h1M46 172h1M82 172h1M96 172h1M160 172h1M224 172h1M238 172h1M274 172h1M276 172h1M320 172h1M384 172h1M430 172h1M466 172h2M512 172h1M523 172h1M526 172h1M562 172h1M45 173h1M83 173h1M96 173h1M160 173h1M224 173h1M237 173h1M275 173h1M320 173h1M384 173h1M429 173h1M467 173h1M512 173h1M524 173h2M563 173h1M44 174h1M84 174h1M96 174h1M160 174h1M224 174h1M236 174h1M276 174h1M320 174h1M384 174h1M428 174h1M468 174h1M512 174h1M524 174h1M564 174h1M43 175h1M85 175h1M96 175h1M160 175h1M224 175h1M235 175h1M277 175h1M320 175h1M384 175h1M427 175h1M469 175h1M512 175h1M523 175h1M565 175h1M42 176h1M86 176h1M96 176h1M160 176h1M224 176h1M234 176h1M278 176h1M320 176h1M384 176h1M426 176h1M470 176h1M512 176h1M522 176h1M566 176h1M41 177h2M86 177h2M96 177h1M160 177h1M224 177h1M233 177h2M278 177h2M320 177h1M384 177h1M425 177h2M470 177h2M512 177h1M521 177h2M566 177h2M41 178h1M87 178h1M96 178h1M160 178h1M224 178h1M233 178h1M279 178h1M320 178h1M384 178h1M425 178h1M471 178h1M512 178h1M521 178h1M567 178h1M40 179h1M88 179h1M96 179h1M157 179h7M224 179h1M232 179h1M280 179h1M320 179h1M349 179h7M384 179h1M424 179h1M472 179h1M512 179h1M520 179h1M568 179h1M40 180h1M88 180h1M96 180h1M154 180h3M164 180h3M224 180h1M232 180h1M280 180h1M320 180h1M346 180h3M356 180h3M384 180h1M424 180h1M472 180h1M512 180h1M520 180h1M568 180h1M39 181h1M89 181h1M96 181h1M153 181h2M166 181h2M224 181h1M231 181h1M281 181h1M320 181h1M345 181h2M358 181h2M384 181h1M423 181h1M473 181h1M512 181h1M519 181h1M569 181h1M39 182h1M89 182h1M96 182h1M151 182h2M168 182h2M224 182h1M231 182h1M281 182h1M320 182h1M343 182h2M360 182h2M384 182h1M423 182h1M473 182h1M512 182h1M519 182h1M569 182h1M39 183h1M89 183h1M96 183h1M150 183h2M169 183h2M224 183h1M231 183h1M281 183h1M320 183h1M342 183h2M361 183h2M384 183h1M423 183h1M473 183h1M512 183h1M519 183h1M569 183h1M38 184h1M90 184h1M96 184h1M150 184h1M170 184h1M224 184h1M230 184h1M282 184h1M320 184h1M342 184h1M362 184h1M384 184h1M422 184h1M474 184h1M512 184h1M518 184h1M570 184h1M38 185h1M90 185h1M96 185h1M149 185h1M171 185h1M224 185h1M230 185h1M282 185h1M320 185h1M341 185h1M363 185h1M384 185h1M422 185h1M474 185h1M512 185h1M518 185h1M570 185h1M38 186h1M90 186h1M96 186h1M148 186h2M171 186h2M224 186h1M230 186h1M282 186h1M320 186h1M340 186h2M363 186h2M384 186h1M422 186h1M474 186h1M512 186h1M518 186h1M570 186h1M37 187h1M91 187h1M96 187h1M148 187h1M172 187h1M224 187h1M229 187h1M283 187h1M320 187h1M340 187h1M364 187h1M384 187h1M421 187h1M475 187h1M512 187h1M517 187h1M571 187h1M37 188h1M91 188h1M148 188h1M172 188h1M224 188h1M229 188h1M283 188h1M320 188h1M340 188h1M364 188h1M384 188h1M421 188h1M475 188h1M512 188h1M517 188h1M571 188h1M37 189h1M91 189h1M147 189h1M173 189h1M224 189h1M229 189h1M283 189h1M320 189h1M339 189h1M365 189h1M421 189h1M475 189h1M512 189h1M517 189h1M571 189h1M37 190h1M91 190h1M147 190h1M173 190h1M224 190h1M229 190h1M283 190h1M320 190h1M339 190h1M365 190h1M421 190h1M475 190h1M512 190h1M517 190h1M571 190h1M37 191h1M91 191h1M147 191h1M173 191h1M224 191h1M229 191h1M283 191h1M320 191h1M339 191h1M365 191h1M421 191h1M475 191h1M512 191h1M517 191h1M571 191h1M37 192h1M91 192h57M173 192h1M224 192h1M229 192h1M283 192h1M320 192h1M339 192h1M365 192h57M475 192h1M512 192h1M517 192h1M571 192h1M37 193h1M91 193h1M147 193h1M173 193h1M224 193h1M229 193h1M283 193h1M320 193h1M339 193h1M365 193h1M421 193h1M475 193h1M512 193h1M517 193h1M571 193h1M37 194h1M91 194h1M147 194h1M173 194h1M224 194h1M229 194h1M283 194h1M320 194h1M339 194h1M365 194h1M421 194h1M475 194h1M512 194h1M517 194h1M571 194h1M37 195h1M91 195h1M147 195h1M173 195h1M224 195h1M229 195h1M283 195h1M320 195h1M339 195h1M365 195h1M421 195h1M475 195h1M512 195h1M517 195h1M571 195h1M37 196h1M91 196h1M148 196h1M172 196h1M224 196h1M229 196h1M283 196h1M320 196h1M340 196h1M364 196h1M384 196h1M421 196h1M475 196h1M512 196h1M517 196h1M571 196h1M37 197h1M91 197h1M96 197h1M148 197h1M172 197h1M224 197h1M229 197h1M283 197h1M320 197h1M340 197h1M364 197h1M384 197h1M421 197h1M475 197h1M512 197h1M517 197h1M571 197h1M38 198h1M90 198h1M96 198h1M148 198h2M171 198h2M224 198h1M230 198h1M282 198h1M320 198h1M340 198h2M363 198h2M384 198h1M422 198h1M474 198h1M512 198h1M518 198h1M570 198h1M38 199h1M90 199h1M96 199h1M149 199h1M171 199h1M224 199h1M230 199h1M282 199h1M320 199h1M341 199h1M363 199h1M384 199h1M422 199h1M474 199h1M512 199h1M518 199h1M570 199h1M38 200h1M90 200h1M96 200h1M150 200h1M170 200h1M224 200h1M230 200h1M282 200h1M320 200h1M342 200h1M362 200h1M384 200h1M422 200h1M474 200h1M512 200h1M518 200h1M570 200h1M39 201h1M89 201h1M96 201h1M150 201h2M169 201h2M224 201h1M231 201h1M281 201h1M320 201h1M342 201h2M361 201h2M384 201h1M423 201h1M473 201h1M512 201h1M519 201h1M569 201h1M39 202h1M89 202h1M96 202h1M151 202h2M168 202h2M224 202h1M231 202h1M281 202h1M320 202h1M343 202h2M360 202h2M384 202h1M423 202h1M473 202h1M512 202h1M519 202h1M569 202h1M39 203h1M89 203h1M96 203h1M153 203h2M166 203h2M224 203h1M231 203h1M281 203h1M320 203h1M345 203h2M358 203h2M384 203h1M423 203h1M473 203h1M512 203h1M519 203h1M569 203h1M40 204h1M88 204h1M96 204h1M154 204h3M164 204h3M224 204h1M232 204h1M280 204h1M320 204h1M346 204h3M356 204h3M384 204h1M424 204h1M472 204h1M512 204h1M520 204h1M568 204h1M40 205h1M88 205h1M96 205h1M157 205h7M224 205h1M232 205h1M280 205h1M320 205h1M349 205h7M384 205h1M424 205h1M472 205h1M512 205h1M520 205h1M568 205h1M41 206h1M87 206h1M96 206h1M160 206h1M224 206h1M233 206h1M279 206h1M320 206h1M384 206h1M425 206h1M471 206h1M512 206h1M521 206h1M567 206h1M41 207h2M86 207h2M96 207h1M160 207h1M224 207h1M233 207h2M278 207h2M320 207h1M384 207h1M425 207h2M470 207h2M512 207h1M521 207h2M566 207h2M42 208h1M86 208h1M96 208h1M160 208h1M224 208h1M234 208h1M278 208h1M320 208h1M384 208h1M426 208h1M470 208h1M512 208h1M522 208h1M566 208h1M43 209h1M85 209h1M96 209h1M160 209h1M224 209h1M235 209h1M277 209h1M320 209h1M384 209h1M427 209h1M469 209h1M512 209h1M523 209h1M565 209h1M44 210h1M84 210h1M96 210h1M160 210h1M224 210h1M236 210h1M276 210h1M320 210h1M384 210h1M428 210h1M468 210h1M512 210h1M524 210h1M564 210h1M45 211h1M83 211h1M96 211h1M160 211h1M224 211h1M237 211h1M275 211h1M320 211h1M384 211h1M429 211h1M467 211h1M512 211h1M525 211h1M563 211h1M46 212h1M82 212h1M96 212h1M160 212h1M224 212h1M238 212h1M274 212h1M320 212h1M384 212h1M430 212h1M466 212h1M512 212h1M526 212h1M562 212h1M47 213h1M81 213h1M96 213h1M160 213h1M224 213h1M239 213h1M273 213h1M320 213h1M384 213h1M431 213h1M465 213h1M512 213h1M527 213h1M561 213h1M48 214h2M79 214h2M96 214h1M160 214h1M224 214h1M240 214h2M271 214h2M320 214h1M384 214h1M432 214h2M463 214h2M512 214h1M528 214h2M559 214h2M49 215h2M78 215h2M96 215h1M160 215h1M224 215h1M241 215h2M270 215h2M320 215h1M384 215h1M433 215h2M462 215h2M512 215h1M529 215h2M558 215h2M51 216h2M76 216h2M96 216h1M160 216h1M224 216h1M243 216h2M268 216h2M320 216h1M384 216h1M435 216h2M460 216h2M512 216h1M531 216h2M556 216h2M53 217h3M73 217h3M96 217h1M160 217h1M224 217h1M245 217h3M265 217h3M320 217h1M384 217h1M437 217h3M457 217h3M512 217h1M533 217h3M553 217h3M56 218h3M70 218h3M96 218h1M160 218h1M224 218h1M248 218h3M262 218h3M320 218h1M384 218h1M440 218h3M454 218h3M512 218h1M536 218h3M550 218h3M59 219h11M96 219h1M160 219h1M224 219h1M251 219h11M320 219h1M384 219h1M443 219h11M512 219h1M539 219h11M96 220h1M160 220h1M224 220h1M320 220h1M384 220h1M512 220h1M96 221h1M160 221h1M224 221h1M320 221h1M384 221h1M512 221h1M96 222h1M160 222h1M224 222h1M320 222h1M384 222h1M512 222h1M96 223h1M160 223h1M224 223h1M320 223h1M384 223h1M512 223h1M96 224h1M160 224h1M224 224h1M320 224h1M384 224h1M512 224h1M96 225h1M160 225h1M224 225h1M320 225h1M385 225h1M511 225h2M96 226h1M160 226h1M224 226h1M320 226h1M386 226h1M510 226h1M512 226h1M538 226h1M543 226h3M550 226h1M96 227h1M160 227h1M224 227h1M320 227h1M387 227h1M509 227h1M512 227h1M538 227h1M542 227h1M546 227h1M550 227h1M96 228h1M160 228h1M224 228h1M320 228h1M388 228h1M508 228h1M512 228h1M538 228h1M542 228h1M546 228h1M550 228h1M96 229h1M160 229h1M224 229h1M320 229h1M389 229h1M507 229h1M512 229h1M538 229h1M542 229h1M546 229h1M550 229h1M96 230h1M160 230h1M224 230h1M320 230h1M390 230h1M506 230h1M512 230h1M538 230h1M543 230h3M550 230h1M96 231h1M160 231h1M224 231h1M320 231h1M391 231h1M505 231h1M512 231h1M538 231h1M550 231h1M96 232h1M160 232h1M224 232h1M320 232h1M392 232h1M504 232h1M512 232h1M538 232h1M550 232h1M96 233h1M160 233h1M224 233h1M320 233h1M393 233h1M503 233h1M512 233h1M538 233h1M550 233h1M96 234h1M160 234h1M224 234h1M320 234h1M394 234h1M502 234h1M512 234h1M538 234h1M550 234h1M96 235h1M160 235h1M224 235h1M320 235h1M395 235h1M501 235h1M512 235h1M538 235h1M550 235h1M96 236h1M160 236h1M224 236h1M320 236h1M396 236h1M500 236h1M512 236h1M538 236h1M550 236h1M96 237h1M160 237h1M224 237h1M320 237h1M397 237h1M499 237h1M512 237h1M538 237h1M550 237h1M96 238h1M160 238h1M224 238h1M320 238h1M398 238h1M498 238h1M512 238h1M538 238h13M96 239h1M160 239h1M224 239h1M320 239h1M399 239h1M497 239h1M512 239h1M96 240h1M160 240h1M224 240h1M320 240h1M400 240h1M496 240h1M512 240h1M96 241h1M160 241h1M224 241h1M320 241h1M401 241h1M495 241h1M512 241h1M96 242h1M160 242h1M224 242h1M320 242h1M402 242h1M494 242h1M512 242h1M96 243h1M160 243h1M224 243h1M320 243h1M403 243h1M493 243h1M512 243h1M96 244h1M160 244h1M224 244h1M320 244h1M404 244h1M492 244h1M512 244h1M96 245h1M160 245h1M224 245h1M320 245h1M405 245h1M491 245h1M512 245h1M96 246h1M160 246h1M224 246h1M320 246h1M406 246h1M490 246h1M512 246h1M96 247h1M160 247h1M224 247h1M320 247h1M407 247h1M489 247h1M512 247h1M96 248h1M160 248h1M224 248h1M320 248h1M408 248h1M488 248h1M512 248h1M96 249h1M160 249h1M224 249h1M320 249h1M409 249h1M487 249h1M512 249h1M96 250h1M160 250h1M224 250h1M320 250h1M410 250h1M486 250h1M512 250h1M96 251h1M160 251h1M224 251h1M320 251h1M411 251h1M485 251h1M512 251h1M96 252h1M160 252h1M224 252h1M320 252h1M412 252h1M484 252h1M512 252h1M96 253h1M160 253h1M224 253h1M320 253h1M413 253h1M483 253h1M512 253h1M96 254h1M160 254h1M224 254h1M320 254h1M414 254h1M482 254h1M512 254h1M96 255h1M160 255h1M224 255h1M320 255h1M415 255h1M481 255h1M512 255h1M96 256h1M160 256h1M224 256h1M320 256h1M416 256h1M480 256h1M512 256h1M95 257h1M160 257h1M225 257h1M321 257h1M417 257h1M479 257h1M512 257h1M94 258h1M160 258h1M226 258h1M322 258h1M418 258h1M478 258h1M513 258h1M93 259h1M160 259h1M227 259h1M323 259h1M419 259h1M477 259h1M514 259h1M92 260h1M160 260h1M228 260h1M324 260h1M420 260h1M476 260h1M515 260h1M59 261h11M91 261h1M155 261h11M229 261h1M251 261h11M325 261h1M347 261h11M421 261h1M443 261h11M475 261h1M516 261h1M539 261h11M56 262h3M70 262h3M90 262h1M152 262h3M166 262h3M230 262h1M248 262h3M262 262h3M326 262h1M344 262h3M358 262h3M422 262h1M440 262h3M454 262h3M474 262h1M517 262h1M536 262h3M550 262h3M53 263h3M73 263h3M89 263h1M149 263h3M169 263h3M231 263h1M245 263h3M265 263h3M327 263h1M341 263h3M361 263h3M423 263h1M437 263h3M457 263h3M473 263h1M518 263h1M533 263h3M553 263h3M51 264h2M76 264h2M88 264h1M147 264h2M172 264h2M232 264h1M243 264h2M268 264h2M328 264h1M339 264h2M364 264h2M424 264h1M435 264h2M460 264h2M472 264h1M519 264h1M531 264h2M556 264h2M49 265h2M78 265h2M87 265h1M145 265h2M174 265h2M233 265h1M241 265h2M270 265h2M329 265h1M337 265h2M366 265h2M425 265h1M433 265h2M462 265h2M471 265h1M520 265h1M529 265h2M558 265h2M48 266h2M79 266h2M86 266h1M144 266h2M175 266h2M234 266h1M240 266h2M271 266h2M330 266h1M336 266h2M367 266h2M426 266h1M432 266h2M463 266h2M470 266h1M521 266h1M528 266h2M559 266h2M47 267h1M81 267h1M85 267h1M143 267h1M177 267h1M235 267h1M239 267h1M273 267h1M331 267h1M335 267h1M369 267h1M427 267h1M431 267h1M465 267h1M469 267h1M522 267h1M527 267h1M561 267h1M46 268h1M82 268h1M84 268h1M142 268h1M178 268h1M236 268h1M238 268h1M274 268h1M332 268h1M334 268h1M370 268h1M428 268h1M430 268h1M466 268h1M468 268h1M523 268h1M526 268h1M562 268h1M45 269h1M83 269h1M141 269h1M179 269h1M237 269h1M275 269h1M333 269h1M371 269h1M429 269h1M467 269h1M524 269h2M563 269h1M44 270h1M84 270h1M140 270h1M180 270h1M236 270h1M276 270h1M332 270h1M372 270h1M428 270h1M468 270h1M524 270h1M564 270h1M43 271h1M85 271h1M139 271h1M181 271h1M235 271h1M277 271h1M331 271h1M373 271h1M427 271h1M469 271h1M523 271h1M565 271h1M42 272h1M86 272h1M138 272h1M182 272h1M234 272h1M278 272h1M330 272h1M374 272h1M426 272h1M470 272h1M522 272h1M566 272h1M41 273h2M86 273h2M137 273h2M182 273h2M233 273h2M278 273h2M329 273h2M374 273h2M425 273h2M470 273h2M521 273h2M566 273h2M41 274h1M87 274h1M137 274h1M183 274h1M233 274h1M279 274h1M329 274h1M375 274h1M425 274h1M471 274h1M521 274h1M567 274h1M40 275h1M88 275h1M136 275h1M184 275h1M232 275h1M280 275h1M328 275h1M376 275h1M424 275h1M472 275h1M520 275h1M568 275h1M40 276h1M88 276h1M136 276h1M184 276h1M232 276h1M280 276h1M328 276h1M376 276h1M424 276h1M472 276h1M520 276h1M568 276h1M39 277h1M89 277h1M135 277h1M185 277h1M231 277h1M281 277h1M327 277h1M377 277h1M423 277h1M473 277h1M519 277h1M569 277h1M39 278h1M89 278h1M135 278h1M185 278h1M231 278h1M281 278h1M327 278h1M377 278h1M423 278h1M473 278h1M519 278h1M569 278h1M39 279h1M89 279h1M135 279h1M185 279h1M231 279h1M281 279h1M327 279h1M377 279h1M423 279h1M473 279h1M519 279h1M569 279h1M38 280h1M90 280h1M134 280h1M186 280h1M230 280h1M282 280h1M326 280h1M378 280h1M422 280h1M474 280h1M518 280h1M570 280h1M38 281h1M90 281h1M134 281h1M186 281h1M230 281h1M282 281h1M326 281h1M378 281h1M422 281h1M474 281h1M518 281h1M570 281h1M38 282h1M90 282h1M134 282h1M186 282h1M230 282h1M282 282h1M326 282h1M378 282h1M422 282h1M474 282h1M518 282h1M570 282h1M37 283h1M91 283h1M133 283h1M187 283h1M229 283h1M283 283h1M325 283h1M379 283h1M421 283h1M475 283h1M517 283h1M571 283h1M37 284h1M91 284h1M133 284h1M187 284h1M229 284h1M283 284h1M325 284h1M379 284h1M421 284h1M475 284h1M517 284h1M571 284h1M37 285h1M91 285h1M133 285h1M187 285h1M229 285h1M283 285h1M325 285h1M379 285h1M421 285h1M475 285h1M517 285h1M571 285h1M37 286h1M91 286h1M133 286h1M187 286h1M229 286h1M283 286h1M325 286h1M379 286h1M421 286h1M475 286h1M517 286h1M571 286h1M37 287h1M91 287h1M133 287h1M187 287h1M229 287h1M283 287h1M325 287h1M379 287h1M421 287h1M475 287h1M517 287h1M571 287h1M37 288h1M91 288h1M133 288h1M187 288h1M229 288h1M283 288h1M325 288h1M379 288h1M421 288h1M475 288h1M517 288h1M571 288h1M37 289h1M91 289h1M133 289h1M187 289h1M229 289h1M283 289h1M325 289h1M379 289h1M421 289h1M475 289h1M517 289h1M571 289h1M37 290h1M91 290h1M133 290h1M187 290h1M229 290h1M283 290h1M325 290h1M379 290h1M421 290h1M475 290h1M517 290h1M571 290h1M37 291h1M91 291h1M133 291h1M187 291h1M229 291h1M283 291h1M325 291h1M379 291h1M421 291h1M475 291h1M517 291h1M571 291h1M37 292h1M91 292h1M133 292h1M187 292h1M229 292h1M283 292h1M325 292h1M379 292h1M421 292h1M475 292h1M517 292h1M571 292h1M37 293h1M91 293h1M133 293h1M187 293h1M229 293h1M283 293h1M325 293h1M379 293h1M421 293h1M475 293h1M517 293h1M571 293h1M38 294h1M90 294h1M134 294h1M186 294h1M230 294h1M282 294h1M326 294h1M378 294h1M422 294h1M474 294h1M518 294h1M570 294h1M38 295h1M90 295h1M134 295h1M186 295h1M230 295h1M282 295h1M326 295h1M378 295h1M422 295h1M474 295h1M518 295h1M570 295h1M38 296h1M90 296h1M134 296h1M186 296h1M230 296h1M282 296h1M326 296h1M378 296h1M422 296h1M474 296h1M518 296h1M570 296h1M39 297h1M89 297h1M135 297h1M185 297h1M231 297h1M281 297h1M327 297h1M377 297h1M423 297h1M473 297h1M519 297h1M569 297h1M39 298h1M89 298h1M135 298h1M185 298h1M231 298h1M281 298h1M327 298h1M377 298h1M423 298h1M473 298h1M519 298h1M569 298h1M39 299h1M89 299h1M135 299h1M185 299h1M231 299h1M281 299h1M327 299h1M377 299h1M423 299h1M473 299h1M519 299h1M569 299h1M40 300h1M88 300h1M136 300h1M184 300h1M232 300h1M280 300h1M328 300h1M376 300h1M424 300h1M472 300h1M520 300h1M568 300h1M40 301h1M88 301h1M136 301h1M184 301h1M232 301h1M280 301h1M328 301h1M376 301h1M424 301h1M472 301h1M520 301h1M568 301h1M41 302h1M87 302h1M137 302h1M183 302h1M233 302h1M279 302h1M329 302h1M375 302h1M425 302h1M471 302h1M521 302h1M567 302h1M41 303h2M86 303h2M137 303h2M182 303h2M233 303h2M278 303h2M329 303h2M374 303h2M425 303h2M470 303h2M521 303h2M566 303h2M42 304h1M86 304h1M138 304h1M182 304h1M234 304h1M278 304h1M330 304h1M374 304h1M426 304h1M470 304h1M522 304h1M566 304h1M43 305h1M85 305h1M139 305h1M181 305h1M235 305h1M277 305h1M331 305h1M373 305h1M427 305h1M469 305h1M523 305h1M565 305h1M44 306h1M84 306h1M140 306h1M180 306h1M236 306h1M276 306h1M332 306h1M372 306h1M428 306h1M468 306h1M524 306h1M564 306h1M45 307h1M83 307h1M141 307h1M179 307h1M237 307h1M275 307h1M333 307h1M371 307h1M429 307h1M467 307h1M525 307h1M563 307h1M46 308h1M82 308h1M142 308h1M178 308h1M238 308h1M274 308h1M334 308h1M370 308h1M430 308h1M466 308h1M526 308h1M562 308h1M47 309h1M81 309h1M143 309h1M177 309h1M239 309h1M273 309h1M335 309h1M369 309h1M431 309h1M465 309h1M527 309h1M561 309h1M48 310h2M79 310h2M144 310h2M175 310h2M240 310h2M271 310h2M336 310h2M367 310h2M432 310h2M463 310h2M528 310h2M559 310h2M49 311h2M78 311h2M145 311h2M174 311h2M241 311h2M270 311h2M337 311h2M366 311h2M433 311h2M462 311h2M529 311h2M558 311h2M51 312h2M76 312h2M147 312h2M172 312h2M243 312h2M268 312h2M339 312h2M364 312h2M435 312h2M460 312h2M531 312h2M556 312h2M53 313h3M73 313h3M149 313h3M169 313h3M245 313h3M265 313h3M341 313h3M361 313h3M437 313h3M457 313h3M533 313h3M553 313h3M56 314h3M70 314h3M152 314h3M166 314h3M248 314h3M262 314h3M344 314h3M358 314h3M440 314h3M454 314h3M536 314h3M550 314h3M59 315h11M155 315h11M251 315h11M347 315h11M443 315h11M539 315h11M58 322h1M63 322h3M70 322h1M154 322h1M163 322h3M346 322h12M538 322h1M546 322h3M58 323h1M62 323h1M66 323h1M70 323h1M154 323h1M162 323h1M166 323h1M538 323h1M545 323h1M549 323h1M58 324h1M62 324h1M66 324h1M70 324h1M154 324h1M162 324h1M166 324h1M538 324h1M545 324h1M549 324h1M58 325h1M62 325h1M66 325h1M70 325h1M154 325h1M162 325h1M166 325h1M346 325h12M538 325h1M545 325h1M549 325h1M58 326h1M63 326h3M70 326h1M154 326h1M163 326h3M357 326h1M538 326h1M546 326h3M58 327h1M70 327h1M154 327h1M357 327h1M538 327h1M58 328h1M70 328h1M154 328h1M357 328h1M538 328h1M58 329h1M70 329h1M154 329h1M357 329h1M538 329h1M58 330h1M70 330h1M154 330h1M357 330h1M538 330h1M58 331h1M70 331h1M154 331h1M346 331h12M538 331h1M58 332h1M70 332h1M154 332h1M538 332h1M58 333h1M70 333h1M154 333h1M538 333h1M58 334h13M154 334h13M346 334h12M538 334h12" />
</svg>