<svg xmlns="http://www.w3.org/2000/svg" viewBox="0 -0.5 360 250" shape-rendering="crispEdges">
<metadata>Made with Pixels to Svg https://codepen.io/shshaw/pen/XbxvNj</metadata>
<path stroke="#ffffff" d="M255 2h6M253 3h2M261 3h1M251 4h2M262 4h1M249 5h2M263 5h2M247 6h2M245 7h2M231 8h1M235 8h1M239 8h1M244 8h1M268 8h1M224 9h1M243 9h1M269 9h1M221 10h1M247 10h1M270 10h1M219 11h1M271 11h2M217 12h1M252 12h1M273 12h1M216 13h1M228 13h1M230 13h1M232 13h8M274 13h1M215 14h1M225 14h1M227 14h1M229 14h1M231 14h2M234 14h1M236 14h1M238 14h7M275 14h2M213 15h1M222 15h1M224 15h1M226 15h1M228 15h1M230 15h1M232 15h15M256 15h1M277 15h1M212 16h1M225 16h1M227 16h1M229 16h1M231 16h1M233 16h1M235 16h1M237 16h1M239 16h9M278 16h2M220 17h1M222 17h1M224 17h1M226 17h1M241 17h8M280 17h1M211 18h1M244 18h6M281 18h1M210 19h1M218 19h1M220 19h1M246 19h5M259 19h1M282 19h2M248 20h2M251 20h1M284 20h1M217 21h1M249 21h2M285 21h1M209 22h1M251 22h1M261 22h1M286 22h2M217 23h1M250 23h1M252 23h1M288 23h1M208 24h1M251 24h1M289 24h1M209 25h1M233 25h3M252 25h1M290 25h2M207 26h2M232 26h1M236 26h1M292 26h1M205 27h2M209 27h1M217 27h1M232 27h1M236 27h1M252 27h1M261 27h1M293 27h2M200 28h1M203 28h2M208 28h1M233 28h3M295 28h1M297 28h1M299 28h1M301 28h1M198 29h2M201 29h2M209 29h1M252 29h1M292 29h1M294 29h1M296 29h1M298 29h1M300 29h1M302 29h1M304 29h1M306 29h1M196 30h2M203 30h1M208 30h1M210 30h1M219 30h1M291 30h1M307 30h1M309 30h1M194 31h2M198 31h4M204 31h1M260 31h1M288 31h3M292 31h1M294 31h1M296 31h1M298 31h1M300 31h1M302 31h1M304 31h1M306 31h1M308 31h1M310 31h1M312 31h1M192 32h2M196 32h8M205 32h2M208 32h1M212 32h1M222 32h1M287 32h1M313 32h1M190 33h2M195 33h3M202 33h3M207 33h3M250 33h1M286 33h1M288 33h1M290 33h1M292 33h1M294 33h1M296 33h1M298 33h1M300 33h1M302 33h1M304 33h1M306 33h1M308 33h1M310 33h1M312 33h1M314 33h1M188 34h2M194 34h2M204 34h2M209 34h1M214 34h1M226 34h1M258 34h1M285 34h1M186 35h2M194 35h1M205 35h1M208 35h1M210 35h2M230 35h1M246 35h1M285 35h2M288 35h1M290 35h1M292 35h1M294 35h1M296 35h1M298 35h1M300 35h1M302 35h1M304 35h1M306 35h1M308 35h1M310 35h1M312 35h1M314 35h1M316 35h1M184 36h2M194 36h1M206 36h1M212 36h1M216 36h1M235 36h1M241 36h1M256 36h1M284 36h1M182 37h2M195 37h1M204 37h1M213 37h1M284 37h1M286 37h1M288 37h1M290 37h1M292 37h1M294 37h1M296 37h1M298 37h1M300 37h1M302 37h1M304 37h1M306 37h1M308 37h1M310 37h1M312 37h1M314 37h1M316 37h1M318 37h1M180 38h2M196 38h2M202 38h1M214 38h3M218 38h1M254 38h1M284 38h1M178 39h2M198 39h1M200 39h1M216 39h1M284 39h1M286 39h1M288 39h1M290 39h1M292 39h1M294 39h1M296 39h1M298 39h1M300 39h1M302 39h1M304 39h1M306 39h1M308 39h1M310 39h1M312 39h1M314 39h1M316 39h1M318 39h1M176 40h2M198 40h1M217 40h2M284 40h1M174 41h2M196 41h1M218 41h1M223 41h1M284 41h3M288 41h1M290 41h1M292 41h1M294 41h1M296 41h1M298 41h1M300 41h1M302 41h1M304 41h1M306 41h1M308 41h1M310 41h1M312 41h1M314 41h1M316 41h1M318 41h1M172 42h2M194 42h1M219 42h2M284 42h2M170 43h2M193 43h1M221 43h1M227 43h1M231 43h1M233 43h1M235 43h1M237 43h1M239 43h1M241 43h1M254 43h1M284 43h3M288 43h1M290 43h1M292 43h1M294 43h1M296 43h1M298 43h1M300 43h1M302 43h1M304 43h1M306 43h1M308 43h1M310 43h1M312 43h1M314 43h1M316 43h1M318 43h1M168 44h2M191 44h1M222 44h1M284 44h4M166 45h2M189 45h1M223 45h1M229 45h1M231 45h1M233 45h1M235 45h1M237 45h1M239 45h1M247 45h1M283 45h1M285 45h4M290 45h1M292 45h1M294 45h1M296 45h1M298 45h1M300 45h1M302 45h1M304 45h1M306 45h1M308 45h1M310 45h1M312 45h1M314 45h1M316 45h1M164 46h2M187 46h1M224 46h2M283 46h5M289 46h1M320 46h1M162 47h2M185 47h1M226 47h1M283 47h8M292 47h1M294 47h1M296 47h1M298 47h1M300 47h1M302 47h1M304 47h1M306 47h1M308 47h1M310 47h1M312 47h1M314 47h1M321 47h1M160 48h2M167 48h3M183 48h1M227 48h1M264 48h1M266 48h1M268 48h1M283 48h5M289 48h4M313 48h1M322 48h1M158 49h2M166 49h3M181 49h1M228 49h2M263 49h1M265 49h1M267 49h1M269 49h1M271 49h1M283 49h7M291 49h1M293 49h2M296 49h1M298 49h1M300 49h1M302 49h1M304 49h1M306 49h1M308 49h1M310 49h1M312 49h1M318 49h1M323 49h1M156 50h2M166 50h1M179 50h1M230 50h1M260 50h1M264 50h1M266 50h1M268 50h1M270 50h1M272 50h1M283 50h5M289 50h2M292 50h1M297 50h1M299 50h1M301 50h1M307 50h1M309 50h1M324 50h2M154 51h2M166 51h1M170 51h1M177 51h1M231 51h1M259 51h1M265 51h1M267 51h1M269 51h1M271 51h1M273 51h1M283 51h4M288 51h2M291 51h1M293 51h1M295 51h1M302 51h1M304 51h1M306 51h1M326 51h1M152 52h2M160 52h3M176 52h1M232 52h1M258 52h1M266 52h1M268 52h1M270 52h1M272 52h1M274 52h1M282 52h1M284 52h5M290 52h1M292 52h1M294 52h1M298 52h1M327 52h1M150 53h2M159 53h3M174 53h1M233 53h2M267 53h1M269 53h1M271 53h1M273 53h1M275 53h1M282 53h5M288 53h2M291 53h1M295 53h1M318 53h1M328 53h2M148 54h2M159 54h1M172 54h1M235 54h1M258 54h1M268 54h1M270 54h1M272 54h1M274 54h1M282 54h7M290 54h1M292 54h1M294 54h1M296 54h1M300 54h1M330 54h1M146 55h2M153 55h3M159 55h1M163 55h1M170 55h1M236 55h1M251 55h1M259 55h1M269 55h1M271 55h1M273 55h1M275 55h1M282 55h5M288 55h2M291 55h1M293 55h1M331 55h1M144 56h2M153 56h2M168 56h1M237 56h2M250 56h1M252 56h1M260 56h1M270 56h1M272 56h1M274 56h1M282 56h7M290 56h1M292 56h1M294 56h1M298 56h1M333 56h1M142 57h2M152 57h2M166 57h1M239 57h1M247 57h1M249 57h1M251 57h1M253 57h1M259 57h1M261 57h1M271 57h1M273 57h1M282 57h5M288 57h2M291 57h1M295 57h1M317 57h1M140 58h2M145 58h4M152 58h1M156 58h1M164 58h1M240 58h1M246 58h1M248 58h1M250 58h1M252 58h1M254 58h1M260 58h1M262 58h1M264 58h1M282 58h4M287 58h2M290 58h1M292 58h1M294 58h1M296 58h1M300 58h1M336 58h1M138 59h2M145 59h2M162 59h1M241 59h1M247 59h1M249 59h1M251 59h1M253 59h1M255 59h1M261 59h1M263 59h1M265 59h1M267 59h1M269 59h1M271 59h1M281 59h1M283 59h5M289 59h1M291 59h1M293 59h1M337 59h1M136 60h2M144 60h2M161 60h1M242 60h2M250 60h1M252 60h1M254 60h1M256 60h1M260 60h1M262 60h1M264 60h1M266 60h1M268 60h1M281 60h5M287 60h2M290 60h1M294 60h1M298 60h1M317 60h1M338 60h1M134 61h2M144 61h1M159 61h1M244 61h1M253 61h1M255 61h1M257 61h1M261 61h1M263 61h1M265 61h1M281 61h7M289 61h1M291 61h1M293 61h1M295 61h1M339 61h2M132 62h2M144 62h1M149 62h1M157 62h1M245 62h1M256 62h1M258 62h1M262 62h1M264 62h1M281 62h5M287 62h2M290 62h1M292 62h1M323 62h1M341 62h1M130 63h2M155 63h1M246 63h1M259 63h1M261 63h1M281 63h7M289 63h1M291 63h1M293 63h1M297 63h1M316 63h1M342 63h1M128 64h2M153 64h1M247 64h2M281 64h5M287 64h2M290 64h1M294 64h1M343 64h2M126 65h2M151 65h1M249 65h1M280 65h1M282 65h3M286 65h2M289 65h1M291 65h1M293 65h1M295 65h1M299 65h1M345 65h1M124 66h2M149 66h1M250 66h1M280 66h7M288 66h1M290 66h1M292 66h1M316 66h1M346 66h1M122 67h2M147 67h1M251 67h2M280 67h5M286 67h2M289 67h1M293 67h1M297 67h1M347 67h2M120 68h2M146 68h1M253 68h1M280 68h7M288 68h1M290 68h1M292 68h1M294 68h1M349 68h1M118 69h2M144 69h1M254 69h1M280 69h5M286 69h2M289 69h1M291 69h1M293 69h1M295 69h1M315 69h1M349 69h1M116 70h2M142 70h1M253 70h1M280 70h7M288 70h1M290 70h1M114 71h2M140 71h1M251 71h1M254 71h1M280 71h5M286 71h2M289 71h1M291 71h1M350 71h1M112 72h2M138 72h1M249 72h1M252 72h1M279 72h1M281 72h3M285 72h2M288 72h1M292 72h1M294 72h1M297 72h1M315 72h1M110 73h2M136 73h1M247 73h1M250 73h1M255 73h1M279 73h7M287 73h1M289 73h1M291 73h1M293 73h1M348 73h1M350 73h1M108 74h2M112 74h6M134 74h1M246 74h1M248 74h1M256 74h1M279 74h5M285 74h2M288 74h1M290 74h1M106 75h2M110 75h10M132 75h1M244 75h1M247 75h1M257 75h2M279 75h7M287 75h1M289 75h1M291 75h1M295 75h1M314 75h1M346 75h1M348 75h1M350 75h1M104 76h2M109 76h3M118 76h3M130 76h1M242 76h1M245 76h1M259 76h1M279 76h5M285 76h2M288 76h1M292 76h1M102 77h2M108 77h2M120 77h2M129 77h1M240 77h1M243 77h1M260 77h1M280 77h6M287 77h1M289 77h1M291 77h1M293 77h1M297 77h1M344 77h1M346 77h1M348 77h1M350 77h1M102 78h1M108 78h1M121 78h1M127 78h1M239 78h1M241 78h1M261 78h1M280 78h4M285 78h2M288 78h1M290 78h1M100 79h2M103 79h1M108 79h1M121 79h1M125 79h1M237 79h1M240 79h1M262 79h2M280 79h3M284 79h2M287 79h1M289 79h1M291 79h1M295 79h1M313 79h1M340 79h1M342 79h1M344 79h1M346 79h1M348 79h1M350 79h1M98 80h2M102 80h1M104 80h1M108 80h1M121 80h1M123 80h1M235 80h1M238 80h1M264 80h1M281 80h4M286 80h1M288 80h1M292 80h1M96 81h2M105 81h1M108 81h1M121 81h1M233 81h1M265 81h1M282 81h1M284 81h2M287 81h1M289 81h1M291 81h1M293 81h1M297 81h1M312 81h1M336 81h1M338 81h1M340 81h1M342 81h1M344 81h1M346 81h1M348 81h1M94 82h2M104 82h1M106 82h1M109 82h1M119 82h1M232 82h1M240 82h1M266 82h1M283 82h2M286 82h1M288 82h1M290 82h1M92 83h2M107 83h1M110 83h2M117 83h1M230 83h1M267 83h2M284 83h2M287 83h1M289 83h1M291 83h1M295 83h1M310 83h1M334 83h1M336 83h1M338 83h1M340 83h1M342 83h1M344 83h1M346 83h1M348 83h1M90 84h2M106 84h1M108 84h1M112 84h4M228 84h1M242 84h1M269 84h1M286 84h3M292 84h1M308 84h1M88 85h2M109 85h1M226 85h1M270 85h1M288 85h4M306 85h1M330 85h1M332 85h1M334 85h1M336 85h1M338 85h1M340 85h1M342 85h1M344 85h1M346 85h1M348 85h1M86 86h2M108 86h1M110 86h1M115 86h1M117 86h1M224 86h1M244 86h1M271 86h1M291 86h4M303 86h1M84 87h2M111 87h1M223 87h1M245 87h1M265 87h9M295 87h2M298 87h1M300 87h1M326 87h1M328 87h1M330 87h1M332 87h1M334 87h1M336 87h1M338 87h1M340 87h1M342 87h1M344 87h1M346 87h1M82 88h2M110 88h1M112 88h1M117 88h1M119 88h1M221 88h1M263 88h12M80 89h2M113 89h1M219 89h1M243 89h1M262 89h3M272 89h4M324 89h1M326 89h1M328 89h1M330 89h1M332 89h1M334 89h1M336 89h1M338 89h1M340 89h1M342 89h1M344 89h1M346 89h1M78 90h2M112 90h1M114 90h1M119 90h1M121 90h1M217 90h1M241 90h1M262 90h1M274 90h1M276 90h1M76 91h2M115 91h2M123 91h1M216 91h1M239 91h1M261 91h2M274 91h2M277 91h2M320 91h1M322 91h1M324 91h1M326 91h1M328 91h1M330 91h1M332 91h1M334 91h1M336 91h1M338 91h1M340 91h1M342 91h1M344 91h1M346 91h1M74 92h2M114 92h1M117 92h1M121 92h1M214 92h1M237 92h1M261 92h1M275 92h1M279 92h1M72 93h2M118 93h1M123 93h1M125 93h1M212 93h1M236 93h1M261 93h1M275 93h1M280 93h1M316 93h1M318 93h1M320 93h1M322 93h1M324 93h1M326 93h1M328 93h1M330 93h1M332 93h1M334 93h1M336 93h1M338 93h1M340 93h1M342 93h1M344 93h1M70 94h2M117 94h1M119 94h1M210 94h1M261 94h1M275 94h1M280 94h1M68 95h2M120 95h1M125 95h1M127 95h1M209 95h1M235 95h1M262 95h1M274 95h1M278 95h2M314 95h1M316 95h1M318 95h1M320 95h1M322 95h1M324 95h1M326 95h1M328 95h1M330 95h1M332 95h1M334 95h1M336 95h1M338 95h1M340 95h1M342 95h1M344 95h1M66 96h2M119 96h1M121 96h1M207 96h1M263 96h2M272 96h2M276 96h2M280 96h1M64 97h2M89 97h1M122 97h1M127 97h1M129 97h1M205 97h1M236 97h1M265 97h7M275 97h1M279 97h1M310 97h1M312 97h1M314 97h1M316 97h1M318 97h1M320 97h1M322 97h1M324 97h1M326 97h1M328 97h1M330 97h1M332 97h1M334 97h1M336 97h1M338 97h1M340 97h1M342 97h1M62 98h2M88 98h1M90 98h1M121 98h1M123 98h1M203 98h1M273 98h2M277 98h1M60 99h2M85 99h1M87 99h1M91 99h1M124 99h1M129 99h1M131 99h1M202 99h1M238 99h1M271 99h2M275 99h1M280 99h1M308 99h1M310 99h1M312 99h1M314 99h1M316 99h1M318 99h1M320 99h1M322 99h1M324 99h1M326 99h1M328 99h1M330 99h1M332 99h1M334 99h1M336 99h1M338 99h1M340 99h1M342 99h1M58 100h2M84 100h1M86 100h1M88 100h1M90 100h1M92 100h1M123 100h1M125 100h1M200 100h1M239 100h1M242 100h1M270 100h1M274 100h1M56 101h2M81 101h1M83 101h1M85 101h1M87 101h1M89 101h1M91 101h1M93 101h1M126 101h1M131 101h1M133 101h1M198 101h1M243 101h1M268 101h2M272 101h1M306 101h1M308 101h1M310 101h1M312 101h1M314 101h1M316 101h1M318 101h1M320 101h1M322 101h1M324 101h1M326 101h1M328 101h1M330 101h1M332 101h1M334 101h1M336 101h1M338 101h1M340 101h1M54 102h2M80 102h1M82 102h1M84 102h1M86 102h1M88 102h1M90 102h1M92 102h1M94 102h1M125 102h1M127 102h1M196 102h1M240 102h1M244 102h1M266 102h2M270 102h1M280 102h1M52 103h2M77 103h1M79 103h1M81 103h1M83 103h1M85 103h1M87 103h1M89 103h1M91 103h1M93 103h1M95 103h1M128 103h1M133 103h1M135 103h1M195 103h1M241 103h1M245 103h1M264 103h2M269 103h1M302 103h1M304 103h1M306 103h1M308 103h1M310 103h1M312 103h1M314 103h1M316 103h1M318 103h1M320 103h1M322 103h1M324 103h1M326 103h1M328 103h1M330 103h1M332 103h1M334 103h1M336 103h1M50 104h2M76 104h1M78 104h1M80 104h1M82 104h1M92 104h1M94 104h1M96 104h1M127 104h1M129 104h1M137 104h1M193 104h1M246 104h1M263 104h1M267 104h1M280 104h1M48 105h2M73 105h1M75 105h1M77 105h1M79 105h1M93 105h1M95 105h1M97 105h1M130 105h1M135 105h1M191 105h1M242 105h1M245 105h1M247 105h2M261 105h2M265 105h1M298 105h1M300 105h1M302 105h1M304 105h1M306 105h1M308 105h1M310 105h1M312 105h1M314 105h1M316 105h1M318 105h1M320 105h1M322 105h1M324 105h1M326 105h1M328 105h1M330 105h1M332 105h1M334 105h1M46 106h2M72 106h1M74 106h1M76 106h1M78 106h1M80 106h1M94 106h1M96 106h1M98 106h1M129 106h1M131 106h1M137 106h1M139 106h1M189 106h1M249 106h1M259 106h2M263 106h1M44 107h2M71 107h1M75 107h1M77 107h1M79 107h1M95 107h1M97 107h1M99 107h1M132 107h1M188 107h1M242 107h1M247 107h1M250 107h1M258 107h1M262 107h1M275 107h1M296 107h1M298 107h1M300 107h1M302 107h1M304 107h1M306 107h1M308 107h1M310 107h1M312 107h1M314 107h1M316 107h1M318 107h1M320 107h1M322 107h1M324 107h1M326 107h1M328 107h1M330 107h1M42 108h2M72 108h1M74 108h1M76 108h1M78 108h1M94 108h1M96 108h1M98 108h1M100 108h1M131 108h1M133 108h1M139 108h1M141 108h1M186 108h1M249 108h1M251 108h1M256 108h2M260 108h1M40 109h2M71 109h1M73 109h1M75 109h1M77 109h1M79 109h1M95 109h1M97 109h1M99 109h1M101 109h1M134 109h1M184 109h1M241 109h1M252 109h1M254 109h2M258 109h1M292 109h1M294 109h1M296 109h1M298 109h1M300 109h1M302 109h1M304 109h1M306 109h1M308 109h1M310 109h1M312 109h1M314 109h1M316 109h1M318 109h1M320 109h1M322 109h1M324 109h1M326 109h1M38 110h2M74 110h1M76 110h1M78 110h1M94 110h1M96 110h1M98 110h1M102 110h1M133 110h1M135 110h1M141 110h1M143 110h1M182 110h1M240 110h1M251 110h1M253 110h1M257 110h1M36 111h2M71 111h1M73 111h1M75 111h1M77 111h1M79 111h1M93 111h1M95 111h1M97 111h1M99 111h1M101 111h1M136 111h1M180 111h1M239 111h1M255 111h1M288 111h1M290 111h1M292 111h1M294 111h1M296 111h1M298 111h1M300 111h1M302 111h1M304 111h1M306 111h1M308 111h1M310 111h1M312 111h1M314 111h1M316 111h1M318 111h1M320 111h1M322 111h1M324 111h1M34 112h2M76 112h1M78 112h1M80 112h1M94 112h1M96 112h1M98 112h1M100 112h1M102 112h1M135 112h1M137 112h1M143 112h1M145 112h1M179 112h1M237 112h1M253 112h1M267 112h1M32 113h2M71 113h1M73 113h1M75 113h1M77 113h1M79 113h1M81 113h1M91 113h1M93 113h1M95 113h1M97 113h1M138 113h1M177 113h1M236 113h1M286 113h1M288 113h1M290 113h1M292 113h1M294 113h1M296 113h1M298 113h1M300 113h1M302 113h1M304 113h1M306 113h1M308 113h1M310 113h1M312 113h1M314 113h1M316 113h1M318 113h1M320 113h1M30 114h2M70 114h1M78 114h1M80 114h1M82 114h1M84 114h1M86 114h1M88 114h1M90 114h1M92 114h1M94 114h1M96 114h1M102 114h1M137 114h1M139 114h1M145 114h1M147 114h1M175 114h1M234 114h1M28 115h2M70 115h2M73 115h1M75 115h1M77 115h1M79 115h1M81 115h1M83 115h1M85 115h1M87 115h1M89 115h1M91 115h1M93 115h1M140 115h1M173 115h1M176 115h1M198 115h1M201 115h1M233 115h1M252 115h1M262 115h1M282 115h1M284 115h1M286 115h1M288 115h1M290 115h1M292 115h1M294 115h1M296 115h1M298 115h1M300 115h1M302 115h1M304 115h1M306 115h1M308 115h1M310 115h1M312 115h1M314 115h1M316 115h1M318 115h1M26 116h2M71 116h1M80 116h1M82 116h1M84 116h1M86 116h1M88 116h1M90 116h1M92 116h1M102 116h1M132 116h1M134 116h1M136 116h1M138 116h1M140 116h1M142 116h1M149 116h1M172 116h1M174 116h1M178 116h1M196 116h1M203 116h2M231 116h1M24 117h2M73 117h1M75 117h1M77 117h1M79 117h1M81 117h1M83 117h1M85 117h1M87 117h1M89 117h1M103 117h1M129 117h1M143 117h1M145 117h1M151 117h1M170 117h1M173 117h1M194 117h1M206 117h1M230 117h1M249 117h1M278 117h1M280 117h1M282 117h1M284 117h1M286 117h1M288 117h1M290 117h1M292 117h1M294 117h1M296 117h1M298 117h1M300 117h1M302 117h1M304 117h1M306 117h1M308 117h1M310 117h1M312 117h1M314 117h1M22 118h2M82 118h1M86 118h1M88 118h1M102 118h2M128 118h1M130 118h1M132 118h1M134 118h1M136 118h1M138 118h1M140 118h1M142 118h1M144 118h1M146 118h1M168 118h1M171 118h1M180 118h1M192 118h1M207 118h1M228 118h1M247 118h1M257 118h1M20 119h2M75 119h1M77 119h1M79 119h1M81 119h1M83 119h1M85 119h1M101 119h2M125 119h1M149 119h1M153 119h1M166 119h1M169 119h1M190 119h1M227 119h1M276 119h1M278 119h1M280 119h1M282 119h1M284 119h1M286 119h1M288 119h1M290 119h1M292 119h1M294 119h1M296 119h1M298 119h1M300 119h1M302 119h1M304 119h1M306 119h1M308 119h1M310 119h1M18 120h2M84 120h1M99 120h1M124 120h1M126 120h1M128 120h1M130 120h1M132 120h1M134 120h1M136 120h1M138 120h1M140 120h1M142 120h1M144 120h1M146 120h1M148 120h1M150 120h1M165 120h1M167 120h1M182 120h1M188 120h1M209 120h1M225 120h1M244 120h1M17 121h1M77 121h1M79 121h1M81 121h1M83 121h1M97 121h1M123 121h1M151 121h1M155 121h1M163 121h1M166 121h1M186 121h1M207 121h1M210 121h1M223 121h1M252 121h1M272 121h1M274 121h1M276 121h1M278 121h1M280 121h1M282 121h1M284 121h1M286 121h1M288 121h1M290 121h1M292 121h1M294 121h1M296 121h1M298 121h1M300 121h1M302 121h1M304 121h1M306 121h1M308 121h1M17 122h1M95 122h1M122 122h1M124 122h1M126 122h1M128 122h1M130 122h1M132 122h1M134 122h1M136 122h1M138 122h1M140 122h1M142 122h1M144 122h1M146 122h1M148 122h1M150 122h1M152 122h1M161 122h1M164 122h1M184 122h1M206 122h1M222 122h1M241 122h1M79 123h1M81 123h1M83 123h1M93 123h1M108 123h1M121 123h1M153 123h1M157 123h1M159 123h1M162 123h1M204 123h2M211 123h1M220 123h1M239 123h1M268 123h1M270 123h1M272 123h1M274 123h1M276 123h1M278 123h1M280 123h1M282 123h1M284 123h1M286 123h1M288 123h1M290 123h1M292 123h1M294 123h1M296 123h1M298 123h1M300 123h1M302 123h1M304 123h1M17 124h1M91 124h1M109 124h1M120 124h1M122 124h1M124 124h1M126 124h1M128 124h1M130 124h1M132 124h1M134 124h1M136 124h1M138 124h1M140 124h1M142 124h1M144 124h1M146 124h1M148 124h1M150 124h1M152 124h1M154 124h1M156 124h1M158 124h1M160 124h1M202 124h2M206 124h1M212 124h1M219 124h1M81 125h1M83 125h1M89 125h1M109 125h2M114 125h1M119 125h1M155 125h1M201 125h1M208 125h1M212 125h1M217 125h1M236 125h1M266 125h1M268 125h1M270 125h1M272 125h1M274 125h1M276 125h1M278 125h1M280 125h1M282 125h1M284 125h1M286 125h1M288 125h1M290 125h1M292 125h1M294 125h1M296 125h1M298 125h1M300 125h1M302 125h1M17 126h1M87 126h1M110 126h1M112 126h2M115 126h1M119 126h2M122 126h1M124 126h1M126 126h1M128 126h1M130 126h1M132 126h1M134 126h1M136 126h1M138 126h1M140 126h1M142 126h1M144 126h1M146 126h1M148 126h1M150 126h1M152 126h1M154 126h1M202 126h1M209 126h1M216 126h1M234 126h1M244 126h1M18 127h1M82 127h2M85 127h1M111 127h1M116 127h1M118 127h1M203 127h1M211 127h1M214 127h1M262 127h1M264 127h1M266 127h1M268 127h1M270 127h1M272 127h1M274 127h1M276 127h1M278 127h1M280 127h1M282 127h1M284 127h1M286 127h1M288 127h1M290 127h1M292 127h1M294 127h1M296 127h1M298 127h1M17 128h1M19 128h1M82 128h3M109 128h1M111 128h1M117 128h2M120 128h1M122 128h1M124 128h1M126 128h1M128 128h1M130 128h1M132 128h1M134 128h1M136 128h1M138 128h1M140 128h1M142 128h1M144 128h1M146 128h1M148 128h1M150 128h1M152 128h1M154 128h1M156 128h1M204 128h1M231 128h1M18 129h1M20 129h1M101 129h1M104 129h1M107 129h2M112 129h1M118 129h1M205 129h1M239 129h1M258 129h1M260 129h1M262 129h1M264 129h1M266 129h1M268 129h1M270 129h1M272 129h1M274 129h1M276 129h1M278 129h1M280 129h1M282 129h1M284 129h1M286 129h1M288 129h1M290 129h1M292 129h1M294 129h1M17 130h1M19 130h1M21 130h1M102 130h2M106 130h2M112 130h1M118 130h1M120 130h1M122 130h1M124 130h1M126 130h1M128 130h1M130 130h1M132 130h1M134 130h1M136 130h1M138 130h1M140 130h1M142 130h1M144 130h1M146 130h1M148 130h1M150 130h1M152 130h1M154 130h1M156 130h1M206 130h2M228 130h1M18 131h1M20 131h1M22 131h1M94 131h1M100 131h1M103 131h1M108 131h1M110 131h3M118 131h1M157 131h1M208 131h1M226 131h1M254 131h1M256 131h1M258 131h1M260 131h1M262 131h1M264 131h1M266 131h1M268 131h1M270 131h1M272 131h1M274 131h1M276 131h1M278 131h1M280 131h1M282 131h1M284 131h1M286 131h1M288 131h1M290 131h1M292 131h1M17 132h1M19 132h1M21 132h1M23 132h1M91 132h1M95 132h1M104 132h2M108 132h2M118 132h1M120 132h1M122 132h1M124 132h1M126 132h1M128 132h1M130 132h1M132 132h1M134 132h1M136 132h1M138 132h1M140 132h1M142 132h1M144 132h1M146 132h1M148 132h1M150 132h1M152 132h1M154 132h1M156 132h1M158 132h1M209 132h1M234 132h1M18 133h1M20 133h1M22 133h1M24 133h1M89 133h1M96 133h1M102 133h1M106 133h2M118 133h1M159 133h1M210 133h1M223 133h1M250 133h1M252 133h1M254 133h1M256 133h1M258 133h1M260 133h1M262 133h1M264 133h1M266 133h1M268 133h1M270 133h1M272 133h1M274 133h1M276 133h1M278 133h1M280 133h1M282 133h1M284 133h1M286 133h1M288 133h1M19 134h1M21 134h1M23 134h1M88 134h1M97 134h1M103 134h1M105 134h1M118 134h3M122 134h1M124 134h1M126 134h1M128 134h1M130 134h1M132 134h1M134 134h1M136 134h1M138 134h1M140 134h1M142 134h1M144 134h1M146 134h1M148 134h1M150 134h1M152 134h1M154 134h1M158 134h1M160 134h1M211 134h1M221 134h1M18 135h1M20 135h1M22 135h1M24 135h1M87 135h1M96 135h1M98 135h1M103 135h2M118 135h2M155 135h1M161 135h1M209 135h2M229 135h1M248 135h1M250 135h1M252 135h1M254 135h1M256 135h1M258 135h1M260 135h1M262 135h1M264 135h1M266 135h1M268 135h1M270 135h1M272 135h1M274 135h1M276 135h1M278 135h1M280 135h1M282 135h1M284 135h1M19 136h1M21 136h1M23 136h1M25 136h1M86 136h1M95 136h1M99 136h1M102 136h1M106 136h3M118 136h3M122 136h1M124 136h1M126 136h1M128 136h1M130 136h1M132 136h1M134 136h1M136 136h1M138 136h1M140 136h1M142 136h1M144 136h1M146 136h1M148 136h1M150 136h1M152 136h1M154 136h1M160 136h1M162 136h1M207 136h2M211 136h1M218 136h1M18 137h1M20 137h1M22 137h1M24 137h1M26 137h1M87 137h1M94 137h1M96 137h1M100 137h2M105 137h1M109 137h1M118 137h4M153 137h1M157 137h1M163 137h1M178 137h8M206 137h1M210 137h1M244 137h1M246 137h1M248 137h1M250 137h1M252 137h1M254 137h1M256 137h1M258 137h1M260 137h1M262 137h1M264 137h1M266 137h1M268 137h1M270 137h1M272 137h1M274 137h1M276 137h1M278 137h1M280 137h1M282 137h1M19 138h1M21 138h1M23 138h1M25 138h1M27 138h1M88 138h1M93 138h1M97 138h1M104 138h1M110 138h3M118 138h2M121 138h2M124 138h1M126 138h1M128 138h1M130 138h1M132 138h1M134 138h1M136 138h1M138 138h1M140 138h1M142 138h1M144 138h1M146 138h1M148 138h1M150 138h1M152 138h1M162 138h1M164 138h1M176 138h12M204 138h2M208 138h1M215 138h1M224 138h1M20 139h1M22 139h1M24 139h1M26 139h1M28 139h1M89 139h1M96 139h1M104 139h1M110 139h1M118 139h6M151 139h1M165 139h1M175 139h3M186 139h3M203 139h1M206 139h1M213 139h1M240 139h1M242 139h1M244 139h1M246 139h1M248 139h1M250 139h1M252 139h1M254 139h1M256 139h1M258 139h1M260 139h1M262 139h1M264 139h1M266 139h1M268 139h1M270 139h1M272 139h1M274 139h1M276 139h1M278 139h1M19 140h1M21 140h1M23 140h1M25 140h1M27 140h1M29 140h1M90 140h1M95 140h2M105 140h1M108 140h2M111 140h1M118 140h2M121 140h1M123 140h2M126 140h1M128 140h1M130 140h1M132 140h1M134 140h1M136 140h1M138 140h1M140 140h1M142 140h1M144 140h1M146 140h1M148 140h1M157 140h1M164 140h1M166 140h1M175 140h1M188 140h1M201 140h2M205 140h1M20 141h1M22 141h1M24 141h1M26 141h1M28 141h1M30 141h1M91 141h1M93 141h2M106 141h2M112 141h2M116 141h1M118 141h5M124 141h3M149 141h1M167 141h2M174 141h2M188 141h2M199 141h2M203 141h1M219 141h1M238 141h1M240 141h1M242 141h1M244 141h1M246 141h1M248 141h1M250 141h1M252 141h1M254 141h1M256 141h1M258 141h1M260 141h1M262 141h1M264 141h1M266 141h1M268 141h1M270 141h1M272 141h1M274 141h1M276 141h1M19 142h1M21 142h1M23 142h1M25 142h1M27 142h1M29 142h1M31 142h1M92 142h1M105 142h1M107 142h1M116 142h1M118 142h2M121 142h1M123 142h1M125 142h1M127 142h2M130 142h1M132 142h1M134 142h1M136 142h1M138 142h1M140 142h1M142 142h1M144 142h1M146 142h1M166 142h1M169 142h1M174 142h1M189 142h1M198 142h1M202 142h1M20 143h1M22 143h1M24 143h1M26 143h1M28 143h1M30 143h1M32 143h1M108 143h1M118 143h5M124 143h1M128 143h2M131 143h1M143 143h1M145 143h1M157 143h1M168 143h1M170 143h1M174 143h1M189 143h1M196 143h2M200 143h1M234 143h1M236 143h1M238 143h1M240 143h1M242 143h1M244 143h1M246 143h1M248 143h1M250 143h1M252 143h1M254 143h1M256 143h1M258 143h1M260 143h1M262 143h1M264 143h1M266 143h1M268 143h1M270 143h1M272 143h1M19 144h1M21 144h1M23 144h1M25 144h1M27 144h1M29 144h1M31 144h1M33 144h1M106 144h1M109 144h1M116 144h1M118 144h2M121 144h1M123 144h1M125 144h1M127 144h1M129 144h1M132 144h1M134 144h1M136 144h1M138 144h1M140 144h1M142 144h1M171 144h1M174 144h1M189 144h1M194 144h2M198 144h1M214 144h1M20 145h1M22 145h1M24 145h1M26 145h1M28 145h1M30 145h1M32 145h1M34 145h1M102 145h2M107 145h1M114 145h2M118 145h5M124 145h1M126 145h1M165 145h1M170 145h1M172 145h1M175 145h1M188 145h1M193 145h1M197 145h1M230 145h1M232 145h1M234 145h1M236 145h1M238 145h1M240 145h1M242 145h1M244 145h1M246 145h1M248 145h1M250 145h1M252 145h1M254 145h1M256 145h1M258 145h1M260 145h1M262 145h1M264 145h1M266 145h1M268 145h1M21 146h1M23 146h1M25 146h1M27 146h1M29 146h1M31 146h1M33 146h1M35 146h1M100 146h2M108 146h1M111 146h2M115 146h1M118 146h2M121 146h1M123 146h1M125 146h1M127 146h1M131 146h1M157 146h1M173 146h1M175 146h1M188 146h1M191 146h2M195 146h1M20 147h1M22 147h1M24 147h1M26 147h1M28 147h1M30 147h1M32 147h1M34 147h1M36 147h1M98 147h2M109 147h2M113 147h1M116 147h1M118 147h5M124 147h1M128 147h1M172 147h1M174 147h1M176 147h2M186 147h2M189 147h2M193 147h1M209 147h1M228 147h1M230 147h1M232 147h1M234 147h1M236 147h1M238 147h1M240 147h1M242 147h1M244 147h1M246 147h1M248 147h1M250 147h1M252 147h1M254 147h1M256 147h1M258 147h1M260 147h1M262 147h1M264 147h1M266 147h1M21 148h1M23 148h1M25 148h1M27 148h1M29 148h1M31 148h1M33 148h1M35 148h1M37 148h1M97 148h1M110 148h1M112 148h1M114 148h1M116 148h1M118 148h2M121 148h1M123 148h1M125 148h1M127 148h1M129 148h1M133 148h1M165 148h1M175 148h1M178 148h8M188 148h1M192 148h1M20 149h1M22 149h1M24 149h1M26 149h1M28 149h1M30 149h1M32 149h1M34 149h1M36 149h1M38 149h1M98 149h1M105 149h3M111 149h1M114 149h2M118 149h5M124 149h1M126 149h1M157 149h1M174 149h1M176 149h1M186 149h2M190 149h1M224 149h1M226 149h1M228 149h1M230 149h1M232 149h1M234 149h1M236 149h1M238 149h1M240 149h1M242 149h1M244 149h1M246 149h1M248 149h1M250 149h1M252 149h1M254 149h1M256 149h1M258 149h1M260 149h1M262 149h1M21 150h1M23 150h1M25 150h1M27 150h1M29 150h1M31 150h1M33 150h1M35 150h1M37 150h1M99 150h1M103 150h2M108 150h1M112 150h1M118 150h2M121 150h1M123 150h1M125 150h1M127 150h1M131 150h1M177 150h1M185 150h1M188 150h1M204 150h1M20 151h1M22 151h1M24 151h1M26 151h1M28 151h1M30 151h1M32 151h1M34 151h1M36 151h1M38 151h1M100 151h3M109 151h1M111 151h1M118 151h5M124 151h1M128 151h1M165 151h1M176 151h1M178 151h1M183 151h2M187 151h1M222 151h1M224 151h1M226 151h1M228 151h1M230 151h1M232 151h1M234 151h1M236 151h1M238 151h1M240 151h1M242 151h1M244 151h1M246 151h1M248 151h1M250 151h1M252 151h1M254 151h1M256 151h1M258 151h1M260 151h1M21 152h1M23 152h1M25 152h1M27 152h1M29 152h1M31 152h1M33 152h1M35 152h1M37 152h1M39 152h1M110 152h1M118 152h2M121 152h1M123 152h1M125 152h1M127 152h1M129 152h1M133 152h1M157 152h1M179 152h1M181 152h2M185 152h1M201 152h1M22 153h1M24 153h1M26 153h1M28 153h1M30 153h1M32 153h1M34 153h1M36 153h1M38 153h1M40 153h1M109 153h2M118 153h5M124 153h1M126 153h1M167 153h1M178 153h1M180 153h1M184 153h1M218 153h1M220 153h1M222 153h1M224 153h1M226 153h1M228 153h1M230 153h1M232 153h1M234 153h1M236 153h1M238 153h1M240 153h1M242 153h1M244 153h1M246 153h1M248 153h1M250 153h1M252 153h1M254 153h1M256 153h1M21 154h1M23 154h1M25 154h1M27 154h1M29 154h1M31 154h1M33 154h1M35 154h1M37 154h1M39 154h1M41 154h1M103 154h1M107 154h2M118 154h2M121 154h1M123 154h1M125 154h1M127 154h1M131 154h1M182 154h1M22 155h1M24 155h1M26 155h1M28 155h1M30 155h1M32 155h1M34 155h1M36 155h1M38 155h1M40 155h1M42 155h1M104 155h1M106 155h1M118 155h5M124 155h1M128 155h1M157 155h1M169 155h1M180 155h1M196 155h1M214 155h1M216 155h1M218 155h1M220 155h1M222 155h1M224 155h1M226 155h1M228 155h1M230 155h1M232 155h1M234 155h1M236 155h1M238 155h1M240 155h1M242 155h1M244 155h1M246 155h1M248 155h1M250 155h1M252 155h1M21 156h1M23 156h1M25 156h1M27 156h1M29 156h1M31 156h1M33 156h1M35 156h1M37 156h1M39 156h1M41 156h1M43 156h1M105 156h1M118 156h2M121 156h1M123 156h1M125 156h1M127 156h1M129 156h1M133 156h1M22 157h1M24 157h1M26 157h1M28 157h1M30 157h1M32 157h1M34 157h1M36 157h1M38 157h1M40 157h1M42 157h1M44 157h1M118 157h5M124 157h1M126 157h1M171 157h1M212 157h1M214 157h1M216 157h1M218 157h1M220 157h1M222 157h1M224 157h1M226 157h1M228 157h1M230 157h1M232 157h1M234 157h1M236 157h1M238 157h1M240 157h1M242 157h1M244 157h1M246 157h1M248 157h1M250 157h1M23 158h1M25 158h1M27 158h1M29 158h1M31 158h1M33 158h1M35 158h1M37 158h1M39 158h1M41 158h1M43 158h1M45 158h1M118 158h2M121 158h1M123 158h1M125 158h1M127 158h1M131 158h1M157 158h1M179 158h1M191 158h1M24 159h1M26 159h1M28 159h1M30 159h1M32 159h1M34 159h1M36 159h1M38 159h1M40 159h1M42 159h1M44 159h1M46 159h1M118 159h5M124 159h1M128 159h1M173 159h1M208 159h1M210 159h1M212 159h1M214 159h1M216 159h1M218 159h1M220 159h1M222 159h1M224 159h1M226 159h1M228 159h1M230 159h1M232 159h1M234 159h1M236 159h1M238 159h1M240 159h1M242 159h1M244 159h1M246 159h1M25 160h1M27 160h1M29 160h1M31 160h1M33 160h1M35 160h1M37 160h1M39 160h1M41 160h1M43 160h1M45 160h1M47 160h1M118 160h2M121 160h1M123 160h1M125 160h1M127 160h1M129 160h1M133 160h1M26 161h1M28 161h1M30 161h1M32 161h1M34 161h1M36 161h1M38 161h1M40 161h1M42 161h1M44 161h1M46 161h1M48 161h1M118 161h5M124 161h1M126 161h1M157 161h1M175 161h1M179 161h1M186 161h1M206 161h1M208 161h1M210 161h1M212 161h1M214 161h1M216 161h1M218 161h1M220 161h1M222 161h1M224 161h1M226 161h1M228 161h1M230 161h1M232 161h1M234 161h1M236 161h1M238 161h1M240 161h1M242 161h1M244 161h1M27 162h1M29 162h1M31 162h1M33 162h1M35 162h1M37 162h1M39 162h1M41 162h1M43 162h1M45 162h1M47 162h1M49 162h1M117 162h3M121 162h1M123 162h1M125 162h1M127 162h1M131 162h1M28 163h1M30 163h1M32 163h1M34 163h1M36 163h1M38 163h1M40 163h1M42 163h1M44 163h1M46 163h1M48 163h1M50 163h1M116 163h1M118 163h5M124 163h1M128 163h1M157 163h1M177 163h1M202 163h1M204 163h1M206 163h1M208 163h1M210 163h1M212 163h1M214 163h1M216 163h1M218 163h1M220 163h1M222 163h1M224 163h1M226 163h1M228 163h1M230 163h1M232 163h1M234 163h1M236 163h1M238 163h1M240 163h1M29 164h1M31 164h1M33 164h1M35 164h1M37 164h1M39 164h1M41 164h1M43 164h1M45 164h1M47 164h1M49 164h1M51 164h1M116 164h1M118 164h2M121 164h1M123 164h1M125 164h1M127 164h1M129 164h1M133 164h1M158 164h1M181 164h1M30 165h1M32 165h1M34 165h1M36 165h1M38 165h1M40 165h1M42 165h1M44 165h1M46 165h1M48 165h1M50 165h1M115 165h2M118 165h5M124 165h1M126 165h1M179 165h1M198 165h1M200 165h1M202 165h1M204 165h1M206 165h1M208 165h1M210 165h1M212 165h1M214 165h1M216 165h1M218 165h1M220 165h1M222 165h1M224 165h1M226 165h1M228 165h1M230 165h1M232 165h1M234 165h1M236 165h1M31 166h1M33 166h1M35 166h1M37 166h1M39 166h1M41 166h1M43 166h1M45 166h1M47 166h1M49 166h1M51 166h1M115 166h2M118 166h2M121 166h1M123 166h1M125 166h1M127 166h1M131 166h1M159 166h1M32 167h1M34 167h1M36 167h1M38 167h1M40 167h1M42 167h1M44 167h1M46 167h1M48 167h1M50 167h1M52 167h1M114 167h4M119 167h4M124 167h1M128 167h1M156 167h1M196 167h1M198 167h1M200 167h1M202 167h1M204 167h1M206 167h1M208 167h1M210 167h1M212 167h1M214 167h1M216 167h1M218 167h1M220 167h1M222 167h1M224 167h1M226 167h1M228 167h1M230 167h1M232 167h1M234 167h1M33 168h1M35 168h1M37 168h1M39 168h1M41 168h1M43 168h1M45 168h1M47 168h1M49 168h1M51 168h1M53 168h1M114 168h4M119 168h1M121 168h1M123 168h1M125 168h1M127 168h1M129 168h1M133 168h1M160 168h1M34 169h1M36 169h1M38 169h1M40 169h1M42 169h1M44 169h1M46 169h1M48 169h1M50 169h1M52 169h1M54 169h1M114 169h5M120 169h3M124 169h1M126 169h1M192 169h1M194 169h1M196 169h1M198 169h1M200 169h1M202 169h1M204 169h1M206 169h1M208 169h1M210 169h1M212 169h1M214 169h1M216 169h1M218 169h1M220 169h1M222 169h1M224 169h1M226 169h1M228 169h1M230 169h1M33 170h1M35 170h1M37 170h1M39 170h1M41 170h1M43 170h1M45 170h1M47 170h1M49 170h1M51 170h1M53 170h1M55 170h1M114 170h5M120 170h2M123 170h1M125 170h1M127 170h1M131 170h1M155 170h1M160 170h1M34 171h1M36 171h1M38 171h1M40 171h1M42 171h1M44 171h1M46 171h1M48 171h1M50 171h1M52 171h1M54 171h1M56 171h1M114 171h6M121 171h2M124 171h1M128 171h1M188 171h1M190 171h1M192 171h1M194 171h1M196 171h1M198 171h1M200 171h1M202 171h1M204 171h1M206 171h1M208 171h1M210 171h1M212 171h1M214 171h1M216 171h1M218 171h1M220 171h1M222 171h1M224 171h1M226 171h1M35 172h1M37 172h1M39 172h1M41 172h1M43 172h1M45 172h1M47 172h1M49 172h1M51 172h1M53 172h1M55 172h1M57 172h1M114 172h6M121 172h1M123 172h1M125 172h1M127 172h1M129 172h1M133 172h1M154 172h1M160 172h1M36 173h1M38 173h1M40 173h1M42 173h1M44 173h1M46 173h1M48 173h1M50 173h1M52 173h1M54 173h1M56 173h1M58 173h1M114 173h7M122 173h1M124 173h1M126 173h1M186 173h1M188 173h1M190 173h1M192 173h1M194 173h1M196 173h1M198 173h1M200 173h1M202 173h1M204 173h1M206 173h1M208 173h1M210 173h1M212 173h1M214 173h1M216 173h1M218 173h1M220 173h1M222 173h1M224 173h1M37 174h1M39 174h1M41 174h1M43 174h1M45 174h1M47 174h1M49 174h1M51 174h1M53 174h1M55 174h1M57 174h1M59 174h1M115 174h7M123 174h1M125 174h1M127 174h1M131 174h1M152 174h1M38 175h1M40 175h1M42 175h1M44 175h1M46 175h1M48 175h1M50 175h1M52 175h1M54 175h1M56 175h1M58 175h1M60 175h1M115 175h8M124 175h3M128 175h1M150 175h1M159 175h1M182 175h1M184 175h1M186 175h1M188 175h1M190 175h1M192 175h1M194 175h1M196 175h1M198 175h1M200 175h1M202 175h1M204 175h1M206 175h1M208 175h1M210 175h1M212 175h1M214 175h1M216 175h1M218 175h1M220 175h1M39 176h1M41 176h1M43 176h1M45 176h1M47 176h1M49 176h1M51 176h1M53 176h1M55 176h1M57 176h1M59 176h1M61 176h1M116 176h8M126 176h2M133 176h1M148 176h1M40 177h1M42 177h1M44 177h1M46 177h1M48 177h1M50 177h1M52 177h1M54 177h1M56 177h1M58 177h1M60 177h1M62 177h1M116 177h10M128 177h2M146 177h1M157 177h1M178 177h1M180 177h1M182 177h1M184 177h1M186 177h1M188 177h1M190 177h1M192 177h1M194 177h1M196 177h1M198 177h1M200 177h1M202 177h1M204 177h1M206 177h1M208 177h1M210 177h1M212 177h1M214 177h1M216 177h1M218 177h1M41 178h1M43 178h1M45 178h1M47 178h1M49 178h1M51 178h1M53 178h1M55 178h1M57 178h1M59 178h1M61 178h1M63 178h1M117 178h11M130 178h3M143 178h1M145 178h1M150 178h1M42 179h1M44 179h1M46 179h1M48 179h1M50 179h1M52 179h1M54 179h1M56 179h1M58 179h1M60 179h1M62 179h1M64 179h1M118 179h8M127 179h1M129 179h1M133 179h5M139 179h1M141 179h1M147 179h1M155 179h1M176 179h1M178 179h1M180 179h1M182 179h1M184 179h1M186 179h1M188 179h1M190 179h1M192 179h1M194 179h1M196 179h1M198 179h1M200 179h1M202 179h1M204 179h1M206 179h1M208 179h1M210 179h1M212 179h1M214 179h1M43 180h1M45 180h1M47 180h1M49 180h1M51 180h1M53 180h1M55 180h1M57 180h1M59 180h1M61 180h1M63 180h1M65 180h1M119 180h14M144 180h1M149 180h1M44 181h1M46 181h1M48 181h1M50 181h1M52 181h1M54 181h1M56 181h1M58 181h1M60 181h1M62 181h1M64 181h1M120 181h6M127 181h1M129 181h1M131 181h1M133 181h1M135 181h1M137 181h1M139 181h1M141 181h1M143 181h1M146 181h1M153 181h1M172 181h1M174 181h1M176 181h1M178 181h1M180 181h1M182 181h1M184 181h1M186 181h1M188 181h1M190 181h1M192 181h1M194 181h1M196 181h1M198 181h1M200 181h1M202 181h1M204 181h1M206 181h1M208 181h1M210 181h1M45 182h1M47 182h1M49 182h1M51 182h1M53 182h1M55 182h1M57 182h1M59 182h1M61 182h1M63 182h1M65 182h1M121 182h14M136 182h1M138 182h1M142 182h1M148 182h1M151 182h1M46 183h1M48 183h1M50 183h1M52 183h1M54 183h1M56 183h1M58 183h1M60 183h1M62 183h1M64 183h1M66 183h1M123 183h3M127 183h1M129 183h1M131 183h1M133 183h1M135 183h1M137 183h1M139 183h1M141 183h1M143 183h1M145 183h1M149 183h2M168 183h1M170 183h1M172 183h1M174 183h1M176 183h1M178 183h1M180 183h1M182 183h1M184 183h1M186 183h1M188 183h1M190 183h1M192 183h1M194 183h1M196 183h1M198 183h1M200 183h1M202 183h1M204 183h1M206 183h1M208 183h1M47 184h1M49 184h1M51 184h1M53 184h1M55 184h1M57 184h1M59 184h1M61 184h1M63 184h1M65 184h1M67 184h1M125 184h10M136 184h1M138 184h1M140 184h1M147 184h1M48 185h1M50 185h1M52 185h1M54 185h1M56 185h1M58 185h1M60 185h1M62 185h1M64 185h1M66 185h1M68 185h1M127 185h1M129 185h1M131 185h1M133 185h1M135 185h1M137 185h1M139 185h1M141 185h1M143 185h1M145 185h2M166 185h1M168 185h1M170 185h1M172 185h1M174 185h1M176 185h1M178 185h1M180 185h1M182 185h1M184 185h1M186 185h1M188 185h1M190 185h1M192 185h1M194 185h1M196 185h1M198 185h1M200 185h1M202 185h1M204 185h1M49 186h1M51 186h1M53 186h1M55 186h1M57 186h1M59 186h1M61 186h1M63 186h1M65 186h1M67 186h1M69 186h1M131 186h4M136 186h1M138 186h1M142 186h1M50 187h1M52 187h1M54 187h1M56 187h1M58 187h1M60 187h1M62 187h1M64 187h1M66 187h1M68 187h1M70 187h1M162 187h1M164 187h1M166 187h1M168 187h1M170 187h1M172 187h1M174 187h1M176 187h1M178 187h1M180 187h1M182 187h1M184 187h1M186 187h1M188 187h1M190 187h1M192 187h1M194 187h1M196 187h1M198 187h1M200 187h1M202 187h1M51 188h1M53 188h1M55 188h1M57 188h1M59 188h1M61 188h1M63 188h1M65 188h1M67 188h1M69 188h1M71 188h1M50 189h1M52 189h1M54 189h1M56 189h1M58 189h1M60 189h1M62 189h1M64 189h1M66 189h1M68 189h1M70 189h1M72 189h1M158 189h1M160 189h1M162 189h1M164 189h1M166 189h1M168 189h1M170 189h1M172 189h1M174 189h1M176 189h1M178 189h1M180 189h1M182 189h1M184 189h1M186 189h1M188 189h1M190 189h1M192 189h1M194 189h1M196 189h1M198 189h1M51 190h1M53 190h1M55 190h1M57 190h1M59 190h1M61 190h1M63 190h1M65 190h1M67 190h1M69 190h1M71 190h1M73 190h1M52 191h1M54 191h1M56 191h1M58 191h1M60 191h1M62 191h1M64 191h1M66 191h1M68 191h1M70 191h1M72 191h1M74 191h1M156 191h1M158 191h1M160 191h1M162 191h1M164 191h1M166 191h1M168 191h1M170 191h1M172 191h1M174 191h1M176 191h1M178 191h1M180 191h1M182 191h1M184 191h1M186 191h1M188 191h1M190 191h1M192 191h1M194 191h1M53 192h1M55 192h1M57 192h1M59 192h1M61 192h1M63 192h1M65 192h1M67 192h1M69 192h1M71 192h1M73 192h1M75 192h1M54 193h1M56 193h1M58 193h1M60 193h1M62 193h1M64 193h1M66 193h1M68 193h1M70 193h1M72 193h1M74 193h1M76 193h1M152 193h1M154 193h1M156 193h1M158 193h1M160 193h1M162 193h1M164 193h1M166 193h1M168 193h1M170 193h1M172 193h1M174 193h1M176 193h1M178 193h1M180 193h1M182 193h1M184 193h1M186 193h1M188 193h1M190 193h1M192 193h1M55 194h1M57 194h1M59 194h1M61 194h1M63 194h1M65 194h1M67 194h1M69 194h1M71 194h1M73 194h1M75 194h1M77 194h1M56 195h1M58 195h1M60 195h1M62 195h1M64 195h1M66 195h1M68 195h1M70 195h1M72 195h1M74 195h1M76 195h1M78 195h1M148 195h1M150 195h1M152 195h1M154 195h1M156 195h1M158 195h1M160 195h1M162 195h1M164 195h1M166 195h1M168 195h1M170 195h1M172 195h1M174 195h1M176 195h1M178 195h1M180 195h1M182 195h1M184 195h1M186 195h1M188 195h1M57 196h1M59 196h1M61 196h1M63 196h1M65 196h1M67 196h1M69 196h1M71 196h1M73 196h1M75 196h1M77 196h1M58 197h1M60 197h1M62 197h1M64 197h1M66 197h1M68 197h1M70 197h1M72 197h1M74 197h1M76 197h1M78 197h1M146 197h1M148 197h1M150 197h1M152 197h1M154 197h1M156 197h1M158 197h1M160 197h1M162 197h1M164 197h1M166 197h1M168 197h1M170 197h1M172 197h1M174 197h1M176 197h1M178 197h1M180 197h1M182 197h1M184 197h1M186 197h1M59 198h1M61 198h1M63 198h1M65 198h1M67 198h1M69 198h1M71 198h1M73 198h1M75 198h1M77 198h1M79 198h1M60 199h1M62 199h1M64 199h1M66 199h1M68 199h1M70 199h1M72 199h1M74 199h1M76 199h1M78 199h1M80 199h1M142 199h1M144 199h1M146 199h1M148 199h1M150 199h1M152 199h1M154 199h1M156 199h1M158 199h1M160 199h1M162 199h1M164 199h1M166 199h1M168 199h1M170 199h1M172 199h1M174 199h1M176 199h1M178 199h1M180 199h1M182 199h1M61 200h1M63 200h1M65 200h1M67 200h1M69 200h1M71 200h1M73 200h1M75 200h1M77 200h1M79 200h1M81 200h1M62 201h1M64 201h1M66 201h1M68 201h1M70 201h1M72 201h1M74 201h1M76 201h1M78 201h1M80 201h1M82 201h1M138 201h1M140 201h1M142 201h1M144 201h1M146 201h1M148 201h1M150 201h1M152 201h1M154 201h1M156 201h1M158 201h1M160 201h1M162 201h1M164 201h1M166 201h1M168 201h1M170 201h1M172 201h1M174 201h1M176 201h1M178 201h1M63 202h1M65 202h1M67 202h1M69 202h1M71 202h1M73 202h1M75 202h1M77 202h1M79 202h1M81 202h1M83 202h1M64 203h1M66 203h1M68 203h1M70 203h1M72 203h1M74 203h1M76 203h1M78 203h1M80 203h1M82 203h1M84 203h1M136 203h1M138 203h1M140 203h1M142 203h1M144 203h1M146 203h1M148 203h1M150 203h1M152 203h1M154 203h1M156 203h1M158 203h1M160 203h1M162 203h1M164 203h1M166 203h1M168 203h1M170 203h1M172 203h1M174 203h1M176 203h1M65 204h1M67 204h1M69 204h1M71 204h1M73 204h1M75 204h1M77 204h1M79 204h1M81 204h1M83 204h1M85 204h1M66 205h1M68 205h1M70 205h1M72 205h1M74 205h1M76 205h1M78 205h1M80 205h1M82 205h1M84 205h1M86 205h1M132 205h1M134 205h1M136 205h1M138 205h1M140 205h1M142 205h1M144 205h1M146 205h1M148 205h1M150 205h1M152 205h1M154 205h1M156 205h1M158 205h1M160 205h1M162 205h1M164 205h1M166 205h1M168 205h1M170 205h1M172 205h1M67 206h1M69 206h1M71 206h1M73 206h1M75 206h1M77 206h1M79 206h1M81 206h1M83 206h1M85 206h1M87 206h1M66 207h1M68 207h1M70 207h1M72 207h1M74 207h1M76 207h1M78 207h1M80 207h1M82 207h1M84 207h1M86 207h1M88 207h1M128 207h1M130 207h1M132 207h1M134 207h1M136 207h1M138 207h1M140 207h1M142 207h1M144 207h1M146 207h1M148 207h1M150 207h1M152 207h1M154 207h1M156 207h1M158 207h1M160 207h1M162 207h1M164 207h1M166 207h1M168 207h1M67 208h1M69 208h1M71 208h1M73 208h1M75 208h1M77 208h1M79 208h1M81 208h1M83 208h1M85 208h1M87 208h1M89 208h1M68 209h1M70 209h1M72 209h1M74 209h1M76 209h1M78 209h1M80 209h1M82 209h1M84 209h1M86 209h1M88 209h1M90 209h1M126 209h1M128 209h1M130 209h1M132 209h1M134 209h1M136 209h1M138 209h1M140 209h1M142 209h1M144 209h1M146 209h1M148 209h1M150 209h1M152 209h1M154 209h1M156 209h1M158 209h1M160 209h1M162 209h1M164 209h1M166 209h1M69 210h1M71 210h1M73 210h1M75 210h1M77 210h1M79 210h1M81 210h1M83 210h1M85 210h1M87 210h1M89 210h1M91 210h1M70 211h1M72 211h1M74 211h1M76 211h1M78 211h1M80 211h1M82 211h1M84 211h1M86 211h1M88 211h1M90 211h1M92 211h1M122 211h1M124 211h1M126 211h1M128 211h1M130 211h1M132 211h1M134 211h1M136 211h1M138 211h1M140 211h1M142 211h1M144 211h1M146 211h1M148 211h1M150 211h1M152 211h1M154 211h1M156 211h1M158 211h1M160 211h1M162 211h1M71 212h1M73 212h1M75 212h1M77 212h1M79 212h1M81 212h1M83 212h1M85 212h1M87 212h1M89 212h1M91 212h1M72 213h1M74 213h1M76 213h1M78 213h1M80 213h1M82 213h1M84 213h1M86 213h1M88 213h1M90 213h1M92 213h1M118 213h1M120 213h1M122 213h1M124 213h1M126 213h1M128 213h1M130 213h1M132 213h1M134 213h1M136 213h1M138 213h1M140 213h1M142 213h1M144 213h1M146 213h1M148 213h1M150 213h1M152 213h1M154 213h1M156 213h1M158 213h1M160 213h1M73 214h1M75 214h1M77 214h1M79 214h1M81 214h1M83 214h1M85 214h1M87 214h1M89 214h1M91 214h1M93 214h1M74 215h1M76 215h1M78 215h1M80 215h1M82 215h1M84 215h1M86 215h1M88 215h1M90 215h1M92 215h1M94 215h1M116 215h1M118 215h1M120 215h1M122 215h1M124 215h1M126 215h1M128 215h1M130 215h1M132 215h1M134 215h1M136 215h1M138 215h1M140 215h1M142 215h1M144 215h1M146 215h1M148 215h1M150 215h1M152 215h1M154 215h1M156 215h1M75 216h1M77 216h1M79 216h1M81 216h1M83 216h1M85 216h1M87 216h1M89 216h1M91 216h1M93 216h1M95 216h1M76 217h1M78 217h1M80 217h1M82 217h1M84 217h1M86 217h1M88 217h1M90 217h1M92 217h1M94 217h1M96 217h1M112 217h1M114 217h1M116 217h1M118 217h1M120 217h1M122 217h1M124 217h1M126 217h1M128 217h1M130 217h1M132 217h1M134 217h1M136 217h1M138 217h1M140 217h1M142 217h1M144 217h1M146 217h1M148 217h1M150 217h1M152 217h1M77 218h1M79 218h1M81 218h1M83 218h1M85 218h1M87 218h1M89 218h1M91 218h1M93 218h1M95 218h1M97 218h1M78 219h1M80 219h1M82 219h1M84 219h1M86 219h1M88 219h1M90 219h1M92 219h1M94 219h1M96 219h1M98 219h1M108 219h1M110 219h1M112 219h1M114 219h1M116 219h1M118 219h1M120 219h1M122 219h1M124 219h1M126 219h1M128 219h1M130 219h1M132 219h1M134 219h1M136 219h1M138 219h1M140 219h1M142 219h1M144 219h1M146 219h1M148 219h1M150 219h1M79 220h1M81 220h1M83 220h1M85 220h1M87 220h1M89 220h1M91 220h1M93 220h1M95 220h1M97 220h1M99 220h1M101 220h1M80 221h1M82 221h1M84 221h1M86 221h1M88 221h1M90 221h1M92 221h1M94 221h1M96 221h1M98 221h1M100 221h1M102 221h1M104 221h1M106 221h1M108 221h1M110 221h1M112 221h1M114 221h1M116 221h1M118 221h1M120 221h1M122 221h1M124 221h1M126 221h1M128 221h1M130 221h1M132 221h1M134 221h1M136 221h1M138 221h1M140 221h1M142 221h1M144 221h1M146 221h1M81 222h1M83 222h1M85 222h1M87 222h1M89 222h1M91 222h1M93 222h1M95 222h1M97 222h1M99 222h1M101 222h1M82 223h1M84 223h1M86 223h1M88 223h1M90 223h1M92 223h1M94 223h1M96 223h1M98 223h1M100 223h1M102 223h1M104 223h1M106 223h1M108 223h1M110 223h1M112 223h1M114 223h1M116 223h1M118 223h1M120 223h1M122 223h1M124 223h1M126 223h1M128 223h1M130 223h1M132 223h1M134 223h1M136 223h1M138 223h1M140 223h1M142 223h1M144 223h1M83 224h1M85 224h1M87 224h1M89 224h1M91 224h1M93 224h1M95 224h1M97 224h1M99 224h1M101 224h1M84 225h1M86 225h1M88 225h1M90 225h1M92 225h1M94 225h1M96 225h1M98 225h1M100 225h1M102 225h1M104 225h1M106 225h1M108 225h1M110 225h1M112 225h1M114 225h1M116 225h1M118 225h1M120 225h1M122 225h1M124 225h1M126 225h1M128 225h1M130 225h1M132 225h1M134 225h1M136 225h1M138 225h1M140 225h1M83 226h1M85 226h1M87 226h1M89 226h1M91 226h1M93 226h1M95 226h1M97 226h1M99 226h1M101 226h1M84 227h1M86 227h1M88 227h1M90 227h1M92 227h1M94 227h1M96 227h1M98 227h1M100 227h1M102 227h1M104 227h1M106 227h1M108 227h1M110 227h1M112 227h1M114 227h1M116 227h1M118 227h1M120 227h1M122 227h1M124 227h1M126 227h1M128 227h1M130 227h1M132 227h1M134 227h1M136 227h1M85 228h1M87 228h1M89 228h1M91 228h1M93 228h1M95 228h1M97 228h1M99 228h1M101 228h1M86 229h1M88 229h1M90 229h1M92 229h1M94 229h1M96 229h1M98 229h1M100 229h1M102 229h1M104 229h1M106 229h1M108 229h1M110 229h1M112 229h1M114 229h1M116 229h1M118 229h1M120 229h1M122 229h1M124 229h1M126 229h1M128 229h1M130 229h1M132 229h1M134 229h1M87 230h1M89 230h1M91 230h1M93 230h1M95 230h1M97 230h1M99 230h1M101 230h1M88 231h1M90 231h1M92 231h1M94 231h1M96 231h1M98 231h1M100 231h1M102 231h1M104 231h1M106 231h1M108 231h1M110 231h1M112 231h1M114 231h1M116 231h1M118 231h1M120 231h1M122 231h1M124 231h1M126 231h1M128 231h1M130 231h1M89 232h1M91 232h1M93 232h1M95 232h1M97 232h1M99 232h1M101 232h1M90 233h1M92 233h1M94 233h1M96 233h1M98 233h1M100 233h1M102 233h1M104 233h1M106 233h1M108 233h1M110 233h1M112 233h1M114 233h1M116 233h1M118 233h1M120 233h1M122 233h1M124 233h1M126 233h1M91 234h1M93 234h1M95 234h1M97 234h1M99 234h1M101 234h1M92 235h1M94 235h1M96 235h1M98 235h1M100 235h1M102 235h1M104 235h1M106 235h1M108 235h1M110 235h1M112 235h1M114 235h1M116 235h1M118 235h1M120 235h1M122 235h1M124 235h1M93 236h1M95 236h1M97 236h1M99 236h1M101 236h1M103 236h1M94 237h1M96 237h1M98 237h1M100 237h1M102 237h1M104 237h1M106 237h1M108 237h1M110 237h1M112 237h1M114 237h1M116 237h1M118 237h1M120 237h1M95 238h1M97 238h1M99 238h1M101 238h1M103 238h1M96 239h1M98 239h1M100 239h1M102 239h1M104 239h1M106 239h1M108 239h1M110 239h1M112 239h1M114 239h1M116 239h1M118 239h1M97 240h1M99 240h1M101 240h1M103 240h1M98 241h1M100 241h1M102 241h1M104 241h1M106 241h1M108 241h1M110 241h1M112 241h1M114 241h1M99 242h1M101 242h1M103 242h1M100 243h1M102 243h1M104 243h1M106 243h1M108 243h1M110 243h1M101 244h1M103 244h1M102 245h1M104 245h1M106 245h1M108 245h1M103 246h1M105 246h1" />
<path stroke="rgba(254,254,254,0.9294117647058824)" d="M263 4h2M257 5h3M265 5h2M255 6h3M267 6h1M254 7h5M264 7h1M268 7h1M228 8h1M254 8h2M257 8h1M266 8h1M254 9h4M266 9h1M254 10h4M265 10h1M269 10h1M254 11h6M265 11h1M268 11h1M254 12h8M264 12h1M255 13h4M260 13h1M256 14h1M258 14h1M260 14h2M257 15h1M259 15h1M261 15h1M263 15h1M265 15h1M258 16h1M260 16h1M259 17h1M261 17h1M263 17h1M265 17h1M261 19h1M263 19h1M210 32h1M212 34h1M214 36h1M260 37h1M220 40h1M251 40h1M257 40h1M248 41h1M226 42h1M244 42h1M223 43h1M225 43h1M229 43h1M251 44h1M227 45h1M230 46h1M234 46h1M238 46h1M242 46h1M324 55h5M332 55h1M323 56h5M334 56h1M322 57h3M335 57h1M321 58h3M332 58h1M321 59h3M333 59h1M336 59h1M320 60h1M322 60h1M333 60h1M336 60h1M320 61h4M336 61h1M320 62h3M324 62h1M332 62h1M335 62h1M321 63h3M325 63h2M320 64h1M322 64h7M319 65h1M321 65h1M323 65h1M325 65h5M320 66h1M322 66h1M324 66h1M319 67h1M321 67h1M323 67h1M325 67h1M327 67h1M329 67h1M331 67h1M279 68h1M320 68h1M322 68h1M324 68h1M278 69h1M321 69h1M323 69h1M325 69h1M327 69h1M329 69h1M277 70h3M322 70h1M324 70h1M276 71h3M325 71h1M327 71h1M275 72h1M275 73h1M277 73h1M274 74h2M277 74h1M274 75h2M277 75h1M274 76h2M277 76h1M273 77h2M276 77h1M278 77h1M273 78h6M273 79h3M278 79h1M273 80h1M275 80h2M278 80h2M315 80h1M274 81h3M278 81h3M274 82h8M274 83h7M282 83h1M315 83h1M275 84h9M275 85h6M282 85h1M284 85h2M276 86h8M285 86h1M287 86h1M314 86h1M276 87h4M284 87h1M286 87h1M288 87h1M290 87h1M302 87h1M277 88h7M285 88h1M287 88h1M289 88h1M291 88h1M293 88h1M306 88h1M312 88h1M278 89h3M284 89h1M286 89h1M288 89h1M290 89h1M292 89h1M294 89h1M296 89h1M298 89h1M300 89h1M302 89h1M304 89h1M280 90h4M285 90h1M287 90h1M289 90h1M291 90h1M293 90h1M295 90h1M297 90h1M307 90h1M309 90h1M281 91h2M284 91h1M286 91h1M288 91h1M290 91h1M292 91h1M294 91h1M296 91h1M298 91h1M300 91h1M302 91h1M304 91h1M283 92h1M285 92h1M287 92h1M289 92h1M291 92h1M293 92h1M295 92h1M297 92h1M306 92h1M286 93h1M288 93h1M290 93h1M292 93h1M294 93h1M296 93h1M298 93h1M300 93h1M302 93h1M304 93h1M291 94h1M293 94h1M295 94h1M297 94h1M299 94h1M301 94h1M40 115h3M46 115h2M38 116h3M49 116h1M36 117h6M50 117h1M35 118h3M39 118h1M46 118h1M51 118h1M35 119h2M38 119h1M47 119h1M52 119h1M34 120h4M48 120h1M52 120h1M33 121h1M35 121h3M49 121h1M52 121h1M34 122h4M49 122h1M52 122h1M33 123h5M48 123h1M35 124h2M38 124h1M48 124h1M33 125h1M35 125h2M38 125h2M46 125h2M34 126h1M36 126h1M38 126h5M33 127h1M35 127h1M37 127h5M34 128h1M36 128h1M38 128h6M33 129h1M35 129h1M37 129h1M34 130h1M36 130h1M38 130h1M40 130h1M42 130h1M44 130h1M35 131h1M37 131h1M34 132h1M40 132h1M42 132h1M37 133h1M38 134h1M40 134h1M41 135h1M101 181h2M99 182h3M110 182h1M97 183h3M101 183h3M111 183h1M96 184h2M99 184h2M112 184h1M95 185h4M108 185h1M112 185h1M95 186h1M97 186h1M109 186h1M112 186h1M94 187h2M97 187h1M113 187h1M94 188h2M109 188h1M113 188h1M94 189h2M109 189h1M113 189h1M94 190h4M109 190h1M96 191h2M94 192h4M107 192h1M95 193h6M94 194h1M96 194h8M95 195h1M97 195h2M100 195h3M94 196h1M96 196h1M98 196h1M100 196h5M95 197h1M97 197h1M99 197h1M94 198h1M96 198h1M98 198h1M100 198h1M102 198h1M104 198h1M106 198h1M108 198h1M95 199h1M97 199h1M99 199h1M96 200h1M98 200h1M100 200h1M102 200h1M104 200h1M106 200h1M97 201h1M99 201h1M100 202h1M102 202h1M104 202h1" />
<path stroke="rgba(254,254,254,0.996078431372549)" d="M256 8h1M259 13h1M321 60h1M324 63h1M276 72h2M276 73h1M276 74h1M276 75h1M276 76h1M275 77h1M277 77h1M276 79h2M274 80h1M277 80h1M273 81h1M277 81h1M286 86h1M280 87h1M282 87h1M282 89h1M38 118h1M37 119h1M34 121h1M34 124h1M37 124h1M37 125h1M37 126h1M36 132h1M38 132h1M100 183h1M98 184h1M96 186h1M96 187h1M96 188h1M96 189h1M95 191h1M98 192h1M99 195h1" />
</svg>