<svg xmlns="http://www.w3.org/2000/svg" viewBox="0 -0.5 470 350" shape-rendering="crispEdges">
<metadata>Made with Pixels to Svg https://codepen.io/shshaw/pen/XbxvNj</metadata>
<path stroke="#ffffff" d="M402 30h13M229 31h61M402 31h13M229 32h1M289 32h1M402 32h13M229 33h1M231 33h1M233 33h1M235 33h1M237 33h1M239 33h1M241 33h1M243 33h1M245 33h1M247 33h1M249 33h1M251 33h1M253 33h1M255 33h1M257 33h1M259 33h1M261 33h1M263 33h1M265 33h1M267 33h1M269 33h1M271 33h1M273 33h1M275 33h1M277 33h1M279 33h1M281 33h1M283 33h1M285 33h1M287 33h1M289 33h1M402 33h13M229 34h1M289 34h1M402 34h13M229 35h1M231 35h1M233 35h1M235 35h1M237 35h1M239 35h1M241 35h1M243 35h1M245 35h1M247 35h1M249 35h1M251 35h1M253 35h1M255 35h1M257 35h1M259 35h1M261 35h1M263 35h1M265 35h1M267 35h1M269 35h1M271 35h1M273 35h1M275 35h1M277 35h1M279 35h1M281 35h1M283 35h1M285 35h1M287 35h1M289 35h1M402 35h13M129 36h1M229 36h1M289 36h1M402 36h43M129 37h2M229 37h1M231 37h1M233 37h1M235 37h1M237 37h1M239 37h1M241 37h1M243 37h1M245 37h1M247 37h1M249 37h1M251 37h1M253 37h1M255 37h1M257 37h1M259 37h1M261 37h1M263 37h1M265 37h1M267 37h1M269 37h1M271 37h1M273 37h1M275 37h1M277 37h1M279 37h1M281 37h1M283 37h1M285 37h1M287 37h1M289 37h1M402 37h1M444 37h1M128 38h1M131 38h1M229 38h1M289 38h1M402 38h1M404 38h1M406 38h1M408 38h1M410 38h1M412 38h1M414 38h1M416 38h1M418 38h1M420 38h1M422 38h1M424 38h1M426 38h1M428 38h1M430 38h1M432 38h1M434 38h1M436 38h1M438 38h1M440 38h1M442 38h1M444 38h1M17 39h2M126 39h2M132 39h1M229 39h1M231 39h1M233 39h1M235 39h1M237 39h1M239 39h1M241 39h1M243 39h1M245 39h1M247 39h1M255 39h1M257 39h1M259 39h1M261 39h1M265 39h1M267 39h1M269 39h1M271 39h1M273 39h1M275 39h1M277 39h1M279 39h1M281 39h1M283 39h1M285 39h1M287 39h1M289 39h1M402 39h1M444 39h1M17 40h3M125 40h1M133 40h2M229 40h1M289 40h1M402 40h1M404 40h1M406 40h1M408 40h1M410 40h1M412 40h1M414 40h1M416 40h1M418 40h1M420 40h1M422 40h1M424 40h1M426 40h1M428 40h1M430 40h1M432 40h1M434 40h1M436 40h1M438 40h1M440 40h1M442 40h1M444 40h1M16 41h1M18 41h2M124 41h1M135 41h1M229 41h1M231 41h1M233 41h1M235 41h1M237 41h1M239 41h1M241 41h1M243 41h1M245 41h1M251 41h1M257 41h1M259 41h1M261 41h1M265 41h1M267 41h1M269 41h1M271 41h1M273 41h1M275 41h1M277 41h1M279 41h1M281 41h1M283 41h1M285 41h1M287 41h1M289 41h1M402 41h1M444 41h1M16 42h1M18 42h1M20 42h1M123 42h14M229 42h1M289 42h1M402 42h1M404 42h1M406 42h1M408 42h1M410 42h1M412 42h1M414 42h1M416 42h1M418 42h1M420 42h1M422 42h1M424 42h1M426 42h1M428 42h1M430 42h1M432 42h1M434 42h1M436 42h1M438 42h1M440 42h1M442 42h1M444 42h1M15 43h1M18 43h1M20 43h1M129 43h1M229 43h1M231 43h1M233 43h1M235 43h1M237 43h1M239 43h1M241 43h1M243 43h1M245 43h1M249 43h1M251 43h1M253 43h1M257 43h1M259 43h1M261 43h1M265 43h1M267 43h1M269 43h1M271 43h1M273 43h1M275 43h1M277 43h1M279 43h1M281 43h1M283 43h1M285 43h1M287 43h1M289 43h1M402 43h1M413 43h2M444 43h1M15 44h1M18 44h1M21 44h1M129 44h1M229 44h1M289 44h1M402 44h1M404 44h1M406 44h1M408 44h1M410 44h1M412 44h1M414 44h1M416 44h1M418 44h1M420 44h1M422 44h1M424 44h1M426 44h1M428 44h1M430 44h1M432 44h1M434 44h1M436 44h1M438 44h1M440 44h1M442 44h1M444 44h1M14 45h1M18 45h1M21 45h1M129 45h1M229 45h1M231 45h1M233 45h1M235 45h1M237 45h1M239 45h1M241 45h1M243 45h1M245 45h1M249 45h1M251 45h1M253 45h1M257 45h1M259 45h1M261 45h1M265 45h1M267 45h1M269 45h1M271 45h1M273 45h1M275 45h1M277 45h1M279 45h1M281 45h1M283 45h1M285 45h1M287 45h1M289 45h1M402 45h1M411 45h1M444 45h1M18 46h1M129 46h1M229 46h1M289 46h1M402 46h1M404 46h1M406 46h1M408 46h1M410 46h3M414 46h1M416 46h1M418 46h1M420 46h1M422 46h1M424 46h1M426 46h1M428 46h1M430 46h1M432 46h1M434 46h1M436 46h1M438 46h1M440 46h1M442 46h1M444 46h1M18 47h1M129 47h1M229 47h1M231 47h1M233 47h1M235 47h1M237 47h1M239 47h1M241 47h1M243 47h1M245 47h1M249 47h1M251 47h1M253 47h1M257 47h1M259 47h1M261 47h1M265 47h1M267 47h1M269 47h1M271 47h1M273 47h1M275 47h1M277 47h1M279 47h1M281 47h1M283 47h1M285 47h1M287 47h1M289 47h1M402 47h1M413 47h1M444 47h1M18 48h1M129 48h1M229 48h1M289 48h1M402 48h1M404 48h1M406 48h1M408 48h1M410 48h1M412 48h1M414 48h25M440 48h1M442 48h1M444 48h1M18 49h1M129 49h1M229 49h1M231 49h1M233 49h1M235 49h1M237 49h1M239 49h1M241 49h1M243 49h1M245 49h1M251 49h1M257 49h1M259 49h1M261 49h1M265 49h1M267 49h1M269 49h1M271 49h1M273 49h1M275 49h1M277 49h1M279 49h1M281 49h1M283 49h1M285 49h1M287 49h1M289 49h1M402 49h1M438 49h1M444 49h1M18 50h1M129 50h1M229 50h1M289 50h1M402 50h1M404 50h1M406 50h1M408 50h1M410 50h1M412 50h1M414 50h1M416 50h1M418 50h1M420 50h1M422 50h1M424 50h1M426 50h1M428 50h1M430 50h1M432 50h1M434 50h1M436 50h1M438 50h1M440 50h1M442 50h1M444 50h1M18 51h1M129 51h1M229 51h1M231 51h1M233 51h1M235 51h1M237 51h1M239 51h1M241 51h1M243 51h1M245 51h1M247 51h1M255 51h1M257 51h1M259 51h1M261 51h1M273 51h1M275 51h1M277 51h1M279 51h1M281 51h1M283 51h1M285 51h1M287 51h1M289 51h1M402 51h1M438 51h1M444 51h1M18 52h1M129 52h1M229 52h1M289 52h1M402 52h1M404 52h1M406 52h1M408 52h1M410 52h1M412 52h1M414 52h1M416 52h1M418 52h1M420 52h1M422 52h1M424 52h1M426 52h1M428 52h1M430 52h1M432 52h1M434 52h1M436 52h1M438 52h1M440 52h1M442 52h1M444 52h1M18 53h1M129 53h1M229 53h1M231 53h1M233 53h1M235 53h1M237 53h1M239 53h1M241 53h1M243 53h1M245 53h1M247 53h1M249 53h1M251 53h1M253 53h1M255 53h1M257 53h1M259 53h1M261 53h1M263 53h1M265 53h1M267 53h1M269 53h1M271 53h1M273 53h1M275 53h1M277 53h1M279 53h1M281 53h1M283 53h1M285 53h1M287 53h1M289 53h1M402 53h1M412 53h2M438 53h1M444 53h1M18 54h1M129 54h1M229 54h1M289 54h1M402 54h1M404 54h1M406 54h1M408 54h1M410 54h3M414 54h1M416 54h1M418 54h1M420 54h1M422 54h1M424 54h1M426 54h1M428 54h1M430 54h1M432 54h1M434 54h1M436 54h1M438 54h1M440 54h1M442 54h1M444 54h1M18 55h1M129 55h1M229 55h1M231 55h1M233 55h1M235 55h1M237 55h1M239 55h1M241 55h1M243 55h1M245 55h1M247 55h1M249 55h1M251 55h1M253 55h1M255 55h1M257 55h1M259 55h1M261 55h1M263 55h1M265 55h1M267 55h1M269 55h1M271 55h1M273 55h1M275 55h1M277 55h1M279 55h1M281 55h1M283 55h1M285 55h1M287 55h1M289 55h1M402 55h1M411 55h2M438 55h1M444 55h1M18 56h1M129 56h1M229 56h1M289 56h1M402 56h1M404 56h1M406 56h1M408 56h1M410 56h1M412 56h3M416 56h1M418 56h1M420 56h1M422 56h1M424 56h1M426 56h1M428 56h1M430 56h1M432 56h1M434 56h1M436 56h1M438 56h1M440 56h1M442 56h1M444 56h1M18 57h1M129 57h1M229 57h1M231 57h1M233 57h1M235 57h1M237 57h1M239 57h1M241 57h1M243 57h1M245 57h1M247 57h1M249 57h1M251 57h1M253 57h1M255 57h1M257 57h1M259 57h1M261 57h1M263 57h1M265 57h1M267 57h1M269 57h1M271 57h1M273 57h1M275 57h1M277 57h1M279 57h1M281 57h1M283 57h1M285 57h1M287 57h1M289 57h1M402 57h1M414 57h13M438 57h1M444 57h1M18 58h1M129 58h1M229 58h1M289 58h1M402 58h1M404 58h1M406 58h1M408 58h1M410 58h1M412 58h1M414 58h1M416 58h1M418 58h1M420 58h1M422 58h1M424 58h1M426 58h1M428 58h1M430 58h1M432 58h1M434 58h1M436 58h1M438 58h1M440 58h1M442 58h1M444 58h1M18 59h1M129 59h1M229 59h1M231 59h1M233 59h1M235 59h1M237 59h1M239 59h1M241 59h1M243 59h1M245 59h1M257 59h1M259 59h1M261 59h1M269 59h1M271 59h1M273 59h1M275 59h1M277 59h1M279 59h1M281 59h1M283 59h1M285 59h1M287 59h1M289 59h1M402 59h1M426 59h1M438 59h1M444 59h1M18 60h1M129 60h1M229 60h1M289 60h1M402 60h1M404 60h1M406 60h1M408 60h1M410 60h1M412 60h1M414 60h1M416 60h1M418 60h1M420 60h1M422 60h1M424 60h1M426 60h1M428 60h1M430 60h1M432 60h1M434 60h1M436 60h1M438 60h1M440 60h1M442 60h1M444 60h1M18 61h1M129 61h1M229 61h1M231 61h1M233 61h1M235 61h1M237 61h1M239 61h1M241 61h1M243 61h1M245 61h1M249 61h1M251 61h1M253 61h1M255 61h1M257 61h1M259 61h1M261 61h1M265 61h1M267 61h1M271 61h1M273 61h1M275 61h1M277 61h1M279 61h1M281 61h1M283 61h1M285 61h1M287 61h1M289 61h1M402 61h1M414 61h1M426 61h1M438 61h1M444 61h1M18 62h1M129 62h1M229 62h1M289 62h1M402 62h1M404 62h1M406 62h1M408 62h1M410 62h1M412 62h3M416 62h1M418 62h1M420 62h1M422 62h1M424 62h1M426 62h1M428 62h1M430 62h1M432 62h1M434 62h1M436 62h1M438 62h1M440 62h1M442 62h1M444 62h1M18 63h1M129 63h1M229 63h1M231 63h1M233 63h1M235 63h1M237 63h1M239 63h1M241 63h1M243 63h1M245 63h1M249 63h1M251 63h1M253 63h1M255 63h1M257 63h1M259 63h1M261 63h1M265 63h1M267 63h1M269 63h1M273 63h1M275 63h1M277 63h1M279 63h1M281 63h1M283 63h1M285 63h1M287 63h1M289 63h1M402 63h1M411 63h1M426 63h1M438 63h1M444 63h1M18 64h1M129 64h1M229 64h1M289 64h1M402 64h1M404 64h1M406 64h1M408 64h1M410 64h3M414 64h1M416 64h1M418 64h1M420 64h1M422 64h1M424 64h1M426 64h1M428 64h1M430 64h1M432 64h1M434 64h1M436 64h1M438 64h1M440 64h1M442 64h1M444 64h1M18 65h1M129 65h1M229 65h1M231 65h1M233 65h1M235 65h1M237 65h1M239 65h1M241 65h1M243 65h1M245 65h1M255 65h1M257 65h1M259 65h1M261 65h1M265 65h1M267 65h1M269 65h1M273 65h1M275 65h1M277 65h1M279 65h1M281 65h1M283 65h1M285 65h1M287 65h1M289 65h1M402 65h1M412 65h2M426 65h1M438 65h1M444 65h1M18 66h1M129 66h1M229 66h1M289 66h1M402 66h1M404 66h1M406 66h1M408 66h1M410 66h1M412 66h1M414 66h1M416 66h1M418 66h1M420 66h1M422 66h1M424 66h1M426 66h1M428 66h1M430 66h1M432 66h1M434 66h1M436 66h1M438 66h1M440 66h1M442 66h1M444 66h1M18 67h1M129 67h1M229 67h1M231 67h1M233 67h1M235 67h1M237 67h1M239 67h1M241 67h1M243 67h1M245 67h1M249 67h1M251 67h1M253 67h1M255 67h1M257 67h1M259 67h1M261 67h1M265 67h1M267 67h1M269 67h1M273 67h1M275 67h1M277 67h1M279 67h1M281 67h1M283 67h1M285 67h1M287 67h1M289 67h1M402 67h1M414 67h1M426 67h1M438 67h1M444 67h1M18 68h1M129 68h3M229 68h1M289 68h1M402 68h1M404 68h1M406 68h1M408 68h1M410 68h1M412 68h1M414 68h1M416 68h1M418 68h1M420 68h1M422 68h1M424 68h1M426 68h1M428 68h1M430 68h1M432 68h1M434 68h1M436 68h1M438 68h1M440 68h1M442 68h1M444 68h1M18 69h1M132 69h3M229 69h1M231 69h1M233 69h1M235 69h1M237 69h1M239 69h1M241 69h1M243 69h1M245 69h1M249 69h1M251 69h1M253 69h1M255 69h1M257 69h1M259 69h1M261 69h1M265 69h1M267 69h1M271 69h1M273 69h1M275 69h1M277 69h1M279 69h1M281 69h1M283 69h1M285 69h1M287 69h1M289 69h1M402 69h1M414 69h1M426 69h1M438 69h1M444 69h1M18 70h1M132 70h3M229 70h1M289 70h1M402 70h1M404 70h1M406 70h1M408 70h1M410 70h1M412 70h1M414 70h1M416 70h1M418 70h1M420 70h1M422 70h1M424 70h1M426 70h1M428 70h1M430 70h1M432 70h1M434 70h1M436 70h1M438 70h1M440 70h1M442 70h1M444 70h1M19 71h3M129 71h3M229 71h1M231 71h1M233 71h1M235 71h1M237 71h1M239 71h1M241 71h1M243 71h1M245 71h1M257 71h1M259 71h1M261 71h1M269 71h1M271 71h1M273 71h1M275 71h1M277 71h1M279 71h1M281 71h1M283 71h1M285 71h1M287 71h1M289 71h1M402 71h1M414 71h1M426 71h1M438 71h1M444 71h1M22 72h2M126 72h4M229 72h1M289 72h1M402 72h43M19 73h3M125 73h1M229 73h1M231 73h1M233 73h1M235 73h1M237 73h1M239 73h1M241 73h1M243 73h1M245 73h1M247 73h1M249 73h1M251 73h1M253 73h1M255 73h1M257 73h1M259 73h1M261 73h1M263 73h1M265 73h1M267 73h1M269 73h1M271 73h1M273 73h1M275 73h1M277 73h1M279 73h1M281 73h1M283 73h1M285 73h1M287 73h1M289 73h1M414 73h1M426 73h1M438 73h1M16 74h3M126 74h3M229 74h1M289 74h1M414 74h1M426 74h1M438 74h1M13 75h3M129 75h2M229 75h1M231 75h1M233 75h1M235 75h1M237 75h1M239 75h1M241 75h1M243 75h1M245 75h1M247 75h1M249 75h1M251 75h1M253 75h1M255 75h1M257 75h1M259 75h1M261 75h1M263 75h1M265 75h1M267 75h1M269 75h1M271 75h1M273 75h1M275 75h1M277 75h1M279 75h1M281 75h1M283 75h1M285 75h1M287 75h1M289 75h1M414 75h1M426 75h1M438 75h1M13 76h3M131 76h4M229 76h1M289 76h1M414 76h1M426 76h1M438 76h1M16 77h3M133 77h2M229 77h1M231 77h1M233 77h1M235 77h1M237 77h1M239 77h1M241 77h1M243 77h1M245 77h1M247 77h1M249 77h1M251 77h1M253 77h1M255 77h1M257 77h1M259 77h1M261 77h1M263 77h1M265 77h1M267 77h1M269 77h1M271 77h1M273 77h1M275 77h1M277 77h1M279 77h1M281 77h1M283 77h1M285 77h1M287 77h1M289 77h1M414 77h1M426 77h1M438 77h1M18 78h3M130 78h3M229 78h1M289 78h1M414 78h1M426 78h1M438 78h1M21 79h3M27 79h3M127 79h3M229 79h61M414 79h1M426 79h1M438 79h1M19 80h4M25 80h5M125 80h2M232 80h1M250 80h1M268 80h1M286 80h1M414 80h1M426 80h1M438 80h1M17 81h2M23 81h62M125 81h3M232 81h1M250 81h1M268 81h1M286 81h1M414 81h1M426 81h1M438 81h1M14 82h3M25 82h5M84 82h1M128 82h3M232 82h1M250 82h1M268 82h1M286 82h1M414 82h1M426 82h1M438 82h1M13 83h2M27 83h3M84 83h1M131 83h3M232 83h1M250 83h1M268 83h1M286 83h1M414 83h1M426 83h1M438 83h1M15 84h3M84 84h1M134 84h1M232 84h1M250 84h1M268 84h1M286 84h1M414 84h1M426 84h1M438 84h1M18 85h2M84 85h1M130 85h4M232 85h1M250 85h1M268 85h1M286 85h1M414 85h1M426 85h1M438 85h1M20 86h4M84 86h1M128 86h2M232 86h1M250 86h1M268 86h1M286 86h1M414 86h1M426 86h1M438 86h1M20 87h4M84 87h1M125 87h3M232 87h1M250 87h1M268 87h1M286 87h1M414 87h1M426 87h1M438 87h1M18 88h2M84 88h1M125 88h2M232 88h1M250 88h1M268 88h1M286 88h1M414 88h1M426 88h1M438 88h1M15 89h3M84 89h1M127 89h3M232 89h1M250 89h1M268 89h1M286 89h1M414 89h1M426 89h1M438 89h1M13 90h2M84 90h1M129 90h1M232 90h1M250 90h1M268 90h1M286 90h1M414 90h1M426 90h1M438 90h1M14 91h3M84 91h1M129 91h1M232 91h1M250 91h1M268 91h1M286 91h1M414 91h1M426 91h1M438 91h1M17 92h2M84 92h1M129 92h1M232 92h1M250 92h1M268 92h1M286 92h1M414 92h1M426 92h1M438 92h1M18 93h1M84 93h1M129 93h1M232 93h1M250 93h1M268 93h1M286 93h1M414 93h1M426 93h1M438 93h1M18 94h1M84 94h1M129 94h1M232 94h1M250 94h1M268 94h1M286 94h1M414 94h1M426 94h1M438 94h1M18 95h1M84 95h1M129 95h1M232 95h1M250 95h1M268 95h1M286 95h1M414 95h1M426 95h1M438 95h1M18 96h1M84 96h1M129 96h1M232 96h1M250 96h1M268 96h1M286 96h1M414 96h1M426 96h1M438 96h1M18 97h1M84 97h1M129 97h1M226 97h13M250 97h1M268 97h1M286 97h1M414 97h1M426 97h1M438 97h1M18 98h1M84 98h1M129 98h1M226 98h2M237 98h1M250 98h1M268 98h1M286 98h1M414 98h1M426 98h1M438 98h1M18 99h1M84 99h1M129 99h1M228 99h1M235 99h2M250 99h1M268 99h1M286 99h1M414 99h1M426 99h1M438 99h1M18 100h1M84 100h1M129 100h1M229 100h1M234 100h1M250 100h1M268 100h1M286 100h1M414 100h2M426 100h1M438 100h1M18 101h1M84 101h1M129 101h1M230 101h1M233 101h1M250 101h1M268 101h1M286 101h1M413 101h4M426 101h1M438 101h1M18 102h1M84 102h1M129 102h1M231 102h2M250 102h1M268 102h1M286 102h1M413 102h14M438 102h1M18 103h1M84 103h1M129 103h1M232 103h1M250 103h1M268 103h1M286 103h1M414 103h2M438 103h1M18 104h1M84 104h1M129 104h1M250 104h1M268 104h1M286 104h1M414 104h1M438 104h1M18 105h1M84 105h1M129 105h1M250 105h1M268 105h1M286 105h1M414 105h1M438 105h1M18 106h1M84 106h1M129 106h1M250 106h1M268 106h1M286 106h1M414 106h1M438 106h1M18 107h1M84 107h1M129 107h1M250 107h1M268 107h1M286 107h1M414 107h1M438 107h1M18 108h1M84 108h1M129 108h1M250 108h1M268 108h1M286 108h1M414 108h1M432 108h13M18 109h1M84 109h1M129 109h1M250 109h1M268 109h1M286 109h1M414 109h1M433 109h1M444 109h1M18 110h1M84 110h1M129 110h1M250 110h1M268 110h1M286 110h1M414 110h1M434 110h1M443 110h1M18 111h1M84 111h1M129 111h1M250 111h1M268 111h1M286 111h1M414 111h1M435 111h1M441 111h2M18 112h1M84 112h1M129 112h1M250 112h1M268 112h1M286 112h1M414 112h1M436 112h2M440 112h1M18 113h1M84 113h1M129 113h1M250 113h1M268 113h1M286 113h1M414 113h1M438 113h2M18 114h1M84 114h1M129 114h1M250 114h1M268 114h1M286 114h1M414 114h1M438 114h1M18 115h1M84 115h1M129 115h1M222 115h29M268 115h1M286 115h1M414 115h1M18 116h1M84 116h1M129 116h1M222 116h1M268 116h1M286 116h1M414 116h1M12 117h13M84 117h1M129 117h1M222 117h1M268 117h1M286 117h1M414 117h1M12 118h1M24 118h1M84 118h1M129 118h1M222 118h1M268 118h1M286 118h1M414 118h1M13 119h1M22 119h2M84 119h1M129 119h1M222 119h1M268 119h1M286 119h1M414 119h1M14 120h1M21 120h1M84 120h1M129 120h1M222 120h1M268 120h1M286 120h1M414 120h1M15 121h1M20 121h1M84 121h1M123 121h1M129 121h1M222 121h1M268 121h1M286 121h1M414 121h1M16 122h2M19 122h1M84 122h1M123 122h1M128 122h4M222 122h1M268 122h1M286 122h1M414 122h1M18 123h1M84 123h1M123 123h1M128 123h1M131 123h1M222 123h1M268 123h1M286 123h1M414 123h1M84 124h1M123 124h1M128 124h1M131 124h1M222 124h1M268 124h1M286 124h1M414 124h1M84 125h1M123 125h1M128 125h4M222 125h1M268 125h1M286 125h1M414 125h1M84 126h1M123 126h1M222 126h1M268 126h1M286 126h1M414 126h1M84 127h1M123 127h1M222 127h1M268 127h1M286 127h1M414 127h1M84 128h1M123 128h1M222 128h1M268 128h1M286 128h1M414 128h1M84 129h1M123 129h1M222 129h1M268 129h1M286 129h1M414 129h1M84 130h1M123 130h1M222 130h1M268 130h1M286 130h1M414 130h1M84 131h1M123 131h1M222 131h1M268 131h1M286 131h1M414 131h1M84 132h1M123 132h1M222 132h1M236 132h2M244 132h1M251 132h1M268 132h1M286 132h1M309 132h1M316 132h1M324 132h1M414 132h1M84 133h1M115 133h9M222 133h1M236 133h2M243 133h2M251 133h2M268 133h1M286 133h1M309 133h1M316 133h2M323 133h2M354 133h1M414 133h1M84 134h1M123 134h1M195 134h2M222 134h1M236 134h2M243 134h1M245 134h1M250 134h1M252 134h1M268 134h1M286 134h1M308 134h1M310 134h1M316 134h2M323 134h2M355 134h2M414 134h1M84 135h1M123 135h1M193 135h2M222 135h1M236 135h1M238 135h1M243 135h1M245 135h1M250 135h1M252 135h1M268 135h1M286 135h1M308 135h1M310 135h1M315 135h1M317 135h1M323 135h1M325 135h1M357 135h1M414 135h1M84 136h1M123 136h1M191 136h2M222 136h2M235 136h1M238 136h1M242 136h1M245 136h1M250 136h1M252 136h1M267 136h2M285 136h2M308 136h1M310 136h1M315 136h1M318 136h1M322 136h1M325 136h1M358 136h2M414 136h1M84 137h1M123 137h1M190 137h46M238 137h1M242 137h1M245 137h2M249 137h1M253 137h1M256 137h14M284 137h24M311 137h1M314 137h2M318 137h1M322 137h1M325 137h2M329 137h33M414 137h1M84 138h1M123 138h1M191 138h2M221 138h4M239 138h1M242 138h1M246 138h1M249 138h1M253 138h1M256 138h1M266 138h4M284 138h4M311 138h1M314 138h1M319 138h1M321 138h1M326 138h1M329 138h1M359 138h2M414 138h1M84 139h1M123 139h1M193 139h2M222 139h2M239 139h1M241 139h1M246 139h1M249 139h1M254 139h1M256 139h1M267 139h2M285 139h2M312 139h1M314 139h1M319 139h1M321 139h1M326 139h1M328 139h1M357 139h2M404 139h3M414 139h1M423 139h2M84 140h1M123 140h1M195 140h2M222 140h1M239 140h1M241 140h1M247 140h2M254 140h1M256 140h1M268 140h1M286 140h1M312 140h2M319 140h1M321 140h1M327 140h2M355 140h2M404 140h4M414 140h1M421 140h4M84 141h1M123 141h1M128 141h4M222 141h1M240 141h2M247 141h2M254 141h2M268 141h1M286 141h1M312 141h2M320 141h1M327 141h2M354 141h1M406 141h5M414 141h1M419 141h5M84 142h1M123 142h1M128 142h1M131 142h1M222 142h1M240 142h1M247 142h2M255 142h1M268 142h1M286 142h1M313 142h1M320 142h1M327 142h1M407 142h14M84 143h1M123 143h1M128 143h1M131 143h1M222 143h1M268 143h1M286 143h1M410 143h10M84 144h1M123 144h1M128 144h4M222 144h1M268 144h1M286 144h1M84 145h1M123 145h1M129 145h1M222 145h1M268 145h1M286 145h1M84 146h1M129 146h1M222 146h1M268 146h1M286 146h1M84 147h1M129 147h1M222 147h1M268 147h1M286 147h1M84 148h1M129 148h1M222 148h1M268 148h1M286 148h1M404 148h21M84 149h1M129 149h1M222 149h1M268 149h1M286 149h1M404 149h21M84 150h1M129 150h1M222 150h1M268 150h1M286 150h1M414 150h1M84 151h1M129 151h1M222 151h1M268 151h1M286 151h1M414 151h1M84 152h1M129 152h1M222 152h1M268 152h1M286 152h1M414 152h1M84 153h1M129 153h1M222 153h1M268 153h1M286 153h1M414 153h1M84 154h1M129 154h1M222 154h1M268 154h1M286 154h1M414 154h1M420 154h1M84 155h1M129 155h1M222 155h1M268 155h1M286 155h1M414 155h1M420 155h1M84 156h1M129 156h1M222 156h1M268 156h1M286 156h1M414 156h1M418 156h6M84 157h1M129 157h1M222 157h1M268 157h1M286 157h1M414 157h1M420 157h1M84 158h1M129 158h1M222 158h1M268 158h1M286 158h1M414 158h1M420 158h1M84 159h1M129 159h1M222 159h1M268 159h1M286 159h1M414 159h1M420 159h1M84 160h1M129 160h1M222 160h1M268 160h1M286 160h1M414 160h1M84 161h1M129 161h1M222 161h1M268 161h1M286 161h1M414 161h1M84 162h1M129 162h1M222 162h1M268 162h1M286 162h1M414 162h1M84 163h1M129 163h1M222 163h1M268 163h1M286 163h1M414 163h1M84 164h1M129 164h1M222 164h1M268 164h1M286 164h1M414 164h1M84 165h1M129 165h1M222 165h1M268 165h1M286 165h1M414 165h1M84 166h1M129 166h1M222 166h1M268 166h1M286 166h1M414 166h1M84 167h1M129 167h1M222 167h1M268 167h1M286 167h1M414 167h1M84 168h1M129 168h1M222 168h1M268 168h1M286 168h1M414 168h1M84 169h1M129 169h1M222 169h1M268 169h1M286 169h1M414 169h1M84 170h1M129 170h1M222 170h1M268 170h1M286 170h1M414 170h1M84 171h1M129 171h1M222 171h1M268 171h1M286 171h1M414 171h1M84 172h1M129 172h1M222 172h1M268 172h1M286 172h1M414 172h1M84 173h1M129 173h1M222 173h1M268 173h1M286 173h1M414 173h1M84 174h1M129 174h1M222 174h1M268 174h1M286 174h1M414 174h1M84 175h1M129 175h1M222 175h1M268 175h1M286 175h1M414 175h1M84 176h1M129 176h1M222 176h1M268 176h1M286 176h1M414 176h1M84 177h1M129 177h1M222 177h1M268 177h1M286 177h1M414 177h1M84 178h1M129 178h1M222 178h1M268 178h1M286 178h1M414 178h1M84 179h1M129 179h1M222 179h1M268 179h1M286 179h1M414 179h1M84 180h1M129 180h1M142 180h61M222 180h1M268 180h1M286 180h1M414 180h1M84 181h1M129 181h1M142 181h1M202 181h1M222 181h1M268 181h1M286 181h1M414 181h1M84 182h1M129 182h1M142 182h1M144 182h1M146 182h1M148 182h1M150 182h1M152 182h1M154 182h1M156 182h1M158 182h1M160 182h1M162 182h1M164 182h1M166 182h1M168 182h1M170 182h1M172 182h1M174 182h1M176 182h1M178 182h1M180 182h1M182 182h1M184 182h1M186 182h1M188 182h1M190 182h1M192 182h1M194 182h1M196 182h1M198 182h1M200 182h1M202 182h1M222 182h1M268 182h1M286 182h1M414 182h1M84 183h1M129 183h1M142 183h1M202 183h1M222 183h1M268 183h1M286 183h1M414 183h1M84 184h1M129 184h1M142 184h1M144 184h1M146 184h1M148 184h1M150 184h1M152 184h1M154 184h1M156 184h1M158 184h1M160 184h1M162 184h1M164 184h1M166 184h1M168 184h1M170 184h1M172 184h1M174 184h1M176 184h1M178 184h1M180 184h1M182 184h1M184 184h1M186 184h1M188 184h1M190 184h1M192 184h1M194 184h1M196 184h1M198 184h1M200 184h1M202 184h1M222 184h1M268 184h1M286 184h1M414 184h1M84 185h1M129 185h1M142 185h1M202 185h1M222 185h1M268 185h1M286 185h1M414 185h1M84 186h1M129 186h14M144 186h1M146 186h1M148 186h1M150 186h1M152 186h1M154 186h1M156 186h1M158 186h1M160 186h1M162 186h1M164 186h1M166 186h1M168 186h1M170 186h1M172 186h1M174 186h1M176 186h1M178 186h1M180 186h1M182 186h1M184 186h1M186 186h1M188 186h1M190 186h1M192 186h1M194 186h1M196 186h1M198 186h1M200 186h1M202 186h21M268 186h1M286 186h1M414 186h1M84 187h1M142 187h1M202 187h1M268 187h1M286 187h1M414 187h1M84 188h1M142 188h1M144 188h1M146 188h1M148 188h1M150 188h1M152 188h1M154 188h1M156 188h1M158 188h1M170 188h1M172 188h1M174 188h1M186 188h1M188 188h1M190 188h1M192 188h1M194 188h1M196 188h1M198 188h1M200 188h1M202 188h1M268 188h1M286 188h1M414 188h1M84 189h1M142 189h1M202 189h1M268 189h1M286 189h1M414 189h1M84 190h1M142 190h1M144 190h1M146 190h1M148 190h1M150 190h1M152 190h1M154 190h1M156 190h1M158 190h1M162 190h1M164 190h1M166 190h1M170 190h1M172 190h1M174 190h1M176 190h1M178 190h1M182 190h1M184 190h1M186 190h1M188 190h1M190 190h1M192 190h1M194 190h1M196 190h1M198 190h1M200 190h1M202 190h1M268 190h1M286 190h1M414 190h1M84 191h1M142 191h1M202 191h1M268 191h1M286 191h1M414 191h1M84 192h1M142 192h1M144 192h1M146 192h1M148 192h1M150 192h1M152 192h1M154 192h1M156 192h1M158 192h1M162 192h1M164 192h1M166 192h1M170 192h1M172 192h1M174 192h1M176 192h1M178 192h1M182 192h1M184 192h1M186 192h1M188 192h1M190 192h1M192 192h1M194 192h1M196 192h1M198 192h1M200 192h1M202 192h1M268 192h1M286 192h1M414 192h1M84 193h1M142 193h1M202 193h1M268 193h1M286 193h1M414 193h1M84 194h1M142 194h1M144 194h1M146 194h1M148 194h1M150 194h1M152 194h1M154 194h1M156 194h1M158 194h1M170 194h1M172 194h1M174 194h1M176 194h1M178 194h1M182 194h1M184 194h1M186 194h1M188 194h1M190 194h1M192 194h1M194 194h1M196 194h1M198 194h1M200 194h1M202 194h1M268 194h1M286 194h1M414 194h1M84 195h1M142 195h1M202 195h1M268 195h1M286 195h1M414 195h1M84 196h1M142 196h1M144 196h1M146 196h1M148 196h1M150 196h1M152 196h1M154 196h1M156 196h1M158 196h1M162 196h1M164 196h1M166 196h1M170 196h1M172 196h1M174 196h1M176 196h1M178 196h1M182 196h1M184 196h1M186 196h1M188 196h1M190 196h1M192 196h1M194 196h1M196 196h1M198 196h1M200 196h1M202 196h1M268 196h1M286 196h1M414 196h1M84 197h1M142 197h1M202 197h1M268 197h1M286 197h1M414 197h1M17 198h2M84 198h59M144 198h1M146 198h1M148 198h1M150 198h1M152 198h1M154 198h1M156 198h1M158 198h1M162 198h1M164 198h1M166 198h1M170 198h1M172 198h1M174 198h1M176 198h1M178 198h1M182 198h1M184 198h1M186 198h1M188 198h1M190 198h1M192 198h1M194 198h1M196 198h1M198 198h1M200 198h1M202 198h67M286 198h1M414 198h1M17 199h3M142 199h1M202 199h1M286 199h1M412 199h6M16 200h1M18 200h2M142 200h1M144 200h1M146 200h1M148 200h1M150 200h1M152 200h1M154 200h1M156 200h1M158 200h1M162 200h1M164 200h1M166 200h1M170 200h1M172 200h1M174 200h1M176 200h1M178 200h1M182 200h1M184 200h1M186 200h1M188 200h1M190 200h1M192 200h1M194 200h1M196 200h1M198 200h1M200 200h1M202 200h1M286 200h1M412 200h5M16 201h1M18 201h1M20 201h1M142 201h1M202 201h1M286 201h1M413 201h4M15 202h1M18 202h1M20 202h1M142 202h1M144 202h1M146 202h1M148 202h1M150 202h1M152 202h1M154 202h1M156 202h1M158 202h1M160 202h1M162 202h1M164 202h1M166 202h1M168 202h1M170 202h1M172 202h1M174 202h1M176 202h1M178 202h1M180 202h1M182 202h1M184 202h1M186 202h1M188 202h1M190 202h1M192 202h1M194 202h1M196 202h1M198 202h1M200 202h1M202 202h1M286 202h1M413 202h3M15 203h1M18 203h1M21 203h1M142 203h1M202 203h1M286 203h1M413 203h3M14 204h1M18 204h1M21 204h1M142 204h1M144 204h1M146 204h1M148 204h1M150 204h1M152 204h1M154 204h1M156 204h1M158 204h1M160 204h1M162 204h1M164 204h1M166 204h1M168 204h1M170 204h1M172 204h1M174 204h1M176 204h1M178 204h1M180 204h1M182 204h1M184 204h1M186 204h1M188 204h1M190 204h1M192 204h1M194 204h1M196 204h1M198 204h1M200 204h1M202 204h1M286 204h1M414 204h1M451 204h1M18 205h1M142 205h1M202 205h1M286 205h1M314 205h1M321 205h2M329 205h1M405 205h1M412 205h1M419 205h2M451 205h2M18 206h1M142 206h1M144 206h1M146 206h1M148 206h1M150 206h1M152 206h1M154 206h1M156 206h1M158 206h1M160 206h1M162 206h1M164 206h1M166 206h1M168 206h1M170 206h1M172 206h1M174 206h1M176 206h1M178 206h1M180 206h1M182 206h1M184 206h1M186 206h1M188 206h1M190 206h1M192 206h1M194 206h1M196 206h1M198 206h1M200 206h1M202 206h1M286 206h1M314 206h2M321 206h2M328 206h2M405 206h1M412 206h2M419 206h2M451 206h1M453 206h1M18 207h1M142 207h1M202 207h1M286 207h1M314 207h2M321 207h2M328 207h1M330 207h1M404 207h1M406 207h1M412 207h2M419 207h2M451 207h1M454 207h1M18 208h1M142 208h1M144 208h1M146 208h1M148 208h1M150 208h1M152 208h1M154 208h1M156 208h1M158 208h1M170 208h1M172 208h1M174 208h1M186 208h1M188 208h1M190 208h1M192 208h1M194 208h1M196 208h1M198 208h1M200 208h1M202 208h1M286 208h1M313 208h1M315 208h1M321 208h1M323 208h1M328 208h1M330 208h1M365 208h2M404 208h1M406 208h1M411 208h1M413 208h1M418 208h1M421 208h1M451 208h1M455 208h1M18 209h1M142 209h1M202 209h1M286 209h1M313 209h1M316 209h1M320 209h1M323 209h1M327 209h1M330 209h1M364 209h4M404 209h1M406 209h1M411 209h1M414 209h1M418 209h1M421 209h1M451 209h1M456 209h1M18 210h1M84 210h59M144 210h1M146 210h1M148 210h1M150 210h1M152 210h1M154 210h1M156 210h1M158 210h1M162 210h1M164 210h1M166 210h1M170 210h1M172 210h1M174 210h1M178 210h1M180 210h1M182 210h1M184 210h1M186 210h1M188 210h1M190 210h1M192 210h1M194 210h1M196 210h1M198 210h1M200 210h1M202 210h112M316 210h1M320 210h1M323 210h2M327 210h1M331 210h1M334 210h70M407 210h1M410 210h2M414 210h1M418 210h1M421 210h2M425 210h27M457 210h1M18 211h1M84 211h1M142 211h1M202 211h1M286 211h1M317 211h1M319 211h1M324 211h1M327 211h1M331 211h1M334 211h1M365 211h2M407 211h1M410 211h1M415 211h1M417 211h1M422 211h1M425 211h1M451 211h1M456 211h1M18 212h1M84 212h1M142 212h1M144 212h1M146 212h1M148 212h1M150 212h1M152 212h1M154 212h1M156 212h1M158 212h1M162 212h1M164 212h1M166 212h1M170 212h1M172 212h1M174 212h1M178 212h1M180 212h1M182 212h1M184 212h1M186 212h1M188 212h1M190 212h1M192 212h1M194 212h1M196 212h1M198 212h1M200 212h1M202 212h1M286 212h1M317 212h1M319 212h1M324 212h1M326 212h1M332 212h1M334 212h1M366 212h1M408 212h1M410 212h1M415 212h1M417 212h1M422 212h1M424 212h1M451 212h1M455 212h1M18 213h1M84 213h1M142 213h1M202 213h1M286 213h1M317 213h1M319 213h1M325 213h2M332 213h2M366 213h1M408 213h2M415 213h1M417 213h1M423 213h2M451 213h1M453 213h2M18 214h1M84 214h1M142 214h1M144 214h1M146 214h1M148 214h1M150 214h1M152 214h1M154 214h1M156 214h1M158 214h1M170 214h1M172 214h1M174 214h1M186 214h1M188 214h1M190 214h1M192 214h1M194 214h1M196 214h1M198 214h1M200 214h1M202 214h1M286 214h1M318 214h1M325 214h2M332 214h2M366 214h1M408 214h2M416 214h1M423 214h2M451 214h2M18 215h1M84 215h1M142 215h1M202 215h1M286 215h1M318 215h1M325 215h1M332 215h2M366 215h1M409 215h1M416 215h1M423 215h1M451 215h1M18 216h1M84 216h1M142 216h1M144 216h1M146 216h1M148 216h1M150 216h1M152 216h1M154 216h1M156 216h1M158 216h1M162 216h1M164 216h1M166 216h1M170 216h1M172 216h1M174 216h1M176 216h1M178 216h1M180 216h1M182 216h1M186 216h1M188 216h1M190 216h1M192 216h1M194 216h1M196 216h1M198 216h1M200 216h1M202 216h1M286 216h1M366 216h1M451 216h1M18 217h1M84 217h1M142 217h1M202 217h1M286 217h1M366 217h1M18 218h1M84 218h1M142 218h1M144 218h1M146 218h1M148 218h1M150 218h1M152 218h1M154 218h1M156 218h1M158 218h1M162 218h1M164 218h1M166 218h1M170 218h1M172 218h1M174 218h1M176 218h1M178 218h1M180 218h1M182 218h1M186 218h1M188 218h1M190 218h1M192 218h1M194 218h1M196 218h1M198 218h1M200 218h1M202 218h1M286 218h1M366 218h1M18 219h1M84 219h1M142 219h1M202 219h1M286 219h1M366 219h1M18 220h1M84 220h1M142 220h1M144 220h1M146 220h1M148 220h1M150 220h1M152 220h1M154 220h1M156 220h1M158 220h1M170 220h1M172 220h1M174 220h1M186 220h1M188 220h1M190 220h1M192 220h1M194 220h1M196 220h1M198 220h1M200 220h1M202 220h1M286 220h1M366 220h1M18 221h1M84 221h1M142 221h1M202 221h1M286 221h1M366 221h1M18 222h1M84 222h1M129 222h14M144 222h1M146 222h1M148 222h1M150 222h1M152 222h1M154 222h1M156 222h1M158 222h1M160 222h1M162 222h1M164 222h1M166 222h1M168 222h1M170 222h1M172 222h1M174 222h1M176 222h1M178 222h1M180 222h1M182 222h1M184 222h1M186 222h1M188 222h1M190 222h1M192 222h1M194 222h1M196 222h1M198 222h1M200 222h1M202 222h85M366 222h1M18 223h1M84 223h1M129 223h1M142 223h1M202 223h1M366 223h1M18 224h1M84 224h1M129 224h1M142 224h1M144 224h1M146 224h1M148 224h1M150 224h1M152 224h1M154 224h1M156 224h1M158 224h1M160 224h1M162 224h1M164 224h1M166 224h1M168 224h1M170 224h1M172 224h1M174 224h1M176 224h1M178 224h1M180 224h1M182 224h1M184 224h1M186 224h1M188 224h1M190 224h1M192 224h1M194 224h1M196 224h1M198 224h1M200 224h1M202 224h1M366 224h1M18 225h1M84 225h1M129 225h1M142 225h1M202 225h1M366 225h1M18 226h1M84 226h1M129 226h1M142 226h1M144 226h1M146 226h1M148 226h1M150 226h1M152 226h1M154 226h1M156 226h1M158 226h1M160 226h1M162 226h1M164 226h1M166 226h1M168 226h1M170 226h1M172 226h1M174 226h1M176 226h1M178 226h1M180 226h1M182 226h1M184 226h1M186 226h1M188 226h1M190 226h1M192 226h1M194 226h1M196 226h1M198 226h1M200 226h1M202 226h1M366 226h1M18 227h1M84 227h1M129 227h1M142 227h1M202 227h1M366 227h1M18 228h1M84 228h1M129 228h1M142 228h61M366 228h1M18 229h1M84 229h1M129 229h1M366 229h1M18 230h4M84 230h1M129 230h1M366 230h1M22 231h2M84 231h1M129 231h1M366 231h1M19 232h3M84 232h1M129 232h1M366 232h1M17 233h2M84 233h1M129 233h1M366 233h1M14 234h3M84 234h1M129 234h1M366 234h1M13 235h2M84 235h1M129 235h1M366 235h1M15 236h4M84 236h1M129 236h1M356 236h21M18 237h3M84 237h1M129 237h1M356 237h21M21 238h3M28 238h2M84 238h1M129 238h1M20 239h3M25 239h5M84 239h1M129 239h1M18 240h2M23 240h62M129 240h1M15 241h3M24 241h6M129 241h1M13 242h2M27 242h3M129 242h1M14 243h4M29 243h1M129 243h1M356 243h21M18 244h2M129 244h1M356 244h21M20 245h3M129 245h1M366 245h1M21 246h3M123 246h14M366 246h1M18 247h3M124 247h1M135 247h1M366 247h1M15 248h4M125 248h1M134 248h1M366 248h1M13 249h2M126 249h1M133 249h1M366 249h1M14 250h3M127 250h1M132 250h1M366 250h1M17 251h2M128 251h1M130 251h2M366 251h1M18 252h1M129 252h1M366 252h1M18 253h1M366 253h1M18 254h1M366 254h1M18 255h1M366 255h1M18 256h1M366 256h1M18 257h1M366 257h1M18 258h1M366 258h1M18 259h1M366 259h1M18 260h1M366 260h1M18 261h1M366 261h1M18 262h1M366 262h1M18 263h1M366 263h1M18 264h1M366 264h1M18 265h1M366 265h1M18 266h1M366 266h1M18 267h1M366 267h1M18 268h1M366 268h1M18 269h1M366 269h1M18 270h1M366 270h1M18 271h1M366 271h1M18 272h1M366 272h1M18 273h1M366 273h1M18 274h1M366 274h1M18 275h1M366 275h1M18 276h1M366 276h1M12 277h13M241 277h2M248 277h2M360 277h13M13 278h1M23 278h1M241 278h2M248 278h2M361 278h1M371 278h1M14 279h1M21 279h2M241 279h2M248 279h2M362 279h1M369 279h2M15 280h1M20 280h1M241 280h2M248 280h2M363 280h1M368 280h1M16 281h1M19 281h1M241 281h2M248 281h2M364 281h1M367 281h1M17 282h2M202 282h1M241 282h2M248 282h2M365 282h2M201 283h2M241 283h2M248 283h2M200 284h1M202 284h1M241 284h2M248 284h2M287 284h1M199 285h1M202 285h1M241 285h2M248 285h2M288 285h2M197 286h2M202 286h1M241 286h2M248 286h2M290 286h2M196 287h1M202 287h1M241 287h2M248 287h2M292 287h2M196 288h1M202 288h41M248 288h46M197 289h1M202 289h1M241 289h2M248 289h2M291 289h2M198 290h1M202 290h1M241 290h2M248 290h2M289 290h2M199 291h2M202 291h1M241 291h2M248 291h2M287 291h2M201 292h2M241 292h2M248 292h2M202 293h1M241 293h2M248 293h2M202 294h1M241 294h2M248 294h2M241 295h2M248 295h2M241 296h2M248 296h2M241 297h2M248 297h2M241 298h2M248 298h2" />
</svg>