<svg xmlns="http://www.w3.org/2000/svg" viewBox="0 -0.5 500 700" shape-rendering="crispEdges">
<metadata>Made with Pixels to Svg https://codepen.io/shshaw/pen/XbxvNj</metadata>
<path stroke="#ffffff" d="M202 187h69M202 188h1M270 188h1M202 189h1M270 189h1M202 190h1M270 190h1M202 191h1M270 191h1M202 192h1M270 192h1M202 193h1M270 193h1M202 194h1M270 194h1M202 195h1M270 195h1M202 196h1M270 196h1M202 197h1M270 197h1M202 198h1M270 198h1M202 199h1M270 199h1M202 200h1M270 200h1M202 201h1M225 201h3M232 201h1M240 201h5M248 201h3M270 201h1M202 202h1M224 202h1M228 202h1M232 202h1M240 202h1M248 202h1M251 202h1M270 202h1M202 203h1M224 203h1M228 203h1M232 203h1M240 203h1M248 203h1M252 203h1M270 203h1M202 204h1M224 204h1M228 204h1M232 204h1M240 204h1M248 204h1M252 204h1M270 204h1M202 205h1M224 205h1M228 205h1M232 205h1M240 205h4M248 205h1M252 205h1M270 205h1M202 206h1M224 206h1M228 206h1M232 206h1M240 206h1M248 206h1M252 206h1M270 206h1M202 207h1M224 207h1M228 207h1M232 207h1M240 207h1M248 207h1M252 207h1M270 207h1M202 208h1M224 208h1M228 208h1M232 208h1M240 208h1M248 208h1M251 208h1M270 208h1M202 209h1M225 209h3M232 209h5M240 209h5M248 209h3M270 209h1M202 210h1M270 210h1M202 211h1M270 211h1M202 212h1M270 212h1M202 213h1M270 213h1M202 214h1M270 214h1M202 215h1M270 215h1M202 216h1M270 216h1M202 217h1M205 217h9M227 217h1M241 217h2M245 217h2M248 217h1M259 217h2M262 217h2M267 217h1M270 217h1M202 218h1M227 218h1M240 218h1M244 218h1M248 218h1M258 218h1M262 218h1M264 218h1M266 218h1M268 218h1M270 218h1M202 219h1M207 219h5M225 219h5M241 219h1M244 219h1M248 219h1M259 219h1M262 219h1M264 219h1M266 219h3M270 219h1M202 220h1M227 220h1M242 220h1M244 220h1M248 220h1M260 220h1M262 220h1M264 220h1M266 220h1M268 220h1M270 220h1M202 221h1M209 221h1M227 221h1M240 221h2M245 221h2M248 221h3M258 221h2M262 221h2M266 221h1M268 221h1M270 221h1M202 222h1M270 222h1M202 223h69M209 225h1M227 225h1M245 225h1M263 225h1M209 226h1M227 226h1M245 226h1M263 226h1M209 227h1M227 227h1M245 227h1M263 227h1M209 228h1M227 228h1M245 228h1M263 228h1M209 229h1M227 229h1M245 229h1M263 229h1M209 230h1M227 230h1M245 230h1M263 230h1M209 231h1M227 231h1M245 231h1M263 231h1M209 232h1M227 232h1M245 232h1M263 232h1M209 233h1M227 233h1M245 233h1M263 233h1M209 234h1M227 234h1M245 234h1M263 234h1M209 235h1M227 235h1M245 235h1M263 235h1M209 236h1M227 236h1M245 236h1M263 236h1M209 237h1M227 237h1M245 237h1M263 237h1M205 238h9M227 238h1M245 238h1M263 238h1M227 239h1M245 239h1M263 239h1M207 240h5M227 240h1M245 240h1M263 240h1M227 241h1M245 241h1M263 241h1M395 241h5M209 242h1M227 242h1M245 242h1M263 242h1M395 242h1M399 242h1M227 243h1M245 243h1M263 243h1M395 243h1M399 243h1M227 244h1M245 244h1M263 244h1M395 244h1M399 244h1M227 245h1M245 245h1M263 245h1M395 245h1M399 245h1M227 246h1M245 246h1M263 246h1M395 246h1M399 246h1M227 247h1M245 247h1M263 247h1M395 247h1M399 247h1M227 248h1M245 248h1M263 248h1M395 248h1M399 248h1M227 249h1M245 249h1M263 249h1M395 249h1M399 249h1M227 250h1M245 250h1M263 250h1M395 250h1M399 250h1M227 251h1M245 251h1M263 251h1M395 251h1M399 251h1M227 252h1M245 252h1M263 252h1M395 252h1M399 252h1M227 253h1M245 253h1M263 253h1M395 253h1M399 253h1M227 254h1M245 254h1M263 254h1M395 254h1M399 254h1M227 255h1M245 255h1M263 255h1M387 255h1M395 255h1M399 255h1M227 256h1M245 256h1M263 256h1M387 256h1M395 256h1M399 256h1M227 257h1M245 257h1M263 257h1M386 257h1M388 257h1M395 257h1M399 257h1M227 258h1M245 258h1M263 258h1M386 258h1M388 258h1M395 258h1M399 258h1M227 259h1M245 259h1M263 259h1M385 259h1M389 259h1M395 259h1M399 259h1M227 260h1M245 260h1M263 260h1M374 260h12M389 260h1M395 260h1M399 260h1M227 261h1M245 261h1M263 261h1M374 261h1M395 261h5M227 262h1M245 262h1M263 262h1M374 262h1M397 262h1M191 263h37M245 263h1M263 263h1M374 263h1M397 263h1M191 264h1M245 264h1M263 264h1M374 264h1M397 264h1M191 265h1M245 265h1M263 265h1M374 265h1M397 265h1M191 266h1M245 266h1M263 266h1M374 266h1M397 266h1M191 267h1M245 267h1M263 267h1M374 267h1M397 267h1M191 268h1M245 268h1M263 268h1M374 268h1M397 268h1M191 269h1M245 269h1M263 269h1M374 269h1M397 269h1M191 270h1M245 270h1M263 270h1M374 270h1M393 270h9M191 271h1M245 271h1M263 271h1M374 271h1M191 272h1M245 272h1M263 272h1M374 272h1M395 272h5M191 273h1M245 273h1M263 273h1M374 273h1M191 274h1M245 274h1M263 274h1M374 274h1M397 274h1M191 275h1M245 275h1M263 275h1M374 275h1M191 276h1M245 276h1M263 276h1M374 276h1M191 277h1M245 277h1M263 277h1M374 277h1M191 278h1M245 278h1M263 278h1M374 278h1M191 279h1M245 279h1M263 279h1M374 279h1M191 280h1M245 280h1M263 280h1M374 280h1M191 281h1M205 281h2M212 281h5M220 281h1M230 281h3M245 281h1M263 281h1M287 281h2M294 281h5M302 281h1M312 281h3M374 281h1M191 282h1M204 282h1M206 282h1M216 282h1M220 282h1M229 282h1M233 282h1M245 282h1M263 282h1M286 282h1M288 282h1M298 282h1M302 282h1M311 282h1M315 282h1M374 282h1M191 283h1M203 283h1M206 283h1M216 283h1M220 283h1M228 283h1M234 283h1M245 283h1M263 283h1M285 283h1M288 283h1M298 283h1M302 283h1M310 283h1M316 283h1M374 283h1M191 284h1M202 284h1M206 284h1M215 284h1M220 284h1M223 284h2M228 284h1M234 284h1M245 284h1M263 284h1M284 284h1M288 284h1M297 284h1M302 284h1M305 284h2M310 284h1M316 284h1M374 284h1M191 285h1M202 285h5M215 285h1M220 285h1M222 285h1M228 285h1M234 285h1M245 285h1M263 285h1M284 285h5M297 285h1M302 285h1M304 285h1M310 285h1M316 285h1M374 285h1M191 286h1M206 286h1M214 286h1M220 286h2M228 286h1M234 286h1M245 286h1M263 286h1M288 286h1M296 286h1M302 286h2M310 286h1M316 286h1M374 286h1M191 287h1M206 287h1M214 287h1M220 287h1M222 287h1M229 287h1M233 287h1M245 287h1M263 287h1M288 287h1M296 287h1M302 287h1M304 287h1M311 287h1M315 287h1M374 287h1M191 288h1M206 288h1M213 288h1M220 288h1M223 288h1M230 288h1M232 288h1M245 288h1M263 288h1M288 288h1M295 288h1M302 288h1M305 288h1M312 288h1M314 288h1M374 288h1M191 289h1M206 289h1M209 289h1M213 289h1M220 289h1M224 289h1M228 289h3M232 289h3M245 289h1M263 289h1M288 289h1M291 289h1M295 289h1M302 289h1M306 289h1M310 289h3M314 289h3M374 289h1M191 290h1M245 290h1M263 290h1M374 290h1M191 291h1M245 291h1M263 291h1M374 291h1M191 292h1M245 292h1M263 292h1M374 292h1M191 293h1M208 293h1M216 293h1M224 293h1M245 293h1M263 293h1M290 293h1M298 293h1M306 293h1M374 293h1M191 294h1M208 294h1M216 294h1M224 294h1M245 294h1M263 294h1M290 294h1M298 294h1M306 294h1M374 294h1M191 295h1M208 295h1M216 295h1M224 295h1M245 295h1M263 295h1M290 295h1M298 295h1M306 295h1M367 295h1M374 295h1M381 295h1M389 295h1M394 295h3M410 295h5M127 296h5M191 296h1M207 296h1M209 296h1M215 296h1M217 296h1M223 296h1M225 296h1M245 296h1M263 296h1M289 296h1M291 296h1M297 296h1M299 296h1M305 296h1M307 296h1M328 296h5M367 296h1M374 296h1M381 296h1M388 296h2M393 296h1M397 296h1M410 296h1M126 297h1M132 297h1M191 297h1M207 297h1M209 297h1M215 297h1M217 297h1M223 297h1M225 297h1M245 297h1M263 297h1M289 297h1M291 297h1M297 297h1M299 297h1M305 297h1M307 297h1M327 297h1M333 297h1M368 297h1M374 297h1M380 297h1M387 297h1M389 297h1M393 297h1M397 297h1M410 297h1M125 298h1M129 298h1M133 298h1M191 298h1M207 298h1M209 298h1M215 298h1M217 298h1M223 298h1M225 298h1M245 298h1M263 298h1M289 298h1M291 298h1M297 298h1M299 298h1M305 298h1M307 298h1M326 298h1M330 298h1M334 298h1M369 298h2M374 298h1M378 298h2M389 298h1M393 298h1M397 298h1M410 298h1M125 299h1M129 299h1M133 299h1M157 299h3M190 299h3M206 299h1M210 299h1M214 299h1M218 299h1M222 299h1M226 299h1M244 299h3M262 299h3M288 299h1M292 299h1M296 299h1M300 299h1M304 299h1M308 299h1M326 299h1M330 299h1M334 299h1M371 299h7M389 299h1M393 299h1M397 299h1M401 299h1M405 299h1M410 299h4M125 300h1M127 300h5M133 300h74M210 300h1M214 300h1M218 300h1M222 300h1M226 300h1M230 300h17M262 300h27M292 300h1M296 300h1M300 300h1M304 300h1M308 300h1M312 300h15M328 300h5M334 300h1M389 300h1M393 300h1M397 300h1M401 300h1M405 300h1M410 300h1M125 301h1M129 301h1M133 301h1M157 301h3M190 301h3M210 301h1M214 301h1M218 301h1M222 301h1M226 301h1M230 301h1M244 301h3M262 301h3M292 301h1M296 301h1M300 301h1M304 301h1M308 301h1M312 301h1M326 301h1M330 301h1M334 301h1M389 301h1M393 301h1M397 301h1M401 301h1M405 301h1M410 301h1M125 302h1M129 302h1M133 302h1M158 302h1M191 302h1M211 302h1M213 302h1M219 302h1M221 302h1M227 302h1M229 302h1M245 302h1M263 302h1M293 302h1M295 302h1M301 302h1M303 302h1M309 302h1M311 302h1M326 302h1M330 302h1M334 302h1M389 302h1M393 302h1M397 302h1M401 302h2M405 302h1M410 302h1M126 303h1M132 303h1M158 303h1M191 303h1M211 303h1M213 303h1M219 303h1M221 303h1M227 303h1M229 303h1M245 303h1M263 303h1M293 303h1M295 303h1M301 303h1M303 303h1M309 303h1M311 303h1M327 303h1M333 303h1M367 303h15M389 303h1M394 303h3M401 303h1M403 303h4M410 303h1M127 304h5M158 304h1M191 304h1M211 304h1M213 304h1M219 304h1M221 304h1M227 304h1M229 304h1M245 304h1M263 304h1M293 304h1M295 304h1M301 304h1M303 304h1M309 304h1M311 304h1M328 304h5M374 304h1M401 304h1M158 305h1M191 305h1M212 305h1M220 305h1M228 305h1M245 305h1M263 305h1M294 305h1M302 305h1M310 305h1M374 305h1M401 305h1M158 306h1M191 306h1M212 306h1M220 306h1M228 306h1M245 306h1M263 306h1M294 306h1M302 306h1M310 306h1M374 306h1M158 307h1M191 307h1M212 307h1M220 307h1M228 307h1M245 307h1M263 307h1M294 307h1M302 307h1M310 307h1M374 307h1M158 308h1M191 308h1M245 308h1M263 308h1M374 308h1M158 309h1M191 309h1M245 309h1M263 309h1M374 309h1M158 310h1M191 310h1M245 310h1M263 310h1M374 310h1M158 311h1M191 311h1M245 311h1M263 311h1M374 311h1M158 312h1M191 312h1M245 312h1M263 312h1M374 312h1M158 313h1M191 313h1M245 313h1M263 313h1M374 313h1M158 314h1M191 314h1M245 314h1M263 314h1M374 314h1M158 315h1M191 315h1M245 315h1M263 315h1M374 315h1M158 316h1M191 316h1M245 316h1M263 316h1M374 316h1M158 317h1M191 317h1M245 317h1M263 317h1M374 317h1M158 318h1M191 318h1M245 318h1M263 318h1M374 318h1M158 319h1M191 319h1M245 319h1M263 319h1M374 319h1M158 320h1M191 320h1M245 320h1M263 320h1M374 320h1M158 321h1M191 321h1M245 321h1M263 321h1M374 321h1M158 322h1M191 322h1M245 322h1M263 322h1M374 322h1M158 323h1M191 323h19M227 323h19M263 323h1M374 323h1M158 324h1M209 324h1M227 324h1M263 324h1M374 324h1M119 325h3M130 325h1M143 325h5M158 325h1M209 325h1M227 325h1M263 325h1M374 325h1M118 326h1M122 326h1M129 326h2M143 326h1M158 326h1M209 326h1M227 326h1M263 326h1M374 326h1M118 327h1M122 327h1M128 327h1M130 327h1M143 327h1M151 327h15M209 327h1M227 327h1M263 327h1M374 327h1M118 328h1M122 328h1M130 328h1M143 328h1M209 328h1M227 328h1M263 328h1M371 328h1M374 328h1M377 328h1M118 329h1M122 329h1M130 329h1M134 329h1M138 329h1M143 329h4M209 329h1M227 329h1M263 329h1M372 329h1M374 329h1M376 329h1M118 330h1M122 330h1M130 330h1M134 330h1M138 330h1M143 330h1M209 330h1M227 330h1M263 330h1M373 330h3M118 331h1M122 331h1M130 331h1M134 331h1M138 331h1M143 331h1M151 331h15M209 331h1M227 331h1M263 331h1M374 331h1M118 332h1M122 332h1M130 332h1M134 332h2M138 332h1M143 332h1M158 332h1M209 332h1M227 332h1M263 332h1M119 333h3M125 333h1M130 333h1M134 333h1M136 333h4M143 333h1M158 333h1M209 333h1M227 333h1M263 333h1M134 334h1M158 334h1M209 334h1M227 334h1M263 334h1M290 334h1M298 334h1M306 334h1M364 334h1M372 334h1M380 334h1M134 335h1M158 335h1M209 335h1M227 335h1M263 335h1M290 335h1M298 335h1M306 335h1M364 335h1M372 335h1M380 335h1M158 336h1M209 336h1M227 336h1M263 336h1M290 336h1M298 336h1M306 336h1M364 336h1M372 336h1M380 336h1M158 337h1M209 337h1M227 337h1M263 337h1M289 337h1M291 337h1M297 337h1M299 337h1M305 337h1M307 337h1M363 337h1M365 337h1M371 337h1M373 337h1M379 337h1M381 337h1M158 338h1M209 338h1M227 338h1M263 338h1M289 338h1M291 338h1M297 338h1M299 338h1M305 338h1M307 338h1M363 338h1M365 338h1M371 338h1M373 338h1M379 338h1M381 338h1M158 339h1M209 339h1M227 339h1M263 339h1M289 339h1M291 339h1M297 339h1M299 339h1M305 339h1M307 339h1M363 339h1M365 339h1M371 339h1M373 339h1M379 339h1M381 339h1M158 340h1M209 340h1M227 340h1M288 340h1M292 340h1M296 340h1M300 340h1M304 340h1M308 340h1M329 340h3M362 340h1M366 340h1M370 340h1M374 340h1M378 340h1M382 340h1M158 341h1M209 341h1M227 341h1M245 341h44M292 341h1M296 341h1M300 341h1M304 341h1M308 341h1M312 341h51M366 341h1M370 341h1M374 341h1M378 341h1M382 341h1M386 341h24M158 342h1M209 342h1M227 342h1M245 342h1M292 342h1M296 342h1M300 342h1M304 342h1M308 342h1M312 342h1M329 342h3M366 342h1M370 342h1M374 342h1M378 342h1M382 342h1M386 342h1M409 342h1M158 343h1M209 343h1M227 343h1M245 343h1M263 343h1M293 343h1M295 343h1M301 343h1M303 343h1M309 343h1M311 343h1M330 343h1M367 343h1M369 343h1M375 343h1M377 343h1M383 343h1M385 343h1M409 343h1M158 344h1M209 344h1M227 344h1M245 344h1M263 344h1M293 344h1M295 344h1M301 344h1M303 344h1M309 344h1M311 344h1M330 344h1M367 344h1M369 344h1M375 344h1M377 344h1M383 344h1M385 344h1M409 344h1M158 345h1M209 345h1M227 345h1M245 345h1M263 345h1M293 345h1M295 345h1M301 345h1M303 345h1M309 345h1M311 345h1M330 345h1M367 345h1M369 345h1M375 345h1M377 345h1M383 345h1M385 345h1M409 345h1M158 346h1M209 346h1M227 346h1M245 346h1M263 346h1M294 346h1M302 346h1M310 346h1M330 346h1M368 346h1M376 346h1M384 346h1M409 346h1M158 347h1M209 347h1M227 347h1M245 347h1M263 347h1M294 347h1M302 347h1M310 347h1M330 347h1M368 347h1M376 347h1M384 347h1M409 347h1M158 348h1M209 348h1M227 348h1M245 348h1M263 348h1M294 348h1M302 348h1M310 348h1M330 348h1M368 348h1M376 348h1M384 348h1M409 348h1M158 349h1M209 349h1M227 349h1M245 349h1M263 349h1M330 349h1M409 349h1M158 350h1M209 350h1M227 350h1M245 350h1M263 350h1M330 350h1M405 350h9M158 351h1M209 351h1M227 351h1M245 351h1M263 351h1M330 351h1M158 352h1M209 352h1M227 352h1M245 352h1M263 352h1M291 352h1M295 352h1M305 352h3M330 352h1M359 352h1M364 352h3M372 352h3M379 352h1M389 352h3M407 352h5M154 353h9M209 353h1M227 353h1M245 353h1M263 353h1M290 353h2M295 353h1M304 353h1M308 353h1M330 353h1M358 353h2M363 353h1M367 353h1M371 353h1M375 353h1M379 353h1M388 353h1M392 353h1M209 354h1M227 354h1M245 354h1M263 354h1M289 354h1M291 354h1M295 354h1M303 354h1M309 354h1M330 354h1M357 354h1M359 354h1M363 354h1M367 354h1M371 354h1M375 354h1M379 354h1M387 354h1M393 354h1M409 354h1M156 355h5M209 355h1M227 355h1M245 355h1M263 355h1M291 355h1M295 355h1M298 355h2M303 355h1M309 355h1M330 355h1M359 355h1M363 355h1M367 355h1M371 355h1M375 355h1M379 355h1M382 355h2M387 355h1M393 355h1M209 356h1M227 356h1M245 356h1M263 356h1M291 356h1M295 356h1M297 356h1M303 356h1M309 356h1M330 356h1M359 356h1M363 356h1M367 356h1M371 356h1M375 356h1M379 356h1M381 356h1M387 356h1M393 356h1M158 357h1M209 357h1M227 357h1M245 357h1M263 357h1M291 357h1M295 357h2M303 357h1M309 357h1M330 357h1M359 357h1M363 357h1M367 357h1M371 357h1M375 357h1M379 357h2M387 357h1M393 357h1M209 358h1M227 358h1M245 358h1M263 358h1M291 358h1M295 358h1M297 358h1M304 358h1M308 358h1M330 358h1M359 358h1M363 358h1M367 358h1M371 358h1M375 358h1M379 358h1M381 358h1M388 358h1M392 358h1M209 359h1M227 359h1M245 359h1M263 359h1M291 359h1M295 359h1M298 359h1M305 359h1M307 359h1M330 359h1M359 359h1M363 359h1M367 359h1M371 359h1M375 359h1M379 359h1M382 359h1M389 359h1M391 359h1M291 360h1M295 360h1M299 360h1M303 360h3M307 360h3M330 360h1M359 360h1M364 360h3M372 360h3M379 360h1M383 360h1M387 360h3M391 360h3M209 361h55M330 361h1M209 362h1M263 362h1M330 362h1M209 363h1M263 363h1M330 363h1M209 364h1M263 364h1M330 364h1M209 365h1M263 365h1M330 365h1M209 366h1M263 366h1M330 366h1M209 367h1M263 367h1M330 367h1M209 368h1M263 368h1M330 368h1M209 369h1M263 369h1M330 369h1M209 370h1M263 370h1M330 370h1M209 371h1M263 371h1M330 371h1M263 372h1M330 372h1M209 373h1M211 373h1M213 373h1M263 373h1M330 373h1M263 374h1M330 374h1M209 375h1M211 375h1M213 375h1M215 375h1M225 375h3M232 375h5M241 375h3M248 375h5M263 375h1M330 375h1M343 375h1M356 375h5M224 376h1M228 376h1M234 376h1M240 376h1M244 376h1M248 376h1M263 376h1M330 376h1M342 376h2M356 376h1M209 377h1M211 377h1M213 377h1M215 377h1M224 377h1M228 377h1M234 377h1M240 377h1M244 377h1M248 377h1M263 377h1M323 377h15M341 377h1M343 377h1M356 377h1M224 378h1M228 378h1M234 378h1M240 378h1M244 378h1M248 378h1M263 378h1M343 378h1M356 378h1M209 379h1M211 379h1M213 379h1M215 379h1M224 379h5M234 379h1M241 379h3M249 379h3M263 379h1M343 379h1M347 379h1M351 379h1M356 379h4M224 380h1M228 380h1M234 380h1M240 380h1M244 380h1M252 380h1M263 380h1M343 380h1M347 380h1M351 380h1M356 380h1M209 381h1M211 381h1M213 381h1M215 381h1M224 381h1M228 381h1M234 381h1M240 381h1M244 381h1M252 381h1M263 381h1M323 381h15M343 381h1M347 381h1M351 381h1M356 381h1M224 382h1M228 382h1M234 382h1M240 382h1M244 382h1M248 382h1M252 382h1M263 382h1M330 382h1M343 382h1M347 382h2M351 382h1M356 382h1M209 383h1M211 383h1M213 383h1M215 383h1M224 383h1M228 383h1M234 383h1M241 383h3M249 383h3M263 383h1M330 383h1M343 383h1M347 383h1M349 383h4M356 383h1M263 384h1M330 384h1M347 384h1M209 385h1M211 385h1M213 385h1M263 385h1M330 385h1M347 385h1M263 386h1M330 386h1M209 387h1M263 387h1M330 387h1M209 388h1M263 388h1M330 388h1M209 389h1M263 389h1M330 389h1M209 390h1M263 390h1M330 390h1M209 391h1M263 391h1M330 391h1M209 392h1M263 392h1M330 392h1M209 393h1M263 393h1M330 393h1M117 394h1M122 394h3M130 394h3M137 394h1M147 394h3M209 394h1M263 394h1M330 394h1M116 395h2M121 395h1M125 395h1M129 395h1M133 395h1M137 395h1M146 395h1M150 395h1M209 395h1M263 395h1M330 395h1M115 396h1M117 396h1M121 396h1M125 396h1M129 396h1M133 396h1M137 396h1M145 396h1M151 396h1M209 396h1M263 396h1M330 396h1M117 397h1M121 397h1M125 397h1M129 397h1M133 397h1M137 397h1M140 397h2M145 397h1M151 397h1M209 397h55M330 397h1M117 398h1M121 398h1M125 398h1M129 398h1M133 398h1M137 398h1M139 398h1M145 398h1M151 398h1M330 398h1M117 399h1M121 399h1M125 399h1M129 399h1M133 399h1M137 399h2M145 399h1M151 399h1M209 399h1M227 399h1M245 399h1M263 399h1M330 399h1M117 400h1M121 400h1M125 400h1M129 400h1M133 400h1M137 400h1M139 400h1M146 400h1M150 400h1M209 400h1M227 400h1M245 400h1M263 400h1M330 400h1M117 401h1M121 401h1M125 401h1M129 401h1M133 401h1M137 401h1M140 401h1M147 401h1M149 401h1M209 401h1M227 401h1M245 401h1M263 401h1M330 401h1M117 402h1M122 402h3M130 402h3M137 402h1M141 402h1M145 402h3M149 402h3M209 402h1M227 402h1M245 402h1M263 402h1M330 402h1M209 403h1M227 403h1M245 403h1M263 403h1M326 403h9M209 404h1M227 404h1M245 404h1M263 404h1M209 405h1M227 405h1M245 405h1M263 405h1M328 405h5M123 406h1M131 406h1M139 406h1M209 406h1M227 406h1M245 406h1M263 406h1M123 407h1M131 407h1M139 407h1M177 407h1M209 407h1M227 407h1M245 407h1M263 407h1M330 407h1M123 408h1M131 408h1M139 408h1M177 408h1M209 408h1M227 408h1M245 408h1M259 408h9M122 409h1M124 409h1M130 409h1M132 409h1M138 409h1M140 409h1M171 409h13M209 409h1M227 409h1M245 409h1M122 410h1M124 410h1M130 410h1M132 410h1M138 410h1M140 410h1M209 410h1M227 410h1M245 410h1M261 410h5M122 411h1M124 411h1M130 411h1M132 411h1M138 411h1M140 411h1M209 411h1M227 411h1M245 411h1M121 412h1M125 412h1M129 412h1M133 412h1M137 412h1M141 412h1M171 412h1M183 412h1M209 412h1M227 412h1M245 412h1M263 412h1M95 413h27M125 413h1M129 413h1M133 413h1M137 413h1M141 413h1M145 413h26M172 413h1M182 413h1M184 413h26M227 413h1M245 413h1M95 414h1M125 414h1M129 414h1M133 414h1M137 414h1M141 414h1M145 414h1M171 414h1M183 414h1M227 414h1M245 414h1M95 415h1M126 415h1M128 415h1M134 415h1M136 415h1M142 415h1M144 415h1M227 415h1M245 415h1M95 416h1M126 416h1M128 416h1M134 416h1M136 416h1M142 416h1M144 416h1M227 416h1M245 416h1M95 417h1M126 417h1M128 417h1M134 417h1M136 417h1M142 417h1M144 417h1M227 417h1M245 417h1M95 418h1M127 418h1M135 418h1M143 418h1M227 418h1M245 418h1M95 419h1M127 419h1M135 419h1M143 419h1M227 419h1M245 419h1M95 420h1M127 420h1M135 420h1M143 420h1M227 420h1M245 420h1M95 421h1M227 421h1M245 421h1M95 422h1M227 422h1M245 422h1M95 423h1M227 423h1M245 423h1M91 424h9M227 424h1M245 424h1M227 425h1M245 425h1M93 426h5M227 426h1M245 426h1M227 427h1M245 427h1M95 428h1M227 428h1M245 428h1M227 429h1M245 429h1M227 430h1M245 430h1M193 431h35M245 431h35M193 432h1M279 432h1M193 433h1M279 433h1M193 434h1M279 434h1M193 435h1M279 435h1M193 436h1M279 436h1M193 437h1M279 437h1M193 438h1M279 438h1M193 439h1M279 439h1M193 440h1M279 440h1M193 441h1M279 441h1M193 442h1M279 442h1M193 443h1M279 443h1M193 444h1M279 444h1M193 445h1M279 445h1M193 446h1M279 446h1M193 447h1M279 447h1M193 448h1M279 448h1M190 449h1M193 449h1M196 449h1M276 449h1M279 449h1M282 449h1M191 450h1M193 450h1M195 450h1M277 450h1M279 450h1M281 450h1M192 451h3M278 451h3M193 452h1M279 452h1M183 455h1M191 455h1M199 455h1M269 455h1M277 455h1M285 455h1M183 456h1M191 456h1M199 456h1M269 456h1M277 456h1M285 456h1M183 457h1M191 457h1M199 457h1M269 457h1M277 457h1M285 457h1M161 458h5M182 458h1M184 458h1M190 458h1M192 458h1M198 458h1M200 458h1M247 458h5M268 458h1M270 458h1M276 458h1M278 458h1M284 458h1M286 458h1M160 459h1M166 459h1M182 459h1M184 459h1M190 459h1M192 459h1M198 459h1M200 459h1M246 459h1M252 459h1M268 459h1M270 459h1M276 459h1M278 459h1M284 459h1M286 459h1M159 460h1M163 460h1M167 460h1M182 460h1M184 460h1M190 460h1M192 460h1M198 460h1M200 460h1M245 460h1M249 460h1M253 460h1M268 460h1M270 460h1M276 460h1M278 460h1M284 460h1M286 460h1M159 461h1M163 461h1M167 461h1M181 461h1M185 461h1M189 461h1M193 461h1M197 461h1M201 461h1M245 461h1M249 461h1M253 461h1M267 461h1M271 461h1M275 461h1M279 461h1M283 461h1M287 461h1M159 462h1M161 462h5M167 462h15M185 462h1M189 462h1M193 462h1M197 462h1M201 462h1M205 462h24M245 462h1M247 462h5M253 462h15M271 462h1M275 462h1M279 462h1M283 462h1M287 462h1M291 462h24M159 463h1M163 463h1M167 463h1M185 463h1M189 463h1M193 463h1M197 463h1M201 463h1M205 463h1M228 463h1M245 463h1M249 463h1M253 463h1M271 463h1M275 463h1M279 463h1M283 463h1M287 463h1M291 463h1M314 463h1M159 464h1M163 464h1M167 464h1M186 464h1M188 464h1M194 464h1M196 464h1M202 464h1M204 464h1M228 464h1M245 464h1M249 464h1M253 464h1M272 464h1M274 464h1M280 464h1M282 464h1M288 464h1M290 464h1M314 464h1M160 465h1M166 465h1M186 465h1M188 465h1M194 465h1M196 465h1M202 465h1M204 465h1M228 465h1M246 465h1M252 465h1M272 465h1M274 465h1M280 465h1M282 465h1M288 465h1M290 465h1M314 465h1M161 466h5M186 466h1M188 466h1M194 466h1M196 466h1M202 466h1M204 466h1M228 466h1M247 466h5M272 466h1M274 466h1M280 466h1M282 466h1M288 466h1M290 466h1M314 466h1M187 467h1M195 467h1M203 467h1M228 467h1M273 467h1M281 467h1M289 467h1M314 467h1M187 468h1M195 468h1M203 468h1M228 468h1M273 468h1M281 468h1M289 468h1M314 468h1M187 469h1M195 469h1M203 469h1M228 469h1M273 469h1M281 469h1M289 469h1M314 469h1M228 470h1M314 470h1M224 471h9M310 471h9M178 473h1M183 473h3M191 473h3M198 473h1M208 473h3M226 473h5M264 473h1M269 473h3M277 473h3M284 473h1M294 473h3M312 473h5M177 474h2M182 474h1M186 474h1M190 474h1M194 474h1M198 474h1M207 474h1M211 474h1M263 474h2M268 474h1M272 474h1M276 474h1M280 474h1M284 474h1M293 474h1M297 474h1M176 475h1M178 475h1M182 475h1M186 475h1M190 475h1M194 475h1M198 475h1M206 475h1M212 475h1M228 475h1M262 475h1M264 475h1M268 475h1M272 475h1M276 475h1M280 475h1M284 475h1M292 475h1M298 475h1M314 475h1M178 476h1M182 476h1M186 476h1M190 476h1M194 476h1M198 476h1M201 476h2M206 476h1M212 476h1M264 476h1M268 476h1M272 476h1M276 476h1M280 476h1M284 476h1M287 476h2M292 476h1M298 476h1M178 477h1M182 477h1M186 477h1M190 477h1M194 477h1M198 477h1M200 477h1M206 477h1M212 477h1M264 477h1M268 477h1M272 477h1M276 477h1M280 477h1M284 477h1M286 477h1M292 477h1M298 477h1M178 478h1M182 478h1M186 478h1M190 478h1M194 478h1M198 478h2M206 478h1M212 478h1M264 478h1M268 478h1M272 478h1M276 478h1M280 478h1M284 478h2M292 478h1M298 478h1M178 479h1M182 479h1M186 479h1M190 479h1M194 479h1M198 479h1M200 479h1M207 479h1M211 479h1M264 479h1M268 479h1M272 479h1M276 479h1M280 479h1M284 479h1M286 479h1M293 479h1M297 479h1M178 480h1M182 480h1M186 480h1M190 480h1M194 480h1M198 480h1M201 480h1M208 480h1M210 480h1M264 480h1M268 480h1M272 480h1M276 480h1M280 480h1M284 480h1M287 480h1M294 480h1M296 480h1M178 481h1M183 481h3M191 481h3M198 481h1M202 481h1M206 481h3M210 481h3M264 481h1M269 481h3M277 481h3M284 481h1M288 481h1M292 481h3M296 481h3" />
</svg>